<svg width="800" height="600" xmlns="http://www.w3.org/2000/svg" xmlns:xlink="http://www.w3.org/1999/xlink" version="1.1" baseProfile="full" viewBox="0 0 800 600">
<rect width="800" height="600" x="0" y="0" id="0" fill="rgb(40, 44, 52)" fill-opacity="1"></rect>
<path d="M80 530.5L640 530.5" fill="none" stroke="#484753"></path>
<path d="M80 436.5L640 436.5" fill="none" stroke="#484753"></path>
<path d="M80 342.5L640 342.5" fill="none" stroke="#484753"></path>
<path d="M80 248.5L640 248.5" fill="none" stroke="#484753"></path>
<path d="M80 154.5L640 154.5" fill="none" stroke="#484753"></path>
<path d="M80 60.5L640 60.5" fill="none" stroke="#484753"></path>
<path d="M80 530.5L640 530.5" fill="none" stroke="#484753"></path>
<path d="M80 436.5L640 436.5" fill="none" stroke="#484753"></path>
<path d="M80 342.5L640 342.5" fill="none" stroke="#484753"></path>
<path d="M80 248.5L640 248.5" fill="none" stroke="#484753"></path>
<path d="M80 154.5L640 154.5" fill="none" stroke="#484753"></path>
<path d="M80 60.5L640 60.5" fill="none" stroke="#484753"></path>
<path d="M80 530.5L640 530.5" fill="none" stroke="#484753"></path>
<path d="M80 436.5L640 436.5" fill="none" stroke="#484753"></path>
<path d="M80 342.5L640 342.5" fill="none" stroke="#484753"></path>
<path d="M80 248.5L640 248.5" fill="none" stroke="#484753"></path>
<path d="M80 154.5L640 154.5" fill="none" stroke="#484753"></path>
<path d="M80 60.5L640 60.5" fill="none" stroke="#484753"></path>
<path d="M80.5 530L80.5 60" fill="none" stroke="#ACDFED" stroke-linecap="round"></path>
<text dominant-baseline="central" text-anchor="middle" style="font-size:12px;font-family:Microsoft YaHei;" y="-6" transform="translate(80 45)" fill="#B9B8CE">压力</text>
<path d="M640.5 530L640.5 60" fill="none" stroke="#FFAB91" stroke-linecap="round"></path>
<text dominant-baseline="central" text-anchor="middle" style="font-size:12px;font-family:Microsoft YaHei;" y="-6" transform="translate(640 45)" fill="#B9B8CE">温度</text>
<path d="M720.5 530L720.5 60" fill="none" stroke="#f7f494" stroke-linecap="round"></path>
<text dominant-baseline="central" text-anchor="middle" style="font-size:12px;font-family:Microsoft YaHei;" y="-6" transform="translate(720 45)" fill="#B9B8CE">负压</text>
<path d="M80 530.5L640 530.5" fill="none" stroke="#B9B8CE" stroke-linecap="round"></path>
<path d="M108.5 530L108.5 535" fill="none" stroke="#B9B8CE"></path>
<path d="M164.5 530L164.5 535" fill="none" stroke="#B9B8CE"></path>
<path d="M220.5 530L220.5 535" fill="none" stroke="#B9B8CE"></path>
<path d="M276.5 530L276.5 535" fill="none" stroke="#B9B8CE"></path>
<path d="M332.5 530L332.5 535" fill="none" stroke="#B9B8CE"></path>
<path d="M388.5 530L388.5 535" fill="none" stroke="#B9B8CE"></path>
<path d="M444.5 530L444.5 535" fill="none" stroke="#B9B8CE"></path>
<path d="M500.5 530L500.5 535" fill="none" stroke="#B9B8CE"></path>
<path d="M556.5 530L556.5 535" fill="none" stroke="#B9B8CE"></path>
<path d="M612.5 530L612.5 535" fill="none" stroke="#B9B8CE"></path>
<text dominant-baseline="central" text-anchor="end" style="font-size:12px;font-family:Microsoft YaHei;" xml:space="preserve" transform="translate(72 530)" fill="#B9B8CE">0 hPa</text>
<text dominant-baseline="central" text-anchor="end" style="font-size:12px;font-family:Microsoft YaHei;" xml:space="preserve" transform="translate(72 436)" fill="#B9B8CE">200 hPa</text>
<text dominant-baseline="central" text-anchor="end" style="font-size:12px;font-family:Microsoft YaHei;" xml:space="preserve" transform="translate(72 342)" fill="#B9B8CE">400 hPa</text>
<text dominant-baseline="central" text-anchor="end" style="font-size:12px;font-family:Microsoft YaHei;" xml:space="preserve" transform="translate(72 248)" fill="#B9B8CE">600 hPa</text>
<text dominant-baseline="central" text-anchor="end" style="font-size:12px;font-family:Microsoft YaHei;" xml:space="preserve" transform="translate(72 154)" fill="#B9B8CE">800 hPa</text>
<text dominant-baseline="central" text-anchor="end" style="font-size:12px;font-family:Microsoft YaHei;" xml:space="preserve" transform="translate(72 60)" fill="#B9B8CE">1,000 hPa</text>
<text dominant-baseline="central" text-anchor="start" style="font-size:12px;font-family:Microsoft YaHei;" xml:space="preserve" transform="translate(648 530)" fill="#B9B8CE">0 °C</text>
<text dominant-baseline="central" text-anchor="start" style="font-size:12px;font-family:Microsoft YaHei;" xml:space="preserve" transform="translate(648 436)" fill="#B9B8CE">10 °C</text>
<text dominant-baseline="central" text-anchor="start" style="font-size:12px;font-family:Microsoft YaHei;" xml:space="preserve" transform="translate(648 342)" fill="#B9B8CE">20 °C</text>
<text dominant-baseline="central" text-anchor="start" style="font-size:12px;font-family:Microsoft YaHei;" xml:space="preserve" transform="translate(648 248)" fill="#B9B8CE">30 °C</text>
<text dominant-baseline="central" text-anchor="start" style="font-size:12px;font-family:Microsoft YaHei;" xml:space="preserve" transform="translate(648 154)" fill="#B9B8CE">40 °C</text>
<text dominant-baseline="central" text-anchor="start" style="font-size:12px;font-family:Microsoft YaHei;" xml:space="preserve" transform="translate(648 60)" fill="#B9B8CE">50 °C</text>
<text dominant-baseline="central" text-anchor="start" style="font-size:12px;font-family:Microsoft YaHei;" xml:space="preserve" transform="translate(728 530)" fill="#B9B8CE">0 hPa</text>
<text dominant-baseline="central" text-anchor="start" style="font-size:12px;font-family:Microsoft YaHei;" xml:space="preserve" transform="translate(728 436)" fill="#B9B8CE">200 hPa</text>
<text dominant-baseline="central" text-anchor="start" style="font-size:12px;font-family:Microsoft YaHei;" xml:space="preserve" transform="translate(728 342)" fill="#B9B8CE">400 hPa</text>
<text dominant-baseline="central" text-anchor="start" style="font-size:12px;font-family:Microsoft YaHei;" xml:space="preserve" transform="translate(728 248)" fill="#B9B8CE">600 hPa</text>
<text dominant-baseline="central" text-anchor="start" style="font-size:12px;font-family:Microsoft YaHei;" xml:space="preserve" transform="translate(728 154)" fill="#B9B8CE">800 hPa</text>
<text dominant-baseline="central" text-anchor="start" style="font-size:12px;font-family:Microsoft YaHei;" xml:space="preserve" transform="translate(728 60)" fill="#B9B8CE">1,000 hPa</text>
<text dominant-baseline="central" text-anchor="middle" style="font-size:12px;font-family:Microsoft YaHei;" y="6" transform="translate(108 538)" fill="#B9B8CE">4:46:40</text>
<text dominant-baseline="central" text-anchor="middle" style="font-size:12px;font-family:Microsoft YaHei;" y="6" transform="translate(164 538)" fill="#B9B8CE">4:46:42</text>
<text dominant-baseline="central" text-anchor="middle" style="font-size:12px;font-family:Microsoft YaHei;" y="6" transform="translate(220 538)" fill="#B9B8CE">4:46:44</text>
<text dominant-baseline="central" text-anchor="middle" style="font-size:12px;font-family:Microsoft YaHei;" y="6" transform="translate(276 538)" fill="#B9B8CE">4:46:45</text>
<text dominant-baseline="central" text-anchor="middle" style="font-size:12px;font-family:Microsoft YaHei;" y="6" transform="translate(332 538)" fill="#B9B8CE">4:46:46</text>
<text dominant-baseline="central" text-anchor="middle" style="font-size:12px;font-family:Microsoft YaHei;" y="6" transform="translate(388 538)" fill="#B9B8CE">4:46:47</text>
<text dominant-baseline="central" text-anchor="middle" style="font-size:12px;font-family:Microsoft YaHei;" y="6" transform="translate(444 538)" fill="#B9B8CE">4:46:48</text>
<text dominant-baseline="central" text-anchor="middle" style="font-size:12px;font-family:Microsoft YaHei;" y="6" transform="translate(500 538)" fill="#B9B8CE">4:46:49</text>
<text dominant-baseline="central" text-anchor="middle" style="font-size:12px;font-family:Microsoft YaHei;" y="6" transform="translate(556 538)" fill="#B9B8CE">4:46:51</text>
<text dominant-baseline="central" text-anchor="middle" style="font-size:12px;font-family:Microsoft YaHei;" y="6" transform="translate(612 538)" fill="#B9B8CE">4:46:52</text>
<g clip-path="url(#zr0-c0)">
<path d="M108 141.3L164 310.5L220 135.2L276 256.5L332 356.1L388 96.7L444 488.6L500 92L556 414.9L612 259.8" fill="none" stroke="#ACDFED" stroke-width="2" stroke-linejoin="bevel"></path>
</g>
<g clip-path="url(#zr0-c1)">
<path d="M108 494.3L164 179.4L220 147.4L276 408.7L332 382L388 446.8L444 241.4L500 361.3L556 193L612 311.5" fill="none" stroke="#ACDFED" stroke-width="2" stroke-linejoin="bevel"></path>
</g>
<g clip-path="url(#zr0-c2)">
<path d="M108 398.4L164 342L220 398.4L276 163.4L332 407.8L388 285.6L444 88.2L500 257.4L556 191.6L612 229.2" fill="none" stroke="#FFAB91" stroke-width="2" stroke-linejoin="bevel"></path>
</g>
<g clip-path="url(#zr0-c3)">
<path d="M108 266.8L164 342L220 464.2L276 360.8L332 248L388 407.8L444 219.8L500 285.6L556 407.8L612 229.2" fill="none" stroke="#FFAB91" stroke-width="2" stroke-linejoin="bevel"></path>
</g>
<g clip-path="url(#zr0-c4)">
<path d="M108 326.5L164 229.2L220 387.1L276 241.4L332 412L388 256L444 208.1L500 307.7L556 327L612 404.5" fill="none" stroke="#f7f494" stroke-width="2" stroke-linejoin="bevel"></path>
</g>
<g clip-path="url(#zr0-c5)">
<path d="M108 475.5L164 358.9L220 390.4L276 480.6L332 342L388 347.2L444 281.4L500 438.8L556 525.3L612 516.8" fill="none" stroke="#f7f494" stroke-width="2" stroke-linejoin="bevel"></path>
</g>
<path d="M0 -1L1 1L-1 1Z" transform="matrix(0,0,0,0,121.4929,107)" fill="#ACDFED" fill-opacity="0"></path>
<path d="M0 -1L1 1L-1 1Z" transform="matrix(0,0,0,0,108,276.67)" fill="#ACDFED" fill-opacity="0"></path>
<path d="M0 -1L1 1L-1 1Z" transform="matrix(0,0,0,0,125.0744,413.91)" fill="#ACDFED" fill-opacity="0"></path>
<path d="M0 -1L1 1L-1 1Z" transform="matrix(5,0,0,5,108,141.31)" fill="#ACDFED"></path>
<path d="M0 -1L1 1L-1 1Z" transform="matrix(5,0,0,5,164,310.51)" fill="#ACDFED"></path>
<path d="M0 -1L1 1L-1 1Z" transform="matrix(5,0,0,5,220,135.2)" fill="#ACDFED"></path>
<path d="M0 -1L1 1L-1 1Z" transform="matrix(5,0,0,5,276,256.46)" fill="#ACDFED"></path>
<path d="M0 -1L1 1L-1 1Z" transform="matrix(5,0,0,5,332,356.1)" fill="#ACDFED"></path>
<path d="M0 -1L1 1L-1 1Z" transform="matrix(5,0,0,5,388,96.66)" fill="#ACDFED"></path>
<path d="M0 -1L1 1L-1 1Z" transform="matrix(5,0,0,5,444,488.64)" fill="#ACDFED"></path>
<path d="M0 -1L1 1L-1 1Z" transform="matrix(5,0,0,5,500,91.96)" fill="#ACDFED"></path>
<path d="M0 -1L1 1L-1 1Z" transform="matrix(5,0,0,5,556,414.85)" fill="#ACDFED"></path>
<path d="M0 -1L1 1L-1 1Z" transform="matrix(5,0,0,5,612,259.75)" fill="#ACDFED"></path>
<path d="M1 0A1 1 0 1 1 1 -0.0001" transform="matrix(0,0,0,0,121.4929,121.57)" fill="#ACDFED" fill-opacity="0"></path>
<path d="M1 0A1 1 0 1 1 1 -0.0001" transform="matrix(0,0,0,0,108,97.6)" fill="#ACDFED" fill-opacity="0"></path>
<path d="M1 0A1 1 0 1 1 1 -0.0001" transform="matrix(0,0,0,0,125.0744,143.66)" fill="#ACDFED" fill-opacity="0"></path>
<path d="M1 0A1 1 0 1 1 1 -0.0001" transform="matrix(5,0,0,5,108,494.28)" fill="#ACDFED"></path>
<path d="M1 0A1 1 0 1 1 1 -0.0001" transform="matrix(5,0,0,5,164,179.38)" fill="#ACDFED"></path>
<path d="M1 0A1 1 0 1 1 1 -0.0001" transform="matrix(5,0,0,5,220,147.42)" fill="#ACDFED"></path>
<path d="M1 0A1 1 0 1 1 1 -0.0001" transform="matrix(5,0,0,5,276,408.74)" fill="#ACDFED"></path>
<path d="M1 0A1 1 0 1 1 1 -0.0001" transform="matrix(5,0,0,5,332,381.95)" fill="#ACDFED"></path>
<path d="M1 0A1 1 0 1 1 1 -0.0001" transform="matrix(5,0,0,5,388,446.81)" fill="#ACDFED"></path>
<path d="M1 0A1 1 0 1 1 1 -0.0001" transform="matrix(5,0,0,5,444,241.42)" fill="#ACDFED"></path>
<path d="M1 0A1 1 0 1 1 1 -0.0001" transform="matrix(5,0,0,5,500,361.27)" fill="#ACDFED"></path>
<path d="M1 0A1 1 0 1 1 1 -0.0001" transform="matrix(5,0,0,5,556,193.01)" fill="#ACDFED"></path>
<path d="M1 0A1 1 0 1 1 1 -0.0001" transform="matrix(5,0,0,5,612,311.45)" fill="#ACDFED"></path>
<path d="M0 -1L1 1L-1 1Z" transform="matrix(0,0,0,0,121.4929,182.2)" fill="#FFAB91" fill-opacity="0"></path>
<path d="M0 -1L1 1L-1 1Z" transform="matrix(0,0,0,0,108,389)" fill="#FFAB91" fill-opacity="0"></path>
<path d="M0 -1L1 1L-1 1Z" transform="matrix(0,0,0,0,125.0744,238.6)" fill="#FFAB91" fill-opacity="0"></path>
<path d="M0 -1L1 1L-1 1Z" transform="matrix(5,0,0,5,108,398.4)" fill="#FFAB91"></path>
<path d="M0 -1L1 1L-1 1Z" transform="matrix(5,0,0,5,164,342)" fill="#FFAB91"></path>
<path d="M0 -1L1 1L-1 1Z" transform="matrix(5,0,0,5,220,398.4)" fill="#FFAB91"></path>
<path d="M0 -1L1 1L-1 1Z" transform="matrix(5,0,0,5,276,163.4)" fill="#FFAB91"></path>
<path d="M0 -1L1 1L-1 1Z" transform="matrix(5,0,0,5,332,407.8)" fill="#FFAB91"></path>
<path d="M0 -1L1 1L-1 1Z" transform="matrix(5,0,0,5,388,285.6)" fill="#FFAB91"></path>
<path d="M0 -1L1 1L-1 1Z" transform="matrix(5,0,0,5,444,88.2)" fill="#FFAB91"></path>
<path d="M0 -1L1 1L-1 1Z" transform="matrix(5,0,0,5,500,257.4)" fill="#FFAB91"></path>
<path d="M0 -1L1 1L-1 1Z" transform="matrix(5,0,0,5,556,191.6)" fill="#FFAB91"></path>
<path d="M0 -1L1 1L-1 1Z" transform="matrix(5,0,0,5,612,229.2)" fill="#FFAB91"></path>
<path d="M1 0A1 1 0 1 1 1 -0.0001" transform="matrix(0,0,0,0,121.4929,445.4)" fill="#FFAB91" fill-opacity="0"></path>
<path d="M1 0A1 1 0 1 1 1 -0.0001" transform="matrix(0,0,0,0,108,473.6)" fill="#FFAB91" fill-opacity="0"></path>
<path d="M1 0A1 1 0 1 1 1 -0.0001" transform="matrix(0,0,0,0,125.0744,483)" fill="#FFAB91" fill-opacity="0"></path>
<path d="M1 0A1 1 0 1 1 1 -0.0001" transform="matrix(5,0,0,5,108,266.8)" fill="#FFAB91"></path>
<path d="M1 0A1 1 0 1 1 1 -0.0001" transform="matrix(5,0,0,5,164,342)" fill="#FFAB91"></path>
<path d="M1 0A1 1 0 1 1 1 -0.0001" transform="matrix(5,0,0,5,220,464.2)" fill="#FFAB91"></path>
<path d="M1 0A1 1 0 1 1 1 -0.0001" transform="matrix(5,0,0,5,276,360.8)" fill="#FFAB91"></path>
<path d="M1 0A1 1 0 1 1 1 -0.0001" transform="matrix(5,0,0,5,332,248)" fill="#FFAB91"></path>
<path d="M1 0A1 1 0 1 1 1 -0.0001" transform="matrix(5,0,0,5,388,407.8)" fill="#FFAB91"></path>
<path d="M1 0A1 1 0 1 1 1 -0.0001" transform="matrix(5,0,0,5,444,219.8)" fill="#FFAB91"></path>
<path d="M1 0A1 1 0 1 1 1 -0.0001" transform="matrix(5,0,0,5,500,285.6)" fill="#FFAB91"></path>
<path d="M1 0A1 1 0 1 1 1 -0.0001" transform="matrix(5,0,0,5,556,407.8)" fill="#FFAB91"></path>
<path d="M1 0A1 1 0 1 1 1 -0.0001" transform="matrix(5,0,0,5,612,229.2)" fill="#FFAB91"></path>
<path d="M0 -1L1 1L-1 1Z" transform="matrix(0,0,0,0,121.4929,403.57)" fill="#f7f494" fill-opacity="0"></path>
<path d="M0 -1L1 1L-1 1Z" transform="matrix(0,0,0,0,108,245.65)" fill="#f7f494" fill-opacity="0"></path>
<path d="M0 -1L1 1L-1 1Z" transform="matrix(0,0,0,0,125.0744,307.69)" fill="#f7f494" fill-opacity="0"></path>
<path d="M0 -1L1 1L-1 1Z" transform="matrix(5,0,0,5,108,326.49)" fill="#f7f494"></path>
<path d="M0 -1L1 1L-1 1Z" transform="matrix(5,0,0,5,164,229.2)" fill="#f7f494"></path>
<path d="M0 -1L1 1L-1 1Z" transform="matrix(5,0,0,5,220,387.12)" fill="#f7f494"></path>
<path d="M0 -1L1 1L-1 1Z" transform="matrix(5,0,0,5,276,241.42)" fill="#f7f494"></path>
<path d="M0 -1L1 1L-1 1Z" transform="matrix(5,0,0,5,332,412.03)" fill="#f7f494"></path>
<path d="M0 -1L1 1L-1 1Z" transform="matrix(5,0,0,5,388,255.99)" fill="#f7f494"></path>
<path d="M0 -1L1 1L-1 1Z" transform="matrix(5,0,0,5,444,208.05)" fill="#f7f494"></path>
<path d="M0 -1L1 1L-1 1Z" transform="matrix(5,0,0,5,500,307.69)" fill="#f7f494"></path>
<path d="M0 -1L1 1L-1 1Z" transform="matrix(5,0,0,5,556,326.96)" fill="#f7f494"></path>
<path d="M0 -1L1 1L-1 1Z" transform="matrix(5,0,0,5,612,404.51)" fill="#f7f494"></path>
<path d="M1 0A1 1 0 1 1 1 -0.0001" transform="matrix(0,0,0,0,121.4929,232.96)" fill="#f7f494" fill-opacity="0"></path>
<path d="M1 0A1 1 0 1 1 1 -0.0001" transform="matrix(0,0,0,0,108,267.74)" fill="#f7f494" fill-opacity="0"></path>
<path d="M1 0A1 1 0 1 1 1 -0.0001" transform="matrix(0,0,0,0,125.0744,482.53)" fill="#f7f494" fill-opacity="0"></path>
<path d="M1 0A1 1 0 1 1 1 -0.0001" transform="matrix(5,0,0,5,108,475.48)" fill="#f7f494"></path>
<path d="M1 0A1 1 0 1 1 1 -0.0001" transform="matrix(5,0,0,5,164,358.92)" fill="#f7f494"></path>
<path d="M1 0A1 1 0 1 1 1 -0.0001" transform="matrix(5,0,0,5,220,390.41)" fill="#f7f494"></path>
<path d="M1 0A1 1 0 1 1 1 -0.0001" transform="matrix(5,0,0,5,276,480.65)" fill="#f7f494"></path>
<path d="M1 0A1 1 0 1 1 1 -0.0001" transform="matrix(5,0,0,5,332,342)" fill="#f7f494"></path>
<path d="M1 0A1 1 0 1 1 1 -0.0001" transform="matrix(5,0,0,5,388,347.17)" fill="#f7f494"></path>
<path d="M1 0A1 1 0 1 1 1 -0.0001" transform="matrix(5,0,0,5,444,281.37)" fill="#f7f494"></path>
<path d="M1 0A1 1 0 1 1 1 -0.0001" transform="matrix(5,0,0,5,500,438.82)" fill="#f7f494"></path>
<path d="M1 0A1 1 0 1 1 1 -0.0001" transform="matrix(5,0,0,5,556,525.3)" fill="#f7f494"></path>
<path d="M1 0A1 1 0 1 1 1 -0.0001" transform="matrix(5,0,0,5,612,516.84)" fill="#f7f494"></path>
<path d="M0 0l560 0l0 30l-560 0Z" transform="matrix(1,0,0,-1,82.8,592.5)" fill="rgb(47,69,84)" fill-opacity="0"></path>
<g clip-path="url(#zr0-c6)">
<polygon points="560 0 0 0 0 22 62.2 14 124.4 22.3 186.7 16.6 248.9 11.9 311.1 24.2 373.3 5.6 435.6 24.4 497.8 9.1 560 16.4" transform="matrix(1,0,0,-1,82.8,592.5)" fill="#71708A" fill-opacity="0.2"></polygon>
</g>
<g clip-path="url(#zr0-c7)">
<polygon points="560 0 0 0 0 22 62.2 14 124.4 22.3 186.7 16.6 248.9 11.9 311.1 24.2 373.3 5.6 435.6 24.4 497.8 9.1 560 16.4" transform="matrix(1,0,0,-1,82.8,592.5)" fill="#87A3CE" fill-opacity="0.2"></polygon>
</g>
<g clip-path="url(#zr0-c8)">
<polygon points="560 0 0 0 0 22 62.2 14 124.4 22.3 186.7 16.6 248.9 11.9 311.1 24.2 373.3 5.6 435.6 24.4 497.8 9.1 560 16.4" transform="matrix(1,0,0,-1,82.8,592.5)" fill="#71708A" fill-opacity="0.2"></polygon>
</g>
<g clip-path="url(#zr0-c6)">
<polyline points="0 22 62.2 14 124.4 22.3 186.7 16.6 248.9 11.9 311.1 24.2 373.3 5.6 435.6 24.4 497.8 9.1 560 16.4" transform="matrix(1,0,0,-1,82.8,592.5)" fill="none" stroke="#71708A"></polyline>
</g>
<g clip-path="url(#zr0-c7)">
<polyline points="0 22 62.2 14 124.4 22.3 186.7 16.6 248.9 11.9 311.1 24.2 373.3 5.6 435.6 24.4 497.8 9.1 560 16.4" transform="matrix(1,0,0,-1,82.8,592.5)" fill="none" stroke="#87A3CE" stroke-width="0.5"></polyline>
</g>
<g clip-path="url(#zr0-c8)">
<polyline points="0 22 62.2 14 124.4 22.3 186.7 16.6 248.9 11.9 311.1 24.2 373.3 5.6 435.6 24.4 497.8 9.1 560 16.4" transform="matrix(1,0,0,-1,82.8,592.5)" fill="none" stroke="#71708A"></polyline>
</g>
<path d="M-5 -5l691.0547 0l0 22l-691.0547 0Z" transform="translate(59.4727 5)" fill="rgb(0,0,0)" fill-opacity="0" stroke="#ccc" stroke-width="0"></path>
<path d="M0 7L25 7" transform="translate(60.4727 4)" fill="#000" stroke="#ACDFED" stroke-width="2" stroke-linecap="butt" stroke-miterlimit="10"></path>
<path d="M12.5 1.4L18.1 12.6L6.9 12.6Z" transform="translate(60.4727 4)" fill="#ACDFED"></path>
<text dominant-baseline="central" text-anchor="start" style="font-size:12px;font-family:Microsoft YaHei;" x="30" y="7" transform="translate(60.4727 4)" fill="#B9B8CE">Pipe_Pres</text>
<path d="M0 7L25 7" transform="translate(156.1465 4)" fill="#000" stroke="#ACDFED" stroke-width="2" stroke-linecap="butt" stroke-miterlimit="10"></path>
<path d="M18.1 7A5.6 5.6 0 1 1 18.1 6.9994" transform="translate(156.1465 4)" fill="#ACDFED"></path>
<text dominant-baseline="central" text-anchor="start" style="font-size:12px;font-family:Microsoft YaHei;" x="30" y="7" transform="translate(156.1465 4)" fill="#B9B8CE">Ambient_Pres</text>
<path d="M0 7L25 7" transform="translate(276.0313 4)" fill="#000" stroke="#FFAB91" stroke-width="2" stroke-linecap="butt" stroke-miterlimit="10"></path>
<path d="M12.5 1.4L18.1 12.6L6.9 12.6Z" transform="translate(276.0313 4)" fill="#FFAB91"></path>
<text dominant-baseline="central" text-anchor="start" style="font-size:12px;font-family:Microsoft YaHei;" x="30" y="7" transform="translate(276.0313 4)" fill="#B9B8CE">Pipe_Temp</text>
<path d="M0 7L25 7" transform="translate(380.0137 4)" fill="#000" stroke="#FFAB91" stroke-width="2" stroke-linecap="butt" stroke-miterlimit="10"></path>
<path d="M18.1 7A5.6 5.6 0 1 1 18.1 6.9994" transform="translate(380.0137 4)" fill="#FFAB91"></path>
<text dominant-baseline="central" text-anchor="start" style="font-size:12px;font-family:Microsoft YaHei;" x="30" y="7" transform="translate(380.0137 4)" fill="#B9B8CE">Chip_Temp</text>
<path d="M0 7L25 7" transform="translate(485.2617 4)" fill="#000" stroke="#f7f494" stroke-width="2" stroke-linecap="butt" stroke-miterlimit="10"></path>
<path d="M18.1 7A5.6 5.6 0 1 1 18.1 6.9994" transform="translate(485.2617 4)" fill="#f7f494"></path>
<text dominant-baseline="central" text-anchor="start" style="font-size:12px;font-family:Microsoft YaHei;" x="30" y="7" transform="translate(485.2617 4)" fill="#B9B8CE">Set_nPressure</text>
<path d="M0 7L25 7" transform="translate(605.8672 4)" fill="#000" stroke="#f7f494" stroke-width="2" stroke-linecap="butt" stroke-miterlimit="10"></path>
<path d="M12.5 1.4L18.1 12.6L6.9 12.6Z" transform="translate(605.8672 4)" fill="#f7f494"></path>
<text dominant-baseline="central" text-anchor="start" style="font-size:12px;font-family:Microsoft YaHei;" x="30" y="7" transform="translate(605.8672 4)" fill="#B9B8CE">Current_nPressure</text>
<path d="M0 0l560 0l0 30l-560 0Z" transform="matrix(1,0,0,-1,82.8,592.5)" fill="none"></path>
<path d="M0 0l560 0l0 30l-560 0Z" transform="matrix(1,0,0,-1,82.8,592.5)" fill="rgb(135,163,206)" fill-opacity="0.2"></path>
<path d="M3.5 0.5L556.5 0.5A3 3 0 0 1 559.5 3.5L559.5 26.5A3 3 0 0 1 556.5 29.5L3.5 29.5A3 3 0 0 1 0.5 26.5L0.5 3.5A3 3 0 0 1 3.5 0.5" transform="matrix(1,0,0,-1,82.8,592.5)" fill="rgb(0,0,0)" fill-opacity="0" stroke="#71708A"></path>
<path d="M0 29.5L560 29.5L560 34.5A2 2 0 0 1 558 36.5L2 36.5A2 2 0 0 1 0 34.5L0 29.5" transform="matrix(1,0,0,-1,82.8,592.5)" fill="#B0B6C3" fill-opacity="0.3"></path>
<path d="M-2.2408 -1.6796C-1.8674 -1.6796 -1.6817 -1.4939 -1.6817 -1.1204L-1.6817 1.1204C-1.6817 1.4939 -1.8674 1.6796 -2.2408 1.6796C-2.6143 1.6796 -2.8 1.4939 -2.8 1.1204L-2.8 -1.1204C-2.8 -1.4939 -2.6143 -1.6796 -2.2408 -1.6796ZM0 -1.6796C0.3735 -1.6796 0.5592 -1.4939 0.5592 -1.1204L0.5592 1.1204C0.5592 1.4939 0.3735 1.6796 0 1.6796C-0.3735 1.6796 -0.5592 1.4939 -0.5592 1.1204L-0.5592 -1.1204C-0.5592 -1.4939 -0.3735 -1.6796 0 -1.6796ZM2.2408 -1.6796C2.6143 -1.6796 2.8 -1.4939 2.8 -1.1204L2.8 1.1204C2.8 1.4939 2.6143 1.6796 2.2408 1.6796C1.8674 1.6796 1.6817 1.4939 1.6817 1.1204L1.6817 -1.1204C1.6796 -1.4939 1.8674 -1.6796 2.2408 -1.6796Z" transform="matrix(1,0,0,-1,362.8,559.5)" fill="#fff"></path>
<path d="M0 1.628L0 2M0 0L0 0.375M-0.1 0.375L0.1 0.375A0.1 0.1 0 0 1 0.2 0.475L0.2 1.525A0.1 0.1 0 0 1 0.1 1.625L-0.1 1.625A0.1 0.1 0 0 1 -0.2 1.525L-0.2 0.475A0.1 0.1 0 0 1 -0.1 0.375Z" transform="matrix(15,0,0,-15,83.8,592.5)" fill="#353450" stroke="#C5CBE3" stroke-width="0.06666666666666667"></path>
<path d="M0 1.628L0 2M0 0L0 0.375M-0.1 0.375L0.1 0.375A0.1 0.1 0 0 1 0.2 0.475L0.2 1.525A0.1 0.1 0 0 1 0.1 1.625L-0.1 1.625A0.1 0.1 0 0 1 -0.2 1.525L-0.2 0.475A0.1 0.1 0 0 1 -0.1 0.375Z" transform="matrix(15,0,0,-15,641.8,592.5)" fill="#353450" stroke="#C5CBE3" stroke-width="0.06666666666666667"></path>
<defs >
<clipPath id="zr0-c0">
<path d="M79 59l562 0l0 472l-562 0Z" fill="#000"></path>
</clipPath>
<clipPath id="zr0-c1">
<path d="M79 59l562 0l0 472l-562 0Z" fill="#000"></path>
</clipPath>
<clipPath id="zr0-c2">
<path d="M79 59l562 0l0 472l-562 0Z" fill="#000"></path>
</clipPath>
<clipPath id="zr0-c3">
<path d="M79 59l562 0l0 472l-562 0Z" fill="#000"></path>
</clipPath>
<clipPath id="zr0-c4">
<path d="M79 59l562 0l0 472l-562 0Z" fill="#000"></path>
</clipPath>
<clipPath id="zr0-c5">
<path d="M79 59l562 0l0 472l-562 0Z" fill="#000"></path>
</clipPath>
<clipPath id="zr0-c6">
<path d="M0 0l0 0l0 30l0 0Z" transform="matrix(1,0,0,-1,82.8,592.5)" fill="#000"></path>
</clipPath>
<clipPath id="zr0-c7">
<path d="M0 0l560 0l0 30l-560 0Z" transform="matrix(1,0,0,-1,82.8,592.5)" fill="#000"></path>
</clipPath>
<clipPath id="zr0-c8">
<path d="M560 0l0 0l0 30l0 0Z" transform="matrix(1,0,0,-1,82.8,592.5)" fill="#000"></path>
</clipPath>
</defs>
</svg>