<svg width="800" height="600" xmlns="http://www.w3.org/2000/svg" xmlns:xlink="http://www.w3.org/1999/xlink" version="1.1" baseProfile="full" viewBox="0 0 800 600">
<rect width="800" height="600" x="0" y="0" id="0" fill="rgb(40, 44, 52)" fill-opacity="1"></rect>
<path d="M80 530.5L640 530.5" fill="none" stroke="#484753"></path>
<path d="M80 451.5L640 451.5" fill="none" stroke="#484753"></path>
<path d="M80 373.5L640 373.5" fill="none" stroke="#484753"></path>
<path d="M80 295.5L640 295.5" fill="none" stroke="#484753"></path>
<path d="M80 216.5L640 216.5" fill="none" stroke="#484753"></path>
<path d="M80 138.5L640 138.5" fill="none" stroke="#484753"></path>
<path d="M80 60.5L640 60.5" fill="none" stroke="#484753"></path>
<path d="M80 530.5L640 530.5" fill="none" stroke="#484753"></path>
<path d="M80 463.5L640 463.5" fill="none" stroke="#484753"></path>
<path d="M80 395.5L640 395.5" fill="none" stroke="#484753"></path>
<path d="M80 328.5L640 328.5" fill="none" stroke="#484753"></path>
<path d="M80 261.5L640 261.5" fill="none" stroke="#484753"></path>
<path d="M80 194.5L640 194.5" fill="none" stroke="#484753"></path>
<path d="M80 127.5L640 127.5" fill="none" stroke="#484753"></path>
<path d="M80 60.5L640 60.5" fill="none" stroke="#484753"></path>
<path d="M80.5 530L80.5 60" fill="none" stroke="#ACDFED" stroke-linecap="round"></path>
<text dominant-baseline="central" text-anchor="middle" style="font-size:12px;font-family:Microsoft YaHei;" y="-6" transform="translate(80 45)" fill="#B9B8CE">压力</text>
<path d="M640.5 530L640.5 60" fill="none" stroke="#FFAB91" stroke-linecap="round"></path>
<text dominant-baseline="central" text-anchor="middle" style="font-size:12px;font-family:Microsoft YaHei;" y="-6" transform="translate(640 45)" fill="#B9B8CE">温度</text>
<path d="M720.5 530L720.5 60" fill="none" stroke="#f7f494" stroke-linecap="round"></path>
<text dominant-baseline="central" text-anchor="middle" style="font-size:12px;font-family:Microsoft YaHei;" y="-6" transform="translate(720 45)" fill="#B9B8CE">负压</text>
<path d="M80 530.5L640 530.5" fill="none" stroke="#B9B8CE" stroke-linecap="round"></path>
<path d="M82.5 530L82.5 535" fill="none" stroke="#B9B8CE"></path>
<path d="M147.5 530L147.5 535" fill="none" stroke="#B9B8CE"></path>
<path d="M212.5 530L212.5 535" fill="none" stroke="#B9B8CE"></path>
<path d="M276.5 530L276.5 535" fill="none" stroke="#B9B8CE"></path>
<path d="M341.5 530L341.5 535" fill="none" stroke="#B9B8CE"></path>
<path d="M406.5 530L406.5 535" fill="none" stroke="#B9B8CE"></path>
<path d="M471.5 530L471.5 535" fill="none" stroke="#B9B8CE"></path>
<path d="M536.5 530L536.5 535" fill="none" stroke="#B9B8CE"></path>
<path d="M600.5 530L600.5 535" fill="none" stroke="#B9B8CE"></path>
<text dominant-baseline="central" text-anchor="end" style="font-size:12px;font-family:Microsoft YaHei;" xml:space="preserve" transform="translate(72 530)" fill="#B9B8CE">0 hPa</text>
<text dominant-baseline="central" text-anchor="end" style="font-size:12px;font-family:Microsoft YaHei;" xml:space="preserve" transform="translate(72 451.6667)" fill="#B9B8CE">200 hPa</text>
<text dominant-baseline="central" text-anchor="end" style="font-size:12px;font-family:Microsoft YaHei;" xml:space="preserve" transform="translate(72 373.3333)" fill="#B9B8CE">400 hPa</text>
<text dominant-baseline="central" text-anchor="end" style="font-size:12px;font-family:Microsoft YaHei;" xml:space="preserve" transform="translate(72 295)" fill="#B9B8CE">600 hPa</text>
<text dominant-baseline="central" text-anchor="end" style="font-size:12px;font-family:Microsoft YaHei;" xml:space="preserve" transform="translate(72 216.6667)" fill="#B9B8CE">800 hPa</text>
<text dominant-baseline="central" text-anchor="end" style="font-size:12px;font-family:Microsoft YaHei;" xml:space="preserve" transform="translate(72 138.3333)" fill="#B9B8CE">1,000 hPa</text>
<text dominant-baseline="central" text-anchor="end" style="font-size:12px;font-family:Microsoft YaHei;" xml:space="preserve" transform="translate(72 60)" fill="#B9B8CE">1,200 hPa</text>
<text dominant-baseline="central" text-anchor="start" style="font-size:12px;font-family:Microsoft YaHei;" xml:space="preserve" transform="translate(728 530)" fill="#B9B8CE">0 hPa</text>
<text dominant-baseline="central" text-anchor="start" style="font-size:12px;font-family:Microsoft YaHei;" xml:space="preserve" transform="translate(728 462.8571)" fill="#B9B8CE">50 hPa</text>
<text dominant-baseline="central" text-anchor="start" style="font-size:12px;font-family:Microsoft YaHei;" xml:space="preserve" transform="translate(728 395.7143)" fill="#B9B8CE">100 hPa</text>
<text dominant-baseline="central" text-anchor="start" style="font-size:12px;font-family:Microsoft YaHei;" xml:space="preserve" transform="translate(728 328.5714)" fill="#B9B8CE">150 hPa</text>
<text dominant-baseline="central" text-anchor="start" style="font-size:12px;font-family:Microsoft YaHei;" xml:space="preserve" transform="translate(728 261.4286)" fill="#B9B8CE">200 hPa</text>
<text dominant-baseline="central" text-anchor="start" style="font-size:12px;font-family:Microsoft YaHei;" xml:space="preserve" transform="translate(728 194.2857)" fill="#B9B8CE">250 hPa</text>
<text dominant-baseline="central" text-anchor="start" style="font-size:12px;font-family:Microsoft YaHei;" xml:space="preserve" transform="translate(728 127.1429)" fill="#B9B8CE">300 hPa</text>
<text dominant-baseline="central" text-anchor="start" style="font-size:12px;font-family:Microsoft YaHei;" xml:space="preserve" transform="translate(728 60)" fill="#B9B8CE">350 hPa</text>
<text dominant-baseline="central" text-anchor="middle" style="font-size:12px;font-family:Microsoft YaHei;" y="6" transform="translate(82.314 538)" fill="#B9B8CE">17:52:22</text>
<text dominant-baseline="central" text-anchor="middle" style="font-size:12px;font-family:Microsoft YaHei;" y="6" transform="translate(147.1074 538)" fill="#B9B8CE">17:52:36</text>
<text dominant-baseline="central" text-anchor="middle" style="font-size:12px;font-family:Microsoft YaHei;" y="6" transform="translate(211.9008 538)" fill="#B9B8CE">17:52:50</text>
<text dominant-baseline="central" text-anchor="middle" style="font-size:12px;font-family:Microsoft YaHei;" y="6" transform="translate(276.6942 538)" fill="#B9B8CE">17:53:04</text>
<text dominant-baseline="central" text-anchor="middle" style="font-size:12px;font-family:Microsoft YaHei;" y="6" transform="translate(341.4876 538)" fill="#B9B8CE">17:53:18</text>
<text dominant-baseline="central" text-anchor="middle" style="font-size:12px;font-family:Microsoft YaHei;" y="6" transform="translate(406.281 538)" fill="#B9B8CE">17:53:32</text>
<text dominant-baseline="central" text-anchor="middle" style="font-size:12px;font-family:Microsoft YaHei;" y="6" transform="translate(471.0744 538)" fill="#B9B8CE">17:53:46</text>
<text dominant-baseline="central" text-anchor="middle" style="font-size:12px;font-family:Microsoft YaHei;" y="6" transform="translate(535.8678 538)" fill="#B9B8CE">17:54:00</text>
<text dominant-baseline="central" text-anchor="middle" style="font-size:12px;font-family:Microsoft YaHei;" y="6" transform="translate(600.6612 538)" fill="#B9B8CE">17:54:14</text>
<g clip-path="url(#zr0-c0)">
<path d="M82.3 267L86.9 265.5L91.6 266.1L96.2 265.4L100.8 265.3L105.5 262.1L110.1 259.3L114.7 254L119.3 251.4L124 249L128.6 246.7L133.2 242.1L137.9 239.9L142.5 237.7L147.1 235.5L151.7 231.2L156.4 229.1L161 227L165.6 225L170.2 220.9L174.9 219L179.5 217L184.1 215.1L188.8 211.3L193.4 209.4L198 207.6L202.6 205.8L207.3 202.2L211.9 200.5L216.5 198.8L221.2 197.1L225.8 193.8L230.4 192.1L235 190.5L239.7 189L244.3 185.9L248.9 184.4L253.6 182.9L258.2 181.5L262.8 178.6L267.4 177.3L272.1 175.9L276.7 174.6L281.3 172L286 170.7L290.6 169.5L295.2 168.2L299.8 165.8L304.5 164.7L309.1 163.5L313.7 162.4L318.3 160.2L323 159.2L327.6 158.2L332.2 157.2L336.9 155.2L341.5 154.3L346.1 153.4L350.7 152.5L355.4 150.8L360 150L364.6 149.2L369.3 148.4L373.9 146.9L378.5 146.2L383.1 145.6L387.8 144.9L392.4 143.7L397 143.1L401.7 142.5L406.3 142L410.9 140.9L415.5 140.4L420.2 139.9L424.8 139.5L429.4 138.6L434 138.2L438.7 137.8L443.3 137.4L447.9 136.7L452.6 136.4L457.2 136L461.8 135.6L466.4 134.8L471.1 134.3L475.7 133.9L480.3 133.6L485 133.5L489.6 133.5L494.2 133.5L498.8 133.4L503.5 133.4L508.1 133.4L512.7 133.4L517.4 133.4L522 133.4L526.6 133.4L531.2 133.4L535.9 133.4L540.5 133.4L545.1 133.4L549.8 133.4L554.4 133.4L559 133.4L563.6 133.4L568.3 133.4L572.9 133.4L577.5 133.4L582.1 133.4L586.8 133.4L591.4 133.4L596 133.4L600.7 133.4L605.3 133.4L609.9 133.4L614.5 133.4L619.2 133.4L623.8 133.4L628.4 133.4L633.1 133.4L637.7 133.4" fill="none" stroke="#ACDFED" stroke-width="2" stroke-linejoin="bevel"></path>
</g>
<g clip-path="url(#zr0-c1)">
<path d="M82.3 133.8L86.9 133.8L91.6 133.8L96.2 133.8L100.8 133.8L105.5 133.8L110.1 133.8L114.7 133.8L119.3 133.8L124 133.8L128.6 133.8L133.2 133.8L137.9 133.8L142.5 133.8L147.1 133.8L151.7 133.8L156.4 133.8L161 133.8L165.6 133.8L170.2 133.8L174.9 133.8L179.5 133.8L184.1 133.8L188.8 133.8L193.4 133.8L198 133.8L202.6 133.8L207.3 133.8L211.9 133.8L216.5 133.8L221.2 133.8L225.8 133.8L230.4 133.8L235 133.8L239.7 133.8L244.3 133.8L248.9 133.8L253.6 133.8L258.2 133.8L262.8 133.8L267.4 133.8L272.1 133.8L276.7 133.8L281.3 133.8L286 133.8L290.6 133.8L295.2 133.8L299.8 133.8L304.5 133.8L309.1 133.8L313.7 133.8L318.3 133.8L323 133.8L327.6 133.8L332.2 133.8L336.9 133.8L341.5 133.8L346.1 133.8L350.7 133.8L355.4 133.8L360 133.8L364.6 133.8L369.3 133.8L373.9 133.8L378.5 133.8L383.1 133.8L387.8 133.8L392.4 133.8L397 133.8L401.7 133.8L406.3 133.8L410.9 133.8L415.5 133.8L420.2 133.8L424.8 133.8L429.4 133.8L434 133.8L438.7 133.8L443.3 133.8L447.9 133.8L452.6 133.8L457.2 133.8L461.8 133.8L466.4 133.8L471.1 133.8L475.7 133.8L480.3 133.8L485 133.8L489.6 133.8L494.2 133.8L498.8 133.8L503.5 133.8L508.1 133.8L512.7 133.8L517.4 133.8L522 133.8L526.6 133.8L531.2 133.8L535.9 133.8L540.5 133.8L545.1 133.8L549.8 133.8L554.4 133.8L559 133.8L563.6 133.8L568.3 133.8L572.9 133.8L577.5 133.8L582.1 133.8L586.8 133.8L591.4 133.8L596 133.8L600.7 133.8L605.3 133.8L609.9 133.8L614.5 133.8L619.2 133.8L623.8 133.8L628.4 133.8L633.1 133.8L637.7 133.8" fill="none" stroke="#ACDFED" stroke-width="2" stroke-linejoin="bevel"></path>
</g>
<g clip-path="url(#zr0-c2)">
<path d="M82.3 73.4L86.9 78.4L91.6 76.2L96.2 72.4L100.8 79.2L105.5 89.9L110.1 99.7L114.7 109L119.3 126.5L124 134.8L128.6 142.9L133.2 150.8L137.9 166.2L142.5 173.7L147.1 181.3L151.7 188.6L156.4 203.1L161 210.3L165.6 217.4L170.2 224.2L174.9 237.9L179.5 244.6L184.1 251.2L188.8 257.8L193.4 270.6L198 276.9L202.6 283L207.3 289.2L211.9 301.3L216.5 307.2L221.2 313L225.8 318.6L230.4 329.9L235 335.3L239.7 340.7L244.3 346L248.9 356.4L253.6 361.5L258.2 366.4L262.8 371.3L267.4 380.9L272.1 385.5L276.7 390.1L281.3 394.6L286 403.4L290.6 407.7L295.2 411.8L299.8 416L304.5 424L309.1 427.9L313.7 431.8L318.3 435.6L323 442.8L327.6 446.3L332.2 449.8L336.9 453.2L341.5 459.6L346.1 462.9L350.7 465.8L355.4 468.9L360 474.5L364.6 477.2L369.3 479.9L373.9 482.5L378.5 487.3L383.1 489.6L387.8 491.9L392.4 494L397 498L401.7 500.1L406.3 501.9L410.9 503.8L415.5 507.3L420.2 508.9L424.8 510.5L429.4 512L434 514.8L438.7 516.2L443.3 517.5L447.9 518.7L452.6 521.3L457.2 522.5L461.8 523.7L466.4 525L471.1 528.1L475.7 529.7L480.3 529.5L485 529.2L489.6 529.1L494.2 528.9L498.8 528.9L503.5 528.9L508.1 528.9L512.7 528.9L517.4 528.9L522 528.9L526.6 528.9L531.2 528.9L535.9 528.9L540.5 528.9L545.1 528.9L549.8 528.9L554.4 528.9L559 528.9L563.6 528.9L568.3 528.9L572.9 528.9L577.5 528.9L582.1 528.9L586.8 528.9L591.4 528.9L596 528.9L600.7 528.9L605.3 528.9L609.9 528.9L614.5 528.9L619.2 528.9L623.8 528.9L628.4 528.9L633.1 528.9L637.7 528.9" fill="none" stroke="#f7f494" stroke-width="2" stroke-linejoin="bevel"></path>
</g>
<path d="M0 -1L1 1L-1 1Z" transform="matrix(5,0,0,5,82.314,266.9567)" fill="#ACDFED"></path>
<path d="M0 -1L1 1L-1 1Z" transform="matrix(5,0,0,5,147.1074,235.5058)" fill="#ACDFED"></path>
<path d="M0 -1L1 1L-1 1Z" transform="matrix(5,0,0,5,211.9008,200.4908)" fill="#ACDFED"></path>
<path d="M0 -1L1 1L-1 1Z" transform="matrix(5,0,0,5,276.6942,174.5625)" fill="#ACDFED"></path>
<path d="M0 -1L1 1L-1 1Z" transform="matrix(5,0,0,5,341.4876,154.2742)" fill="#ACDFED"></path>
<path d="M0 -1L1 1L-1 1Z" transform="matrix(5,0,0,5,406.281,141.9758)" fill="#ACDFED"></path>
<path d="M0 -1L1 1L-1 1Z" transform="matrix(5,0,0,5,471.0744,134.3383)" fill="#ACDFED"></path>
<path d="M0 -1L1 1L-1 1Z" transform="matrix(5,0,0,5,535.8678,133.4375)" fill="#ACDFED"></path>
<path d="M0 -1L1 1L-1 1Z" transform="matrix(5,0,0,5,600.6611,133.4375)" fill="#ACDFED"></path>
<path d="M1 0A1 1 0 1 1 1 -0.0001" transform="matrix(5,0,0,5,82.314,133.7508)" fill="#ACDFED"></path>
<path d="M1 0A1 1 0 1 1 1 -0.0001" transform="matrix(5,0,0,5,147.1074,133.7508)" fill="#ACDFED"></path>
<path d="M1 0A1 1 0 1 1 1 -0.0001" transform="matrix(5,0,0,5,211.9008,133.7508)" fill="#ACDFED"></path>
<path d="M1 0A1 1 0 1 1 1 -0.0001" transform="matrix(5,0,0,5,276.6942,133.7508)" fill="#ACDFED"></path>
<path d="M1 0A1 1 0 1 1 1 -0.0001" transform="matrix(5,0,0,5,341.4876,133.7508)" fill="#ACDFED"></path>
<path d="M1 0A1 1 0 1 1 1 -0.0001" transform="matrix(5,0,0,5,406.281,133.7508)" fill="#ACDFED"></path>
<path d="M1 0A1 1 0 1 1 1 -0.0001" transform="matrix(5,0,0,5,471.0744,133.79)" fill="#ACDFED"></path>
<path d="M1 0A1 1 0 1 1 1 -0.0001" transform="matrix(5,0,0,5,535.8678,133.79)" fill="#ACDFED"></path>
<path d="M1 0A1 1 0 1 1 1 -0.0001" transform="matrix(5,0,0,5,600.6611,133.79)" fill="#ACDFED"></path>
<path d="M0 -1L1 1L-1 1Z" transform="matrix(5,0,0,5,82.314,73.4286)" fill="#f7f494"></path>
<path d="M0 -1L1 1L-1 1Z" transform="matrix(5,0,0,5,147.1074,181.26)" fill="#f7f494"></path>
<path d="M0 -1L1 1L-1 1Z" transform="matrix(5,0,0,5,211.9008,301.3114)" fill="#f7f494"></path>
<path d="M0 -1L1 1L-1 1Z" transform="matrix(5,0,0,5,276.6942,390.0743)" fill="#f7f494"></path>
<path d="M0 -1L1 1L-1 1Z" transform="matrix(5,0,0,5,341.4876,459.6343)" fill="#f7f494"></path>
<path d="M0 -1L1 1L-1 1Z" transform="matrix(5,0,0,5,406.281,501.9343)" fill="#f7f494"></path>
<path d="M0 -1L1 1L-1 1Z" transform="matrix(5,0,0,5,471.0744,528.12)" fill="#f7f494"></path>
<path d="M0 -1L1 1L-1 1Z" transform="matrix(5,0,0,5,535.8678,528.9257)" fill="#f7f494"></path>
<path d="M0 -1L1 1L-1 1Z" transform="matrix(5,0,0,5,600.6611,528.9257)" fill="#f7f494"></path>
<path d="M0 0l560 0l0 30l-560 0Z" transform="matrix(1,0,0,-1,82.8,592.5)" fill="rgb(47,69,84)" fill-opacity="0"></path>
<g clip-path="url(#zr0-c3)">
<polygon points="560 0 0 0 0 5.6 4.7 5.8 9.3 5.7 14 5.9 18.7 5.9 23.3 6.3 28 6.7 32.7 7.5 37.3 7.8 42 8.1 46.7 8.5 51.3 9.1 56 9.4 60.7 9.7 65.3 10 70 10.6 74.7 10.9 79.3 11.2 84 11.5 88.7 12.1 93.3 12.4 98 12.6 102.7 12.9 107.3 13.4 112 13.7 116.7 14 121.3 14.2 126 14.7 130.7 15 135.3 15.2 140 15.4 144.7 15.9 149.3 16.1 154 16.4 158.7 16.6 163.3 17 168 17.2 172.7 17.4 177.3 17.6 182 18 186.7 18.2 191.3 18.4 196 18.6 200.7 19 205.3 19.1 210 19.3 214.7 19.5 219.3 19.8 224 20 228.7 20.2 233.3 20.3 238 20.6 242.7 20.8 247.3 20.9 252 21 256.7 21.3 261.3 21.4 266 21.6 270.7 21.7 275.3 21.9 280 22.1 284.7 22.2 289.3 22.3 294 22.5 298.7 22.6 303.3 22.7 308 22.8 312.7 22.9 317.3 23 322 23.1 326.7 23.2 331.3 23.3 336 23.4 340.7 23.5 345.3 23.5 350 23.6 354.7 23.7 359.3 23.8 364 23.8 368.7 23.9 373.3 24 378 24 382.7 24.1 387.3 24.2 392 24.2 396.7 24.3 401.3 24.4 406 24.4 410.7 24.4 415.3 24.4 420 24.4 424.7 24.4 429.3 24.4 434 24.4 438.7 24.4 443.3 24.4 448 24.4 452.7 24.4 457.3 24.4 462 24.4 466.7 24.4 471.3 24.4 476 24.4 480.7 24.4 485.3 24.4 490 24.4 494.7 24.4 499.3 24.4 504 24.4 508.7 24.4 513.3 24.4 518 24.4 522.7 24.4 527.3 24.4 532 24.4 536.7 24.4 541.3 24.4 546 24.4 550.7 24.4 555.3 24.4 560 24.4" transform="matrix(1,0,0,-1,82.8,592.5)" fill="#71708A" fill-opacity="0.2"></polygon>
</g>
<g clip-path="url(#zr0-c4)">
<polygon points="560 0 0 0 0 5.6 4.7 5.8 9.3 5.7 14 5.9 18.7 5.9 23.3 6.3 28 6.7 32.7 7.5 37.3 7.8 42 8.1 46.7 8.5 51.3 9.1 56 9.4 60.7 9.7 65.3 10 70 10.6 74.7 10.9 79.3 11.2 84 11.5 88.7 12.1 93.3 12.4 98 12.6 102.7 12.9 107.3 13.4 112 13.7 116.7 14 121.3 14.2 126 14.7 130.7 15 135.3 15.2 140 15.4 144.7 15.9 149.3 16.1 154 16.4 158.7 16.6 163.3 17 168 17.2 172.7 17.4 177.3 17.6 182 18 186.7 18.2 191.3 18.4 196 18.6 200.7 19 205.3 19.1 210 19.3 214.7 19.5 219.3 19.8 224 20 228.7 20.2 233.3 20.3 238 20.6 242.7 20.8 247.3 20.9 252 21 256.7 21.3 261.3 21.4 266 21.6 270.7 21.7 275.3 21.9 280 22.1 284.7 22.2 289.3 22.3 294 22.5 298.7 22.6 303.3 22.7 308 22.8 312.7 22.9 317.3 23 322 23.1 326.7 23.2 331.3 23.3 336 23.4 340.7 23.5 345.3 23.5 350 23.6 354.7 23.7 359.3 23.8 364 23.8 368.7 23.9 373.3 24 378 24 382.7 24.1 387.3 24.2 392 24.2 396.7 24.3 401.3 24.4 406 24.4 410.7 24.4 415.3 24.4 420 24.4 424.7 24.4 429.3 24.4 434 24.4 438.7 24.4 443.3 24.4 448 24.4 452.7 24.4 457.3 24.4 462 24.4 466.7 24.4 471.3 24.4 476 24.4 480.7 24.4 485.3 24.4 490 24.4 494.7 24.4 499.3 24.4 504 24.4 508.7 24.4 513.3 24.4 518 24.4 522.7 24.4 527.3 24.4 532 24.4 536.7 24.4 541.3 24.4 546 24.4 550.7 24.4 555.3 24.4 560 24.4" transform="matrix(1,0,0,-1,82.8,592.5)" fill="#87A3CE" fill-opacity="0.2"></polygon>
</g>
<g clip-path="url(#zr0-c5)">
<polygon points="560 0 0 0 0 5.6 4.7 5.8 9.3 5.7 14 5.9 18.7 5.9 23.3 6.3 28 6.7 32.7 7.5 37.3 7.8 42 8.1 46.7 8.5 51.3 9.1 56 9.4 60.7 9.7 65.3 10 70 10.6 74.7 10.9 79.3 11.2 84 11.5 88.7 12.1 93.3 12.4 98 12.6 102.7 12.9 107.3 13.4 112 13.7 116.7 14 121.3 14.2 126 14.7 130.7 15 135.3 15.2 140 15.4 144.7 15.9 149.3 16.1 154 16.4 158.7 16.6 163.3 17 168 17.2 172.7 17.4 177.3 17.6 182 18 186.7 18.2 191.3 18.4 196 18.6 200.7 19 205.3 19.1 210 19.3 214.7 19.5 219.3 19.8 224 20 228.7 20.2 233.3 20.3 238 20.6 242.7 20.8 247.3 20.9 252 21 256.7 21.3 261.3 21.4 266 21.6 270.7 21.7 275.3 21.9 280 22.1 284.7 22.2 289.3 22.3 294 22.5 298.7 22.6 303.3 22.7 308 22.8 312.7 22.9 317.3 23 322 23.1 326.7 23.2 331.3 23.3 336 23.4 340.7 23.5 345.3 23.5 350 23.6 354.7 23.7 359.3 23.8 364 23.8 368.7 23.9 373.3 24 378 24 382.7 24.1 387.3 24.2 392 24.2 396.7 24.3 401.3 24.4 406 24.4 410.7 24.4 415.3 24.4 420 24.4 424.7 24.4 429.3 24.4 434 24.4 438.7 24.4 443.3 24.4 448 24.4 452.7 24.4 457.3 24.4 462 24.4 466.7 24.4 471.3 24.4 476 24.4 480.7 24.4 485.3 24.4 490 24.4 494.7 24.4 499.3 24.4 504 24.4 508.7 24.4 513.3 24.4 518 24.4 522.7 24.4 527.3 24.4 532 24.4 536.7 24.4 541.3 24.4 546 24.4 550.7 24.4 555.3 24.4 560 24.4" transform="matrix(1,0,0,-1,82.8,592.5)" fill="#71708A" fill-opacity="0.2"></polygon>
</g>
<g clip-path="url(#zr0-c3)">
<polyline points="0 5.6 4.7 5.8 9.3 5.7 14 5.9 18.7 5.9 23.3 6.3 28 6.7 32.7 7.5 37.3 7.8 42 8.1 46.7 8.5 51.3 9.1 56 9.4 60.7 9.7 65.3 10 70 10.6 74.7 10.9 79.3 11.2 84 11.5 88.7 12.1 93.3 12.4 98 12.6 102.7 12.9 107.3 13.4 112 13.7 116.7 14 121.3 14.2 126 14.7 130.7 15 135.3 15.2 140 15.4 144.7 15.9 149.3 16.1 154 16.4 158.7 16.6 163.3 17 168 17.2 172.7 17.4 177.3 17.6 182 18 186.7 18.2 191.3 18.4 196 18.6 200.7 19 205.3 19.1 210 19.3 214.7 19.5 219.3 19.8 224 20 228.7 20.2 233.3 20.3 238 20.6 242.7 20.8 247.3 20.9 252 21 256.7 21.3 261.3 21.4 266 21.6 270.7 21.7 275.3 21.9 280 22.1 284.7 22.2 289.3 22.3 294 22.5 298.7 22.6 303.3 22.7 308 22.8 312.7 22.9 317.3 23 322 23.1 326.7 23.2 331.3 23.3 336 23.4 340.7 23.5 345.3 23.5 350 23.6 354.7 23.7 359.3 23.8 364 23.8 368.7 23.9 373.3 24 378 24 382.7 24.1 387.3 24.2 392 24.2 396.7 24.3 401.3 24.4 406 24.4 410.7 24.4 415.3 24.4 420 24.4 424.7 24.4 429.3 24.4 434 24.4 438.7 24.4 443.3 24.4 448 24.4 452.7 24.4 457.3 24.4 462 24.4 466.7 24.4 471.3 24.4 476 24.4 480.7 24.4 485.3 24.4 490 24.4 494.7 24.4 499.3 24.4 504 24.4 508.7 24.4 513.3 24.4 518 24.4 522.7 24.4 527.3 24.4 532 24.4 536.7 24.4 541.3 24.4 546 24.4 550.7 24.4 555.3 24.4 560 24.4" transform="matrix(1,0,0,-1,82.8,592.5)" fill="none" stroke="#71708A"></polyline>
</g>
<g clip-path="url(#zr0-c4)">
<polyline points="0 5.6 4.7 5.8 9.3 5.7 14 5.9 18.7 5.9 23.3 6.3 28 6.7 32.7 7.5 37.3 7.8 42 8.1 46.7 8.5 51.3 9.1 56 9.4 60.7 9.7 65.3 10 70 10.6 74.7 10.9 79.3 11.2 84 11.5 88.7 12.1 93.3 12.4 98 12.6 102.7 12.9 107.3 13.4 112 13.7 116.7 14 121.3 14.2 126 14.7 130.7 15 135.3 15.2 140 15.4 144.7 15.9 149.3 16.1 154 16.4 158.7 16.6 163.3 17 168 17.2 172.7 17.4 177.3 17.6 182 18 186.7 18.2 191.3 18.4 196 18.6 200.7 19 205.3 19.1 210 19.3 214.7 19.5 219.3 19.8 224 20 228.7 20.2 233.3 20.3 238 20.6 242.7 20.8 247.3 20.9 252 21 256.7 21.3 261.3 21.4 266 21.6 270.7 21.7 275.3 21.9 280 22.1 284.7 22.2 289.3 22.3 294 22.5 298.7 22.6 303.3 22.7 308 22.8 312.7 22.9 317.3 23 322 23.1 326.7 23.2 331.3 23.3 336 23.4 340.7 23.5 345.3 23.5 350 23.6 354.7 23.7 359.3 23.8 364 23.8 368.7 23.9 373.3 24 378 24 382.7 24.1 387.3 24.2 392 24.2 396.7 24.3 401.3 24.4 406 24.4 410.7 24.4 415.3 24.4 420 24.4 424.7 24.4 429.3 24.4 434 24.4 438.7 24.4 443.3 24.4 448 24.4 452.7 24.4 457.3 24.4 462 24.4 466.7 24.4 471.3 24.4 476 24.4 480.7 24.4 485.3 24.4 490 24.4 494.7 24.4 499.3 24.4 504 24.4 508.7 24.4 513.3 24.4 518 24.4 522.7 24.4 527.3 24.4 532 24.4 536.7 24.4 541.3 24.4 546 24.4 550.7 24.4 555.3 24.4 560 24.4" transform="matrix(1,0,0,-1,82.8,592.5)" fill="none" stroke="#87A3CE" stroke-width="0.5"></polyline>
</g>
<g clip-path="url(#zr0-c5)">
<polyline points="0 5.6 4.7 5.8 9.3 5.7 14 5.9 18.7 5.9 23.3 6.3 28 6.7 32.7 7.5 37.3 7.8 42 8.1 46.7 8.5 51.3 9.1 56 9.4 60.7 9.7 65.3 10 70 10.6 74.7 10.9 79.3 11.2 84 11.5 88.7 12.1 93.3 12.4 98 12.6 102.7 12.9 107.3 13.4 112 13.7 116.7 14 121.3 14.2 126 14.7 130.7 15 135.3 15.2 140 15.4 144.7 15.9 149.3 16.1 154 16.4 158.7 16.6 163.3 17 168 17.2 172.7 17.4 177.3 17.6 182 18 186.7 18.2 191.3 18.4 196 18.6 200.7 19 205.3 19.1 210 19.3 214.7 19.5 219.3 19.8 224 20 228.7 20.2 233.3 20.3 238 20.6 242.7 20.8 247.3 20.9 252 21 256.7 21.3 261.3 21.4 266 21.6 270.7 21.7 275.3 21.9 280 22.1 284.7 22.2 289.3 22.3 294 22.5 298.7 22.6 303.3 22.7 308 22.8 312.7 22.9 317.3 23 322 23.1 326.7 23.2 331.3 23.3 336 23.4 340.7 23.5 345.3 23.5 350 23.6 354.7 23.7 359.3 23.8 364 23.8 368.7 23.9 373.3 24 378 24 382.7 24.1 387.3 24.2 392 24.2 396.7 24.3 401.3 24.4 406 24.4 410.7 24.4 415.3 24.4 420 24.4 424.7 24.4 429.3 24.4 434 24.4 438.7 24.4 443.3 24.4 448 24.4 452.7 24.4 457.3 24.4 462 24.4 466.7 24.4 471.3 24.4 476 24.4 480.7 24.4 485.3 24.4 490 24.4 494.7 24.4 499.3 24.4 504 24.4 508.7 24.4 513.3 24.4 518 24.4 522.7 24.4 527.3 24.4 532 24.4 536.7 24.4 541.3 24.4 546 24.4 550.7 24.4 555.3 24.4 560 24.4" transform="matrix(1,0,0,-1,82.8,592.5)" fill="none" stroke="#71708A"></polyline>
</g>
<path d="M-5 -5l691.0547 0l0 22l-691.0547 0Z" transform="translate(59.4727 5)" fill="rgb(0,0,0)" fill-opacity="0" stroke="#ccc" stroke-width="0"></path>
<path d="M0 7L25 7" transform="translate(60.4727 4)" fill="#000" stroke="#ACDFED" stroke-width="2" stroke-linecap="butt" stroke-miterlimit="10"></path>
<path d="M12.5 1.4L18.1 12.6L6.9 12.6Z" transform="translate(60.4727 4)" fill="#ACDFED"></path>
<text dominant-baseline="central" text-anchor="start" style="font-size:12px;font-family:Microsoft YaHei;" x="30" y="7" transform="translate(60.4727 4)" fill="#B9B8CE">Pipe_Pres</text>
<path d="M0 7L25 7" transform="translate(156.1465 4)" fill="#000" stroke="#ACDFED" stroke-width="2" stroke-linecap="butt" stroke-miterlimit="10"></path>
<path d="M18.1 7A5.6 5.6 0 1 1 18.1 6.9994" transform="translate(156.1465 4)" fill="#ACDFED"></path>
<text dominant-baseline="central" text-anchor="start" style="font-size:12px;font-family:Microsoft YaHei;" x="30" y="7" transform="translate(156.1465 4)" fill="#B9B8CE">Ambient_Pres</text>
<path d="M0 7L25 7" transform="translate(276.0313 4)" fill="#000" stroke="#ccc" stroke-width="2" stroke-linecap="butt" stroke-miterlimit="10"></path>
<path d="M12.5 1.4L18.1 12.6L6.9 12.6Z" transform="translate(276.0313 4)" fill="#ccc" stroke="#ccc" stroke-width="0" stroke-linecap="butt" stroke-miterlimit="10"></path>
<text dominant-baseline="central" text-anchor="start" style="font-size:12px;font-family:Microsoft YaHei;" x="30" y="7" transform="translate(276.0313 4)" fill="#ccc">Pipe_Temp</text>
<path d="M0 7L25 7" transform="translate(380.0137 4)" fill="#000" stroke="#ccc" stroke-width="2" stroke-linecap="butt" stroke-miterlimit="10"></path>
<path d="M18.1 7A5.6 5.6 0 1 1 18.1 6.9994" transform="translate(380.0137 4)" fill="#ccc" stroke="#ccc" stroke-width="0" stroke-linecap="butt" stroke-miterlimit="10"></path>
<text dominant-baseline="central" text-anchor="start" style="font-size:12px;font-family:Microsoft YaHei;" x="30" y="7" transform="translate(380.0137 4)" fill="#ccc">Chip_Temp</text>
<path d="M0 7L25 7" transform="translate(485.2617 4)" fill="#000" stroke="#ccc" stroke-width="2" stroke-linecap="butt" stroke-miterlimit="10"></path>
<path d="M18.1 7A5.6 5.6 0 1 1 18.1 6.9994" transform="translate(485.2617 4)" fill="#ccc" stroke="#ccc" stroke-width="0" stroke-linecap="butt" stroke-miterlimit="10"></path>
<text dominant-baseline="central" text-anchor="start" style="font-size:12px;font-family:Microsoft YaHei;" x="30" y="7" transform="translate(485.2617 4)" fill="#ccc">Set_nPressure</text>
<path d="M0 7L25 7" transform="translate(605.8672 4)" fill="#000" stroke="#f7f494" stroke-width="2" stroke-linecap="butt" stroke-miterlimit="10"></path>
<path d="M12.5 1.4L18.1 12.6L6.9 12.6Z" transform="translate(605.8672 4)" fill="#f7f494"></path>
<text dominant-baseline="central" text-anchor="start" style="font-size:12px;font-family:Microsoft YaHei;" x="30" y="7" transform="translate(605.8672 4)" fill="#B9B8CE">Current_nPressure</text>
<path d="M0 0l560 0l0 30l-560 0Z" transform="matrix(1,0,0,-1,82.8,592.5)" fill="none"></path>
<path d="M0 0l560 0l0 30l-560 0Z" transform="matrix(1,0,0,-1,82.8,592.5)" fill="rgb(135,163,206)" fill-opacity="0.2"></path>
<path d="M3.5 0.5L556.5 0.5A3 3 0 0 1 559.5 3.5L559.5 26.5A3 3 0 0 1 556.5 29.5L3.5 29.5A3 3 0 0 1 0.5 26.5L0.5 3.5A3 3 0 0 1 3.5 0.5" transform="matrix(1,0,0,-1,82.8,592.5)" fill="rgb(0,0,0)" fill-opacity="0" stroke="#71708A"></path>
<path d="M0 29.5L560 29.5L560 34.5A2 2 0 0 1 558 36.5L2 36.5A2 2 0 0 1 0 34.5L0 29.5" transform="matrix(1,0,0,-1,82.8,592.5)" fill="#B0B6C3" fill-opacity="0.3"></path>
<path d="M-2.2408 -1.6796C-1.8674 -1.6796 -1.6817 -1.4939 -1.6817 -1.1204L-1.6817 1.1204C-1.6817 1.4939 -1.8674 1.6796 -2.2408 1.6796C-2.6143 1.6796 -2.8 1.4939 -2.8 1.1204L-2.8 -1.1204C-2.8 -1.4939 -2.6143 -1.6796 -2.2408 -1.6796ZM0 -1.6796C0.3735 -1.6796 0.5592 -1.4939 0.5592 -1.1204L0.5592 1.1204C0.5592 1.4939 0.3735 1.6796 0 1.6796C-0.3735 1.6796 -0.5592 1.4939 -0.5592 1.1204L-0.5592 -1.1204C-0.5592 -1.4939 -0.3735 -1.6796 0 -1.6796ZM2.2408 -1.6796C2.6143 -1.6796 2.8 -1.4939 2.8 -1.1204L2.8 1.1204C2.8 1.4939 2.6143 1.6796 2.2408 1.6796C1.8674 1.6796 1.6817 1.4939 1.6817 1.1204L1.6817 -1.1204C1.6796 -1.4939 1.8674 -1.6796 2.2408 -1.6796Z" transform="matrix(1,0,0,-1,362.8,559.5)" fill="#fff"></path>
<path d="M0 1.628L0 2M0 0L0 0.375M-0.1 0.375L0.1 0.375A0.1 0.1 0 0 1 0.2 0.475L0.2 1.525A0.1 0.1 0 0 1 0.1 1.625L-0.1 1.625A0.1 0.1 0 0 1 -0.2 1.525L-0.2 0.475A0.1 0.1 0 0 1 -0.1 0.375Z" transform="matrix(15,0,0,-15,83.8,592.5)" fill="#353450" stroke="#C5CBE3" stroke-width="0.06666666666666667"></path>
<path d="M0 1.628L0 2M0 0L0 0.375M-0.1 0.375L0.1 0.375A0.1 0.1 0 0 1 0.2 0.475L0.2 1.525A0.1 0.1 0 0 1 0.1 1.625L-0.1 1.625A0.1 0.1 0 0 1 -0.2 1.525L-0.2 0.475A0.1 0.1 0 0 1 -0.1 0.375Z" transform="matrix(15,0,0,-15,641.8,592.5)" fill="#353450" stroke="#C5CBE3" stroke-width="0.06666666666666667"></path>
<defs >
<clipPath id="zr0-c0">
<path d="M79 59l562 0l0 472l-562 0Z" fill="#000"></path>
</clipPath>
<clipPath id="zr0-c1">
<path d="M79 59l562 0l0 472l-562 0Z" fill="#000"></path>
</clipPath>
<clipPath id="zr0-c2">
<path d="M79 59l562 0l0 472l-562 0Z" fill="#000"></path>
</clipPath>
<clipPath id="zr0-c3">
<path d="M0 0l0 0l0 30l0 0Z" transform="matrix(1,0,0,-1,82.8,592.5)" fill="#000"></path>
</clipPath>
<clipPath id="zr0-c4">
<path d="M0 0l560 0l0 30l-560 0Z" transform="matrix(1,0,0,-1,82.8,592.5)" fill="#000"></path>
</clipPath>
<clipPath id="zr0-c5">
<path d="M560 0l0 0l0 30l0 0Z" transform="matrix(1,0,0,-1,82.8,592.5)" fill="#000"></path>
</clipPath>
</defs>
</svg>