<svg width="800" height="600" xmlns="http://www.w3.org/2000/svg" xmlns:xlink="http://www.w3.org/1999/xlink" version="1.1" baseProfile="full" viewBox="0 0 800 600">
<rect width="800" height="600" x="0" y="0" id="0" fill="rgb(40, 44, 52)" fill-opacity="1"></rect>
<path d="M80 530.5L640 530.5" fill="none" stroke="#484753"></path>
<path d="M80 451.5L640 451.5" fill="none" stroke="#484753"></path>
<path d="M80 373.5L640 373.5" fill="none" stroke="#484753"></path>
<path d="M80 295.5L640 295.5" fill="none" stroke="#484753"></path>
<path d="M80 216.5L640 216.5" fill="none" stroke="#484753"></path>
<path d="M80 138.5L640 138.5" fill="none" stroke="#484753"></path>
<path d="M80 60.5L640 60.5" fill="none" stroke="#484753"></path>
<path d="M80.5 530L80.5 60" fill="none" stroke="#ACDFED" stroke-linecap="round"></path>
<text dominant-baseline="central" text-anchor="middle" style="font-size:12px;font-family:Microsoft YaHei;" y="-6" transform="translate(80 45)" fill="#B9B8CE">压力</text>
<path d="M640.5 530L640.5 60" fill="none" stroke="#FFAB91" stroke-linecap="round"></path>
<text dominant-baseline="central" text-anchor="middle" style="font-size:12px;font-family:Microsoft YaHei;" y="-6" transform="translate(640 45)" fill="#B9B8CE">温度</text>
<path d="M720.5 530L720.5 60" fill="none" stroke="#f7f494" stroke-linecap="round"></path>
<text dominant-baseline="central" text-anchor="middle" style="font-size:12px;font-family:Microsoft YaHei;" y="-6" transform="translate(720 45)" fill="#B9B8CE">负压</text>
<path d="M80 530.5L640 530.5" fill="none" stroke="#B9B8CE" stroke-linecap="round"></path>
<path d="M82.5 530L82.5 535" fill="none" stroke="#B9B8CE"></path>
<path d="M147.5 530L147.5 535" fill="none" stroke="#B9B8CE"></path>
<path d="M212.5 530L212.5 535" fill="none" stroke="#B9B8CE"></path>
<path d="M276.5 530L276.5 535" fill="none" stroke="#B9B8CE"></path>
<path d="M341.5 530L341.5 535" fill="none" stroke="#B9B8CE"></path>
<path d="M406.5 530L406.5 535" fill="none" stroke="#B9B8CE"></path>
<path d="M471.5 530L471.5 535" fill="none" stroke="#B9B8CE"></path>
<path d="M536.5 530L536.5 535" fill="none" stroke="#B9B8CE"></path>
<path d="M600.5 530L600.5 535" fill="none" stroke="#B9B8CE"></path>
<text dominant-baseline="central" text-anchor="start" style="font-size:12px;font-family:Microsoft YaHei;" xml:space="preserve" transform="translate(728 530)" fill="#B9B8CE">0 hPa</text>
<text dominant-baseline="central" text-anchor="start" style="font-size:12px;font-family:Microsoft YaHei;" xml:space="preserve" transform="translate(728 451.6667)" fill="#B9B8CE">50 hPa</text>
<text dominant-baseline="central" text-anchor="start" style="font-size:12px;font-family:Microsoft YaHei;" xml:space="preserve" transform="translate(728 373.3333)" fill="#B9B8CE">100 hPa</text>
<text dominant-baseline="central" text-anchor="start" style="font-size:12px;font-family:Microsoft YaHei;" xml:space="preserve" transform="translate(728 295)" fill="#B9B8CE">150 hPa</text>
<text dominant-baseline="central" text-anchor="start" style="font-size:12px;font-family:Microsoft YaHei;" xml:space="preserve" transform="translate(728 216.6667)" fill="#B9B8CE">200 hPa</text>
<text dominant-baseline="central" text-anchor="start" style="font-size:12px;font-family:Microsoft YaHei;" xml:space="preserve" transform="translate(728 138.3333)" fill="#B9B8CE">250 hPa</text>
<text dominant-baseline="central" text-anchor="start" style="font-size:12px;font-family:Microsoft YaHei;" xml:space="preserve" transform="translate(728 60)" fill="#B9B8CE">300 hPa</text>
<text dominant-baseline="central" text-anchor="middle" style="font-size:12px;font-family:Microsoft YaHei;" y="6" transform="translate(82.314 538)" fill="#B9B8CE">18:34:07</text>
<text dominant-baseline="central" text-anchor="middle" style="font-size:12px;font-family:Microsoft YaHei;" y="6" transform="translate(147.1074 538)" fill="#B9B8CE">18:34:21</text>
<text dominant-baseline="central" text-anchor="middle" style="font-size:12px;font-family:Microsoft YaHei;" y="6" transform="translate(211.9008 538)" fill="#B9B8CE">18:34:35</text>
<text dominant-baseline="central" text-anchor="middle" style="font-size:12px;font-family:Microsoft YaHei;" y="6" transform="translate(276.6942 538)" fill="#B9B8CE">18:34:49</text>
<text dominant-baseline="central" text-anchor="middle" style="font-size:12px;font-family:Microsoft YaHei;" y="6" transform="translate(341.4876 538)" fill="#B9B8CE">18:35:03</text>
<text dominant-baseline="central" text-anchor="middle" style="font-size:12px;font-family:Microsoft YaHei;" y="6" transform="translate(406.281 538)" fill="#B9B8CE">18:35:17</text>
<text dominant-baseline="central" text-anchor="middle" style="font-size:12px;font-family:Microsoft YaHei;" y="6" transform="translate(471.0744 538)" fill="#B9B8CE">18:35:31</text>
<text dominant-baseline="central" text-anchor="middle" style="font-size:12px;font-family:Microsoft YaHei;" y="6" transform="translate(535.8678 538)" fill="#B9B8CE">18:35:45</text>
<text dominant-baseline="central" text-anchor="middle" style="font-size:12px;font-family:Microsoft YaHei;" y="6" transform="translate(600.6612 538)" fill="#B9B8CE">18:35:59</text>
<g clip-path="url(#zr0-c0)">
<path d="M82.314 428.6367L86.9421 430.36L91.5703 408.27L96.1983 400.9067L100.8264 390.0967L105.4545 390.0967L110.0826 367.2233L114.7107 370.9833L119.3388 357.51L123.9669 347.7967L128.595 339.18L133.2231 330.8767L137.8512 335.1067L142.4793 322.8867L147.1074 319.91L151.7355 308.4733L156.3636 301.8933L160.9917 305.34L165.6198 290.1433L170.2479 290.3L174.876 284.8167L179.5041 280.1167L184.1322 275.26L188.7603 269.4633L193.3884 260.8467L198.0165 266.1733L202.6446 250.35L207.2727 257.7133L211.9008 248.94L216.5289 241.2633L221.157 239.2267L225.7851 233.5867L230.4132 240.3233L235.0413 230.9233L239.6694 232.3333L244.2975 223.2467L248.9256 217.6067L253.5537 224.8133L258.1818 211.0267L262.8099 216.8233L267.438 208.8333L272.0661 205.7L276.6942 203.1933L281.3223 200.6867L285.9504 201.47L290.5785 198.0233L295.2066 193.1667L299.8347 193.7933L304.4628 190.3467L309.0909 188.31L313.719 184.8633L318.3471 184.7067L322.9752 181.1033L327.6033 177.6567L332.2314 175.62L336.8595 171.0767L341.4876 179.38L346.1157 172.0167L350.7438 172.9567L355.3719 169.04L360 163.0867L364.6281 166.3767L369.2562 164.9667L373.8843 159.9533L378.5124 156.6633L383.1405 164.1833L387.7686 151.65L392.3967 159.7967L397.0248 155.2533L401.6529 148.6733L406.281 150.5533L410.9091 150.24L415.5372 147.89L420.1653 145.8533L424.7934 143.66L429.4215 141.31L434.0496 145.8533L438.6777 140.2133L443.3058 144.6L447.9339 137.55L452.562 133.32L457.1901 141.9367L461.8182 129.8733L466.4463 138.3333L471.0744 133.0067L475.7025 126.74L480.3306 129.2467L484.9587 124.39L489.5868 132.85L494.2149 125.6433L498.843 127.3667L503.4711 124.39L508.0992 123.2933L512.7273 120.9433L517.3553 121.2567L521.9835 115.93L526.6116 122.51L531.2397 119.3767L535.8678 121.2567L540.4958 115.6167L545.124 110.6033L549.7521 119.69L554.3802 109.1933L559.0082 116.4L563.6364 109.9767L568.2645 108.0967L572.8926 108.2533L577.5207 107.7833L582.1487 108.2533L586.7769 108.0967L591.405 126.5833L596.0331 139.2733L600.6611 151.18L605.2892 162.46L609.9174 183.7667L614.5455 193.7933L619.1736 203.5067L623.8016 213.0633L628.4297 231.55L633.0579 240.6367L637.686 249.41" fill="none" stroke="#f7f494" stroke-width="2" stroke-linejoin="bevel"></path>
</g>
<g clip-path="url(#zr0-c1)">
<path d="M82.314 216.6667L86.9421 216.6667L91.5703 216.6667L96.1983 216.6667L100.8264 216.6667L105.4545 216.6667L110.0826 216.6667L114.7107 216.6667L119.3388 216.6667L123.9669 216.6667L128.595 216.6667L133.2231 216.6667L137.8512 216.6667L142.4793 216.6667L147.1074 216.6667L151.7355 216.6667L156.3636 216.6667L160.9917 216.6667L165.6198 216.6667L170.2479 216.6667L174.876 216.6667L179.5041 216.6667L184.1322 216.6667L188.7603 216.6667L193.3884 216.6667L198.0165 216.6667L202.6446 216.6667L207.2727 216.6667L211.9008 216.6667L216.5289 216.6667L221.157 216.6667L225.7851 216.6667L230.4132 216.6667L235.0413 216.6667L239.6694 216.6667L244.2975 216.6667L248.9256 216.6667L253.5537 216.6667L258.1818 216.6667L262.8099 216.6667L267.438 216.6667L272.0661 216.6667L276.6942 216.6667L281.3223 216.6667L285.9504 216.6667L290.5785 216.6667L295.2066 216.6667L299.8347 216.6667L304.4628 216.6667L309.0909 216.6667L313.719 216.6667L318.3471 216.6667L322.9752 216.6667L327.6033 216.6667L332.2314 216.6667L336.8595 216.6667L341.4876 216.6667L346.1157 216.6667L350.7438 216.6667L355.3719 216.6667L360 216.6667L364.6281 216.6667L369.2562 216.6667L373.8843 216.6667L378.5124 216.6667L383.1405 216.6667L387.7686 216.6667L392.3967 216.6667L397.0248 216.6667L401.6529 216.6667L406.281 216.6667L410.9091 216.6667L415.5372 216.6667L420.1653 216.6667L424.7934 216.6667L429.4215 216.6667L434.0496 216.6667L438.6777 216.6667L443.3058 216.6667L447.9339 216.6667L452.562 216.6667L457.1901 216.6667L461.8182 216.6667L466.4463 216.6667L471.0744 216.6667L475.7025 216.6667L480.3306 216.6667L484.9587 216.6667L489.5868 216.6667L494.2149 216.6667L498.843 216.6667L503.4711 216.6667L508.0992 216.6667L512.7273 216.6667L517.3553 216.6667L521.9835 216.6667L526.6116 216.6667L531.2397 216.6667L535.8678 216.6667L540.4958 216.6667L545.124 216.6667L549.7521 216.6667L554.3802 216.6667L559.0082 216.6667L563.6364 216.6667L568.2645 216.6667L572.8926 216.6667L577.5207 216.6667L582.1487 216.6667L586.7769 216.6667L591.405 216.6667L596.0331 216.6667L600.6611 216.6667L605.2892 216.6667L609.9174 216.6667L614.5455 216.6667L619.1736 216.6667L623.8016 216.6667L628.4297 216.6667L633.0579 216.6667L637.686 216.6667" fill="none" stroke="#f7f494" stroke-width="2" stroke-linejoin="bevel"></path>
</g>
<path d="M0 -1L1 1L-1 1Z" transform="matrix(0,0,0,0,82.314,528.4333)" fill="#f7f494" fill-opacity="0"></path>
<path d="M0 -1L1 1L-1 1Z" transform="matrix(5,0,0,5,82.314,428.6367)" fill="#f7f494"></path>
<path d="M0 -1L1 1L-1 1Z" transform="matrix(5,0,0,5,147.1074,319.91)" fill="#f7f494"></path>
<path d="M0 -1L1 1L-1 1Z" transform="matrix(5,0,0,5,211.9008,248.94)" fill="#f7f494"></path>
<path d="M0 -1L1 1L-1 1Z" transform="matrix(5,0,0,5,276.6942,203.1933)" fill="#f7f494"></path>
<path d="M0 -1L1 1L-1 1Z" transform="matrix(5,0,0,5,341.4876,179.38)" fill="#f7f494"></path>
<path d="M0 -1L1 1L-1 1Z" transform="matrix(5,0,0,5,406.281,150.5533)" fill="#f7f494"></path>
<path d="M0 -1L1 1L-1 1Z" transform="matrix(5,0,0,5,471.0744,133.0067)" fill="#f7f494"></path>
<path d="M0 -1L1 1L-1 1Z" transform="matrix(5,0,0,5,535.8678,121.2567)" fill="#f7f494"></path>
<path d="M0 -1L1 1L-1 1Z" transform="matrix(5,0,0,5,600.6611,151.18)" fill="#f7f494"></path>
<path d="M1 0A1 1 0 1 1 1 -0.0001" transform="matrix(0,0,0,0,82.314,268.8889)" fill="#f7f494" fill-opacity="0"></path>
<path d="M1 0A1 1 0 1 1 1 -0.0001" transform="matrix(5,0,0,5,82.314,216.6667)" fill="#f7f494"></path>
<path d="M1 0A1 1 0 1 1 1 -0.0001" transform="matrix(5,0,0,5,147.1074,216.6667)" fill="#f7f494"></path>
<path d="M1 0A1 1 0 1 1 1 -0.0001" transform="matrix(5,0,0,5,211.9008,216.6667)" fill="#f7f494"></path>
<path d="M1 0A1 1 0 1 1 1 -0.0001" transform="matrix(5,0,0,5,276.6942,216.6667)" fill="#f7f494"></path>
<path d="M1 0A1 1 0 1 1 1 -0.0001" transform="matrix(5,0,0,5,341.4876,216.6667)" fill="#f7f494"></path>
<path d="M1 0A1 1 0 1 1 1 -0.0001" transform="matrix(5,0,0,5,406.281,216.6667)" fill="#f7f494"></path>
<path d="M1 0A1 1 0 1 1 1 -0.0001" transform="matrix(5,0,0,5,471.0744,216.6667)" fill="#f7f494"></path>
<path d="M1 0A1 1 0 1 1 1 -0.0001" transform="matrix(5,0,0,5,535.8678,216.6667)" fill="#f7f494"></path>
<path d="M1 0A1 1 0 1 1 1 -0.0001" transform="matrix(5,0,0,5,600.6611,216.6667)" fill="#f7f494"></path>
<path d="M0 0l560 0l0 30l-560 0Z" transform="matrix(1,0,0,-1,82.8,592.5)" fill="rgb(47,69,84)" fill-opacity="0"></path>
<g clip-path="url(#zr0-c2)">
<polygon points="560 0 0 0 0 5.7 4.7 5.6 9.3 6.9 14 7.3 18.7 8 23.3 8 28 9.3 32.7 9.1 37.3 9.9 42 10.4 46.7 10.9 51.3 11.4 56 11.2 60.7 11.9 65.3 12 70 12.7 74.7 13.1 79.3 12.9 84 13.8 88.7 13.8 93.3 14.1 98 14.4 102.7 14.6 107.3 15 112 15.5 116.7 15.2 121.3 16.1 126 15.7 130.7 16.2 135.3 16.6 140 16.7 144.7 17.1 149.3 16.7 154 17.2 158.7 17.1 163.3 17.7 168 18 172.7 17.6 177.3 18.4 182 18 186.7 18.5 191.3 18.7 196 18.8 200.7 19 205.3 18.9 210 19.1 214.7 19.4 219.3 19.4 224 19.6 228.7 19.7 233.3 19.9 238 19.9 242.7 20.1 247.3 20.3 252 20.4 256.7 20.7 261.3 20.2 266 20.6 270.7 20.6 275.3 20.8 280 21.2 284.7 21 289.3 21.1 294 21.3 298.7 21.5 303.3 21.1 308 21.8 312.7 21.4 317.3 21.6 322 22 326.7 21.9 331.3 21.9 336 22 340.7 22.2 345.3 22.3 350 22.4 354.7 22.2 359.3 22.5 364 22.2 368.7 22.6 373.3 22.9 378 22.4 382.7 23.1 387.3 22.6 392 22.9 396.7 23.3 401.3 23.1 406 23.4 410.7 22.9 415.3 23.3 420 23.2 424.7 23.4 429.3 23.5 434 23.6 438.7 23.6 443.3 23.9 448 23.5 452.7 23.7 457.3 23.6 462 23.9 466.7 24.2 471.3 23.7 476 24.3 480.7 23.9 485.3 24.2 490 24.4 494.7 24.3 499.3 24.4 504 24.3 508.7 24.4 513.3 23.3 518 22.5 522.7 21.9 527.3 21.2 532 20 536.7 19.4 541.3 18.8 546 18.3 550.7 17.2 555.3 16.7 560 16.1" transform="matrix(1,0,0,-1,82.8,592.5)" fill="#71708A" fill-opacity="0.2"></polygon>
</g>
<g clip-path="url(#zr0-c3)">
<polygon points="560 0 0 0 0 5.7 4.7 5.6 9.3 6.9 14 7.3 18.7 8 23.3 8 28 9.3 32.7 9.1 37.3 9.9 42 10.4 46.7 10.9 51.3 11.4 56 11.2 60.7 11.9 65.3 12 70 12.7 74.7 13.1 79.3 12.9 84 13.8 88.7 13.8 93.3 14.1 98 14.4 102.7 14.6 107.3 15 112 15.5 116.7 15.2 121.3 16.1 126 15.7 130.7 16.2 135.3 16.6 140 16.7 144.7 17.1 149.3 16.7 154 17.2 158.7 17.1 163.3 17.7 168 18 172.7 17.6 177.3 18.4 182 18 186.7 18.5 191.3 18.7 196 18.8 200.7 19 205.3 18.9 210 19.1 214.7 19.4 219.3 19.4 224 19.6 228.7 19.7 233.3 19.9 238 19.9 242.7 20.1 247.3 20.3 252 20.4 256.7 20.7 261.3 20.2 266 20.6 270.7 20.6 275.3 20.8 280 21.2 284.7 21 289.3 21.1 294 21.3 298.7 21.5 303.3 21.1 308 21.8 312.7 21.4 317.3 21.6 322 22 326.7 21.9 331.3 21.9 336 22 340.7 22.2 345.3 22.3 350 22.4 354.7 22.2 359.3 22.5 364 22.2 368.7 22.6 373.3 22.9 378 22.4 382.7 23.1 387.3 22.6 392 22.9 396.7 23.3 401.3 23.1 406 23.4 410.7 22.9 415.3 23.3 420 23.2 424.7 23.4 429.3 23.5 434 23.6 438.7 23.6 443.3 23.9 448 23.5 452.7 23.7 457.3 23.6 462 23.9 466.7 24.2 471.3 23.7 476 24.3 480.7 23.9 485.3 24.2 490 24.4 494.7 24.3 499.3 24.4 504 24.3 508.7 24.4 513.3 23.3 518 22.5 522.7 21.9 527.3 21.2 532 20 536.7 19.4 541.3 18.8 546 18.3 550.7 17.2 555.3 16.7 560 16.1" transform="matrix(1,0,0,-1,82.8,592.5)" fill="#87A3CE" fill-opacity="0.2"></polygon>
</g>
<g clip-path="url(#zr0-c4)">
<polygon points="560 0 0 0 0 5.7 4.7 5.6 9.3 6.9 14 7.3 18.7 8 23.3 8 28 9.3 32.7 9.1 37.3 9.9 42 10.4 46.7 10.9 51.3 11.4 56 11.2 60.7 11.9 65.3 12 70 12.7 74.7 13.1 79.3 12.9 84 13.8 88.7 13.8 93.3 14.1 98 14.4 102.7 14.6 107.3 15 112 15.5 116.7 15.2 121.3 16.1 126 15.7 130.7 16.2 135.3 16.6 140 16.7 144.7 17.1 149.3 16.7 154 17.2 158.7 17.1 163.3 17.7 168 18 172.7 17.6 177.3 18.4 182 18 186.7 18.5 191.3 18.7 196 18.8 200.7 19 205.3 18.9 210 19.1 214.7 19.4 219.3 19.4 224 19.6 228.7 19.7 233.3 19.9 238 19.9 242.7 20.1 247.3 20.3 252 20.4 256.7 20.7 261.3 20.2 266 20.6 270.7 20.6 275.3 20.8 280 21.2 284.7 21 289.3 21.1 294 21.3 298.7 21.5 303.3 21.1 308 21.8 312.7 21.4 317.3 21.6 322 22 326.7 21.9 331.3 21.9 336 22 340.7 22.2 345.3 22.3 350 22.4 354.7 22.2 359.3 22.5 364 22.2 368.7 22.6 373.3 22.9 378 22.4 382.7 23.1 387.3 22.6 392 22.9 396.7 23.3 401.3 23.1 406 23.4 410.7 22.9 415.3 23.3 420 23.2 424.7 23.4 429.3 23.5 434 23.6 438.7 23.6 443.3 23.9 448 23.5 452.7 23.7 457.3 23.6 462 23.9 466.7 24.2 471.3 23.7 476 24.3 480.7 23.9 485.3 24.2 490 24.4 494.7 24.3 499.3 24.4 504 24.3 508.7 24.4 513.3 23.3 518 22.5 522.7 21.9 527.3 21.2 532 20 536.7 19.4 541.3 18.8 546 18.3 550.7 17.2 555.3 16.7 560 16.1" transform="matrix(1,0,0,-1,82.8,592.5)" fill="#71708A" fill-opacity="0.2"></polygon>
</g>
<g clip-path="url(#zr0-c2)">
<polyline points="0 5.7 4.7 5.6 9.3 6.9 14 7.3 18.7 8 23.3 8 28 9.3 32.7 9.1 37.3 9.9 42 10.4 46.7 10.9 51.3 11.4 56 11.2 60.7 11.9 65.3 12 70 12.7 74.7 13.1 79.3 12.9 84 13.8 88.7 13.8 93.3 14.1 98 14.4 102.7 14.6 107.3 15 112 15.5 116.7 15.2 121.3 16.1 126 15.7 130.7 16.2 135.3 16.6 140 16.7 144.7 17.1 149.3 16.7 154 17.2 158.7 17.1 163.3 17.7 168 18 172.7 17.6 177.3 18.4 182 18 186.7 18.5 191.3 18.7 196 18.8 200.7 19 205.3 18.9 210 19.1 214.7 19.4 219.3 19.4 224 19.6 228.7 19.7 233.3 19.9 238 19.9 242.7 20.1 247.3 20.3 252 20.4 256.7 20.7 261.3 20.2 266 20.6 270.7 20.6 275.3 20.8 280 21.2 284.7 21 289.3 21.1 294 21.3 298.7 21.5 303.3 21.1 308 21.8 312.7 21.4 317.3 21.6 322 22 326.7 21.9 331.3 21.9 336 22 340.7 22.2 345.3 22.3 350 22.4 354.7 22.2 359.3 22.5 364 22.2 368.7 22.6 373.3 22.9 378 22.4 382.7 23.1 387.3 22.6 392 22.9 396.7 23.3 401.3 23.1 406 23.4 410.7 22.9 415.3 23.3 420 23.2 424.7 23.4 429.3 23.5 434 23.6 438.7 23.6 443.3 23.9 448 23.5 452.7 23.7 457.3 23.6 462 23.9 466.7 24.2 471.3 23.7 476 24.3 480.7 23.9 485.3 24.2 490 24.4 494.7 24.3 499.3 24.4 504 24.3 508.7 24.4 513.3 23.3 518 22.5 522.7 21.9 527.3 21.2 532 20 536.7 19.4 541.3 18.8 546 18.3 550.7 17.2 555.3 16.7 560 16.1" transform="matrix(1,0,0,-1,82.8,592.5)" fill="none" stroke="#71708A"></polyline>
</g>
<g clip-path="url(#zr0-c3)">
<polyline points="0 5.7 4.7 5.6 9.3 6.9 14 7.3 18.7 8 23.3 8 28 9.3 32.7 9.1 37.3 9.9 42 10.4 46.7 10.9 51.3 11.4 56 11.2 60.7 11.9 65.3 12 70 12.7 74.7 13.1 79.3 12.9 84 13.8 88.7 13.8 93.3 14.1 98 14.4 102.7 14.6 107.3 15 112 15.5 116.7 15.2 121.3 16.1 126 15.7 130.7 16.2 135.3 16.6 140 16.7 144.7 17.1 149.3 16.7 154 17.2 158.7 17.1 163.3 17.7 168 18 172.7 17.6 177.3 18.4 182 18 186.7 18.5 191.3 18.7 196 18.8 200.7 19 205.3 18.9 210 19.1 214.7 19.4 219.3 19.4 224 19.6 228.7 19.7 233.3 19.9 238 19.9 242.7 20.1 247.3 20.3 252 20.4 256.7 20.7 261.3 20.2 266 20.6 270.7 20.6 275.3 20.8 280 21.2 284.7 21 289.3 21.1 294 21.3 298.7 21.5 303.3 21.1 308 21.8 312.7 21.4 317.3 21.6 322 22 326.7 21.9 331.3 21.9 336 22 340.7 22.2 345.3 22.3 350 22.4 354.7 22.2 359.3 22.5 364 22.2 368.7 22.6 373.3 22.9 378 22.4 382.7 23.1 387.3 22.6 392 22.9 396.7 23.3 401.3 23.1 406 23.4 410.7 22.9 415.3 23.3 420 23.2 424.7 23.4 429.3 23.5 434 23.6 438.7 23.6 443.3 23.9 448 23.5 452.7 23.7 457.3 23.6 462 23.9 466.7 24.2 471.3 23.7 476 24.3 480.7 23.9 485.3 24.2 490 24.4 494.7 24.3 499.3 24.4 504 24.3 508.7 24.4 513.3 23.3 518 22.5 522.7 21.9 527.3 21.2 532 20 536.7 19.4 541.3 18.8 546 18.3 550.7 17.2 555.3 16.7 560 16.1" transform="matrix(1,0,0,-1,82.8,592.5)" fill="none" stroke="#87A3CE" stroke-width="0.5"></polyline>
</g>
<g clip-path="url(#zr0-c4)">
<polyline points="0 5.7 4.7 5.6 9.3 6.9 14 7.3 18.7 8 23.3 8 28 9.3 32.7 9.1 37.3 9.9 42 10.4 46.7 10.9 51.3 11.4 56 11.2 60.7 11.9 65.3 12 70 12.7 74.7 13.1 79.3 12.9 84 13.8 88.7 13.8 93.3 14.1 98 14.4 102.7 14.6 107.3 15 112 15.5 116.7 15.2 121.3 16.1 126 15.7 130.7 16.2 135.3 16.6 140 16.7 144.7 17.1 149.3 16.7 154 17.2 158.7 17.1 163.3 17.7 168 18 172.7 17.6 177.3 18.4 182 18 186.7 18.5 191.3 18.7 196 18.8 200.7 19 205.3 18.9 210 19.1 214.7 19.4 219.3 19.4 224 19.6 228.7 19.7 233.3 19.9 238 19.9 242.7 20.1 247.3 20.3 252 20.4 256.7 20.7 261.3 20.2 266 20.6 270.7 20.6 275.3 20.8 280 21.2 284.7 21 289.3 21.1 294 21.3 298.7 21.5 303.3 21.1 308 21.8 312.7 21.4 317.3 21.6 322 22 326.7 21.9 331.3 21.9 336 22 340.7 22.2 345.3 22.3 350 22.4 354.7 22.2 359.3 22.5 364 22.2 368.7 22.6 373.3 22.9 378 22.4 382.7 23.1 387.3 22.6 392 22.9 396.7 23.3 401.3 23.1 406 23.4 410.7 22.9 415.3 23.3 420 23.2 424.7 23.4 429.3 23.5 434 23.6 438.7 23.6 443.3 23.9 448 23.5 452.7 23.7 457.3 23.6 462 23.9 466.7 24.2 471.3 23.7 476 24.3 480.7 23.9 485.3 24.2 490 24.4 494.7 24.3 499.3 24.4 504 24.3 508.7 24.4 513.3 23.3 518 22.5 522.7 21.9 527.3 21.2 532 20 536.7 19.4 541.3 18.8 546 18.3 550.7 17.2 555.3 16.7 560 16.1" transform="matrix(1,0,0,-1,82.8,592.5)" fill="none" stroke="#71708A"></polyline>
</g>
<path d="M-5 -5l691.0547 0l0 22l-691.0547 0Z" transform="translate(59.4727 5)" fill="rgb(0,0,0)" fill-opacity="0" stroke="#ccc" stroke-width="0"></path>
<path d="M0 7L25 7" transform="translate(60.4727 4)" fill="#000" stroke="#ccc" stroke-width="2" stroke-linecap="butt" stroke-miterlimit="10"></path>
<path d="M12.5 1.4L18.1 12.6L6.9 12.6Z" transform="translate(60.4727 4)" fill="#ccc" stroke="#ccc" stroke-width="0" stroke-linecap="butt" stroke-miterlimit="10"></path>
<text dominant-baseline="central" text-anchor="start" style="font-size:12px;font-family:Microsoft YaHei;" x="30" y="7" transform="translate(60.4727 4)" fill="#ccc">Pipe_Pres</text>
<path d="M0 7L25 7" transform="translate(156.1465 4)" fill="#000" stroke="#ccc" stroke-width="2" stroke-linecap="butt" stroke-miterlimit="10"></path>
<path d="M18.1 7A5.6 5.6 0 1 1 18.1 6.9994" transform="translate(156.1465 4)" fill="#ccc" stroke="#ccc" stroke-width="0" stroke-linecap="butt" stroke-miterlimit="10"></path>
<text dominant-baseline="central" text-anchor="start" style="font-size:12px;font-family:Microsoft YaHei;" x="30" y="7" transform="translate(156.1465 4)" fill="#ccc">Ambient_Pres</text>
<path d="M0 7L25 7" transform="translate(276.0313 4)" fill="#000" stroke="#ccc" stroke-width="2" stroke-linecap="butt" stroke-miterlimit="10"></path>
<path d="M12.5 1.4L18.1 12.6L6.9 12.6Z" transform="translate(276.0313 4)" fill="#ccc" stroke="#ccc" stroke-width="0" stroke-linecap="butt" stroke-miterlimit="10"></path>
<text dominant-baseline="central" text-anchor="start" style="font-size:12px;font-family:Microsoft YaHei;" x="30" y="7" transform="translate(276.0313 4)" fill="#ccc">Pipe_Temp</text>
<path d="M0 7L25 7" transform="translate(380.0137 4)" fill="#000" stroke="#ccc" stroke-width="2" stroke-linecap="butt" stroke-miterlimit="10"></path>
<path d="M18.1 7A5.6 5.6 0 1 1 18.1 6.9994" transform="translate(380.0137 4)" fill="#ccc" stroke="#ccc" stroke-width="0" stroke-linecap="butt" stroke-miterlimit="10"></path>
<text dominant-baseline="central" text-anchor="start" style="font-size:12px;font-family:Microsoft YaHei;" x="30" y="7" transform="translate(380.0137 4)" fill="#ccc">Chip_Temp</text>
<path d="M0 7L25 7" transform="translate(485.2617 4)" fill="#000" stroke="#f7f494" stroke-width="2" stroke-linecap="butt" stroke-miterlimit="10"></path>
<path d="M18.1 7A5.6 5.6 0 1 1 18.1 6.9994" transform="translate(485.2617 4)" fill="#f7f494"></path>
<text dominant-baseline="central" text-anchor="start" style="font-size:12px;font-family:Microsoft YaHei;" x="30" y="7" transform="translate(485.2617 4)" fill="#B9B8CE">Set_nPressure</text>
<path d="M0 7L25 7" transform="translate(605.8672 4)" fill="#000" stroke="#f7f494" stroke-width="2" stroke-linecap="butt" stroke-miterlimit="10"></path>
<path d="M12.5 1.4L18.1 12.6L6.9 12.6Z" transform="translate(605.8672 4)" fill="#f7f494"></path>
<text dominant-baseline="central" text-anchor="start" style="font-size:12px;font-family:Microsoft YaHei;" x="30" y="7" transform="translate(605.8672 4)" fill="#B9B8CE">Current_nPressure</text>
<path d="M0 0l560 0l0 30l-560 0Z" transform="matrix(1,0,0,-1,82.8,592.5)" fill="none"></path>
<path d="M0 0l560 0l0 30l-560 0Z" transform="matrix(1,0,0,-1,82.8,592.5)" fill="rgb(135,163,206)" fill-opacity="0.2"></path>
<path d="M3.5 0.5L556.5 0.5A3 3 0 0 1 559.5 3.5L559.5 26.5A3 3 0 0 1 556.5 29.5L3.5 29.5A3 3 0 0 1 0.5 26.5L0.5 3.5A3 3 0 0 1 3.5 0.5" transform="matrix(1,0,0,-1,82.8,592.5)" fill="rgb(0,0,0)" fill-opacity="0" stroke="#71708A"></path>
<path d="M0 29.5L560 29.5L560 34.5A2 2 0 0 1 558 36.5L2 36.5A2 2 0 0 1 0 34.5L0 29.5" transform="matrix(1,0,0,-1,82.8,592.5)" fill="#B0B6C3" fill-opacity="0.3"></path>
<path d="M-2.2408 -1.6796C-1.8674 -1.6796 -1.6817 -1.4939 -1.6817 -1.1204L-1.6817 1.1204C-1.6817 1.4939 -1.8674 1.6796 -2.2408 1.6796C-2.6143 1.6796 -2.8 1.4939 -2.8 1.1204L-2.8 -1.1204C-2.8 -1.4939 -2.6143 -1.6796 -2.2408 -1.6796ZM0 -1.6796C0.3735 -1.6796 0.5592 -1.4939 0.5592 -1.1204L0.5592 1.1204C0.5592 1.4939 0.3735 1.6796 0 1.6796C-0.3735 1.6796 -0.5592 1.4939 -0.5592 1.1204L-0.5592 -1.1204C-0.5592 -1.4939 -0.3735 -1.6796 0 -1.6796ZM2.2408 -1.6796C2.6143 -1.6796 2.8 -1.4939 2.8 -1.1204L2.8 1.1204C2.8 1.4939 2.6143 1.6796 2.2408 1.6796C1.8674 1.6796 1.6817 1.4939 1.6817 1.1204L1.6817 -1.1204C1.6796 -1.4939 1.8674 -1.6796 2.2408 -1.6796Z" transform="matrix(1,0,0,-1,362.8,559.5)" fill="#fff"></path>
<path d="M0 1.628L0 2M0 0L0 0.375M-0.1 0.375L0.1 0.375A0.1 0.1 0 0 1 0.2 0.475L0.2 1.525A0.1 0.1 0 0 1 0.1 1.625L-0.1 1.625A0.1 0.1 0 0 1 -0.2 1.525L-0.2 0.475A0.1 0.1 0 0 1 -0.1 0.375Z" transform="matrix(15,0,0,-15,83.8,592.5)" fill="#353450" stroke="#C5CBE3" stroke-width="0.06666666666666667"></path>
<path d="M0 1.628L0 2M0 0L0 0.375M-0.1 0.375L0.1 0.375A0.1 0.1 0 0 1 0.2 0.475L0.2 1.525A0.1 0.1 0 0 1 0.1 1.625L-0.1 1.625A0.1 0.1 0 0 1 -0.2 1.525L-0.2 0.475A0.1 0.1 0 0 1 -0.1 0.375Z" transform="matrix(15,0,0,-15,641.8,592.5)" fill="#353450" stroke="#C5CBE3" stroke-width="0.06666666666666667"></path>
<defs >
<clipPath id="zr0-c0">
<path d="M79 59l562 0l0 472l-562 0Z" fill="#000"></path>
</clipPath>
<clipPath id="zr0-c1">
<path d="M79 59l562 0l0 472l-562 0Z" fill="#000"></path>
</clipPath>
<clipPath id="zr0-c2">
<path d="M0 0l0 0l0 30l0 0Z" transform="matrix(1,0,0,-1,82.8,592.5)" fill="#000"></path>
</clipPath>
<clipPath id="zr0-c3">
<path d="M0 0l560 0l0 30l-560 0Z" transform="matrix(1,0,0,-1,82.8,592.5)" fill="#000"></path>
</clipPath>
<clipPath id="zr0-c4">
<path d="M560 0l0 0l0 30l0 0Z" transform="matrix(1,0,0,-1,82.8,592.5)" fill="#000"></path>
</clipPath>
</defs>
</svg>