<svg width="800" height="600" xmlns="http://www.w3.org/2000/svg" xmlns:xlink="http://www.w3.org/1999/xlink" version="1.1" baseProfile="full" viewBox="0 0 800 600">
<rect width="800" height="600" x="0" y="0" id="0" fill="rgb(40, 44, 52)" fill-opacity="1"></rect>
<path d="M80.5 530L80.5 60" fill="none" stroke="#ACDFED" stroke-linecap="round"></path>
<text dominant-baseline="central" text-anchor="middle" style="font-size:12px;font-family:Microsoft YaHei;" y="-6" transform="translate(80 45)" fill="#B9B8CE">压力</text>
<path d="M640.5 530L640.5 60" fill="none" stroke="#FFAB91" stroke-linecap="round"></path>
<text dominant-baseline="central" text-anchor="middle" style="font-size:12px;font-family:Microsoft YaHei;" y="-6" transform="translate(640 45)" fill="#B9B8CE">温度</text>
<path d="M720.5 530L720.5 60" fill="none" stroke="#f7f494" stroke-linecap="round"></path>
<text dominant-baseline="central" text-anchor="middle" style="font-size:12px;font-family:Microsoft YaHei;" y="-6" transform="translate(720 45)" fill="#B9B8CE">负压</text>
<path d="M80 530.5L640 530.5" fill="none" stroke="#B9B8CE" stroke-linecap="round"></path>
<path d="M108.5 530L108.5 535" fill="none" stroke="#B9B8CE"></path>
<path d="M164.5 530L164.5 535" fill="none" stroke="#B9B8CE"></path>
<path d="M220.5 530L220.5 535" fill="none" stroke="#B9B8CE"></path>
<path d="M276.5 530L276.5 535" fill="none" stroke="#B9B8CE"></path>
<path d="M332.5 530L332.5 535" fill="none" stroke="#B9B8CE"></path>
<path d="M388.5 530L388.5 535" fill="none" stroke="#B9B8CE"></path>
<path d="M444.5 530L444.5 535" fill="none" stroke="#B9B8CE"></path>
<path d="M500.5 530L500.5 535" fill="none" stroke="#B9B8CE"></path>
<path d="M556.5 530L556.5 535" fill="none" stroke="#B9B8CE"></path>
<path d="M612.5 530L612.5 535" fill="none" stroke="#B9B8CE"></path>
<text dominant-baseline="central" text-anchor="middle" style="font-size:12px;font-family:Microsoft YaHei;" y="6" transform="translate(108 538)" fill="#B9B8CE">6:24:15</text>
<text dominant-baseline="central" text-anchor="middle" style="font-size:12px;font-family:Microsoft YaHei;" y="6" transform="translate(164 538)" fill="#B9B8CE">6:24:16</text>
<text dominant-baseline="central" text-anchor="middle" style="font-size:12px;font-family:Microsoft YaHei;" y="6" transform="translate(220 538)" fill="#B9B8CE">6:24:17</text>
<text dominant-baseline="central" text-anchor="middle" style="font-size:12px;font-family:Microsoft YaHei;" y="6" transform="translate(276 538)" fill="#B9B8CE">6:24:18</text>
<text dominant-baseline="central" text-anchor="middle" style="font-size:12px;font-family:Microsoft YaHei;" y="6" transform="translate(332 538)" fill="#B9B8CE">6:24:19</text>
<text dominant-baseline="central" text-anchor="middle" style="font-size:12px;font-family:Microsoft YaHei;" y="6" transform="translate(388 538)" fill="#B9B8CE">6:24:20</text>
<text dominant-baseline="central" text-anchor="middle" style="font-size:12px;font-family:Microsoft YaHei;" y="6" transform="translate(444 538)" fill="#B9B8CE">6:24:21</text>
<text dominant-baseline="central" text-anchor="middle" style="font-size:12px;font-family:Microsoft YaHei;" y="6" transform="translate(500 538)" fill="#B9B8CE">6:24:22</text>
<text dominant-baseline="central" text-anchor="middle" style="font-size:12px;font-family:Microsoft YaHei;" y="6" transform="translate(556 538)" fill="#B9B8CE">6:24:23</text>
<text dominant-baseline="central" text-anchor="middle" style="font-size:12px;font-family:Microsoft YaHei;" y="6" transform="translate(612 538)" fill="#B9B8CE">6:24:24</text>
<path d="M0 0l560 0l0 30l-560 0Z" transform="matrix(1,0,0,-1,82.8,592.5)" fill="rgb(47,69,84)" fill-opacity="0"></path>
<path d="M-5 -5l691.0547 0l0 22l-691.0547 0Z" transform="translate(59.4727 5)" fill="rgb(0,0,0)" fill-opacity="0" stroke="#ccc" stroke-width="0"></path>
<path d="M0 7L25 7" transform="translate(60.4727 4)" fill="#000" stroke="#ccc" stroke-width="2" stroke-linecap="butt" stroke-miterlimit="10"></path>
<path d="M12.5 1.4L18.1 12.6L6.9 12.6Z" transform="translate(60.4727 4)" fill="#ccc" stroke="#ccc" stroke-width="0" stroke-linecap="butt" stroke-miterlimit="10"></path>
<text dominant-baseline="central" text-anchor="start" style="font-size:12px;font-family:Microsoft YaHei;" x="30" y="7" transform="translate(60.4727 4)" fill="#ccc">Pipe_Pres</text>
<path d="M0 7L25 7" transform="translate(156.1465 4)" fill="#000" stroke="#ccc" stroke-width="2" stroke-linecap="butt" stroke-miterlimit="10"></path>
<path d="M18.1 7A5.6 5.6 0 1 1 18.1 6.9994" transform="translate(156.1465 4)" fill="#ccc" stroke="#ccc" stroke-width="0" stroke-linecap="butt" stroke-miterlimit="10"></path>
<text dominant-baseline="central" text-anchor="start" style="font-size:12px;font-family:Microsoft YaHei;" x="30" y="7" transform="translate(156.1465 4)" fill="#ccc">Ambient_Pres</text>
<path d="M0 7L25 7" transform="translate(276.0313 4)" fill="#000" stroke="#ccc" stroke-width="2" stroke-linecap="butt" stroke-miterlimit="10"></path>
<path d="M12.5 1.4L18.1 12.6L6.9 12.6Z" transform="translate(276.0313 4)" fill="#ccc" stroke="#ccc" stroke-width="0" stroke-linecap="butt" stroke-miterlimit="10"></path>
<text dominant-baseline="central" text-anchor="start" style="font-size:12px;font-family:Microsoft YaHei;" x="30" y="7" transform="translate(276.0313 4)" fill="#ccc">Pipe_Temp</text>
<path d="M0 7L25 7" transform="translate(380.0137 4)" fill="#000" stroke="#ccc" stroke-width="2" stroke-linecap="butt" stroke-miterlimit="10"></path>
<path d="M18.1 7A5.6 5.6 0 1 1 18.1 6.9994" transform="translate(380.0137 4)" fill="#ccc" stroke="#ccc" stroke-width="0" stroke-linecap="butt" stroke-miterlimit="10"></path>
<text dominant-baseline="central" text-anchor="start" style="font-size:12px;font-family:Microsoft YaHei;" x="30" y="7" transform="translate(380.0137 4)" fill="#ccc">Chip_Temp</text>
<path d="M0 7L25 7" transform="translate(485.2617 4)" fill="#000" stroke="#ccc" stroke-width="2" stroke-linecap="butt" stroke-miterlimit="10"></path>
<path d="M18.1 7A5.6 5.6 0 1 1 18.1 6.9994" transform="translate(485.2617 4)" fill="#ccc" stroke="#ccc" stroke-width="0" stroke-linecap="butt" stroke-miterlimit="10"></path>
<text dominant-baseline="central" text-anchor="start" style="font-size:12px;font-family:Microsoft YaHei;" x="30" y="7" transform="translate(485.2617 4)" fill="#ccc">Set_nPressure</text>
<path d="M0 7L25 7" transform="translate(605.8672 4)" fill="#000" stroke="#ccc" stroke-width="2" stroke-linecap="butt" stroke-miterlimit="10"></path>
<path d="M12.5 1.4L18.1 12.6L6.9 12.6Z" transform="translate(605.8672 4)" fill="#ccc" stroke="#ccc" stroke-width="0" stroke-linecap="butt" stroke-miterlimit="10"></path>
<text dominant-baseline="central" text-anchor="start" style="font-size:12px;font-family:Microsoft YaHei;" x="30" y="7" transform="translate(605.8672 4)" fill="#ccc">Current_nPressure</text>
<path d="M0 0l560 0l0 30l-560 0Z" transform="matrix(1,0,0,-1,82.8,592.5)" fill="none"></path>
<path d="M0 0l560 0l0 30l-560 0Z" transform="matrix(1,0,0,-1,82.8,592.5)" fill="rgb(135,163,206)" fill-opacity="0.2"></path>
<path d="M3.5 0.5L556.5 0.5A3 3 0 0 1 559.5 3.5L559.5 26.5A3 3 0 0 1 556.5 29.5L3.5 29.5A3 3 0 0 1 0.5 26.5L0.5 3.5A3 3 0 0 1 3.5 0.5" transform="matrix(1,0,0,-1,82.8,592.5)" fill="rgb(0,0,0)" fill-opacity="0" stroke="#71708A"></path>
<path d="M0 29.5L560 29.5L560 34.5A2 2 0 0 1 558 36.5L2 36.5A2 2 0 0 1 0 34.5L0 29.5" transform="matrix(1,0,0,-1,82.8,592.5)" fill="#B0B6C3" fill-opacity="0.3"></path>
<path d="M-2.2408 -1.6796C-1.8674 -1.6796 -1.6817 -1.4939 -1.6817 -1.1204L-1.6817 1.1204C-1.6817 1.4939 -1.8674 1.6796 -2.2408 1.6796C-2.6143 1.6796 -2.8 1.4939 -2.8 1.1204L-2.8 -1.1204C-2.8 -1.4939 -2.6143 -1.6796 -2.2408 -1.6796ZM0 -1.6796C0.3735 -1.6796 0.5592 -1.4939 0.5592 -1.1204L0.5592 1.1204C0.5592 1.4939 0.3735 1.6796 0 1.6796C-0.3735 1.6796 -0.5592 1.4939 -0.5592 1.1204L-0.5592 -1.1204C-0.5592 -1.4939 -0.3735 -1.6796 0 -1.6796ZM2.2408 -1.6796C2.6143 -1.6796 2.8 -1.4939 2.8 -1.1204L2.8 1.1204C2.8 1.4939 2.6143 1.6796 2.2408 1.6796C1.8674 1.6796 1.6817 1.4939 1.6817 1.1204L1.6817 -1.1204C1.6796 -1.4939 1.8674 -1.6796 2.2408 -1.6796Z" transform="matrix(1,0,0,-1,362.8,559.5)" fill="#fff"></path>
<path d="M0 1.628L0 2M0 0L0 0.375M-0.1 0.375L0.1 0.375A0.1 0.1 0 0 1 0.2 0.475L0.2 1.525A0.1 0.1 0 0 1 0.1 1.625L-0.1 1.625A0.1 0.1 0 0 1 -0.2 1.525L-0.2 0.475A0.1 0.1 0 0 1 -0.1 0.375Z" transform="matrix(15,0,0,-15,83.8,592.5)" fill="#353450" stroke="#C5CBE3" stroke-width="0.06666666666666667"></path>
<path d="M0 1.628L0 2M0 0L0 0.375M-0.1 0.375L0.1 0.375A0.1 0.1 0 0 1 0.2 0.475L0.2 1.525A0.1 0.1 0 0 1 0.1 1.625L-0.1 1.625A0.1 0.1 0 0 1 -0.2 1.525L-0.2 0.475A0.1 0.1 0 0 1 -0.1 0.375Z" transform="matrix(15,0,0,-15,641.8,592.5)" fill="#353450" stroke="#C5CBE3" stroke-width="0.06666666666666667"></path>
</svg>