<svg width="800" height="600" xmlns="http://www.w3.org/2000/svg" xmlns:xlink="http://www.w3.org/1999/xlink" version="1.1" baseProfile="full" viewBox="0 0 800 600">
<rect width="800" height="600" x="0" y="0" id="0" fill="rgb(40, 44, 52)" fill-opacity="1"></rect>
<path d="M80 530.5L640 530.5" fill="none" stroke="#484753"></path>
<path d="M80 451.5L640 451.5" fill="none" stroke="#484753"></path>
<path d="M80 373.5L640 373.5" fill="none" stroke="#484753"></path>
<path d="M80 295.5L640 295.5" fill="none" stroke="#484753"></path>
<path d="M80 216.5L640 216.5" fill="none" stroke="#484753"></path>
<path d="M80 138.5L640 138.5" fill="none" stroke="#484753"></path>
<path d="M80 60.5L640 60.5" fill="none" stroke="#484753"></path>
<path d="M80 530.5L640 530.5" fill="none" stroke="#484753"></path>
<path d="M80 463.5L640 463.5" fill="none" stroke="#484753"></path>
<path d="M80 395.5L640 395.5" fill="none" stroke="#484753"></path>
<path d="M80 328.5L640 328.5" fill="none" stroke="#484753"></path>
<path d="M80 261.5L640 261.5" fill="none" stroke="#484753"></path>
<path d="M80 194.5L640 194.5" fill="none" stroke="#484753"></path>
<path d="M80 127.5L640 127.5" fill="none" stroke="#484753"></path>
<path d="M80 60.5L640 60.5" fill="none" stroke="#484753"></path>
<path d="M80.5 530L80.5 60" fill="none" stroke="#ACDFED" stroke-linecap="round"></path>
<text dominant-baseline="central" text-anchor="middle" style="font-size:12px;font-family:Microsoft YaHei;" y="-6" transform="translate(80 45)" fill="#B9B8CE">压力</text>
<path d="M640.5 530L640.5 60" fill="none" stroke="#FFAB91" stroke-linecap="round"></path>
<text dominant-baseline="central" text-anchor="middle" style="font-size:12px;font-family:Microsoft YaHei;" y="-6" transform="translate(640 45)" fill="#B9B8CE">温度</text>
<path d="M720.5 530L720.5 60" fill="none" stroke="#f7f494" stroke-linecap="round"></path>
<text dominant-baseline="central" text-anchor="middle" style="font-size:12px;font-family:Microsoft YaHei;" y="-6" transform="translate(720 45)" fill="#B9B8CE">负压</text>
<path d="M80 530.5L640 530.5" fill="none" stroke="#B9B8CE" stroke-linecap="round"></path>
<path d="M82.5 530L82.5 535" fill="none" stroke="#B9B8CE"></path>
<path d="M147.5 530L147.5 535" fill="none" stroke="#B9B8CE"></path>
<path d="M212.5 530L212.5 535" fill="none" stroke="#B9B8CE"></path>
<path d="M276.5 530L276.5 535" fill="none" stroke="#B9B8CE"></path>
<path d="M341.5 530L341.5 535" fill="none" stroke="#B9B8CE"></path>
<path d="M406.5 530L406.5 535" fill="none" stroke="#B9B8CE"></path>
<path d="M471.5 530L471.5 535" fill="none" stroke="#B9B8CE"></path>
<path d="M536.5 530L536.5 535" fill="none" stroke="#B9B8CE"></path>
<path d="M600.5 530L600.5 535" fill="none" stroke="#B9B8CE"></path>
<text dominant-baseline="central" text-anchor="end" style="font-size:12px;font-family:Microsoft YaHei;" xml:space="preserve" transform="translate(72 530)" fill="#B9B8CE">0 hPa</text>
<text dominant-baseline="central" text-anchor="end" style="font-size:12px;font-family:Microsoft YaHei;" xml:space="preserve" transform="translate(72 451.6667)" fill="#B9B8CE">200 hPa</text>
<text dominant-baseline="central" text-anchor="end" style="font-size:12px;font-family:Microsoft YaHei;" xml:space="preserve" transform="translate(72 373.3333)" fill="#B9B8CE">400 hPa</text>
<text dominant-baseline="central" text-anchor="end" style="font-size:12px;font-family:Microsoft YaHei;" xml:space="preserve" transform="translate(72 295)" fill="#B9B8CE">600 hPa</text>
<text dominant-baseline="central" text-anchor="end" style="font-size:12px;font-family:Microsoft YaHei;" xml:space="preserve" transform="translate(72 216.6667)" fill="#B9B8CE">800 hPa</text>
<text dominant-baseline="central" text-anchor="end" style="font-size:12px;font-family:Microsoft YaHei;" xml:space="preserve" transform="translate(72 138.3333)" fill="#B9B8CE">1,000 hPa</text>
<text dominant-baseline="central" text-anchor="end" style="font-size:12px;font-family:Microsoft YaHei;" xml:space="preserve" transform="translate(72 60)" fill="#B9B8CE">1,200 hPa</text>
<text dominant-baseline="central" text-anchor="start" style="font-size:12px;font-family:Microsoft YaHei;" xml:space="preserve" transform="translate(728 530)" fill="#B9B8CE">0 hPa</text>
<text dominant-baseline="central" text-anchor="start" style="font-size:12px;font-family:Microsoft YaHei;" xml:space="preserve" transform="translate(728 462.8571)" fill="#B9B8CE">50 hPa</text>
<text dominant-baseline="central" text-anchor="start" style="font-size:12px;font-family:Microsoft YaHei;" xml:space="preserve" transform="translate(728 395.7143)" fill="#B9B8CE">100 hPa</text>
<text dominant-baseline="central" text-anchor="start" style="font-size:12px;font-family:Microsoft YaHei;" xml:space="preserve" transform="translate(728 328.5714)" fill="#B9B8CE">150 hPa</text>
<text dominant-baseline="central" text-anchor="start" style="font-size:12px;font-family:Microsoft YaHei;" xml:space="preserve" transform="translate(728 261.4286)" fill="#B9B8CE">200 hPa</text>
<text dominant-baseline="central" text-anchor="start" style="font-size:12px;font-family:Microsoft YaHei;" xml:space="preserve" transform="translate(728 194.2857)" fill="#B9B8CE">250 hPa</text>
<text dominant-baseline="central" text-anchor="start" style="font-size:12px;font-family:Microsoft YaHei;" xml:space="preserve" transform="translate(728 127.1429)" fill="#B9B8CE">300 hPa</text>
<text dominant-baseline="central" text-anchor="start" style="font-size:12px;font-family:Microsoft YaHei;" xml:space="preserve" transform="translate(728 60)" fill="#B9B8CE">350 hPa</text>
<text dominant-baseline="central" text-anchor="middle" style="font-size:12px;font-family:Microsoft YaHei;" y="6" transform="translate(82.314 538)" fill="#B9B8CE">17:52:08</text>
<text dominant-baseline="central" text-anchor="middle" style="font-size:12px;font-family:Microsoft YaHei;" y="6" transform="translate(147.1074 538)" fill="#B9B8CE">17:52:22</text>
<text dominant-baseline="central" text-anchor="middle" style="font-size:12px;font-family:Microsoft YaHei;" y="6" transform="translate(211.9008 538)" fill="#B9B8CE">17:52:36</text>
<text dominant-baseline="central" text-anchor="middle" style="font-size:12px;font-family:Microsoft YaHei;" y="6" transform="translate(276.6942 538)" fill="#B9B8CE">17:52:50</text>
<text dominant-baseline="central" text-anchor="middle" style="font-size:12px;font-family:Microsoft YaHei;" y="6" transform="translate(341.4876 538)" fill="#B9B8CE">17:53:04</text>
<text dominant-baseline="central" text-anchor="middle" style="font-size:12px;font-family:Microsoft YaHei;" y="6" transform="translate(406.281 538)" fill="#B9B8CE">17:53:18</text>
<text dominant-baseline="central" text-anchor="middle" style="font-size:12px;font-family:Microsoft YaHei;" y="6" transform="translate(471.0744 538)" fill="#B9B8CE">17:53:32</text>
<text dominant-baseline="central" text-anchor="middle" style="font-size:12px;font-family:Microsoft YaHei;" y="6" transform="translate(535.8678 538)" fill="#B9B8CE">17:53:46</text>
<text dominant-baseline="central" text-anchor="middle" style="font-size:12px;font-family:Microsoft YaHei;" y="6" transform="translate(600.6612 538)" fill="#B9B8CE">17:54:00</text>
<g clip-path="url(#zr0-c0)">
<path d="M82.314 265.6642L86.9421 265.625L91.5703 265.625L96.1983 265.625L100.8264 265.625L105.4545 265.625L110.0826 265.625L114.7107 265.625L119.3388 265.625L123.9669 265.625L128.595 265.625L133.2231 265.625L137.8512 265.625L142.4793 266.095L147.1074 266.9567L151.7355 265.5075L156.3636 266.1342L160.9917 265.3508L165.6198 265.2725L170.2479 262.1392L174.876 259.28L179.5041 253.9533L184.1322 251.4467L188.7603 249.0183L193.3884 246.6683L198.0165 242.125L202.6446 239.8925L207.2727 237.66L211.9008 235.5058L216.5289 231.1975L221.157 229.1217L225.7851 227.0458L230.4132 224.97L235.0413 220.9358L239.6694 218.9775L244.2975 217.0192L248.9256 215.1L253.5537 211.3008L258.1818 209.4208L262.8099 207.58L267.438 205.7783L272.0661 202.2142L276.6942 200.4908L281.3223 198.7675L285.9504 197.0833L290.5785 193.7542L295.2066 192.1483L299.8347 190.5425L304.4628 188.9758L309.0909 185.9208L313.719 184.3933L318.3471 182.9442L322.9752 181.495L327.6033 178.6358L332.2314 177.265L336.8595 175.8942L341.4876 174.5625L346.1157 171.9775L350.7438 170.685L355.3719 169.4708L360 168.2175L364.6281 165.8283L369.2562 164.6533L373.8843 163.5175L378.5124 162.4208L383.1405 160.2275L387.7686 159.17L392.3967 158.1517L397.0248 157.1725L401.6529 155.2142L406.281 154.2742L410.9091 153.3733L415.5372 152.4725L420.1653 150.7883L424.7934 149.9658L429.4215 149.1825L434.0496 148.3992L438.6777 146.95L443.3058 146.245L447.9339 145.5792L452.562 144.9133L457.1901 143.6992L461.8182 143.0725L466.4463 142.5242L471.0744 141.9758L475.7025 140.9183L480.3306 140.4092L484.9587 139.9392L489.5868 139.5083L494.2149 138.6075L498.843 138.2158L503.4711 137.8242L508.0992 137.4325L512.7273 136.7275L517.3553 136.375L521.9835 136.0225L526.6116 135.6308L531.2397 134.8475L535.8678 134.3383L540.4958 133.9075L545.124 133.5942L549.7521 133.4767L554.3802 133.4767L559.0082 133.4767L563.6364 133.4375L568.2645 133.4375L572.8926 133.4375L577.5207 133.4375L582.1487 133.4375L586.7769 133.4375L591.405 133.4375L596.0331 133.4375L600.6611 133.4375L605.2892 133.4375L609.9174 133.4375L614.5455 133.4375L619.1736 133.4375L623.8016 133.4375L628.4297 133.4375L633.0579 133.4375L637.686 133.4375" fill="none" stroke="#ACDFED" stroke-width="2" stroke-linejoin="bevel"></path>
</g>
<g clip-path="url(#zr0-c1)">
<path d="M82.314 133.7508L86.9421 133.7508L91.5703 133.7508L96.1983 133.7508L100.8264 133.7508L105.4545 133.7508L110.0826 133.7508L114.7107 133.7508L119.3388 133.7508L123.9669 133.7508L128.595 133.7508L133.2231 133.7508L137.8512 133.7508L142.4793 133.7508L147.1074 133.7508L151.7355 133.7508L156.3636 133.7508L160.9917 133.7508L165.6198 133.7508L170.2479 133.7508L174.876 133.7508L179.5041 133.7508L184.1322 133.7508L188.7603 133.7508L193.3884 133.7508L198.0165 133.7508L202.6446 133.7508L207.2727 133.7508L211.9008 133.7508L216.5289 133.7508L221.157 133.7508L225.7851 133.7508L230.4132 133.7508L235.0413 133.7508L239.6694 133.7508L244.2975 133.7508L248.9256 133.7508L253.5537 133.7508L258.1818 133.7508L262.8099 133.7508L267.438 133.7508L272.0661 133.7508L276.6942 133.7508L281.3223 133.7508L285.9504 133.7508L290.5785 133.7508L295.2066 133.7508L299.8347 133.7508L304.4628 133.7508L309.0909 133.7508L313.719 133.7508L318.3471 133.7508L322.9752 133.7508L327.6033 133.7508L332.2314 133.7508L336.8595 133.7508L341.4876 133.7508L346.1157 133.7508L350.7438 133.7508L355.3719 133.7508L360 133.7508L364.6281 133.7508L369.2562 133.7508L373.8843 133.7508L378.5124 133.7508L383.1405 133.7508L387.7686 133.7508L392.3967 133.7508L397.0248 133.7508L401.6529 133.7508L406.281 133.7508L410.9091 133.7508L415.5372 133.7508L420.1653 133.7508L424.7934 133.7508L429.4215 133.7508L434.0496 133.7508L438.6777 133.7508L443.3058 133.7508L447.9339 133.7508L452.562 133.7508L457.1901 133.7508L461.8182 133.7508L466.4463 133.7508L471.0744 133.7508L475.7025 133.7508L480.3306 133.7508L484.9587 133.79L489.5868 133.79L494.2149 133.79L498.843 133.79L503.4711 133.79L508.0992 133.79L512.7273 133.79L517.3553 133.79L521.9835 133.79L526.6116 133.79L531.2397 133.79L535.8678 133.79L540.4958 133.79L545.124 133.79L549.7521 133.79L554.3802 133.79L559.0082 133.79L563.6364 133.79L568.2645 133.79L572.8926 133.79L577.5207 133.79L582.1487 133.79L586.7769 133.79L591.405 133.79L596.0331 133.79L600.6611 133.79L605.2892 133.79L609.9174 133.79L614.5455 133.79L619.1736 133.79L623.8016 133.79L628.4297 133.79L633.0579 133.79L637.686 133.79" fill="none" stroke="#ACDFED" stroke-width="2" stroke-linejoin="bevel"></path>
</g>
<g clip-path="url(#zr0-c2)">
<path d="M82.314 77.7257L86.9421 77.86L91.5703 77.86L96.1983 77.86L100.8264 77.86L105.4545 77.86L110.0826 77.86L114.7107 77.86L119.3388 77.86L123.9669 77.86L128.595 77.86L133.2231 77.86L137.8512 77.86L142.4793 77.86L147.1074 73.4286L151.7355 78.3971L156.3636 76.2486L160.9917 72.3543L165.6198 79.2029L170.2479 89.9457L174.876 99.7486L179.5041 109.0143L184.1322 126.4714L188.7603 134.7971L193.3884 142.8543L198.0165 150.7771L202.6446 166.22L207.2727 173.74L211.9008 181.26L216.5289 188.6457L221.157 203.1486L225.7851 210.2657L230.4132 217.3829L235.0413 224.2314L239.6694 237.9286L244.2975 244.6429L248.9256 251.2229L253.5537 257.8029L258.1818 270.56L262.8099 276.8714L267.438 283.0486L272.0661 289.2257L276.6942 301.3114L281.3223 307.22L285.9504 312.9943L290.5785 318.6343L295.2066 329.9143L299.8347 335.2857L304.4628 340.6571L309.0909 346.0286L313.719 356.3686L318.3471 361.4714L322.9752 366.44L327.6033 371.2743L332.2314 380.9429L336.8595 385.5086L341.4876 390.0743L346.1157 394.64L350.7438 403.3686L355.3719 407.6657L360 411.8286L364.6281 415.9914L369.2562 424.0486L373.8843 427.9429L378.5124 431.8371L383.1405 435.5971L387.7686 442.8486L392.3967 446.34L397.0248 449.8314L401.6529 453.1886L406.281 459.6343L410.9091 462.8571L415.5372 465.8114L420.1653 468.9L424.7934 474.54L429.4215 477.2257L434.0496 479.9114L438.6777 482.4629L443.3058 487.2971L447.9339 489.58L452.562 491.8629L457.1901 494.0114L461.8182 498.04L466.4463 500.0543L471.0744 501.9343L475.7025 503.8143L480.3306 507.3057L484.9587 508.9171L489.5868 510.5286L494.2149 512.0057L498.843 514.8257L503.4711 516.1686L508.0992 517.5114L512.7273 518.72L517.3553 521.2714L521.9835 522.48L526.6116 523.6886L531.2397 525.0314L535.8678 528.12L540.4958 529.7314L545.124 529.4628L549.7521 529.1943L554.3802 529.06L559.0082 528.9257L563.6364 528.9257L568.2645 528.9257L572.8926 528.9257L577.5207 528.9257L582.1487 528.9257L586.7769 528.9257L591.405 528.9257L596.0331 528.9257L600.6611 528.9257L605.2892 528.9257L609.9174 528.9257L614.5455 528.9257L619.1736 528.9257L623.8016 528.9257L628.4297 528.9257L633.0579 528.9257L637.686 528.9257" fill="none" stroke="#f7f494" stroke-width="2" stroke-linejoin="bevel"></path>
</g>
<path d="M0 -1L1 1L-1 1Z" transform="matrix(5,0,0,5,82.314,265.6642)" fill="#ACDFED"></path>
<path d="M0 -1L1 1L-1 1Z" transform="matrix(5,0,0,5,147.1074,266.9567)" fill="#ACDFED"></path>
<path d="M0 -1L1 1L-1 1Z" transform="matrix(5,0,0,5,211.9008,235.5058)" fill="#ACDFED"></path>
<path d="M0 -1L1 1L-1 1Z" transform="matrix(5,0,0,5,276.6942,200.4908)" fill="#ACDFED"></path>
<path d="M0 -1L1 1L-1 1Z" transform="matrix(5,0,0,5,341.4876,174.5625)" fill="#ACDFED"></path>
<path d="M0 -1L1 1L-1 1Z" transform="matrix(5,0,0,5,406.281,154.2742)" fill="#ACDFED"></path>
<path d="M0 -1L1 1L-1 1Z" transform="matrix(5,0,0,5,471.0744,141.9758)" fill="#ACDFED"></path>
<path d="M0 -1L1 1L-1 1Z" transform="matrix(5,0,0,5,535.8678,134.3383)" fill="#ACDFED"></path>
<path d="M0 -1L1 1L-1 1Z" transform="matrix(5,0,0,5,600.6611,133.4375)" fill="#ACDFED"></path>
<path d="M1 0A1 1 0 1 1 1 -0.0001" transform="matrix(5,0,0,5,82.314,133.7508)" fill="#ACDFED"></path>
<path d="M1 0A1 1 0 1 1 1 -0.0001" transform="matrix(5,0,0,5,147.1074,133.7508)" fill="#ACDFED"></path>
<path d="M1 0A1 1 0 1 1 1 -0.0001" transform="matrix(5,0,0,5,211.9008,133.7508)" fill="#ACDFED"></path>
<path d="M1 0A1 1 0 1 1 1 -0.0001" transform="matrix(5,0,0,5,276.6942,133.7508)" fill="#ACDFED"></path>
<path d="M1 0A1 1 0 1 1 1 -0.0001" transform="matrix(5,0,0,5,341.4876,133.7508)" fill="#ACDFED"></path>
<path d="M1 0A1 1 0 1 1 1 -0.0001" transform="matrix(5,0,0,5,406.281,133.7508)" fill="#ACDFED"></path>
<path d="M1 0A1 1 0 1 1 1 -0.0001" transform="matrix(5,0,0,5,471.0744,133.7508)" fill="#ACDFED"></path>
<path d="M1 0A1 1 0 1 1 1 -0.0001" transform="matrix(5,0,0,5,535.8678,133.79)" fill="#ACDFED"></path>
<path d="M1 0A1 1 0 1 1 1 -0.0001" transform="matrix(5,0,0,5,600.6611,133.79)" fill="#ACDFED"></path>
<path d="M0 -1L1 1L-1 1Z" transform="matrix(5,0,0,5,82.314,77.7257)" fill="#f7f494"></path>
<path d="M0 -1L1 1L-1 1Z" transform="matrix(5,0,0,5,147.1074,73.4286)" fill="#f7f494"></path>
<path d="M0 -1L1 1L-1 1Z" transform="matrix(5,0,0,5,211.9008,181.26)" fill="#f7f494"></path>
<path d="M0 -1L1 1L-1 1Z" transform="matrix(5,0,0,5,276.6942,301.3114)" fill="#f7f494"></path>
<path d="M0 -1L1 1L-1 1Z" transform="matrix(5,0,0,5,341.4876,390.0743)" fill="#f7f494"></path>
<path d="M0 -1L1 1L-1 1Z" transform="matrix(5,0,0,5,406.281,459.6343)" fill="#f7f494"></path>
<path d="M0 -1L1 1L-1 1Z" transform="matrix(5,0,0,5,471.0744,501.9343)" fill="#f7f494"></path>
<path d="M0 -1L1 1L-1 1Z" transform="matrix(5,0,0,5,535.8678,528.12)" fill="#f7f494"></path>
<path d="M0 -1L1 1L-1 1Z" transform="matrix(5,0,0,5,600.6611,528.9257)" fill="#f7f494"></path>
<path d="M0 0l560 0l0 30l-560 0Z" transform="matrix(1,0,0,-1,82.8,592.5)" fill="rgb(47,69,84)" fill-opacity="0"></path>
<g clip-path="url(#zr0-c3)">
<polygon points="560 0 0 0 0 5.8 4.7 5.8 9.3 5.8 14 5.8 18.7 5.8 23.3 5.8 28 5.8 32.7 5.8 37.3 5.8 42 5.8 46.7 5.8 51.3 5.8 56 5.8 60.7 5.7 65.3 5.6 70 5.8 74.7 5.7 79.3 5.9 84 5.9 88.7 6.3 93.3 6.7 98 7.5 102.7 7.8 107.3 8.1 112 8.5 116.7 9.1 121.3 9.4 126 9.7 130.7 10 135.3 10.6 140 10.9 144.7 11.2 149.3 11.5 154 12.1 158.7 12.4 163.3 12.6 168 12.9 172.7 13.4 177.3 13.7 182 14 186.7 14.2 191.3 14.7 196 15 200.7 15.2 205.3 15.4 210 15.9 214.7 16.1 219.3 16.4 224 16.6 228.7 17 233.3 17.2 238 17.4 242.7 17.6 247.3 18 252 18.2 256.7 18.4 261.3 18.6 266 19 270.7 19.1 275.3 19.3 280 19.5 284.7 19.8 289.3 20 294 20.2 298.7 20.3 303.3 20.6 308 20.8 312.7 20.9 317.3 21 322 21.3 326.7 21.4 331.3 21.6 336 21.7 340.7 21.9 345.3 22.1 350 22.2 354.7 22.3 359.3 22.5 364 22.6 368.7 22.7 373.3 22.8 378 22.9 382.7 23 387.3 23.1 392 23.2 396.7 23.3 401.3 23.4 406 23.5 410.7 23.5 415.3 23.6 420 23.7 424.7 23.8 429.3 23.8 434 23.9 438.7 24 443.3 24 448 24.1 452.7 24.2 457.3 24.2 462 24.3 466.7 24.4 471.3 24.4 476 24.4 480.7 24.4 485.3 24.4 490 24.4 494.7 24.4 499.3 24.4 504 24.4 508.7 24.4 513.3 24.4 518 24.4 522.7 24.4 527.3 24.4 532 24.4 536.7 24.4 541.3 24.4 546 24.4 550.7 24.4 555.3 24.4 560 24.4" transform="matrix(1,0,0,-1,82.8,592.5)" fill="#71708A" fill-opacity="0.2"></polygon>
</g>
<g clip-path="url(#zr0-c4)">
<polygon points="560 0 0 0 0 5.8 4.7 5.8 9.3 5.8 14 5.8 18.7 5.8 23.3 5.8 28 5.8 32.7 5.8 37.3 5.8 42 5.8 46.7 5.8 51.3 5.8 56 5.8 60.7 5.7 65.3 5.6 70 5.8 74.7 5.7 79.3 5.9 84 5.9 88.7 6.3 93.3 6.7 98 7.5 102.7 7.8 107.3 8.1 112 8.5 116.7 9.1 121.3 9.4 126 9.7 130.7 10 135.3 10.6 140 10.9 144.7 11.2 149.3 11.5 154 12.1 158.7 12.4 163.3 12.6 168 12.9 172.7 13.4 177.3 13.7 182 14 186.7 14.2 191.3 14.7 196 15 200.7 15.2 205.3 15.4 210 15.9 214.7 16.1 219.3 16.4 224 16.6 228.7 17 233.3 17.2 238 17.4 242.7 17.6 247.3 18 252 18.2 256.7 18.4 261.3 18.6 266 19 270.7 19.1 275.3 19.3 280 19.5 284.7 19.8 289.3 20 294 20.2 298.7 20.3 303.3 20.6 308 20.8 312.7 20.9 317.3 21 322 21.3 326.7 21.4 331.3 21.6 336 21.7 340.7 21.9 345.3 22.1 350 22.2 354.7 22.3 359.3 22.5 364 22.6 368.7 22.7 373.3 22.8 378 22.9 382.7 23 387.3 23.1 392 23.2 396.7 23.3 401.3 23.4 406 23.5 410.7 23.5 415.3 23.6 420 23.7 424.7 23.8 429.3 23.8 434 23.9 438.7 24 443.3 24 448 24.1 452.7 24.2 457.3 24.2 462 24.3 466.7 24.4 471.3 24.4 476 24.4 480.7 24.4 485.3 24.4 490 24.4 494.7 24.4 499.3 24.4 504 24.4 508.7 24.4 513.3 24.4 518 24.4 522.7 24.4 527.3 24.4 532 24.4 536.7 24.4 541.3 24.4 546 24.4 550.7 24.4 555.3 24.4 560 24.4" transform="matrix(1,0,0,-1,82.8,592.5)" fill="#87A3CE" fill-opacity="0.2"></polygon>
</g>
<g clip-path="url(#zr0-c5)">
<polygon points="560 0 0 0 0 5.8 4.7 5.8 9.3 5.8 14 5.8 18.7 5.8 23.3 5.8 28 5.8 32.7 5.8 37.3 5.8 42 5.8 46.7 5.8 51.3 5.8 56 5.8 60.7 5.7 65.3 5.6 70 5.8 74.7 5.7 79.3 5.9 84 5.9 88.7 6.3 93.3 6.7 98 7.5 102.7 7.8 107.3 8.1 112 8.5 116.7 9.1 121.3 9.4 126 9.7 130.7 10 135.3 10.6 140 10.9 144.7 11.2 149.3 11.5 154 12.1 158.7 12.4 163.3 12.6 168 12.9 172.7 13.4 177.3 13.7 182 14 186.7 14.2 191.3 14.7 196 15 200.7 15.2 205.3 15.4 210 15.9 214.7 16.1 219.3 16.4 224 16.6 228.7 17 233.3 17.2 238 17.4 242.7 17.6 247.3 18 252 18.2 256.7 18.4 261.3 18.6 266 19 270.7 19.1 275.3 19.3 280 19.5 284.7 19.8 289.3 20 294 20.2 298.7 20.3 303.3 20.6 308 20.8 312.7 20.9 317.3 21 322 21.3 326.7 21.4 331.3 21.6 336 21.7 340.7 21.9 345.3 22.1 350 22.2 354.7 22.3 359.3 22.5 364 22.6 368.7 22.7 373.3 22.8 378 22.9 382.7 23 387.3 23.1 392 23.2 396.7 23.3 401.3 23.4 406 23.5 410.7 23.5 415.3 23.6 420 23.7 424.7 23.8 429.3 23.8 434 23.9 438.7 24 443.3 24 448 24.1 452.7 24.2 457.3 24.2 462 24.3 466.7 24.4 471.3 24.4 476 24.4 480.7 24.4 485.3 24.4 490 24.4 494.7 24.4 499.3 24.4 504 24.4 508.7 24.4 513.3 24.4 518 24.4 522.7 24.4 527.3 24.4 532 24.4 536.7 24.4 541.3 24.4 546 24.4 550.7 24.4 555.3 24.4 560 24.4" transform="matrix(1,0,0,-1,82.8,592.5)" fill="#71708A" fill-opacity="0.2"></polygon>
</g>
<g clip-path="url(#zr0-c3)">
<polyline points="0 5.8 4.7 5.8 9.3 5.8 14 5.8 18.7 5.8 23.3 5.8 28 5.8 32.7 5.8 37.3 5.8 42 5.8 46.7 5.8 51.3 5.8 56 5.8 60.7 5.7 65.3 5.6 70 5.8 74.7 5.7 79.3 5.9 84 5.9 88.7 6.3 93.3 6.7 98 7.5 102.7 7.8 107.3 8.1 112 8.5 116.7 9.1 121.3 9.4 126 9.7 130.7 10 135.3 10.6 140 10.9 144.7 11.2 149.3 11.5 154 12.1 158.7 12.4 163.3 12.6 168 12.9 172.7 13.4 177.3 13.7 182 14 186.7 14.2 191.3 14.7 196 15 200.7 15.2 205.3 15.4 210 15.9 214.7 16.1 219.3 16.4 224 16.6 228.7 17 233.3 17.2 238 17.4 242.7 17.6 247.3 18 252 18.2 256.7 18.4 261.3 18.6 266 19 270.7 19.1 275.3 19.3 280 19.5 284.7 19.8 289.3 20 294 20.2 298.7 20.3 303.3 20.6 308 20.8 312.7 20.9 317.3 21 322 21.3 326.7 21.4 331.3 21.6 336 21.7 340.7 21.9 345.3 22.1 350 22.2 354.7 22.3 359.3 22.5 364 22.6 368.7 22.7 373.3 22.8 378 22.9 382.7 23 387.3 23.1 392 23.2 396.7 23.3 401.3 23.4 406 23.5 410.7 23.5 415.3 23.6 420 23.7 424.7 23.8 429.3 23.8 434 23.9 438.7 24 443.3 24 448 24.1 452.7 24.2 457.3 24.2 462 24.3 466.7 24.4 471.3 24.4 476 24.4 480.7 24.4 485.3 24.4 490 24.4 494.7 24.4 499.3 24.4 504 24.4 508.7 24.4 513.3 24.4 518 24.4 522.7 24.4 527.3 24.4 532 24.4 536.7 24.4 541.3 24.4 546 24.4 550.7 24.4 555.3 24.4 560 24.4" transform="matrix(1,0,0,-1,82.8,592.5)" fill="none" stroke="#71708A"></polyline>
</g>
<g clip-path="url(#zr0-c4)">
<polyline points="0 5.8 4.7 5.8 9.3 5.8 14 5.8 18.7 5.8 23.3 5.8 28 5.8 32.7 5.8 37.3 5.8 42 5.8 46.7 5.8 51.3 5.8 56 5.8 60.7 5.7 65.3 5.6 70 5.8 74.7 5.7 79.3 5.9 84 5.9 88.7 6.3 93.3 6.7 98 7.5 102.7 7.8 107.3 8.1 112 8.5 116.7 9.1 121.3 9.4 126 9.7 130.7 10 135.3 10.6 140 10.9 144.7 11.2 149.3 11.5 154 12.1 158.7 12.4 163.3 12.6 168 12.9 172.7 13.4 177.3 13.7 182 14 186.7 14.2 191.3 14.7 196 15 200.7 15.2 205.3 15.4 210 15.9 214.7 16.1 219.3 16.4 224 16.6 228.7 17 233.3 17.2 238 17.4 242.7 17.6 247.3 18 252 18.2 256.7 18.4 261.3 18.6 266 19 270.7 19.1 275.3 19.3 280 19.5 284.7 19.8 289.3 20 294 20.2 298.7 20.3 303.3 20.6 308 20.8 312.7 20.9 317.3 21 322 21.3 326.7 21.4 331.3 21.6 336 21.7 340.7 21.9 345.3 22.1 350 22.2 354.7 22.3 359.3 22.5 364 22.6 368.7 22.7 373.3 22.8 378 22.9 382.7 23 387.3 23.1 392 23.2 396.7 23.3 401.3 23.4 406 23.5 410.7 23.5 415.3 23.6 420 23.7 424.7 23.8 429.3 23.8 434 23.9 438.7 24 443.3 24 448 24.1 452.7 24.2 457.3 24.2 462 24.3 466.7 24.4 471.3 24.4 476 24.4 480.7 24.4 485.3 24.4 490 24.4 494.7 24.4 499.3 24.4 504 24.4 508.7 24.4 513.3 24.4 518 24.4 522.7 24.4 527.3 24.4 532 24.4 536.7 24.4 541.3 24.4 546 24.4 550.7 24.4 555.3 24.4 560 24.4" transform="matrix(1,0,0,-1,82.8,592.5)" fill="none" stroke="#87A3CE" stroke-width="0.5"></polyline>
</g>
<g clip-path="url(#zr0-c5)">
<polyline points="0 5.8 4.7 5.8 9.3 5.8 14 5.8 18.7 5.8 23.3 5.8 28 5.8 32.7 5.8 37.3 5.8 42 5.8 46.7 5.8 51.3 5.8 56 5.8 60.7 5.7 65.3 5.6 70 5.8 74.7 5.7 79.3 5.9 84 5.9 88.7 6.3 93.3 6.7 98 7.5 102.7 7.8 107.3 8.1 112 8.5 116.7 9.1 121.3 9.4 126 9.7 130.7 10 135.3 10.6 140 10.9 144.7 11.2 149.3 11.5 154 12.1 158.7 12.4 163.3 12.6 168 12.9 172.7 13.4 177.3 13.7 182 14 186.7 14.2 191.3 14.7 196 15 200.7 15.2 205.3 15.4 210 15.9 214.7 16.1 219.3 16.4 224 16.6 228.7 17 233.3 17.2 238 17.4 242.7 17.6 247.3 18 252 18.2 256.7 18.4 261.3 18.6 266 19 270.7 19.1 275.3 19.3 280 19.5 284.7 19.8 289.3 20 294 20.2 298.7 20.3 303.3 20.6 308 20.8 312.7 20.9 317.3 21 322 21.3 326.7 21.4 331.3 21.6 336 21.7 340.7 21.9 345.3 22.1 350 22.2 354.7 22.3 359.3 22.5 364 22.6 368.7 22.7 373.3 22.8 378 22.9 382.7 23 387.3 23.1 392 23.2 396.7 23.3 401.3 23.4 406 23.5 410.7 23.5 415.3 23.6 420 23.7 424.7 23.8 429.3 23.8 434 23.9 438.7 24 443.3 24 448 24.1 452.7 24.2 457.3 24.2 462 24.3 466.7 24.4 471.3 24.4 476 24.4 480.7 24.4 485.3 24.4 490 24.4 494.7 24.4 499.3 24.4 504 24.4 508.7 24.4 513.3 24.4 518 24.4 522.7 24.4 527.3 24.4 532 24.4 536.7 24.4 541.3 24.4 546 24.4 550.7 24.4 555.3 24.4 560 24.4" transform="matrix(1,0,0,-1,82.8,592.5)" fill="none" stroke="#71708A"></polyline>
</g>
<path d="M-5 -5l691.0547 0l0 22l-691.0547 0Z" transform="translate(59.4727 5)" fill="rgb(0,0,0)" fill-opacity="0" stroke="#ccc" stroke-width="0"></path>
<path d="M0 7L25 7" transform="translate(60.4727 4)" fill="#000" stroke="#ACDFED" stroke-width="2" stroke-linecap="butt" stroke-miterlimit="10"></path>
<path d="M12.5 1.4L18.1 12.6L6.9 12.6Z" transform="translate(60.4727 4)" fill="#ACDFED"></path>
<text dominant-baseline="central" text-anchor="start" style="font-size:12px;font-family:Microsoft YaHei;" x="30" y="7" transform="translate(60.4727 4)" fill="#B9B8CE">Pipe_Pres</text>
<path d="M0 7L25 7" transform="translate(156.1465 4)" fill="#000" stroke="#ACDFED" stroke-width="2" stroke-linecap="butt" stroke-miterlimit="10"></path>
<path d="M18.1 7A5.6 5.6 0 1 1 18.1 6.9994" transform="translate(156.1465 4)" fill="#ACDFED"></path>
<text dominant-baseline="central" text-anchor="start" style="font-size:12px;font-family:Microsoft YaHei;" x="30" y="7" transform="translate(156.1465 4)" fill="#B9B8CE">Ambient_Pres</text>
<path d="M0 7L25 7" transform="translate(276.0313 4)" fill="#000" stroke="#ccc" stroke-width="2" stroke-linecap="butt" stroke-miterlimit="10"></path>
<path d="M12.5 1.4L18.1 12.6L6.9 12.6Z" transform="translate(276.0313 4)" fill="#ccc" stroke="#ccc" stroke-width="0" stroke-linecap="butt" stroke-miterlimit="10"></path>
<text dominant-baseline="central" text-anchor="start" style="font-size:12px;font-family:Microsoft YaHei;" x="30" y="7" transform="translate(276.0313 4)" fill="#ccc">Pipe_Temp</text>
<path d="M0 7L25 7" transform="translate(380.0137 4)" fill="#000" stroke="#ccc" stroke-width="2" stroke-linecap="butt" stroke-miterlimit="10"></path>
<path d="M18.1 7A5.6 5.6 0 1 1 18.1 6.9994" transform="translate(380.0137 4)" fill="#ccc" stroke="#ccc" stroke-width="0" stroke-linecap="butt" stroke-miterlimit="10"></path>
<text dominant-baseline="central" text-anchor="start" style="font-size:12px;font-family:Microsoft YaHei;" x="30" y="7" transform="translate(380.0137 4)" fill="#ccc">Chip_Temp</text>
<path d="M0 7L25 7" transform="translate(485.2617 4)" fill="#000" stroke="#ccc" stroke-width="2" stroke-linecap="butt" stroke-miterlimit="10"></path>
<path d="M18.1 7A5.6 5.6 0 1 1 18.1 6.9994" transform="translate(485.2617 4)" fill="#ccc" stroke="#ccc" stroke-width="0" stroke-linecap="butt" stroke-miterlimit="10"></path>
<text dominant-baseline="central" text-anchor="start" style="font-size:12px;font-family:Microsoft YaHei;" x="30" y="7" transform="translate(485.2617 4)" fill="#ccc">Set_nPressure</text>
<path d="M0 7L25 7" transform="translate(605.8672 4)" fill="#000" stroke="#f7f494" stroke-width="2" stroke-linecap="butt" stroke-miterlimit="10"></path>
<path d="M12.5 1.4L18.1 12.6L6.9 12.6Z" transform="translate(605.8672 4)" fill="#f7f494"></path>
<text dominant-baseline="central" text-anchor="start" style="font-size:12px;font-family:Microsoft YaHei;" x="30" y="7" transform="translate(605.8672 4)" fill="#B9B8CE">Current_nPressure</text>
<path d="M0 0l560 0l0 30l-560 0Z" transform="matrix(1,0,0,-1,82.8,592.5)" fill="none"></path>
<path d="M0 0l560 0l0 30l-560 0Z" transform="matrix(1,0,0,-1,82.8,592.5)" fill="rgb(135,163,206)" fill-opacity="0.2"></path>
<path d="M3.5 0.5L556.5 0.5A3 3 0 0 1 559.5 3.5L559.5 26.5A3 3 0 0 1 556.5 29.5L3.5 29.5A3 3 0 0 1 0.5 26.5L0.5 3.5A3 3 0 0 1 3.5 0.5" transform="matrix(1,0,0,-1,82.8,592.5)" fill="rgb(0,0,0)" fill-opacity="0" stroke="#71708A"></path>
<path d="M0 29.5L560 29.5L560 34.5A2 2 0 0 1 558 36.5L2 36.5A2 2 0 0 1 0 34.5L0 29.5" transform="matrix(1,0,0,-1,82.8,592.5)" fill="#B0B6C3" fill-opacity="0.3"></path>
<path d="M-2.2408 -1.6796C-1.8674 -1.6796 -1.6817 -1.4939 -1.6817 -1.1204L-1.6817 1.1204C-1.6817 1.4939 -1.8674 1.6796 -2.2408 1.6796C-2.6143 1.6796 -2.8 1.4939 -2.8 1.1204L-2.8 -1.1204C-2.8 -1.4939 -2.6143 -1.6796 -2.2408 -1.6796ZM0 -1.6796C0.3735 -1.6796 0.5592 -1.4939 0.5592 -1.1204L0.5592 1.1204C0.5592 1.4939 0.3735 1.6796 0 1.6796C-0.3735 1.6796 -0.5592 1.4939 -0.5592 1.1204L-0.5592 -1.1204C-0.5592 -1.4939 -0.3735 -1.6796 0 -1.6796ZM2.2408 -1.6796C2.6143 -1.6796 2.8 -1.4939 2.8 -1.1204L2.8 1.1204C2.8 1.4939 2.6143 1.6796 2.2408 1.6796C1.8674 1.6796 1.6817 1.4939 1.6817 1.1204L1.6817 -1.1204C1.6796 -1.4939 1.8674 -1.6796 2.2408 -1.6796Z" transform="matrix(1,0,0,-1,362.8,559.5)" fill="#fff"></path>
<path d="M0 1.628L0 2M0 0L0 0.375M-0.1 0.375L0.1 0.375A0.1 0.1 0 0 1 0.2 0.475L0.2 1.525A0.1 0.1 0 0 1 0.1 1.625L-0.1 1.625A0.1 0.1 0 0 1 -0.2 1.525L-0.2 0.475A0.1 0.1 0 0 1 -0.1 0.375Z" transform="matrix(15,0,0,-15,83.8,592.5)" fill="#353450" stroke="#C5CBE3" stroke-width="0.06666666666666667"></path>
<path d="M0 1.628L0 2M0 0L0 0.375M-0.1 0.375L0.1 0.375A0.1 0.1 0 0 1 0.2 0.475L0.2 1.525A0.1 0.1 0 0 1 0.1 1.625L-0.1 1.625A0.1 0.1 0 0 1 -0.2 1.525L-0.2 0.475A0.1 0.1 0 0 1 -0.1 0.375Z" transform="matrix(15,0,0,-15,641.8,592.5)" fill="#353450" stroke="#C5CBE3" stroke-width="0.06666666666666667"></path>
<defs >
<clipPath id="zr0-c0">
<path d="M79 59l561.9999 0l0 472l-561.9999 0Z" fill="#000" class="zr0-cls-0"></path>
</clipPath>
<clipPath id="zr0-c1">
<path d="M79 59l562 0l0 472l-562 0Z" fill="#000"></path>
</clipPath>
<clipPath id="zr0-c2">
<path d="M79 59l562 0l0 472l-562 0Z" fill="#000"></path>
</clipPath>
<clipPath id="zr0-c3">
<path d="M0 0l0 0l0 30l0 0Z" transform="matrix(1,0,0,-1,82.8,592.5)" fill="#000"></path>
</clipPath>
<clipPath id="zr0-c4">
<path d="M0 0l560 0l0 30l-560 0Z" transform="matrix(1,0,0,-1,82.8,592.5)" fill="#000"></path>
</clipPath>
<clipPath id="zr0-c5">
<path d="M560 0l0 0l0 30l0 0Z" transform="matrix(1,0,0,-1,82.8,592.5)" fill="#000"></path>
</clipPath>
</defs>
<style ><![CDATA[
.zr0-cls-0 {
animation:zr0-ani-0 1s linear both;
}
@keyframes zr0-ani-0 {
0% {
d:path("M79 59l562 0l0 472l-562 0Z");
}
100% {
d:path("M79 59l562 0l0 472l-562 0Z");
}
}
]]>

</style>
</svg>