<svg width="800" height="600" xmlns="http://www.w3.org/2000/svg" xmlns:xlink="http://www.w3.org/1999/xlink" version="1.1" baseProfile="full" viewBox="0 0 800 600">
<rect width="800" height="600" x="0" y="0" id="0" fill="rgb(40, 44, 52)" fill-opacity="1"></rect>
<path d="M80 530.5L640 530.5" fill="none" stroke="#484753"></path>
<path d="M80 471.5L640 471.5" fill="none" stroke="#484753"></path>
<path d="M80 412.5L640 412.5" fill="none" stroke="#484753"></path>
<path d="M80 354.5L640 354.5" fill="none" stroke="#484753"></path>
<path d="M80 295.5L640 295.5" fill="none" stroke="#484753"></path>
<path d="M80 236.5L640 236.5" fill="none" stroke="#484753"></path>
<path d="M80 177.5L640 177.5" fill="none" stroke="#484753"></path>
<path d="M80 119.5L640 119.5" fill="none" stroke="#484753"></path>
<path d="M80 60.5L640 60.5" fill="none" stroke="#484753"></path>
<path d="M80.5 530L80.5 60" fill="none" stroke="#ACDFED" stroke-linecap="round"></path>
<text dominant-baseline="central" text-anchor="middle" style="font-size:12px;font-family:Microsoft YaHei;" y="-6" transform="translate(80 45)" fill="#B9B8CE">压力</text>
<path d="M640.5 530L640.5 60" fill="none" stroke="#FFAB91" stroke-linecap="round"></path>
<text dominant-baseline="central" text-anchor="middle" style="font-size:12px;font-family:Microsoft YaHei;" y="-6" transform="translate(640 45)" fill="#B9B8CE">温度</text>
<path d="M720.5 530L720.5 60" fill="none" stroke="#f7f494" stroke-linecap="round"></path>
<text dominant-baseline="central" text-anchor="middle" style="font-size:12px;font-family:Microsoft YaHei;" y="-6" transform="translate(720 45)" fill="#B9B8CE">负压</text>
<path d="M80 530.5L640 530.5" fill="none" stroke="#B9B8CE" stroke-linecap="round"></path>
<path d="M82.5 530L82.5 535" fill="none" stroke="#B9B8CE"></path>
<path d="M147.5 530L147.5 535" fill="none" stroke="#B9B8CE"></path>
<path d="M212.5 530L212.5 535" fill="none" stroke="#B9B8CE"></path>
<path d="M276.5 530L276.5 535" fill="none" stroke="#B9B8CE"></path>
<path d="M341.5 530L341.5 535" fill="none" stroke="#B9B8CE"></path>
<path d="M406.5 530L406.5 535" fill="none" stroke="#B9B8CE"></path>
<path d="M471.5 530L471.5 535" fill="none" stroke="#B9B8CE"></path>
<path d="M536.5 530L536.5 535" fill="none" stroke="#B9B8CE"></path>
<path d="M600.5 530L600.5 535" fill="none" stroke="#B9B8CE"></path>
<text dominant-baseline="central" text-anchor="start" style="font-size:12px;font-family:Microsoft YaHei;" xml:space="preserve" transform="translate(728 530)" fill="#B9B8CE">0 hPa</text>
<text dominant-baseline="central" text-anchor="start" style="font-size:12px;font-family:Microsoft YaHei;" xml:space="preserve" transform="translate(728 471.25)" fill="#B9B8CE">10 hPa</text>
<text dominant-baseline="central" text-anchor="start" style="font-size:12px;font-family:Microsoft YaHei;" xml:space="preserve" transform="translate(728 412.5)" fill="#B9B8CE">20 hPa</text>
<text dominant-baseline="central" text-anchor="start" style="font-size:12px;font-family:Microsoft YaHei;" xml:space="preserve" transform="translate(728 353.75)" fill="#B9B8CE">30 hPa</text>
<text dominant-baseline="central" text-anchor="start" style="font-size:12px;font-family:Microsoft YaHei;" xml:space="preserve" transform="translate(728 295)" fill="#B9B8CE">40 hPa</text>
<text dominant-baseline="central" text-anchor="start" style="font-size:12px;font-family:Microsoft YaHei;" xml:space="preserve" transform="translate(728 236.25)" fill="#B9B8CE">50 hPa</text>
<text dominant-baseline="central" text-anchor="start" style="font-size:12px;font-family:Microsoft YaHei;" xml:space="preserve" transform="translate(728 177.5)" fill="#B9B8CE">60 hPa</text>
<text dominant-baseline="central" text-anchor="start" style="font-size:12px;font-family:Microsoft YaHei;" xml:space="preserve" transform="translate(728 118.75)" fill="#B9B8CE">70 hPa</text>
<text dominant-baseline="central" text-anchor="start" style="font-size:12px;font-family:Microsoft YaHei;" xml:space="preserve" transform="translate(728 60)" fill="#B9B8CE">80 hPa</text>
<text dominant-baseline="central" text-anchor="middle" style="font-size:12px;font-family:Microsoft YaHei;" y="6" transform="translate(82.314 538)" fill="#B9B8CE">18:00:11</text>
<text dominant-baseline="central" text-anchor="middle" style="font-size:12px;font-family:Microsoft YaHei;" y="6" transform="translate(147.1074 538)" fill="#B9B8CE">18:00:25</text>
<text dominant-baseline="central" text-anchor="middle" style="font-size:12px;font-family:Microsoft YaHei;" y="6" transform="translate(211.9008 538)" fill="#B9B8CE">18:00:39</text>
<text dominant-baseline="central" text-anchor="middle" style="font-size:12px;font-family:Microsoft YaHei;" y="6" transform="translate(276.6942 538)" fill="#B9B8CE">18:00:53</text>
<text dominant-baseline="central" text-anchor="middle" style="font-size:12px;font-family:Microsoft YaHei;" y="6" transform="translate(341.4876 538)" fill="#B9B8CE">18:01:07</text>
<text dominant-baseline="central" text-anchor="middle" style="font-size:12px;font-family:Microsoft YaHei;" y="6" transform="translate(406.281 538)" fill="#B9B8CE">18:01:21</text>
<text dominant-baseline="central" text-anchor="middle" style="font-size:12px;font-family:Microsoft YaHei;" y="6" transform="translate(471.0744 538)" fill="#B9B8CE">18:01:35</text>
<text dominant-baseline="central" text-anchor="middle" style="font-size:12px;font-family:Microsoft YaHei;" y="6" transform="translate(535.8678 538)" fill="#B9B8CE">18:01:49</text>
<text dominant-baseline="central" text-anchor="middle" style="font-size:12px;font-family:Microsoft YaHei;" y="6" transform="translate(600.6612 538)" fill="#B9B8CE">18:02:03</text>
<g clip-path="url(#zr0-c0)">
<path d="M82.314 524.7125L86.9421 524.7125L91.5703 524.7125L96.1983 524.7125L100.8264 526.475L105.4545 530L110.0826 530L114.7107 529.4125L119.3388 528.2375L123.9669 522.3625L128.595 522.3625L133.2231 525.8875L137.8512 512.9625L142.4793 510.6125L147.1074 507.675L151.7355 511.7875L156.3636 480.0625L160.9917 471.25L165.6198 443.05L170.2479 393.7L174.876 374.9L179.5041 354.925L184.1322 323.7875L188.7603 275.6125L193.3884 266.2125L198.0165 240.95L202.6446 226.2625L207.2727 187.4875L211.9008 171.625L216.5289 163.4L221.157 144.6L225.7851 128.7375L230.4132 117.575L235.0413 109.35L239.6694 106.4125L244.2975 105.825L248.9256 98.775L253.5537 106.4125L258.1818 93.4875L262.8099 97.0125L267.438 104.0625L272.0661 107.5875L276.6942 101.7125L281.3223 109.9375L285.9504 120.5125L290.5785 121.1L295.2066 129.9125L299.8347 136.9625L304.4628 149.3L309.0909 148.125L313.719 155.175L318.3471 176.325L322.9752 177.5L327.6033 183.9625L332.2314 192.775L336.8595 203.9375L341.4876 202.7625L346.1157 213.925L350.7438 212.75L355.3719 222.7375L360 234.4875L364.6281 231.55L369.2562 241.5375L373.8843 248.5875L378.5124 252.7L383.1405 249.7625L387.7686 252.7L392.3967 259.1625L397.0248 261.5125L401.6529 260.925L406.281 270.9125L410.9091 273.2625L415.5372 270.325L420.1653 266.8L424.7934 267.3875L429.4215 275.6125L434.0496 265.625L438.6777 274.4375L443.3058 273.85L447.9339 273.85L452.562 269.15L457.1901 261.5125L461.8182 272.0875L466.4463 264.45L471.0744 269.15L475.7025 262.1L480.3306 262.1L484.9587 257.9875L489.5868 251.525L494.2149 259.75L498.843 246.825L503.4711 244.475L508.0992 252.7L512.7273 242.125L517.3553 246.825L521.9835 246.825L526.6116 238.0125L531.2397 242.125L535.8678 238.0125L540.4958 242.125L545.124 232.725L549.7521 237.425L554.3802 230.375L559.0082 230.9625L563.6364 236.8375L568.2645 228.025L572.8926 234.4875L577.5207 227.4375L582.1487 235.075L586.7769 224.5L591.405 237.425L596.0331 223.325L600.6611 234.4875L605.2892 233.9L609.9174 223.9125L614.5455 232.1375L619.1736 234.4875L623.8016 231.55L628.4297 223.9125L633.0579 223.325L637.686 223.9125" fill="none" stroke="#f7f494" stroke-width="2" stroke-linejoin="bevel"></path>
</g>
<g clip-path="url(#zr0-c1)">
<path d="M82.314 236.25L86.9421 236.25L91.5703 236.25L96.1983 236.25L100.8264 236.25L105.4545 236.25L110.0826 236.25L114.7107 236.25L119.3388 236.25L123.9669 236.25L128.595 236.25L133.2231 236.25L137.8512 236.25L142.4793 236.25L147.1074 236.25L151.7355 236.25L156.3636 236.25L160.9917 236.25L165.6198 236.25L170.2479 236.25L174.876 236.25L179.5041 236.25L184.1322 236.25L188.7603 236.25L193.3884 236.25L198.0165 236.25L202.6446 236.25L207.2727 236.25L211.9008 236.25L216.5289 236.25L221.157 236.25L225.7851 236.25L230.4132 236.25L235.0413 236.25L239.6694 236.25L244.2975 236.25L248.9256 236.25L253.5537 236.25L258.1818 236.25L262.8099 236.25L267.438 236.25L272.0661 236.25L276.6942 236.25L281.3223 236.25L285.9504 236.25L290.5785 236.25L295.2066 236.25L299.8347 236.25L304.4628 236.25L309.0909 236.25L313.719 236.25L318.3471 236.25L322.9752 236.25L327.6033 236.25L332.2314 236.25L336.8595 236.25L341.4876 236.25L346.1157 236.25L350.7438 236.25L355.3719 236.25L360 236.25L364.6281 236.25L369.2562 236.25L373.8843 236.25L378.5124 236.25L383.1405 236.25L387.7686 236.25L392.3967 236.25L397.0248 236.25L401.6529 236.25L406.281 236.25L410.9091 236.25L415.5372 236.25L420.1653 236.25L424.7934 236.25L429.4215 236.25L434.0496 236.25L438.6777 236.25L443.3058 236.25L447.9339 236.25L452.562 236.25L457.1901 236.25L461.8182 236.25L466.4463 236.25L471.0744 236.25L475.7025 236.25L480.3306 236.25L484.9587 236.25L489.5868 236.25L494.2149 236.25L498.843 236.25L503.4711 236.25L508.0992 236.25L512.7273 236.25L517.3553 236.25L521.9835 236.25L526.6116 236.25L531.2397 236.25L535.8678 236.25L540.4958 236.25L545.124 236.25L549.7521 236.25L554.3802 236.25L559.0082 236.25L563.6364 236.25L568.2645 236.25L572.8926 236.25L577.5207 236.25L582.1487 236.25L586.7769 236.25L591.405 236.25L596.0331 236.25L600.6611 236.25L605.2892 236.25L609.9174 236.25L614.5455 236.25L619.1736 236.25L623.8016 236.25L628.4297 236.25L633.0579 236.25L637.686 236.25" fill="none" stroke="#f7f494" stroke-width="2" stroke-linejoin="bevel"></path>
</g>
<path d="M1 0A1 1 0 1 1 1 -0.0001" transform="matrix(0,0,0,0,82.314,133.7508)" fill="#ACDFED" fill-opacity="0"></path>
<path d="M0 -1L1 1L-1 1Z" transform="matrix(0,0,0,0,82.314,73.16)" fill="#FFAB91" fill-opacity="0"></path>
<path d="M0 -1L1 1L-1 1Z" transform="matrix(0,0,0,0,82.314,528.7914)" fill="#f7f494" fill-opacity="0"></path>
<path d="M0 -1L1 1L-1 1Z" transform="matrix(5,0,0,5,82.314,524.7125)" fill="#f7f494"></path>
<path d="M0 -1L1 1L-1 1Z" transform="matrix(5,0,0,5,147.1074,507.675)" fill="#f7f494"></path>
<path d="M0 -1L1 1L-1 1Z" transform="matrix(5,0,0,5,211.9008,171.625)" fill="#f7f494"></path>
<path d="M0 -1L1 1L-1 1Z" transform="matrix(5,0,0,5,276.6942,101.7125)" fill="#f7f494"></path>
<path d="M0 -1L1 1L-1 1Z" transform="matrix(5,0,0,5,341.4876,202.7625)" fill="#f7f494"></path>
<path d="M0 -1L1 1L-1 1Z" transform="matrix(5,0,0,5,406.281,270.9125)" fill="#f7f494"></path>
<path d="M0 -1L1 1L-1 1Z" transform="matrix(5,0,0,5,471.0744,269.15)" fill="#f7f494"></path>
<path d="M0 -1L1 1L-1 1Z" transform="matrix(5,0,0,5,535.8678,238.0125)" fill="#f7f494"></path>
<path d="M0 -1L1 1L-1 1Z" transform="matrix(5,0,0,5,600.6611,234.4875)" fill="#f7f494"></path>
<path d="M1 0A1 1 0 1 1 1 -0.0001" transform="matrix(5,0,0,5,82.314,236.25)" fill="#f7f494"></path>
<path d="M1 0A1 1 0 1 1 1 -0.0001" transform="matrix(5,0,0,5,147.1074,236.25)" fill="#f7f494"></path>
<path d="M1 0A1 1 0 1 1 1 -0.0001" transform="matrix(5,0,0,5,211.9008,236.25)" fill="#f7f494"></path>
<path d="M1 0A1 1 0 1 1 1 -0.0001" transform="matrix(5,0,0,5,276.6942,236.25)" fill="#f7f494"></path>
<path d="M1 0A1 1 0 1 1 1 -0.0001" transform="matrix(5,0,0,5,341.4876,236.25)" fill="#f7f494"></path>
<path d="M1 0A1 1 0 1 1 1 -0.0001" transform="matrix(5,0,0,5,406.281,236.25)" fill="#f7f494"></path>
<path d="M1 0A1 1 0 1 1 1 -0.0001" transform="matrix(5,0,0,5,471.0744,236.25)" fill="#f7f494"></path>
<path d="M1 0A1 1 0 1 1 1 -0.0001" transform="matrix(5,0,0,5,535.8678,236.25)" fill="#f7f494"></path>
<path d="M1 0A1 1 0 1 1 1 -0.0001" transform="matrix(5,0,0,5,600.6611,236.25)" fill="#f7f494"></path>
<path d="M0 0l560 0l0 30l-560 0Z" transform="matrix(1,0,0,-1,82.8,592.5)" fill="rgb(47,69,84)" fill-opacity="0"></path>
<g clip-path="url(#zr0-c2)">
<polygon points="560 0 0 0 0 5.9 4.7 5.9 9.3 5.9 14 5.9 18.7 5.8 23.3 5.6 28 5.6 32.7 5.7 37.3 5.7 42 6 46.7 6 51.3 5.8 56 6.4 60.7 6.5 65.3 6.6 70 6.4 74.7 7.8 79.3 8.1 84 9.4 88.7 11.5 93.3 12.3 98 13.1 102.7 14.5 107.3 16.6 112 17 116.7 18 121.3 18.7 126 20.3 130.7 21 135.3 21.4 140 22.2 144.7 22.9 149.3 23.3 154 23.7 158.7 23.8 163.3 23.8 168 24.1 172.7 23.8 177.3 24.4 182 24.2 186.7 23.9 191.3 23.8 196 24 200.7 23.7 205.3 23.2 210 23.2 214.7 22.8 219.3 22.5 224 22 228.7 22 233.3 21.7 238 20.8 242.7 20.8 247.3 20.5 252 20.1 256.7 19.6 261.3 19.7 266 19.2 270.7 19.3 275.3 18.8 280 18.3 284.7 18.4 289.3 18 294 17.7 298.7 17.5 303.3 17.7 308 17.5 312.7 17.3 317.3 17.2 322 17.2 326.7 16.8 331.3 16.7 336 16.8 340.7 16.9 345.3 16.9 350 16.6 354.7 17 359.3 16.6 364 16.6 368.7 16.6 373.3 16.8 378 17.2 382.7 16.7 387.3 17 392 16.8 396.7 17.1 401.3 17.1 406 17.3 410.7 17.6 415.3 17.2 420 17.8 424.7 17.9 429.3 17.5 434 18 438.7 17.8 443.3 17.8 448 18.2 452.7 18 457.3 18.2 462 18 466.7 18.4 471.3 18.2 476 18.5 480.7 18.5 485.3 18.2 490 18.6 494.7 18.3 499.3 18.6 504 18.3 508.7 18.7 513.3 18.2 518 18.8 522.7 18.3 527.3 18.3 532 18.8 536.7 18.4 541.3 18.3 546 18.4 550.7 18.8 555.3 18.8 560 18.8" transform="matrix(1,0,0,-1,82.8,592.5)" fill="#71708A" fill-opacity="0.2"></polygon>
</g>
<g clip-path="url(#zr0-c3)">
<polygon points="560 0 0 0 0 5.9 4.7 5.9 9.3 5.9 14 5.9 18.7 5.8 23.3 5.6 28 5.6 32.7 5.7 37.3 5.7 42 6 46.7 6 51.3 5.8 56 6.4 60.7 6.5 65.3 6.6 70 6.4 74.7 7.8 79.3 8.1 84 9.4 88.7 11.5 93.3 12.3 98 13.1 102.7 14.5 107.3 16.6 112 17 116.7 18 121.3 18.7 126 20.3 130.7 21 135.3 21.4 140 22.2 144.7 22.9 149.3 23.3 154 23.7 158.7 23.8 163.3 23.8 168 24.1 172.7 23.8 177.3 24.4 182 24.2 186.7 23.9 191.3 23.8 196 24 200.7 23.7 205.3 23.2 210 23.2 214.7 22.8 219.3 22.5 224 22 228.7 22 233.3 21.7 238 20.8 242.7 20.8 247.3 20.5 252 20.1 256.7 19.6 261.3 19.7 266 19.2 270.7 19.3 275.3 18.8 280 18.3 284.7 18.4 289.3 18 294 17.7 298.7 17.5 303.3 17.7 308 17.5 312.7 17.3 317.3 17.2 322 17.2 326.7 16.8 331.3 16.7 336 16.8 340.7 16.9 345.3 16.9 350 16.6 354.7 17 359.3 16.6 364 16.6 368.7 16.6 373.3 16.8 378 17.2 382.7 16.7 387.3 17 392 16.8 396.7 17.1 401.3 17.1 406 17.3 410.7 17.6 415.3 17.2 420 17.8 424.7 17.9 429.3 17.5 434 18 438.7 17.8 443.3 17.8 448 18.2 452.7 18 457.3 18.2 462 18 466.7 18.4 471.3 18.2 476 18.5 480.7 18.5 485.3 18.2 490 18.6 494.7 18.3 499.3 18.6 504 18.3 508.7 18.7 513.3 18.2 518 18.8 522.7 18.3 527.3 18.3 532 18.8 536.7 18.4 541.3 18.3 546 18.4 550.7 18.8 555.3 18.8 560 18.8" transform="matrix(1,0,0,-1,82.8,592.5)" fill="#87A3CE" fill-opacity="0.2"></polygon>
</g>
<g clip-path="url(#zr0-c4)">
<polygon points="560 0 0 0 0 5.9 4.7 5.9 9.3 5.9 14 5.9 18.7 5.8 23.3 5.6 28 5.6 32.7 5.7 37.3 5.7 42 6 46.7 6 51.3 5.8 56 6.4 60.7 6.5 65.3 6.6 70 6.4 74.7 7.8 79.3 8.1 84 9.4 88.7 11.5 93.3 12.3 98 13.1 102.7 14.5 107.3 16.6 112 17 116.7 18 121.3 18.7 126 20.3 130.7 21 135.3 21.4 140 22.2 144.7 22.9 149.3 23.3 154 23.7 158.7 23.8 163.3 23.8 168 24.1 172.7 23.8 177.3 24.4 182 24.2 186.7 23.9 191.3 23.8 196 24 200.7 23.7 205.3 23.2 210 23.2 214.7 22.8 219.3 22.5 224 22 228.7 22 233.3 21.7 238 20.8 242.7 20.8 247.3 20.5 252 20.1 256.7 19.6 261.3 19.7 266 19.2 270.7 19.3 275.3 18.8 280 18.3 284.7 18.4 289.3 18 294 17.7 298.7 17.5 303.3 17.7 308 17.5 312.7 17.3 317.3 17.2 322 17.2 326.7 16.8 331.3 16.7 336 16.8 340.7 16.9 345.3 16.9 350 16.6 354.7 17 359.3 16.6 364 16.6 368.7 16.6 373.3 16.8 378 17.2 382.7 16.7 387.3 17 392 16.8 396.7 17.1 401.3 17.1 406 17.3 410.7 17.6 415.3 17.2 420 17.8 424.7 17.9 429.3 17.5 434 18 438.7 17.8 443.3 17.8 448 18.2 452.7 18 457.3 18.2 462 18 466.7 18.4 471.3 18.2 476 18.5 480.7 18.5 485.3 18.2 490 18.6 494.7 18.3 499.3 18.6 504 18.3 508.7 18.7 513.3 18.2 518 18.8 522.7 18.3 527.3 18.3 532 18.8 536.7 18.4 541.3 18.3 546 18.4 550.7 18.8 555.3 18.8 560 18.8" transform="matrix(1,0,0,-1,82.8,592.5)" fill="#71708A" fill-opacity="0.2"></polygon>
</g>
<g clip-path="url(#zr0-c2)">
<polyline points="0 5.9 4.7 5.9 9.3 5.9 14 5.9 18.7 5.8 23.3 5.6 28 5.6 32.7 5.7 37.3 5.7 42 6 46.7 6 51.3 5.8 56 6.4 60.7 6.5 65.3 6.6 70 6.4 74.7 7.8 79.3 8.1 84 9.4 88.7 11.5 93.3 12.3 98 13.1 102.7 14.5 107.3 16.6 112 17 116.7 18 121.3 18.7 126 20.3 130.7 21 135.3 21.4 140 22.2 144.7 22.9 149.3 23.3 154 23.7 158.7 23.8 163.3 23.8 168 24.1 172.7 23.8 177.3 24.4 182 24.2 186.7 23.9 191.3 23.8 196 24 200.7 23.7 205.3 23.2 210 23.2 214.7 22.8 219.3 22.5 224 22 228.7 22 233.3 21.7 238 20.8 242.7 20.8 247.3 20.5 252 20.1 256.7 19.6 261.3 19.7 266 19.2 270.7 19.3 275.3 18.8 280 18.3 284.7 18.4 289.3 18 294 17.7 298.7 17.5 303.3 17.7 308 17.5 312.7 17.3 317.3 17.2 322 17.2 326.7 16.8 331.3 16.7 336 16.8 340.7 16.9 345.3 16.9 350 16.6 354.7 17 359.3 16.6 364 16.6 368.7 16.6 373.3 16.8 378 17.2 382.7 16.7 387.3 17 392 16.8 396.7 17.1 401.3 17.1 406 17.3 410.7 17.6 415.3 17.2 420 17.8 424.7 17.9 429.3 17.5 434 18 438.7 17.8 443.3 17.8 448 18.2 452.7 18 457.3 18.2 462 18 466.7 18.4 471.3 18.2 476 18.5 480.7 18.5 485.3 18.2 490 18.6 494.7 18.3 499.3 18.6 504 18.3 508.7 18.7 513.3 18.2 518 18.8 522.7 18.3 527.3 18.3 532 18.8 536.7 18.4 541.3 18.3 546 18.4 550.7 18.8 555.3 18.8 560 18.8" transform="matrix(1,0,0,-1,82.8,592.5)" fill="none" stroke="#71708A"></polyline>
</g>
<g clip-path="url(#zr0-c3)">
<polyline points="0 5.9 4.7 5.9 9.3 5.9 14 5.9 18.7 5.8 23.3 5.6 28 5.6 32.7 5.7 37.3 5.7 42 6 46.7 6 51.3 5.8 56 6.4 60.7 6.5 65.3 6.6 70 6.4 74.7 7.8 79.3 8.1 84 9.4 88.7 11.5 93.3 12.3 98 13.1 102.7 14.5 107.3 16.6 112 17 116.7 18 121.3 18.7 126 20.3 130.7 21 135.3 21.4 140 22.2 144.7 22.9 149.3 23.3 154 23.7 158.7 23.8 163.3 23.8 168 24.1 172.7 23.8 177.3 24.4 182 24.2 186.7 23.9 191.3 23.8 196 24 200.7 23.7 205.3 23.2 210 23.2 214.7 22.8 219.3 22.5 224 22 228.7 22 233.3 21.7 238 20.8 242.7 20.8 247.3 20.5 252 20.1 256.7 19.6 261.3 19.7 266 19.2 270.7 19.3 275.3 18.8 280 18.3 284.7 18.4 289.3 18 294 17.7 298.7 17.5 303.3 17.7 308 17.5 312.7 17.3 317.3 17.2 322 17.2 326.7 16.8 331.3 16.7 336 16.8 340.7 16.9 345.3 16.9 350 16.6 354.7 17 359.3 16.6 364 16.6 368.7 16.6 373.3 16.8 378 17.2 382.7 16.7 387.3 17 392 16.8 396.7 17.1 401.3 17.1 406 17.3 410.7 17.6 415.3 17.2 420 17.8 424.7 17.9 429.3 17.5 434 18 438.7 17.8 443.3 17.8 448 18.2 452.7 18 457.3 18.2 462 18 466.7 18.4 471.3 18.2 476 18.5 480.7 18.5 485.3 18.2 490 18.6 494.7 18.3 499.3 18.6 504 18.3 508.7 18.7 513.3 18.2 518 18.8 522.7 18.3 527.3 18.3 532 18.8 536.7 18.4 541.3 18.3 546 18.4 550.7 18.8 555.3 18.8 560 18.8" transform="matrix(1,0,0,-1,82.8,592.5)" fill="none" stroke="#87A3CE" stroke-width="0.5"></polyline>
</g>
<g clip-path="url(#zr0-c4)">
<polyline points="0 5.9 4.7 5.9 9.3 5.9 14 5.9 18.7 5.8 23.3 5.6 28 5.6 32.7 5.7 37.3 5.7 42 6 46.7 6 51.3 5.8 56 6.4 60.7 6.5 65.3 6.6 70 6.4 74.7 7.8 79.3 8.1 84 9.4 88.7 11.5 93.3 12.3 98 13.1 102.7 14.5 107.3 16.6 112 17 116.7 18 121.3 18.7 126 20.3 130.7 21 135.3 21.4 140 22.2 144.7 22.9 149.3 23.3 154 23.7 158.7 23.8 163.3 23.8 168 24.1 172.7 23.8 177.3 24.4 182 24.2 186.7 23.9 191.3 23.8 196 24 200.7 23.7 205.3 23.2 210 23.2 214.7 22.8 219.3 22.5 224 22 228.7 22 233.3 21.7 238 20.8 242.7 20.8 247.3 20.5 252 20.1 256.7 19.6 261.3 19.7 266 19.2 270.7 19.3 275.3 18.8 280 18.3 284.7 18.4 289.3 18 294 17.7 298.7 17.5 303.3 17.7 308 17.5 312.7 17.3 317.3 17.2 322 17.2 326.7 16.8 331.3 16.7 336 16.8 340.7 16.9 345.3 16.9 350 16.6 354.7 17 359.3 16.6 364 16.6 368.7 16.6 373.3 16.8 378 17.2 382.7 16.7 387.3 17 392 16.8 396.7 17.1 401.3 17.1 406 17.3 410.7 17.6 415.3 17.2 420 17.8 424.7 17.9 429.3 17.5 434 18 438.7 17.8 443.3 17.8 448 18.2 452.7 18 457.3 18.2 462 18 466.7 18.4 471.3 18.2 476 18.5 480.7 18.5 485.3 18.2 490 18.6 494.7 18.3 499.3 18.6 504 18.3 508.7 18.7 513.3 18.2 518 18.8 522.7 18.3 527.3 18.3 532 18.8 536.7 18.4 541.3 18.3 546 18.4 550.7 18.8 555.3 18.8 560 18.8" transform="matrix(1,0,0,-1,82.8,592.5)" fill="none" stroke="#71708A"></polyline>
</g>
<path d="M-5 -5l691.0547 0l0 22l-691.0547 0Z" transform="translate(59.4727 5)" fill="rgb(0,0,0)" fill-opacity="0" stroke="#ccc" stroke-width="0"></path>
<path d="M0 7L25 7" transform="translate(60.4727 4)" fill="#000" stroke="#ccc" stroke-width="2" stroke-linecap="butt" stroke-miterlimit="10"></path>
<path d="M12.5 1.4L18.1 12.6L6.9 12.6Z" transform="translate(60.4727 4)" fill="#ccc" stroke="#ccc" stroke-width="0" stroke-linecap="butt" stroke-miterlimit="10"></path>
<text dominant-baseline="central" text-anchor="start" style="font-size:12px;font-family:Microsoft YaHei;" x="30" y="7" transform="translate(60.4727 4)" fill="#ccc">Pipe_Pres</text>
<path d="M0 7L25 7" transform="translate(156.1465 4)" fill="#000" stroke="#ccc" stroke-width="2" stroke-linecap="butt" stroke-miterlimit="10"></path>
<path d="M18.1 7A5.6 5.6 0 1 1 18.1 6.9994" transform="translate(156.1465 4)" fill="#ccc" stroke="#ccc" stroke-width="0" stroke-linecap="butt" stroke-miterlimit="10"></path>
<text dominant-baseline="central" text-anchor="start" style="font-size:12px;font-family:Microsoft YaHei;" x="30" y="7" transform="translate(156.1465 4)" fill="#ccc">Ambient_Pres</text>
<path d="M0 7L25 7" transform="translate(276.0313 4)" fill="#000" stroke="#ccc" stroke-width="2" stroke-linecap="butt" stroke-miterlimit="10"></path>
<path d="M12.5 1.4L18.1 12.6L6.9 12.6Z" transform="translate(276.0313 4)" fill="#ccc" stroke="#ccc" stroke-width="0" stroke-linecap="butt" stroke-miterlimit="10"></path>
<text dominant-baseline="central" text-anchor="start" style="font-size:12px;font-family:Microsoft YaHei;" x="30" y="7" transform="translate(276.0313 4)" fill="#ccc">Pipe_Temp</text>
<path d="M0 7L25 7" transform="translate(380.0137 4)" fill="#000" stroke="#ccc" stroke-width="2" stroke-linecap="butt" stroke-miterlimit="10"></path>
<path d="M18.1 7A5.6 5.6 0 1 1 18.1 6.9994" transform="translate(380.0137 4)" fill="#ccc" stroke="#ccc" stroke-width="0" stroke-linecap="butt" stroke-miterlimit="10"></path>
<text dominant-baseline="central" text-anchor="start" style="font-size:12px;font-family:Microsoft YaHei;" x="30" y="7" transform="translate(380.0137 4)" fill="#ccc">Chip_Temp</text>
<path d="M0 7L25 7" transform="translate(485.2617 4)" fill="#000" stroke="#f7f494" stroke-width="2" stroke-linecap="butt" stroke-miterlimit="10"></path>
<path d="M18.1 7A5.6 5.6 0 1 1 18.1 6.9994" transform="translate(485.2617 4)" fill="#f7f494"></path>
<text dominant-baseline="central" text-anchor="start" style="font-size:12px;font-family:Microsoft YaHei;" x="30" y="7" transform="translate(485.2617 4)" fill="#B9B8CE">Set_nPressure</text>
<path d="M0 7L25 7" transform="translate(605.8672 4)" fill="#000" stroke="#f7f494" stroke-width="2" stroke-linecap="butt" stroke-miterlimit="10"></path>
<path d="M12.5 1.4L18.1 12.6L6.9 12.6Z" transform="translate(605.8672 4)" fill="#f7f494"></path>
<text dominant-baseline="central" text-anchor="start" style="font-size:12px;font-family:Microsoft YaHei;" x="30" y="7" transform="translate(605.8672 4)" fill="#B9B8CE">Current_nPressure</text>
<path d="M0 0l560 0l0 30l-560 0Z" transform="matrix(1,0,0,-1,82.8,592.5)" fill="none"></path>
<path d="M0 0l560 0l0 30l-560 0Z" transform="matrix(1,0,0,-1,82.8,592.5)" fill="rgb(135,163,206)" fill-opacity="0.2"></path>
<path d="M3.5 0.5L556.5 0.5A3 3 0 0 1 559.5 3.5L559.5 26.5A3 3 0 0 1 556.5 29.5L3.5 29.5A3 3 0 0 1 0.5 26.5L0.5 3.5A3 3 0 0 1 3.5 0.5" transform="matrix(1,0,0,-1,82.8,592.5)" fill="rgb(0,0,0)" fill-opacity="0" stroke="#71708A"></path>
<path d="M0 29.5L560 29.5L560 34.5A2 2 0 0 1 558 36.5L2 36.5A2 2 0 0 1 0 34.5L0 29.5" transform="matrix(1,0,0,-1,82.8,592.5)" fill="#B0B6C3" fill-opacity="0.3"></path>
<path d="M-2.2408 -1.6796C-1.8674 -1.6796 -1.6817 -1.4939 -1.6817 -1.1204L-1.6817 1.1204C-1.6817 1.4939 -1.8674 1.6796 -2.2408 1.6796C-2.6143 1.6796 -2.8 1.4939 -2.8 1.1204L-2.8 -1.1204C-2.8 -1.4939 -2.6143 -1.6796 -2.2408 -1.6796ZM0 -1.6796C0.3735 -1.6796 0.5592 -1.4939 0.5592 -1.1204L0.5592 1.1204C0.5592 1.4939 0.3735 1.6796 0 1.6796C-0.3735 1.6796 -0.5592 1.4939 -0.5592 1.1204L-0.5592 -1.1204C-0.5592 -1.4939 -0.3735 -1.6796 0 -1.6796ZM2.2408 -1.6796C2.6143 -1.6796 2.8 -1.4939 2.8 -1.1204L2.8 1.1204C2.8 1.4939 2.6143 1.6796 2.2408 1.6796C1.8674 1.6796 1.6817 1.4939 1.6817 1.1204L1.6817 -1.1204C1.6796 -1.4939 1.8674 -1.6796 2.2408 -1.6796Z" transform="matrix(1,0,0,-1,362.8,559.5)" fill="#fff"></path>
<path d="M0 1.628L0 2M0 0L0 0.375M-0.1 0.375L0.1 0.375A0.1 0.1 0 0 1 0.2 0.475L0.2 1.525A0.1 0.1 0 0 1 0.1 1.625L-0.1 1.625A0.1 0.1 0 0 1 -0.2 1.525L-0.2 0.475A0.1 0.1 0 0 1 -0.1 0.375Z" transform="matrix(15,0,0,-15,83.8,592.5)" fill="#353450" stroke="#C5CBE3" stroke-width="0.06666666666666667"></path>
<path d="M0 1.628L0 2M0 0L0 0.375M-0.1 0.375L0.1 0.375A0.1 0.1 0 0 1 0.2 0.475L0.2 1.525A0.1 0.1 0 0 1 0.1 1.625L-0.1 1.625A0.1 0.1 0 0 1 -0.2 1.525L-0.2 0.475A0.1 0.1 0 0 1 -0.1 0.375Z" transform="matrix(15,0,0,-15,641.8,592.5)" fill="#353450" stroke="#C5CBE3" stroke-width="0.06666666666666667"></path>
<defs >
<clipPath id="zr0-c0">
<path d="M79 59l562 0l0 472l-562 0Z" fill="#000"></path>
</clipPath>
<clipPath id="zr0-c1">
<path d="M79 59l562 0l0 472l-562 0Z" fill="#000"></path>
</clipPath>
<clipPath id="zr0-c2">
<path d="M0 0l0 0l0 30l0 0Z" transform="matrix(1,0,0,-1,82.8,592.5)" fill="#000"></path>
</clipPath>
<clipPath id="zr0-c3">
<path d="M0 0l560 0l0 30l-560 0Z" transform="matrix(1,0,0,-1,82.8,592.5)" fill="#000"></path>
</clipPath>
<clipPath id="zr0-c4">
<path d="M560 0l0 0l0 30l0 0Z" transform="matrix(1,0,0,-1,82.8,592.5)" fill="#000"></path>
</clipPath>
</defs>
</svg>