<svg width="800" height="600" xmlns="http://www.w3.org/2000/svg" xmlns:xlink="http://www.w3.org/1999/xlink" version="1.1" baseProfile="full" viewBox="0 0 800 600">
<rect width="800" height="600" x="0" y="0" id="0" fill="rgb(40, 44, 52)" fill-opacity="1"></rect>
<path d="M80 530.5L640 530.5" fill="none" stroke="#484753"></path>
<path d="M80 463.5L640 463.5" fill="none" stroke="#484753"></path>
<path d="M80 395.5L640 395.5" fill="none" stroke="#484753"></path>
<path d="M80 328.5L640 328.5" fill="none" stroke="#484753"></path>
<path d="M80 261.5L640 261.5" fill="none" stroke="#484753"></path>
<path d="M80 194.5L640 194.5" fill="none" stroke="#484753"></path>
<path d="M80 127.5L640 127.5" fill="none" stroke="#484753"></path>
<path d="M80 60.5L640 60.5" fill="none" stroke="#484753"></path>
<path d="M80 530.5L640 530.5" fill="none" stroke="#484753"></path>
<path d="M80 436.5L640 436.5" fill="none" stroke="#484753"></path>
<path d="M80 342.5L640 342.5" fill="none" stroke="#484753"></path>
<path d="M80 248.5L640 248.5" fill="none" stroke="#484753"></path>
<path d="M80 154.5L640 154.5" fill="none" stroke="#484753"></path>
<path d="M80 60.5L640 60.5" fill="none" stroke="#484753"></path>
<path d="M80.5 530L80.5 60" fill="none" stroke="#ACDFED" stroke-linecap="round"></path>
<text dominant-baseline="central" text-anchor="middle" style="font-size:12px;font-family:Microsoft YaHei;" y="-6" transform="translate(80 45)" fill="#B9B8CE">压力</text>
<path d="M640.5 530L640.5 60" fill="none" stroke="#FFAB91" stroke-linecap="round"></path>
<text dominant-baseline="central" text-anchor="middle" style="font-size:12px;font-family:Microsoft YaHei;" y="-6" transform="translate(640 45)" fill="#B9B8CE">温度</text>
<path d="M720.5 530L720.5 60" fill="none" stroke="#f7f494" stroke-linecap="round"></path>
<text dominant-baseline="central" text-anchor="middle" style="font-size:12px;font-family:Microsoft YaHei;" y="-6" transform="translate(720 45)" fill="#B9B8CE">负压</text>
<path d="M80 530.5L640 530.5" fill="none" stroke="#B9B8CE" stroke-linecap="round"></path>
<path d="M82.5 530L82.5 535" fill="none" stroke="#B9B8CE"></path>
<path d="M146.5 530L146.5 535" fill="none" stroke="#B9B8CE"></path>
<path d="M209.5 530L209.5 535" fill="none" stroke="#B9B8CE"></path>
<path d="M273.5 530L273.5 535" fill="none" stroke="#B9B8CE"></path>
<path d="M336.5 530L336.5 535" fill="none" stroke="#B9B8CE"></path>
<path d="M399.5 530L399.5 535" fill="none" stroke="#B9B8CE"></path>
<path d="M463.5 530L463.5 535" fill="none" stroke="#B9B8CE"></path>
<path d="M526.5 530L526.5 535" fill="none" stroke="#B9B8CE"></path>
<path d="M590.5 530L590.5 535" fill="none" stroke="#B9B8CE"></path>
<text dominant-baseline="central" text-anchor="start" style="font-size:12px;font-family:Microsoft YaHei;" xml:space="preserve" transform="translate(648 530)" fill="#B9B8CE">0 °C</text>
<text dominant-baseline="central" text-anchor="start" style="font-size:12px;font-family:Microsoft YaHei;" xml:space="preserve" transform="translate(648 462.8571)" fill="#B9B8CE">5 °C</text>
<text dominant-baseline="central" text-anchor="start" style="font-size:12px;font-family:Microsoft YaHei;" xml:space="preserve" transform="translate(648 395.7143)" fill="#B9B8CE">10 °C</text>
<text dominant-baseline="central" text-anchor="start" style="font-size:12px;font-family:Microsoft YaHei;" xml:space="preserve" transform="translate(648 328.5714)" fill="#B9B8CE">15 °C</text>
<text dominant-baseline="central" text-anchor="start" style="font-size:12px;font-family:Microsoft YaHei;" xml:space="preserve" transform="translate(648 261.4286)" fill="#B9B8CE">20 °C</text>
<text dominant-baseline="central" text-anchor="start" style="font-size:12px;font-family:Microsoft YaHei;" xml:space="preserve" transform="translate(648 194.2857)" fill="#B9B8CE">25 °C</text>
<text dominant-baseline="central" text-anchor="start" style="font-size:12px;font-family:Microsoft YaHei;" xml:space="preserve" transform="translate(648 127.1429)" fill="#B9B8CE">30 °C</text>
<text dominant-baseline="central" text-anchor="start" style="font-size:12px;font-family:Microsoft YaHei;" xml:space="preserve" transform="translate(648 60)" fill="#B9B8CE">35 °C</text>
<text dominant-baseline="central" text-anchor="start" style="font-size:12px;font-family:Microsoft YaHei;" xml:space="preserve" transform="translate(728 530)" fill="#B9B8CE">0 hPa</text>
<text dominant-baseline="central" text-anchor="start" style="font-size:12px;font-family:Microsoft YaHei;" xml:space="preserve" transform="translate(728 436)" fill="#B9B8CE">20 hPa</text>
<text dominant-baseline="central" text-anchor="start" style="font-size:12px;font-family:Microsoft YaHei;" xml:space="preserve" transform="translate(728 342)" fill="#B9B8CE">40 hPa</text>
<text dominant-baseline="central" text-anchor="start" style="font-size:12px;font-family:Microsoft YaHei;" xml:space="preserve" transform="translate(728 248)" fill="#B9B8CE">60 hPa</text>
<text dominant-baseline="central" text-anchor="start" style="font-size:12px;font-family:Microsoft YaHei;" xml:space="preserve" transform="translate(728 154)" fill="#B9B8CE">80 hPa</text>
<text dominant-baseline="central" text-anchor="start" style="font-size:12px;font-family:Microsoft YaHei;" xml:space="preserve" transform="translate(728 60)" fill="#B9B8CE">100 hPa</text>
<text dominant-baseline="central" text-anchor="middle" style="font-size:12px;font-family:Microsoft YaHei;" y="6" transform="translate(82.6629 538)" fill="#B9B8CE">13:30:46</text>
<text dominant-baseline="central" text-anchor="middle" style="font-size:12px;font-family:Microsoft YaHei;" y="6" transform="translate(146.5729 538)" fill="#B9B8CE">13:30:59</text>
<text dominant-baseline="central" text-anchor="middle" style="font-size:12px;font-family:Microsoft YaHei;" y="6" transform="translate(210.4829 538)" fill="#B9B8CE">13:31:11</text>
<text dominant-baseline="central" text-anchor="middle" style="font-size:12px;font-family:Microsoft YaHei;" y="6" transform="translate(274.393 538)" fill="#B9B8CE">13:31:23</text>
<text dominant-baseline="central" text-anchor="middle" style="font-size:12px;font-family:Microsoft YaHei;" y="6" transform="translate(338.303 538)" fill="#B9B8CE">13:31:35</text>
<text dominant-baseline="central" text-anchor="middle" style="font-size:12px;font-family:Microsoft YaHei;" y="6" transform="translate(402.213 538)" fill="#B9B8CE">13:31:47</text>
<text dominant-baseline="central" text-anchor="middle" style="font-size:12px;font-family:Microsoft YaHei;" y="6" transform="translate(466.123 538)" fill="#B9B8CE">13:31:59</text>
<text dominant-baseline="central" text-anchor="middle" style="font-size:12px;font-family:Microsoft YaHei;" y="6" transform="translate(530.033 538)" fill="#B9B8CE">13:32:11</text>
<text dominant-baseline="central" text-anchor="middle" style="font-size:12px;font-family:Microsoft YaHei;" y="6" transform="translate(593.943 538)" fill="#B9B8CE">13:32:23</text>
<g clip-path="url(#zr0-c0)">
<path d="M82.6 530L87.9 530L93.2 530L98.5 530L103.8 530L109.1 530L114.3 530L119.6 530L124.9 530L130.2 530L135.5 530L140.8 530L146 530L151.3 530L156.6 530L161.9 530L167.2 530L172.5 530L177.7 530L183 530L188.3 530L193.6 530L198.9 530L204.2 530L209.4 530L214.7 530L220 530L225.3 530L230.6 530L235.8 530L241.1 530L246.4 530L251.7 530L257 530L262.3 530L267.5 530L272.8 530L278.1 530L283.4 530L288.7 530L294 530L299.2 530L304.5 530L309.8 530L315.1 530L320.4 530L325.7 530L330.9 530L336.2 530L341.5 530L346.8 530L352.1 530L357.4 530L362.6 530L367.9 530L373.2 530L378.5 530L383.8 530L389.1 530L394.3 530L399.6 530L404.9 530L410.2 530L415.5 530L420.8 530L426 530L431.3 530L436.6 530L441.9 179.5L447.2 180.9L452.5 180.9L457.7 179.5L463 179.5L468.3 180.9L473.6 179.5L478.9 179.5L484.2 179.5L489.4 180.9L494.7 179.5L500 179.5L505.3 179.5L510.6 180.9L515.8 179.5L521.1 180.9L526.4 179.5L531.7 179.5L537 179.5L542.3 180.9L547.5 179.5L552.8 179.5L558.1 179.5L563.4 179.5L568.7 179.5L574 179.5L579.2 179.5L584.5 179.5L589.8 179.5L595.1 179.5L600.4 179.5L605.7 179.5L610.9 179.5L616.2 179.5L621.5 179.5L626.8 180.9L632.1 179.5L637.4 179.5" fill="none" stroke="#FFAB91" stroke-width="2" stroke-linejoin="bevel"></path>
</g>
<g clip-path="url(#zr0-c1)">
<path d="M82.6 530L87.9 530L93.2 530L98.5 530L103.8 530L109.1 530L114.3 530L119.6 530L124.9 530L130.2 530L135.5 530L140.8 530L146 530L151.3 530L156.6 530L161.9 530L167.2 530L172.5 530L177.7 530L183 530L188.3 530L193.6 530L198.9 530L204.2 530L209.4 530L214.7 530L220 530L225.3 530L230.6 530L235.8 530L241.1 530L246.4 530L251.7 530L257 530L262.3 530L267.5 530L272.8 530L278.1 530L283.4 530L288.7 530L294 530L299.2 530L304.5 530L309.8 530L315.1 530L320.4 530L325.7 530L330.9 530L336.2 530L341.5 530L346.8 530L352.1 530L357.4 530L362.6 530L367.9 530L373.2 530L378.5 530L383.8 530L389.1 530L394.3 530L399.6 530L404.9 530L410.2 530L415.5 530L420.8 530L426 530L431.3 530L436.6 530L441.9 120.4L447.2 120.4L452.5 120.4L457.7 120.4L463 119.1L468.3 119.1L473.6 119.1L478.9 117.7L484.2 117.7L489.4 117.7L494.7 116.4L500 116.4L505.3 116.4L510.6 116.4L515.8 116.4L521.1 115.1L526.4 115.1L531.7 115.1L537 115.1L542.3 115.1L547.5 115.1L552.8 115.1L558.1 115.1L563.4 113.7L568.7 113.7L574 113.7L579.2 113.7L584.5 113.7L589.8 113.7L595.1 113.7L600.4 112.4L605.7 112.4L610.9 112.4L616.2 111L621.5 111L626.8 112.4L632.1 112.4L637.4 112.4" fill="none" stroke="#FFAB91" stroke-width="2" stroke-linejoin="bevel"></path>
</g>
<g clip-path="url(#zr0-c2)">
<path d="M82.6 530L87.9 530L93.2 530L98.5 530L103.8 530L109.1 530L114.3 530L119.6 530L124.9 530L130.2 530L135.5 530L140.8 530L146 530L151.3 530L156.6 530L161.9 530L167.2 530L172.5 530L177.7 530L183 530L188.3 530L193.6 530L198.9 530L204.2 530L209.4 530L214.7 530L220 530L225.3 530L230.6 530L235.8 530L241.1 530L246.4 530L251.7 530L257 530L262.3 530L267.5 530L272.8 530L278.1 530L283.4 530L288.7 530L294 530L299.2 530L304.5 530L309.8 530L315.1 530L320.4 530L325.7 530L330.9 530L336.2 530L341.5 530L346.8 530L352.1 530L357.4 530L362.6 530L367.9 530L373.2 530L378.5 530L383.8 530L389.1 530L394.3 530L399.6 530L404.9 530L410.2 530L415.5 530L420.8 530L426 530L431.3 530L436.6 530L441.9 528.1L447.2 528.1L452.5 528.1L457.7 527.7L463 527.7L468.3 527.7L473.6 527.7L478.9 527.7L484.2 516.8L489.4 507.4L494.7 492.4L500 421L505.3 363.1L510.6 324.6L515.8 294.5L521.1 256.9L526.4 211.3L531.7 183.1L537 226.4L542.3 271.5L547.5 227.8L552.8 186.9L558.1 169L563.4 148.8L568.7 177.5L574 201L579.2 222.1L584.5 259.8L589.8 276.7L595.1 293.1L600.4 308.2L605.7 222.6L610.9 176.6L616.2 177L621.5 134.7L626.8 109.8L632.1 100.4L637.4 94.8" fill="none" stroke="#f7f494" stroke-width="2" stroke-linejoin="bevel"></path>
</g>
<g clip-path="url(#zr0-c3)">
<path d="M82.6 530L87.9 530L93.2 530L98.5 530L103.8 530L109.1 530L114.3 530L119.6 530L124.9 530L130.2 530L135.5 530L140.8 530L146 530L151.3 530L156.6 530L161.9 530L167.2 530L172.5 530L177.7 530L183 530L188.3 530L193.6 530L198.9 530L204.2 530L209.4 530L214.7 530L220 530L225.3 530L230.6 530L235.8 530L241.1 530L246.4 530L251.7 530L257 530L262.3 530L267.5 530L272.8 530L278.1 530L283.4 530L288.7 530L294 530L299.2 530L304.5 530L309.8 530L315.1 530L320.4 530L325.7 530L330.9 530L336.2 530L341.5 530L346.8 530L352.1 530L357.4 530L362.6 530L367.9 530L373.2 530L378.5 530L383.8 530L389.1 530L394.3 530L399.6 530L404.9 530L410.2 530L415.5 530L420.8 530L426 530L431.3 530L436.6 530L441.9 530L447.2 530L452.5 530L457.7 530L463 530L468.3 530L473.6 530L478.9 530L484.2 530L489.4 530L494.7 530L500 530L505.3 530L510.6 530L515.8 530L521.1 530L526.4 530L531.7 530L537 530L542.3 530L547.5 530L552.8 530L558.1 530L563.4 530L568.7 530L574 530L579.2 530L584.5 530L589.8 530L595.1 530L600.4 60L605.7 60L610.9 60L616.2 60L621.5 60L626.8 60L632.1 60L637.4 60" fill="none" stroke="#f7f494" stroke-width="2" stroke-linejoin="bevel"></path>
</g>
<path d="M0 -1L1 1L-1 1Z" transform="matrix(5,0,0,5,82.6415,530)" fill="#FFAB91"></path>
<path d="M0 -1L1 1L-1 1Z" transform="matrix(5,0,0,5,146.0377,530)" fill="#FFAB91"></path>
<path d="M0 -1L1 1L-1 1Z" transform="matrix(5,0,0,5,209.434,530)" fill="#FFAB91"></path>
<path d="M0 -1L1 1L-1 1Z" transform="matrix(5,0,0,5,272.8302,530)" fill="#FFAB91"></path>
<path d="M0 -1L1 1L-1 1Z" transform="matrix(5,0,0,5,336.2264,530)" fill="#FFAB91"></path>
<path d="M0 -1L1 1L-1 1Z" transform="matrix(5,0,0,5,399.6227,530)" fill="#FFAB91"></path>
<path d="M0 -1L1 1L-1 1Z" transform="matrix(5,0,0,5,463.0189,179.5143)" fill="#FFAB91"></path>
<path d="M0 -1L1 1L-1 1Z" transform="matrix(5,0,0,5,526.4151,179.5143)" fill="#FFAB91"></path>
<path d="M0 -1L1 1L-1 1Z" transform="matrix(5,0,0,5,589.8113,179.5143)" fill="#FFAB91"></path>
<path d="M1 0A1 1 0 1 1 1 -0.0001" transform="matrix(5,0,0,5,82.6415,530)" fill="#FFAB91"></path>
<path d="M1 0A1 1 0 1 1 1 -0.0001" transform="matrix(5,0,0,5,146.0377,530)" fill="#FFAB91"></path>
<path d="M1 0A1 1 0 1 1 1 -0.0001" transform="matrix(5,0,0,5,209.434,530)" fill="#FFAB91"></path>
<path d="M1 0A1 1 0 1 1 1 -0.0001" transform="matrix(5,0,0,5,272.8302,530)" fill="#FFAB91"></path>
<path d="M1 0A1 1 0 1 1 1 -0.0001" transform="matrix(5,0,0,5,336.2264,530)" fill="#FFAB91"></path>
<path d="M1 0A1 1 0 1 1 1 -0.0001" transform="matrix(5,0,0,5,399.6227,530)" fill="#FFAB91"></path>
<path d="M1 0A1 1 0 1 1 1 -0.0001" transform="matrix(5,0,0,5,463.0189,119.0857)" fill="#FFAB91"></path>
<path d="M1 0A1 1 0 1 1 1 -0.0001" transform="matrix(5,0,0,5,526.4151,115.0571)" fill="#FFAB91"></path>
<path d="M1 0A1 1 0 1 1 1 -0.0001" transform="matrix(5,0,0,5,589.8113,113.7143)" fill="#FFAB91"></path>
<path d="M0 -1L1 1L-1 1Z" transform="matrix(5,0,0,5,82.6415,530)" fill="#f7f494"></path>
<path d="M0 -1L1 1L-1 1Z" transform="matrix(5,0,0,5,146.0377,530)" fill="#f7f494"></path>
<path d="M0 -1L1 1L-1 1Z" transform="matrix(5,0,0,5,209.434,530)" fill="#f7f494"></path>
<path d="M0 -1L1 1L-1 1Z" transform="matrix(5,0,0,5,272.8302,530)" fill="#f7f494"></path>
<path d="M0 -1L1 1L-1 1Z" transform="matrix(5,0,0,5,336.2264,530)" fill="#f7f494"></path>
<path d="M0 -1L1 1L-1 1Z" transform="matrix(5,0,0,5,399.6227,530)" fill="#f7f494"></path>
<path d="M0 -1L1 1L-1 1Z" transform="matrix(5,0,0,5,463.0189,527.65)" fill="#f7f494"></path>
<path d="M0 -1L1 1L-1 1Z" transform="matrix(5,0,0,5,526.4151,211.34)" fill="#f7f494"></path>
<path d="M0 -1L1 1L-1 1Z" transform="matrix(5,0,0,5,589.8113,276.67)" fill="#f7f494"></path>
<path d="M1 0A1 1 0 1 1 1 -0.0001" transform="matrix(5,0,0,5,82.6415,530)" fill="#f7f494"></path>
<path d="M1 0A1 1 0 1 1 1 -0.0001" transform="matrix(5,0,0,5,146.0377,530)" fill="#f7f494"></path>
<path d="M1 0A1 1 0 1 1 1 -0.0001" transform="matrix(5,0,0,5,209.434,530)" fill="#f7f494"></path>
<path d="M1 0A1 1 0 1 1 1 -0.0001" transform="matrix(5,0,0,5,272.8302,530)" fill="#f7f494"></path>
<path d="M1 0A1 1 0 1 1 1 -0.0001" transform="matrix(5,0,0,5,336.2264,530)" fill="#f7f494"></path>
<path d="M1 0A1 1 0 1 1 1 -0.0001" transform="matrix(5,0,0,5,399.6227,530)" fill="#f7f494"></path>
<path d="M1 0A1 1 0 1 1 1 -0.0001" transform="matrix(5,0,0,5,463.0189,530)" fill="#f7f494"></path>
<path d="M1 0A1 1 0 1 1 1 -0.0001" transform="matrix(5,0,0,5,526.4151,530)" fill="#f7f494"></path>
<path d="M1 0A1 1 0 1 1 1 -0.0001" transform="matrix(5,0,0,5,589.8113,530)" fill="#f7f494"></path>
<path d="M0 0l560 0l0 30l-560 0Z" transform="matrix(1,0,0,-1,82.8,592.5)" fill="rgb(47,69,84)" fill-opacity="0"></path>
<g clip-path="url(#zr0-c4)">
<polygon points="560 0 0 0 0 5.6 5.3 5.6 10.7 5.6 16 5.6 21.3 5.6 26.7 5.6 32 5.6 37.3 5.6 42.7 5.6 48 5.6 53.3 5.6 58.7 5.6 64 5.6 69.3 5.6 74.7 5.6 80 5.6 85.3 5.6 90.7 5.6 96 5.6 101.3 5.6 106.7 5.6 112 5.6 117.3 5.6 122.7 5.6 128 5.6 133.3 5.6 138.7 5.6 144 5.6 149.3 5.6 154.7 5.6 160 5.6 165.3 5.6 170.7 5.6 176 5.6 181.3 5.6 186.7 5.6 192 5.6 197.3 5.6 202.7 5.6 208 5.6 213.3 5.6 218.7 5.6 224 5.6 229.3 5.6 234.7 5.6 240 5.6 245.3 5.6 250.7 5.6 256 5.6 261.3 5.6 266.7 5.6 272 5.6 277.3 5.6 282.7 5.6 288 5.6 293.3 5.6 298.7 5.6 304 5.6 309.3 5.6 314.7 5.6 320 5.6 325.3 5.6 330.7 5.6 336 5.6 341.3 5.6 346.7 5.6 352 5.6 357.3 5.6 362.7 24.4 368 24.3 373.3 24.3 378.7 24.4 384 24.4 389.3 24.3 394.7 24.4 400 24.4 405.3 24.4 410.7 24.3 416 24.4 421.3 24.4 426.7 24.4 432 24.3 437.3 24.4 442.7 24.3 448 24.4 453.3 24.4 458.7 24.4 464 24.3 469.3 24.4 474.7 24.4 480 24.4 485.3 24.4 490.7 24.4 496 24.4 501.3 24.4 506.7 24.4 512 24.4 517.3 24.4 522.7 24.4 528 24.4 533.3 24.4 538.7 24.4 544 24.4 549.3 24.3 554.7 24.4 560 24.4" transform="matrix(1,0,0,-1,82.8,592.5)" fill="#71708A" fill-opacity="0.2"></polygon>
</g>
<g clip-path="url(#zr0-c5)">
<polygon points="560 0 0 0 0 5.6 5.3 5.6 10.7 5.6 16 5.6 21.3 5.6 26.7 5.6 32 5.6 37.3 5.6 42.7 5.6 48 5.6 53.3 5.6 58.7 5.6 64 5.6 69.3 5.6 74.7 5.6 80 5.6 85.3 5.6 90.7 5.6 96 5.6 101.3 5.6 106.7 5.6 112 5.6 117.3 5.6 122.7 5.6 128 5.6 133.3 5.6 138.7 5.6 144 5.6 149.3 5.6 154.7 5.6 160 5.6 165.3 5.6 170.7 5.6 176 5.6 181.3 5.6 186.7 5.6 192 5.6 197.3 5.6 202.7 5.6 208 5.6 213.3 5.6 218.7 5.6 224 5.6 229.3 5.6 234.7 5.6 240 5.6 245.3 5.6 250.7 5.6 256 5.6 261.3 5.6 266.7 5.6 272 5.6 277.3 5.6 282.7 5.6 288 5.6 293.3 5.6 298.7 5.6 304 5.6 309.3 5.6 314.7 5.6 320 5.6 325.3 5.6 330.7 5.6 336 5.6 341.3 5.6 346.7 5.6 352 5.6 357.3 5.6 362.7 24.4 368 24.3 373.3 24.3 378.7 24.4 384 24.4 389.3 24.3 394.7 24.4 400 24.4 405.3 24.4 410.7 24.3 416 24.4 421.3 24.4 426.7 24.4 432 24.3 437.3 24.4 442.7 24.3 448 24.4 453.3 24.4 458.7 24.4 464 24.3 469.3 24.4 474.7 24.4 480 24.4 485.3 24.4 490.7 24.4 496 24.4 501.3 24.4 506.7 24.4 512 24.4 517.3 24.4 522.7 24.4 528 24.4 533.3 24.4 538.7 24.4 544 24.4 549.3 24.3 554.7 24.4 560 24.4" transform="matrix(1,0,0,-1,82.8,592.5)" fill="#87A3CE" fill-opacity="0.2"></polygon>
</g>
<g clip-path="url(#zr0-c6)">
<polygon points="560 0 0 0 0 5.6 5.3 5.6 10.7 5.6 16 5.6 21.3 5.6 26.7 5.6 32 5.6 37.3 5.6 42.7 5.6 48 5.6 53.3 5.6 58.7 5.6 64 5.6 69.3 5.6 74.7 5.6 80 5.6 85.3 5.6 90.7 5.6 96 5.6 101.3 5.6 106.7 5.6 112 5.6 117.3 5.6 122.7 5.6 128 5.6 133.3 5.6 138.7 5.6 144 5.6 149.3 5.6 154.7 5.6 160 5.6 165.3 5.6 170.7 5.6 176 5.6 181.3 5.6 186.7 5.6 192 5.6 197.3 5.6 202.7 5.6 208 5.6 213.3 5.6 218.7 5.6 224 5.6 229.3 5.6 234.7 5.6 240 5.6 245.3 5.6 250.7 5.6 256 5.6 261.3 5.6 266.7 5.6 272 5.6 277.3 5.6 282.7 5.6 288 5.6 293.3 5.6 298.7 5.6 304 5.6 309.3 5.6 314.7 5.6 320 5.6 325.3 5.6 330.7 5.6 336 5.6 341.3 5.6 346.7 5.6 352 5.6 357.3 5.6 362.7 24.4 368 24.3 373.3 24.3 378.7 24.4 384 24.4 389.3 24.3 394.7 24.4 400 24.4 405.3 24.4 410.7 24.3 416 24.4 421.3 24.4 426.7 24.4 432 24.3 437.3 24.4 442.7 24.3 448 24.4 453.3 24.4 458.7 24.4 464 24.3 469.3 24.4 474.7 24.4 480 24.4 485.3 24.4 490.7 24.4 496 24.4 501.3 24.4 506.7 24.4 512 24.4 517.3 24.4 522.7 24.4 528 24.4 533.3 24.4 538.7 24.4 544 24.4 549.3 24.3 554.7 24.4 560 24.4" transform="matrix(1,0,0,-1,82.8,592.5)" fill="#71708A" fill-opacity="0.2"></polygon>
</g>
<g clip-path="url(#zr0-c4)">
<polyline points="0 5.6 5.3 5.6 10.7 5.6 16 5.6 21.3 5.6 26.7 5.6 32 5.6 37.3 5.6 42.7 5.6 48 5.6 53.3 5.6 58.7 5.6 64 5.6 69.3 5.6 74.7 5.6 80 5.6 85.3 5.6 90.7 5.6 96 5.6 101.3 5.6 106.7 5.6 112 5.6 117.3 5.6 122.7 5.6 128 5.6 133.3 5.6 138.7 5.6 144 5.6 149.3 5.6 154.7 5.6 160 5.6 165.3 5.6 170.7 5.6 176 5.6 181.3 5.6 186.7 5.6 192 5.6 197.3 5.6 202.7 5.6 208 5.6 213.3 5.6 218.7 5.6 224 5.6 229.3 5.6 234.7 5.6 240 5.6 245.3 5.6 250.7 5.6 256 5.6 261.3 5.6 266.7 5.6 272 5.6 277.3 5.6 282.7 5.6 288 5.6 293.3 5.6 298.7 5.6 304 5.6 309.3 5.6 314.7 5.6 320 5.6 325.3 5.6 330.7 5.6 336 5.6 341.3 5.6 346.7 5.6 352 5.6 357.3 5.6 362.7 24.4 368 24.3 373.3 24.3 378.7 24.4 384 24.4 389.3 24.3 394.7 24.4 400 24.4 405.3 24.4 410.7 24.3 416 24.4 421.3 24.4 426.7 24.4 432 24.3 437.3 24.4 442.7 24.3 448 24.4 453.3 24.4 458.7 24.4 464 24.3 469.3 24.4 474.7 24.4 480 24.4 485.3 24.4 490.7 24.4 496 24.4 501.3 24.4 506.7 24.4 512 24.4 517.3 24.4 522.7 24.4 528 24.4 533.3 24.4 538.7 24.4 544 24.4 549.3 24.3 554.7 24.4 560 24.4" transform="matrix(1,0,0,-1,82.8,592.5)" fill="none" stroke="#71708A"></polyline>
</g>
<g clip-path="url(#zr0-c5)">
<polyline points="0 5.6 5.3 5.6 10.7 5.6 16 5.6 21.3 5.6 26.7 5.6 32 5.6 37.3 5.6 42.7 5.6 48 5.6 53.3 5.6 58.7 5.6 64 5.6 69.3 5.6 74.7 5.6 80 5.6 85.3 5.6 90.7 5.6 96 5.6 101.3 5.6 106.7 5.6 112 5.6 117.3 5.6 122.7 5.6 128 5.6 133.3 5.6 138.7 5.6 144 5.6 149.3 5.6 154.7 5.6 160 5.6 165.3 5.6 170.7 5.6 176 5.6 181.3 5.6 186.7 5.6 192 5.6 197.3 5.6 202.7 5.6 208 5.6 213.3 5.6 218.7 5.6 224 5.6 229.3 5.6 234.7 5.6 240 5.6 245.3 5.6 250.7 5.6 256 5.6 261.3 5.6 266.7 5.6 272 5.6 277.3 5.6 282.7 5.6 288 5.6 293.3 5.6 298.7 5.6 304 5.6 309.3 5.6 314.7 5.6 320 5.6 325.3 5.6 330.7 5.6 336 5.6 341.3 5.6 346.7 5.6 352 5.6 357.3 5.6 362.7 24.4 368 24.3 373.3 24.3 378.7 24.4 384 24.4 389.3 24.3 394.7 24.4 400 24.4 405.3 24.4 410.7 24.3 416 24.4 421.3 24.4 426.7 24.4 432 24.3 437.3 24.4 442.7 24.3 448 24.4 453.3 24.4 458.7 24.4 464 24.3 469.3 24.4 474.7 24.4 480 24.4 485.3 24.4 490.7 24.4 496 24.4 501.3 24.4 506.7 24.4 512 24.4 517.3 24.4 522.7 24.4 528 24.4 533.3 24.4 538.7 24.4 544 24.4 549.3 24.3 554.7 24.4 560 24.4" transform="matrix(1,0,0,-1,82.8,592.5)" fill="none" stroke="#87A3CE" stroke-width="0.5"></polyline>
</g>
<g clip-path="url(#zr0-c6)">
<polyline points="0 5.6 5.3 5.6 10.7 5.6 16 5.6 21.3 5.6 26.7 5.6 32 5.6 37.3 5.6 42.7 5.6 48 5.6 53.3 5.6 58.7 5.6 64 5.6 69.3 5.6 74.7 5.6 80 5.6 85.3 5.6 90.7 5.6 96 5.6 101.3 5.6 106.7 5.6 112 5.6 117.3 5.6 122.7 5.6 128 5.6 133.3 5.6 138.7 5.6 144 5.6 149.3 5.6 154.7 5.6 160 5.6 165.3 5.6 170.7 5.6 176 5.6 181.3 5.6 186.7 5.6 192 5.6 197.3 5.6 202.7 5.6 208 5.6 213.3 5.6 218.7 5.6 224 5.6 229.3 5.6 234.7 5.6 240 5.6 245.3 5.6 250.7 5.6 256 5.6 261.3 5.6 266.7 5.6 272 5.6 277.3 5.6 282.7 5.6 288 5.6 293.3 5.6 298.7 5.6 304 5.6 309.3 5.6 314.7 5.6 320 5.6 325.3 5.6 330.7 5.6 336 5.6 341.3 5.6 346.7 5.6 352 5.6 357.3 5.6 362.7 24.4 368 24.3 373.3 24.3 378.7 24.4 384 24.4 389.3 24.3 394.7 24.4 400 24.4 405.3 24.4 410.7 24.3 416 24.4 421.3 24.4 426.7 24.4 432 24.3 437.3 24.4 442.7 24.3 448 24.4 453.3 24.4 458.7 24.4 464 24.3 469.3 24.4 474.7 24.4 480 24.4 485.3 24.4 490.7 24.4 496 24.4 501.3 24.4 506.7 24.4 512 24.4 517.3 24.4 522.7 24.4 528 24.4 533.3 24.4 538.7 24.4 544 24.4 549.3 24.3 554.7 24.4 560 24.4" transform="matrix(1,0,0,-1,82.8,592.5)" fill="none" stroke="#71708A"></polyline>
</g>
<path d="M-5 -5l691.0547 0l0 22l-691.0547 0Z" transform="translate(59.4727 5)" fill="rgb(0,0,0)" fill-opacity="0" stroke="#ccc" stroke-width="0"></path>
<path d="M0 7L25 7" transform="translate(60.4727 4)" fill="#000" stroke="#ccc" stroke-width="2" stroke-linecap="butt" stroke-miterlimit="10"></path>
<path d="M12.5 1.4L18.1 12.6L6.9 12.6Z" transform="translate(60.4727 4)" fill="#ccc" stroke="#ccc" stroke-width="0" stroke-linecap="butt" stroke-miterlimit="10"></path>
<text dominant-baseline="central" text-anchor="start" style="font-size:12px;font-family:Microsoft YaHei;" x="30" y="7" transform="translate(60.4727 4)" fill="#ccc">Pipe_Pres</text>
<path d="M0 7L25 7" transform="translate(156.1465 4)" fill="#000" stroke="#ccc" stroke-width="2" stroke-linecap="butt" stroke-miterlimit="10"></path>
<path d="M18.1 7A5.6 5.6 0 1 1 18.1 6.9994" transform="translate(156.1465 4)" fill="#ccc" stroke="#ccc" stroke-width="0" stroke-linecap="butt" stroke-miterlimit="10"></path>
<text dominant-baseline="central" text-anchor="start" style="font-size:12px;font-family:Microsoft YaHei;" x="30" y="7" transform="translate(156.1465 4)" fill="#ccc">Ambient_Pres</text>
<path d="M0 7L25 7" transform="translate(276.0313 4)" fill="#000" stroke="#FFAB91" stroke-width="2" stroke-linecap="butt" stroke-miterlimit="10"></path>
<path d="M12.5 1.4L18.1 12.6L6.9 12.6Z" transform="translate(276.0313 4)" fill="#FFAB91"></path>
<text dominant-baseline="central" text-anchor="start" style="font-size:12px;font-family:Microsoft YaHei;" x="30" y="7" transform="translate(276.0313 4)" fill="#B9B8CE">Pipe_Temp</text>
<path d="M0 7L25 7" transform="translate(380.0137 4)" fill="#000" stroke="#FFAB91" stroke-width="2" stroke-linecap="butt" stroke-miterlimit="10"></path>
<path d="M18.1 7A5.6 5.6 0 1 1 18.1 6.9994" transform="translate(380.0137 4)" fill="#FFAB91"></path>
<text dominant-baseline="central" text-anchor="start" style="font-size:12px;font-family:Microsoft YaHei;" x="30" y="7" transform="translate(380.0137 4)" fill="#B9B8CE">Chip_Temp</text>
<path d="M0 7L25 7" transform="translate(485.2617 4)" fill="#000" stroke="#f7f494" stroke-width="2" stroke-linecap="butt" stroke-miterlimit="10"></path>
<path d="M18.1 7A5.6 5.6 0 1 1 18.1 6.9994" transform="translate(485.2617 4)" fill="#f7f494"></path>
<text dominant-baseline="central" text-anchor="start" style="font-size:12px;font-family:Microsoft YaHei;" x="30" y="7" transform="translate(485.2617 4)" fill="#B9B8CE">Set_nPressure</text>
<path d="M0 7L25 7" transform="translate(605.8672 4)" fill="#000" stroke="#f7f494" stroke-width="2" stroke-linecap="butt" stroke-miterlimit="10"></path>
<path d="M12.5 1.4L18.1 12.6L6.9 12.6Z" transform="translate(605.8672 4)" fill="#f7f494"></path>
<text dominant-baseline="central" text-anchor="start" style="font-size:12px;font-family:Microsoft YaHei;" x="30" y="7" transform="translate(605.8672 4)" fill="#B9B8CE">Current_nPressure</text>
<path d="M0 0l560 0l0 30l-560 0Z" transform="matrix(1,0,0,-1,82.8,592.5)" fill="none"></path>
<path d="M0 0l560 0l0 30l-560 0Z" transform="matrix(1,0,0,-1,82.8,592.5)" fill="rgb(135,163,206)" fill-opacity="0.2"></path>
<path d="M3.5 0.5L556.5 0.5A3 3 0 0 1 559.5 3.5L559.5 26.5A3 3 0 0 1 556.5 29.5L3.5 29.5A3 3 0 0 1 0.5 26.5L0.5 3.5A3 3 0 0 1 3.5 0.5" transform="matrix(1,0,0,-1,82.8,592.5)" fill="rgb(0,0,0)" fill-opacity="0" stroke="#71708A"></path>
<path d="M0 29.5L560 29.5L560 34.5A2 2 0 0 1 558 36.5L2 36.5A2 2 0 0 1 0 34.5L0 29.5" transform="matrix(1,0,0,-1,82.8,592.5)" fill="#B0B6C3" fill-opacity="0.3"></path>
<path d="M-2.2408 -1.6796C-1.8674 -1.6796 -1.6817 -1.4939 -1.6817 -1.1204L-1.6817 1.1204C-1.6817 1.4939 -1.8674 1.6796 -2.2408 1.6796C-2.6143 1.6796 -2.8 1.4939 -2.8 1.1204L-2.8 -1.1204C-2.8 -1.4939 -2.6143 -1.6796 -2.2408 -1.6796ZM0 -1.6796C0.3735 -1.6796 0.5592 -1.4939 0.5592 -1.1204L0.5592 1.1204C0.5592 1.4939 0.3735 1.6796 0 1.6796C-0.3735 1.6796 -0.5592 1.4939 -0.5592 1.1204L-0.5592 -1.1204C-0.5592 -1.4939 -0.3735 -1.6796 0 -1.6796ZM2.2408 -1.6796C2.6143 -1.6796 2.8 -1.4939 2.8 -1.1204L2.8 1.1204C2.8 1.4939 2.6143 1.6796 2.2408 1.6796C1.8674 1.6796 1.6817 1.4939 1.6817 1.1204L1.6817 -1.1204C1.6796 -1.4939 1.8674 -1.6796 2.2408 -1.6796Z" transform="matrix(1,0,0,-1,362.8,559.5)" fill="#fff"></path>
<path d="M0 1.628L0 2M0 0L0 0.375M-0.1 0.375L0.1 0.375A0.1 0.1 0 0 1 0.2 0.475L0.2 1.525A0.1 0.1 0 0 1 0.1 1.625L-0.1 1.625A0.1 0.1 0 0 1 -0.2 1.525L-0.2 0.475A0.1 0.1 0 0 1 -0.1 0.375Z" transform="matrix(15,0,0,-15,83.8,592.5)" fill="#353450" stroke="#C5CBE3" stroke-width="0.06666666666666667"></path>
<path d="M0 1.628L0 2M0 0L0 0.375M-0.1 0.375L0.1 0.375A0.1 0.1 0 0 1 0.2 0.475L0.2 1.525A0.1 0.1 0 0 1 0.1 1.625L-0.1 1.625A0.1 0.1 0 0 1 -0.2 1.525L-0.2 0.475A0.1 0.1 0 0 1 -0.1 0.375Z" transform="matrix(15,0,0,-15,641.8,592.5)" fill="#353450" stroke="#C5CBE3" stroke-width="0.06666666666666667"></path>
<defs >
<clipPath id="zr0-c0">
<path d="M79 59l562 0l0 472l-562 0Z" fill="#000"></path>
</clipPath>
<clipPath id="zr0-c1">
<path d="M79 59l562 0l0 472l-562 0Z" fill="#000"></path>
</clipPath>
<clipPath id="zr0-c2">
<path d="M79 59l562 0l0 472l-562 0Z" fill="#000"></path>
</clipPath>
<clipPath id="zr0-c3">
<path d="M79 59l562 0l0 472l-562 0Z" fill="#000"></path>
</clipPath>
<clipPath id="zr0-c4">
<path d="M0 0l0 0l0 30l0 0Z" transform="matrix(1,0,0,-1,82.8,592.5)" fill="#000"></path>
</clipPath>
<clipPath id="zr0-c5">
<path d="M0 0l560 0l0 30l-560 0Z" transform="matrix(1,0,0,-1,82.8,592.5)" fill="#000"></path>
</clipPath>
<clipPath id="zr0-c6">
<path d="M560 0l0 0l0 30l0 0Z" transform="matrix(1,0,0,-1,82.8,592.5)" fill="#000"></path>
</clipPath>
</defs>
</svg>