<svg width="800" height="600" xmlns="http://www.w3.org/2000/svg" xmlns:xlink="http://www.w3.org/1999/xlink" version="1.1" baseProfile="full" viewBox="0 0 800 600">
<rect width="800" height="600" x="0" y="0" id="0" fill="rgb(40, 44, 52)" fill-opacity="1"></rect>
<path d="M80 530.5L640 530.5" fill="none" stroke="#484753"></path>
<path d="M80 451.5L640 451.5" fill="none" stroke="#484753"></path>
<path d="M80 373.5L640 373.5" fill="none" stroke="#484753"></path>
<path d="M80 295.5L640 295.5" fill="none" stroke="#484753"></path>
<path d="M80 216.5L640 216.5" fill="none" stroke="#484753"></path>
<path d="M80 138.5L640 138.5" fill="none" stroke="#484753"></path>
<path d="M80 60.5L640 60.5" fill="none" stroke="#484753"></path>
<path d="M80.5 530L80.5 60" fill="none" stroke="#ACDFED" stroke-linecap="round"></path>
<text dominant-baseline="central" text-anchor="middle" style="font-size:12px;font-family:Microsoft YaHei;" y="-6" transform="translate(80 45)" fill="#B9B8CE">压力</text>
<path d="M640.5 530L640.5 60" fill="none" stroke="#FFAB91" stroke-linecap="round"></path>
<text dominant-baseline="central" text-anchor="middle" style="font-size:12px;font-family:Microsoft YaHei;" y="-6" transform="translate(640 45)" fill="#B9B8CE">温度</text>
<path d="M720.5 530L720.5 60" fill="none" stroke="#f7f494" stroke-linecap="round"></path>
<text dominant-baseline="central" text-anchor="middle" style="font-size:12px;font-family:Microsoft YaHei;" y="-6" transform="translate(720 45)" fill="#B9B8CE">负压</text>
<path d="M80 530.5L640 530.5" fill="none" stroke="#B9B8CE" stroke-linecap="round"></path>
<path d="M82.5 530L82.5 535" fill="none" stroke="#B9B8CE"></path>
<path d="M147.5 530L147.5 535" fill="none" stroke="#B9B8CE"></path>
<path d="M212.5 530L212.5 535" fill="none" stroke="#B9B8CE"></path>
<path d="M276.5 530L276.5 535" fill="none" stroke="#B9B8CE"></path>
<path d="M341.5 530L341.5 535" fill="none" stroke="#B9B8CE"></path>
<path d="M406.5 530L406.5 535" fill="none" stroke="#B9B8CE"></path>
<path d="M471.5 530L471.5 535" fill="none" stroke="#B9B8CE"></path>
<path d="M536.5 530L536.5 535" fill="none" stroke="#B9B8CE"></path>
<path d="M600.5 530L600.5 535" fill="none" stroke="#B9B8CE"></path>
<text dominant-baseline="central" text-anchor="start" style="font-size:12px;font-family:Microsoft YaHei;" xml:space="preserve" transform="translate(728 530)" fill="#B9B8CE">0 hPa</text>
<text dominant-baseline="central" text-anchor="start" style="font-size:12px;font-family:Microsoft YaHei;" xml:space="preserve" transform="translate(728 451.6667)" fill="#B9B8CE">50 hPa</text>
<text dominant-baseline="central" text-anchor="start" style="font-size:12px;font-family:Microsoft YaHei;" xml:space="preserve" transform="translate(728 373.3333)" fill="#B9B8CE">100 hPa</text>
<text dominant-baseline="central" text-anchor="start" style="font-size:12px;font-family:Microsoft YaHei;" xml:space="preserve" transform="translate(728 295)" fill="#B9B8CE">150 hPa</text>
<text dominant-baseline="central" text-anchor="start" style="font-size:12px;font-family:Microsoft YaHei;" xml:space="preserve" transform="translate(728 216.6667)" fill="#B9B8CE">200 hPa</text>
<text dominant-baseline="central" text-anchor="start" style="font-size:12px;font-family:Microsoft YaHei;" xml:space="preserve" transform="translate(728 138.3333)" fill="#B9B8CE">250 hPa</text>
<text dominant-baseline="central" text-anchor="start" style="font-size:12px;font-family:Microsoft YaHei;" xml:space="preserve" transform="translate(728 60)" fill="#B9B8CE">300 hPa</text>
<text dominant-baseline="central" text-anchor="middle" style="font-size:12px;font-family:Microsoft YaHei;" y="6" transform="translate(82.314 538)" fill="#B9B8CE">18:34:40</text>
<text dominant-baseline="central" text-anchor="middle" style="font-size:12px;font-family:Microsoft YaHei;" y="6" transform="translate(147.1074 538)" fill="#B9B8CE">18:34:54</text>
<text dominant-baseline="central" text-anchor="middle" style="font-size:12px;font-family:Microsoft YaHei;" y="6" transform="translate(211.9008 538)" fill="#B9B8CE">18:35:08</text>
<text dominant-baseline="central" text-anchor="middle" style="font-size:12px;font-family:Microsoft YaHei;" y="6" transform="translate(276.6942 538)" fill="#B9B8CE">18:35:22</text>
<text dominant-baseline="central" text-anchor="middle" style="font-size:12px;font-family:Microsoft YaHei;" y="6" transform="translate(341.4876 538)" fill="#B9B8CE">18:35:36</text>
<text dominant-baseline="central" text-anchor="middle" style="font-size:12px;font-family:Microsoft YaHei;" y="6" transform="translate(406.281 538)" fill="#B9B8CE">18:35:50</text>
<text dominant-baseline="central" text-anchor="middle" style="font-size:12px;font-family:Microsoft YaHei;" y="6" transform="translate(471.0744 538)" fill="#B9B8CE">18:36:04</text>
<text dominant-baseline="central" text-anchor="middle" style="font-size:12px;font-family:Microsoft YaHei;" y="6" transform="translate(535.8678 538)" fill="#B9B8CE">18:36:18</text>
<text dominant-baseline="central" text-anchor="middle" style="font-size:12px;font-family:Microsoft YaHei;" y="6" transform="translate(600.6612 538)" fill="#B9B8CE">18:36:32</text>
<g clip-path="url(#zr0-c0)">
<path d="M82.314 230.9233L86.9421 232.3333L91.5703 223.2467L96.1983 217.6067L100.8264 224.8133L105.4545 211.0267L110.0826 216.8233L114.7107 208.8333L119.3388 205.7L123.9669 203.1933L128.595 200.6867L133.2231 201.47L137.8512 198.0233L142.4793 193.1667L147.1074 193.7933L151.7355 190.3467L156.3636 188.31L160.9917 184.8633L165.6198 184.7067L170.2479 181.1033L174.876 177.6567L179.5041 175.62L184.1322 171.0767L188.7603 179.38L193.3884 172.0167L198.0165 172.9567L202.6446 169.04L207.2727 163.0867L211.9008 166.3767L216.5289 164.9667L221.157 159.9533L225.7851 156.6633L230.4132 164.1833L235.0413 151.65L239.6694 159.7967L244.2975 155.2533L248.9256 148.6733L253.5537 150.5533L258.1818 150.24L262.8099 147.89L267.438 145.8533L272.0661 143.66L276.6942 141.31L281.3223 145.8533L285.9504 140.2133L290.5785 144.6L295.2066 137.55L299.8347 133.32L304.4628 141.9367L309.0909 129.8733L313.719 138.3333L318.3471 133.0067L322.9752 126.74L327.6033 129.2467L332.2314 124.39L336.8595 132.85L341.4876 125.6433L346.1157 127.3667L350.7438 124.39L355.3719 123.2933L360 120.9433L364.6281 121.2567L369.2562 115.93L373.8843 122.51L378.5124 119.3767L383.1405 121.2567L387.7686 115.6167L392.3967 110.6033L397.0248 119.69L401.6529 109.1933L406.281 116.4L410.9091 109.9767L415.5372 108.0967L420.1653 108.2533L424.7934 107.7833L429.4215 108.2533L434.0496 108.0967L438.6777 126.5833L443.3058 139.2733L447.9339 151.18L452.562 162.46L457.1901 183.7667L461.8182 193.7933L466.4463 203.5067L471.0744 213.0633L475.7025 231.55L480.3306 240.6367L484.9587 249.41L489.5868 258.1833L494.2149 275.1033L498.843 283.25L503.4711 291.24L508.0992 291.71L512.7273 265.2333L517.3553 269.62L521.9835 256.6167L526.6116 248.3133L531.2397 241.7333L535.8678 237.3467L540.4958 228.5733L545.124 232.8033L549.7521 215.57L554.3802 220.4267L559.0082 211.81L563.6364 208.8333L568.2645 206.3267L572.8926 198.3367L577.5207 190.9733L582.1487 196.4567L586.7769 184.7067L591.405 185.3333L596.0331 180.79L600.6611 177.6567L605.2892 173.27L609.9174 180.4767L614.5455 192.6967L619.1736 204.4467L623.8016 225.5967L628.4297 235.4667L633.0579 238.6L637.686 226.0667" fill="none" stroke="#f7f494" stroke-width="2" stroke-linejoin="bevel"></path>
</g>
<g clip-path="url(#zr0-c1)">
<path d="M82.314 216.6667L86.9421 216.6667L91.5703 216.6667L96.1983 216.6667L100.8264 216.6667L105.4545 216.6667L110.0826 216.6667L114.7107 216.6667L119.3388 216.6667L123.9669 216.6667L128.595 216.6667L133.2231 216.6667L137.8512 216.6667L142.4793 216.6667L147.1074 216.6667L151.7355 216.6667L156.3636 216.6667L160.9917 216.6667L165.6198 216.6667L170.2479 216.6667L174.876 216.6667L179.5041 216.6667L184.1322 216.6667L188.7603 216.6667L193.3884 216.6667L198.0165 216.6667L202.6446 216.6667L207.2727 216.6667L211.9008 216.6667L216.5289 216.6667L221.157 216.6667L225.7851 216.6667L230.4132 216.6667L235.0413 216.6667L239.6694 216.6667L244.2975 216.6667L248.9256 216.6667L253.5537 216.6667L258.1818 216.6667L262.8099 216.6667L267.438 216.6667L272.0661 216.6667L276.6942 216.6667L281.3223 216.6667L285.9504 216.6667L290.5785 216.6667L295.2066 216.6667L299.8347 216.6667L304.4628 216.6667L309.0909 216.6667L313.719 216.6667L318.3471 216.6667L322.9752 216.6667L327.6033 216.6667L332.2314 216.6667L336.8595 216.6667L341.4876 216.6667L346.1157 216.6667L350.7438 216.6667L355.3719 216.6667L360 216.6667L364.6281 216.6667L369.2562 216.6667L373.8843 216.6667L378.5124 216.6667L383.1405 216.6667L387.7686 216.6667L392.3967 216.6667L397.0248 216.6667L401.6529 216.6667L406.281 216.6667L410.9091 216.6667L415.5372 216.6667L420.1653 216.6667L424.7934 216.6667L429.4215 216.6667L434.0496 216.6667L438.6777 216.6667L443.3058 216.6667L447.9339 216.6667L452.562 216.6667L457.1901 216.6667L461.8182 216.6667L466.4463 216.6667L471.0744 216.6667L475.7025 216.6667L480.3306 216.6667L484.9587 216.6667L489.5868 216.6667L494.2149 216.6667L498.843 216.6667L503.4711 216.6667L508.0992 216.6667L512.7273 216.6667L517.3553 216.6667L521.9835 216.6667L526.6116 216.6667L531.2397 216.6667L535.8678 216.6667L540.4958 216.6667L545.124 216.6667L549.7521 216.6667L554.3802 216.6667L559.0082 216.6667L563.6364 216.6667L568.2645 216.6667L572.8926 216.6667L577.5207 216.6667L582.1487 216.6667L586.7769 216.6667L591.405 216.6667L596.0331 216.6667L600.6611 216.6667L605.2892 216.6667L609.9174 216.6667L614.5455 216.6667L619.1736 216.6667L623.8016 216.6667L628.4297 216.6667L633.0579 216.6667L637.686 216.6667" fill="none" stroke="#f7f494" stroke-width="2" stroke-linejoin="bevel"></path>
</g>
<path d="M0 -1L1 1L-1 1Z" transform="matrix(0,0,0,0,82.314,528.4333)" fill="#f7f494" fill-opacity="0"></path>
<path d="M0 -1L1 1L-1 1Z" transform="matrix(5,0,0,5,82.314,230.9233)" fill="#f7f494"></path>
<path d="M0 -1L1 1L-1 1Z" transform="matrix(5,0,0,5,147.1074,193.7933)" fill="#f7f494"></path>
<path d="M0 -1L1 1L-1 1Z" transform="matrix(5,0,0,5,211.9008,166.3767)" fill="#f7f494"></path>
<path d="M0 -1L1 1L-1 1Z" transform="matrix(5,0,0,5,276.6942,141.31)" fill="#f7f494"></path>
<path d="M0 -1L1 1L-1 1Z" transform="matrix(5,0,0,5,341.4876,125.6433)" fill="#f7f494"></path>
<path d="M0 -1L1 1L-1 1Z" transform="matrix(5,0,0,5,406.281,116.4)" fill="#f7f494"></path>
<path d="M0 -1L1 1L-1 1Z" transform="matrix(5,0,0,5,471.0744,213.0633)" fill="#f7f494"></path>
<path d="M0 -1L1 1L-1 1Z" transform="matrix(5,0,0,5,535.8678,237.3467)" fill="#f7f494"></path>
<path d="M0 -1L1 1L-1 1Z" transform="matrix(5,0,0,5,600.6611,177.6567)" fill="#f7f494"></path>
<path d="M1 0A1 1 0 1 1 1 -0.0001" transform="matrix(0,0,0,0,82.314,268.8889)" fill="#f7f494" fill-opacity="0"></path>
<path d="M1 0A1 1 0 1 1 1 -0.0001" transform="matrix(5,0,0,5,82.314,216.6667)" fill="#f7f494"></path>
<path d="M1 0A1 1 0 1 1 1 -0.0001" transform="matrix(5,0,0,5,147.1074,216.6667)" fill="#f7f494"></path>
<path d="M1 0A1 1 0 1 1 1 -0.0001" transform="matrix(5,0,0,5,211.9008,216.6667)" fill="#f7f494"></path>
<path d="M1 0A1 1 0 1 1 1 -0.0001" transform="matrix(5,0,0,5,276.6942,216.6667)" fill="#f7f494"></path>
<path d="M1 0A1 1 0 1 1 1 -0.0001" transform="matrix(5,0,0,5,341.4876,216.6667)" fill="#f7f494"></path>
<path d="M1 0A1 1 0 1 1 1 -0.0001" transform="matrix(5,0,0,5,406.281,216.6667)" fill="#f7f494"></path>
<path d="M1 0A1 1 0 1 1 1 -0.0001" transform="matrix(5,0,0,5,471.0744,216.6667)" fill="#f7f494"></path>
<path d="M1 0A1 1 0 1 1 1 -0.0001" transform="matrix(5,0,0,5,535.8678,216.6667)" fill="#f7f494"></path>
<path d="M1 0A1 1 0 1 1 1 -0.0001" transform="matrix(5,0,0,5,600.6611,216.6667)" fill="#f7f494"></path>
<path d="M0 0l560 0l0 30l-560 0Z" transform="matrix(1,0,0,-1,82.8,592.5)" fill="rgb(47,69,84)" fill-opacity="0"></path>
<g clip-path="url(#zr0-c2)">
<polygon points="560 0 0 0 0 11.8 4.7 11.7 9.3 12.6 14 13.2 18.7 12.4 23.3 13.9 28 13.3 32.7 14.1 37.3 14.4 42 14.6 46.7 14.9 51.3 14.8 56 15.2 60.7 15.7 65.3 15.6 70 16 74.7 16.2 79.3 16.5 84 16.5 88.7 16.9 93.3 17.3 98 17.5 102.7 17.9 107.3 17.1 112 17.8 116.7 17.7 121.3 18.1 126 18.7 130.7 18.4 135.3 18.5 140 19.1 144.7 19.4 149.3 18.6 154 19.9 158.7 19.1 163.3 19.5 168 20.2 172.7 20 177.3 20 182 20.3 186.7 20.5 191.3 20.7 196 21 200.7 20.5 205.3 21.1 210 20.6 214.7 21.3 219.3 21.8 224 20.9 228.7 22.1 233.3 21.3 238 21.8 242.7 22.4 247.3 22.2 252 22.7 256.7 21.8 261.3 22.6 266 22.4 270.7 22.7 275.3 22.8 280 23 284.7 23 289.3 23.5 294 22.9 298.7 23.2 303.3 23 308 23.6 312.7 24.1 317.3 23.2 322 24.2 326.7 23.5 331.3 24.2 336 24.3 340.7 24.3 345.3 24.4 350 24.3 354.7 24.3 359.3 22.5 364 21.2 368.7 20 373.3 18.8 378 16.6 382.7 15.6 387.3 14.6 392 13.6 396.7 11.8 401.3 10.8 406 9.9 410.7 9 415.3 7.3 420 6.5 424.7 5.7 429.3 5.6 434 8.3 438.7 7.9 443.3 9.2 448 10 452.7 10.7 457.3 11.2 462 12.1 466.7 11.6 471.3 13.4 476 12.9 480.7 13.8 485.3 14.1 490 14.3 494.7 15.1 499.3 15.9 504 15.3 508.7 16.5 513.3 16.5 518 16.9 522.7 17.3 527.3 17.7 532 17 536.7 15.7 541.3 14.5 546 12.4 550.7 11.4 555.3 11 560 12.3" transform="matrix(1,0,0,-1,82.8,592.5)" fill="#71708A" fill-opacity="0.2"></polygon>
</g>
<g clip-path="url(#zr0-c3)">
<polygon points="560 0 0 0 0 11.8 4.7 11.7 9.3 12.6 14 13.2 18.7 12.4 23.3 13.9 28 13.3 32.7 14.1 37.3 14.4 42 14.6 46.7 14.9 51.3 14.8 56 15.2 60.7 15.7 65.3 15.6 70 16 74.7 16.2 79.3 16.5 84 16.5 88.7 16.9 93.3 17.3 98 17.5 102.7 17.9 107.3 17.1 112 17.8 116.7 17.7 121.3 18.1 126 18.7 130.7 18.4 135.3 18.5 140 19.1 144.7 19.4 149.3 18.6 154 19.9 158.7 19.1 163.3 19.5 168 20.2 172.7 20 177.3 20 182 20.3 186.7 20.5 191.3 20.7 196 21 200.7 20.5 205.3 21.1 210 20.6 214.7 21.3 219.3 21.8 224 20.9 228.7 22.1 233.3 21.3 238 21.8 242.7 22.4 247.3 22.2 252 22.7 256.7 21.8 261.3 22.6 266 22.4 270.7 22.7 275.3 22.8 280 23 284.7 23 289.3 23.5 294 22.9 298.7 23.2 303.3 23 308 23.6 312.7 24.1 317.3 23.2 322 24.2 326.7 23.5 331.3 24.2 336 24.3 340.7 24.3 345.3 24.4 350 24.3 354.7 24.3 359.3 22.5 364 21.2 368.7 20 373.3 18.8 378 16.6 382.7 15.6 387.3 14.6 392 13.6 396.7 11.8 401.3 10.8 406 9.9 410.7 9 415.3 7.3 420 6.5 424.7 5.7 429.3 5.6 434 8.3 438.7 7.9 443.3 9.2 448 10 452.7 10.7 457.3 11.2 462 12.1 466.7 11.6 471.3 13.4 476 12.9 480.7 13.8 485.3 14.1 490 14.3 494.7 15.1 499.3 15.9 504 15.3 508.7 16.5 513.3 16.5 518 16.9 522.7 17.3 527.3 17.7 532 17 536.7 15.7 541.3 14.5 546 12.4 550.7 11.4 555.3 11 560 12.3" transform="matrix(1,0,0,-1,82.8,592.5)" fill="#87A3CE" fill-opacity="0.2"></polygon>
</g>
<g clip-path="url(#zr0-c4)">
<polygon points="560 0 0 0 0 11.8 4.7 11.7 9.3 12.6 14 13.2 18.7 12.4 23.3 13.9 28 13.3 32.7 14.1 37.3 14.4 42 14.6 46.7 14.9 51.3 14.8 56 15.2 60.7 15.7 65.3 15.6 70 16 74.7 16.2 79.3 16.5 84 16.5 88.7 16.9 93.3 17.3 98 17.5 102.7 17.9 107.3 17.1 112 17.8 116.7 17.7 121.3 18.1 126 18.7 130.7 18.4 135.3 18.5 140 19.1 144.7 19.4 149.3 18.6 154 19.9 158.7 19.1 163.3 19.5 168 20.2 172.7 20 177.3 20 182 20.3 186.7 20.5 191.3 20.7 196 21 200.7 20.5 205.3 21.1 210 20.6 214.7 21.3 219.3 21.8 224 20.9 228.7 22.1 233.3 21.3 238 21.8 242.7 22.4 247.3 22.2 252 22.7 256.7 21.8 261.3 22.6 266 22.4 270.7 22.7 275.3 22.8 280 23 284.7 23 289.3 23.5 294 22.9 298.7 23.2 303.3 23 308 23.6 312.7 24.1 317.3 23.2 322 24.2 326.7 23.5 331.3 24.2 336 24.3 340.7 24.3 345.3 24.4 350 24.3 354.7 24.3 359.3 22.5 364 21.2 368.7 20 373.3 18.8 378 16.6 382.7 15.6 387.3 14.6 392 13.6 396.7 11.8 401.3 10.8 406 9.9 410.7 9 415.3 7.3 420 6.5 424.7 5.7 429.3 5.6 434 8.3 438.7 7.9 443.3 9.2 448 10 452.7 10.7 457.3 11.2 462 12.1 466.7 11.6 471.3 13.4 476 12.9 480.7 13.8 485.3 14.1 490 14.3 494.7 15.1 499.3 15.9 504 15.3 508.7 16.5 513.3 16.5 518 16.9 522.7 17.3 527.3 17.7 532 17 536.7 15.7 541.3 14.5 546 12.4 550.7 11.4 555.3 11 560 12.3" transform="matrix(1,0,0,-1,82.8,592.5)" fill="#71708A" fill-opacity="0.2"></polygon>
</g>
<g clip-path="url(#zr0-c2)">
<polyline points="0 11.8 4.7 11.7 9.3 12.6 14 13.2 18.7 12.4 23.3 13.9 28 13.3 32.7 14.1 37.3 14.4 42 14.6 46.7 14.9 51.3 14.8 56 15.2 60.7 15.7 65.3 15.6 70 16 74.7 16.2 79.3 16.5 84 16.5 88.7 16.9 93.3 17.3 98 17.5 102.7 17.9 107.3 17.1 112 17.8 116.7 17.7 121.3 18.1 126 18.7 130.7 18.4 135.3 18.5 140 19.1 144.7 19.4 149.3 18.6 154 19.9 158.7 19.1 163.3 19.5 168 20.2 172.7 20 177.3 20 182 20.3 186.7 20.5 191.3 20.7 196 21 200.7 20.5 205.3 21.1 210 20.6 214.7 21.3 219.3 21.8 224 20.9 228.7 22.1 233.3 21.3 238 21.8 242.7 22.4 247.3 22.2 252 22.7 256.7 21.8 261.3 22.6 266 22.4 270.7 22.7 275.3 22.8 280 23 284.7 23 289.3 23.5 294 22.9 298.7 23.2 303.3 23 308 23.6 312.7 24.1 317.3 23.2 322 24.2 326.7 23.5 331.3 24.2 336 24.3 340.7 24.3 345.3 24.4 350 24.3 354.7 24.3 359.3 22.5 364 21.2 368.7 20 373.3 18.8 378 16.6 382.7 15.6 387.3 14.6 392 13.6 396.7 11.8 401.3 10.8 406 9.9 410.7 9 415.3 7.3 420 6.5 424.7 5.7 429.3 5.6 434 8.3 438.7 7.9 443.3 9.2 448 10 452.7 10.7 457.3 11.2 462 12.1 466.7 11.6 471.3 13.4 476 12.9 480.7 13.8 485.3 14.1 490 14.3 494.7 15.1 499.3 15.9 504 15.3 508.7 16.5 513.3 16.5 518 16.9 522.7 17.3 527.3 17.7 532 17 536.7 15.7 541.3 14.5 546 12.4 550.7 11.4 555.3 11 560 12.3" transform="matrix(1,0,0,-1,82.8,592.5)" fill="none" stroke="#71708A"></polyline>
</g>
<g clip-path="url(#zr0-c3)">
<polyline points="0 11.8 4.7 11.7 9.3 12.6 14 13.2 18.7 12.4 23.3 13.9 28 13.3 32.7 14.1 37.3 14.4 42 14.6 46.7 14.9 51.3 14.8 56 15.2 60.7 15.7 65.3 15.6 70 16 74.7 16.2 79.3 16.5 84 16.5 88.7 16.9 93.3 17.3 98 17.5 102.7 17.9 107.3 17.1 112 17.8 116.7 17.7 121.3 18.1 126 18.7 130.7 18.4 135.3 18.5 140 19.1 144.7 19.4 149.3 18.6 154 19.9 158.7 19.1 163.3 19.5 168 20.2 172.7 20 177.3 20 182 20.3 186.7 20.5 191.3 20.7 196 21 200.7 20.5 205.3 21.1 210 20.6 214.7 21.3 219.3 21.8 224 20.9 228.7 22.1 233.3 21.3 238 21.8 242.7 22.4 247.3 22.2 252 22.7 256.7 21.8 261.3 22.6 266 22.4 270.7 22.7 275.3 22.8 280 23 284.7 23 289.3 23.5 294 22.9 298.7 23.2 303.3 23 308 23.6 312.7 24.1 317.3 23.2 322 24.2 326.7 23.5 331.3 24.2 336 24.3 340.7 24.3 345.3 24.4 350 24.3 354.7 24.3 359.3 22.5 364 21.2 368.7 20 373.3 18.8 378 16.6 382.7 15.6 387.3 14.6 392 13.6 396.7 11.8 401.3 10.8 406 9.9 410.7 9 415.3 7.3 420 6.5 424.7 5.7 429.3 5.6 434 8.3 438.7 7.9 443.3 9.2 448 10 452.7 10.7 457.3 11.2 462 12.1 466.7 11.6 471.3 13.4 476 12.9 480.7 13.8 485.3 14.1 490 14.3 494.7 15.1 499.3 15.9 504 15.3 508.7 16.5 513.3 16.5 518 16.9 522.7 17.3 527.3 17.7 532 17 536.7 15.7 541.3 14.5 546 12.4 550.7 11.4 555.3 11 560 12.3" transform="matrix(1,0,0,-1,82.8,592.5)" fill="none" stroke="#87A3CE" stroke-width="0.5"></polyline>
</g>
<g clip-path="url(#zr0-c4)">
<polyline points="0 11.8 4.7 11.7 9.3 12.6 14 13.2 18.7 12.4 23.3 13.9 28 13.3 32.7 14.1 37.3 14.4 42 14.6 46.7 14.9 51.3 14.8 56 15.2 60.7 15.7 65.3 15.6 70 16 74.7 16.2 79.3 16.5 84 16.5 88.7 16.9 93.3 17.3 98 17.5 102.7 17.9 107.3 17.1 112 17.8 116.7 17.7 121.3 18.1 126 18.7 130.7 18.4 135.3 18.5 140 19.1 144.7 19.4 149.3 18.6 154 19.9 158.7 19.1 163.3 19.5 168 20.2 172.7 20 177.3 20 182 20.3 186.7 20.5 191.3 20.7 196 21 200.7 20.5 205.3 21.1 210 20.6 214.7 21.3 219.3 21.8 224 20.9 228.7 22.1 233.3 21.3 238 21.8 242.7 22.4 247.3 22.2 252 22.7 256.7 21.8 261.3 22.6 266 22.4 270.7 22.7 275.3 22.8 280 23 284.7 23 289.3 23.5 294 22.9 298.7 23.2 303.3 23 308 23.6 312.7 24.1 317.3 23.2 322 24.2 326.7 23.5 331.3 24.2 336 24.3 340.7 24.3 345.3 24.4 350 24.3 354.7 24.3 359.3 22.5 364 21.2 368.7 20 373.3 18.8 378 16.6 382.7 15.6 387.3 14.6 392 13.6 396.7 11.8 401.3 10.8 406 9.9 410.7 9 415.3 7.3 420 6.5 424.7 5.7 429.3 5.6 434 8.3 438.7 7.9 443.3 9.2 448 10 452.7 10.7 457.3 11.2 462 12.1 466.7 11.6 471.3 13.4 476 12.9 480.7 13.8 485.3 14.1 490 14.3 494.7 15.1 499.3 15.9 504 15.3 508.7 16.5 513.3 16.5 518 16.9 522.7 17.3 527.3 17.7 532 17 536.7 15.7 541.3 14.5 546 12.4 550.7 11.4 555.3 11 560 12.3" transform="matrix(1,0,0,-1,82.8,592.5)" fill="none" stroke="#71708A"></polyline>
</g>
<path d="M-5 -5l691.0547 0l0 22l-691.0547 0Z" transform="translate(59.4727 5)" fill="rgb(0,0,0)" fill-opacity="0" stroke="#ccc" stroke-width="0"></path>
<path d="M0 7L25 7" transform="translate(60.4727 4)" fill="#000" stroke="#ccc" stroke-width="2" stroke-linecap="butt" stroke-miterlimit="10"></path>
<path d="M12.5 1.4L18.1 12.6L6.9 12.6Z" transform="translate(60.4727 4)" fill="#ccc" stroke="#ccc" stroke-width="0" stroke-linecap="butt" stroke-miterlimit="10"></path>
<text dominant-baseline="central" text-anchor="start" style="font-size:12px;font-family:Microsoft YaHei;" x="30" y="7" transform="translate(60.4727 4)" fill="#ccc">Pipe_Pres</text>
<path d="M0 7L25 7" transform="translate(156.1465 4)" fill="#000" stroke="#ccc" stroke-width="2" stroke-linecap="butt" stroke-miterlimit="10"></path>
<path d="M18.1 7A5.6 5.6 0 1 1 18.1 6.9994" transform="translate(156.1465 4)" fill="#ccc" stroke="#ccc" stroke-width="0" stroke-linecap="butt" stroke-miterlimit="10"></path>
<text dominant-baseline="central" text-anchor="start" style="font-size:12px;font-family:Microsoft YaHei;" x="30" y="7" transform="translate(156.1465 4)" fill="#ccc">Ambient_Pres</text>
<path d="M0 7L25 7" transform="translate(276.0313 4)" fill="#000" stroke="#ccc" stroke-width="2" stroke-linecap="butt" stroke-miterlimit="10"></path>
<path d="M12.5 1.4L18.1 12.6L6.9 12.6Z" transform="translate(276.0313 4)" fill="#ccc" stroke="#ccc" stroke-width="0" stroke-linecap="butt" stroke-miterlimit="10"></path>
<text dominant-baseline="central" text-anchor="start" style="font-size:12px;font-family:Microsoft YaHei;" x="30" y="7" transform="translate(276.0313 4)" fill="#ccc">Pipe_Temp</text>
<path d="M0 7L25 7" transform="translate(380.0137 4)" fill="#000" stroke="#ccc" stroke-width="2" stroke-linecap="butt" stroke-miterlimit="10"></path>
<path d="M18.1 7A5.6 5.6 0 1 1 18.1 6.9994" transform="translate(380.0137 4)" fill="#ccc" stroke="#ccc" stroke-width="0" stroke-linecap="butt" stroke-miterlimit="10"></path>
<text dominant-baseline="central" text-anchor="start" style="font-size:12px;font-family:Microsoft YaHei;" x="30" y="7" transform="translate(380.0137 4)" fill="#ccc">Chip_Temp</text>
<path d="M0 7L25 7" transform="translate(485.2617 4)" fill="#000" stroke="#f7f494" stroke-width="2" stroke-linecap="butt" stroke-miterlimit="10"></path>
<path d="M18.1 7A5.6 5.6 0 1 1 18.1 6.9994" transform="translate(485.2617 4)" fill="#f7f494"></path>
<text dominant-baseline="central" text-anchor="start" style="font-size:12px;font-family:Microsoft YaHei;" x="30" y="7" transform="translate(485.2617 4)" fill="#B9B8CE">Set_nPressure</text>
<path d="M0 7L25 7" transform="translate(605.8672 4)" fill="#000" stroke="#f7f494" stroke-width="2" stroke-linecap="butt" stroke-miterlimit="10"></path>
<path d="M12.5 1.4L18.1 12.6L6.9 12.6Z" transform="translate(605.8672 4)" fill="#f7f494"></path>
<text dominant-baseline="central" text-anchor="start" style="font-size:12px;font-family:Microsoft YaHei;" x="30" y="7" transform="translate(605.8672 4)" fill="#B9B8CE">Current_nPressure</text>
<path d="M0 0l560 0l0 30l-560 0Z" transform="matrix(1,0,0,-1,82.8,592.5)" fill="none"></path>
<path d="M0 0l560 0l0 30l-560 0Z" transform="matrix(1,0,0,-1,82.8,592.5)" fill="rgb(135,163,206)" fill-opacity="0.2"></path>
<path d="M3.5 0.5L556.5 0.5A3 3 0 0 1 559.5 3.5L559.5 26.5A3 3 0 0 1 556.5 29.5L3.5 29.5A3 3 0 0 1 0.5 26.5L0.5 3.5A3 3 0 0 1 3.5 0.5" transform="matrix(1,0,0,-1,82.8,592.5)" fill="rgb(0,0,0)" fill-opacity="0" stroke="#71708A"></path>
<path d="M0 29.5L560 29.5L560 34.5A2 2 0 0 1 558 36.5L2 36.5A2 2 0 0 1 0 34.5L0 29.5" transform="matrix(1,0,0,-1,82.8,592.5)" fill="#B0B6C3" fill-opacity="0.3"></path>
<path d="M-2.2408 -1.6796C-1.8674 -1.6796 -1.6817 -1.4939 -1.6817 -1.1204L-1.6817 1.1204C-1.6817 1.4939 -1.8674 1.6796 -2.2408 1.6796C-2.6143 1.6796 -2.8 1.4939 -2.8 1.1204L-2.8 -1.1204C-2.8 -1.4939 -2.6143 -1.6796 -2.2408 -1.6796ZM0 -1.6796C0.3735 -1.6796 0.5592 -1.4939 0.5592 -1.1204L0.5592 1.1204C0.5592 1.4939 0.3735 1.6796 0 1.6796C-0.3735 1.6796 -0.5592 1.4939 -0.5592 1.1204L-0.5592 -1.1204C-0.5592 -1.4939 -0.3735 -1.6796 0 -1.6796ZM2.2408 -1.6796C2.6143 -1.6796 2.8 -1.4939 2.8 -1.1204L2.8 1.1204C2.8 1.4939 2.6143 1.6796 2.2408 1.6796C1.8674 1.6796 1.6817 1.4939 1.6817 1.1204L1.6817 -1.1204C1.6796 -1.4939 1.8674 -1.6796 2.2408 -1.6796Z" transform="matrix(1,0,0,-1,362.8,559.5)" fill="#fff"></path>
<path d="M0 1.628L0 2M0 0L0 0.375M-0.1 0.375L0.1 0.375A0.1 0.1 0 0 1 0.2 0.475L0.2 1.525A0.1 0.1 0 0 1 0.1 1.625L-0.1 1.625A0.1 0.1 0 0 1 -0.2 1.525L-0.2 0.475A0.1 0.1 0 0 1 -0.1 0.375Z" transform="matrix(15,0,0,-15,83.8,592.5)" fill="#353450" stroke="#C5CBE3" stroke-width="0.06666666666666667"></path>
<path d="M0 1.628L0 2M0 0L0 0.375M-0.1 0.375L0.1 0.375A0.1 0.1 0 0 1 0.2 0.475L0.2 1.525A0.1 0.1 0 0 1 0.1 1.625L-0.1 1.625A0.1 0.1 0 0 1 -0.2 1.525L-0.2 0.475A0.1 0.1 0 0 1 -0.1 0.375Z" transform="matrix(15,0,0,-15,641.8,592.5)" fill="#353450" stroke="#C5CBE3" stroke-width="0.06666666666666667"></path>
<defs >
<clipPath id="zr0-c0">
<path d="M79 59l562 0l0 472l-562 0Z" fill="#000"></path>
</clipPath>
<clipPath id="zr0-c1">
<path d="M79 59l562 0l0 472l-562 0Z" fill="#000"></path>
</clipPath>
<clipPath id="zr0-c2">
<path d="M0 0l0 0l0 30l0 0Z" transform="matrix(1,0,0,-1,82.8,592.5)" fill="#000"></path>
</clipPath>
<clipPath id="zr0-c3">
<path d="M0 0l560 0l0 30l-560 0Z" transform="matrix(1,0,0,-1,82.8,592.5)" fill="#000"></path>
</clipPath>
<clipPath id="zr0-c4">
<path d="M560 0l0 0l0 30l0 0Z" transform="matrix(1,0,0,-1,82.8,592.5)" fill="#000"></path>
</clipPath>
</defs>
</svg>