<svg width="800" height="600" xmlns="http://www.w3.org/2000/svg" xmlns:xlink="http://www.w3.org/1999/xlink" version="1.1" baseProfile="full" viewBox="0 0 800 600">
<rect width="800" height="600" x="0" y="0" id="0" fill="rgb(40, 44, 52)" fill-opacity="1"></rect>
<path d="M80 530.5L640 530.5" fill="none" stroke="#484753"></path>
<path d="M80 451.5L640 451.5" fill="none" stroke="#484753"></path>
<path d="M80 373.5L640 373.5" fill="none" stroke="#484753"></path>
<path d="M80 295.5L640 295.5" fill="none" stroke="#484753"></path>
<path d="M80 216.5L640 216.5" fill="none" stroke="#484753"></path>
<path d="M80 138.5L640 138.5" fill="none" stroke="#484753"></path>
<path d="M80 60.5L640 60.5" fill="none" stroke="#484753"></path>
<path d="M80.5 530L80.5 60" fill="none" stroke="#ACDFED" stroke-linecap="round"></path>
<text dominant-baseline="central" text-anchor="middle" style="font-size:12px;font-family:Microsoft YaHei;" y="-6" transform="translate(80 45)" fill="#B9B8CE">压力</text>
<path d="M640.5 530L640.5 60" fill="none" stroke="#FFAB91" stroke-linecap="round"></path>
<text dominant-baseline="central" text-anchor="middle" style="font-size:12px;font-family:Microsoft YaHei;" y="-6" transform="translate(640 45)" fill="#B9B8CE">温度</text>
<path d="M720.5 530L720.5 60" fill="none" stroke="#f7f494" stroke-linecap="round"></path>
<text dominant-baseline="central" text-anchor="middle" style="font-size:12px;font-family:Microsoft YaHei;" y="-6" transform="translate(720 45)" fill="#B9B8CE">负压</text>
<path d="M80 530.5L640 530.5" fill="none" stroke="#B9B8CE" stroke-linecap="round"></path>
<path d="M143.5 530L143.5 535" fill="none" stroke="#B9B8CE"></path>
<path d="M210.5 530L210.5 535" fill="none" stroke="#B9B8CE"></path>
<path d="M278.5 530L278.5 535" fill="none" stroke="#B9B8CE"></path>
<path d="M345.5 530L345.5 535" fill="none" stroke="#B9B8CE"></path>
<path d="M412.5 530L412.5 535" fill="none" stroke="#B9B8CE"></path>
<path d="M479.5 530L479.5 535" fill="none" stroke="#B9B8CE"></path>
<path d="M546.5 530L546.5 535" fill="none" stroke="#B9B8CE"></path>
<path d="M614.5 530L614.5 535" fill="none" stroke="#B9B8CE"></path>
<text dominant-baseline="central" text-anchor="start" style="font-size:12px;font-family:Microsoft YaHei;" xml:space="preserve" transform="translate(728 530)" fill="#B9B8CE">0 hPa</text>
<text dominant-baseline="central" text-anchor="start" style="font-size:12px;font-family:Microsoft YaHei;" xml:space="preserve" transform="translate(728 451.6667)" fill="#B9B8CE">30 hPa</text>
<text dominant-baseline="central" text-anchor="start" style="font-size:12px;font-family:Microsoft YaHei;" xml:space="preserve" transform="translate(728 373.3333)" fill="#B9B8CE">60 hPa</text>
<text dominant-baseline="central" text-anchor="start" style="font-size:12px;font-family:Microsoft YaHei;" xml:space="preserve" transform="translate(728 295)" fill="#B9B8CE">90 hPa</text>
<text dominant-baseline="central" text-anchor="start" style="font-size:12px;font-family:Microsoft YaHei;" xml:space="preserve" transform="translate(728 216.6667)" fill="#B9B8CE">120 hPa</text>
<text dominant-baseline="central" text-anchor="start" style="font-size:12px;font-family:Microsoft YaHei;" xml:space="preserve" transform="translate(728 138.3333)" fill="#B9B8CE">150 hPa</text>
<text dominant-baseline="central" text-anchor="start" style="font-size:12px;font-family:Microsoft YaHei;" xml:space="preserve" transform="translate(728 60)" fill="#B9B8CE">180 hPa</text>
<text dominant-baseline="central" text-anchor="middle" style="font-size:12px;font-family:Microsoft YaHei;" y="6" transform="translate(143.4667 538)" fill="#B9B8CE">18:09:14</text>
<text dominant-baseline="central" text-anchor="middle" style="font-size:12px;font-family:Microsoft YaHei;" y="6" transform="translate(210.6667 538)" fill="#B9B8CE">18:09:23</text>
<text dominant-baseline="central" text-anchor="middle" style="font-size:12px;font-family:Microsoft YaHei;" y="6" transform="translate(277.8667 538)" fill="#B9B8CE">18:09:32</text>
<text dominant-baseline="central" text-anchor="middle" style="font-size:12px;font-family:Microsoft YaHei;" y="6" transform="translate(345.0667 538)" fill="#B9B8CE">18:09:41</text>
<text dominant-baseline="central" text-anchor="middle" style="font-size:12px;font-family:Microsoft YaHei;" y="6" transform="translate(412.2667 538)" fill="#B9B8CE">18:09:50</text>
<text dominant-baseline="central" text-anchor="middle" style="font-size:12px;font-family:Microsoft YaHei;" y="6" transform="translate(479.4667 538)" fill="#B9B8CE">18:09:59</text>
<text dominant-baseline="central" text-anchor="middle" style="font-size:12px;font-family:Microsoft YaHei;" y="6" transform="translate(546.6667 538)" fill="#B9B8CE">18:10:08</text>
<text dominant-baseline="central" text-anchor="middle" style="font-size:12px;font-family:Microsoft YaHei;" y="6" transform="translate(613.8667 538)" fill="#B9B8CE">18:10:17</text>
<g clip-path="url(#zr0-c0)">
<path d="M83.7 131.8L91.2 133.6L98.7 131.8L106.1 133.4L113.6 138.9L121.1 130.8L128.5 131.3L136 131.8L143.5 132.1L150.9 138.6L158.4 141.2L165.9 141.5L173.3 141.5L180.8 141.7L188.3 142.3L195.7 142.3L203.2 134.7L210.7 134.9L218.1 135.7L225.6 135.7L233.1 137.3L240.5 138.3L248 138.3L255.5 147.2L262.9 179.1L270.4 193.2L277.9 206.2L285.3 218.8L292.8 242.3L300.3 253.5L307.7 263.9L315.2 274.4L322.7 294.5L330.1 303.9L337.6 313.3L345.1 322.4L352.5 340.2L360 348.5L367.5 356.9L374.9 364.7L382.4 380.1L389.9 387.2L397.3 394.2L404.8 401L412.3 414.1L419.7 420.1L427.2 426.1L434.7 431.8L442.1 442.5L449.6 447.5L457.1 452.5L464.5 457.1L472 466L479.5 470.2L486.9 474.1L494.4 481.7L501.9 485.1L509.3 488.5L516.8 491.6L524.3 494.8L531.7 500.2L539.2 502.8L546.7 505.5L554.1 507.8L561.6 512.2L569.1 514.3L576.5 516.4L584 518.5L591.5 523L598.9 525.3L606.4 527.9L613.9 528.7L621.3 528.2L628.8 527.9L636.3 527.9" fill="none" stroke="#f7f494" stroke-width="2" stroke-linejoin="bevel"></path>
</g>
<path d="M1 0A1 1 0 1 1 1 -0.0001" transform="matrix(0,0,0,0,82.314,133.7508)" fill="#ACDFED" fill-opacity="0"></path>
<path d="M0 -1L1 1L-1 1Z" transform="matrix(0,0,0,0,82.314,73.16)" fill="#FFAB91" fill-opacity="0"></path>
<path d="M0 -1L1 1L-1 1Z" transform="matrix(0,0,0,0,82.314,528.7914)" fill="#f7f494" fill-opacity="0"></path>
<path d="M0 -1L1 1L-1 1Z" transform="matrix(5,0,0,5,143.4667,132.0667)" fill="#f7f494"></path>
<path d="M0 -1L1 1L-1 1Z" transform="matrix(5,0,0,5,210.6667,134.9389)" fill="#f7f494"></path>
<path d="M0 -1L1 1L-1 1Z" transform="matrix(5,0,0,5,277.8667,206.2222)" fill="#f7f494"></path>
<path d="M0 -1L1 1L-1 1Z" transform="matrix(5,0,0,5,345.0667,322.4167)" fill="#f7f494"></path>
<path d="M0 -1L1 1L-1 1Z" transform="matrix(5,0,0,5,412.2667,414.0667)" fill="#f7f494"></path>
<path d="M0 -1L1 1L-1 1Z" transform="matrix(5,0,0,5,479.4667,470.2056)" fill="#f7f494"></path>
<path d="M0 -1L1 1L-1 1Z" transform="matrix(5,0,0,5,546.6667,505.4556)" fill="#f7f494"></path>
<path d="M0 -1L1 1L-1 1Z" transform="matrix(5,0,0,5,613.8666,528.6945)" fill="#f7f494"></path>
<path d="M0 0l560 0l0 30l-560 0Z" transform="matrix(1,0,0,-1,82.8,592.5)" fill="rgb(47,69,84)" fill-opacity="0"></path>
<g clip-path="url(#zr0-c1)">
<polygon points="560 0 0 0 0 24.2 4.7 24.1 9.3 24 14 24 18.7 23.9 23.3 23.9 28 23.7 32.7 23.5 37.3 23.7 42 23.3 46.7 23.3 51.3 23.6 56 23.5 60.7 23.4 65.3 23.2 70 23.2 74.7 23.6 79.3 23.6 84 23.6 88.7 23.5 93.3 23.5 98 23.6 102.7 23.7 107.3 23.8 112 23.8 116.7 23.6 121.3 23.5 126 23.8 130.7 23.8 135.3 24 140 23.9 144.7 24.1 149.3 23.9 154 24 158.7 24.1 163.3 24.2 168 24.1 172.7 24.3 177.3 24.1 182 24.2 186.7 23.9 191.3 24 196 24.1 200.7 24.2 205.3 24.3 210 24.4 214.7 24.3 219.3 24.2 224 24.3 228.7 24.2 233.3 24 238 24.4 242.7 24.3 247.3 24.3 252 24.3 256.7 24 261.3 23.9 266 23.8 270.7 23.8 275.3 23.8 280 23.8 284.7 23.8 289.3 24.2 294 24.2 298.7 24.1 303.3 24.1 308 24 312.7 24 317.3 24 322 23.6 326.7 22.1 331.3 21.4 336 20.8 340.7 20.2 345.3 19.1 350 18.6 354.7 18.1 359.3 17.6 364 16.6 368.7 16.2 373.3 15.8 378 15.3 382.7 14.5 387.3 14.1 392 13.7 396.7 13.3 401.3 12.6 406 12.3 410.7 12 415.3 11.6 420 11 424.7 10.7 429.3 10.5 434 10.2 438.7 9.7 443.3 9.4 448 9.2 452.7 9 457.3 8.6 462 8.4 466.7 8.2 471.3 7.8 476 7.7 480.7 7.5 485.3 7.4 490 7.2 494.7 7 499.3 6.8 504 6.7 508.7 6.6 513.3 6.4 518 6.3 522.7 6.2 527.3 6.1 532 5.9 536.7 5.8 541.3 5.7 546 5.6 550.7 5.6 555.3 5.7 560 5.7" transform="matrix(1,0,0,-1,82.8,592.5)" fill="#71708A" fill-opacity="0.2"></polygon>
</g>
<g clip-path="url(#zr0-c2)">
<polygon points="560 0 0 0 0 24.2 4.7 24.1 9.3 24 14 24 18.7 23.9 23.3 23.9 28 23.7 32.7 23.5 37.3 23.7 42 23.3 46.7 23.3 51.3 23.6 56 23.5 60.7 23.4 65.3 23.2 70 23.2 74.7 23.6 79.3 23.6 84 23.6 88.7 23.5 93.3 23.5 98 23.6 102.7 23.7 107.3 23.8 112 23.8 116.7 23.6 121.3 23.5 126 23.8 130.7 23.8 135.3 24 140 23.9 144.7 24.1 149.3 23.9 154 24 158.7 24.1 163.3 24.2 168 24.1 172.7 24.3 177.3 24.1 182 24.2 186.7 23.9 191.3 24 196 24.1 200.7 24.2 205.3 24.3 210 24.4 214.7 24.3 219.3 24.2 224 24.3 228.7 24.2 233.3 24 238 24.4 242.7 24.3 247.3 24.3 252 24.3 256.7 24 261.3 23.9 266 23.8 270.7 23.8 275.3 23.8 280 23.8 284.7 23.8 289.3 24.2 294 24.2 298.7 24.1 303.3 24.1 308 24 312.7 24 317.3 24 322 23.6 326.7 22.1 331.3 21.4 336 20.8 340.7 20.2 345.3 19.1 350 18.6 354.7 18.1 359.3 17.6 364 16.6 368.7 16.2 373.3 15.8 378 15.3 382.7 14.5 387.3 14.1 392 13.7 396.7 13.3 401.3 12.6 406 12.3 410.7 12 415.3 11.6 420 11 424.7 10.7 429.3 10.5 434 10.2 438.7 9.7 443.3 9.4 448 9.2 452.7 9 457.3 8.6 462 8.4 466.7 8.2 471.3 7.8 476 7.7 480.7 7.5 485.3 7.4 490 7.2 494.7 7 499.3 6.8 504 6.7 508.7 6.6 513.3 6.4 518 6.3 522.7 6.2 527.3 6.1 532 5.9 536.7 5.8 541.3 5.7 546 5.6 550.7 5.6 555.3 5.7 560 5.7" transform="matrix(1,0,0,-1,82.8,592.5)" fill="#87A3CE" fill-opacity="0.2"></polygon>
</g>
<g clip-path="url(#zr0-c3)">
<polygon points="560 0 0 0 0 24.2 4.7 24.1 9.3 24 14 24 18.7 23.9 23.3 23.9 28 23.7 32.7 23.5 37.3 23.7 42 23.3 46.7 23.3 51.3 23.6 56 23.5 60.7 23.4 65.3 23.2 70 23.2 74.7 23.6 79.3 23.6 84 23.6 88.7 23.5 93.3 23.5 98 23.6 102.7 23.7 107.3 23.8 112 23.8 116.7 23.6 121.3 23.5 126 23.8 130.7 23.8 135.3 24 140 23.9 144.7 24.1 149.3 23.9 154 24 158.7 24.1 163.3 24.2 168 24.1 172.7 24.3 177.3 24.1 182 24.2 186.7 23.9 191.3 24 196 24.1 200.7 24.2 205.3 24.3 210 24.4 214.7 24.3 219.3 24.2 224 24.3 228.7 24.2 233.3 24 238 24.4 242.7 24.3 247.3 24.3 252 24.3 256.7 24 261.3 23.9 266 23.8 270.7 23.8 275.3 23.8 280 23.8 284.7 23.8 289.3 24.2 294 24.2 298.7 24.1 303.3 24.1 308 24 312.7 24 317.3 24 322 23.6 326.7 22.1 331.3 21.4 336 20.8 340.7 20.2 345.3 19.1 350 18.6 354.7 18.1 359.3 17.6 364 16.6 368.7 16.2 373.3 15.8 378 15.3 382.7 14.5 387.3 14.1 392 13.7 396.7 13.3 401.3 12.6 406 12.3 410.7 12 415.3 11.6 420 11 424.7 10.7 429.3 10.5 434 10.2 438.7 9.7 443.3 9.4 448 9.2 452.7 9 457.3 8.6 462 8.4 466.7 8.2 471.3 7.8 476 7.7 480.7 7.5 485.3 7.4 490 7.2 494.7 7 499.3 6.8 504 6.7 508.7 6.6 513.3 6.4 518 6.3 522.7 6.2 527.3 6.1 532 5.9 536.7 5.8 541.3 5.7 546 5.6 550.7 5.6 555.3 5.7 560 5.7" transform="matrix(1,0,0,-1,82.8,592.5)" fill="#71708A" fill-opacity="0.2"></polygon>
</g>
<g clip-path="url(#zr0-c1)">
<polyline points="0 24.2 4.7 24.1 9.3 24 14 24 18.7 23.9 23.3 23.9 28 23.7 32.7 23.5 37.3 23.7 42 23.3 46.7 23.3 51.3 23.6 56 23.5 60.7 23.4 65.3 23.2 70 23.2 74.7 23.6 79.3 23.6 84 23.6 88.7 23.5 93.3 23.5 98 23.6 102.7 23.7 107.3 23.8 112 23.8 116.7 23.6 121.3 23.5 126 23.8 130.7 23.8 135.3 24 140 23.9 144.7 24.1 149.3 23.9 154 24 158.7 24.1 163.3 24.2 168 24.1 172.7 24.3 177.3 24.1 182 24.2 186.7 23.9 191.3 24 196 24.1 200.7 24.2 205.3 24.3 210 24.4 214.7 24.3 219.3 24.2 224 24.3 228.7 24.2 233.3 24 238 24.4 242.7 24.3 247.3 24.3 252 24.3 256.7 24 261.3 23.9 266 23.8 270.7 23.8 275.3 23.8 280 23.8 284.7 23.8 289.3 24.2 294 24.2 298.7 24.1 303.3 24.1 308 24 312.7 24 317.3 24 322 23.6 326.7 22.1 331.3 21.4 336 20.8 340.7 20.2 345.3 19.1 350 18.6 354.7 18.1 359.3 17.6 364 16.6 368.7 16.2 373.3 15.8 378 15.3 382.7 14.5 387.3 14.1 392 13.7 396.7 13.3 401.3 12.6 406 12.3 410.7 12 415.3 11.6 420 11 424.7 10.7 429.3 10.5 434 10.2 438.7 9.7 443.3 9.4 448 9.2 452.7 9 457.3 8.6 462 8.4 466.7 8.2 471.3 7.8 476 7.7 480.7 7.5 485.3 7.4 490 7.2 494.7 7 499.3 6.8 504 6.7 508.7 6.6 513.3 6.4 518 6.3 522.7 6.2 527.3 6.1 532 5.9 536.7 5.8 541.3 5.7 546 5.6 550.7 5.6 555.3 5.7 560 5.7" transform="matrix(1,0,0,-1,82.8,592.5)" fill="none" stroke="#71708A"></polyline>
</g>
<g clip-path="url(#zr0-c2)">
<polyline points="0 24.2 4.7 24.1 9.3 24 14 24 18.7 23.9 23.3 23.9 28 23.7 32.7 23.5 37.3 23.7 42 23.3 46.7 23.3 51.3 23.6 56 23.5 60.7 23.4 65.3 23.2 70 23.2 74.7 23.6 79.3 23.6 84 23.6 88.7 23.5 93.3 23.5 98 23.6 102.7 23.7 107.3 23.8 112 23.8 116.7 23.6 121.3 23.5 126 23.8 130.7 23.8 135.3 24 140 23.9 144.7 24.1 149.3 23.9 154 24 158.7 24.1 163.3 24.2 168 24.1 172.7 24.3 177.3 24.1 182 24.2 186.7 23.9 191.3 24 196 24.1 200.7 24.2 205.3 24.3 210 24.4 214.7 24.3 219.3 24.2 224 24.3 228.7 24.2 233.3 24 238 24.4 242.7 24.3 247.3 24.3 252 24.3 256.7 24 261.3 23.9 266 23.8 270.7 23.8 275.3 23.8 280 23.8 284.7 23.8 289.3 24.2 294 24.2 298.7 24.1 303.3 24.1 308 24 312.7 24 317.3 24 322 23.6 326.7 22.1 331.3 21.4 336 20.8 340.7 20.2 345.3 19.1 350 18.6 354.7 18.1 359.3 17.6 364 16.6 368.7 16.2 373.3 15.8 378 15.3 382.7 14.5 387.3 14.1 392 13.7 396.7 13.3 401.3 12.6 406 12.3 410.7 12 415.3 11.6 420 11 424.7 10.7 429.3 10.5 434 10.2 438.7 9.7 443.3 9.4 448 9.2 452.7 9 457.3 8.6 462 8.4 466.7 8.2 471.3 7.8 476 7.7 480.7 7.5 485.3 7.4 490 7.2 494.7 7 499.3 6.8 504 6.7 508.7 6.6 513.3 6.4 518 6.3 522.7 6.2 527.3 6.1 532 5.9 536.7 5.8 541.3 5.7 546 5.6 550.7 5.6 555.3 5.7 560 5.7" transform="matrix(1,0,0,-1,82.8,592.5)" fill="none" stroke="#87A3CE" stroke-width="0.5"></polyline>
</g>
<g clip-path="url(#zr0-c3)">
<polyline points="0 24.2 4.7 24.1 9.3 24 14 24 18.7 23.9 23.3 23.9 28 23.7 32.7 23.5 37.3 23.7 42 23.3 46.7 23.3 51.3 23.6 56 23.5 60.7 23.4 65.3 23.2 70 23.2 74.7 23.6 79.3 23.6 84 23.6 88.7 23.5 93.3 23.5 98 23.6 102.7 23.7 107.3 23.8 112 23.8 116.7 23.6 121.3 23.5 126 23.8 130.7 23.8 135.3 24 140 23.9 144.7 24.1 149.3 23.9 154 24 158.7 24.1 163.3 24.2 168 24.1 172.7 24.3 177.3 24.1 182 24.2 186.7 23.9 191.3 24 196 24.1 200.7 24.2 205.3 24.3 210 24.4 214.7 24.3 219.3 24.2 224 24.3 228.7 24.2 233.3 24 238 24.4 242.7 24.3 247.3 24.3 252 24.3 256.7 24 261.3 23.9 266 23.8 270.7 23.8 275.3 23.8 280 23.8 284.7 23.8 289.3 24.2 294 24.2 298.7 24.1 303.3 24.1 308 24 312.7 24 317.3 24 322 23.6 326.7 22.1 331.3 21.4 336 20.8 340.7 20.2 345.3 19.1 350 18.6 354.7 18.1 359.3 17.6 364 16.6 368.7 16.2 373.3 15.8 378 15.3 382.7 14.5 387.3 14.1 392 13.7 396.7 13.3 401.3 12.6 406 12.3 410.7 12 415.3 11.6 420 11 424.7 10.7 429.3 10.5 434 10.2 438.7 9.7 443.3 9.4 448 9.2 452.7 9 457.3 8.6 462 8.4 466.7 8.2 471.3 7.8 476 7.7 480.7 7.5 485.3 7.4 490 7.2 494.7 7 499.3 6.8 504 6.7 508.7 6.6 513.3 6.4 518 6.3 522.7 6.2 527.3 6.1 532 5.9 536.7 5.8 541.3 5.7 546 5.6 550.7 5.6 555.3 5.7 560 5.7" transform="matrix(1,0,0,-1,82.8,592.5)" fill="none" stroke="#71708A"></polyline>
</g>
<path d="M-5 -5l691.0547 0l0 22l-691.0547 0Z" transform="translate(59.4727 5)" fill="rgb(0,0,0)" fill-opacity="0" stroke="#ccc" stroke-width="0"></path>
<path d="M0 7L25 7" transform="translate(60.4727 4)" fill="#000" stroke="#ccc" stroke-width="2" stroke-linecap="butt" stroke-miterlimit="10"></path>
<path d="M12.5 1.4L18.1 12.6L6.9 12.6Z" transform="translate(60.4727 4)" fill="#ccc" stroke="#ccc" stroke-width="0" stroke-linecap="butt" stroke-miterlimit="10"></path>
<text dominant-baseline="central" text-anchor="start" style="font-size:12px;font-family:Microsoft YaHei;" x="30" y="7" transform="translate(60.4727 4)" fill="#ccc">Pipe_Pres</text>
<path d="M0 7L25 7" transform="translate(156.1465 4)" fill="#000" stroke="#ccc" stroke-width="2" stroke-linecap="butt" stroke-miterlimit="10"></path>
<path d="M18.1 7A5.6 5.6 0 1 1 18.1 6.9994" transform="translate(156.1465 4)" fill="#ccc" stroke="#ccc" stroke-width="0" stroke-linecap="butt" stroke-miterlimit="10"></path>
<text dominant-baseline="central" text-anchor="start" style="font-size:12px;font-family:Microsoft YaHei;" x="30" y="7" transform="translate(156.1465 4)" fill="#ccc">Ambient_Pres</text>
<path d="M0 7L25 7" transform="translate(276.0313 4)" fill="#000" stroke="#ccc" stroke-width="2" stroke-linecap="butt" stroke-miterlimit="10"></path>
<path d="M12.5 1.4L18.1 12.6L6.9 12.6Z" transform="translate(276.0313 4)" fill="#ccc" stroke="#ccc" stroke-width="0" stroke-linecap="butt" stroke-miterlimit="10"></path>
<text dominant-baseline="central" text-anchor="start" style="font-size:12px;font-family:Microsoft YaHei;" x="30" y="7" transform="translate(276.0313 4)" fill="#ccc">Pipe_Temp</text>
<path d="M0 7L25 7" transform="translate(380.0137 4)" fill="#000" stroke="#ccc" stroke-width="2" stroke-linecap="butt" stroke-miterlimit="10"></path>
<path d="M18.1 7A5.6 5.6 0 1 1 18.1 6.9994" transform="translate(380.0137 4)" fill="#ccc" stroke="#ccc" stroke-width="0" stroke-linecap="butt" stroke-miterlimit="10"></path>
<text dominant-baseline="central" text-anchor="start" style="font-size:12px;font-family:Microsoft YaHei;" x="30" y="7" transform="translate(380.0137 4)" fill="#ccc">Chip_Temp</text>
<path d="M0 7L25 7" transform="translate(485.2617 4)" fill="#000" stroke="#ccc" stroke-width="2" stroke-linecap="butt" stroke-miterlimit="10"></path>
<path d="M18.1 7A5.6 5.6 0 1 1 18.1 6.9994" transform="translate(485.2617 4)" fill="#ccc" stroke="#ccc" stroke-width="0" stroke-linecap="butt" stroke-miterlimit="10"></path>
<text dominant-baseline="central" text-anchor="start" style="font-size:12px;font-family:Microsoft YaHei;" x="30" y="7" transform="translate(485.2617 4)" fill="#ccc">Set_nPressure</text>
<path d="M0 7L25 7" transform="translate(605.8672 4)" fill="#000" stroke="#f7f494" stroke-width="2" stroke-linecap="butt" stroke-miterlimit="10"></path>
<path d="M12.5 1.4L18.1 12.6L6.9 12.6Z" transform="translate(605.8672 4)" fill="#f7f494"></path>
<text dominant-baseline="central" text-anchor="start" style="font-size:12px;font-family:Microsoft YaHei;" x="30" y="7" transform="translate(605.8672 4)" fill="#B9B8CE">Current_nPressure</text>
<path d="M0 0l560 0l0 30l-560 0Z" transform="matrix(1,0,0,-1,82.8,592.5)" fill="none"></path>
<path d="M213 0l347 0l0 30l-347 0Z" transform="matrix(1,0,0,-1,82.8,592.5)" fill="rgb(135,163,206)" fill-opacity="0.2"></path>
<path d="M3.5 0.5L556.5 0.5A3 3 0 0 1 559.5 3.5L559.5 26.5A3 3 0 0 1 556.5 29.5L3.5 29.5A3 3 0 0 1 0.5 26.5L0.5 3.5A3 3 0 0 1 3.5 0.5" transform="matrix(1,0,0,-1,82.8,592.5)" fill="rgb(0,0,0)" fill-opacity="0" stroke="#71708A"></path>
<path d="M213 29.5L560 29.5L560 34.5A2 2 0 0 1 558 36.5L215 36.5A2 2 0 0 1 213 34.5L213 29.5" transform="matrix(1,0,0,-1,82.8,592.5)" fill="#B0B6C3" fill-opacity="0.3"></path>
<path d="M-2.2408 -1.6796C-1.8674 -1.6796 -1.6817 -1.4939 -1.6817 -1.1204L-1.6817 1.1204C-1.6817 1.4939 -1.8674 1.6796 -2.2408 1.6796C-2.6143 1.6796 -2.8 1.4939 -2.8 1.1204L-2.8 -1.1204C-2.8 -1.4939 -2.6143 -1.6796 -2.2408 -1.6796ZM0 -1.6796C0.3735 -1.6796 0.5592 -1.4939 0.5592 -1.1204L0.5592 1.1204C0.5592 1.4939 0.3735 1.6796 0 1.6796C-0.3735 1.6796 -0.5592 1.4939 -0.5592 1.1204L-0.5592 -1.1204C-0.5592 -1.4939 -0.3735 -1.6796 0 -1.6796ZM2.2408 -1.6796C2.6143 -1.6796 2.8 -1.4939 2.8 -1.1204L2.8 1.1204C2.8 1.4939 2.6143 1.6796 2.2408 1.6796C1.8674 1.6796 1.6817 1.4939 1.6817 1.1204L1.6817 -1.1204C1.6796 -1.4939 1.8674 -1.6796 2.2408 -1.6796Z" transform="matrix(1,0,0,-1,469.3,559.5)" fill="#fff"></path>
<path d="M0 1.628L0 2M0 0L0 0.375M-0.1 0.375L0.1 0.375A0.1 0.1 0 0 1 0.2 0.475L0.2 1.525A0.1 0.1 0 0 1 0.1 1.625L-0.1 1.625A0.1 0.1 0 0 1 -0.2 1.525L-0.2 0.475A0.1 0.1 0 0 1 -0.1 0.375Z" transform="matrix(15,0,0,-15,296.8,592.5)" fill="#353450" stroke="#C5CBE3" stroke-width="0.06666666666666667"></path>
<path d="M0 1.628L0 2M0 0L0 0.375M-0.1 0.375L0.1 0.375A0.1 0.1 0 0 1 0.2 0.475L0.2 1.525A0.1 0.1 0 0 1 0.1 1.625L-0.1 1.625A0.1 0.1 0 0 1 -0.2 1.525L-0.2 0.475A0.1 0.1 0 0 1 -0.1 0.375Z" transform="matrix(15,0,0,-15,641.8,592.5)" fill="#353450" stroke="#C5CBE3" stroke-width="0.06666666666666667"></path>
<defs >
<clipPath id="zr0-c0">
<path d="M79 59l562 0l0 472l-562 0Z" fill="#000"></path>
</clipPath>
<clipPath id="zr0-c1">
<path d="M0 0l213 0l0 30l-213 0Z" transform="matrix(1,0,0,-1,82.8,592.5)" fill="#000"></path>
</clipPath>
<clipPath id="zr0-c2">
<path d="M213 0l347 0l0 30l-347 0Z" transform="matrix(1,0,0,-1,82.8,592.5)" fill="#000"></path>
</clipPath>
<clipPath id="zr0-c3">
<path d="M560 0l0 0l0 30l0 0Z" transform="matrix(1,0,0,-1,82.8,592.5)" fill="#000"></path>
</clipPath>
</defs>
</svg>