<svg width="800" height="600" xmlns="http://www.w3.org/2000/svg" xmlns:xlink="http://www.w3.org/1999/xlink" version="1.1" baseProfile="full" viewBox="0 0 800 600">
<rect width="800" height="600" x="0" y="0" id="0" fill="rgb(40, 44, 52)" fill-opacity="1"></rect>
<path d="M80 530.5L640 530.5" fill="none" stroke="#484753"></path>
<path d="M80 436.5L640 436.5" fill="none" stroke="#484753"></path>
<path d="M80 342.5L640 342.5" fill="none" stroke="#484753"></path>
<path d="M80 248.5L640 248.5" fill="none" stroke="#484753"></path>
<path d="M80 154.5L640 154.5" fill="none" stroke="#484753"></path>
<path d="M80 60.5L640 60.5" fill="none" stroke="#484753"></path>
<path d="M80.5 530L80.5 60" fill="none" stroke="#ACDFED" stroke-linecap="round"></path>
<text dominant-baseline="central" text-anchor="middle" style="font-size:12px;font-family:Microsoft YaHei;" y="-6" transform="translate(80 45)" fill="#B9B8CE">压力</text>
<path d="M640.5 530L640.5 60" fill="none" stroke="#FFAB91" stroke-linecap="round"></path>
<text dominant-baseline="central" text-anchor="middle" style="font-size:12px;font-family:Microsoft YaHei;" y="-6" transform="translate(640 45)" fill="#B9B8CE">温度</text>
<path d="M720.5 530L720.5 60" fill="none" stroke="#f7f494" stroke-linecap="round"></path>
<text dominant-baseline="central" text-anchor="middle" style="font-size:12px;font-family:Microsoft YaHei;" y="-6" transform="translate(720 45)" fill="#B9B8CE">负压</text>
<path d="M80 530.5L640 530.5" fill="none" stroke="#B9B8CE" stroke-linecap="round"></path>
<path d="M81.5 530L81.5 535" fill="none" stroke="#B9B8CE"></path>
<path d="M146.5 530L146.5 535" fill="none" stroke="#B9B8CE"></path>
<path d="M211.5 530L211.5 535" fill="none" stroke="#B9B8CE"></path>
<path d="M276.5 530L276.5 535" fill="none" stroke="#B9B8CE"></path>
<path d="M341.5 530L341.5 535" fill="none" stroke="#B9B8CE"></path>
<path d="M406.5 530L406.5 535" fill="none" stroke="#B9B8CE"></path>
<path d="M471.5 530L471.5 535" fill="none" stroke="#B9B8CE"></path>
<path d="M536.5 530L536.5 535" fill="none" stroke="#B9B8CE"></path>
<path d="M601.5 530L601.5 535" fill="none" stroke="#B9B8CE"></path>
<text dominant-baseline="central" text-anchor="start" style="font-size:12px;font-family:Microsoft YaHei;" xml:space="preserve" transform="translate(728 530)" fill="#B9B8CE">0 hPa</text>
<text dominant-baseline="central" text-anchor="start" style="font-size:12px;font-family:Microsoft YaHei;" xml:space="preserve" transform="translate(728 436)" fill="#B9B8CE">20 hPa</text>
<text dominant-baseline="central" text-anchor="start" style="font-size:12px;font-family:Microsoft YaHei;" xml:space="preserve" transform="translate(728 342)" fill="#B9B8CE">40 hPa</text>
<text dominant-baseline="central" text-anchor="start" style="font-size:12px;font-family:Microsoft YaHei;" xml:space="preserve" transform="translate(728 248)" fill="#B9B8CE">60 hPa</text>
<text dominant-baseline="central" text-anchor="start" style="font-size:12px;font-family:Microsoft YaHei;" xml:space="preserve" transform="translate(728 154)" fill="#B9B8CE">80 hPa</text>
<text dominant-baseline="central" text-anchor="start" style="font-size:12px;font-family:Microsoft YaHei;" xml:space="preserve" transform="translate(728 60)" fill="#B9B8CE">100 hPa</text>
<text dominant-baseline="central" text-anchor="middle" style="font-size:12px;font-family:Microsoft YaHei;" y="6" transform="translate(81.547 538)" fill="#B9B8CE">19:02:19</text>
<text dominant-baseline="central" text-anchor="middle" style="font-size:12px;font-family:Microsoft YaHei;" y="6" transform="translate(146.5193 538)" fill="#B9B8CE">19:02:40</text>
<text dominant-baseline="central" text-anchor="middle" style="font-size:12px;font-family:Microsoft YaHei;" y="6" transform="translate(211.4917 538)" fill="#B9B8CE">19:03:01</text>
<text dominant-baseline="central" text-anchor="middle" style="font-size:12px;font-family:Microsoft YaHei;" y="6" transform="translate(276.4641 538)" fill="#B9B8CE">19:03:22</text>
<text dominant-baseline="central" text-anchor="middle" style="font-size:12px;font-family:Microsoft YaHei;" y="6" transform="translate(341.4365 538)" fill="#B9B8CE">19:03:43</text>
<text dominant-baseline="central" text-anchor="middle" style="font-size:12px;font-family:Microsoft YaHei;" y="6" transform="translate(406.4088 538)" fill="#B9B8CE">19:04:04</text>
<text dominant-baseline="central" text-anchor="middle" style="font-size:12px;font-family:Microsoft YaHei;" y="6" transform="translate(471.3812 538)" fill="#B9B8CE">19:04:25</text>
<text dominant-baseline="central" text-anchor="middle" style="font-size:12px;font-family:Microsoft YaHei;" y="6" transform="translate(536.3536 538)" fill="#B9B8CE">19:04:46</text>
<text dominant-baseline="central" text-anchor="middle" style="font-size:12px;font-family:Microsoft YaHei;" y="6" transform="translate(601.326 538)" fill="#B9B8CE">19:05:07</text>
<g clip-path="url(#zr0-c0)">
<path d="M81.547 525.77L84.6409 525.77L87.7348 525.77L90.8287 525.77L93.9227 525.77L97.0166 525.77L100.1105 525.77L103.2044 525.77L106.2983 525.77L109.3923 525.77L112.4862 525.77L115.5801 525.77L118.674 525.77L121.768 525.77L124.8619 525.77L127.9558 525.77L131.0497 525.77L134.1436 525.77L137.2376 525.77L140.3315 525.77L143.4254 525.77L146.5193 525.77L149.6133 525.77L152.7072 525.77L155.8011 525.77L158.895 525.77L161.989 525.77L165.0829 525.77L168.1768 525.77L171.2707 525.77L174.3646 525.77L177.4586 525.77L180.5525 525.77L183.6464 525.77L186.7403 525.77L189.8343 525.77L192.9282 505.56L196.0221 392.76L199.116 388.06L202.2099 328.37L205.3039 275.26L208.3978 224.97L211.4917 182.67L214.5856 171.39L217.6796 132.85L220.7735 120.63L223.8674 80.21L226.9613 82.56L230.0553 86.32L233.1492 79.74L236.2431 91.49L239.337 85.85L242.4309 85.85L245.5249 92.9L248.6188 97.6L251.7127 99.01L254.8066 102.3L257.9005 103.71L260.9945 97.6L264.0884 99.01L267.1823 107L270.2762 108.41L273.3702 103.24L276.4641 104.18L279.558 112.64L282.6519 112.17L285.7458 109.35L288.8398 117.81L291.9337 114.99L295.0276 112.17L298.1216 117.34L301.2155 116.4L304.3094 119.69L307.4033 115.93L310.4972 122.51L313.5912 127.21L316.6851 121.1L319.779 124.86L322.8729 121.1L325.9669 127.21L329.0608 130.03L332.1547 128.62L335.2486 129.56L338.3425 119.22L341.4365 127.68L344.5304 126.74L347.6243 130.97L350.7182 132.38L353.8122 132.38L356.9061 133.79L360 124.39L363.0939 130.03L366.1878 129.56L369.2818 132.85L372.3757 127.21L375.4696 124.39L378.5635 123.92L381.6575 129.56L384.7514 131.91L387.8453 130.03L390.9392 132.38L394.0331 127.68L397.1271 133.79L400.221 135.2L403.3149 128.62L406.4088 131.44L409.5028 127.21L412.5967 131.44L415.6906 137.55L418.7845 134.73L421.8784 126.74L424.9724 133.32L428.0663 129.56L431.1602 129.56L434.2542 138.02L437.3481 131.91L440.442 130.5L443.5359 133.79L446.6298 130.03L449.7238 134.26L452.8177 138.02L455.9116 133.32L459.0055 129.56L462.0995 134.26L465.1934 132.38L468.2873 137.55L471.3812 134.73L474.4751 127.68L477.5691 134.73L480.663 134.73L483.7569 130.97L486.8508 129.56L489.9448 130.97L493.0387 136.61L496.1326 132.85L499.2265 130.97L502.3204 130.97L505.4144 136.14L508.5083 133.79L511.6022 132.85L514.6961 134.26L517.79 132.85L520.884 134.73L523.9779 135.67L527.0718 135.67L530.1658 134.26L533.2596 131.91L536.3536 137.08L539.4475 136.61L542.5414 132.85L545.6354 138.02L548.7293 137.55L551.8232 131.91L554.9171 137.08L558.011 128.15L561.105 136.14L564.1989 130.97L567.2928 137.08L570.3867 128.15L573.4807 129.09L576.5746 130.97L579.6685 135.2L582.7625 135.2L585.8563 130.03L588.9503 130.5L592.0442 129.56L595.1381 136.61L598.2321 139.9L601.326 130.03L604.4199 138.02L607.5138 131.44L610.6077 128.62L613.7017 133.79L616.7956 137.08L619.8895 132.38L622.9834 130.5L626.0773 132.38L629.1713 132.85L632.2652 133.32L635.3591 131.91L638.4531 136.61" fill="none" stroke="#f7f494" stroke-width="2" stroke-linejoin="bevel"></path>
</g>
<g clip-path="url(#zr0-c1)">
<path d="M81.547 135.2L84.6409 135.2L87.7348 135.2L90.8287 135.2L93.9227 135.2L97.0166 135.2L100.1105 135.2L103.2044 135.2L106.2983 135.2L109.3923 135.2L112.4862 135.2L115.5801 135.2L118.674 135.2L121.768 135.2L124.8619 135.2L127.9558 135.2L131.0497 135.2L134.1436 135.2L137.2376 135.2L140.3315 135.2L143.4254 135.2L146.5193 135.2L149.6133 135.2L152.7072 135.2L155.8011 135.2L158.895 135.2L161.989 135.2L165.0829 135.2L168.1768 135.2L171.2707 135.2L174.3646 135.2L177.4586 135.2L180.5525 135.2L183.6464 135.2L186.7403 135.2L189.8343 135.2L192.9282 135.2L196.0221 135.2L199.116 135.2L202.2099 135.2L205.3039 135.2L208.3978 135.2L211.4917 135.2L214.5856 135.2L217.6796 135.2L220.7735 135.2L223.8674 135.2L226.9613 135.2L230.0553 135.2L233.1492 135.2L236.2431 135.2L239.337 135.2L242.4309 135.2L245.5249 135.2L248.6188 135.2L251.7127 135.2L254.8066 135.2L257.9005 135.2L260.9945 135.2L264.0884 135.2L267.1823 135.2L270.2762 135.2L273.3702 135.2L276.4641 135.2L279.558 135.2L282.6519 135.2L285.7458 135.2L288.8398 135.2L291.9337 135.2L295.0276 135.2L298.1216 135.2L301.2155 135.2L304.3094 135.2L307.4033 135.2L310.4972 135.2L313.5912 135.2L316.6851 135.2L319.779 135.2L322.8729 135.2L325.9669 135.2L329.0608 135.2L332.1547 135.2L335.2486 135.2L338.3425 135.2L341.4365 135.2L344.5304 135.2L347.6243 135.2L350.7182 135.2L353.8122 135.2L356.9061 135.2L360 135.2L363.0939 135.2L366.1878 135.2L369.2818 135.2L372.3757 135.2L375.4696 135.2L378.5635 135.2L381.6575 135.2L384.7514 135.2L387.8453 135.2L390.9392 135.2L394.0331 135.2L397.1271 135.2L400.221 135.2L403.3149 135.2L406.4088 135.2L409.5028 135.2L412.5967 135.2L415.6906 135.2L418.7845 135.2L421.8784 135.2L424.9724 135.2L428.0663 135.2L431.1602 135.2L434.2542 135.2L437.3481 135.2L440.442 135.2L443.5359 135.2L446.6298 135.2L449.7238 135.2L452.8177 135.2L455.9116 135.2L459.0055 135.2L462.0995 135.2L465.1934 135.2L468.2873 135.2L471.3812 135.2L474.4751 135.2L477.5691 135.2L480.663 135.2L483.7569 135.2L486.8508 135.2L489.9448 135.2L493.0387 135.2L496.1326 135.2L499.2265 135.2L502.3204 135.2L505.4144 135.2L508.5083 135.2L511.6022 135.2L514.6961 135.2L517.79 135.2L520.884 135.2L523.9779 135.2L527.0718 135.2L530.1658 135.2L533.2596 135.2L536.3536 135.2L539.4475 135.2L542.5414 135.2L545.6354 135.2L548.7293 135.2L551.8232 135.2L554.9171 135.2L558.011 135.2L561.105 135.2L564.1989 135.2L567.2928 135.2L570.3867 135.2L573.4807 135.2L576.5746 135.2L579.6685 135.2L582.7625 135.2L585.8563 135.2L588.9503 135.2L592.0442 135.2L595.1381 135.2L598.2321 135.2L601.326 135.2L604.4199 135.2L607.5138 135.2L610.6077 135.2L613.7017 135.2L616.7956 135.2L619.8895 135.2L622.9834 135.2L626.0773 135.2L629.1713 135.2L632.2652 135.2L635.3591 135.2L638.4531 135.2" fill="none" stroke="#f7f494" stroke-width="2" stroke-linejoin="bevel"></path>
</g>
<path d="M0 -1L1 1L-1 1Z" transform="matrix(5,0,0,5,81.547,525.77)" fill="#f7f494"></path>
<path d="M0 -1L1 1L-1 1Z" transform="matrix(5,0,0,5,146.5193,525.77)" fill="#f7f494"></path>
<path d="M0 -1L1 1L-1 1Z" transform="matrix(5,0,0,5,211.4917,182.67)" fill="#f7f494"></path>
<path d="M0 -1L1 1L-1 1Z" transform="matrix(5,0,0,5,276.4641,104.18)" fill="#f7f494"></path>
<path d="M0 -1L1 1L-1 1Z" transform="matrix(5,0,0,5,341.4365,127.68)" fill="#f7f494"></path>
<path d="M0 -1L1 1L-1 1Z" transform="matrix(5,0,0,5,406.4088,131.44)" fill="#f7f494"></path>
<path d="M0 -1L1 1L-1 1Z" transform="matrix(5,0,0,5,471.3812,134.73)" fill="#f7f494"></path>
<path d="M0 -1L1 1L-1 1Z" transform="matrix(5,0,0,5,536.3536,137.08)" fill="#f7f494"></path>
<path d="M0 -1L1 1L-1 1Z" transform="matrix(5,0,0,5,601.326,130.03)" fill="#f7f494"></path>
<path d="M1 0A1 1 0 1 1 1 -0.0001" transform="matrix(5,0,0,5,81.547,135.2)" fill="#f7f494"></path>
<path d="M1 0A1 1 0 1 1 1 -0.0001" transform="matrix(5,0,0,5,146.5193,135.2)" fill="#f7f494"></path>
<path d="M1 0A1 1 0 1 1 1 -0.0001" transform="matrix(5,0,0,5,211.4917,135.2)" fill="#f7f494"></path>
<path d="M1 0A1 1 0 1 1 1 -0.0001" transform="matrix(5,0,0,5,276.4641,135.2)" fill="#f7f494"></path>
<path d="M1 0A1 1 0 1 1 1 -0.0001" transform="matrix(5,0,0,5,341.4365,135.2)" fill="#f7f494"></path>
<path d="M1 0A1 1 0 1 1 1 -0.0001" transform="matrix(5,0,0,5,406.4088,135.2)" fill="#f7f494"></path>
<path d="M1 0A1 1 0 1 1 1 -0.0001" transform="matrix(5,0,0,5,471.3812,135.2)" fill="#f7f494"></path>
<path d="M1 0A1 1 0 1 1 1 -0.0001" transform="matrix(5,0,0,5,536.3536,135.2)" fill="#f7f494"></path>
<path d="M1 0A1 1 0 1 1 1 -0.0001" transform="matrix(5,0,0,5,601.326,135.2)" fill="#f7f494"></path>
<path d="M0 0l560 0l0 30l-560 0Z" transform="matrix(1,0,0,-1,82.8,592.5)" fill="rgb(47,69,84)" fill-opacity="0"></path>
<g clip-path="url(#zr0-c2)">
<polygon points="560 0 0 0 0 5.6 3.1 5.6 6.2 5.6 9.3 5.6 12.4 5.6 15.6 5.6 18.7 5.6 21.8 5.6 24.9 5.6 28 5.6 31.1 5.6 34.2 5.6 37.3 5.6 40.4 5.6 43.6 5.6 46.7 5.6 49.8 5.6 52.9 5.6 56 5.6 59.1 5.6 62.2 5.6 65.3 5.6 68.4 5.6 71.6 5.6 74.7 5.6 77.8 5.6 80.9 5.6 84 5.6 87.1 5.6 90.2 5.6 93.3 5.6 96.4 5.6 99.6 5.6 102.7 5.6 105.8 5.6 108.9 5.6 112 6.5 115.1 11.2 118.2 11.4 121.3 13.9 124.4 16.2 127.6 18.3 130.7 20 133.8 20.5 136.9 22.1 140 22.7 143.1 24.4 146.2 24.3 149.3 24.1 152.4 24.4 155.6 23.9 158.7 24.1 161.8 24.1 164.9 23.8 168 23.6 171.1 23.6 174.2 23.4 177.3 23.4 180.4 23.6 183.6 23.6 186.7 23.2 189.8 23.2 192.9 23.4 196 23.3 199.1 23 202.2 23 205.3 23.1 208.4 22.8 211.6 22.9 214.7 23 217.8 22.8 220.9 22.8 224 22.7 227.1 22.9 230.2 22.6 233.3 22.4 236.4 22.6 239.6 22.5 242.7 22.6 245.8 22.4 248.9 22.3 252 22.3 255.1 22.3 258.2 22.7 261.3 22.4 264.4 22.4 267.6 22.2 270.7 22.2 273.8 22.2 276.9 22.1 280 22.5 283.1 22.3 286.2 22.3 289.3 22.1 292.4 22.4 295.6 22.5 298.7 22.5 301.8 22.3 304.9 22.2 308 22.3 311.1 22.2 314.2 22.4 317.3 22.1 320.4 22 323.6 22.3 326.7 22.2 329.8 22.4 332.9 22.2 336 21.9 339.1 22.1 342.2 22.4 345.3 22.1 348.4 22.3 351.6 22.3 354.7 21.9 357.8 22.2 360.9 22.2 364 22.1 367.1 22.3 370.2 22.1 373.3 21.9 376.4 22.1 379.6 22.3 382.7 22.1 385.8 22.2 388.9 21.9 392 22.1 395.1 22.4 398.2 22.1 401.3 22.1 404.4 22.2 407.6 22.3 410.7 22.2 413.8 22 416.9 22.1 420 22.2 423.1 22.2 426.2 22 429.3 22.1 432.4 22.1 435.6 22.1 438.7 22.1 441.8 22.1 444.9 22 448 22 451.1 22.1 454.2 22.2 457.3 22 460.4 22 463.6 22.1 466.7 21.9 469.8 21.9 472.9 22.2 476 22 479.1 22.3 482.2 22 485.3 22.2 488.4 22 491.6 22.3 494.7 22.3 497.8 22.2 500.9 22 504 22 507.1 22.3 510.2 22.2 513.3 22.3 516.4 22 519.6 21.8 522.7 22.3 525.8 21.9 528.9 22.2 532 22.3 535.1 22.1 538.2 22 541.3 22.2 544.4 22.2 547.6 22.2 550.7 22.1 553.8 22.1 556.9 22.2 560 22" transform="matrix(1,0,0,-1,82.8,592.5)" fill="#71708A" fill-opacity="0.2"></polygon>
</g>
<g clip-path="url(#zr0-c3)">
<polygon points="560 0 0 0 0 5.6 3.1 5.6 6.2 5.6 9.3 5.6 12.4 5.6 15.6 5.6 18.7 5.6 21.8 5.6 24.9 5.6 28 5.6 31.1 5.6 34.2 5.6 37.3 5.6 40.4 5.6 43.6 5.6 46.7 5.6 49.8 5.6 52.9 5.6 56 5.6 59.1 5.6 62.2 5.6 65.3 5.6 68.4 5.6 71.6 5.6 74.7 5.6 77.8 5.6 80.9 5.6 84 5.6 87.1 5.6 90.2 5.6 93.3 5.6 96.4 5.6 99.6 5.6 102.7 5.6 105.8 5.6 108.9 5.6 112 6.5 115.1 11.2 118.2 11.4 121.3 13.9 124.4 16.2 127.6 18.3 130.7 20 133.8 20.5 136.9 22.1 140 22.7 143.1 24.4 146.2 24.3 149.3 24.1 152.4 24.4 155.6 23.9 158.7 24.1 161.8 24.1 164.9 23.8 168 23.6 171.1 23.6 174.2 23.4 177.3 23.4 180.4 23.6 183.6 23.6 186.7 23.2 189.8 23.2 192.9 23.4 196 23.3 199.1 23 202.2 23 205.3 23.1 208.4 22.8 211.6 22.9 214.7 23 217.8 22.8 220.9 22.8 224 22.7 227.1 22.9 230.2 22.6 233.3 22.4 236.4 22.6 239.6 22.5 242.7 22.6 245.8 22.4 248.9 22.3 252 22.3 255.1 22.3 258.2 22.7 261.3 22.4 264.4 22.4 267.6 22.2 270.7 22.2 273.8 22.2 276.9 22.1 280 22.5 283.1 22.3 286.2 22.3 289.3 22.1 292.4 22.4 295.6 22.5 298.7 22.5 301.8 22.3 304.9 22.2 308 22.3 311.1 22.2 314.2 22.4 317.3 22.1 320.4 22 323.6 22.3 326.7 22.2 329.8 22.4 332.9 22.2 336 21.9 339.1 22.1 342.2 22.4 345.3 22.1 348.4 22.3 351.6 22.3 354.7 21.9 357.8 22.2 360.9 22.2 364 22.1 367.1 22.3 370.2 22.1 373.3 21.9 376.4 22.1 379.6 22.3 382.7 22.1 385.8 22.2 388.9 21.9 392 22.1 395.1 22.4 398.2 22.1 401.3 22.1 404.4 22.2 407.6 22.3 410.7 22.2 413.8 22 416.9 22.1 420 22.2 423.1 22.2 426.2 22 429.3 22.1 432.4 22.1 435.6 22.1 438.7 22.1 441.8 22.1 444.9 22 448 22 451.1 22.1 454.2 22.2 457.3 22 460.4 22 463.6 22.1 466.7 21.9 469.8 21.9 472.9 22.2 476 22 479.1 22.3 482.2 22 485.3 22.2 488.4 22 491.6 22.3 494.7 22.3 497.8 22.2 500.9 22 504 22 507.1 22.3 510.2 22.2 513.3 22.3 516.4 22 519.6 21.8 522.7 22.3 525.8 21.9 528.9 22.2 532 22.3 535.1 22.1 538.2 22 541.3 22.2 544.4 22.2 547.6 22.2 550.7 22.1 553.8 22.1 556.9 22.2 560 22" transform="matrix(1,0,0,-1,82.8,592.5)" fill="#87A3CE" fill-opacity="0.2"></polygon>
</g>
<g clip-path="url(#zr0-c4)">
<polygon points="560 0 0 0 0 5.6 3.1 5.6 6.2 5.6 9.3 5.6 12.4 5.6 15.6 5.6 18.7 5.6 21.8 5.6 24.9 5.6 28 5.6 31.1 5.6 34.2 5.6 37.3 5.6 40.4 5.6 43.6 5.6 46.7 5.6 49.8 5.6 52.9 5.6 56 5.6 59.1 5.6 62.2 5.6 65.3 5.6 68.4 5.6 71.6 5.6 74.7 5.6 77.8 5.6 80.9 5.6 84 5.6 87.1 5.6 90.2 5.6 93.3 5.6 96.4 5.6 99.6 5.6 102.7 5.6 105.8 5.6 108.9 5.6 112 6.5 115.1 11.2 118.2 11.4 121.3 13.9 124.4 16.2 127.6 18.3 130.7 20 133.8 20.5 136.9 22.1 140 22.7 143.1 24.4 146.2 24.3 149.3 24.1 152.4 24.4 155.6 23.9 158.7 24.1 161.8 24.1 164.9 23.8 168 23.6 171.1 23.6 174.2 23.4 177.3 23.4 180.4 23.6 183.6 23.6 186.7 23.2 189.8 23.2 192.9 23.4 196 23.3 199.1 23 202.2 23 205.3 23.1 208.4 22.8 211.6 22.9 214.7 23 217.8 22.8 220.9 22.8 224 22.7 227.1 22.9 230.2 22.6 233.3 22.4 236.4 22.6 239.6 22.5 242.7 22.6 245.8 22.4 248.9 22.3 252 22.3 255.1 22.3 258.2 22.7 261.3 22.4 264.4 22.4 267.6 22.2 270.7 22.2 273.8 22.2 276.9 22.1 280 22.5 283.1 22.3 286.2 22.3 289.3 22.1 292.4 22.4 295.6 22.5 298.7 22.5 301.8 22.3 304.9 22.2 308 22.3 311.1 22.2 314.2 22.4 317.3 22.1 320.4 22 323.6 22.3 326.7 22.2 329.8 22.4 332.9 22.2 336 21.9 339.1 22.1 342.2 22.4 345.3 22.1 348.4 22.3 351.6 22.3 354.7 21.9 357.8 22.2 360.9 22.2 364 22.1 367.1 22.3 370.2 22.1 373.3 21.9 376.4 22.1 379.6 22.3 382.7 22.1 385.8 22.2 388.9 21.9 392 22.1 395.1 22.4 398.2 22.1 401.3 22.1 404.4 22.2 407.6 22.3 410.7 22.2 413.8 22 416.9 22.1 420 22.2 423.1 22.2 426.2 22 429.3 22.1 432.4 22.1 435.6 22.1 438.7 22.1 441.8 22.1 444.9 22 448 22 451.1 22.1 454.2 22.2 457.3 22 460.4 22 463.6 22.1 466.7 21.9 469.8 21.9 472.9 22.2 476 22 479.1 22.3 482.2 22 485.3 22.2 488.4 22 491.6 22.3 494.7 22.3 497.8 22.2 500.9 22 504 22 507.1 22.3 510.2 22.2 513.3 22.3 516.4 22 519.6 21.8 522.7 22.3 525.8 21.9 528.9 22.2 532 22.3 535.1 22.1 538.2 22 541.3 22.2 544.4 22.2 547.6 22.2 550.7 22.1 553.8 22.1 556.9 22.2 560 22" transform="matrix(1,0,0,-1,82.8,592.5)" fill="#71708A" fill-opacity="0.2"></polygon>
</g>
<g clip-path="url(#zr0-c2)">
<polyline points="0 5.6 3.1 5.6 6.2 5.6 9.3 5.6 12.4 5.6 15.6 5.6 18.7 5.6 21.8 5.6 24.9 5.6 28 5.6 31.1 5.6 34.2 5.6 37.3 5.6 40.4 5.6 43.6 5.6 46.7 5.6 49.8 5.6 52.9 5.6 56 5.6 59.1 5.6 62.2 5.6 65.3 5.6 68.4 5.6 71.6 5.6 74.7 5.6 77.8 5.6 80.9 5.6 84 5.6 87.1 5.6 90.2 5.6 93.3 5.6 96.4 5.6 99.6 5.6 102.7 5.6 105.8 5.6 108.9 5.6 112 6.5 115.1 11.2 118.2 11.4 121.3 13.9 124.4 16.2 127.6 18.3 130.7 20 133.8 20.5 136.9 22.1 140 22.7 143.1 24.4 146.2 24.3 149.3 24.1 152.4 24.4 155.6 23.9 158.7 24.1 161.8 24.1 164.9 23.8 168 23.6 171.1 23.6 174.2 23.4 177.3 23.4 180.4 23.6 183.6 23.6 186.7 23.2 189.8 23.2 192.9 23.4 196 23.3 199.1 23 202.2 23 205.3 23.1 208.4 22.8 211.6 22.9 214.7 23 217.8 22.8 220.9 22.8 224 22.7 227.1 22.9 230.2 22.6 233.3 22.4 236.4 22.6 239.6 22.5 242.7 22.6 245.8 22.4 248.9 22.3 252 22.3 255.1 22.3 258.2 22.7 261.3 22.4 264.4 22.4 267.6 22.2 270.7 22.2 273.8 22.2 276.9 22.1 280 22.5 283.1 22.3 286.2 22.3 289.3 22.1 292.4 22.4 295.6 22.5 298.7 22.5 301.8 22.3 304.9 22.2 308 22.3 311.1 22.2 314.2 22.4 317.3 22.1 320.4 22 323.6 22.3 326.7 22.2 329.8 22.4 332.9 22.2 336 21.9 339.1 22.1 342.2 22.4 345.3 22.1 348.4 22.3 351.6 22.3 354.7 21.9 357.8 22.2 360.9 22.2 364 22.1 367.1 22.3 370.2 22.1 373.3 21.9 376.4 22.1 379.6 22.3 382.7 22.1 385.8 22.2 388.9 21.9 392 22.1 395.1 22.4 398.2 22.1 401.3 22.1 404.4 22.2 407.6 22.3 410.7 22.2 413.8 22 416.9 22.1 420 22.2 423.1 22.2 426.2 22 429.3 22.1 432.4 22.1 435.6 22.1 438.7 22.1 441.8 22.1 444.9 22 448 22 451.1 22.1 454.2 22.2 457.3 22 460.4 22 463.6 22.1 466.7 21.9 469.8 21.9 472.9 22.2 476 22 479.1 22.3 482.2 22 485.3 22.2 488.4 22 491.6 22.3 494.7 22.3 497.8 22.2 500.9 22 504 22 507.1 22.3 510.2 22.2 513.3 22.3 516.4 22 519.6 21.8 522.7 22.3 525.8 21.9 528.9 22.2 532 22.3 535.1 22.1 538.2 22 541.3 22.2 544.4 22.2 547.6 22.2 550.7 22.1 553.8 22.1 556.9 22.2 560 22" transform="matrix(1,0,0,-1,82.8,592.5)" fill="none" stroke="#71708A"></polyline>
</g>
<g clip-path="url(#zr0-c3)">
<polyline points="0 5.6 3.1 5.6 6.2 5.6 9.3 5.6 12.4 5.6 15.6 5.6 18.7 5.6 21.8 5.6 24.9 5.6 28 5.6 31.1 5.6 34.2 5.6 37.3 5.6 40.4 5.6 43.6 5.6 46.7 5.6 49.8 5.6 52.9 5.6 56 5.6 59.1 5.6 62.2 5.6 65.3 5.6 68.4 5.6 71.6 5.6 74.7 5.6 77.8 5.6 80.9 5.6 84 5.6 87.1 5.6 90.2 5.6 93.3 5.6 96.4 5.6 99.6 5.6 102.7 5.6 105.8 5.6 108.9 5.6 112 6.5 115.1 11.2 118.2 11.4 121.3 13.9 124.4 16.2 127.6 18.3 130.7 20 133.8 20.5 136.9 22.1 140 22.7 143.1 24.4 146.2 24.3 149.3 24.1 152.4 24.4 155.6 23.9 158.7 24.1 161.8 24.1 164.9 23.8 168 23.6 171.1 23.6 174.2 23.4 177.3 23.4 180.4 23.6 183.6 23.6 186.7 23.2 189.8 23.2 192.9 23.4 196 23.3 199.1 23 202.2 23 205.3 23.1 208.4 22.8 211.6 22.9 214.7 23 217.8 22.8 220.9 22.8 224 22.7 227.1 22.9 230.2 22.6 233.3 22.4 236.4 22.6 239.6 22.5 242.7 22.6 245.8 22.4 248.9 22.3 252 22.3 255.1 22.3 258.2 22.7 261.3 22.4 264.4 22.4 267.6 22.2 270.7 22.2 273.8 22.2 276.9 22.1 280 22.5 283.1 22.3 286.2 22.3 289.3 22.1 292.4 22.4 295.6 22.5 298.7 22.5 301.8 22.3 304.9 22.2 308 22.3 311.1 22.2 314.2 22.4 317.3 22.1 320.4 22 323.6 22.3 326.7 22.2 329.8 22.4 332.9 22.2 336 21.9 339.1 22.1 342.2 22.4 345.3 22.1 348.4 22.3 351.6 22.3 354.7 21.9 357.8 22.2 360.9 22.2 364 22.1 367.1 22.3 370.2 22.1 373.3 21.9 376.4 22.1 379.6 22.3 382.7 22.1 385.8 22.2 388.9 21.9 392 22.1 395.1 22.4 398.2 22.1 401.3 22.1 404.4 22.2 407.6 22.3 410.7 22.2 413.8 22 416.9 22.1 420 22.2 423.1 22.2 426.2 22 429.3 22.1 432.4 22.1 435.6 22.1 438.7 22.1 441.8 22.1 444.9 22 448 22 451.1 22.1 454.2 22.2 457.3 22 460.4 22 463.6 22.1 466.7 21.9 469.8 21.9 472.9 22.2 476 22 479.1 22.3 482.2 22 485.3 22.2 488.4 22 491.6 22.3 494.7 22.3 497.8 22.2 500.9 22 504 22 507.1 22.3 510.2 22.2 513.3 22.3 516.4 22 519.6 21.8 522.7 22.3 525.8 21.9 528.9 22.2 532 22.3 535.1 22.1 538.2 22 541.3 22.2 544.4 22.2 547.6 22.2 550.7 22.1 553.8 22.1 556.9 22.2 560 22" transform="matrix(1,0,0,-1,82.8,592.5)" fill="none" stroke="#87A3CE" stroke-width="0.5"></polyline>
</g>
<g clip-path="url(#zr0-c4)">
<polyline points="0 5.6 3.1 5.6 6.2 5.6 9.3 5.6 12.4 5.6 15.6 5.6 18.7 5.6 21.8 5.6 24.9 5.6 28 5.6 31.1 5.6 34.2 5.6 37.3 5.6 40.4 5.6 43.6 5.6 46.7 5.6 49.8 5.6 52.9 5.6 56 5.6 59.1 5.6 62.2 5.6 65.3 5.6 68.4 5.6 71.6 5.6 74.7 5.6 77.8 5.6 80.9 5.6 84 5.6 87.1 5.6 90.2 5.6 93.3 5.6 96.4 5.6 99.6 5.6 102.7 5.6 105.8 5.6 108.9 5.6 112 6.5 115.1 11.2 118.2 11.4 121.3 13.9 124.4 16.2 127.6 18.3 130.7 20 133.8 20.5 136.9 22.1 140 22.7 143.1 24.4 146.2 24.3 149.3 24.1 152.4 24.4 155.6 23.9 158.7 24.1 161.8 24.1 164.9 23.8 168 23.6 171.1 23.6 174.2 23.4 177.3 23.4 180.4 23.6 183.6 23.6 186.7 23.2 189.8 23.2 192.9 23.4 196 23.3 199.1 23 202.2 23 205.3 23.1 208.4 22.8 211.6 22.9 214.7 23 217.8 22.8 220.9 22.8 224 22.7 227.1 22.9 230.2 22.6 233.3 22.4 236.4 22.6 239.6 22.5 242.7 22.6 245.8 22.4 248.9 22.3 252 22.3 255.1 22.3 258.2 22.7 261.3 22.4 264.4 22.4 267.6 22.2 270.7 22.2 273.8 22.2 276.9 22.1 280 22.5 283.1 22.3 286.2 22.3 289.3 22.1 292.4 22.4 295.6 22.5 298.7 22.5 301.8 22.3 304.9 22.2 308 22.3 311.1 22.2 314.2 22.4 317.3 22.1 320.4 22 323.6 22.3 326.7 22.2 329.8 22.4 332.9 22.2 336 21.9 339.1 22.1 342.2 22.4 345.3 22.1 348.4 22.3 351.6 22.3 354.7 21.9 357.8 22.2 360.9 22.2 364 22.1 367.1 22.3 370.2 22.1 373.3 21.9 376.4 22.1 379.6 22.3 382.7 22.1 385.8 22.2 388.9 21.9 392 22.1 395.1 22.4 398.2 22.1 401.3 22.1 404.4 22.2 407.6 22.3 410.7 22.2 413.8 22 416.9 22.1 420 22.2 423.1 22.2 426.2 22 429.3 22.1 432.4 22.1 435.6 22.1 438.7 22.1 441.8 22.1 444.9 22 448 22 451.1 22.1 454.2 22.2 457.3 22 460.4 22 463.6 22.1 466.7 21.9 469.8 21.9 472.9 22.2 476 22 479.1 22.3 482.2 22 485.3 22.2 488.4 22 491.6 22.3 494.7 22.3 497.8 22.2 500.9 22 504 22 507.1 22.3 510.2 22.2 513.3 22.3 516.4 22 519.6 21.8 522.7 22.3 525.8 21.9 528.9 22.2 532 22.3 535.1 22.1 538.2 22 541.3 22.2 544.4 22.2 547.6 22.2 550.7 22.1 553.8 22.1 556.9 22.2 560 22" transform="matrix(1,0,0,-1,82.8,592.5)" fill="none" stroke="#71708A"></polyline>
</g>
<path d="M-5 -5l691.0547 0l0 22l-691.0547 0Z" transform="translate(59.4727 5)" fill="rgb(0,0,0)" fill-opacity="0" stroke="#ccc" stroke-width="0"></path>
<path d="M0 7L25 7" transform="translate(60.4727 4)" fill="#000" stroke="#ccc" stroke-width="2" stroke-linecap="butt" stroke-miterlimit="10"></path>
<path d="M12.5 1.4L18.1 12.6L6.9 12.6Z" transform="translate(60.4727 4)" fill="#ccc" stroke="#ccc" stroke-width="0" stroke-linecap="butt" stroke-miterlimit="10"></path>
<text dominant-baseline="central" text-anchor="start" style="font-size:12px;font-family:Microsoft YaHei;" x="30" y="7" transform="translate(60.4727 4)" fill="#ccc">Pipe_Pres</text>
<path d="M0 7L25 7" transform="translate(156.1465 4)" fill="#000" stroke="#ccc" stroke-width="2" stroke-linecap="butt" stroke-miterlimit="10"></path>
<path d="M18.1 7A5.6 5.6 0 1 1 18.1 6.9994" transform="translate(156.1465 4)" fill="#ccc" stroke="#ccc" stroke-width="0" stroke-linecap="butt" stroke-miterlimit="10"></path>
<text dominant-baseline="central" text-anchor="start" style="font-size:12px;font-family:Microsoft YaHei;" x="30" y="7" transform="translate(156.1465 4)" fill="#ccc">Ambient_Pres</text>
<path d="M0 7L25 7" transform="translate(276.0313 4)" fill="#000" stroke="#ccc" stroke-width="2" stroke-linecap="butt" stroke-miterlimit="10"></path>
<path d="M12.5 1.4L18.1 12.6L6.9 12.6Z" transform="translate(276.0313 4)" fill="#ccc" stroke="#ccc" stroke-width="0" stroke-linecap="butt" stroke-miterlimit="10"></path>
<text dominant-baseline="central" text-anchor="start" style="font-size:12px;font-family:Microsoft YaHei;" x="30" y="7" transform="translate(276.0313 4)" fill="#ccc">Pipe_Temp</text>
<path d="M0 7L25 7" transform="translate(380.0137 4)" fill="#000" stroke="#ccc" stroke-width="2" stroke-linecap="butt" stroke-miterlimit="10"></path>
<path d="M18.1 7A5.6 5.6 0 1 1 18.1 6.9994" transform="translate(380.0137 4)" fill="#ccc" stroke="#ccc" stroke-width="0" stroke-linecap="butt" stroke-miterlimit="10"></path>
<text dominant-baseline="central" text-anchor="start" style="font-size:12px;font-family:Microsoft YaHei;" x="30" y="7" transform="translate(380.0137 4)" fill="#ccc">Chip_Temp</text>
<path d="M0 7L25 7" transform="translate(485.2617 4)" fill="#000" stroke="#f7f494" stroke-width="2" stroke-linecap="butt" stroke-miterlimit="10"></path>
<path d="M18.1 7A5.6 5.6 0 1 1 18.1 6.9994" transform="translate(485.2617 4)" fill="#f7f494"></path>
<text dominant-baseline="central" text-anchor="start" style="font-size:12px;font-family:Microsoft YaHei;" x="30" y="7" transform="translate(485.2617 4)" fill="#B9B8CE">Set_nPressure</text>
<path d="M0 7L25 7" transform="translate(605.8672 4)" fill="#000" stroke="#f7f494" stroke-width="2" stroke-linecap="butt" stroke-miterlimit="10"></path>
<path d="M12.5 1.4L18.1 12.6L6.9 12.6Z" transform="translate(605.8672 4)" fill="#f7f494"></path>
<text dominant-baseline="central" text-anchor="start" style="font-size:12px;font-family:Microsoft YaHei;" x="30" y="7" transform="translate(605.8672 4)" fill="#B9B8CE">Current_nPressure</text>
<path d="M0 0l560 0l0 30l-560 0Z" transform="matrix(1,0,0,-1,82.8,592.5)" fill="none"></path>
<path d="M0 0l560 0l0 30l-560 0Z" transform="matrix(1,0,0,-1,82.8,592.5)" fill="rgb(135,163,206)" fill-opacity="0.2"></path>
<path d="M3.5 0.5L556.5 0.5A3 3 0 0 1 559.5 3.5L559.5 26.5A3 3 0 0 1 556.5 29.5L3.5 29.5A3 3 0 0 1 0.5 26.5L0.5 3.5A3 3 0 0 1 3.5 0.5" transform="matrix(1,0,0,-1,82.8,592.5)" fill="rgb(0,0,0)" fill-opacity="0" stroke="#71708A"></path>
<path d="M0 29.5L560 29.5L560 34.5A2 2 0 0 1 558 36.5L2 36.5A2 2 0 0 1 0 34.5L0 29.5" transform="matrix(1,0,0,-1,82.8,592.5)" fill="#B0B6C3" fill-opacity="0.3"></path>
<path d="M-2.2408 -1.6796C-1.8674 -1.6796 -1.6817 -1.4939 -1.6817 -1.1204L-1.6817 1.1204C-1.6817 1.4939 -1.8674 1.6796 -2.2408 1.6796C-2.6143 1.6796 -2.8 1.4939 -2.8 1.1204L-2.8 -1.1204C-2.8 -1.4939 -2.6143 -1.6796 -2.2408 -1.6796ZM0 -1.6796C0.3735 -1.6796 0.5592 -1.4939 0.5592 -1.1204L0.5592 1.1204C0.5592 1.4939 0.3735 1.6796 0 1.6796C-0.3735 1.6796 -0.5592 1.4939 -0.5592 1.1204L-0.5592 -1.1204C-0.5592 -1.4939 -0.3735 -1.6796 0 -1.6796ZM2.2408 -1.6796C2.6143 -1.6796 2.8 -1.4939 2.8 -1.1204L2.8 1.1204C2.8 1.4939 2.6143 1.6796 2.2408 1.6796C1.8674 1.6796 1.6817 1.4939 1.6817 1.1204L1.6817 -1.1204C1.6796 -1.4939 1.8674 -1.6796 2.2408 -1.6796Z" transform="matrix(1,0,0,-1,362.8,559.5)" fill="#fff"></path>
<path d="M0 1.628L0 2M0 0L0 0.375M-0.1 0.375L0.1 0.375A0.1 0.1 0 0 1 0.2 0.475L0.2 1.525A0.1 0.1 0 0 1 0.1 1.625L-0.1 1.625A0.1 0.1 0 0 1 -0.2 1.525L-0.2 0.475A0.1 0.1 0 0 1 -0.1 0.375Z" transform="matrix(15,0,0,-15,83.8,592.5)" fill="#353450" stroke="#C5CBE3" stroke-width="0.06666666666666667"></path>
<path d="M0 1.628L0 2M0 0L0 0.375M-0.1 0.375L0.1 0.375A0.1 0.1 0 0 1 0.2 0.475L0.2 1.525A0.1 0.1 0 0 1 0.1 1.625L-0.1 1.625A0.1 0.1 0 0 1 -0.2 1.525L-0.2 0.475A0.1 0.1 0 0 1 -0.1 0.375Z" transform="matrix(15,0,0,-15,641.8,592.5)" fill="#353450" stroke="#C5CBE3" stroke-width="0.06666666666666667"></path>
<defs >
<clipPath id="zr0-c0">
<path d="M79 59l562 0l0 472l-562 0Z" fill="#000"></path>
</clipPath>
<clipPath id="zr0-c1">
<path d="M79 59l562 0l0 472l-562 0Z" fill="#000"></path>
</clipPath>
<clipPath id="zr0-c2">
<path d="M0 0l0 0l0 30l0 0Z" transform="matrix(1,0,0,-1,82.8,592.5)" fill="#000"></path>
</clipPath>
<clipPath id="zr0-c3">
<path d="M0 0l560 0l0 30l-560 0Z" transform="matrix(1,0,0,-1,82.8,592.5)" fill="#000"></path>
</clipPath>
<clipPath id="zr0-c4">
<path d="M560 0l0 0l0 30l0 0Z" transform="matrix(1,0,0,-1,82.8,592.5)" fill="#000"></path>
</clipPath>
</defs>
</svg>