<svg width="800" height="600" xmlns="http://www.w3.org/2000/svg" xmlns:xlink="http://www.w3.org/1999/xlink" version="1.1" baseProfile="full" viewBox="0 0 800 600">
<rect width="800" height="600" x="0" y="0" id="0" fill="rgb(40, 44, 52)" fill-opacity="1"></rect>
<path d="M80 530.5L640 530.5" fill="none" stroke="#484753"></path>
<path d="M80 451.5L640 451.5" fill="none" stroke="#484753"></path>
<path d="M80 373.5L640 373.5" fill="none" stroke="#484753"></path>
<path d="M80 295.5L640 295.5" fill="none" stroke="#484753"></path>
<path d="M80 216.5L640 216.5" fill="none" stroke="#484753"></path>
<path d="M80 138.5L640 138.5" fill="none" stroke="#484753"></path>
<path d="M80 60.5L640 60.5" fill="none" stroke="#484753"></path>
<path d="M80.5 530L80.5 60" fill="none" stroke="#ACDFED" stroke-linecap="round"></path>
<text dominant-baseline="central" text-anchor="middle" style="font-size:12px;font-family:Microsoft YaHei;" y="-6" transform="translate(80 45)" fill="#B9B8CE">压力</text>
<path d="M640.5 530L640.5 60" fill="none" stroke="#FFAB91" stroke-linecap="round"></path>
<text dominant-baseline="central" text-anchor="middle" style="font-size:12px;font-family:Microsoft YaHei;" y="-6" transform="translate(640 45)" fill="#B9B8CE">温度</text>
<path d="M720.5 530L720.5 60" fill="none" stroke="#f7f494" stroke-linecap="round"></path>
<text dominant-baseline="central" text-anchor="middle" style="font-size:12px;font-family:Microsoft YaHei;" y="-6" transform="translate(720 45)" fill="#B9B8CE">负压</text>
<path d="M80 530.5L640 530.5" fill="none" stroke="#B9B8CE" stroke-linecap="round"></path>
<path d="M82.5 530L82.5 535" fill="none" stroke="#B9B8CE"></path>
<path d="M147.5 530L147.5 535" fill="none" stroke="#B9B8CE"></path>
<path d="M212.5 530L212.5 535" fill="none" stroke="#B9B8CE"></path>
<path d="M276.5 530L276.5 535" fill="none" stroke="#B9B8CE"></path>
<path d="M341.5 530L341.5 535" fill="none" stroke="#B9B8CE"></path>
<path d="M406.5 530L406.5 535" fill="none" stroke="#B9B8CE"></path>
<path d="M471.5 530L471.5 535" fill="none" stroke="#B9B8CE"></path>
<path d="M536.5 530L536.5 535" fill="none" stroke="#B9B8CE"></path>
<path d="M600.5 530L600.5 535" fill="none" stroke="#B9B8CE"></path>
<text dominant-baseline="central" text-anchor="start" style="font-size:12px;font-family:Microsoft YaHei;" xml:space="preserve" transform="translate(728 530)" fill="#B9B8CE">0 hPa</text>
<text dominant-baseline="central" text-anchor="start" style="font-size:12px;font-family:Microsoft YaHei;" xml:space="preserve" transform="translate(728 451.6667)" fill="#B9B8CE">10 hPa</text>
<text dominant-baseline="central" text-anchor="start" style="font-size:12px;font-family:Microsoft YaHei;" xml:space="preserve" transform="translate(728 373.3333)" fill="#B9B8CE">20 hPa</text>
<text dominant-baseline="central" text-anchor="start" style="font-size:12px;font-family:Microsoft YaHei;" xml:space="preserve" transform="translate(728 295)" fill="#B9B8CE">30 hPa</text>
<text dominant-baseline="central" text-anchor="start" style="font-size:12px;font-family:Microsoft YaHei;" xml:space="preserve" transform="translate(728 216.6667)" fill="#B9B8CE">40 hPa</text>
<text dominant-baseline="central" text-anchor="start" style="font-size:12px;font-family:Microsoft YaHei;" xml:space="preserve" transform="translate(728 138.3333)" fill="#B9B8CE">50 hPa</text>
<text dominant-baseline="central" text-anchor="start" style="font-size:12px;font-family:Microsoft YaHei;" xml:space="preserve" transform="translate(728 60)" fill="#B9B8CE">60 hPa</text>
<text dominant-baseline="central" text-anchor="middle" style="font-size:12px;font-family:Microsoft YaHei;" y="6" transform="translate(82.314 538)" fill="#B9B8CE">14:30:33</text>
<text dominant-baseline="central" text-anchor="middle" style="font-size:12px;font-family:Microsoft YaHei;" y="6" transform="translate(147.1074 538)" fill="#B9B8CE">14:30:47</text>
<text dominant-baseline="central" text-anchor="middle" style="font-size:12px;font-family:Microsoft YaHei;" y="6" transform="translate(211.9008 538)" fill="#B9B8CE">14:31:01</text>
<text dominant-baseline="central" text-anchor="middle" style="font-size:12px;font-family:Microsoft YaHei;" y="6" transform="translate(276.6942 538)" fill="#B9B8CE">14:31:15</text>
<text dominant-baseline="central" text-anchor="middle" style="font-size:12px;font-family:Microsoft YaHei;" y="6" transform="translate(341.4876 538)" fill="#B9B8CE">14:31:29</text>
<text dominant-baseline="central" text-anchor="middle" style="font-size:12px;font-family:Microsoft YaHei;" y="6" transform="translate(406.281 538)" fill="#B9B8CE">14:31:43</text>
<text dominant-baseline="central" text-anchor="middle" style="font-size:12px;font-family:Microsoft YaHei;" y="6" transform="translate(471.0744 538)" fill="#B9B8CE">14:31:57</text>
<text dominant-baseline="central" text-anchor="middle" style="font-size:12px;font-family:Microsoft YaHei;" y="6" transform="translate(535.8678 538)" fill="#B9B8CE">14:32:11</text>
<text dominant-baseline="central" text-anchor="middle" style="font-size:12px;font-family:Microsoft YaHei;" y="6" transform="translate(600.6612 538)" fill="#B9B8CE">14:32:25</text>
<g clip-path="url(#zr0-c0)">
<path d="M82.314 259.75L86.9421 204.1333L91.5703 204.9167L96.1983 186.9L100.8264 163.4L105.4545 177.5L110.0826 134.4167L114.7107 125.8L119.3388 130.5L123.9669 111.7L128.595 104.65L133.2231 99.95L137.8512 109.35L142.4793 116.4L147.1074 97.6L151.7355 94.4667L156.3636 109.35L160.9917 107L165.6198 79.5833L170.2479 89.7667L174.876 101.5167L179.5041 99.1667L184.1322 99.1667L188.7603 94.4667L193.3884 110.1333L198.0165 112.4833L202.6446 94.4667L207.2727 106.2167L211.9008 104.65L216.5289 122.6667L221.157 126.5833L225.7851 127.3667L230.4132 106.2167L235.0413 107L239.6694 110.1333L244.2975 118.75L248.9256 118.75L253.5537 130.5L258.1818 121.8833L262.8099 132.85L267.438 121.8833L272.0661 130.5L276.6942 124.2333L281.3223 128.9333L285.9504 150.0833L290.5785 143.8167L295.2066 125.8L299.8347 135.2L304.4628 149.3L309.0909 142.25L313.719 143.0333L318.3471 132.0667L322.9752 154L327.6033 135.2L332.2314 135.2L336.8595 146.95L341.4876 150.8667L346.1157 141.4667L350.7438 131.2833L355.3719 153.2167L360 153.2167L364.6281 131.2833L369.2562 150.0833L373.8843 146.95L378.5124 132.85L383.1405 137.55L387.7686 138.3333L392.3967 137.55L397.0248 132.0667L401.6529 150.0833L406.281 132.85L410.9091 130.5L415.5372 151.65L420.1653 130.5L424.7934 131.2833L429.4215 150.0833L434.0496 148.5167L438.6777 151.65L443.3058 132.0667L447.9339 134.4167L452.562 147.7333L457.1901 136.7667L461.8182 131.2833L466.4463 128.9333L471.0744 146.95L475.7025 147.7333L480.3306 151.65L484.9587 135.2L489.5868 128.9333L494.2149 139.9L498.843 128.15L503.4711 150.8667L508.0992 132.0667L512.7273 131.2833L517.3553 150.0833L521.9835 133.6333L526.6116 133.6333L531.2397 133.6333L535.8678 131.2833L540.4958 145.3833L545.124 129.7167L549.7521 146.95L554.3802 125.0167L559.0082 148.5167L563.6364 129.7167L568.2645 142.25L572.8926 129.7167L577.5207 133.6333L582.1487 139.1167L586.7769 151.65L591.405 143.8167L596.0331 148.5167L600.6611 148.5167L605.2892 147.7333L609.9174 145.3833L614.5455 144.6L619.1736 139.9L623.8016 128.15L628.4297 126.5833L633.0579 136.7667L637.686 145.3833" fill="none" stroke="#f7f494" stroke-width="2" stroke-linejoin="bevel"></path>
</g>
<g clip-path="url(#zr0-c1)">
<path d="M82.314 138.3333L86.9421 138.3333L91.5703 138.3333L96.1983 138.3333L100.8264 138.3333L105.4545 138.3333L110.0826 138.3333L114.7107 138.3333L119.3388 138.3333L123.9669 138.3333L128.595 138.3333L133.2231 138.3333L137.8512 138.3333L142.4793 138.3333L147.1074 138.3333L151.7355 138.3333L156.3636 138.3333L160.9917 138.3333L165.6198 138.3333L170.2479 138.3333L174.876 138.3333L179.5041 138.3333L184.1322 138.3333L188.7603 138.3333L193.3884 138.3333L198.0165 138.3333L202.6446 138.3333L207.2727 138.3333L211.9008 138.3333L216.5289 138.3333L221.157 138.3333L225.7851 138.3333L230.4132 138.3333L235.0413 138.3333L239.6694 138.3333L244.2975 138.3333L248.9256 138.3333L253.5537 138.3333L258.1818 138.3333L262.8099 138.3333L267.438 138.3333L272.0661 138.3333L276.6942 138.3333L281.3223 138.3333L285.9504 138.3333L290.5785 138.3333L295.2066 138.3333L299.8347 138.3333L304.4628 138.3333L309.0909 138.3333L313.719 138.3333L318.3471 138.3333L322.9752 138.3333L327.6033 138.3333L332.2314 138.3333L336.8595 138.3333L341.4876 138.3333L346.1157 138.3333L350.7438 138.3333L355.3719 138.3333L360 138.3333L364.6281 138.3333L369.2562 138.3333L373.8843 138.3333L378.5124 138.3333L383.1405 138.3333L387.7686 138.3333L392.3967 138.3333L397.0248 138.3333L401.6529 138.3333L406.281 138.3333L410.9091 138.3333L415.5372 138.3333L420.1653 138.3333L424.7934 138.3333L429.4215 138.3333L434.0496 138.3333L438.6777 138.3333L443.3058 138.3333L447.9339 138.3333L452.562 138.3333L457.1901 138.3333L461.8182 138.3333L466.4463 138.3333L471.0744 138.3333L475.7025 138.3333L480.3306 138.3333L484.9587 138.3333L489.5868 138.3333L494.2149 138.3333L498.843 138.3333L503.4711 138.3333L508.0992 138.3333L512.7273 138.3333L517.3553 138.3333L521.9835 138.3333L526.6116 138.3333L531.2397 138.3333L535.8678 138.3333L540.4958 138.3333L545.124 138.3333L549.7521 138.3333L554.3802 138.3333L559.0082 138.3333L563.6364 138.3333L568.2645 138.3333L572.8926 138.3333L577.5207 138.3333L582.1487 138.3333L586.7769 138.3333L591.405 138.3333L596.0331 138.3333L600.6611 138.3333L605.2892 138.3333L609.9174 138.3333L614.5455 138.3333L619.1736 138.3333L623.8016 138.3333L628.4297 138.3333L633.0579 138.3333L637.686 138.3333" fill="none" stroke="#f7f494" stroke-width="2" stroke-linejoin="bevel"></path>
</g>
<path d="M0 -1L1 1L-1 1Z" transform="matrix(5,0,0,5,82.314,259.75)" fill="#f7f494"></path>
<path d="M0 -1L1 1L-1 1Z" transform="matrix(5,0,0,5,147.1074,97.6)" fill="#f7f494"></path>
<path d="M0 -1L1 1L-1 1Z" transform="matrix(5,0,0,5,211.9008,104.65)" fill="#f7f494"></path>
<path d="M0 -1L1 1L-1 1Z" transform="matrix(5,0,0,5,276.6942,124.2333)" fill="#f7f494"></path>
<path d="M0 -1L1 1L-1 1Z" transform="matrix(5,0,0,5,341.4876,150.8667)" fill="#f7f494"></path>
<path d="M0 -1L1 1L-1 1Z" transform="matrix(5,0,0,5,406.281,132.85)" fill="#f7f494"></path>
<path d="M0 -1L1 1L-1 1Z" transform="matrix(5,0,0,5,471.0744,146.95)" fill="#f7f494"></path>
<path d="M0 -1L1 1L-1 1Z" transform="matrix(5,0,0,5,535.8678,131.2833)" fill="#f7f494"></path>
<path d="M0 -1L1 1L-1 1Z" transform="matrix(5,0,0,5,600.6611,148.5167)" fill="#f7f494"></path>
<path d="M1 0A1 1 0 1 1 1 -0.0001" transform="matrix(5,0,0,5,82.314,138.3333)" fill="#f7f494"></path>
<path d="M1 0A1 1 0 1 1 1 -0.0001" transform="matrix(5,0,0,5,147.1074,138.3333)" fill="#f7f494"></path>
<path d="M1 0A1 1 0 1 1 1 -0.0001" transform="matrix(5,0,0,5,211.9008,138.3333)" fill="#f7f494"></path>
<path d="M1 0A1 1 0 1 1 1 -0.0001" transform="matrix(5,0,0,5,276.6942,138.3333)" fill="#f7f494"></path>
<path d="M1 0A1 1 0 1 1 1 -0.0001" transform="matrix(5,0,0,5,341.4876,138.3333)" fill="#f7f494"></path>
<path d="M1 0A1 1 0 1 1 1 -0.0001" transform="matrix(5,0,0,5,406.281,138.3333)" fill="#f7f494"></path>
<path d="M1 0A1 1 0 1 1 1 -0.0001" transform="matrix(5,0,0,5,471.0744,138.3333)" fill="#f7f494"></path>
<path d="M1 0A1 1 0 1 1 1 -0.0001" transform="matrix(5,0,0,5,535.8678,138.3333)" fill="#f7f494"></path>
<path d="M1 0A1 1 0 1 1 1 -0.0001" transform="matrix(5,0,0,5,600.6611,138.3333)" fill="#f7f494"></path>
<path d="M0 0l560 0l0 30l-560 0Z" transform="matrix(1,0,0,-1,82.8,592.5)" fill="rgb(47,69,84)" fill-opacity="0"></path>
<g clip-path="url(#zr0-c2)">
<polygon points="560 0 0 0 0 5.6 4.7 11.4 9.3 11.3 14 13.2 18.7 15.7 23.3 14.2 28 18.7 32.7 19.6 37.3 19.1 42 21 46.7 21.8 51.3 22.3 56 21.3 60.7 20.5 65.3 22.5 70 22.8 74.7 21.3 79.3 21.5 84 24.4 88.7 23.3 93.3 22.1 98 22.3 102.7 22.3 107.3 22.8 112 21.2 116.7 21 121.3 22.8 126 21.6 130.7 21.8 135.3 19.9 140 19.5 144.7 19.4 149.3 21.6 154 21.5 158.7 21.2 163.3 20.3 168 20.3 172.7 19.1 177.3 20 182 18.8 186.7 20 191.3 19.1 196 19.7 200.7 19.2 205.3 17 210 17.7 214.7 19.6 219.3 18.6 224 17.1 228.7 17.9 233.3 17.8 238 18.9 242.7 16.6 247.3 18.6 252 18.6 256.7 17.4 261.3 17 266 17.9 270.7 19 275.3 16.7 280 16.7 284.7 19 289.3 17 294 17.4 298.7 18.8 303.3 18.3 308 18.3 312.7 18.3 317.3 18.9 322 17 326.7 18.8 331.3 19.1 336 16.9 340.7 19.1 345.3 19 350 17 354.7 17.2 359.3 16.9 364 18.9 368.7 18.7 373.3 17.3 378 18.4 382.7 19 387.3 19.2 392 17.4 396.7 17.3 401.3 16.9 406 18.6 410.7 19.2 415.3 18.1 420 19.3 424.7 17 429.3 18.9 434 19 438.7 17 443.3 18.7 448 18.7 452.7 18.7 457.3 19 462 17.5 466.7 19.2 471.3 17.4 476 19.6 480.7 17.2 485.3 19.2 490 17.9 494.7 19.2 499.3 18.7 504 18.2 508.7 16.9 513.3 17.7 518 17.2 522.7 17.2 527.3 17.3 532 17.5 536.7 17.6 541.3 18.1 546 19.3 550.7 19.5 555.3 18.4 560 17.5" transform="matrix(1,0,0,-1,82.8,592.5)" fill="#71708A" fill-opacity="0.2"></polygon>
</g>
<g clip-path="url(#zr0-c3)">
<polygon points="560 0 0 0 0 5.6 4.7 11.4 9.3 11.3 14 13.2 18.7 15.7 23.3 14.2 28 18.7 32.7 19.6 37.3 19.1 42 21 46.7 21.8 51.3 22.3 56 21.3 60.7 20.5 65.3 22.5 70 22.8 74.7 21.3 79.3 21.5 84 24.4 88.7 23.3 93.3 22.1 98 22.3 102.7 22.3 107.3 22.8 112 21.2 116.7 21 121.3 22.8 126 21.6 130.7 21.8 135.3 19.9 140 19.5 144.7 19.4 149.3 21.6 154 21.5 158.7 21.2 163.3 20.3 168 20.3 172.7 19.1 177.3 20 182 18.8 186.7 20 191.3 19.1 196 19.7 200.7 19.2 205.3 17 210 17.7 214.7 19.6 219.3 18.6 224 17.1 228.7 17.9 233.3 17.8 238 18.9 242.7 16.6 247.3 18.6 252 18.6 256.7 17.4 261.3 17 266 17.9 270.7 19 275.3 16.7 280 16.7 284.7 19 289.3 17 294 17.4 298.7 18.8 303.3 18.3 308 18.3 312.7 18.3 317.3 18.9 322 17 326.7 18.8 331.3 19.1 336 16.9 340.7 19.1 345.3 19 350 17 354.7 17.2 359.3 16.9 364 18.9 368.7 18.7 373.3 17.3 378 18.4 382.7 19 387.3 19.2 392 17.4 396.7 17.3 401.3 16.9 406 18.6 410.7 19.2 415.3 18.1 420 19.3 424.7 17 429.3 18.9 434 19 438.7 17 443.3 18.7 448 18.7 452.7 18.7 457.3 19 462 17.5 466.7 19.2 471.3 17.4 476 19.6 480.7 17.2 485.3 19.2 490 17.9 494.7 19.2 499.3 18.7 504 18.2 508.7 16.9 513.3 17.7 518 17.2 522.7 17.2 527.3 17.3 532 17.5 536.7 17.6 541.3 18.1 546 19.3 550.7 19.5 555.3 18.4 560 17.5" transform="matrix(1,0,0,-1,82.8,592.5)" fill="#87A3CE" fill-opacity="0.2"></polygon>
</g>
<g clip-path="url(#zr0-c4)">
<polygon points="560 0 0 0 0 5.6 4.7 11.4 9.3 11.3 14 13.2 18.7 15.7 23.3 14.2 28 18.7 32.7 19.6 37.3 19.1 42 21 46.7 21.8 51.3 22.3 56 21.3 60.7 20.5 65.3 22.5 70 22.8 74.7 21.3 79.3 21.5 84 24.4 88.7 23.3 93.3 22.1 98 22.3 102.7 22.3 107.3 22.8 112 21.2 116.7 21 121.3 22.8 126 21.6 130.7 21.8 135.3 19.9 140 19.5 144.7 19.4 149.3 21.6 154 21.5 158.7 21.2 163.3 20.3 168 20.3 172.7 19.1 177.3 20 182 18.8 186.7 20 191.3 19.1 196 19.7 200.7 19.2 205.3 17 210 17.7 214.7 19.6 219.3 18.6 224 17.1 228.7 17.9 233.3 17.8 238 18.9 242.7 16.6 247.3 18.6 252 18.6 256.7 17.4 261.3 17 266 17.9 270.7 19 275.3 16.7 280 16.7 284.7 19 289.3 17 294 17.4 298.7 18.8 303.3 18.3 308 18.3 312.7 18.3 317.3 18.9 322 17 326.7 18.8 331.3 19.1 336 16.9 340.7 19.1 345.3 19 350 17 354.7 17.2 359.3 16.9 364 18.9 368.7 18.7 373.3 17.3 378 18.4 382.7 19 387.3 19.2 392 17.4 396.7 17.3 401.3 16.9 406 18.6 410.7 19.2 415.3 18.1 420 19.3 424.7 17 429.3 18.9 434 19 438.7 17 443.3 18.7 448 18.7 452.7 18.7 457.3 19 462 17.5 466.7 19.2 471.3 17.4 476 19.6 480.7 17.2 485.3 19.2 490 17.9 494.7 19.2 499.3 18.7 504 18.2 508.7 16.9 513.3 17.7 518 17.2 522.7 17.2 527.3 17.3 532 17.5 536.7 17.6 541.3 18.1 546 19.3 550.7 19.5 555.3 18.4 560 17.5" transform="matrix(1,0,0,-1,82.8,592.5)" fill="#71708A" fill-opacity="0.2"></polygon>
</g>
<g clip-path="url(#zr0-c2)">
<polyline points="0 5.6 4.7 11.4 9.3 11.3 14 13.2 18.7 15.7 23.3 14.2 28 18.7 32.7 19.6 37.3 19.1 42 21 46.7 21.8 51.3 22.3 56 21.3 60.7 20.5 65.3 22.5 70 22.8 74.7 21.3 79.3 21.5 84 24.4 88.7 23.3 93.3 22.1 98 22.3 102.7 22.3 107.3 22.8 112 21.2 116.7 21 121.3 22.8 126 21.6 130.7 21.8 135.3 19.9 140 19.5 144.7 19.4 149.3 21.6 154 21.5 158.7 21.2 163.3 20.3 168 20.3 172.7 19.1 177.3 20 182 18.8 186.7 20 191.3 19.1 196 19.7 200.7 19.2 205.3 17 210 17.7 214.7 19.6 219.3 18.6 224 17.1 228.7 17.9 233.3 17.8 238 18.9 242.7 16.6 247.3 18.6 252 18.6 256.7 17.4 261.3 17 266 17.9 270.7 19 275.3 16.7 280 16.7 284.7 19 289.3 17 294 17.4 298.7 18.8 303.3 18.3 308 18.3 312.7 18.3 317.3 18.9 322 17 326.7 18.8 331.3 19.1 336 16.9 340.7 19.1 345.3 19 350 17 354.7 17.2 359.3 16.9 364 18.9 368.7 18.7 373.3 17.3 378 18.4 382.7 19 387.3 19.2 392 17.4 396.7 17.3 401.3 16.9 406 18.6 410.7 19.2 415.3 18.1 420 19.3 424.7 17 429.3 18.9 434 19 438.7 17 443.3 18.7 448 18.7 452.7 18.7 457.3 19 462 17.5 466.7 19.2 471.3 17.4 476 19.6 480.7 17.2 485.3 19.2 490 17.9 494.7 19.2 499.3 18.7 504 18.2 508.7 16.9 513.3 17.7 518 17.2 522.7 17.2 527.3 17.3 532 17.5 536.7 17.6 541.3 18.1 546 19.3 550.7 19.5 555.3 18.4 560 17.5" transform="matrix(1,0,0,-1,82.8,592.5)" fill="none" stroke="#71708A"></polyline>
</g>
<g clip-path="url(#zr0-c3)">
<polyline points="0 5.6 4.7 11.4 9.3 11.3 14 13.2 18.7 15.7 23.3 14.2 28 18.7 32.7 19.6 37.3 19.1 42 21 46.7 21.8 51.3 22.3 56 21.3 60.7 20.5 65.3 22.5 70 22.8 74.7 21.3 79.3 21.5 84 24.4 88.7 23.3 93.3 22.1 98 22.3 102.7 22.3 107.3 22.8 112 21.2 116.7 21 121.3 22.8 126 21.6 130.7 21.8 135.3 19.9 140 19.5 144.7 19.4 149.3 21.6 154 21.5 158.7 21.2 163.3 20.3 168 20.3 172.7 19.1 177.3 20 182 18.8 186.7 20 191.3 19.1 196 19.7 200.7 19.2 205.3 17 210 17.7 214.7 19.6 219.3 18.6 224 17.1 228.7 17.9 233.3 17.8 238 18.9 242.7 16.6 247.3 18.6 252 18.6 256.7 17.4 261.3 17 266 17.9 270.7 19 275.3 16.7 280 16.7 284.7 19 289.3 17 294 17.4 298.7 18.8 303.3 18.3 308 18.3 312.7 18.3 317.3 18.9 322 17 326.7 18.8 331.3 19.1 336 16.9 340.7 19.1 345.3 19 350 17 354.7 17.2 359.3 16.9 364 18.9 368.7 18.7 373.3 17.3 378 18.4 382.7 19 387.3 19.2 392 17.4 396.7 17.3 401.3 16.9 406 18.6 410.7 19.2 415.3 18.1 420 19.3 424.7 17 429.3 18.9 434 19 438.7 17 443.3 18.7 448 18.7 452.7 18.7 457.3 19 462 17.5 466.7 19.2 471.3 17.4 476 19.6 480.7 17.2 485.3 19.2 490 17.9 494.7 19.2 499.3 18.7 504 18.2 508.7 16.9 513.3 17.7 518 17.2 522.7 17.2 527.3 17.3 532 17.5 536.7 17.6 541.3 18.1 546 19.3 550.7 19.5 555.3 18.4 560 17.5" transform="matrix(1,0,0,-1,82.8,592.5)" fill="none" stroke="#87A3CE" stroke-width="0.5"></polyline>
</g>
<g clip-path="url(#zr0-c4)">
<polyline points="0 5.6 4.7 11.4 9.3 11.3 14 13.2 18.7 15.7 23.3 14.2 28 18.7 32.7 19.6 37.3 19.1 42 21 46.7 21.8 51.3 22.3 56 21.3 60.7 20.5 65.3 22.5 70 22.8 74.7 21.3 79.3 21.5 84 24.4 88.7 23.3 93.3 22.1 98 22.3 102.7 22.3 107.3 22.8 112 21.2 116.7 21 121.3 22.8 126 21.6 130.7 21.8 135.3 19.9 140 19.5 144.7 19.4 149.3 21.6 154 21.5 158.7 21.2 163.3 20.3 168 20.3 172.7 19.1 177.3 20 182 18.8 186.7 20 191.3 19.1 196 19.7 200.7 19.2 205.3 17 210 17.7 214.7 19.6 219.3 18.6 224 17.1 228.7 17.9 233.3 17.8 238 18.9 242.7 16.6 247.3 18.6 252 18.6 256.7 17.4 261.3 17 266 17.9 270.7 19 275.3 16.7 280 16.7 284.7 19 289.3 17 294 17.4 298.7 18.8 303.3 18.3 308 18.3 312.7 18.3 317.3 18.9 322 17 326.7 18.8 331.3 19.1 336 16.9 340.7 19.1 345.3 19 350 17 354.7 17.2 359.3 16.9 364 18.9 368.7 18.7 373.3 17.3 378 18.4 382.7 19 387.3 19.2 392 17.4 396.7 17.3 401.3 16.9 406 18.6 410.7 19.2 415.3 18.1 420 19.3 424.7 17 429.3 18.9 434 19 438.7 17 443.3 18.7 448 18.7 452.7 18.7 457.3 19 462 17.5 466.7 19.2 471.3 17.4 476 19.6 480.7 17.2 485.3 19.2 490 17.9 494.7 19.2 499.3 18.7 504 18.2 508.7 16.9 513.3 17.7 518 17.2 522.7 17.2 527.3 17.3 532 17.5 536.7 17.6 541.3 18.1 546 19.3 550.7 19.5 555.3 18.4 560 17.5" transform="matrix(1,0,0,-1,82.8,592.5)" fill="none" stroke="#71708A"></polyline>
</g>
<path d="M-5 -5l691.0547 0l0 22l-691.0547 0Z" transform="translate(59.4727 5)" fill="rgb(0,0,0)" fill-opacity="0" stroke="#ccc" stroke-width="0"></path>
<path d="M0 7L25 7" transform="translate(60.4727 4)" fill="#000" stroke="#ccc" stroke-width="2" stroke-linecap="butt" stroke-miterlimit="10"></path>
<path d="M12.5 1.4L18.1 12.6L6.9 12.6Z" transform="translate(60.4727 4)" fill="#ccc" stroke="#ccc" stroke-width="0" stroke-linecap="butt" stroke-miterlimit="10"></path>
<text dominant-baseline="central" text-anchor="start" style="font-size:12px;font-family:Microsoft YaHei;" x="30" y="7" transform="translate(60.4727 4)" fill="#ccc">Pipe_Pres</text>
<path d="M0 7L25 7" transform="translate(156.1465 4)" fill="#000" stroke="#ccc" stroke-width="2" stroke-linecap="butt" stroke-miterlimit="10"></path>
<path d="M18.1 7A5.6 5.6 0 1 1 18.1 6.9994" transform="translate(156.1465 4)" fill="#ccc" stroke="#ccc" stroke-width="0" stroke-linecap="butt" stroke-miterlimit="10"></path>
<text dominant-baseline="central" text-anchor="start" style="font-size:12px;font-family:Microsoft YaHei;" x="30" y="7" transform="translate(156.1465 4)" fill="#ccc">Ambient_Pres</text>
<path d="M0 7L25 7" transform="translate(276.0313 4)" fill="#000" stroke="#ccc" stroke-width="2" stroke-linecap="butt" stroke-miterlimit="10"></path>
<path d="M12.5 1.4L18.1 12.6L6.9 12.6Z" transform="translate(276.0313 4)" fill="#ccc" stroke="#ccc" stroke-width="0" stroke-linecap="butt" stroke-miterlimit="10"></path>
<text dominant-baseline="central" text-anchor="start" style="font-size:12px;font-family:Microsoft YaHei;" x="30" y="7" transform="translate(276.0313 4)" fill="#ccc">Pipe_Temp</text>
<path d="M0 7L25 7" transform="translate(380.0137 4)" fill="#000" stroke="#ccc" stroke-width="2" stroke-linecap="butt" stroke-miterlimit="10"></path>
<path d="M18.1 7A5.6 5.6 0 1 1 18.1 6.9994" transform="translate(380.0137 4)" fill="#ccc" stroke="#ccc" stroke-width="0" stroke-linecap="butt" stroke-miterlimit="10"></path>
<text dominant-baseline="central" text-anchor="start" style="font-size:12px;font-family:Microsoft YaHei;" x="30" y="7" transform="translate(380.0137 4)" fill="#ccc">Chip_Temp</text>
<path d="M0 7L25 7" transform="translate(485.2617 4)" fill="#000" stroke="#f7f494" stroke-width="2" stroke-linecap="butt" stroke-miterlimit="10"></path>
<path d="M18.1 7A5.6 5.6 0 1 1 18.1 6.9994" transform="translate(485.2617 4)" fill="#f7f494"></path>
<text dominant-baseline="central" text-anchor="start" style="font-size:12px;font-family:Microsoft YaHei;" x="30" y="7" transform="translate(485.2617 4)" fill="#B9B8CE">Set_nPressure</text>
<path d="M0 7L25 7" transform="translate(605.8672 4)" fill="#000" stroke="#f7f494" stroke-width="2" stroke-linecap="butt" stroke-miterlimit="10"></path>
<path d="M12.5 1.4L18.1 12.6L6.9 12.6Z" transform="translate(605.8672 4)" fill="#f7f494"></path>
<text dominant-baseline="central" text-anchor="start" style="font-size:12px;font-family:Microsoft YaHei;" x="30" y="7" transform="translate(605.8672 4)" fill="#B9B8CE">Current_nPressure</text>
<path d="M0 0l560 0l0 30l-560 0Z" transform="matrix(1,0,0,-1,82.8,592.5)" fill="none"></path>
<path d="M0 0l560 0l0 30l-560 0Z" transform="matrix(1,0,0,-1,82.8,592.5)" fill="rgb(135,163,206)" fill-opacity="0.2"></path>
<path d="M3.5 0.5L556.5 0.5A3 3 0 0 1 559.5 3.5L559.5 26.5A3 3 0 0 1 556.5 29.5L3.5 29.5A3 3 0 0 1 0.5 26.5L0.5 3.5A3 3 0 0 1 3.5 0.5" transform="matrix(1,0,0,-1,82.8,592.5)" fill="rgb(0,0,0)" fill-opacity="0" stroke="#71708A"></path>
<path d="M0 29.5L560 29.5L560 34.5A2 2 0 0 1 558 36.5L2 36.5A2 2 0 0 1 0 34.5L0 29.5" transform="matrix(1,0,0,-1,82.8,592.5)" fill="#B0B6C3" fill-opacity="0.3"></path>
<path d="M-2.2408 -1.6796C-1.8674 -1.6796 -1.6817 -1.4939 -1.6817 -1.1204L-1.6817 1.1204C-1.6817 1.4939 -1.8674 1.6796 -2.2408 1.6796C-2.6143 1.6796 -2.8 1.4939 -2.8 1.1204L-2.8 -1.1204C-2.8 -1.4939 -2.6143 -1.6796 -2.2408 -1.6796ZM0 -1.6796C0.3735 -1.6796 0.5592 -1.4939 0.5592 -1.1204L0.5592 1.1204C0.5592 1.4939 0.3735 1.6796 0 1.6796C-0.3735 1.6796 -0.5592 1.4939 -0.5592 1.1204L-0.5592 -1.1204C-0.5592 -1.4939 -0.3735 -1.6796 0 -1.6796ZM2.2408 -1.6796C2.6143 -1.6796 2.8 -1.4939 2.8 -1.1204L2.8 1.1204C2.8 1.4939 2.6143 1.6796 2.2408 1.6796C1.8674 1.6796 1.6817 1.4939 1.6817 1.1204L1.6817 -1.1204C1.6796 -1.4939 1.8674 -1.6796 2.2408 -1.6796Z" transform="matrix(1,0,0,-1,362.8,559.5)" fill="#fff"></path>
<path d="M0 1.628L0 2M0 0L0 0.375M-0.1 0.375L0.1 0.375A0.1 0.1 0 0 1 0.2 0.475L0.2 1.525A0.1 0.1 0 0 1 0.1 1.625L-0.1 1.625A0.1 0.1 0 0 1 -0.2 1.525L-0.2 0.475A0.1 0.1 0 0 1 -0.1 0.375Z" transform="matrix(15,0,0,-15,83.8,592.5)" fill="#353450" stroke="#C5CBE3" stroke-width="0.06666666666666667"></path>
<path d="M0 1.628L0 2M0 0L0 0.375M-0.1 0.375L0.1 0.375A0.1 0.1 0 0 1 0.2 0.475L0.2 1.525A0.1 0.1 0 0 1 0.1 1.625L-0.1 1.625A0.1 0.1 0 0 1 -0.2 1.525L-0.2 0.475A0.1 0.1 0 0 1 -0.1 0.375Z" transform="matrix(15,0,0,-15,641.8,592.5)" fill="#353450" stroke="#C5CBE3" stroke-width="0.06666666666666667"></path>
<defs >
<clipPath id="zr0-c0">
<path d="M79 59l562 0l0 472l-562 0Z" fill="#000"></path>
</clipPath>
<clipPath id="zr0-c1">
<path d="M79 59l562 0l0 472l-562 0Z" fill="#000"></path>
</clipPath>
<clipPath id="zr0-c2">
<path d="M0 0l0 0l0 30l0 0Z" transform="matrix(1,0,0,-1,82.8,592.5)" fill="#000"></path>
</clipPath>
<clipPath id="zr0-c3">
<path d="M0 0l560 0l0 30l-560 0Z" transform="matrix(1,0,0,-1,82.8,592.5)" fill="#000"></path>
</clipPath>
<clipPath id="zr0-c4">
<path d="M560 0l0 0l0 30l0 0Z" transform="matrix(1,0,0,-1,82.8,592.5)" fill="#000"></path>
</clipPath>
</defs>
</svg>