<svg width="800" height="600" xmlns="http://www.w3.org/2000/svg" xmlns:xlink="http://www.w3.org/1999/xlink" version="1.1" baseProfile="full" viewBox="0 0 800 600">
<rect width="800" height="600" x="0" y="0" id="0" fill="rgb(40, 44, 52)" fill-opacity="1"></rect>
<path d="M80 530.5L640 530.5" fill="none" stroke="#484753"></path>
<path d="M80 412.5L640 412.5" fill="none" stroke="#484753"></path>
<path d="M80 295.5L640 295.5" fill="none" stroke="#484753"></path>
<path d="M80 177.5L640 177.5" fill="none" stroke="#484753"></path>
<path d="M80 60.5L640 60.5" fill="none" stroke="#484753"></path>
<path d="M80.5 530L80.5 60" fill="none" stroke="#ACDFED" stroke-linecap="round"></path>
<text dominant-baseline="central" text-anchor="middle" style="font-size:12px;font-family:Microsoft YaHei;" y="-6" transform="translate(80 45)" fill="#B9B8CE">压力</text>
<path d="M640.5 530L640.5 60" fill="none" stroke="#FFAB91" stroke-linecap="round"></path>
<text dominant-baseline="central" text-anchor="middle" style="font-size:12px;font-family:Microsoft YaHei;" y="-6" transform="translate(640 45)" fill="#B9B8CE">温度</text>
<path d="M720.5 530L720.5 60" fill="none" stroke="#f7f494" stroke-linecap="round"></path>
<text dominant-baseline="central" text-anchor="middle" style="font-size:12px;font-family:Microsoft YaHei;" y="-6" transform="translate(720 45)" fill="#B9B8CE">负压</text>
<path d="M80 530.5L640 530.5" fill="none" stroke="#B9B8CE" stroke-linecap="round"></path>
<path d="M81.5 530L81.5 535" fill="none" stroke="#B9B8CE"></path>
<path d="M146.5 530L146.5 535" fill="none" stroke="#B9B8CE"></path>
<path d="M211.5 530L211.5 535" fill="none" stroke="#B9B8CE"></path>
<path d="M276.5 530L276.5 535" fill="none" stroke="#B9B8CE"></path>
<path d="M341.5 530L341.5 535" fill="none" stroke="#B9B8CE"></path>
<path d="M406.5 530L406.5 535" fill="none" stroke="#B9B8CE"></path>
<path d="M471.5 530L471.5 535" fill="none" stroke="#B9B8CE"></path>
<path d="M536.5 530L536.5 535" fill="none" stroke="#B9B8CE"></path>
<path d="M601.5 530L601.5 535" fill="none" stroke="#B9B8CE"></path>
<text dominant-baseline="central" text-anchor="start" style="font-size:12px;font-family:Microsoft YaHei;" xml:space="preserve" transform="translate(728 530)" fill="#B9B8CE">0 hPa</text>
<text dominant-baseline="central" text-anchor="start" style="font-size:12px;font-family:Microsoft YaHei;" xml:space="preserve" transform="translate(728 412.5)" fill="#B9B8CE">50 hPa</text>
<text dominant-baseline="central" text-anchor="start" style="font-size:12px;font-family:Microsoft YaHei;" xml:space="preserve" transform="translate(728 295)" fill="#B9B8CE">100 hPa</text>
<text dominant-baseline="central" text-anchor="start" style="font-size:12px;font-family:Microsoft YaHei;" xml:space="preserve" transform="translate(728 177.5)" fill="#B9B8CE">150 hPa</text>
<text dominant-baseline="central" text-anchor="start" style="font-size:12px;font-family:Microsoft YaHei;" xml:space="preserve" transform="translate(728 60)" fill="#B9B8CE">200 hPa</text>
<text dominant-baseline="central" text-anchor="middle" style="font-size:12px;font-family:Microsoft YaHei;" y="6" transform="translate(81.547 538)" fill="#B9B8CE">22:45:00</text>
<text dominant-baseline="central" text-anchor="middle" style="font-size:12px;font-family:Microsoft YaHei;" y="6" transform="translate(146.5193 538)" fill="#B9B8CE">22:45:21</text>
<text dominant-baseline="central" text-anchor="middle" style="font-size:12px;font-family:Microsoft YaHei;" y="6" transform="translate(211.4917 538)" fill="#B9B8CE">22:45:42</text>
<text dominant-baseline="central" text-anchor="middle" style="font-size:12px;font-family:Microsoft YaHei;" y="6" transform="translate(276.4641 538)" fill="#B9B8CE">22:46:03</text>
<text dominant-baseline="central" text-anchor="middle" style="font-size:12px;font-family:Microsoft YaHei;" y="6" transform="translate(341.4365 538)" fill="#B9B8CE">22:46:24</text>
<text dominant-baseline="central" text-anchor="middle" style="font-size:12px;font-family:Microsoft YaHei;" y="6" transform="translate(406.4088 538)" fill="#B9B8CE">22:46:45</text>
<text dominant-baseline="central" text-anchor="middle" style="font-size:12px;font-family:Microsoft YaHei;" y="6" transform="translate(471.3812 538)" fill="#B9B8CE">22:47:06</text>
<text dominant-baseline="central" text-anchor="middle" style="font-size:12px;font-family:Microsoft YaHei;" y="6" transform="translate(536.3536 538)" fill="#B9B8CE">22:47:27</text>
<text dominant-baseline="central" text-anchor="middle" style="font-size:12px;font-family:Microsoft YaHei;" y="6" transform="translate(601.326 538)" fill="#B9B8CE">22:47:48</text>
<g clip-path="url(#zr0-c0)">
<path d="M81.5 412.7L84.6 413.7L87.7 410.9L90.8 413.7L93.9 411.6L97 410.9L100.1 413.7L103.2 413.7L106.3 412L109.4 409.9L112.5 404.3L115.6 354L118.7 350.9L121.8 330.3L124.9 324.1L128 309.3L131 308.9L134.1 307.5L137.2 305.6L140.3 300.2L143.4 302L146.5 297.1L149.6 299.2L152.7 294.5L155.8 295.7L158.9 296.6L162 295.5L165.1 297.6L168.2 292.2L171.3 293.4L174.4 290.1L177.5 290.5L180.6 295L183.6 292.6L186.7 291L189.8 290.8L192.9 292.9L196 293.8L199.1 289.8L202.2 290.3L205.3 293.4L208.4 294.1L211.5 291.9L214.6 294.1L217.7 289.1L220.8 292.9L223.9 292.4L227 292.6L230.1 289.1L233.1 289.6L236.2 293.6L239.3 290.1L242.4 295L245.5 291.5L248.6 291.2L251.7 291.2L254.8 291.5L257.9 291.7L261 295.5L264.1 292.9L267.2 295L270.3 291.9L273.4 292.6L276.5 292.2L279.6 292.2L282.7 292.9L285.7 295.7L288.8 292.4L291.9 296.2L295 293.1L298.1 295.7L301.2 292.9L304.3 294.5L307.4 295.9L310.5 293.4L313.6 291.9L316.7 296.2L319.8 296.6L322.9 296.2L326 292.4L329.1 295.7L332.2 295.7L335.2 294.3L338.3 292.9L341.4 293.1L344.5 275L347.6 265.2L350.7 239.8L353.8 223.8L356.9 210.2L360 203.6L363.1 191.1L366.2 186L369.3 180.3L372.4 183.1L375.5 180.6L378.6 175.4L381.7 171.4L384.8 169L387.8 166.9L390.9 173.3L394 172.1L397.1 175.6L400.2 171.2L403.3 175.1L406.4 173.3L409.5 170.9L412.6 171.6L415.7 174L418.8 173.3L421.9 173L425 170.9L428.1 170.4L431.2 176.3L434.3 172.6L437.3 170.2L440.4 170L443.5 173.7L446.6 172.8L449.7 172.1L452.8 176.6L455.9 173.7L459 174.2L462.1 174.7L465.2 174.7L468.3 170.4L471.4 172.6L474.5 176.3L477.6 174L480.7 174.2L483.8 175.9L486.9 178L489.9 174.2L493 172.3L496.1 178.7L499.2 175.4L502.3 172.6L505.4 177.3L508.5 177.7L511.6 180.1L514.7 179.6L517.8 172.8L520.9 178L524 175.6L527.1 178L530.2 173L533.3 174L536.4 174.7L539.4 176.1L542.5 180.3L545.6 180.3L548.7 179.9L551.8 177.3L554.9 175.6L558 177L561.1 175.9L564.2 178L567.3 181.3L570.4 182.2L573.5 179.6L576.6 175.1L579.7 177.5L582.8 177.7L585.9 174L589 174.7L592 174.7L595.1 178.9L598.2 178.7L601.3 178L604.4 174L607.5 173.3L610.6 177.3L613.7 173.5L616.8 178.9L619.9 178.9L623 175.9L626.1 176.3L629.2 181.7L632.3 177L635.4 141.5L638.5 121.3" fill="none" stroke="#f7f494" stroke-width="2" stroke-linejoin="bevel"></path>
</g>
<g clip-path="url(#zr0-c1)">
<path d="M81.5 412.5L84.6 412.5L87.7 412.5L90.8 412.5L93.9 412.5L97 412.5L100.1 412.5L103.2 412.5L106.3 412.5L109.4 295L112.5 295L115.6 295L118.7 295L121.8 295L124.9 295L128 295L131 295L134.1 295L137.2 295L140.3 295L143.4 295L146.5 295L149.6 295L152.7 295L155.8 295L158.9 295L162 295L165.1 295L168.2 295L171.3 295L174.4 295L177.5 295L180.6 295L183.6 295L186.7 295L189.8 295L192.9 295L196 295L199.1 295L202.2 295L205.3 295L208.4 295L211.5 295L214.6 295L217.7 295L220.8 295L223.9 295L227 295L230.1 295L233.1 295L236.2 295L239.3 295L242.4 295L245.5 295L248.6 295L251.7 295L254.8 295L257.9 295L261 295L264.1 295L267.2 295L270.3 295L273.4 295L276.5 295L279.6 295L282.7 295L285.7 295L288.8 295L291.9 295L295 295L298.1 295L301.2 295L304.3 295L307.4 295L310.5 295L313.6 295L316.7 295L319.8 295L322.9 295L326 295L329.1 295L332.2 295L335.2 295L338.3 295L341.4 177.5L344.5 177.5L347.6 177.5L350.7 177.5L353.8 177.5L356.9 177.5L360 177.5L363.1 177.5L366.2 177.5L369.3 177.5L372.4 177.5L375.5 177.5L378.6 177.5L381.7 177.5L384.8 177.5L387.8 177.5L390.9 177.5L394 177.5L397.1 177.5L400.2 177.5L403.3 177.5L406.4 177.5L409.5 177.5L412.6 177.5L415.7 177.5L418.8 177.5L421.9 177.5L425 177.5L428.1 177.5L431.2 177.5L434.3 177.5L437.3 177.5L440.4 177.5L443.5 177.5L446.6 177.5L449.7 177.5L452.8 177.5L455.9 177.5L459 177.5L462.1 177.5L465.2 177.5L468.3 177.5L471.4 177.5L474.5 177.5L477.6 177.5L480.7 177.5L483.8 177.5L486.9 177.5L489.9 177.5L493 177.5L496.1 177.5L499.2 177.5L502.3 177.5L505.4 177.5L508.5 177.5L511.6 177.5L514.7 177.5L517.8 177.5L520.9 177.5L524 177.5L527.1 177.5L530.2 177.5L533.3 177.5L536.4 177.5L539.4 177.5L542.5 177.5L545.6 177.5L548.7 177.5L551.8 177.5L554.9 177.5L558 177.5L561.1 177.5L564.2 177.5L567.3 177.5L570.4 177.5L573.5 177.5L576.6 177.5L579.7 177.5L582.8 177.5L585.9 177.5L589 177.5L592 177.5L595.1 177.5L598.2 177.5L601.3 177.5L604.4 177.5L607.5 177.5L610.6 177.5L613.7 177.5L616.8 177.5L619.9 177.5L623 177.5L626.1 177.5L629.2 177.5L632.3 60L635.4 60L638.5 60" fill="none" stroke="#f7f494" stroke-width="2" stroke-linejoin="bevel"></path>
</g>
<path d="M0 -1L1 1L-1 1Z" transform="matrix(5,0,0,5,81.547,412.735)" fill="#f7f494"></path>
<path d="M0 -1L1 1L-1 1Z" transform="matrix(5,0,0,5,146.5193,297.115)" fill="#f7f494"></path>
<path d="M0 -1L1 1L-1 1Z" transform="matrix(5,0,0,5,211.4917,291.945)" fill="#f7f494"></path>
<path d="M0 -1L1 1L-1 1Z" transform="matrix(5,0,0,5,276.4641,292.18)" fill="#f7f494"></path>
<path d="M0 -1L1 1L-1 1Z" transform="matrix(5,0,0,5,341.4365,293.12)" fill="#f7f494"></path>
<path d="M0 -1L1 1L-1 1Z" transform="matrix(5,0,0,5,406.4088,173.27)" fill="#f7f494"></path>
<path d="M0 -1L1 1L-1 1Z" transform="matrix(5,0,0,5,471.3812,172.565)" fill="#f7f494"></path>
<path d="M0 -1L1 1L-1 1Z" transform="matrix(5,0,0,5,536.3536,174.68)" fill="#f7f494"></path>
<path d="M0 -1L1 1L-1 1Z" transform="matrix(5,0,0,5,601.326,177.97)" fill="#f7f494"></path>
<path d="M1 0A1 1 0 1 1 1 -0.0001" transform="matrix(5,0,0,5,81.547,412.5)" fill="#f7f494"></path>
<path d="M1 0A1 1 0 1 1 1 -0.0001" transform="matrix(5,0,0,5,146.5193,295)" fill="#f7f494"></path>
<path d="M1 0A1 1 0 1 1 1 -0.0001" transform="matrix(5,0,0,5,211.4917,295)" fill="#f7f494"></path>
<path d="M1 0A1 1 0 1 1 1 -0.0001" transform="matrix(5,0,0,5,276.4641,295)" fill="#f7f494"></path>
<path d="M1 0A1 1 0 1 1 1 -0.0001" transform="matrix(5,0,0,5,341.4365,177.5)" fill="#f7f494"></path>
<path d="M1 0A1 1 0 1 1 1 -0.0001" transform="matrix(5,0,0,5,406.4088,177.5)" fill="#f7f494"></path>
<path d="M1 0A1 1 0 1 1 1 -0.0001" transform="matrix(5,0,0,5,471.3812,177.5)" fill="#f7f494"></path>
<path d="M1 0A1 1 0 1 1 1 -0.0001" transform="matrix(5,0,0,5,536.3536,177.5)" fill="#f7f494"></path>
<path d="M1 0A1 1 0 1 1 1 -0.0001" transform="matrix(5,0,0,5,601.326,177.5)" fill="#f7f494"></path>
<path d="M0 0l560 0l0 30l-560 0Z" transform="matrix(1,0,0,-1,82.8,592.5)" fill="rgb(47,69,84)" fill-opacity="0"></path>
<g clip-path="url(#zr0-c2)">
<polygon points="560 0 0 0 0 5.7 3.1 5.6 6.2 5.8 9.3 5.6 12.4 5.8 15.6 5.8 18.7 5.6 21.8 5.6 24.9 5.7 28 5.9 31.1 6.2 34.2 9.5 37.3 9.6 40.4 11 43.6 11.4 46.7 12.3 49.8 12.3 52.9 12.4 56 12.6 59.1 12.9 62.2 12.8 65.3 13.1 68.4 13 71.6 13.3 74.7 13.2 77.8 13.1 80.9 13.2 84 13.1 87.1 13.4 90.2 13.3 93.3 13.6 96.4 13.5 99.6 13.2 102.7 13.4 105.8 13.5 108.9 13.5 112 13.4 115.1 13.3 118.2 13.6 121.3 13.5 124.4 13.3 127.6 13.3 130.7 13.4 133.8 13.3 136.9 13.6 140 13.4 143.1 13.4 146.2 13.4 149.3 13.6 152.4 13.6 155.6 13.3 158.7 13.6 161.8 13.2 164.9 13.5 168 13.5 171.1 13.5 174.2 13.5 177.3 13.4 180.4 13.2 183.6 13.4 186.7 13.2 189.8 13.4 192.9 13.4 196 13.4 199.1 13.4 202.2 13.4 205.3 13.2 208.4 13.4 211.6 13.2 214.7 13.4 217.8 13.2 220.9 13.4 224 13.3 227.1 13.2 230.2 13.3 233.3 13.4 236.4 13.2 239.6 13.1 242.7 13.2 245.8 13.4 248.9 13.2 252 13.2 255.1 13.3 258.2 13.4 261.3 13.4 264.4 14.5 267.6 15.2 270.7 16.8 273.8 17.8 276.9 18.7 280 19.1 283.1 19.9 286.2 20.2 289.3 20.6 292.4 20.4 295.6 20.6 298.7 20.9 301.8 21.2 304.9 21.3 308 21.5 311.1 21 314.2 21.1 317.3 20.9 320.4 21.2 323.6 20.9 326.7 21 329.8 21.2 332.9 21.1 336 21 339.1 21 342.2 21.1 345.3 21.2 348.4 21.2 351.6 20.8 354.7 21.1 357.8 21.2 360.9 21.3 364 21 367.1 21.1 370.2 21.1 373.3 20.8 376.4 21 379.6 21 382.7 21 385.8 21 388.9 21.2 392 21.1 395.1 20.8 398.2 21 401.3 21 404.4 20.9 407.6 20.7 410.7 21 413.8 21.1 416.9 20.7 420 20.9 423.1 21.1 426.2 20.8 429.3 20.8 432.4 20.6 435.6 20.6 438.7 21.1 441.8 20.7 444.9 20.9 448 20.7 451.1 21.1 454.2 21 457.3 21 460.4 20.9 463.6 20.6 466.7 20.6 469.8 20.6 472.9 20.8 476 20.9 479.1 20.8 482.2 20.9 485.3 20.7 488.4 20.5 491.6 20.5 494.7 20.6 497.8 20.9 500.9 20.8 504 20.8 507.1 21 510.2 21 513.3 21 516.4 20.7 519.6 20.7 522.7 20.7 525.8 21 528.9 21 532 20.8 535.1 21 538.2 20.7 541.3 20.7 544.4 20.9 547.6 20.8 550.7 20.5 553.8 20.8 556.9 23.1 560 24.4" transform="matrix(1,0,0,-1,82.8,592.5)" fill="#71708A" fill-opacity="0.2"></polygon>
</g>
<g clip-path="url(#zr0-c3)">
<polygon points="560 0 0 0 0 5.7 3.1 5.6 6.2 5.8 9.3 5.6 12.4 5.8 15.6 5.8 18.7 5.6 21.8 5.6 24.9 5.7 28 5.9 31.1 6.2 34.2 9.5 37.3 9.6 40.4 11 43.6 11.4 46.7 12.3 49.8 12.3 52.9 12.4 56 12.6 59.1 12.9 62.2 12.8 65.3 13.1 68.4 13 71.6 13.3 74.7 13.2 77.8 13.1 80.9 13.2 84 13.1 87.1 13.4 90.2 13.3 93.3 13.6 96.4 13.5 99.6 13.2 102.7 13.4 105.8 13.5 108.9 13.5 112 13.4 115.1 13.3 118.2 13.6 121.3 13.5 124.4 13.3 127.6 13.3 130.7 13.4 133.8 13.3 136.9 13.6 140 13.4 143.1 13.4 146.2 13.4 149.3 13.6 152.4 13.6 155.6 13.3 158.7 13.6 161.8 13.2 164.9 13.5 168 13.5 171.1 13.5 174.2 13.5 177.3 13.4 180.4 13.2 183.6 13.4 186.7 13.2 189.8 13.4 192.9 13.4 196 13.4 199.1 13.4 202.2 13.4 205.3 13.2 208.4 13.4 211.6 13.2 214.7 13.4 217.8 13.2 220.9 13.4 224 13.3 227.1 13.2 230.2 13.3 233.3 13.4 236.4 13.2 239.6 13.1 242.7 13.2 245.8 13.4 248.9 13.2 252 13.2 255.1 13.3 258.2 13.4 261.3 13.4 264.4 14.5 267.6 15.2 270.7 16.8 273.8 17.8 276.9 18.7 280 19.1 283.1 19.9 286.2 20.2 289.3 20.6 292.4 20.4 295.6 20.6 298.7 20.9 301.8 21.2 304.9 21.3 308 21.5 311.1 21 314.2 21.1 317.3 20.9 320.4 21.2 323.6 20.9 326.7 21 329.8 21.2 332.9 21.1 336 21 339.1 21 342.2 21.1 345.3 21.2 348.4 21.2 351.6 20.8 354.7 21.1 357.8 21.2 360.9 21.3 364 21 367.1 21.1 370.2 21.1 373.3 20.8 376.4 21 379.6 21 382.7 21 385.8 21 388.9 21.2 392 21.1 395.1 20.8 398.2 21 401.3 21 404.4 20.9 407.6 20.7 410.7 21 413.8 21.1 416.9 20.7 420 20.9 423.1 21.1 426.2 20.8 429.3 20.8 432.4 20.6 435.6 20.6 438.7 21.1 441.8 20.7 444.9 20.9 448 20.7 451.1 21.1 454.2 21 457.3 21 460.4 20.9 463.6 20.6 466.7 20.6 469.8 20.6 472.9 20.8 476 20.9 479.1 20.8 482.2 20.9 485.3 20.7 488.4 20.5 491.6 20.5 494.7 20.6 497.8 20.9 500.9 20.8 504 20.8 507.1 21 510.2 21 513.3 21 516.4 20.7 519.6 20.7 522.7 20.7 525.8 21 528.9 21 532 20.8 535.1 21 538.2 20.7 541.3 20.7 544.4 20.9 547.6 20.8 550.7 20.5 553.8 20.8 556.9 23.1 560 24.4" transform="matrix(1,0,0,-1,82.8,592.5)" fill="#87A3CE" fill-opacity="0.2"></polygon>
</g>
<g clip-path="url(#zr0-c4)">
<polygon points="560 0 0 0 0 5.7 3.1 5.6 6.2 5.8 9.3 5.6 12.4 5.8 15.6 5.8 18.7 5.6 21.8 5.6 24.9 5.7 28 5.9 31.1 6.2 34.2 9.5 37.3 9.6 40.4 11 43.6 11.4 46.7 12.3 49.8 12.3 52.9 12.4 56 12.6 59.1 12.9 62.2 12.8 65.3 13.1 68.4 13 71.6 13.3 74.7 13.2 77.8 13.1 80.9 13.2 84 13.1 87.1 13.4 90.2 13.3 93.3 13.6 96.4 13.5 99.6 13.2 102.7 13.4 105.8 13.5 108.9 13.5 112 13.4 115.1 13.3 118.2 13.6 121.3 13.5 124.4 13.3 127.6 13.3 130.7 13.4 133.8 13.3 136.9 13.6 140 13.4 143.1 13.4 146.2 13.4 149.3 13.6 152.4 13.6 155.6 13.3 158.7 13.6 161.8 13.2 164.9 13.5 168 13.5 171.1 13.5 174.2 13.5 177.3 13.4 180.4 13.2 183.6 13.4 186.7 13.2 189.8 13.4 192.9 13.4 196 13.4 199.1 13.4 202.2 13.4 205.3 13.2 208.4 13.4 211.6 13.2 214.7 13.4 217.8 13.2 220.9 13.4 224 13.3 227.1 13.2 230.2 13.3 233.3 13.4 236.4 13.2 239.6 13.1 242.7 13.2 245.8 13.4 248.9 13.2 252 13.2 255.1 13.3 258.2 13.4 261.3 13.4 264.4 14.5 267.6 15.2 270.7 16.8 273.8 17.8 276.9 18.7 280 19.1 283.1 19.9 286.2 20.2 289.3 20.6 292.4 20.4 295.6 20.6 298.7 20.9 301.8 21.2 304.9 21.3 308 21.5 311.1 21 314.2 21.1 317.3 20.9 320.4 21.2 323.6 20.9 326.7 21 329.8 21.2 332.9 21.1 336 21 339.1 21 342.2 21.1 345.3 21.2 348.4 21.2 351.6 20.8 354.7 21.1 357.8 21.2 360.9 21.3 364 21 367.1 21.1 370.2 21.1 373.3 20.8 376.4 21 379.6 21 382.7 21 385.8 21 388.9 21.2 392 21.1 395.1 20.8 398.2 21 401.3 21 404.4 20.9 407.6 20.7 410.7 21 413.8 21.1 416.9 20.7 420 20.9 423.1 21.1 426.2 20.8 429.3 20.8 432.4 20.6 435.6 20.6 438.7 21.1 441.8 20.7 444.9 20.9 448 20.7 451.1 21.1 454.2 21 457.3 21 460.4 20.9 463.6 20.6 466.7 20.6 469.8 20.6 472.9 20.8 476 20.9 479.1 20.8 482.2 20.9 485.3 20.7 488.4 20.5 491.6 20.5 494.7 20.6 497.8 20.9 500.9 20.8 504 20.8 507.1 21 510.2 21 513.3 21 516.4 20.7 519.6 20.7 522.7 20.7 525.8 21 528.9 21 532 20.8 535.1 21 538.2 20.7 541.3 20.7 544.4 20.9 547.6 20.8 550.7 20.5 553.8 20.8 556.9 23.1 560 24.4" transform="matrix(1,0,0,-1,82.8,592.5)" fill="#71708A" fill-opacity="0.2"></polygon>
</g>
<g clip-path="url(#zr0-c2)">
<polyline points="0 5.7 3.1 5.6 6.2 5.8 9.3 5.6 12.4 5.8 15.6 5.8 18.7 5.6 21.8 5.6 24.9 5.7 28 5.9 31.1 6.2 34.2 9.5 37.3 9.6 40.4 11 43.6 11.4 46.7 12.3 49.8 12.3 52.9 12.4 56 12.6 59.1 12.9 62.2 12.8 65.3 13.1 68.4 13 71.6 13.3 74.7 13.2 77.8 13.1 80.9 13.2 84 13.1 87.1 13.4 90.2 13.3 93.3 13.6 96.4 13.5 99.6 13.2 102.7 13.4 105.8 13.5 108.9 13.5 112 13.4 115.1 13.3 118.2 13.6 121.3 13.5 124.4 13.3 127.6 13.3 130.7 13.4 133.8 13.3 136.9 13.6 140 13.4 143.1 13.4 146.2 13.4 149.3 13.6 152.4 13.6 155.6 13.3 158.7 13.6 161.8 13.2 164.9 13.5 168 13.5 171.1 13.5 174.2 13.5 177.3 13.4 180.4 13.2 183.6 13.4 186.7 13.2 189.8 13.4 192.9 13.4 196 13.4 199.1 13.4 202.2 13.4 205.3 13.2 208.4 13.4 211.6 13.2 214.7 13.4 217.8 13.2 220.9 13.4 224 13.3 227.1 13.2 230.2 13.3 233.3 13.4 236.4 13.2 239.6 13.1 242.7 13.2 245.8 13.4 248.9 13.2 252 13.2 255.1 13.3 258.2 13.4 261.3 13.4 264.4 14.5 267.6 15.2 270.7 16.8 273.8 17.8 276.9 18.7 280 19.1 283.1 19.9 286.2 20.2 289.3 20.6 292.4 20.4 295.6 20.6 298.7 20.9 301.8 21.2 304.9 21.3 308 21.5 311.1 21 314.2 21.1 317.3 20.9 320.4 21.2 323.6 20.9 326.7 21 329.8 21.2 332.9 21.1 336 21 339.1 21 342.2 21.1 345.3 21.2 348.4 21.2 351.6 20.8 354.7 21.1 357.8 21.2 360.9 21.3 364 21 367.1 21.1 370.2 21.1 373.3 20.8 376.4 21 379.6 21 382.7 21 385.8 21 388.9 21.2 392 21.1 395.1 20.8 398.2 21 401.3 21 404.4 20.9 407.6 20.7 410.7 21 413.8 21.1 416.9 20.7 420 20.9 423.1 21.1 426.2 20.8 429.3 20.8 432.4 20.6 435.6 20.6 438.7 21.1 441.8 20.7 444.9 20.9 448 20.7 451.1 21.1 454.2 21 457.3 21 460.4 20.9 463.6 20.6 466.7 20.6 469.8 20.6 472.9 20.8 476 20.9 479.1 20.8 482.2 20.9 485.3 20.7 488.4 20.5 491.6 20.5 494.7 20.6 497.8 20.9 500.9 20.8 504 20.8 507.1 21 510.2 21 513.3 21 516.4 20.7 519.6 20.7 522.7 20.7 525.8 21 528.9 21 532 20.8 535.1 21 538.2 20.7 541.3 20.7 544.4 20.9 547.6 20.8 550.7 20.5 553.8 20.8 556.9 23.1 560 24.4" transform="matrix(1,0,0,-1,82.8,592.5)" fill="none" stroke="#71708A"></polyline>
</g>
<g clip-path="url(#zr0-c3)">
<polyline points="0 5.7 3.1 5.6 6.2 5.8 9.3 5.6 12.4 5.8 15.6 5.8 18.7 5.6 21.8 5.6 24.9 5.7 28 5.9 31.1 6.2 34.2 9.5 37.3 9.6 40.4 11 43.6 11.4 46.7 12.3 49.8 12.3 52.9 12.4 56 12.6 59.1 12.9 62.2 12.8 65.3 13.1 68.4 13 71.6 13.3 74.7 13.2 77.8 13.1 80.9 13.2 84 13.1 87.1 13.4 90.2 13.3 93.3 13.6 96.4 13.5 99.6 13.2 102.7 13.4 105.8 13.5 108.9 13.5 112 13.4 115.1 13.3 118.2 13.6 121.3 13.5 124.4 13.3 127.6 13.3 130.7 13.4 133.8 13.3 136.9 13.6 140 13.4 143.1 13.4 146.2 13.4 149.3 13.6 152.4 13.6 155.6 13.3 158.7 13.6 161.8 13.2 164.9 13.5 168 13.5 171.1 13.5 174.2 13.5 177.3 13.4 180.4 13.2 183.6 13.4 186.7 13.2 189.8 13.4 192.9 13.4 196 13.4 199.1 13.4 202.2 13.4 205.3 13.2 208.4 13.4 211.6 13.2 214.7 13.4 217.8 13.2 220.9 13.4 224 13.3 227.1 13.2 230.2 13.3 233.3 13.4 236.4 13.2 239.6 13.1 242.7 13.2 245.8 13.4 248.9 13.2 252 13.2 255.1 13.3 258.2 13.4 261.3 13.4 264.4 14.5 267.6 15.2 270.7 16.8 273.8 17.8 276.9 18.7 280 19.1 283.1 19.9 286.2 20.2 289.3 20.6 292.4 20.4 295.6 20.6 298.7 20.9 301.8 21.2 304.9 21.3 308 21.5 311.1 21 314.2 21.1 317.3 20.9 320.4 21.2 323.6 20.9 326.7 21 329.8 21.2 332.9 21.1 336 21 339.1 21 342.2 21.1 345.3 21.2 348.4 21.2 351.6 20.8 354.7 21.1 357.8 21.2 360.9 21.3 364 21 367.1 21.1 370.2 21.1 373.3 20.8 376.4 21 379.6 21 382.7 21 385.8 21 388.9 21.2 392 21.1 395.1 20.8 398.2 21 401.3 21 404.4 20.9 407.6 20.7 410.7 21 413.8 21.1 416.9 20.7 420 20.9 423.1 21.1 426.2 20.8 429.3 20.8 432.4 20.6 435.6 20.6 438.7 21.1 441.8 20.7 444.9 20.9 448 20.7 451.1 21.1 454.2 21 457.3 21 460.4 20.9 463.6 20.6 466.7 20.6 469.8 20.6 472.9 20.8 476 20.9 479.1 20.8 482.2 20.9 485.3 20.7 488.4 20.5 491.6 20.5 494.7 20.6 497.8 20.9 500.9 20.8 504 20.8 507.1 21 510.2 21 513.3 21 516.4 20.7 519.6 20.7 522.7 20.7 525.8 21 528.9 21 532 20.8 535.1 21 538.2 20.7 541.3 20.7 544.4 20.9 547.6 20.8 550.7 20.5 553.8 20.8 556.9 23.1 560 24.4" transform="matrix(1,0,0,-1,82.8,592.5)" fill="none" stroke="#87A3CE" stroke-width="0.5"></polyline>
</g>
<g clip-path="url(#zr0-c4)">
<polyline points="0 5.7 3.1 5.6 6.2 5.8 9.3 5.6 12.4 5.8 15.6 5.8 18.7 5.6 21.8 5.6 24.9 5.7 28 5.9 31.1 6.2 34.2 9.5 37.3 9.6 40.4 11 43.6 11.4 46.7 12.3 49.8 12.3 52.9 12.4 56 12.6 59.1 12.9 62.2 12.8 65.3 13.1 68.4 13 71.6 13.3 74.7 13.2 77.8 13.1 80.9 13.2 84 13.1 87.1 13.4 90.2 13.3 93.3 13.6 96.4 13.5 99.6 13.2 102.7 13.4 105.8 13.5 108.9 13.5 112 13.4 115.1 13.3 118.2 13.6 121.3 13.5 124.4 13.3 127.6 13.3 130.7 13.4 133.8 13.3 136.9 13.6 140 13.4 143.1 13.4 146.2 13.4 149.3 13.6 152.4 13.6 155.6 13.3 158.7 13.6 161.8 13.2 164.9 13.5 168 13.5 171.1 13.5 174.2 13.5 177.3 13.4 180.4 13.2 183.6 13.4 186.7 13.2 189.8 13.4 192.9 13.4 196 13.4 199.1 13.4 202.2 13.4 205.3 13.2 208.4 13.4 211.6 13.2 214.7 13.4 217.8 13.2 220.9 13.4 224 13.3 227.1 13.2 230.2 13.3 233.3 13.4 236.4 13.2 239.6 13.1 242.7 13.2 245.8 13.4 248.9 13.2 252 13.2 255.1 13.3 258.2 13.4 261.3 13.4 264.4 14.5 267.6 15.2 270.7 16.8 273.8 17.8 276.9 18.7 280 19.1 283.1 19.9 286.2 20.2 289.3 20.6 292.4 20.4 295.6 20.6 298.7 20.9 301.8 21.2 304.9 21.3 308 21.5 311.1 21 314.2 21.1 317.3 20.9 320.4 21.2 323.6 20.9 326.7 21 329.8 21.2 332.9 21.1 336 21 339.1 21 342.2 21.1 345.3 21.2 348.4 21.2 351.6 20.8 354.7 21.1 357.8 21.2 360.9 21.3 364 21 367.1 21.1 370.2 21.1 373.3 20.8 376.4 21 379.6 21 382.7 21 385.8 21 388.9 21.2 392 21.1 395.1 20.8 398.2 21 401.3 21 404.4 20.9 407.6 20.7 410.7 21 413.8 21.1 416.9 20.7 420 20.9 423.1 21.1 426.2 20.8 429.3 20.8 432.4 20.6 435.6 20.6 438.7 21.1 441.8 20.7 444.9 20.9 448 20.7 451.1 21.1 454.2 21 457.3 21 460.4 20.9 463.6 20.6 466.7 20.6 469.8 20.6 472.9 20.8 476 20.9 479.1 20.8 482.2 20.9 485.3 20.7 488.4 20.5 491.6 20.5 494.7 20.6 497.8 20.9 500.9 20.8 504 20.8 507.1 21 510.2 21 513.3 21 516.4 20.7 519.6 20.7 522.7 20.7 525.8 21 528.9 21 532 20.8 535.1 21 538.2 20.7 541.3 20.7 544.4 20.9 547.6 20.8 550.7 20.5 553.8 20.8 556.9 23.1 560 24.4" transform="matrix(1,0,0,-1,82.8,592.5)" fill="none" stroke="#71708A"></polyline>
</g>
<path d="M-5 -5l691.0547 0l0 22l-691.0547 0Z" transform="translate(59.4727 5)" fill="rgb(0,0,0)" fill-opacity="0" stroke="#ccc" stroke-width="0"></path>
<path d="M0 7L25 7" transform="translate(60.4727 4)" fill="#000" stroke="#ccc" stroke-width="2" stroke-linecap="butt" stroke-miterlimit="10"></path>
<path d="M12.5 1.4L18.1 12.6L6.9 12.6Z" transform="translate(60.4727 4)" fill="#ccc" stroke="#ccc" stroke-width="0" stroke-linecap="butt" stroke-miterlimit="10"></path>
<text dominant-baseline="central" text-anchor="start" style="font-size:12px;font-family:Microsoft YaHei;" x="30" y="7" transform="translate(60.4727 4)" fill="#ccc">Pipe_Pres</text>
<path d="M0 7L25 7" transform="translate(156.1465 4)" fill="#000" stroke="#ccc" stroke-width="2" stroke-linecap="butt" stroke-miterlimit="10"></path>
<path d="M18.1 7A5.6 5.6 0 1 1 18.1 6.9994" transform="translate(156.1465 4)" fill="#ccc" stroke="#ccc" stroke-width="0" stroke-linecap="butt" stroke-miterlimit="10"></path>
<text dominant-baseline="central" text-anchor="start" style="font-size:12px;font-family:Microsoft YaHei;" x="30" y="7" transform="translate(156.1465 4)" fill="#ccc">Ambient_Pres</text>
<path d="M0 7L25 7" transform="translate(276.0313 4)" fill="#000" stroke="#ccc" stroke-width="2" stroke-linecap="butt" stroke-miterlimit="10"></path>
<path d="M12.5 1.4L18.1 12.6L6.9 12.6Z" transform="translate(276.0313 4)" fill="#ccc" stroke="#ccc" stroke-width="0" stroke-linecap="butt" stroke-miterlimit="10"></path>
<text dominant-baseline="central" text-anchor="start" style="font-size:12px;font-family:Microsoft YaHei;" x="30" y="7" transform="translate(276.0313 4)" fill="#ccc">Pipe_Temp</text>
<path d="M0 7L25 7" transform="translate(380.0137 4)" fill="#000" stroke="#ccc" stroke-width="2" stroke-linecap="butt" stroke-miterlimit="10"></path>
<path d="M18.1 7A5.6 5.6 0 1 1 18.1 6.9994" transform="translate(380.0137 4)" fill="#ccc" stroke="#ccc" stroke-width="0" stroke-linecap="butt" stroke-miterlimit="10"></path>
<text dominant-baseline="central" text-anchor="start" style="font-size:12px;font-family:Microsoft YaHei;" x="30" y="7" transform="translate(380.0137 4)" fill="#ccc">Chip_Temp</text>
<path d="M0 7L25 7" transform="translate(485.2617 4)" fill="#000" stroke="#f7f494" stroke-width="2" stroke-linecap="butt" stroke-miterlimit="10"></path>
<path d="M18.1 7A5.6 5.6 0 1 1 18.1 6.9994" transform="translate(485.2617 4)" fill="#f7f494"></path>
<text dominant-baseline="central" text-anchor="start" style="font-size:12px;font-family:Microsoft YaHei;" x="30" y="7" transform="translate(485.2617 4)" fill="#B9B8CE">Set_nPressure</text>
<path d="M0 7L25 7" transform="translate(605.8672 4)" fill="#000" stroke="#f7f494" stroke-width="2" stroke-linecap="butt" stroke-miterlimit="10"></path>
<path d="M12.5 1.4L18.1 12.6L6.9 12.6Z" transform="translate(605.8672 4)" fill="#f7f494"></path>
<text dominant-baseline="central" text-anchor="start" style="font-size:12px;font-family:Microsoft YaHei;" x="30" y="7" transform="translate(605.8672 4)" fill="#B9B8CE">Current_nPressure</text>
<path d="M0 0l560 0l0 30l-560 0Z" transform="matrix(1,0,0,-1,82.8,592.5)" fill="none"></path>
<path d="M0 0l560 0l0 30l-560 0Z" transform="matrix(1,0,0,-1,82.8,592.5)" fill="rgb(135,163,206)" fill-opacity="0.2"></path>
<path d="M3.5 0.5L556.5 0.5A3 3 0 0 1 559.5 3.5L559.5 26.5A3 3 0 0 1 556.5 29.5L3.5 29.5A3 3 0 0 1 0.5 26.5L0.5 3.5A3 3 0 0 1 3.5 0.5" transform="matrix(1,0,0,-1,82.8,592.5)" fill="rgb(0,0,0)" fill-opacity="0" stroke="#71708A"></path>
<path d="M0 29.5L560 29.5L560 34.5A2 2 0 0 1 558 36.5L2 36.5A2 2 0 0 1 0 34.5L0 29.5" transform="matrix(1,0,0,-1,82.8,592.5)" fill="#B0B6C3" fill-opacity="0.3"></path>
<path d="M-2.2408 -1.6796C-1.8674 -1.6796 -1.6817 -1.4939 -1.6817 -1.1204L-1.6817 1.1204C-1.6817 1.4939 -1.8674 1.6796 -2.2408 1.6796C-2.6143 1.6796 -2.8 1.4939 -2.8 1.1204L-2.8 -1.1204C-2.8 -1.4939 -2.6143 -1.6796 -2.2408 -1.6796ZM0 -1.6796C0.3735 -1.6796 0.5592 -1.4939 0.5592 -1.1204L0.5592 1.1204C0.5592 1.4939 0.3735 1.6796 0 1.6796C-0.3735 1.6796 -0.5592 1.4939 -0.5592 1.1204L-0.5592 -1.1204C-0.5592 -1.4939 -0.3735 -1.6796 0 -1.6796ZM2.2408 -1.6796C2.6143 -1.6796 2.8 -1.4939 2.8 -1.1204L2.8 1.1204C2.8 1.4939 2.6143 1.6796 2.2408 1.6796C1.8674 1.6796 1.6817 1.4939 1.6817 1.1204L1.6817 -1.1204C1.6796 -1.4939 1.8674 -1.6796 2.2408 -1.6796Z" transform="matrix(1,0,0,-1,362.8,559.5)" fill="#fff"></path>
<path d="M0 1.628L0 2M0 0L0 0.375M-0.1 0.375L0.1 0.375A0.1 0.1 0 0 1 0.2 0.475L0.2 1.525A0.1 0.1 0 0 1 0.1 1.625L-0.1 1.625A0.1 0.1 0 0 1 -0.2 1.525L-0.2 0.475A0.1 0.1 0 0 1 -0.1 0.375Z" transform="matrix(15,0,0,-15,83.8,592.5)" fill="#353450" stroke="#C5CBE3" stroke-width="0.06666666666666667"></path>
<path d="M0 1.628L0 2M0 0L0 0.375M-0.1 0.375L0.1 0.375A0.1 0.1 0 0 1 0.2 0.475L0.2 1.525A0.1 0.1 0 0 1 0.1 1.625L-0.1 1.625A0.1 0.1 0 0 1 -0.2 1.525L-0.2 0.475A0.1 0.1 0 0 1 -0.1 0.375Z" transform="matrix(15,0,0,-15,641.8,592.5)" fill="#353450" stroke="#C5CBE3" stroke-width="0.06666666666666667"></path>
<defs >
<clipPath id="zr0-c0">
<path d="M79 59l562 0l0 472l-562 0Z" fill="#000"></path>
</clipPath>
<clipPath id="zr0-c1">
<path d="M79 59l562 0l0 472l-562 0Z" fill="#000"></path>
</clipPath>
<clipPath id="zr0-c2">
<path d="M0 0l0 0l0 30l0 0Z" transform="matrix(1,0,0,-1,82.8,592.5)" fill="#000"></path>
</clipPath>
<clipPath id="zr0-c3">
<path d="M0 0l560 0l0 30l-560 0Z" transform="matrix(1,0,0,-1,82.8,592.5)" fill="#000"></path>
</clipPath>
<clipPath id="zr0-c4">
<path d="M560 0l0 0l0 30l0 0Z" transform="matrix(1,0,0,-1,82.8,592.5)" fill="#000"></path>
</clipPath>
</defs>
</svg>