<svg width="800" height="600" xmlns="http://www.w3.org/2000/svg" xmlns:xlink="http://www.w3.org/1999/xlink" version="1.1" baseProfile="full" viewBox="0 0 800 600">
<rect width="800" height="600" x="0" y="0" id="0" fill="rgb(40, 44, 52)" fill-opacity="1"></rect>
<path d="M80 530.5L640 530.5" fill="none" stroke="#484753"></path>
<path d="M80 451.5L640 451.5" fill="none" stroke="#484753"></path>
<path d="M80 373.5L640 373.5" fill="none" stroke="#484753"></path>
<path d="M80 295.5L640 295.5" fill="none" stroke="#484753"></path>
<path d="M80 216.5L640 216.5" fill="none" stroke="#484753"></path>
<path d="M80 138.5L640 138.5" fill="none" stroke="#484753"></path>
<path d="M80 60.5L640 60.5" fill="none" stroke="#484753"></path>
<path d="M80 530.5L640 530.5" fill="none" stroke="#484753"></path>
<path d="M80 451.5L640 451.5" fill="none" stroke="#484753"></path>
<path d="M80 373.5L640 373.5" fill="none" stroke="#484753"></path>
<path d="M80 295.5L640 295.5" fill="none" stroke="#484753"></path>
<path d="M80 216.5L640 216.5" fill="none" stroke="#484753"></path>
<path d="M80 138.5L640 138.5" fill="none" stroke="#484753"></path>
<path d="M80 60.5L640 60.5" fill="none" stroke="#484753"></path>
<path d="M80.5 530L80.5 60" fill="none" stroke="#ACDFED" stroke-linecap="round"></path>
<text dominant-baseline="central" text-anchor="middle" style="font-size:12px;font-family:Microsoft YaHei;" y="-6" transform="translate(80 45)" fill="#B9B8CE">压力</text>
<path d="M640.5 530L640.5 60" fill="none" stroke="#FFAB91" stroke-linecap="round"></path>
<text dominant-baseline="central" text-anchor="middle" style="font-size:12px;font-family:Microsoft YaHei;" y="-6" transform="translate(640 45)" fill="#B9B8CE">温度</text>
<path d="M720.5 530L720.5 60" fill="none" stroke="#f7f494" stroke-linecap="round"></path>
<text dominant-baseline="central" text-anchor="middle" style="font-size:12px;font-family:Microsoft YaHei;" y="-6" transform="translate(720 45)" fill="#B9B8CE">负压</text>
<path d="M80 530.5L640 530.5" fill="none" stroke="#B9B8CE" stroke-linecap="round"></path>
<path d="M123.5 530L123.5 535" fill="none" stroke="#B9B8CE"></path>
<path d="M198.5 530L198.5 535" fill="none" stroke="#B9B8CE"></path>
<path d="M273.5 530L273.5 535" fill="none" stroke="#B9B8CE"></path>
<path d="M347.5 530L347.5 535" fill="none" stroke="#B9B8CE"></path>
<path d="M422.5 530L422.5 535" fill="none" stroke="#B9B8CE"></path>
<path d="M497.5 530L497.5 535" fill="none" stroke="#B9B8CE"></path>
<path d="M571.5 530L571.5 535" fill="none" stroke="#B9B8CE"></path>
<text dominant-baseline="central" text-anchor="end" style="font-size:12px;font-family:Microsoft YaHei;" xml:space="preserve" transform="translate(72 530)" fill="#B9B8CE">0 hPa</text>
<text dominant-baseline="central" text-anchor="end" style="font-size:12px;font-family:Microsoft YaHei;" xml:space="preserve" transform="translate(72 451.6667)" fill="#B9B8CE">200 hPa</text>
<text dominant-baseline="central" text-anchor="end" style="font-size:12px;font-family:Microsoft YaHei;" xml:space="preserve" transform="translate(72 373.3333)" fill="#B9B8CE">400 hPa</text>
<text dominant-baseline="central" text-anchor="end" style="font-size:12px;font-family:Microsoft YaHei;" xml:space="preserve" transform="translate(72 295)" fill="#B9B8CE">600 hPa</text>
<text dominant-baseline="central" text-anchor="end" style="font-size:12px;font-family:Microsoft YaHei;" xml:space="preserve" transform="translate(72 216.6667)" fill="#B9B8CE">800 hPa</text>
<text dominant-baseline="central" text-anchor="end" style="font-size:12px;font-family:Microsoft YaHei;" xml:space="preserve" transform="translate(72 138.3333)" fill="#B9B8CE">1,000 hPa</text>
<text dominant-baseline="central" text-anchor="end" style="font-size:12px;font-family:Microsoft YaHei;" xml:space="preserve" transform="translate(72 60)" fill="#B9B8CE">1,200 hPa</text>
<text dominant-baseline="central" text-anchor="start" style="font-size:12px;font-family:Microsoft YaHei;" xml:space="preserve" transform="translate(728 530)" fill="#B9B8CE">0 hPa</text>
<text dominant-baseline="central" text-anchor="start" style="font-size:12px;font-family:Microsoft YaHei;" xml:space="preserve" transform="translate(728 451.6667)" fill="#B9B8CE">10 hPa</text>
<text dominant-baseline="central" text-anchor="start" style="font-size:12px;font-family:Microsoft YaHei;" xml:space="preserve" transform="translate(728 373.3333)" fill="#B9B8CE">20 hPa</text>
<text dominant-baseline="central" text-anchor="start" style="font-size:12px;font-family:Microsoft YaHei;" xml:space="preserve" transform="translate(728 295)" fill="#B9B8CE">30 hPa</text>
<text dominant-baseline="central" text-anchor="start" style="font-size:12px;font-family:Microsoft YaHei;" xml:space="preserve" transform="translate(728 216.6667)" fill="#B9B8CE">40 hPa</text>
<text dominant-baseline="central" text-anchor="start" style="font-size:12px;font-family:Microsoft YaHei;" xml:space="preserve" transform="translate(728 138.3333)" fill="#B9B8CE">50 hPa</text>
<text dominant-baseline="central" text-anchor="start" style="font-size:12px;font-family:Microsoft YaHei;" xml:space="preserve" transform="translate(728 60)" fill="#B9B8CE">60 hPa</text>
<text dominant-baseline="central" text-anchor="middle" style="font-size:12px;font-family:Microsoft YaHei;" y="6" transform="translate(123.5556 538)" fill="#B9B8CE">18:02:37</text>
<text dominant-baseline="central" text-anchor="middle" style="font-size:12px;font-family:Microsoft YaHei;" y="6" transform="translate(198.2222 538)" fill="#B9B8CE">18:02:43</text>
<text dominant-baseline="central" text-anchor="middle" style="font-size:12px;font-family:Microsoft YaHei;" y="6" transform="translate(272.8889 538)" fill="#B9B8CE">18:02:49</text>
<text dominant-baseline="central" text-anchor="middle" style="font-size:12px;font-family:Microsoft YaHei;" y="6" transform="translate(347.5556 538)" fill="#B9B8CE">18:02:55</text>
<text dominant-baseline="central" text-anchor="middle" style="font-size:12px;font-family:Microsoft YaHei;" y="6" transform="translate(422.2222 538)" fill="#B9B8CE">18:03:01</text>
<text dominant-baseline="central" text-anchor="middle" style="font-size:12px;font-family:Microsoft YaHei;" y="6" transform="translate(496.8889 538)" fill="#B9B8CE">18:03:07</text>
<text dominant-baseline="central" text-anchor="middle" style="font-size:12px;font-family:Microsoft YaHei;" y="6" transform="translate(571.5556 538)" fill="#B9B8CE">18:03:13</text>
<g clip-path="url(#zr0-c0)">
<path d="M86.2 153.2L98.7 153.6L111.1 153.6L123.6 153.3L136 153.1L148.4 153L160.9 152.9L173.3 153.5L185.8 151.7L198.2 150.4L210.7 149.1L223.1 146.9L235.6 146L248 145.1L260.4 144.2L272.9 142.7L285.3 142L297.8 141.4L310.2 140.8L322.7 139.6L335.1 139.1L347.6 138.6L360 138.1L372.4 137.3L384.9 136.9L397.3 136.5L409.8 136.2L422.2 135.5L434.7 135.2L447.1 134.9L459.6 134.5L472 133.9L484.4 133.6L496.9 133.5L509.3 133.4L521.8 133.4L534.2 133.3L546.7 133.3L559.1 133.3L571.6 133.3L584 133.3L596.4 133.3L608.9 133.3L621.3 133.3L633.8 133.3" fill="none" stroke="#ACDFED" stroke-width="2" stroke-linejoin="bevel"></path>
</g>
<g clip-path="url(#zr0-c1)">
<path d="M86.2222 133.6725L98.6667 133.6725L111.1111 133.6725L123.5556 133.6725L136 133.6725L148.4444 133.6725L160.8889 133.6725L173.3333 133.6725L185.7778 133.6725L198.2222 133.6725L210.6667 133.6725L223.1111 133.6725L235.5556 133.6725L248 133.6725L260.4445 133.6725L272.8889 133.6725L285.3333 133.6725L297.7778 133.6725L310.2222 133.6725L322.6667 133.6725L335.1111 133.6725L347.5555 133.6725L360 133.6725L372.4445 133.6725L384.8889 133.6725L397.3333 133.6725L409.7778 133.6725L422.2222 133.6725L434.6667 133.6725L447.1111 133.6725L459.5555 133.6725L472 133.6725L484.4445 133.6725L496.8889 133.6725L509.3333 133.6725L521.7778 133.6725L534.2222 133.6725L546.6667 133.6725L559.1111 133.6725L571.5555 133.6725L584 133.6725L596.4445 133.6725L608.8889 133.6725L621.3333 133.6725L633.7778 133.6725" fill="none" stroke="#ACDFED" stroke-width="2" stroke-linejoin="bevel"></path>
</g>
<g clip-path="url(#zr0-c2)">
<path d="M86.2 139.9L98.7 131.3L111.1 132.1L123.6 133.6L136 141.5L148.4 143.8L160.9 145.4L173.3 132.9L185.8 168.9L198.2 197.1L210.7 221.4L223.1 244.1L235.6 284L248 302L260.4 318.5L272.9 334.2L285.3 363.1L297.8 376.5L310.2 389L322.7 400.8L335.1 421.9L347.6 432.1L360 441.5L372.4 450.1L384.9 466.5L397.3 473.6L409.8 480.6L422.2 486.9L434.7 500.2L447.1 506.5L459.6 512.8L472 519.8L484.4 529.2L496.9 526.1L509.3 524.5L521.8 524.5L534.2 523.7L546.7 523.7L559.1 523.7L571.6 523.7L584 523.7L596.4 523.7L608.9 523L621.3 523L633.8 523" fill="none" stroke="#f7f494" stroke-width="2" stroke-linejoin="bevel"></path>
</g>
<path d="M0 -1L1 1L-1 1Z" transform="matrix(5,0,0,5,123.5556,153.3342)" fill="#ACDFED"></path>
<path d="M0 -1L1 1L-1 1Z" transform="matrix(5,0,0,5,198.2222,150.3575)" fill="#ACDFED"></path>
<path d="M0 -1L1 1L-1 1Z" transform="matrix(5,0,0,5,272.8889,142.72)" fill="#ACDFED"></path>
<path d="M0 -1L1 1L-1 1Z" transform="matrix(5,0,0,5,347.5555,138.6075)" fill="#ACDFED"></path>
<path d="M0 -1L1 1L-1 1Z" transform="matrix(5,0,0,5,422.2222,135.5133)" fill="#ACDFED"></path>
<path d="M0 -1L1 1L-1 1Z" transform="matrix(5,0,0,5,496.8889,133.4767)" fill="#ACDFED"></path>
<path d="M0 -1L1 1L-1 1Z" transform="matrix(5,0,0,5,571.5555,133.32)" fill="#ACDFED"></path>
<path d="M1 0A1 1 0 1 1 1 -0.0001" transform="matrix(0,0,0,0,82.314,133.7508)" fill="#ACDFED" fill-opacity="0"></path>
<path d="M1 0A1 1 0 1 1 1 -0.0001" transform="matrix(5,0,0,5,123.5556,133.6725)" fill="#ACDFED"></path>
<path d="M1 0A1 1 0 1 1 1 -0.0001" transform="matrix(5,0,0,5,198.2222,133.6725)" fill="#ACDFED"></path>
<path d="M1 0A1 1 0 1 1 1 -0.0001" transform="matrix(5,0,0,5,272.8889,133.6725)" fill="#ACDFED"></path>
<path d="M1 0A1 1 0 1 1 1 -0.0001" transform="matrix(5,0,0,5,347.5555,133.6725)" fill="#ACDFED"></path>
<path d="M1 0A1 1 0 1 1 1 -0.0001" transform="matrix(5,0,0,5,422.2222,133.6725)" fill="#ACDFED"></path>
<path d="M1 0A1 1 0 1 1 1 -0.0001" transform="matrix(5,0,0,5,496.8889,133.6725)" fill="#ACDFED"></path>
<path d="M1 0A1 1 0 1 1 1 -0.0001" transform="matrix(5,0,0,5,571.5555,133.6725)" fill="#ACDFED"></path>
<path d="M0 -1L1 1L-1 1Z" transform="matrix(0,0,0,0,82.314,73.16)" fill="#FFAB91" fill-opacity="0"></path>
<path d="M0 -1L1 1L-1 1Z" transform="matrix(0,0,0,0,82.314,528.7914)" fill="#f7f494" fill-opacity="0"></path>
<path d="M0 -1L1 1L-1 1Z" transform="matrix(5,0,0,5,123.5556,133.6333)" fill="#f7f494"></path>
<path d="M0 -1L1 1L-1 1Z" transform="matrix(5,0,0,5,198.2222,197.0833)" fill="#f7f494"></path>
<path d="M0 -1L1 1L-1 1Z" transform="matrix(5,0,0,5,272.8889,334.1667)" fill="#f7f494"></path>
<path d="M0 -1L1 1L-1 1Z" transform="matrix(5,0,0,5,347.5555,432.0833)" fill="#f7f494"></path>
<path d="M0 -1L1 1L-1 1Z" transform="matrix(5,0,0,5,422.2222,486.9167)" fill="#f7f494"></path>
<path d="M0 -1L1 1L-1 1Z" transform="matrix(5,0,0,5,496.8889,526.0833)" fill="#f7f494"></path>
<path d="M0 -1L1 1L-1 1Z" transform="matrix(5,0,0,5,571.5555,523.7333)" fill="#f7f494"></path>
<path d="M0 0l560 0l0 30l-560 0Z" transform="matrix(1,0,0,-1,82.8,592.5)" fill="rgb(47,69,84)" fill-opacity="0"></path>
<g clip-path="url(#zr0-c3)">
<polygon points="560 0 0 0 0 7.9 4.7 7.7 9.3 7.3 14 7.8 18.7 7.4 23.3 6.9 28 7.4 32.7 6.8 37.3 6.6 42 7 46.7 6.5 51.3 6.8 56 6.7 60.7 6.8 65.3 6.2 70 6.5 74.7 6.5 79.3 6.1 84 6.4 88.7 5.9 93.3 5.8 98 5.9 102.7 6.4 107.3 5.7 112 6.1 116.7 5.7 121.3 6.3 126 6.3 130.7 5.7 135.3 6.2 140 6.3 144.7 6.1 149.3 5.7 154 5.6 158.7 5.7 163.3 5.6 168 5.7 172.7 6.2 177.3 6.1 182 6.3 186.7 6.3 191.3 6.3 196 6.5 200.7 6.4 205.3 6.5 210 6.3 214.7 5.9 219.3 6 224 6.3 228.7 6.5 233.3 6.5 238 6.3 242.7 6 247.3 6.2 252 6.4 256.7 6.4 261.3 6.5 266 6.5 270.7 6.1 275.3 6.2 280 6.4 284.7 6.5 289.3 6.6 294 6.7 298.7 6.2 303.3 7.8 308 9 312.7 10.2 317.3 12.1 322 13 326.7 13.8 331.3 14.5 336 15.9 340.7 16.6 345.3 17.1 350 17.7 354.7 18.7 359.3 19.2 364 19.6 368.7 20 373.3 20.8 378 21.2 382.7 21.5 387.3 21.8 392 22.4 396.7 22.7 401.3 23 406 23.3 410.7 23.8 415.3 24.1 420 24.2 424.7 24.3 429.3 24.3 434 24.4 438.7 24.4 443.3 24.4 448 24.4 452.7 24.4 457.3 24.4 462 24.4 466.7 24.4 471.3 24.4 476 24.4 480.7 24.4 485.3 24.4 490 24.4 494.7 24.4 499.3 24.4 504 24.4 508.7 24.4 513.3 24.4 518 24.4 522.7 24.4 527.3 24.4 532 24.4 536.7 24.4 541.3 24.4 546 24.4 550.7 24.4 555.3 24.4 560 24.4" transform="matrix(1,0,0,-1,82.8,592.5)" fill="#71708A" fill-opacity="0.2"></polygon>
</g>
<g clip-path="url(#zr0-c4)">
<polygon points="560 0 0 0 0 7.9 4.7 7.7 9.3 7.3 14 7.8 18.7 7.4 23.3 6.9 28 7.4 32.7 6.8 37.3 6.6 42 7 46.7 6.5 51.3 6.8 56 6.7 60.7 6.8 65.3 6.2 70 6.5 74.7 6.5 79.3 6.1 84 6.4 88.7 5.9 93.3 5.8 98 5.9 102.7 6.4 107.3 5.7 112 6.1 116.7 5.7 121.3 6.3 126 6.3 130.7 5.7 135.3 6.2 140 6.3 144.7 6.1 149.3 5.7 154 5.6 158.7 5.7 163.3 5.6 168 5.7 172.7 6.2 177.3 6.1 182 6.3 186.7 6.3 191.3 6.3 196 6.5 200.7 6.4 205.3 6.5 210 6.3 214.7 5.9 219.3 6 224 6.3 228.7 6.5 233.3 6.5 238 6.3 242.7 6 247.3 6.2 252 6.4 256.7 6.4 261.3 6.5 266 6.5 270.7 6.1 275.3 6.2 280 6.4 284.7 6.5 289.3 6.6 294 6.7 298.7 6.2 303.3 7.8 308 9 312.7 10.2 317.3 12.1 322 13 326.7 13.8 331.3 14.5 336 15.9 340.7 16.6 345.3 17.1 350 17.7 354.7 18.7 359.3 19.2 364 19.6 368.7 20 373.3 20.8 378 21.2 382.7 21.5 387.3 21.8 392 22.4 396.7 22.7 401.3 23 406 23.3 410.7 23.8 415.3 24.1 420 24.2 424.7 24.3 429.3 24.3 434 24.4 438.7 24.4 443.3 24.4 448 24.4 452.7 24.4 457.3 24.4 462 24.4 466.7 24.4 471.3 24.4 476 24.4 480.7 24.4 485.3 24.4 490 24.4 494.7 24.4 499.3 24.4 504 24.4 508.7 24.4 513.3 24.4 518 24.4 522.7 24.4 527.3 24.4 532 24.4 536.7 24.4 541.3 24.4 546 24.4 550.7 24.4 555.3 24.4 560 24.4" transform="matrix(1,0,0,-1,82.8,592.5)" fill="#87A3CE" fill-opacity="0.2"></polygon>
</g>
<g clip-path="url(#zr0-c5)">
<polygon points="560 0 0 0 0 7.9 4.7 7.7 9.3 7.3 14 7.8 18.7 7.4 23.3 6.9 28 7.4 32.7 6.8 37.3 6.6 42 7 46.7 6.5 51.3 6.8 56 6.7 60.7 6.8 65.3 6.2 70 6.5 74.7 6.5 79.3 6.1 84 6.4 88.7 5.9 93.3 5.8 98 5.9 102.7 6.4 107.3 5.7 112 6.1 116.7 5.7 121.3 6.3 126 6.3 130.7 5.7 135.3 6.2 140 6.3 144.7 6.1 149.3 5.7 154 5.6 158.7 5.7 163.3 5.6 168 5.7 172.7 6.2 177.3 6.1 182 6.3 186.7 6.3 191.3 6.3 196 6.5 200.7 6.4 205.3 6.5 210 6.3 214.7 5.9 219.3 6 224 6.3 228.7 6.5 233.3 6.5 238 6.3 242.7 6 247.3 6.2 252 6.4 256.7 6.4 261.3 6.5 266 6.5 270.7 6.1 275.3 6.2 280 6.4 284.7 6.5 289.3 6.6 294 6.7 298.7 6.2 303.3 7.8 308 9 312.7 10.2 317.3 12.1 322 13 326.7 13.8 331.3 14.5 336 15.9 340.7 16.6 345.3 17.1 350 17.7 354.7 18.7 359.3 19.2 364 19.6 368.7 20 373.3 20.8 378 21.2 382.7 21.5 387.3 21.8 392 22.4 396.7 22.7 401.3 23 406 23.3 410.7 23.8 415.3 24.1 420 24.2 424.7 24.3 429.3 24.3 434 24.4 438.7 24.4 443.3 24.4 448 24.4 452.7 24.4 457.3 24.4 462 24.4 466.7 24.4 471.3 24.4 476 24.4 480.7 24.4 485.3 24.4 490 24.4 494.7 24.4 499.3 24.4 504 24.4 508.7 24.4 513.3 24.4 518 24.4 522.7 24.4 527.3 24.4 532 24.4 536.7 24.4 541.3 24.4 546 24.4 550.7 24.4 555.3 24.4 560 24.4" transform="matrix(1,0,0,-1,82.8,592.5)" fill="#71708A" fill-opacity="0.2"></polygon>
</g>
<g clip-path="url(#zr0-c3)">
<polyline points="0 7.9 4.7 7.7 9.3 7.3 14 7.8 18.7 7.4 23.3 6.9 28 7.4 32.7 6.8 37.3 6.6 42 7 46.7 6.5 51.3 6.8 56 6.7 60.7 6.8 65.3 6.2 70 6.5 74.7 6.5 79.3 6.1 84 6.4 88.7 5.9 93.3 5.8 98 5.9 102.7 6.4 107.3 5.7 112 6.1 116.7 5.7 121.3 6.3 126 6.3 130.7 5.7 135.3 6.2 140 6.3 144.7 6.1 149.3 5.7 154 5.6 158.7 5.7 163.3 5.6 168 5.7 172.7 6.2 177.3 6.1 182 6.3 186.7 6.3 191.3 6.3 196 6.5 200.7 6.4 205.3 6.5 210 6.3 214.7 5.9 219.3 6 224 6.3 228.7 6.5 233.3 6.5 238 6.3 242.7 6 247.3 6.2 252 6.4 256.7 6.4 261.3 6.5 266 6.5 270.7 6.1 275.3 6.2 280 6.4 284.7 6.5 289.3 6.6 294 6.7 298.7 6.2 303.3 7.8 308 9 312.7 10.2 317.3 12.1 322 13 326.7 13.8 331.3 14.5 336 15.9 340.7 16.6 345.3 17.1 350 17.7 354.7 18.7 359.3 19.2 364 19.6 368.7 20 373.3 20.8 378 21.2 382.7 21.5 387.3 21.8 392 22.4 396.7 22.7 401.3 23 406 23.3 410.7 23.8 415.3 24.1 420 24.2 424.7 24.3 429.3 24.3 434 24.4 438.7 24.4 443.3 24.4 448 24.4 452.7 24.4 457.3 24.4 462 24.4 466.7 24.4 471.3 24.4 476 24.4 480.7 24.4 485.3 24.4 490 24.4 494.7 24.4 499.3 24.4 504 24.4 508.7 24.4 513.3 24.4 518 24.4 522.7 24.4 527.3 24.4 532 24.4 536.7 24.4 541.3 24.4 546 24.4 550.7 24.4 555.3 24.4 560 24.4" transform="matrix(1,0,0,-1,82.8,592.5)" fill="none" stroke="#71708A"></polyline>
</g>
<g clip-path="url(#zr0-c4)">
<polyline points="0 7.9 4.7 7.7 9.3 7.3 14 7.8 18.7 7.4 23.3 6.9 28 7.4 32.7 6.8 37.3 6.6 42 7 46.7 6.5 51.3 6.8 56 6.7 60.7 6.8 65.3 6.2 70 6.5 74.7 6.5 79.3 6.1 84 6.4 88.7 5.9 93.3 5.8 98 5.9 102.7 6.4 107.3 5.7 112 6.1 116.7 5.7 121.3 6.3 126 6.3 130.7 5.7 135.3 6.2 140 6.3 144.7 6.1 149.3 5.7 154 5.6 158.7 5.7 163.3 5.6 168 5.7 172.7 6.2 177.3 6.1 182 6.3 186.7 6.3 191.3 6.3 196 6.5 200.7 6.4 205.3 6.5 210 6.3 214.7 5.9 219.3 6 224 6.3 228.7 6.5 233.3 6.5 238 6.3 242.7 6 247.3 6.2 252 6.4 256.7 6.4 261.3 6.5 266 6.5 270.7 6.1 275.3 6.2 280 6.4 284.7 6.5 289.3 6.6 294 6.7 298.7 6.2 303.3 7.8 308 9 312.7 10.2 317.3 12.1 322 13 326.7 13.8 331.3 14.5 336 15.9 340.7 16.6 345.3 17.1 350 17.7 354.7 18.7 359.3 19.2 364 19.6 368.7 20 373.3 20.8 378 21.2 382.7 21.5 387.3 21.8 392 22.4 396.7 22.7 401.3 23 406 23.3 410.7 23.8 415.3 24.1 420 24.2 424.7 24.3 429.3 24.3 434 24.4 438.7 24.4 443.3 24.4 448 24.4 452.7 24.4 457.3 24.4 462 24.4 466.7 24.4 471.3 24.4 476 24.4 480.7 24.4 485.3 24.4 490 24.4 494.7 24.4 499.3 24.4 504 24.4 508.7 24.4 513.3 24.4 518 24.4 522.7 24.4 527.3 24.4 532 24.4 536.7 24.4 541.3 24.4 546 24.4 550.7 24.4 555.3 24.4 560 24.4" transform="matrix(1,0,0,-1,82.8,592.5)" fill="none" stroke="#87A3CE" stroke-width="0.5"></polyline>
</g>
<g clip-path="url(#zr0-c5)">
<polyline points="0 7.9 4.7 7.7 9.3 7.3 14 7.8 18.7 7.4 23.3 6.9 28 7.4 32.7 6.8 37.3 6.6 42 7 46.7 6.5 51.3 6.8 56 6.7 60.7 6.8 65.3 6.2 70 6.5 74.7 6.5 79.3 6.1 84 6.4 88.7 5.9 93.3 5.8 98 5.9 102.7 6.4 107.3 5.7 112 6.1 116.7 5.7 121.3 6.3 126 6.3 130.7 5.7 135.3 6.2 140 6.3 144.7 6.1 149.3 5.7 154 5.6 158.7 5.7 163.3 5.6 168 5.7 172.7 6.2 177.3 6.1 182 6.3 186.7 6.3 191.3 6.3 196 6.5 200.7 6.4 205.3 6.5 210 6.3 214.7 5.9 219.3 6 224 6.3 228.7 6.5 233.3 6.5 238 6.3 242.7 6 247.3 6.2 252 6.4 256.7 6.4 261.3 6.5 266 6.5 270.7 6.1 275.3 6.2 280 6.4 284.7 6.5 289.3 6.6 294 6.7 298.7 6.2 303.3 7.8 308 9 312.7 10.2 317.3 12.1 322 13 326.7 13.8 331.3 14.5 336 15.9 340.7 16.6 345.3 17.1 350 17.7 354.7 18.7 359.3 19.2 364 19.6 368.7 20 373.3 20.8 378 21.2 382.7 21.5 387.3 21.8 392 22.4 396.7 22.7 401.3 23 406 23.3 410.7 23.8 415.3 24.1 420 24.2 424.7 24.3 429.3 24.3 434 24.4 438.7 24.4 443.3 24.4 448 24.4 452.7 24.4 457.3 24.4 462 24.4 466.7 24.4 471.3 24.4 476 24.4 480.7 24.4 485.3 24.4 490 24.4 494.7 24.4 499.3 24.4 504 24.4 508.7 24.4 513.3 24.4 518 24.4 522.7 24.4 527.3 24.4 532 24.4 536.7 24.4 541.3 24.4 546 24.4 550.7 24.4 555.3 24.4 560 24.4" transform="matrix(1,0,0,-1,82.8,592.5)" fill="none" stroke="#71708A"></polyline>
</g>
<path d="M-5 -5l691.0547 0l0 22l-691.0547 0Z" transform="translate(59.4727 5)" fill="rgb(0,0,0)" fill-opacity="0" stroke="#ccc" stroke-width="0"></path>
<path d="M0 7L25 7" transform="translate(60.4727 4)" fill="#000" stroke="#ACDFED" stroke-width="2" stroke-linecap="butt" stroke-miterlimit="10"></path>
<path d="M12.5 1.4L18.1 12.6L6.9 12.6Z" transform="translate(60.4727 4)" fill="#ACDFED"></path>
<text dominant-baseline="central" text-anchor="start" style="font-size:12px;font-family:Microsoft YaHei;" x="30" y="7" transform="translate(60.4727 4)" fill="#B9B8CE">Pipe_Pres</text>
<path d="M0 7L25 7" transform="translate(156.1465 4)" fill="#000" stroke="#ACDFED" stroke-width="2" stroke-linecap="butt" stroke-miterlimit="10"></path>
<path d="M18.1 7A5.6 5.6 0 1 1 18.1 6.9994" transform="translate(156.1465 4)" fill="#ACDFED"></path>
<text dominant-baseline="central" text-anchor="start" style="font-size:12px;font-family:Microsoft YaHei;" x="30" y="7" transform="translate(156.1465 4)" fill="#B9B8CE">Ambient_Pres</text>
<path d="M0 7L25 7" transform="translate(276.0313 4)" fill="#000" stroke="#ccc" stroke-width="2" stroke-linecap="butt" stroke-miterlimit="10"></path>
<path d="M12.5 1.4L18.1 12.6L6.9 12.6Z" transform="translate(276.0313 4)" fill="#ccc" stroke="#ccc" stroke-width="0" stroke-linecap="butt" stroke-miterlimit="10"></path>
<text dominant-baseline="central" text-anchor="start" style="font-size:12px;font-family:Microsoft YaHei;" x="30" y="7" transform="translate(276.0313 4)" fill="#ccc">Pipe_Temp</text>
<path d="M0 7L25 7" transform="translate(380.0137 4)" fill="#000" stroke="#ccc" stroke-width="2" stroke-linecap="butt" stroke-miterlimit="10"></path>
<path d="M18.1 7A5.6 5.6 0 1 1 18.1 6.9994" transform="translate(380.0137 4)" fill="#ccc" stroke="#ccc" stroke-width="0" stroke-linecap="butt" stroke-miterlimit="10"></path>
<text dominant-baseline="central" text-anchor="start" style="font-size:12px;font-family:Microsoft YaHei;" x="30" y="7" transform="translate(380.0137 4)" fill="#ccc">Chip_Temp</text>
<path d="M0 7L25 7" transform="translate(485.2617 4)" fill="#000" stroke="#ccc" stroke-width="2" stroke-linecap="butt" stroke-miterlimit="10"></path>
<path d="M18.1 7A5.6 5.6 0 1 1 18.1 6.9994" transform="translate(485.2617 4)" fill="#ccc" stroke="#ccc" stroke-width="0" stroke-linecap="butt" stroke-miterlimit="10"></path>
<text dominant-baseline="central" text-anchor="start" style="font-size:12px;font-family:Microsoft YaHei;" x="30" y="7" transform="translate(485.2617 4)" fill="#ccc">Set_nPressure</text>
<path d="M0 7L25 7" transform="translate(605.8672 4)" fill="#000" stroke="#f7f494" stroke-width="2" stroke-linecap="butt" stroke-miterlimit="10"></path>
<path d="M12.5 1.4L18.1 12.6L6.9 12.6Z" transform="translate(605.8672 4)" fill="#f7f494"></path>
<text dominant-baseline="central" text-anchor="start" style="font-size:12px;font-family:Microsoft YaHei;" x="30" y="7" transform="translate(605.8672 4)" fill="#B9B8CE">Current_nPressure</text>
<path d="M0 0l560 0l0 30l-560 0Z" transform="matrix(1,0,0,-1,82.8,592.5)" fill="none"></path>
<path d="M264 0l209 0l0 30l-209 0Z" transform="matrix(1,0,0,-1,82.8,592.5)" fill="rgb(135,163,206)" fill-opacity="0.2"></path>
<path d="M3.5 0.5L556.5 0.5A3 3 0 0 1 559.5 3.5L559.5 26.5A3 3 0 0 1 556.5 29.5L3.5 29.5A3 3 0 0 1 0.5 26.5L0.5 3.5A3 3 0 0 1 3.5 0.5" transform="matrix(1,0,0,-1,82.8,592.5)" fill="rgb(0,0,0)" fill-opacity="0" stroke="#71708A"></path>
<path d="M264 29.5L473 29.5L473 34.5A2 2 0 0 1 471 36.5L266 36.5A2 2 0 0 1 264 34.5L264 29.5" transform="matrix(1,0,0,-1,82.8,592.5)" fill="#B0B6C3" fill-opacity="0.3"></path>
<path d="M-2.2408 -1.6796C-1.8674 -1.6796 -1.6817 -1.4939 -1.6817 -1.1204L-1.6817 1.1204C-1.6817 1.4939 -1.8674 1.6796 -2.2408 1.6796C-2.6143 1.6796 -2.8 1.4939 -2.8 1.1204L-2.8 -1.1204C-2.8 -1.4939 -2.6143 -1.6796 -2.2408 -1.6796ZM0 -1.6796C0.3735 -1.6796 0.5592 -1.4939 0.5592 -1.1204L0.5592 1.1204C0.5592 1.4939 0.3735 1.6796 0 1.6796C-0.3735 1.6796 -0.5592 1.4939 -0.5592 1.1204L-0.5592 -1.1204C-0.5592 -1.4939 -0.3735 -1.6796 0 -1.6796ZM2.2408 -1.6796C2.6143 -1.6796 2.8 -1.4939 2.8 -1.1204L2.8 1.1204C2.8 1.4939 2.6143 1.6796 2.2408 1.6796C1.8674 1.6796 1.6817 1.4939 1.6817 1.1204L1.6817 -1.1204C1.6796 -1.4939 1.8674 -1.6796 2.2408 -1.6796Z" transform="matrix(1,0,0,-1,451.3,559.5)" fill="#fff"></path>
<path d="M0 1.628L0 2M0 0L0 0.375M-0.1 0.375L0.1 0.375A0.1 0.1 0 0 1 0.2 0.475L0.2 1.525A0.1 0.1 0 0 1 0.1 1.625L-0.1 1.625A0.1 0.1 0 0 1 -0.2 1.525L-0.2 0.475A0.1 0.1 0 0 1 -0.1 0.375Z" transform="matrix(15,0,0,-15,347.8,592.5)" fill="#353450" stroke="#C5CBE3" stroke-width="0.06666666666666667"></path>
<path d="M0 1.628L0 2M0 0L0 0.375M-0.1 0.375L0.1 0.375A0.1 0.1 0 0 1 0.2 0.475L0.2 1.525A0.1 0.1 0 0 1 0.1 1.625L-0.1 1.625A0.1 0.1 0 0 1 -0.2 1.525L-0.2 0.475A0.1 0.1 0 0 1 -0.1 0.375Z" transform="matrix(15,0,0,-15,554.8,592.5)" fill="#353450" stroke="#C5CBE3" stroke-width="0.06666666666666667"></path>
<defs >
<clipPath id="zr0-c0">
<path d="M79 59l562 0l0 472l-562 0Z" fill="#000"></path>
</clipPath>
<clipPath id="zr0-c1">
<path d="M79 59l562 0l0 472l-562 0Z" fill="#000"></path>
</clipPath>
<clipPath id="zr0-c2">
<path d="M79 59l562 0l0 472l-562 0Z" fill="#000"></path>
</clipPath>
<clipPath id="zr0-c3">
<path d="M0 0l264 0l0 30l-264 0Z" transform="matrix(1,0,0,-1,82.8,592.5)" fill="#000"></path>
</clipPath>
<clipPath id="zr0-c4">
<path d="M264 0l209 0l0 30l-209 0Z" transform="matrix(1,0,0,-1,82.8,592.5)" fill="#000"></path>
</clipPath>
<clipPath id="zr0-c5">
<path d="M473 0l87 0l0 30l-87 0Z" transform="matrix(1,0,0,-1,82.8,592.5)" fill="#000"></path>
</clipPath>
</defs>
</svg>