<svg width="800" height="600" xmlns="http://www.w3.org/2000/svg" xmlns:xlink="http://www.w3.org/1999/xlink" version="1.1" baseProfile="full" viewBox="0 0 800 600">
<rect width="800" height="600" x="0" y="0" id="0" fill="rgb(40, 44, 52)" fill-opacity="1"></rect>
<path d="M80 530.5L640 530.5" fill="none" stroke="#484753"></path>
<path d="M80 451.5L640 451.5" fill="none" stroke="#484753"></path>
<path d="M80 373.5L640 373.5" fill="none" stroke="#484753"></path>
<path d="M80 295.5L640 295.5" fill="none" stroke="#484753"></path>
<path d="M80 216.5L640 216.5" fill="none" stroke="#484753"></path>
<path d="M80 138.5L640 138.5" fill="none" stroke="#484753"></path>
<path d="M80 60.5L640 60.5" fill="none" stroke="#484753"></path>
<path d="M80 530.5L640 530.5" fill="none" stroke="#484753"></path>
<path d="M80 463.5L640 463.5" fill="none" stroke="#484753"></path>
<path d="M80 395.5L640 395.5" fill="none" stroke="#484753"></path>
<path d="M80 328.5L640 328.5" fill="none" stroke="#484753"></path>
<path d="M80 261.5L640 261.5" fill="none" stroke="#484753"></path>
<path d="M80 194.5L640 194.5" fill="none" stroke="#484753"></path>
<path d="M80 127.5L640 127.5" fill="none" stroke="#484753"></path>
<path d="M80 60.5L640 60.5" fill="none" stroke="#484753"></path>
<path d="M80.5 530L80.5 60" fill="none" stroke="#ACDFED" stroke-linecap="round"></path>
<text dominant-baseline="central" text-anchor="middle" style="font-size:12px;font-family:Microsoft YaHei;" y="-6" transform="translate(80 45)" fill="#B9B8CE">压力</text>
<path d="M640.5 530L640.5 60" fill="none" stroke="#FFAB91" stroke-linecap="round"></path>
<text dominant-baseline="central" text-anchor="middle" style="font-size:12px;font-family:Microsoft YaHei;" y="-6" transform="translate(640 45)" fill="#B9B8CE">温度</text>
<path d="M720.5 530L720.5 60" fill="none" stroke="#f7f494" stroke-linecap="round"></path>
<text dominant-baseline="central" text-anchor="middle" style="font-size:12px;font-family:Microsoft YaHei;" y="-6" transform="translate(720 45)" fill="#B9B8CE">负压</text>
<path d="M80 530.5L640 530.5" fill="none" stroke="#B9B8CE" stroke-linecap="round"></path>
<path d="M82.5 530L82.5 535" fill="none" stroke="#B9B8CE"></path>
<path d="M147.5 530L147.5 535" fill="none" stroke="#B9B8CE"></path>
<path d="M212.5 530L212.5 535" fill="none" stroke="#B9B8CE"></path>
<path d="M276.5 530L276.5 535" fill="none" stroke="#B9B8CE"></path>
<path d="M341.5 530L341.5 535" fill="none" stroke="#B9B8CE"></path>
<path d="M406.5 530L406.5 535" fill="none" stroke="#B9B8CE"></path>
<path d="M471.5 530L471.5 535" fill="none" stroke="#B9B8CE"></path>
<path d="M536.5 530L536.5 535" fill="none" stroke="#B9B8CE"></path>
<path d="M600.5 530L600.5 535" fill="none" stroke="#B9B8CE"></path>
<text dominant-baseline="central" text-anchor="end" style="font-size:12px;font-family:Microsoft YaHei;" xml:space="preserve" transform="translate(72 530)" fill="#B9B8CE">0 hPa</text>
<text dominant-baseline="central" text-anchor="end" style="font-size:12px;font-family:Microsoft YaHei;" xml:space="preserve" transform="translate(72 451.6667)" fill="#B9B8CE">200 hPa</text>
<text dominant-baseline="central" text-anchor="end" style="font-size:12px;font-family:Microsoft YaHei;" xml:space="preserve" transform="translate(72 373.3333)" fill="#B9B8CE">400 hPa</text>
<text dominant-baseline="central" text-anchor="end" style="font-size:12px;font-family:Microsoft YaHei;" xml:space="preserve" transform="translate(72 295)" fill="#B9B8CE">600 hPa</text>
<text dominant-baseline="central" text-anchor="end" style="font-size:12px;font-family:Microsoft YaHei;" xml:space="preserve" transform="translate(72 216.6667)" fill="#B9B8CE">800 hPa</text>
<text dominant-baseline="central" text-anchor="end" style="font-size:12px;font-family:Microsoft YaHei;" xml:space="preserve" transform="translate(72 138.3333)" fill="#B9B8CE">1,000 hPa</text>
<text dominant-baseline="central" text-anchor="end" style="font-size:12px;font-family:Microsoft YaHei;" xml:space="preserve" transform="translate(72 60)" fill="#B9B8CE">1,200 hPa</text>
<text dominant-baseline="central" text-anchor="start" style="font-size:12px;font-family:Microsoft YaHei;" xml:space="preserve" transform="translate(728 530)" fill="#B9B8CE">0 hPa</text>
<text dominant-baseline="central" text-anchor="start" style="font-size:12px;font-family:Microsoft YaHei;" xml:space="preserve" transform="translate(728 462.8571)" fill="#B9B8CE">50 hPa</text>
<text dominant-baseline="central" text-anchor="start" style="font-size:12px;font-family:Microsoft YaHei;" xml:space="preserve" transform="translate(728 395.7143)" fill="#B9B8CE">100 hPa</text>
<text dominant-baseline="central" text-anchor="start" style="font-size:12px;font-family:Microsoft YaHei;" xml:space="preserve" transform="translate(728 328.5714)" fill="#B9B8CE">150 hPa</text>
<text dominant-baseline="central" text-anchor="start" style="font-size:12px;font-family:Microsoft YaHei;" xml:space="preserve" transform="translate(728 261.4286)" fill="#B9B8CE">200 hPa</text>
<text dominant-baseline="central" text-anchor="start" style="font-size:12px;font-family:Microsoft YaHei;" xml:space="preserve" transform="translate(728 194.2857)" fill="#B9B8CE">250 hPa</text>
<text dominant-baseline="central" text-anchor="start" style="font-size:12px;font-family:Microsoft YaHei;" xml:space="preserve" transform="translate(728 127.1429)" fill="#B9B8CE">300 hPa</text>
<text dominant-baseline="central" text-anchor="start" style="font-size:12px;font-family:Microsoft YaHei;" xml:space="preserve" transform="translate(728 60)" fill="#B9B8CE">350 hPa</text>
<text dominant-baseline="central" text-anchor="middle" style="font-size:12px;font-family:Microsoft YaHei;" y="6" transform="translate(82.314 538)" fill="#B9B8CE">17:48:16</text>
<text dominant-baseline="central" text-anchor="middle" style="font-size:12px;font-family:Microsoft YaHei;" y="6" transform="translate(147.1074 538)" fill="#B9B8CE">17:48:30</text>
<text dominant-baseline="central" text-anchor="middle" style="font-size:12px;font-family:Microsoft YaHei;" y="6" transform="translate(211.9008 538)" fill="#B9B8CE">17:48:44</text>
<text dominant-baseline="central" text-anchor="middle" style="font-size:12px;font-family:Microsoft YaHei;" y="6" transform="translate(276.6942 538)" fill="#B9B8CE">17:48:58</text>
<text dominant-baseline="central" text-anchor="middle" style="font-size:12px;font-family:Microsoft YaHei;" y="6" transform="translate(341.4876 538)" fill="#B9B8CE">17:49:12</text>
<text dominant-baseline="central" text-anchor="middle" style="font-size:12px;font-family:Microsoft YaHei;" y="6" transform="translate(406.281 538)" fill="#B9B8CE">17:49:26</text>
<text dominant-baseline="central" text-anchor="middle" style="font-size:12px;font-family:Microsoft YaHei;" y="6" transform="translate(471.0744 538)" fill="#B9B8CE">17:49:40</text>
<text dominant-baseline="central" text-anchor="middle" style="font-size:12px;font-family:Microsoft YaHei;" y="6" transform="translate(535.8678 538)" fill="#B9B8CE">17:49:54</text>
<text dominant-baseline="central" text-anchor="middle" style="font-size:12px;font-family:Microsoft YaHei;" y="6" transform="translate(600.6612 538)" fill="#B9B8CE">17:50:08</text>
<g clip-path="url(#zr0-c0)">
<path d="M82.314 135.3958L86.9421 143.19L91.5703 143.3858L96.1983 147.3025L100.8264 150.71L105.4545 154.1958L110.0826 154.0783L114.7107 157.4467L119.3388 160.3842L123.9669 159.2483L128.595 164.6142L133.2231 164.5358L137.8512 166.6508L142.4793 169.3925L147.1074 171.2333L151.7355 170.7242L156.3636 173.3483L160.9917 173.3483L165.6198 173.3483L170.2479 178.7925L174.876 177.1867L179.5041 182.2783L184.1322 180.6333L188.7603 183.14L193.3884 185.5683L198.0165 186.195L202.6446 187.0567L207.2727 188.2708L211.9008 189.8767L216.5289 190.9342L221.157 193.0492L225.7851 191.835L230.4132 193.48L235.0413 195.3208L239.6694 196.6525L244.2975 195.5167L248.9256 197.7883L253.5537 197.7492L258.1818 199.59L262.8099 201.8225L267.438 200.7258L272.0661 202.7625L276.6942 203.35L281.3223 204.6033L285.9504 204.0158L290.5785 207.0317L295.2066 205.4258L299.8347 207.6192L304.4628 209.1467L309.0909 209.2642L313.719 211.0658L318.3471 209.1858L322.9752 210.6742L327.6033 211.2617L332.2314 212.3975L336.8595 214.2383L341.4876 213.1808L346.1157 214.7475L350.7438 215.4525L355.3719 216.51L360 215.335L364.6281 218.4683L369.2562 216.745L373.8843 218.7033L378.5124 220.5442L383.1405 220.6617L387.7686 220.975L392.3967 222.0717L397.0248 223.2858L401.6529 224.1083L406.281 225.4008L410.9091 223.795L415.5372 225.91L420.1653 225.675L424.7934 227.4767L429.4215 229.2783L434.0496 227.7508L438.6777 230.845L443.3058 229.7875L447.9339 230.9625L452.562 231.6283L457.1901 232.6075L461.8182 232.725L466.4463 233.4692L471.0744 234.4483L475.7025 235.3492L480.3306 236.3283L484.9587 234.7225L489.5868 236.6025L494.2149 236.3675L498.843 237.6208L503.4711 239.305L508.0992 238.2083L512.7273 239.5008L517.3553 240.0883L521.9835 241.0283L526.6116 239.7358L531.2397 242.5167L535.8678 240.715L540.4958 242.4775L545.124 243.8483L549.7521 243.3392L554.3802 244.71L559.0082 243.8092L563.6364 244.5925L568.2645 244.7492L572.8926 245.5325L577.5207 246.355L582.1487 245.65L586.7769 247.765L591.405 246.3158L596.0331 247.1775L600.6611 248.7442L605.2892 248.5483L609.9174 248.9792L614.5455 248.8617L619.1736 248.6267L623.8016 250.585L628.4297 249.0183L633.0579 250.1542L637.686 251.3683" fill="none" stroke="#ACDFED" stroke-width="2" stroke-linejoin="bevel"></path>
</g>
<g clip-path="url(#zr0-c1)">
<path d="M82.314 524.2257L86.9421 508.9171L91.5703 496.8314L96.1983 483.4029L100.8264 471.8543L105.4545 470.3771L110.0826 460.3057L114.7107 448.6229L119.3388 438.6857L123.9669 442.4457L128.595 424.1829L133.2231 424.4514L137.8512 417.0657L142.4793 414.2457L147.1074 401.3543L151.7355 403.1L156.3636 394.2372L160.9917 394.2372L165.6198 394.2372L170.2479 375.4371L174.876 381.0771L179.5041 371.2743L184.1322 369.26L188.7603 360.6657L193.3884 352.2057L198.0165 356.9057L202.6446 347.2372L207.2727 343.0743L211.9008 337.5686L216.5289 342.4029L221.157 326.5571L225.7851 330.8543L230.4132 325.2143L235.0413 322.6629L239.6694 314.2029L244.2975 318.0971L248.9256 310.3086L253.5537 304.2657L258.1818 304.1314L262.8099 296.4771L267.438 300.3714L272.0661 295.6714L276.6942 291.24L281.3223 286.9429L285.9504 288.9572L290.5785 282.9143L295.2066 284.1229L299.8347 276.6028L304.4628 271.3657L309.0909 277.9457L313.719 264.7857L318.3471 271.3657L322.9752 266.1286L327.6033 259.1457L332.2314 260.3543L336.8595 254.0429L341.4876 257.5343L346.1157 253.9086L350.7438 249.7457L355.3719 246.2543L360 250.1486L364.6281 243.8371L369.2562 245.3143L373.8843 238.7343L378.5124 232.4229L383.1405 236.72L387.7686 230.8114L392.3967 227.1857L397.0248 223.0229L401.6529 227.32L406.281 215.6371L410.9091 221.2771L415.5372 214.0257L420.1653 208.9229L424.7934 208.6543L429.4215 202.3428L434.0496 207.7143L438.6777 203.1486L443.3058 200.5971L447.9339 196.7029L452.562 194.42L457.1901 194.1514L461.8182 190.66L466.4463 188.1086L471.0744 184.7514L475.7025 186.9L480.3306 178.3057L484.9587 183.8114L489.5868 177.3657L494.2149 172.5314L498.843 173.8743L503.4711 168.2343L508.0992 171.86L512.7273 168.5029L517.3553 165.4143L521.9835 162.1914L526.6116 166.6229L531.2397 160.7143L535.8678 163.2657L540.4958 157.2229L545.124 152.5229L549.7521 158.1629L554.3802 149.5686L559.0082 152.6572L563.6364 149.9714L568.2645 147.2857L572.8926 146.7486L577.5207 143.9286L582.1487 146.3457L586.7769 143.5257L591.405 144.0629L596.0331 141.1086L600.6611 135.7371L605.2892 142.72L609.9174 134.9314L614.5455 135.3343L619.1736 136.14L623.8016 133.8571L628.4297 134.7971L633.0579 130.9029L637.686 126.74" fill="none" stroke="#f7f494" stroke-width="2" stroke-linejoin="bevel"></path>
</g>
<g clip-path="url(#zr0-c2)">
<path d="M82.314 530L86.9421 530L91.5703 530L96.1983 530L100.8264 530L105.4545 530L110.0826 530L114.7107 530L119.3388 530L123.9669 530L128.595 530L133.2231 530L137.8512 530L142.4793 530L147.1074 530L151.7355 530L156.3636 530L160.9917 530L165.6198 530L170.2479 530L174.876 530L179.5041 530L184.1322 530L188.7603 530L193.3884 530L198.0165 530L202.6446 530L207.2727 530L211.9008 530L216.5289 530L221.157 530L225.7851 530L230.4132 530L235.0413 530L239.6694 530L244.2975 530L248.9256 530L253.5537 530L258.1818 530L262.8099 530L267.438 530L272.0661 530L276.6942 530L281.3223 530L285.9504 530L290.5785 530L295.2066 530L299.8347 530L304.4628 530L309.0909 530L313.719 530L318.3471 530L322.9752 530L327.6033 530L332.2314 530L336.8595 530L341.4876 530L346.1157 530L350.7438 530L355.3719 530L360 530L364.6281 530L369.2562 530L373.8843 530L378.5124 530L383.1405 530L387.7686 530L392.3967 530L397.0248 530L401.6529 530L406.281 530L410.9091 530L415.5372 530L420.1653 530L424.7934 530L429.4215 530L434.0496 530L438.6777 530L443.3058 530L447.9339 530L452.562 530L457.1901 530L461.8182 530L466.4463 530L471.0744 530L475.7025 530L480.3306 530L484.9587 530L489.5868 530L494.2149 530L498.843 530L503.4711 530L508.0992 530L512.7273 530L517.3553 530L521.9835 530L526.6116 530L531.2397 530L535.8678 530L540.4958 530L545.124 530L549.7521 530L554.3802 530L559.0082 530L563.6364 530L568.2645 530L572.8926 530L577.5207 530L582.1487 530L586.7769 530L591.405 530L596.0331 530L600.6611 530L605.2892 530L609.9174 530L614.5455 530L619.1736 530L623.8016 530L628.4297 530L633.0579 530L637.686 530" fill="none" stroke="#f7f494" stroke-width="2" stroke-linejoin="bevel"></path>
</g>
<path d="M0 -1L1 1L-1 1Z" transform="matrix(5,0,0,5,82.314,135.3958)" fill="#ACDFED"></path>
<path d="M0 -1L1 1L-1 1Z" transform="matrix(5,0,0,5,147.1074,171.2333)" fill="#ACDFED"></path>
<path d="M0 -1L1 1L-1 1Z" transform="matrix(5,0,0,5,211.9008,189.8767)" fill="#ACDFED"></path>
<path d="M0 -1L1 1L-1 1Z" transform="matrix(5,0,0,5,276.6942,203.35)" fill="#ACDFED"></path>
<path d="M0 -1L1 1L-1 1Z" transform="matrix(5,0,0,5,341.4876,213.1808)" fill="#ACDFED"></path>
<path d="M0 -1L1 1L-1 1Z" transform="matrix(5,0,0,5,406.281,225.4008)" fill="#ACDFED"></path>
<path d="M0 -1L1 1L-1 1Z" transform="matrix(5,0,0,5,471.0744,234.4483)" fill="#ACDFED"></path>
<path d="M0 -1L1 1L-1 1Z" transform="matrix(5,0,0,5,535.8678,240.715)" fill="#ACDFED"></path>
<path d="M0 -1L1 1L-1 1Z" transform="matrix(5,0,0,5,600.6611,248.7442)" fill="#ACDFED"></path>
<path d="M0 -1L1 1L-1 1Z" transform="matrix(5,0,0,5,82.314,524.2257)" fill="#f7f494"></path>
<path d="M0 -1L1 1L-1 1Z" transform="matrix(5,0,0,5,147.1074,401.3543)" fill="#f7f494"></path>
<path d="M0 -1L1 1L-1 1Z" transform="matrix(5,0,0,5,211.9008,337.5686)" fill="#f7f494"></path>
<path d="M0 -1L1 1L-1 1Z" transform="matrix(5,0,0,5,276.6942,291.24)" fill="#f7f494"></path>
<path d="M0 -1L1 1L-1 1Z" transform="matrix(5,0,0,5,341.4876,257.5343)" fill="#f7f494"></path>
<path d="M0 -1L1 1L-1 1Z" transform="matrix(5,0,0,5,406.281,215.6371)" fill="#f7f494"></path>
<path d="M0 -1L1 1L-1 1Z" transform="matrix(5,0,0,5,471.0744,184.7514)" fill="#f7f494"></path>
<path d="M0 -1L1 1L-1 1Z" transform="matrix(5,0,0,5,535.8678,163.2657)" fill="#f7f494"></path>
<path d="M0 -1L1 1L-1 1Z" transform="matrix(5,0,0,5,600.6611,135.7371)" fill="#f7f494"></path>
<path d="M1 0A1 1 0 1 1 1 -0.0001" transform="matrix(5,0,0,5,82.314,530)" fill="#f7f494"></path>
<path d="M1 0A1 1 0 1 1 1 -0.0001" transform="matrix(5,0,0,5,147.1074,530)" fill="#f7f494"></path>
<path d="M1 0A1 1 0 1 1 1 -0.0001" transform="matrix(5,0,0,5,211.9008,530)" fill="#f7f494"></path>
<path d="M1 0A1 1 0 1 1 1 -0.0001" transform="matrix(5,0,0,5,276.6942,530)" fill="#f7f494"></path>
<path d="M1 0A1 1 0 1 1 1 -0.0001" transform="matrix(5,0,0,5,341.4876,530)" fill="#f7f494"></path>
<path d="M1 0A1 1 0 1 1 1 -0.0001" transform="matrix(5,0,0,5,406.281,530)" fill="#f7f494"></path>
<path d="M1 0A1 1 0 1 1 1 -0.0001" transform="matrix(5,0,0,5,471.0744,530)" fill="#f7f494"></path>
<path d="M1 0A1 1 0 1 1 1 -0.0001" transform="matrix(5,0,0,5,535.8678,530)" fill="#f7f494"></path>
<path d="M1 0A1 1 0 1 1 1 -0.0001" transform="matrix(5,0,0,5,600.6611,530)" fill="#f7f494"></path>
<path d="M0 0l560 0l0 30l-560 0Z" transform="matrix(1,0,0,-1,82.8,592.5)" fill="rgb(47,69,84)" fill-opacity="0"></path>
<g clip-path="url(#zr0-c3)">
<polygon points="560 0 0 0 0 24.4 4.7 23.1 9.3 23.1 14 22.4 18.7 21.9 23.3 21.3 28 21.4 32.7 20.8 37.3 20.3 42 20.5 46.7 19.7 51.3 19.7 56 19.3 60.7 18.9 65.3 18.6 70 18.7 74.7 18.2 79.3 18.2 84 18.2 88.7 17.4 93.3 17.6 98 16.8 102.7 17.1 107.3 16.7 112 16.3 116.7 16.2 121.3 16 126 15.8 130.7 15.6 135.3 15.4 140 15.1 144.7 15.3 149.3 15 154 14.7 158.7 14.5 163.3 14.7 168 14.3 172.7 14.3 177.3 14 182 13.6 186.7 13.8 191.3 13.5 196 13.4 200.7 13.2 205.3 13.3 210 12.8 214.7 13.1 219.3 12.7 224 12.5 228.7 12.4 233.3 12.1 238 12.4 242.7 12.2 247.3 12.1 252 11.9 256.7 11.6 261.3 11.8 266 11.5 270.7 11.4 275.3 11.3 280 11.5 284.7 10.9 289.3 11.2 294 10.9 298.7 10.6 303.3 10.6 308 10.5 312.7 10.4 317.3 10.2 322 10 326.7 9.8 331.3 10.1 336 9.7 340.7 9.8 345.3 9.5 350 9.2 354.7 9.4 359.3 8.9 364 9.1 368.7 8.9 373.3 8.8 378 8.7 382.7 8.6 387.3 8.5 392 8.4 396.7 8.2 401.3 8.1 406 8.3 410.7 8 415.3 8.1 420 7.8 424.7 7.6 429.3 7.8 434 7.5 438.7 7.4 443.3 7.3 448 7.5 452.7 7.1 457.3 7.3 462 7.1 466.7 6.8 471.3 6.9 476 6.7 480.7 6.8 485.3 6.7 490 6.7 494.7 6.6 499.3 6.4 504 6.5 508.7 6.2 513.3 6.4 518 6.3 522.7 6 527.3 6.1 532 6 536.7 6 541.3 6.1 546 5.8 550.7 6 555.3 5.8 560 5.6" transform="matrix(1,0,0,-1,82.8,592.5)" fill="#71708A" fill-opacity="0.2"></polygon>
</g>
<g clip-path="url(#zr0-c4)">
<polygon points="560 0 0 0 0 24.4 4.7 23.1 9.3 23.1 14 22.4 18.7 21.9 23.3 21.3 28 21.4 32.7 20.8 37.3 20.3 42 20.5 46.7 19.7 51.3 19.7 56 19.3 60.7 18.9 65.3 18.6 70 18.7 74.7 18.2 79.3 18.2 84 18.2 88.7 17.4 93.3 17.6 98 16.8 102.7 17.1 107.3 16.7 112 16.3 116.7 16.2 121.3 16 126 15.8 130.7 15.6 135.3 15.4 140 15.1 144.7 15.3 149.3 15 154 14.7 158.7 14.5 163.3 14.7 168 14.3 172.7 14.3 177.3 14 182 13.6 186.7 13.8 191.3 13.5 196 13.4 200.7 13.2 205.3 13.3 210 12.8 214.7 13.1 219.3 12.7 224 12.5 228.7 12.4 233.3 12.1 238 12.4 242.7 12.2 247.3 12.1 252 11.9 256.7 11.6 261.3 11.8 266 11.5 270.7 11.4 275.3 11.3 280 11.5 284.7 10.9 289.3 11.2 294 10.9 298.7 10.6 303.3 10.6 308 10.5 312.7 10.4 317.3 10.2 322 10 326.7 9.8 331.3 10.1 336 9.7 340.7 9.8 345.3 9.5 350 9.2 354.7 9.4 359.3 8.9 364 9.1 368.7 8.9 373.3 8.8 378 8.7 382.7 8.6 387.3 8.5 392 8.4 396.7 8.2 401.3 8.1 406 8.3 410.7 8 415.3 8.1 420 7.8 424.7 7.6 429.3 7.8 434 7.5 438.7 7.4 443.3 7.3 448 7.5 452.7 7.1 457.3 7.3 462 7.1 466.7 6.8 471.3 6.9 476 6.7 480.7 6.8 485.3 6.7 490 6.7 494.7 6.6 499.3 6.4 504 6.5 508.7 6.2 513.3 6.4 518 6.3 522.7 6 527.3 6.1 532 6 536.7 6 541.3 6.1 546 5.8 550.7 6 555.3 5.8 560 5.6" transform="matrix(1,0,0,-1,82.8,592.5)" fill="#87A3CE" fill-opacity="0.2"></polygon>
</g>
<g clip-path="url(#zr0-c5)">
<polygon points="560 0 0 0 0 24.4 4.7 23.1 9.3 23.1 14 22.4 18.7 21.9 23.3 21.3 28 21.4 32.7 20.8 37.3 20.3 42 20.5 46.7 19.7 51.3 19.7 56 19.3 60.7 18.9 65.3 18.6 70 18.7 74.7 18.2 79.3 18.2 84 18.2 88.7 17.4 93.3 17.6 98 16.8 102.7 17.1 107.3 16.7 112 16.3 116.7 16.2 121.3 16 126 15.8 130.7 15.6 135.3 15.4 140 15.1 144.7 15.3 149.3 15 154 14.7 158.7 14.5 163.3 14.7 168 14.3 172.7 14.3 177.3 14 182 13.6 186.7 13.8 191.3 13.5 196 13.4 200.7 13.2 205.3 13.3 210 12.8 214.7 13.1 219.3 12.7 224 12.5 228.7 12.4 233.3 12.1 238 12.4 242.7 12.2 247.3 12.1 252 11.9 256.7 11.6 261.3 11.8 266 11.5 270.7 11.4 275.3 11.3 280 11.5 284.7 10.9 289.3 11.2 294 10.9 298.7 10.6 303.3 10.6 308 10.5 312.7 10.4 317.3 10.2 322 10 326.7 9.8 331.3 10.1 336 9.7 340.7 9.8 345.3 9.5 350 9.2 354.7 9.4 359.3 8.9 364 9.1 368.7 8.9 373.3 8.8 378 8.7 382.7 8.6 387.3 8.5 392 8.4 396.7 8.2 401.3 8.1 406 8.3 410.7 8 415.3 8.1 420 7.8 424.7 7.6 429.3 7.8 434 7.5 438.7 7.4 443.3 7.3 448 7.5 452.7 7.1 457.3 7.3 462 7.1 466.7 6.8 471.3 6.9 476 6.7 480.7 6.8 485.3 6.7 490 6.7 494.7 6.6 499.3 6.4 504 6.5 508.7 6.2 513.3 6.4 518 6.3 522.7 6 527.3 6.1 532 6 536.7 6 541.3 6.1 546 5.8 550.7 6 555.3 5.8 560 5.6" transform="matrix(1,0,0,-1,82.8,592.5)" fill="#71708A" fill-opacity="0.2"></polygon>
</g>
<g clip-path="url(#zr0-c3)">
<polyline points="0 24.4 4.7 23.1 9.3 23.1 14 22.4 18.7 21.9 23.3 21.3 28 21.4 32.7 20.8 37.3 20.3 42 20.5 46.7 19.7 51.3 19.7 56 19.3 60.7 18.9 65.3 18.6 70 18.7 74.7 18.2 79.3 18.2 84 18.2 88.7 17.4 93.3 17.6 98 16.8 102.7 17.1 107.3 16.7 112 16.3 116.7 16.2 121.3 16 126 15.8 130.7 15.6 135.3 15.4 140 15.1 144.7 15.3 149.3 15 154 14.7 158.7 14.5 163.3 14.7 168 14.3 172.7 14.3 177.3 14 182 13.6 186.7 13.8 191.3 13.5 196 13.4 200.7 13.2 205.3 13.3 210 12.8 214.7 13.1 219.3 12.7 224 12.5 228.7 12.4 233.3 12.1 238 12.4 242.7 12.2 247.3 12.1 252 11.9 256.7 11.6 261.3 11.8 266 11.5 270.7 11.4 275.3 11.3 280 11.5 284.7 10.9 289.3 11.2 294 10.9 298.7 10.6 303.3 10.6 308 10.5 312.7 10.4 317.3 10.2 322 10 326.7 9.8 331.3 10.1 336 9.7 340.7 9.8 345.3 9.5 350 9.2 354.7 9.4 359.3 8.9 364 9.1 368.7 8.9 373.3 8.8 378 8.7 382.7 8.6 387.3 8.5 392 8.4 396.7 8.2 401.3 8.1 406 8.3 410.7 8 415.3 8.1 420 7.8 424.7 7.6 429.3 7.8 434 7.5 438.7 7.4 443.3 7.3 448 7.5 452.7 7.1 457.3 7.3 462 7.1 466.7 6.8 471.3 6.9 476 6.7 480.7 6.8 485.3 6.7 490 6.7 494.7 6.6 499.3 6.4 504 6.5 508.7 6.2 513.3 6.4 518 6.3 522.7 6 527.3 6.1 532 6 536.7 6 541.3 6.1 546 5.8 550.7 6 555.3 5.8 560 5.6" transform="matrix(1,0,0,-1,82.8,592.5)" fill="none" stroke="#71708A"></polyline>
</g>
<g clip-path="url(#zr0-c4)">
<polyline points="0 24.4 4.7 23.1 9.3 23.1 14 22.4 18.7 21.9 23.3 21.3 28 21.4 32.7 20.8 37.3 20.3 42 20.5 46.7 19.7 51.3 19.7 56 19.3 60.7 18.9 65.3 18.6 70 18.7 74.7 18.2 79.3 18.2 84 18.2 88.7 17.4 93.3 17.6 98 16.8 102.7 17.1 107.3 16.7 112 16.3 116.7 16.2 121.3 16 126 15.8 130.7 15.6 135.3 15.4 140 15.1 144.7 15.3 149.3 15 154 14.7 158.7 14.5 163.3 14.7 168 14.3 172.7 14.3 177.3 14 182 13.6 186.7 13.8 191.3 13.5 196 13.4 200.7 13.2 205.3 13.3 210 12.8 214.7 13.1 219.3 12.7 224 12.5 228.7 12.4 233.3 12.1 238 12.4 242.7 12.2 247.3 12.1 252 11.9 256.7 11.6 261.3 11.8 266 11.5 270.7 11.4 275.3 11.3 280 11.5 284.7 10.9 289.3 11.2 294 10.9 298.7 10.6 303.3 10.6 308 10.5 312.7 10.4 317.3 10.2 322 10 326.7 9.8 331.3 10.1 336 9.7 340.7 9.8 345.3 9.5 350 9.2 354.7 9.4 359.3 8.9 364 9.1 368.7 8.9 373.3 8.8 378 8.7 382.7 8.6 387.3 8.5 392 8.4 396.7 8.2 401.3 8.1 406 8.3 410.7 8 415.3 8.1 420 7.8 424.7 7.6 429.3 7.8 434 7.5 438.7 7.4 443.3 7.3 448 7.5 452.7 7.1 457.3 7.3 462 7.1 466.7 6.8 471.3 6.9 476 6.7 480.7 6.8 485.3 6.7 490 6.7 494.7 6.6 499.3 6.4 504 6.5 508.7 6.2 513.3 6.4 518 6.3 522.7 6 527.3 6.1 532 6 536.7 6 541.3 6.1 546 5.8 550.7 6 555.3 5.8 560 5.6" transform="matrix(1,0,0,-1,82.8,592.5)" fill="none" stroke="#87A3CE" stroke-width="0.5"></polyline>
</g>
<g clip-path="url(#zr0-c5)">
<polyline points="0 24.4 4.7 23.1 9.3 23.1 14 22.4 18.7 21.9 23.3 21.3 28 21.4 32.7 20.8 37.3 20.3 42 20.5 46.7 19.7 51.3 19.7 56 19.3 60.7 18.9 65.3 18.6 70 18.7 74.7 18.2 79.3 18.2 84 18.2 88.7 17.4 93.3 17.6 98 16.8 102.7 17.1 107.3 16.7 112 16.3 116.7 16.2 121.3 16 126 15.8 130.7 15.6 135.3 15.4 140 15.1 144.7 15.3 149.3 15 154 14.7 158.7 14.5 163.3 14.7 168 14.3 172.7 14.3 177.3 14 182 13.6 186.7 13.8 191.3 13.5 196 13.4 200.7 13.2 205.3 13.3 210 12.8 214.7 13.1 219.3 12.7 224 12.5 228.7 12.4 233.3 12.1 238 12.4 242.7 12.2 247.3 12.1 252 11.9 256.7 11.6 261.3 11.8 266 11.5 270.7 11.4 275.3 11.3 280 11.5 284.7 10.9 289.3 11.2 294 10.9 298.7 10.6 303.3 10.6 308 10.5 312.7 10.4 317.3 10.2 322 10 326.7 9.8 331.3 10.1 336 9.7 340.7 9.8 345.3 9.5 350 9.2 354.7 9.4 359.3 8.9 364 9.1 368.7 8.9 373.3 8.8 378 8.7 382.7 8.6 387.3 8.5 392 8.4 396.7 8.2 401.3 8.1 406 8.3 410.7 8 415.3 8.1 420 7.8 424.7 7.6 429.3 7.8 434 7.5 438.7 7.4 443.3 7.3 448 7.5 452.7 7.1 457.3 7.3 462 7.1 466.7 6.8 471.3 6.9 476 6.7 480.7 6.8 485.3 6.7 490 6.7 494.7 6.6 499.3 6.4 504 6.5 508.7 6.2 513.3 6.4 518 6.3 522.7 6 527.3 6.1 532 6 536.7 6 541.3 6.1 546 5.8 550.7 6 555.3 5.8 560 5.6" transform="matrix(1,0,0,-1,82.8,592.5)" fill="none" stroke="#71708A"></polyline>
</g>
<path d="M-5 -5l691.0547 0l0 22l-691.0547 0Z" transform="translate(59.4727 5)" fill="rgb(0,0,0)" fill-opacity="0" stroke="#ccc" stroke-width="0"></path>
<path d="M0 7L25 7" transform="translate(60.4727 4)" fill="#000" stroke="#ACDFED" stroke-width="2" stroke-linecap="butt" stroke-miterlimit="10"></path>
<path d="M12.5 1.4L18.1 12.6L6.9 12.6Z" transform="translate(60.4727 4)" fill="#ACDFED"></path>
<text dominant-baseline="central" text-anchor="start" style="font-size:12px;font-family:Microsoft YaHei;" x="30" y="7" transform="translate(60.4727 4)" fill="#B9B8CE">Pipe_Pres</text>
<path d="M0 7L25 7" transform="translate(156.1465 4)" fill="#000" stroke="#ccc" stroke-width="2" stroke-linecap="butt" stroke-miterlimit="10"></path>
<path d="M18.1 7A5.6 5.6 0 1 1 18.1 6.9994" transform="translate(156.1465 4)" fill="#ccc" stroke="#ccc" stroke-width="0" stroke-linecap="butt" stroke-miterlimit="10"></path>
<text dominant-baseline="central" text-anchor="start" style="font-size:12px;font-family:Microsoft YaHei;" x="30" y="7" transform="translate(156.1465 4)" fill="#ccc">Ambient_Pres</text>
<path d="M0 7L25 7" transform="translate(276.0313 4)" fill="#000" stroke="#ccc" stroke-width="2" stroke-linecap="butt" stroke-miterlimit="10"></path>
<path d="M12.5 1.4L18.1 12.6L6.9 12.6Z" transform="translate(276.0313 4)" fill="#ccc" stroke="#ccc" stroke-width="0" stroke-linecap="butt" stroke-miterlimit="10"></path>
<text dominant-baseline="central" text-anchor="start" style="font-size:12px;font-family:Microsoft YaHei;" x="30" y="7" transform="translate(276.0313 4)" fill="#ccc">Pipe_Temp</text>
<path d="M0 7L25 7" transform="translate(380.0137 4)" fill="#000" stroke="#ccc" stroke-width="2" stroke-linecap="butt" stroke-miterlimit="10"></path>
<path d="M18.1 7A5.6 5.6 0 1 1 18.1 6.9994" transform="translate(380.0137 4)" fill="#ccc" stroke="#ccc" stroke-width="0" stroke-linecap="butt" stroke-miterlimit="10"></path>
<text dominant-baseline="central" text-anchor="start" style="font-size:12px;font-family:Microsoft YaHei;" x="30" y="7" transform="translate(380.0137 4)" fill="#ccc">Chip_Temp</text>
<path d="M0 7L25 7" transform="translate(485.2617 4)" fill="#000" stroke="#f7f494" stroke-width="2" stroke-linecap="butt" stroke-miterlimit="10"></path>
<path d="M18.1 7A5.6 5.6 0 1 1 18.1 6.9994" transform="translate(485.2617 4)" fill="#f7f494"></path>
<text dominant-baseline="central" text-anchor="start" style="font-size:12px;font-family:Microsoft YaHei;" x="30" y="7" transform="translate(485.2617 4)" fill="#B9B8CE">Set_nPressure</text>
<path d="M0 7L25 7" transform="translate(605.8672 4)" fill="#000" stroke="#f7f494" stroke-width="2" stroke-linecap="butt" stroke-miterlimit="10"></path>
<path d="M12.5 1.4L18.1 12.6L6.9 12.6Z" transform="translate(605.8672 4)" fill="#f7f494"></path>
<text dominant-baseline="central" text-anchor="start" style="font-size:12px;font-family:Microsoft YaHei;" x="30" y="7" transform="translate(605.8672 4)" fill="#B9B8CE">Current_nPressure</text>
<path d="M0 0l560 0l0 30l-560 0Z" transform="matrix(1,0,0,-1,82.8,592.5)" fill="none"></path>
<path d="M0 0l560 0l0 30l-560 0Z" transform="matrix(1,0,0,-1,82.8,592.5)" fill="rgb(135,163,206)" fill-opacity="0.2"></path>
<path d="M3.5 0.5L556.5 0.5A3 3 0 0 1 559.5 3.5L559.5 26.5A3 3 0 0 1 556.5 29.5L3.5 29.5A3 3 0 0 1 0.5 26.5L0.5 3.5A3 3 0 0 1 3.5 0.5" transform="matrix(1,0,0,-1,82.8,592.5)" fill="rgb(0,0,0)" fill-opacity="0" stroke="#71708A"></path>
<path d="M0 29.5L560 29.5L560 34.5A2 2 0 0 1 558 36.5L2 36.5A2 2 0 0 1 0 34.5L0 29.5" transform="matrix(1,0,0,-1,82.8,592.5)" fill="#B0B6C3" fill-opacity="0.3"></path>
<path d="M-2.2408 -1.6796C-1.8674 -1.6796 -1.6817 -1.4939 -1.6817 -1.1204L-1.6817 1.1204C-1.6817 1.4939 -1.8674 1.6796 -2.2408 1.6796C-2.6143 1.6796 -2.8 1.4939 -2.8 1.1204L-2.8 -1.1204C-2.8 -1.4939 -2.6143 -1.6796 -2.2408 -1.6796ZM0 -1.6796C0.3735 -1.6796 0.5592 -1.4939 0.5592 -1.1204L0.5592 1.1204C0.5592 1.4939 0.3735 1.6796 0 1.6796C-0.3735 1.6796 -0.5592 1.4939 -0.5592 1.1204L-0.5592 -1.1204C-0.5592 -1.4939 -0.3735 -1.6796 0 -1.6796ZM2.2408 -1.6796C2.6143 -1.6796 2.8 -1.4939 2.8 -1.1204L2.8 1.1204C2.8 1.4939 2.6143 1.6796 2.2408 1.6796C1.8674 1.6796 1.6817 1.4939 1.6817 1.1204L1.6817 -1.1204C1.6796 -1.4939 1.8674 -1.6796 2.2408 -1.6796Z" transform="matrix(1,0,0,-1,362.8,559.5)" fill="#fff"></path>
<path d="M0 1.628L0 2M0 0L0 0.375M-0.1 0.375L0.1 0.375A0.1 0.1 0 0 1 0.2 0.475L0.2 1.525A0.1 0.1 0 0 1 0.1 1.625L-0.1 1.625A0.1 0.1 0 0 1 -0.2 1.525L-0.2 0.475A0.1 0.1 0 0 1 -0.1 0.375Z" transform="matrix(15,0,0,-15,83.8,592.5)" fill="#353450" stroke="#C5CBE3" stroke-width="0.06666666666666667"></path>
<path d="M0 1.628L0 2M0 0L0 0.375M-0.1 0.375L0.1 0.375A0.1 0.1 0 0 1 0.2 0.475L0.2 1.525A0.1 0.1 0 0 1 0.1 1.625L-0.1 1.625A0.1 0.1 0 0 1 -0.2 1.525L-0.2 0.475A0.1 0.1 0 0 1 -0.1 0.375Z" transform="matrix(15,0,0,-15,641.8,592.5)" fill="#353450" stroke="#C5CBE3" stroke-width="0.06666666666666667"></path>
<defs >
<clipPath id="zr0-c0">
<path d="M79 59l562 0l0 472l-562 0Z" fill="#000"></path>
</clipPath>
<clipPath id="zr0-c1">
<path d="M79 59l562 0l0 472l-562 0Z" fill="#000"></path>
</clipPath>
<clipPath id="zr0-c2">
<path d="M79 59l562 0l0 472l-562 0Z" fill="#000"></path>
</clipPath>
<clipPath id="zr0-c3">
<path d="M0 0l0 0l0 30l0 0Z" transform="matrix(1,0,0,-1,82.8,592.5)" fill="#000"></path>
</clipPath>
<clipPath id="zr0-c4">
<path d="M0 0l560 0l0 30l-560 0Z" transform="matrix(1,0,0,-1,82.8,592.5)" fill="#000"></path>
</clipPath>
<clipPath id="zr0-c5">
<path d="M560 0l0 0l0 30l0 0Z" transform="matrix(1,0,0,-1,82.8,592.5)" fill="#000"></path>
</clipPath>
</defs>
</svg>