<svg width="800" height="600" xmlns="http://www.w3.org/2000/svg" xmlns:xlink="http://www.w3.org/1999/xlink" version="1.1" baseProfile="full" viewBox="0 0 800 600">
<rect width="800" height="600" x="0" y="0" id="0" fill="rgb(40, 44, 52)" fill-opacity="1"></rect>
<path d="M80 530.5L640 530.5" fill="none" stroke="#484753"></path>
<path d="M80 451.5L640 451.5" fill="none" stroke="#484753"></path>
<path d="M80 373.5L640 373.5" fill="none" stroke="#484753"></path>
<path d="M80 295.5L640 295.5" fill="none" stroke="#484753"></path>
<path d="M80 216.5L640 216.5" fill="none" stroke="#484753"></path>
<path d="M80 138.5L640 138.5" fill="none" stroke="#484753"></path>
<path d="M80 60.5L640 60.5" fill="none" stroke="#484753"></path>
<path d="M80.5 530L80.5 60" fill="none" stroke="#ACDFED" stroke-linecap="round"></path>
<text dominant-baseline="central" text-anchor="middle" style="font-size:12px;font-family:Microsoft YaHei;" y="-6" transform="translate(80 45)" fill="#B9B8CE">压力</text>
<path d="M640.5 530L640.5 60" fill="none" stroke="#FFAB91" stroke-linecap="round"></path>
<text dominant-baseline="central" text-anchor="middle" style="font-size:12px;font-family:Microsoft YaHei;" y="-6" transform="translate(640 45)" fill="#B9B8CE">温度</text>
<path d="M720.5 530L720.5 60" fill="none" stroke="#f7f494" stroke-linecap="round"></path>
<text dominant-baseline="central" text-anchor="middle" style="font-size:12px;font-family:Microsoft YaHei;" y="-6" transform="translate(720 45)" fill="#B9B8CE">负压</text>
<path d="M80 530.5L640 530.5" fill="none" stroke="#B9B8CE" stroke-linecap="round"></path>
<path d="M82.5 530L82.5 535" fill="none" stroke="#B9B8CE"></path>
<path d="M147.5 530L147.5 535" fill="none" stroke="#B9B8CE"></path>
<path d="M212.5 530L212.5 535" fill="none" stroke="#B9B8CE"></path>
<path d="M276.5 530L276.5 535" fill="none" stroke="#B9B8CE"></path>
<path d="M341.5 530L341.5 535" fill="none" stroke="#B9B8CE"></path>
<path d="M406.5 530L406.5 535" fill="none" stroke="#B9B8CE"></path>
<path d="M471.5 530L471.5 535" fill="none" stroke="#B9B8CE"></path>
<path d="M536.5 530L536.5 535" fill="none" stroke="#B9B8CE"></path>
<path d="M600.5 530L600.5 535" fill="none" stroke="#B9B8CE"></path>
<text dominant-baseline="central" text-anchor="start" style="font-size:12px;font-family:Microsoft YaHei;" xml:space="preserve" transform="translate(728 530)" fill="#B9B8CE">0 hPa</text>
<text dominant-baseline="central" text-anchor="start" style="font-size:12px;font-family:Microsoft YaHei;" xml:space="preserve" transform="translate(728 451.6667)" fill="#B9B8CE">20 hPa</text>
<text dominant-baseline="central" text-anchor="start" style="font-size:12px;font-family:Microsoft YaHei;" xml:space="preserve" transform="translate(728 373.3333)" fill="#B9B8CE">40 hPa</text>
<text dominant-baseline="central" text-anchor="start" style="font-size:12px;font-family:Microsoft YaHei;" xml:space="preserve" transform="translate(728 295)" fill="#B9B8CE">60 hPa</text>
<text dominant-baseline="central" text-anchor="start" style="font-size:12px;font-family:Microsoft YaHei;" xml:space="preserve" transform="translate(728 216.6667)" fill="#B9B8CE">80 hPa</text>
<text dominant-baseline="central" text-anchor="start" style="font-size:12px;font-family:Microsoft YaHei;" xml:space="preserve" transform="translate(728 138.3333)" fill="#B9B8CE">100 hPa</text>
<text dominant-baseline="central" text-anchor="start" style="font-size:12px;font-family:Microsoft YaHei;" xml:space="preserve" transform="translate(728 60)" fill="#B9B8CE">120 hPa</text>
<text dominant-baseline="central" text-anchor="middle" style="font-size:12px;font-family:Microsoft YaHei;" y="6" transform="translate(82.314 538)" fill="#B9B8CE">12:44:18</text>
<text dominant-baseline="central" text-anchor="middle" style="font-size:12px;font-family:Microsoft YaHei;" y="6" transform="translate(147.1074 538)" fill="#B9B8CE">12:44:32</text>
<text dominant-baseline="central" text-anchor="middle" style="font-size:12px;font-family:Microsoft YaHei;" y="6" transform="translate(211.9008 538)" fill="#B9B8CE">12:44:46</text>
<text dominant-baseline="central" text-anchor="middle" style="font-size:12px;font-family:Microsoft YaHei;" y="6" transform="translate(276.6942 538)" fill="#B9B8CE">12:45:00</text>
<text dominant-baseline="central" text-anchor="middle" style="font-size:12px;font-family:Microsoft YaHei;" y="6" transform="translate(341.4876 538)" fill="#B9B8CE">12:45:14</text>
<text dominant-baseline="central" text-anchor="middle" style="font-size:12px;font-family:Microsoft YaHei;" y="6" transform="translate(406.281 538)" fill="#B9B8CE">12:45:28</text>
<text dominant-baseline="central" text-anchor="middle" style="font-size:12px;font-family:Microsoft YaHei;" y="6" transform="translate(471.0744 538)" fill="#B9B8CE">12:45:42</text>
<text dominant-baseline="central" text-anchor="middle" style="font-size:12px;font-family:Microsoft YaHei;" y="6" transform="translate(535.8678 538)" fill="#B9B8CE">12:45:56</text>
<text dominant-baseline="central" text-anchor="middle" style="font-size:12px;font-family:Microsoft YaHei;" y="6" transform="translate(600.6612 538)" fill="#B9B8CE">12:46:10</text>
<g clip-path="url(#zr0-c0)">
<path d="M82.314 526.475L86.9421 526.475L91.5703 526.475L96.1983 526.475L100.8264 526.475L105.4545 526.475L110.0826 526.475L114.7107 526.475L119.3388 526.475L123.9669 526.475L128.595 526.475L133.2231 526.475L137.8512 526.475L142.4793 526.475L147.1074 526.475L151.7355 526.475L156.3636 526.475L160.9917 526.475L165.6198 526.475L170.2479 508.4583L174.876 476.7333L179.5041 426.6L184.1322 380.775L188.7603 333.775L193.3884 307.925L198.0165 285.2083L202.6446 257.0083L207.2727 217.8417L211.9008 194.3417L216.5289 175.15L221.157 160.6583L225.7851 128.15L230.4132 115.225L235.0413 107.3917L239.6694 87.025L244.2975 78.0167L248.9256 74.1L253.5537 70.1833L258.1818 64.7L262.8099 62.7417L267.438 60.7833L272.0661 70.9667L276.6942 73.7083L281.3223 68.6167L285.9504 79.5833L290.5785 73.3167L295.2066 75.275L299.8347 90.1583L304.4628 86.6333L309.0909 86.6333L313.719 100.7333L318.3471 108.9583L322.9752 101.125L327.6033 105.0417L332.2314 116.0083L336.8595 111.3083L341.4876 125.4083L346.1157 117.575L350.7438 131.675L355.3719 134.8083L360 127.7583L364.6281 133.2417L369.2562 134.025L373.8843 143.425L378.5124 137.1583L383.1405 146.5583L387.7686 146.95L392.3967 141.8583L397.0248 140.2917L401.6529 147.3417L406.281 150.8667L410.9091 143.8167L415.5372 150.8667L420.1653 150.475L424.7934 137.9417L429.4215 149.3L434.0496 141.8583L438.6777 141.075L443.3058 139.1167L447.9339 149.6917L452.562 150.475L457.1901 140.6833L461.8182 140.6833L466.4463 140.6833L471.0744 145.3833L475.7025 148.9083L480.3306 140.6833L484.9587 143.0333L489.5868 148.9083L494.2149 144.6L498.843 137.9417L503.4711 137.55L508.0992 134.025L512.7273 137.1583L517.3553 136.375L521.9835 146.1667L526.6116 138.725L531.2397 138.725L535.8678 136.375L540.4958 143.425L545.124 142.25L549.7521 136.7667L554.3802 142.25L559.0082 141.8583L563.6364 134.025L568.2645 143.425L572.8926 135.2L577.5207 133.6333L582.1487 132.85L586.7769 137.9417L591.405 140.6833L596.0331 135.9833L600.6611 141.075L605.2892 131.675L609.9174 131.2833L614.5455 137.9417L619.1736 135.9833L623.8016 134.025L628.4297 141.4667L633.0579 137.55L637.686 142.6417" fill="none" stroke="#f7f494" stroke-width="2" stroke-linejoin="bevel"></path>
</g>
<g clip-path="url(#zr0-c1)">
<path d="M82.314 138.3333L86.9421 138.3333L91.5703 138.3333L96.1983 138.3333L100.8264 138.3333L105.4545 138.3333L110.0826 138.3333L114.7107 138.3333L119.3388 138.3333L123.9669 138.3333L128.595 138.3333L133.2231 138.3333L137.8512 138.3333L142.4793 138.3333L147.1074 138.3333L151.7355 138.3333L156.3636 138.3333L160.9917 138.3333L165.6198 138.3333L170.2479 138.3333L174.876 138.3333L179.5041 138.3333L184.1322 138.3333L188.7603 138.3333L193.3884 138.3333L198.0165 138.3333L202.6446 138.3333L207.2727 138.3333L211.9008 138.3333L216.5289 138.3333L221.157 138.3333L225.7851 138.3333L230.4132 138.3333L235.0413 138.3333L239.6694 138.3333L244.2975 138.3333L248.9256 138.3333L253.5537 138.3333L258.1818 138.3333L262.8099 138.3333L267.438 138.3333L272.0661 138.3333L276.6942 138.3333L281.3223 138.3333L285.9504 138.3333L290.5785 138.3333L295.2066 138.3333L299.8347 138.3333L304.4628 138.3333L309.0909 138.3333L313.719 138.3333L318.3471 138.3333L322.9752 138.3333L327.6033 138.3333L332.2314 138.3333L336.8595 138.3333L341.4876 138.3333L346.1157 138.3333L350.7438 138.3333L355.3719 138.3333L360 138.3333L364.6281 138.3333L369.2562 138.3333L373.8843 138.3333L378.5124 138.3333L383.1405 138.3333L387.7686 138.3333L392.3967 138.3333L397.0248 138.3333L401.6529 138.3333L406.281 138.3333L410.9091 138.3333L415.5372 138.3333L420.1653 138.3333L424.7934 138.3333L429.4215 138.3333L434.0496 138.3333L438.6777 138.3333L443.3058 138.3333L447.9339 138.3333L452.562 138.3333L457.1901 138.3333L461.8182 138.3333L466.4463 138.3333L471.0744 138.3333L475.7025 138.3333L480.3306 138.3333L484.9587 138.3333L489.5868 138.3333L494.2149 138.3333L498.843 138.3333L503.4711 138.3333L508.0992 138.3333L512.7273 138.3333L517.3553 138.3333L521.9835 138.3333L526.6116 138.3333L531.2397 138.3333L535.8678 138.3333L540.4958 138.3333L545.124 138.3333L549.7521 138.3333L554.3802 138.3333L559.0082 138.3333L563.6364 138.3333L568.2645 138.3333L572.8926 138.3333L577.5207 138.3333L582.1487 138.3333L586.7769 138.3333L591.405 138.3333L596.0331 138.3333L600.6611 138.3333L605.2892 138.3333L609.9174 138.3333L614.5455 138.3333L619.1736 138.3333L623.8016 138.3333L628.4297 138.3333L633.0579 138.3333L637.686 138.3333" fill="none" stroke="#f7f494" stroke-width="2" stroke-linejoin="bevel"></path>
</g>
<path d="M0 -1L1 1L-1 1Z" transform="matrix(5,0,0,5,82.314,526.475)" fill="#f7f494"></path>
<path d="M0 -1L1 1L-1 1Z" transform="matrix(5,0,0,5,147.1074,526.475)" fill="#f7f494"></path>
<path d="M0 -1L1 1L-1 1Z" transform="matrix(5,0,0,5,211.9008,194.3417)" fill="#f7f494"></path>
<path d="M0 -1L1 1L-1 1Z" transform="matrix(5,0,0,5,276.6942,73.7083)" fill="#f7f494"></path>
<path d="M0 -1L1 1L-1 1Z" transform="matrix(5,0,0,5,341.4876,125.4083)" fill="#f7f494"></path>
<path d="M0 -1L1 1L-1 1Z" transform="matrix(5,0,0,5,406.281,150.8667)" fill="#f7f494"></path>
<path d="M0 -1L1 1L-1 1Z" transform="matrix(5,0,0,5,471.0744,145.3833)" fill="#f7f494"></path>
<path d="M0 -1L1 1L-1 1Z" transform="matrix(5,0,0,5,535.8678,136.375)" fill="#f7f494"></path>
<path d="M0 -1L1 1L-1 1Z" transform="matrix(5,0,0,5,600.6611,141.075)" fill="#f7f494"></path>
<path d="M1 0A1 1 0 1 1 1 -0.0001" transform="matrix(5,0,0,5,82.314,138.3333)" fill="#f7f494"></path>
<path d="M1 0A1 1 0 1 1 1 -0.0001" transform="matrix(5,0,0,5,147.1074,138.3333)" fill="#f7f494"></path>
<path d="M1 0A1 1 0 1 1 1 -0.0001" transform="matrix(5,0,0,5,211.9008,138.3333)" fill="#f7f494"></path>
<path d="M1 0A1 1 0 1 1 1 -0.0001" transform="matrix(5,0,0,5,276.6942,138.3333)" fill="#f7f494"></path>
<path d="M1 0A1 1 0 1 1 1 -0.0001" transform="matrix(5,0,0,5,341.4876,138.3333)" fill="#f7f494"></path>
<path d="M1 0A1 1 0 1 1 1 -0.0001" transform="matrix(5,0,0,5,406.281,138.3333)" fill="#f7f494"></path>
<path d="M1 0A1 1 0 1 1 1 -0.0001" transform="matrix(5,0,0,5,471.0744,138.3333)" fill="#f7f494"></path>
<path d="M1 0A1 1 0 1 1 1 -0.0001" transform="matrix(5,0,0,5,535.8678,138.3333)" fill="#f7f494"></path>
<path d="M1 0A1 1 0 1 1 1 -0.0001" transform="matrix(5,0,0,5,600.6611,138.3333)" fill="#f7f494"></path>
<path d="M0 0l560 0l0 30l-560 0Z" transform="matrix(1,0,0,-1,82.8,592.5)" fill="rgb(47,69,84)" fill-opacity="0"></path>
<g clip-path="url(#zr0-c2)">
<polygon points="560 0 0 0 0 5.6 4.7 5.6 9.3 5.6 14 5.6 18.7 5.6 23.3 5.6 28 5.6 32.7 5.6 37.3 5.6 42 5.6 46.7 5.6 51.3 5.6 56 5.6 60.7 5.6 65.3 5.6 70 5.6 74.7 5.6 79.3 5.6 84 5.6 88.7 6.4 93.3 7.6 98 9.6 102.7 11.5 107.3 13.4 112 14.4 116.7 15.3 121.3 16.5 126 18.1 130.7 19 135.3 19.8 140 20.4 144.7 21.7 149.3 22.2 154 22.5 158.7 23.3 163.3 23.7 168 23.8 172.7 24 177.3 24.2 182 24.3 186.7 24.4 191.3 24 196 23.9 200.7 24.1 205.3 23.6 210 23.9 214.7 23.8 219.3 23.2 224 23.3 228.7 23.3 233.3 22.8 238 22.4 242.7 22.8 247.3 22.6 252 22.2 256.7 22.3 261.3 21.8 266 22.1 270.7 21.5 275.3 21.4 280 21.7 284.7 21.5 289.3 21.4 294 21 298.7 21.3 303.3 20.9 308 20.9 312.7 21.1 317.3 21.2 322 20.9 326.7 20.7 331.3 21 336 20.7 340.7 20.8 345.3 21.3 350 20.8 354.7 21.1 359.3 21.1 364 21.2 368.7 20.8 373.3 20.8 378 21.2 382.7 21.2 387.3 21.2 392 21 396.7 20.8 401.3 21.2 406 21.1 410.7 20.8 415.3 21 420 21.3 424.7 21.3 429.3 21.4 434 21.3 438.7 21.3 443.3 20.9 448 21.2 452.7 21.2 457.3 21.3 462 21 466.7 21.1 471.3 21.3 476 21.1 480.7 21.1 485.3 21.4 490 21 494.7 21.4 499.3 21.4 504 21.5 508.7 21.3 513.3 21.2 518 21.3 522.7 21.1 527.3 21.5 532 21.5 536.7 21.3 541.3 21.3 546 21.4 550.7 21.1 555.3 21.3 560 21.1" transform="matrix(1,0,0,-1,82.8,592.5)" fill="#71708A" fill-opacity="0.2"></polygon>
</g>
<g clip-path="url(#zr0-c3)">
<polygon points="560 0 0 0 0 5.6 4.7 5.6 9.3 5.6 14 5.6 18.7 5.6 23.3 5.6 28 5.6 32.7 5.6 37.3 5.6 42 5.6 46.7 5.6 51.3 5.6 56 5.6 60.7 5.6 65.3 5.6 70 5.6 74.7 5.6 79.3 5.6 84 5.6 88.7 6.4 93.3 7.6 98 9.6 102.7 11.5 107.3 13.4 112 14.4 116.7 15.3 121.3 16.5 126 18.1 130.7 19 135.3 19.8 140 20.4 144.7 21.7 149.3 22.2 154 22.5 158.7 23.3 163.3 23.7 168 23.8 172.7 24 177.3 24.2 182 24.3 186.7 24.4 191.3 24 196 23.9 200.7 24.1 205.3 23.6 210 23.9 214.7 23.8 219.3 23.2 224 23.3 228.7 23.3 233.3 22.8 238 22.4 242.7 22.8 247.3 22.6 252 22.2 256.7 22.3 261.3 21.8 266 22.1 270.7 21.5 275.3 21.4 280 21.7 284.7 21.5 289.3 21.4 294 21 298.7 21.3 303.3 20.9 308 20.9 312.7 21.1 317.3 21.2 322 20.9 326.7 20.7 331.3 21 336 20.7 340.7 20.8 345.3 21.3 350 20.8 354.7 21.1 359.3 21.1 364 21.2 368.7 20.8 373.3 20.8 378 21.2 382.7 21.2 387.3 21.2 392 21 396.7 20.8 401.3 21.2 406 21.1 410.7 20.8 415.3 21 420 21.3 424.7 21.3 429.3 21.4 434 21.3 438.7 21.3 443.3 20.9 448 21.2 452.7 21.2 457.3 21.3 462 21 466.7 21.1 471.3 21.3 476 21.1 480.7 21.1 485.3 21.4 490 21 494.7 21.4 499.3 21.4 504 21.5 508.7 21.3 513.3 21.2 518 21.3 522.7 21.1 527.3 21.5 532 21.5 536.7 21.3 541.3 21.3 546 21.4 550.7 21.1 555.3 21.3 560 21.1" transform="matrix(1,0,0,-1,82.8,592.5)" fill="#87A3CE" fill-opacity="0.2"></polygon>
</g>
<g clip-path="url(#zr0-c4)">
<polygon points="560 0 0 0 0 5.6 4.7 5.6 9.3 5.6 14 5.6 18.7 5.6 23.3 5.6 28 5.6 32.7 5.6 37.3 5.6 42 5.6 46.7 5.6 51.3 5.6 56 5.6 60.7 5.6 65.3 5.6 70 5.6 74.7 5.6 79.3 5.6 84 5.6 88.7 6.4 93.3 7.6 98 9.6 102.7 11.5 107.3 13.4 112 14.4 116.7 15.3 121.3 16.5 126 18.1 130.7 19 135.3 19.8 140 20.4 144.7 21.7 149.3 22.2 154 22.5 158.7 23.3 163.3 23.7 168 23.8 172.7 24 177.3 24.2 182 24.3 186.7 24.4 191.3 24 196 23.9 200.7 24.1 205.3 23.6 210 23.9 214.7 23.8 219.3 23.2 224 23.3 228.7 23.3 233.3 22.8 238 22.4 242.7 22.8 247.3 22.6 252 22.2 256.7 22.3 261.3 21.8 266 22.1 270.7 21.5 275.3 21.4 280 21.7 284.7 21.5 289.3 21.4 294 21 298.7 21.3 303.3 20.9 308 20.9 312.7 21.1 317.3 21.2 322 20.9 326.7 20.7 331.3 21 336 20.7 340.7 20.8 345.3 21.3 350 20.8 354.7 21.1 359.3 21.1 364 21.2 368.7 20.8 373.3 20.8 378 21.2 382.7 21.2 387.3 21.2 392 21 396.7 20.8 401.3 21.2 406 21.1 410.7 20.8 415.3 21 420 21.3 424.7 21.3 429.3 21.4 434 21.3 438.7 21.3 443.3 20.9 448 21.2 452.7 21.2 457.3 21.3 462 21 466.7 21.1 471.3 21.3 476 21.1 480.7 21.1 485.3 21.4 490 21 494.7 21.4 499.3 21.4 504 21.5 508.7 21.3 513.3 21.2 518 21.3 522.7 21.1 527.3 21.5 532 21.5 536.7 21.3 541.3 21.3 546 21.4 550.7 21.1 555.3 21.3 560 21.1" transform="matrix(1,0,0,-1,82.8,592.5)" fill="#71708A" fill-opacity="0.2"></polygon>
</g>
<g clip-path="url(#zr0-c2)">
<polyline points="0 5.6 4.7 5.6 9.3 5.6 14 5.6 18.7 5.6 23.3 5.6 28 5.6 32.7 5.6 37.3 5.6 42 5.6 46.7 5.6 51.3 5.6 56 5.6 60.7 5.6 65.3 5.6 70 5.6 74.7 5.6 79.3 5.6 84 5.6 88.7 6.4 93.3 7.6 98 9.6 102.7 11.5 107.3 13.4 112 14.4 116.7 15.3 121.3 16.5 126 18.1 130.7 19 135.3 19.8 140 20.4 144.7 21.7 149.3 22.2 154 22.5 158.7 23.3 163.3 23.7 168 23.8 172.7 24 177.3 24.2 182 24.3 186.7 24.4 191.3 24 196 23.9 200.7 24.1 205.3 23.6 210 23.9 214.7 23.8 219.3 23.2 224 23.3 228.7 23.3 233.3 22.8 238 22.4 242.7 22.8 247.3 22.6 252 22.2 256.7 22.3 261.3 21.8 266 22.1 270.7 21.5 275.3 21.4 280 21.7 284.7 21.5 289.3 21.4 294 21 298.7 21.3 303.3 20.9 308 20.9 312.7 21.1 317.3 21.2 322 20.9 326.7 20.7 331.3 21 336 20.7 340.7 20.8 345.3 21.3 350 20.8 354.7 21.1 359.3 21.1 364 21.2 368.7 20.8 373.3 20.8 378 21.2 382.7 21.2 387.3 21.2 392 21 396.7 20.8 401.3 21.2 406 21.1 410.7 20.8 415.3 21 420 21.3 424.7 21.3 429.3 21.4 434 21.3 438.7 21.3 443.3 20.9 448 21.2 452.7 21.2 457.3 21.3 462 21 466.7 21.1 471.3 21.3 476 21.1 480.7 21.1 485.3 21.4 490 21 494.7 21.4 499.3 21.4 504 21.5 508.7 21.3 513.3 21.2 518 21.3 522.7 21.1 527.3 21.5 532 21.5 536.7 21.3 541.3 21.3 546 21.4 550.7 21.1 555.3 21.3 560 21.1" transform="matrix(1,0,0,-1,82.8,592.5)" fill="none" stroke="#71708A"></polyline>
</g>
<g clip-path="url(#zr0-c3)">
<polyline points="0 5.6 4.7 5.6 9.3 5.6 14 5.6 18.7 5.6 23.3 5.6 28 5.6 32.7 5.6 37.3 5.6 42 5.6 46.7 5.6 51.3 5.6 56 5.6 60.7 5.6 65.3 5.6 70 5.6 74.7 5.6 79.3 5.6 84 5.6 88.7 6.4 93.3 7.6 98 9.6 102.7 11.5 107.3 13.4 112 14.4 116.7 15.3 121.3 16.5 126 18.1 130.7 19 135.3 19.8 140 20.4 144.7 21.7 149.3 22.2 154 22.5 158.7 23.3 163.3 23.7 168 23.8 172.7 24 177.3 24.2 182 24.3 186.7 24.4 191.3 24 196 23.9 200.7 24.1 205.3 23.6 210 23.9 214.7 23.8 219.3 23.2 224 23.3 228.7 23.3 233.3 22.8 238 22.4 242.7 22.8 247.3 22.6 252 22.2 256.7 22.3 261.3 21.8 266 22.1 270.7 21.5 275.3 21.4 280 21.7 284.7 21.5 289.3 21.4 294 21 298.7 21.3 303.3 20.9 308 20.9 312.7 21.1 317.3 21.2 322 20.9 326.7 20.7 331.3 21 336 20.7 340.7 20.8 345.3 21.3 350 20.8 354.7 21.1 359.3 21.1 364 21.2 368.7 20.8 373.3 20.8 378 21.2 382.7 21.2 387.3 21.2 392 21 396.7 20.8 401.3 21.2 406 21.1 410.7 20.8 415.3 21 420 21.3 424.7 21.3 429.3 21.4 434 21.3 438.7 21.3 443.3 20.9 448 21.2 452.7 21.2 457.3 21.3 462 21 466.7 21.1 471.3 21.3 476 21.1 480.7 21.1 485.3 21.4 490 21 494.7 21.4 499.3 21.4 504 21.5 508.7 21.3 513.3 21.2 518 21.3 522.7 21.1 527.3 21.5 532 21.5 536.7 21.3 541.3 21.3 546 21.4 550.7 21.1 555.3 21.3 560 21.1" transform="matrix(1,0,0,-1,82.8,592.5)" fill="none" stroke="#87A3CE" stroke-width="0.5"></polyline>
</g>
<g clip-path="url(#zr0-c4)">
<polyline points="0 5.6 4.7 5.6 9.3 5.6 14 5.6 18.7 5.6 23.3 5.6 28 5.6 32.7 5.6 37.3 5.6 42 5.6 46.7 5.6 51.3 5.6 56 5.6 60.7 5.6 65.3 5.6 70 5.6 74.7 5.6 79.3 5.6 84 5.6 88.7 6.4 93.3 7.6 98 9.6 102.7 11.5 107.3 13.4 112 14.4 116.7 15.3 121.3 16.5 126 18.1 130.7 19 135.3 19.8 140 20.4 144.7 21.7 149.3 22.2 154 22.5 158.7 23.3 163.3 23.7 168 23.8 172.7 24 177.3 24.2 182 24.3 186.7 24.4 191.3 24 196 23.9 200.7 24.1 205.3 23.6 210 23.9 214.7 23.8 219.3 23.2 224 23.3 228.7 23.3 233.3 22.8 238 22.4 242.7 22.8 247.3 22.6 252 22.2 256.7 22.3 261.3 21.8 266 22.1 270.7 21.5 275.3 21.4 280 21.7 284.7 21.5 289.3 21.4 294 21 298.7 21.3 303.3 20.9 308 20.9 312.7 21.1 317.3 21.2 322 20.9 326.7 20.7 331.3 21 336 20.7 340.7 20.8 345.3 21.3 350 20.8 354.7 21.1 359.3 21.1 364 21.2 368.7 20.8 373.3 20.8 378 21.2 382.7 21.2 387.3 21.2 392 21 396.7 20.8 401.3 21.2 406 21.1 410.7 20.8 415.3 21 420 21.3 424.7 21.3 429.3 21.4 434 21.3 438.7 21.3 443.3 20.9 448 21.2 452.7 21.2 457.3 21.3 462 21 466.7 21.1 471.3 21.3 476 21.1 480.7 21.1 485.3 21.4 490 21 494.7 21.4 499.3 21.4 504 21.5 508.7 21.3 513.3 21.2 518 21.3 522.7 21.1 527.3 21.5 532 21.5 536.7 21.3 541.3 21.3 546 21.4 550.7 21.1 555.3 21.3 560 21.1" transform="matrix(1,0,0,-1,82.8,592.5)" fill="none" stroke="#71708A"></polyline>
</g>
<path d="M-5 -5l691.0547 0l0 22l-691.0547 0Z" transform="translate(59.4727 5)" fill="rgb(0,0,0)" fill-opacity="0" stroke="#ccc" stroke-width="0"></path>
<path d="M0 7L25 7" transform="translate(60.4727 4)" fill="#000" stroke="#ccc" stroke-width="2" stroke-linecap="butt" stroke-miterlimit="10"></path>
<path d="M12.5 1.4L18.1 12.6L6.9 12.6Z" transform="translate(60.4727 4)" fill="#ccc" stroke="#ccc" stroke-width="0" stroke-linecap="butt" stroke-miterlimit="10"></path>
<text dominant-baseline="central" text-anchor="start" style="font-size:12px;font-family:Microsoft YaHei;" x="30" y="7" transform="translate(60.4727 4)" fill="#ccc">Pipe_Pres</text>
<path d="M0 7L25 7" transform="translate(156.1465 4)" fill="#000" stroke="#ccc" stroke-width="2" stroke-linecap="butt" stroke-miterlimit="10"></path>
<path d="M18.1 7A5.6 5.6 0 1 1 18.1 6.9994" transform="translate(156.1465 4)" fill="#ccc" stroke="#ccc" stroke-width="0" stroke-linecap="butt" stroke-miterlimit="10"></path>
<text dominant-baseline="central" text-anchor="start" style="font-size:12px;font-family:Microsoft YaHei;" x="30" y="7" transform="translate(156.1465 4)" fill="#ccc">Ambient_Pres</text>
<path d="M0 7L25 7" transform="translate(276.0313 4)" fill="#000" stroke="#ccc" stroke-width="2" stroke-linecap="butt" stroke-miterlimit="10"></path>
<path d="M12.5 1.4L18.1 12.6L6.9 12.6Z" transform="translate(276.0313 4)" fill="#ccc" stroke="#ccc" stroke-width="0" stroke-linecap="butt" stroke-miterlimit="10"></path>
<text dominant-baseline="central" text-anchor="start" style="font-size:12px;font-family:Microsoft YaHei;" x="30" y="7" transform="translate(276.0313 4)" fill="#ccc">Pipe_Temp</text>
<path d="M0 7L25 7" transform="translate(380.0137 4)" fill="#000" stroke="#ccc" stroke-width="2" stroke-linecap="butt" stroke-miterlimit="10"></path>
<path d="M18.1 7A5.6 5.6 0 1 1 18.1 6.9994" transform="translate(380.0137 4)" fill="#ccc" stroke="#ccc" stroke-width="0" stroke-linecap="butt" stroke-miterlimit="10"></path>
<text dominant-baseline="central" text-anchor="start" style="font-size:12px;font-family:Microsoft YaHei;" x="30" y="7" transform="translate(380.0137 4)" fill="#ccc">Chip_Temp</text>
<path d="M0 7L25 7" transform="translate(485.2617 4)" fill="#000" stroke="#f7f494" stroke-width="2" stroke-linecap="butt" stroke-miterlimit="10"></path>
<path d="M18.1 7A5.6 5.6 0 1 1 18.1 6.9994" transform="translate(485.2617 4)" fill="#f7f494"></path>
<text dominant-baseline="central" text-anchor="start" style="font-size:12px;font-family:Microsoft YaHei;" x="30" y="7" transform="translate(485.2617 4)" fill="#B9B8CE">Set_nPressure</text>
<path d="M0 7L25 7" transform="translate(605.8672 4)" fill="#000" stroke="#f7f494" stroke-width="2" stroke-linecap="butt" stroke-miterlimit="10"></path>
<path d="M12.5 1.4L18.1 12.6L6.9 12.6Z" transform="translate(605.8672 4)" fill="#f7f494"></path>
<text dominant-baseline="central" text-anchor="start" style="font-size:12px;font-family:Microsoft YaHei;" x="30" y="7" transform="translate(605.8672 4)" fill="#B9B8CE">Current_nPressure</text>
<path d="M0 0l560 0l0 30l-560 0Z" transform="matrix(1,0,0,-1,82.8,592.5)" fill="none"></path>
<path d="M0 0l560 0l0 30l-560 0Z" transform="matrix(1,0,0,-1,82.8,592.5)" fill="rgb(135,163,206)" fill-opacity="0.2"></path>
<path d="M3.5 0.5L556.5 0.5A3 3 0 0 1 559.5 3.5L559.5 26.5A3 3 0 0 1 556.5 29.5L3.5 29.5A3 3 0 0 1 0.5 26.5L0.5 3.5A3 3 0 0 1 3.5 0.5" transform="matrix(1,0,0,-1,82.8,592.5)" fill="rgb(0,0,0)" fill-opacity="0" stroke="#71708A"></path>
<path d="M0 29.5L560 29.5L560 34.5A2 2 0 0 1 558 36.5L2 36.5A2 2 0 0 1 0 34.5L0 29.5" transform="matrix(1,0,0,-1,82.8,592.5)" fill="#B0B6C3" fill-opacity="0.3"></path>
<path d="M-2.2408 -1.6796C-1.8674 -1.6796 -1.6817 -1.4939 -1.6817 -1.1204L-1.6817 1.1204C-1.6817 1.4939 -1.8674 1.6796 -2.2408 1.6796C-2.6143 1.6796 -2.8 1.4939 -2.8 1.1204L-2.8 -1.1204C-2.8 -1.4939 -2.6143 -1.6796 -2.2408 -1.6796ZM0 -1.6796C0.3735 -1.6796 0.5592 -1.4939 0.5592 -1.1204L0.5592 1.1204C0.5592 1.4939 0.3735 1.6796 0 1.6796C-0.3735 1.6796 -0.5592 1.4939 -0.5592 1.1204L-0.5592 -1.1204C-0.5592 -1.4939 -0.3735 -1.6796 0 -1.6796ZM2.2408 -1.6796C2.6143 -1.6796 2.8 -1.4939 2.8 -1.1204L2.8 1.1204C2.8 1.4939 2.6143 1.6796 2.2408 1.6796C1.8674 1.6796 1.6817 1.4939 1.6817 1.1204L1.6817 -1.1204C1.6796 -1.4939 1.8674 -1.6796 2.2408 -1.6796Z" transform="matrix(1,0,0,-1,362.8,559.5)" fill="#fff"></path>
<path d="M0 1.628L0 2M0 0L0 0.375M-0.1 0.375L0.1 0.375A0.1 0.1 0 0 1 0.2 0.475L0.2 1.525A0.1 0.1 0 0 1 0.1 1.625L-0.1 1.625A0.1 0.1 0 0 1 -0.2 1.525L-0.2 0.475A0.1 0.1 0 0 1 -0.1 0.375Z" transform="matrix(15,0,0,-15,83.8,592.5)" fill="#353450" stroke="#C5CBE3" stroke-width="0.06666666666666667"></path>
<path d="M0 1.628L0 2M0 0L0 0.375M-0.1 0.375L0.1 0.375A0.1 0.1 0 0 1 0.2 0.475L0.2 1.525A0.1 0.1 0 0 1 0.1 1.625L-0.1 1.625A0.1 0.1 0 0 1 -0.2 1.525L-0.2 0.475A0.1 0.1 0 0 1 -0.1 0.375Z" transform="matrix(15,0,0,-15,641.8,592.5)" fill="#353450" stroke="#C5CBE3" stroke-width="0.06666666666666667"></path>
<defs >
<clipPath id="zr0-c0">
<path d="M79 59l562 0l0 472l-562 0Z" fill="#000"></path>
</clipPath>
<clipPath id="zr0-c1">
<path d="M79 59l562 0l0 472l-562 0Z" fill="#000"></path>
</clipPath>
<clipPath id="zr0-c2">
<path d="M0 0l0 0l0 30l0 0Z" transform="matrix(1,0,0,-1,82.8,592.5)" fill="#000"></path>
</clipPath>
<clipPath id="zr0-c3">
<path d="M0 0l560 0l0 30l-560 0Z" transform="matrix(1,0,0,-1,82.8,592.5)" fill="#000"></path>
</clipPath>
<clipPath id="zr0-c4">
<path d="M560 0l0 0l0 30l0 0Z" transform="matrix(1,0,0,-1,82.8,592.5)" fill="#000"></path>
</clipPath>
</defs>
</svg>