<svg width="800" height="600" xmlns="http://www.w3.org/2000/svg" xmlns:xlink="http://www.w3.org/1999/xlink" version="1.1" baseProfile="full" viewBox="0 0 800 600">
<rect width="800" height="600" x="0" y="0" id="0" fill="rgb(40, 44, 52)" fill-opacity="1"></rect>
<path d="M80 530.5L640 530.5" fill="none" stroke="#484753"></path>
<path d="M80 463.5L640 463.5" fill="none" stroke="#484753"></path>
<path d="M80 395.5L640 395.5" fill="none" stroke="#484753"></path>
<path d="M80 328.5L640 328.5" fill="none" stroke="#484753"></path>
<path d="M80 261.5L640 261.5" fill="none" stroke="#484753"></path>
<path d="M80 194.5L640 194.5" fill="none" stroke="#484753"></path>
<path d="M80 127.5L640 127.5" fill="none" stroke="#484753"></path>
<path d="M80 60.5L640 60.5" fill="none" stroke="#484753"></path>
<path d="M80.5 530L80.5 60" fill="none" stroke="#ACDFED" stroke-linecap="round"></path>
<text dominant-baseline="central" text-anchor="middle" style="font-size:12px;font-family:Microsoft YaHei;" y="-6" transform="translate(80 45)" fill="#B9B8CE">压力</text>
<path d="M640.5 530L640.5 60" fill="none" stroke="#FFAB91" stroke-linecap="round"></path>
<text dominant-baseline="central" text-anchor="middle" style="font-size:12px;font-family:Microsoft YaHei;" y="-6" transform="translate(640 45)" fill="#B9B8CE">温度</text>
<path d="M720.5 530L720.5 60" fill="none" stroke="#f7f494" stroke-linecap="round"></path>
<text dominant-baseline="central" text-anchor="middle" style="font-size:12px;font-family:Microsoft YaHei;" y="-6" transform="translate(720 45)" fill="#B9B8CE">负压</text>
<path d="M80 530.5L640 530.5" fill="none" stroke="#B9B8CE" stroke-linecap="round"></path>
<path d="M82.5 530L82.5 535" fill="none" stroke="#B9B8CE"></path>
<path d="M147.5 530L147.5 535" fill="none" stroke="#B9B8CE"></path>
<path d="M212.5 530L212.5 535" fill="none" stroke="#B9B8CE"></path>
<path d="M276.5 530L276.5 535" fill="none" stroke="#B9B8CE"></path>
<path d="M341.5 530L341.5 535" fill="none" stroke="#B9B8CE"></path>
<path d="M406.5 530L406.5 535" fill="none" stroke="#B9B8CE"></path>
<path d="M471.5 530L471.5 535" fill="none" stroke="#B9B8CE"></path>
<path d="M536.5 530L536.5 535" fill="none" stroke="#B9B8CE"></path>
<path d="M600.5 530L600.5 535" fill="none" stroke="#B9B8CE"></path>
<text dominant-baseline="central" text-anchor="start" style="font-size:12px;font-family:Microsoft YaHei;" xml:space="preserve" transform="translate(728 530)" fill="#B9B8CE">0 hPa</text>
<text dominant-baseline="central" text-anchor="start" style="font-size:12px;font-family:Microsoft YaHei;" xml:space="preserve" transform="translate(728 462.8571)" fill="#B9B8CE">30 hPa</text>
<text dominant-baseline="central" text-anchor="start" style="font-size:12px;font-family:Microsoft YaHei;" xml:space="preserve" transform="translate(728 395.7143)" fill="#B9B8CE">60 hPa</text>
<text dominant-baseline="central" text-anchor="start" style="font-size:12px;font-family:Microsoft YaHei;" xml:space="preserve" transform="translate(728 328.5714)" fill="#B9B8CE">90 hPa</text>
<text dominant-baseline="central" text-anchor="start" style="font-size:12px;font-family:Microsoft YaHei;" xml:space="preserve" transform="translate(728 261.4286)" fill="#B9B8CE">120 hPa</text>
<text dominant-baseline="central" text-anchor="start" style="font-size:12px;font-family:Microsoft YaHei;" xml:space="preserve" transform="translate(728 194.2857)" fill="#B9B8CE">150 hPa</text>
<text dominant-baseline="central" text-anchor="start" style="font-size:12px;font-family:Microsoft YaHei;" xml:space="preserve" transform="translate(728 127.1429)" fill="#B9B8CE">180 hPa</text>
<text dominant-baseline="central" text-anchor="start" style="font-size:12px;font-family:Microsoft YaHei;" xml:space="preserve" transform="translate(728 60)" fill="#B9B8CE">210 hPa</text>
<text dominant-baseline="central" text-anchor="middle" style="font-size:12px;font-family:Microsoft YaHei;" y="6" transform="translate(82.314 538)" fill="#B9B8CE">14:33:35</text>
<text dominant-baseline="central" text-anchor="middle" style="font-size:12px;font-family:Microsoft YaHei;" y="6" transform="translate(147.1074 538)" fill="#B9B8CE">14:33:49</text>
<text dominant-baseline="central" text-anchor="middle" style="font-size:12px;font-family:Microsoft YaHei;" y="6" transform="translate(211.9008 538)" fill="#B9B8CE">14:34:03</text>
<text dominant-baseline="central" text-anchor="middle" style="font-size:12px;font-family:Microsoft YaHei;" y="6" transform="translate(276.6942 538)" fill="#B9B8CE">14:34:17</text>
<text dominant-baseline="central" text-anchor="middle" style="font-size:12px;font-family:Microsoft YaHei;" y="6" transform="translate(341.4876 538)" fill="#B9B8CE">14:34:31</text>
<text dominant-baseline="central" text-anchor="middle" style="font-size:12px;font-family:Microsoft YaHei;" y="6" transform="translate(406.281 538)" fill="#B9B8CE">14:34:45</text>
<text dominant-baseline="central" text-anchor="middle" style="font-size:12px;font-family:Microsoft YaHei;" y="6" transform="translate(471.0744 538)" fill="#B9B8CE">14:34:59</text>
<text dominant-baseline="central" text-anchor="middle" style="font-size:12px;font-family:Microsoft YaHei;" y="6" transform="translate(535.8678 538)" fill="#B9B8CE">14:35:13</text>
<text dominant-baseline="central" text-anchor="middle" style="font-size:12px;font-family:Microsoft YaHei;" y="6" transform="translate(600.6612 538)" fill="#B9B8CE">14:35:27</text>
<g clip-path="url(#zr0-c0)">
<path d="M82.314 449.6524L86.9421 440.7L91.5703 419.6619L96.1983 400.6381L100.8264 398.8476L105.4545 379.3762L110.0826 363.0381L114.7107 347.5952L119.3388 352.9667L123.9669 335.0619L128.595 320.0667L133.2231 314.919L137.8512 298.3571L142.4793 305.9667L147.1074 294.1048L151.7355 286.7191L156.3636 275.9762L160.9917 260.7571L165.6198 270.6048L170.2479 245.3143L174.876 256.0571L179.5041 244.1952L184.1322 230.9905L188.7603 229.2L193.3884 219.1286L198.0165 230.0952L202.6446 216.2191L207.2727 213.981L211.9008 207.0429L216.5289 202.5667L221.157 198.7619L225.7851 192.7191L230.4132 186.0048L235.0413 188.4667L239.6694 182.6476L244.2975 176.381L248.9256 171.2333L253.5537 175.0381L258.1818 167.4286L262.8099 161.8333L267.438 162.5048L272.0661 157.5809L276.6942 147.9571L281.3223 151.3143L285.9504 139.6762L290.5785 152.4333L295.2066 141.6905L299.8347 145.9429L304.4628 133.6333L309.0909 127.8143L313.719 136.0952L318.3471 124.2333L322.9752 123.7857L327.6033 124.681L332.2314 120.4286L336.8595 122.4429L341.4876 113.4905L346.1157 105.6571L350.7438 115.9524L355.3719 106.1048L360 97.8238L364.6281 100.7333L369.2562 106.3286L373.8843 108.7905L378.5124 114.1619L383.1405 119.3095L387.7686 123.1143L392.3967 132.5143L397.0248 137.6619L401.6529 139.6762L406.281 147.2857L410.9091 156.9095L415.5372 159.5952L420.1653 166.7571L424.7934 171.681L429.4215 177.9476L434.0496 183.319L438.6777 186.9L443.3058 189.5857L447.9339 193.1667L452.562 196.3L457.1901 198.9857L461.8182 196.9714L466.4463 199.881L471.0744 205.4762L475.7025 206.1476L480.3306 205.2524L484.9587 204.3571L489.5868 207.2667L494.2149 205.9238L498.843 205.0286L503.4711 204.5809L508.0992 205.0286L512.7273 204.8048L517.3553 203.9095L521.9835 203.6857L526.6116 203.0143L531.2397 203.0143L535.8678 203.0143L540.4958 201.6714L545.124 202.119L549.7521 201.2238L554.3802 201.2238L559.0082 199.6572L563.6364 197.8667L568.2645 198.5381L572.8926 197.4191L577.5207 196.7476L582.1487 196.0762L586.7769 195.8524L591.405 195.181L596.0331 194.9571L600.6611 194.9571L605.2892 195.181L609.9174 195.181L614.5455 193.8381L619.1736 194.2857L623.8016 192.7191L628.4297 194.0619L633.0579 193.1667L637.686 193.1667" fill="none" stroke="#f7f494" stroke-width="2" stroke-linejoin="bevel"></path>
</g>
<g clip-path="url(#zr0-c1)">
<path d="M82.314 194.2857L86.9421 194.2857L91.5703 194.2857L96.1983 194.2857L100.8264 194.2857L105.4545 194.2857L110.0826 194.2857L114.7107 194.2857L119.3388 194.2857L123.9669 194.2857L128.595 194.2857L133.2231 194.2857L137.8512 194.2857L142.4793 194.2857L147.1074 194.2857L151.7355 194.2857L156.3636 194.2857L160.9917 194.2857L165.6198 194.2857L170.2479 194.2857L174.876 194.2857L179.5041 194.2857L184.1322 194.2857L188.7603 194.2857L193.3884 194.2857L198.0165 194.2857L202.6446 194.2857L207.2727 194.2857L211.9008 194.2857L216.5289 194.2857L221.157 194.2857L225.7851 194.2857L230.4132 194.2857L235.0413 194.2857L239.6694 194.2857L244.2975 194.2857L248.9256 194.2857L253.5537 194.2857L258.1818 194.2857L262.8099 194.2857L267.438 194.2857L272.0661 194.2857L276.6942 194.2857L281.3223 194.2857L285.9504 194.2857L290.5785 194.2857L295.2066 194.2857L299.8347 194.2857L304.4628 194.2857L309.0909 194.2857L313.719 194.2857L318.3471 194.2857L322.9752 194.2857L327.6033 194.2857L332.2314 194.2857L336.8595 194.2857L341.4876 194.2857L346.1157 194.2857L350.7438 194.2857L355.3719 194.2857L360 194.2857L364.6281 194.2857L369.2562 194.2857L373.8843 194.2857L378.5124 194.2857L383.1405 194.2857L387.7686 194.2857L392.3967 194.2857L397.0248 194.2857L401.6529 194.2857L406.281 194.2857L410.9091 194.2857L415.5372 194.2857L420.1653 194.2857L424.7934 194.2857L429.4215 194.2857L434.0496 194.2857L438.6777 194.2857L443.3058 194.2857L447.9339 194.2857L452.562 194.2857L457.1901 194.2857L461.8182 194.2857L466.4463 194.2857L471.0744 194.2857L475.7025 194.2857L480.3306 194.2857L484.9587 194.2857L489.5868 194.2857L494.2149 194.2857L498.843 194.2857L503.4711 194.2857L508.0992 194.2857L512.7273 194.2857L517.3553 194.2857L521.9835 194.2857L526.6116 194.2857L531.2397 194.2857L535.8678 194.2857L540.4958 194.2857L545.124 194.2857L549.7521 194.2857L554.3802 194.2857L559.0082 194.2857L563.6364 194.2857L568.2645 194.2857L572.8926 194.2857L577.5207 194.2857L582.1487 194.2857L586.7769 194.2857L591.405 194.2857L596.0331 194.2857L600.6611 194.2857L605.2892 194.2857L609.9174 194.2857L614.5455 194.2857L619.1736 194.2857L623.8016 194.2857L628.4297 194.2857L633.0579 194.2857L637.686 194.2857" fill="none" stroke="#f7f494" stroke-width="2" stroke-linejoin="bevel"></path>
</g>
<path d="M0 -1L1 1L-1 1Z" transform="matrix(5,0,0,5,82.314,449.6524)" fill="#f7f494"></path>
<path d="M0 -1L1 1L-1 1Z" transform="matrix(5,0,0,5,147.1074,294.1048)" fill="#f7f494"></path>
<path d="M0 -1L1 1L-1 1Z" transform="matrix(5,0,0,5,211.9008,207.0429)" fill="#f7f494"></path>
<path d="M0 -1L1 1L-1 1Z" transform="matrix(5,0,0,5,276.6942,147.9571)" fill="#f7f494"></path>
<path d="M0 -1L1 1L-1 1Z" transform="matrix(5,0,0,5,341.4876,113.4905)" fill="#f7f494"></path>
<path d="M0 -1L1 1L-1 1Z" transform="matrix(5,0,0,5,406.281,147.2857)" fill="#f7f494"></path>
<path d="M0 -1L1 1L-1 1Z" transform="matrix(5,0,0,5,471.0744,205.4762)" fill="#f7f494"></path>
<path d="M0 -1L1 1L-1 1Z" transform="matrix(5,0,0,5,535.8678,203.0143)" fill="#f7f494"></path>
<path d="M0 -1L1 1L-1 1Z" transform="matrix(5,0,0,5,600.6611,194.9571)" fill="#f7f494"></path>
<path d="M1 0A1 1 0 1 1 1 -0.0001" transform="matrix(5,0,0,5,82.314,194.2857)" fill="#f7f494"></path>
<path d="M1 0A1 1 0 1 1 1 -0.0001" transform="matrix(5,0,0,5,147.1074,194.2857)" fill="#f7f494"></path>
<path d="M1 0A1 1 0 1 1 1 -0.0001" transform="matrix(5,0,0,5,211.9008,194.2857)" fill="#f7f494"></path>
<path d="M1 0A1 1 0 1 1 1 -0.0001" transform="matrix(5,0,0,5,276.6942,194.2857)" fill="#f7f494"></path>
<path d="M1 0A1 1 0 1 1 1 -0.0001" transform="matrix(5,0,0,5,341.4876,194.2857)" fill="#f7f494"></path>
<path d="M1 0A1 1 0 1 1 1 -0.0001" transform="matrix(5,0,0,5,406.281,194.2857)" fill="#f7f494"></path>
<path d="M1 0A1 1 0 1 1 1 -0.0001" transform="matrix(5,0,0,5,471.0744,194.2857)" fill="#f7f494"></path>
<path d="M1 0A1 1 0 1 1 1 -0.0001" transform="matrix(5,0,0,5,535.8678,194.2857)" fill="#f7f494"></path>
<path d="M1 0A1 1 0 1 1 1 -0.0001" transform="matrix(5,0,0,5,600.6611,194.2857)" fill="#f7f494"></path>
<path d="M0 0l560 0l0 30l-560 0Z" transform="matrix(1,0,0,-1,82.8,592.5)" fill="rgb(47,69,84)" fill-opacity="0"></path>
<g clip-path="url(#zr0-c2)">
<polygon points="560 0 0 0 0 5.6 4.7 6.1 9.3 7.2 14 8.2 18.7 8.3 23.3 9.4 28 10.2 32.7 11.1 37.3 10.8 42 11.7 46.7 12.5 51.3 12.8 56 13.7 60.7 13.3 65.3 13.9 70 14.3 74.7 14.9 79.3 15.7 84 15.2 88.7 16.5 93.3 15.9 98 16.6 102.7 17.3 107.3 17.4 112 17.9 116.7 17.3 121.3 18.1 126 18.2 130.7 18.6 135.3 18.8 140 19 144.7 19.3 149.3 19.7 154 19.5 158.7 19.9 163.3 20.2 168 20.5 172.7 20.3 177.3 20.7 182 21 186.7 20.9 191.3 21.2 196 21.7 200.7 21.5 205.3 22.1 210 21.5 214.7 22 219.3 21.8 224 22.5 228.7 22.8 233.3 22.3 238 23 242.7 23 247.3 22.9 252 23.2 256.7 23.1 261.3 23.5 266 24 270.7 23.4 275.3 23.9 280 24.4 284.7 24.2 289.3 23.9 294 23.8 298.7 23.5 303.3 23.2 308 23 312.7 22.5 317.3 22.3 322 22.1 326.7 21.7 331.3 21.2 336 21.1 340.7 20.7 345.3 20.4 350 20.1 354.7 19.8 359.3 19.6 364 19.5 368.7 19.3 373.3 19.1 378 19 382.7 19.1 387.3 18.9 392 18.6 396.7 18.6 401.3 18.6 406 18.7 410.7 18.5 415.3 18.6 420 18.7 424.7 18.7 429.3 18.7 434 18.7 438.7 18.7 443.3 18.7 448 18.8 452.7 18.8 457.3 18.8 462 18.8 466.7 18.8 471.3 18.9 476 18.9 480.7 18.9 485.3 19 490 19 494.7 19.1 499.3 19.1 504 19.1 508.7 19.2 513.3 19.2 518 19.2 522.7 19.2 527.3 19.2 532 19.2 536.7 19.3 541.3 19.2 546 19.3 550.7 19.2 555.3 19.3 560 19.3" transform="matrix(1,0,0,-1,82.8,592.5)" fill="#71708A" fill-opacity="0.2"></polygon>
</g>
<g clip-path="url(#zr0-c3)">
<polygon points="560 0 0 0 0 5.6 4.7 6.1 9.3 7.2 14 8.2 18.7 8.3 23.3 9.4 28 10.2 32.7 11.1 37.3 10.8 42 11.7 46.7 12.5 51.3 12.8 56 13.7 60.7 13.3 65.3 13.9 70 14.3 74.7 14.9 79.3 15.7 84 15.2 88.7 16.5 93.3 15.9 98 16.6 102.7 17.3 107.3 17.4 112 17.9 116.7 17.3 121.3 18.1 126 18.2 130.7 18.6 135.3 18.8 140 19 144.7 19.3 149.3 19.7 154 19.5 158.7 19.9 163.3 20.2 168 20.5 172.7 20.3 177.3 20.7 182 21 186.7 20.9 191.3 21.2 196 21.7 200.7 21.5 205.3 22.1 210 21.5 214.7 22 219.3 21.8 224 22.5 228.7 22.8 233.3 22.3 238 23 242.7 23 247.3 22.9 252 23.2 256.7 23.1 261.3 23.5 266 24 270.7 23.4 275.3 23.9 280 24.4 284.7 24.2 289.3 23.9 294 23.8 298.7 23.5 303.3 23.2 308 23 312.7 22.5 317.3 22.3 322 22.1 326.7 21.7 331.3 21.2 336 21.1 340.7 20.7 345.3 20.4 350 20.1 354.7 19.8 359.3 19.6 364 19.5 368.7 19.3 373.3 19.1 378 19 382.7 19.1 387.3 18.9 392 18.6 396.7 18.6 401.3 18.6 406 18.7 410.7 18.5 415.3 18.6 420 18.7 424.7 18.7 429.3 18.7 434 18.7 438.7 18.7 443.3 18.7 448 18.8 452.7 18.8 457.3 18.8 462 18.8 466.7 18.8 471.3 18.9 476 18.9 480.7 18.9 485.3 19 490 19 494.7 19.1 499.3 19.1 504 19.1 508.7 19.2 513.3 19.2 518 19.2 522.7 19.2 527.3 19.2 532 19.2 536.7 19.3 541.3 19.2 546 19.3 550.7 19.2 555.3 19.3 560 19.3" transform="matrix(1,0,0,-1,82.8,592.5)" fill="#87A3CE" fill-opacity="0.2"></polygon>
</g>
<g clip-path="url(#zr0-c4)">
<polygon points="560 0 0 0 0 5.6 4.7 6.1 9.3 7.2 14 8.2 18.7 8.3 23.3 9.4 28 10.2 32.7 11.1 37.3 10.8 42 11.7 46.7 12.5 51.3 12.8 56 13.7 60.7 13.3 65.3 13.9 70 14.3 74.7 14.9 79.3 15.7 84 15.2 88.7 16.5 93.3 15.9 98 16.6 102.7 17.3 107.3 17.4 112 17.9 116.7 17.3 121.3 18.1 126 18.2 130.7 18.6 135.3 18.8 140 19 144.7 19.3 149.3 19.7 154 19.5 158.7 19.9 163.3 20.2 168 20.5 172.7 20.3 177.3 20.7 182 21 186.7 20.9 191.3 21.2 196 21.7 200.7 21.5 205.3 22.1 210 21.5 214.7 22 219.3 21.8 224 22.5 228.7 22.8 233.3 22.3 238 23 242.7 23 247.3 22.9 252 23.2 256.7 23.1 261.3 23.5 266 24 270.7 23.4 275.3 23.9 280 24.4 284.7 24.2 289.3 23.9 294 23.8 298.7 23.5 303.3 23.2 308 23 312.7 22.5 317.3 22.3 322 22.1 326.7 21.7 331.3 21.2 336 21.1 340.7 20.7 345.3 20.4 350 20.1 354.7 19.8 359.3 19.6 364 19.5 368.7 19.3 373.3 19.1 378 19 382.7 19.1 387.3 18.9 392 18.6 396.7 18.6 401.3 18.6 406 18.7 410.7 18.5 415.3 18.6 420 18.7 424.7 18.7 429.3 18.7 434 18.7 438.7 18.7 443.3 18.7 448 18.8 452.7 18.8 457.3 18.8 462 18.8 466.7 18.8 471.3 18.9 476 18.9 480.7 18.9 485.3 19 490 19 494.7 19.1 499.3 19.1 504 19.1 508.7 19.2 513.3 19.2 518 19.2 522.7 19.2 527.3 19.2 532 19.2 536.7 19.3 541.3 19.2 546 19.3 550.7 19.2 555.3 19.3 560 19.3" transform="matrix(1,0,0,-1,82.8,592.5)" fill="#71708A" fill-opacity="0.2"></polygon>
</g>
<g clip-path="url(#zr0-c2)">
<polyline points="0 5.6 4.7 6.1 9.3 7.2 14 8.2 18.7 8.3 23.3 9.4 28 10.2 32.7 11.1 37.3 10.8 42 11.7 46.7 12.5 51.3 12.8 56 13.7 60.7 13.3 65.3 13.9 70 14.3 74.7 14.9 79.3 15.7 84 15.2 88.7 16.5 93.3 15.9 98 16.6 102.7 17.3 107.3 17.4 112 17.9 116.7 17.3 121.3 18.1 126 18.2 130.7 18.6 135.3 18.8 140 19 144.7 19.3 149.3 19.7 154 19.5 158.7 19.9 163.3 20.2 168 20.5 172.7 20.3 177.3 20.7 182 21 186.7 20.9 191.3 21.2 196 21.7 200.7 21.5 205.3 22.1 210 21.5 214.7 22 219.3 21.8 224 22.5 228.7 22.8 233.3 22.3 238 23 242.7 23 247.3 22.9 252 23.2 256.7 23.1 261.3 23.5 266 24 270.7 23.4 275.3 23.9 280 24.4 284.7 24.2 289.3 23.9 294 23.8 298.7 23.5 303.3 23.2 308 23 312.7 22.5 317.3 22.3 322 22.1 326.7 21.7 331.3 21.2 336 21.1 340.7 20.7 345.3 20.4 350 20.1 354.7 19.8 359.3 19.6 364 19.5 368.7 19.3 373.3 19.1 378 19 382.7 19.1 387.3 18.9 392 18.6 396.7 18.6 401.3 18.6 406 18.7 410.7 18.5 415.3 18.6 420 18.7 424.7 18.7 429.3 18.7 434 18.7 438.7 18.7 443.3 18.7 448 18.8 452.7 18.8 457.3 18.8 462 18.8 466.7 18.8 471.3 18.9 476 18.9 480.7 18.9 485.3 19 490 19 494.7 19.1 499.3 19.1 504 19.1 508.7 19.2 513.3 19.2 518 19.2 522.7 19.2 527.3 19.2 532 19.2 536.7 19.3 541.3 19.2 546 19.3 550.7 19.2 555.3 19.3 560 19.3" transform="matrix(1,0,0,-1,82.8,592.5)" fill="none" stroke="#71708A"></polyline>
</g>
<g clip-path="url(#zr0-c3)">
<polyline points="0 5.6 4.7 6.1 9.3 7.2 14 8.2 18.7 8.3 23.3 9.4 28 10.2 32.7 11.1 37.3 10.8 42 11.7 46.7 12.5 51.3 12.8 56 13.7 60.7 13.3 65.3 13.9 70 14.3 74.7 14.9 79.3 15.7 84 15.2 88.7 16.5 93.3 15.9 98 16.6 102.7 17.3 107.3 17.4 112 17.9 116.7 17.3 121.3 18.1 126 18.2 130.7 18.6 135.3 18.8 140 19 144.7 19.3 149.3 19.7 154 19.5 158.7 19.9 163.3 20.2 168 20.5 172.7 20.3 177.3 20.7 182 21 186.7 20.9 191.3 21.2 196 21.7 200.7 21.5 205.3 22.1 210 21.5 214.7 22 219.3 21.8 224 22.5 228.7 22.8 233.3 22.3 238 23 242.7 23 247.3 22.9 252 23.2 256.7 23.1 261.3 23.5 266 24 270.7 23.4 275.3 23.9 280 24.4 284.7 24.2 289.3 23.9 294 23.8 298.7 23.5 303.3 23.2 308 23 312.7 22.5 317.3 22.3 322 22.1 326.7 21.7 331.3 21.2 336 21.1 340.7 20.7 345.3 20.4 350 20.1 354.7 19.8 359.3 19.6 364 19.5 368.7 19.3 373.3 19.1 378 19 382.7 19.1 387.3 18.9 392 18.6 396.7 18.6 401.3 18.6 406 18.7 410.7 18.5 415.3 18.6 420 18.7 424.7 18.7 429.3 18.7 434 18.7 438.7 18.7 443.3 18.7 448 18.8 452.7 18.8 457.3 18.8 462 18.8 466.7 18.8 471.3 18.9 476 18.9 480.7 18.9 485.3 19 490 19 494.7 19.1 499.3 19.1 504 19.1 508.7 19.2 513.3 19.2 518 19.2 522.7 19.2 527.3 19.2 532 19.2 536.7 19.3 541.3 19.2 546 19.3 550.7 19.2 555.3 19.3 560 19.3" transform="matrix(1,0,0,-1,82.8,592.5)" fill="none" stroke="#87A3CE" stroke-width="0.5"></polyline>
</g>
<g clip-path="url(#zr0-c4)">
<polyline points="0 5.6 4.7 6.1 9.3 7.2 14 8.2 18.7 8.3 23.3 9.4 28 10.2 32.7 11.1 37.3 10.8 42 11.7 46.7 12.5 51.3 12.8 56 13.7 60.7 13.3 65.3 13.9 70 14.3 74.7 14.9 79.3 15.7 84 15.2 88.7 16.5 93.3 15.9 98 16.6 102.7 17.3 107.3 17.4 112 17.9 116.7 17.3 121.3 18.1 126 18.2 130.7 18.6 135.3 18.8 140 19 144.7 19.3 149.3 19.7 154 19.5 158.7 19.9 163.3 20.2 168 20.5 172.7 20.3 177.3 20.7 182 21 186.7 20.9 191.3 21.2 196 21.7 200.7 21.5 205.3 22.1 210 21.5 214.7 22 219.3 21.8 224 22.5 228.7 22.8 233.3 22.3 238 23 242.7 23 247.3 22.9 252 23.2 256.7 23.1 261.3 23.5 266 24 270.7 23.4 275.3 23.9 280 24.4 284.7 24.2 289.3 23.9 294 23.8 298.7 23.5 303.3 23.2 308 23 312.7 22.5 317.3 22.3 322 22.1 326.7 21.7 331.3 21.2 336 21.1 340.7 20.7 345.3 20.4 350 20.1 354.7 19.8 359.3 19.6 364 19.5 368.7 19.3 373.3 19.1 378 19 382.7 19.1 387.3 18.9 392 18.6 396.7 18.6 401.3 18.6 406 18.7 410.7 18.5 415.3 18.6 420 18.7 424.7 18.7 429.3 18.7 434 18.7 438.7 18.7 443.3 18.7 448 18.8 452.7 18.8 457.3 18.8 462 18.8 466.7 18.8 471.3 18.9 476 18.9 480.7 18.9 485.3 19 490 19 494.7 19.1 499.3 19.1 504 19.1 508.7 19.2 513.3 19.2 518 19.2 522.7 19.2 527.3 19.2 532 19.2 536.7 19.3 541.3 19.2 546 19.3 550.7 19.2 555.3 19.3 560 19.3" transform="matrix(1,0,0,-1,82.8,592.5)" fill="none" stroke="#71708A"></polyline>
</g>
<path d="M-5 -5l691.0547 0l0 22l-691.0547 0Z" transform="translate(59.4727 5)" fill="rgb(0,0,0)" fill-opacity="0" stroke="#ccc" stroke-width="0"></path>
<path d="M0 7L25 7" transform="translate(60.4727 4)" fill="#000" stroke="#ccc" stroke-width="2" stroke-linecap="butt" stroke-miterlimit="10"></path>
<path d="M12.5 1.4L18.1 12.6L6.9 12.6Z" transform="translate(60.4727 4)" fill="#ccc" stroke="#ccc" stroke-width="0" stroke-linecap="butt" stroke-miterlimit="10"></path>
<text dominant-baseline="central" text-anchor="start" style="font-size:12px;font-family:Microsoft YaHei;" x="30" y="7" transform="translate(60.4727 4)" fill="#ccc">Pipe_Pres</text>
<path d="M0 7L25 7" transform="translate(156.1465 4)" fill="#000" stroke="#ccc" stroke-width="2" stroke-linecap="butt" stroke-miterlimit="10"></path>
<path d="M18.1 7A5.6 5.6 0 1 1 18.1 6.9994" transform="translate(156.1465 4)" fill="#ccc" stroke="#ccc" stroke-width="0" stroke-linecap="butt" stroke-miterlimit="10"></path>
<text dominant-baseline="central" text-anchor="start" style="font-size:12px;font-family:Microsoft YaHei;" x="30" y="7" transform="translate(156.1465 4)" fill="#ccc">Ambient_Pres</text>
<path d="M0 7L25 7" transform="translate(276.0313 4)" fill="#000" stroke="#ccc" stroke-width="2" stroke-linecap="butt" stroke-miterlimit="10"></path>
<path d="M12.5 1.4L18.1 12.6L6.9 12.6Z" transform="translate(276.0313 4)" fill="#ccc" stroke="#ccc" stroke-width="0" stroke-linecap="butt" stroke-miterlimit="10"></path>
<text dominant-baseline="central" text-anchor="start" style="font-size:12px;font-family:Microsoft YaHei;" x="30" y="7" transform="translate(276.0313 4)" fill="#ccc">Pipe_Temp</text>
<path d="M0 7L25 7" transform="translate(380.0137 4)" fill="#000" stroke="#ccc" stroke-width="2" stroke-linecap="butt" stroke-miterlimit="10"></path>
<path d="M18.1 7A5.6 5.6 0 1 1 18.1 6.9994" transform="translate(380.0137 4)" fill="#ccc" stroke="#ccc" stroke-width="0" stroke-linecap="butt" stroke-miterlimit="10"></path>
<text dominant-baseline="central" text-anchor="start" style="font-size:12px;font-family:Microsoft YaHei;" x="30" y="7" transform="translate(380.0137 4)" fill="#ccc">Chip_Temp</text>
<path d="M0 7L25 7" transform="translate(485.2617 4)" fill="#000" stroke="#f7f494" stroke-width="2" stroke-linecap="butt" stroke-miterlimit="10"></path>
<path d="M18.1 7A5.6 5.6 0 1 1 18.1 6.9994" transform="translate(485.2617 4)" fill="#f7f494"></path>
<text dominant-baseline="central" text-anchor="start" style="font-size:12px;font-family:Microsoft YaHei;" x="30" y="7" transform="translate(485.2617 4)" fill="#B9B8CE">Set_nPressure</text>
<path d="M0 7L25 7" transform="translate(605.8672 4)" fill="#000" stroke="#f7f494" stroke-width="2" stroke-linecap="butt" stroke-miterlimit="10"></path>
<path d="M12.5 1.4L18.1 12.6L6.9 12.6Z" transform="translate(605.8672 4)" fill="#f7f494"></path>
<text dominant-baseline="central" text-anchor="start" style="font-size:12px;font-family:Microsoft YaHei;" x="30" y="7" transform="translate(605.8672 4)" fill="#B9B8CE">Current_nPressure</text>
<path d="M0 0l560 0l0 30l-560 0Z" transform="matrix(1,0,0,-1,82.8,592.5)" fill="none"></path>
<path d="M0 0l560 0l0 30l-560 0Z" transform="matrix(1,0,0,-1,82.8,592.5)" fill="rgb(135,163,206)" fill-opacity="0.2"></path>
<path d="M3.5 0.5L556.5 0.5A3 3 0 0 1 559.5 3.5L559.5 26.5A3 3 0 0 1 556.5 29.5L3.5 29.5A3 3 0 0 1 0.5 26.5L0.5 3.5A3 3 0 0 1 3.5 0.5" transform="matrix(1,0,0,-1,82.8,592.5)" fill="rgb(0,0,0)" fill-opacity="0" stroke="#71708A"></path>
<path d="M0 29.5L560 29.5L560 34.5A2 2 0 0 1 558 36.5L2 36.5A2 2 0 0 1 0 34.5L0 29.5" transform="matrix(1,0,0,-1,82.8,592.5)" fill="#B0B6C3" fill-opacity="0.3"></path>
<path d="M-2.2408 -1.6796C-1.8674 -1.6796 -1.6817 -1.4939 -1.6817 -1.1204L-1.6817 1.1204C-1.6817 1.4939 -1.8674 1.6796 -2.2408 1.6796C-2.6143 1.6796 -2.8 1.4939 -2.8 1.1204L-2.8 -1.1204C-2.8 -1.4939 -2.6143 -1.6796 -2.2408 -1.6796ZM0 -1.6796C0.3735 -1.6796 0.5592 -1.4939 0.5592 -1.1204L0.5592 1.1204C0.5592 1.4939 0.3735 1.6796 0 1.6796C-0.3735 1.6796 -0.5592 1.4939 -0.5592 1.1204L-0.5592 -1.1204C-0.5592 -1.4939 -0.3735 -1.6796 0 -1.6796ZM2.2408 -1.6796C2.6143 -1.6796 2.8 -1.4939 2.8 -1.1204L2.8 1.1204C2.8 1.4939 2.6143 1.6796 2.2408 1.6796C1.8674 1.6796 1.6817 1.4939 1.6817 1.1204L1.6817 -1.1204C1.6796 -1.4939 1.8674 -1.6796 2.2408 -1.6796Z" transform="matrix(1,0,0,-1,362.8,559.5)" fill="#fff"></path>
<path d="M0 1.628L0 2M0 0L0 0.375M-0.1 0.375L0.1 0.375A0.1 0.1 0 0 1 0.2 0.475L0.2 1.525A0.1 0.1 0 0 1 0.1 1.625L-0.1 1.625A0.1 0.1 0 0 1 -0.2 1.525L-0.2 0.475A0.1 0.1 0 0 1 -0.1 0.375Z" transform="matrix(15,0,0,-15,83.8,592.5)" fill="#353450" stroke="#C5CBE3" stroke-width="0.06666666666666667"></path>
<path d="M0 1.628L0 2M0 0L0 0.375M-0.1 0.375L0.1 0.375A0.1 0.1 0 0 1 0.2 0.475L0.2 1.525A0.1 0.1 0 0 1 0.1 1.625L-0.1 1.625A0.1 0.1 0 0 1 -0.2 1.525L-0.2 0.475A0.1 0.1 0 0 1 -0.1 0.375Z" transform="matrix(15,0,0,-15,641.8,592.5)" fill="#353450" stroke="#C5CBE3" stroke-width="0.06666666666666667"></path>
<defs >
<clipPath id="zr0-c0">
<path d="M79 59l562 0l0 472l-562 0Z" fill="#000"></path>
</clipPath>
<clipPath id="zr0-c1">
<path d="M79 59l562 0l0 472l-562 0Z" fill="#000"></path>
</clipPath>
<clipPath id="zr0-c2">
<path d="M0 0l0 0l0 30l0 0Z" transform="matrix(1,0,0,-1,82.8,592.5)" fill="#000"></path>
</clipPath>
<clipPath id="zr0-c3">
<path d="M0 0l560 0l0 30l-560 0Z" transform="matrix(1,0,0,-1,82.8,592.5)" fill="#000"></path>
</clipPath>
<clipPath id="zr0-c4">
<path d="M560 0l0 0l0 30l0 0Z" transform="matrix(1,0,0,-1,82.8,592.5)" fill="#000"></path>
</clipPath>
</defs>
</svg>