<svg width="800" height="600" xmlns="http://www.w3.org/2000/svg" xmlns:xlink="http://www.w3.org/1999/xlink" version="1.1" baseProfile="full" viewBox="0 0 800 600">
<rect width="800" height="600" x="0" y="0" id="0" fill="rgb(40, 44, 52)" fill-opacity="1"></rect>
<path d="M80 530.5L640 530.5" fill="none" stroke="#484753"></path>
<path d="M80 436.5L640 436.5" fill="none" stroke="#484753"></path>
<path d="M80 342.5L640 342.5" fill="none" stroke="#484753"></path>
<path d="M80 248.5L640 248.5" fill="none" stroke="#484753"></path>
<path d="M80 154.5L640 154.5" fill="none" stroke="#484753"></path>
<path d="M80 60.5L640 60.5" fill="none" stroke="#484753"></path>
<path d="M80.5 530L80.5 60" fill="none" stroke="#ACDFED" stroke-linecap="round"></path>
<text dominant-baseline="central" text-anchor="middle" style="font-size:12px;font-family:Microsoft YaHei;" y="-6" transform="translate(80 45)" fill="#B9B8CE">压力</text>
<path d="M640.5 530L640.5 60" fill="none" stroke="#FFAB91" stroke-linecap="round"></path>
<text dominant-baseline="central" text-anchor="middle" style="font-size:12px;font-family:Microsoft YaHei;" y="-6" transform="translate(640 45)" fill="#B9B8CE">温度</text>
<path d="M720.5 530L720.5 60" fill="none" stroke="#f7f494" stroke-linecap="round"></path>
<text dominant-baseline="central" text-anchor="middle" style="font-size:12px;font-family:Microsoft YaHei;" y="-6" transform="translate(720 45)" fill="#B9B8CE">负压</text>
<path d="M80 530.5L640 530.5" fill="none" stroke="#B9B8CE" stroke-linecap="round"></path>
<path d="M82.5 530L82.5 535" fill="none" stroke="#B9B8CE"></path>
<path d="M147.5 530L147.5 535" fill="none" stroke="#B9B8CE"></path>
<path d="M212.5 530L212.5 535" fill="none" stroke="#B9B8CE"></path>
<path d="M276.5 530L276.5 535" fill="none" stroke="#B9B8CE"></path>
<path d="M341.5 530L341.5 535" fill="none" stroke="#B9B8CE"></path>
<path d="M406.5 530L406.5 535" fill="none" stroke="#B9B8CE"></path>
<path d="M471.5 530L471.5 535" fill="none" stroke="#B9B8CE"></path>
<path d="M536.5 530L536.5 535" fill="none" stroke="#B9B8CE"></path>
<path d="M600.5 530L600.5 535" fill="none" stroke="#B9B8CE"></path>
<text dominant-baseline="central" text-anchor="start" style="font-size:12px;font-family:Microsoft YaHei;" xml:space="preserve" transform="translate(728 530)" fill="#B9B8CE">0 hPa</text>
<text dominant-baseline="central" text-anchor="start" style="font-size:12px;font-family:Microsoft YaHei;" xml:space="preserve" transform="translate(728 436)" fill="#B9B8CE">30 hPa</text>
<text dominant-baseline="central" text-anchor="start" style="font-size:12px;font-family:Microsoft YaHei;" xml:space="preserve" transform="translate(728 342)" fill="#B9B8CE">60 hPa</text>
<text dominant-baseline="central" text-anchor="start" style="font-size:12px;font-family:Microsoft YaHei;" xml:space="preserve" transform="translate(728 248)" fill="#B9B8CE">90 hPa</text>
<text dominant-baseline="central" text-anchor="start" style="font-size:12px;font-family:Microsoft YaHei;" xml:space="preserve" transform="translate(728 154)" fill="#B9B8CE">120 hPa</text>
<text dominant-baseline="central" text-anchor="start" style="font-size:12px;font-family:Microsoft YaHei;" xml:space="preserve" transform="translate(728 60)" fill="#B9B8CE">150 hPa</text>
<text dominant-baseline="central" text-anchor="middle" style="font-size:12px;font-family:Microsoft YaHei;" y="6" transform="translate(82.314 538)" fill="#B9B8CE">12:47:00</text>
<text dominant-baseline="central" text-anchor="middle" style="font-size:12px;font-family:Microsoft YaHei;" y="6" transform="translate(147.1074 538)" fill="#B9B8CE">12:47:14</text>
<text dominant-baseline="central" text-anchor="middle" style="font-size:12px;font-family:Microsoft YaHei;" y="6" transform="translate(211.9008 538)" fill="#B9B8CE">12:47:28</text>
<text dominant-baseline="central" text-anchor="middle" style="font-size:12px;font-family:Microsoft YaHei;" y="6" transform="translate(276.6942 538)" fill="#B9B8CE">12:47:42</text>
<text dominant-baseline="central" text-anchor="middle" style="font-size:12px;font-family:Microsoft YaHei;" y="6" transform="translate(341.4876 538)" fill="#B9B8CE">12:47:56</text>
<text dominant-baseline="central" text-anchor="middle" style="font-size:12px;font-family:Microsoft YaHei;" y="6" transform="translate(406.281 538)" fill="#B9B8CE">12:48:10</text>
<text dominant-baseline="central" text-anchor="middle" style="font-size:12px;font-family:Microsoft YaHei;" y="6" transform="translate(471.0744 538)" fill="#B9B8CE">12:48:24</text>
<text dominant-baseline="central" text-anchor="middle" style="font-size:12px;font-family:Microsoft YaHei;" y="6" transform="translate(535.8678 538)" fill="#B9B8CE">12:48:38</text>
<text dominant-baseline="central" text-anchor="middle" style="font-size:12px;font-family:Microsoft YaHei;" y="6" transform="translate(600.6612 538)" fill="#B9B8CE">12:48:52</text>
<g clip-path="url(#zr0-c0)">
<path d="M82.314 221.3667L86.9421 214.7867L91.5703 221.3667L96.1983 210.7133L100.8264 221.0533L105.4545 213.8467L110.0826 221.68L114.7107 220.74L119.3388 221.3667L123.9669 315.9933L128.595 351.4L133.2231 355.7867L137.8512 322.26L142.4793 362.9933L147.1074 433.18L151.7355 483L156.3636 458.8733L160.9917 396.2067L165.6198 358.6067L170.2479 357.6667L174.876 324.4533L179.5041 296.2533L184.1322 263.3533L188.7603 237.9733L193.3884 240.48L198.0165 193.48L202.6446 183.14L207.2727 170.6067L211.9008 154.3133L216.5289 139.5867L221.157 135.2L225.7851 126.74L230.4132 122.98L235.0413 118.28L239.6694 120.7867L244.2975 126.74L248.9256 125.4867L253.5537 131.7533L258.1818 136.7667L262.8099 134.5733L267.438 142.72L272.0661 157.76L276.6942 156.1933L281.3223 166.8467L285.9504 165.9067L290.5785 181.26L295.2066 182.2L299.8347 185.02L304.4628 191.6L309.0909 197.5533L313.719 201L318.3471 203.5067L322.9752 207.8933L327.6033 217.2933L332.2314 215.7267L336.8595 217.92L341.4876 218.86L346.1157 221.0533L350.7438 223.8733L355.3719 232.3333L360 232.02L364.6281 233.2733L369.2562 226.6933L373.8843 228.8867L378.5124 227.6333L383.1405 232.6467L387.7686 226.38L392.3967 231.3933L397.0248 227.32L401.6529 224.5L406.281 226.38L410.9091 225.1267L415.5372 223.2467L420.1653 228.8867L424.7934 223.56L429.4215 223.2467L434.0496 225.7533L438.6777 224.1867L443.3058 220.1133L447.9339 223.8733L452.562 221.68L457.1901 221.3667L461.8182 227.9467L466.4463 226.0667L471.0744 225.1267L475.7025 218.5467L480.3306 224.5L484.9587 223.2467L489.5868 212.5933L494.2149 222.3067L498.843 218.2333L503.4711 213.5333L508.0992 220.74L512.7273 216.6667L517.3553 212.9067L521.9835 216.04L526.6116 216.04L531.2397 212.5933L535.8678 210.0867L540.4958 209.46L545.124 219.1733L549.7521 216.98L554.3802 212.5933L559.0082 216.04L563.6364 218.2333L568.2645 213.8467L572.8926 217.2933L577.5207 215.7267L582.1487 217.92L586.7769 219.1733L591.405 209.1467L596.0331 219.8L600.6611 210.7133L605.2892 216.98L609.9174 215.4133L614.5455 218.2333L619.1736 217.2933L623.8016 219.8L628.4297 215.7267L633.0579 212.5933L637.686 213.5333" fill="none" stroke="#f7f494" stroke-width="2" stroke-linejoin="bevel"></path>
</g>
<g clip-path="url(#zr0-c1)">
<path d="M82.314 216.6667L86.9421 216.6667L91.5703 216.6667L96.1983 216.6667L100.8264 216.6667L105.4545 216.6667L110.0826 216.6667L114.7107 216.6667L119.3388 216.6667L123.9669 216.6667L128.595 216.6667L133.2231 216.6667L137.8512 216.6667L142.4793 216.6667L147.1074 216.6667L151.7355 216.6667L156.3636 216.6667L160.9917 216.6667L165.6198 216.6667L170.2479 216.6667L174.876 216.6667L179.5041 216.6667L184.1322 216.6667L188.7603 216.6667L193.3884 216.6667L198.0165 216.6667L202.6446 216.6667L207.2727 216.6667L211.9008 216.6667L216.5289 216.6667L221.157 216.6667L225.7851 216.6667L230.4132 216.6667L235.0413 216.6667L239.6694 216.6667L244.2975 216.6667L248.9256 216.6667L253.5537 216.6667L258.1818 216.6667L262.8099 216.6667L267.438 216.6667L272.0661 216.6667L276.6942 216.6667L281.3223 216.6667L285.9504 216.6667L290.5785 216.6667L295.2066 216.6667L299.8347 216.6667L304.4628 216.6667L309.0909 216.6667L313.719 216.6667L318.3471 216.6667L322.9752 216.6667L327.6033 216.6667L332.2314 216.6667L336.8595 216.6667L341.4876 216.6667L346.1157 216.6667L350.7438 216.6667L355.3719 216.6667L360 216.6667L364.6281 216.6667L369.2562 216.6667L373.8843 216.6667L378.5124 216.6667L383.1405 216.6667L387.7686 216.6667L392.3967 216.6667L397.0248 216.6667L401.6529 216.6667L406.281 216.6667L410.9091 216.6667L415.5372 216.6667L420.1653 216.6667L424.7934 216.6667L429.4215 216.6667L434.0496 216.6667L438.6777 216.6667L443.3058 216.6667L447.9339 216.6667L452.562 216.6667L457.1901 216.6667L461.8182 216.6667L466.4463 216.6667L471.0744 216.6667L475.7025 216.6667L480.3306 216.6667L484.9587 216.6667L489.5868 216.6667L494.2149 216.6667L498.843 216.6667L503.4711 216.6667L508.0992 216.6667L512.7273 216.6667L517.3553 216.6667L521.9835 216.6667L526.6116 216.6667L531.2397 216.6667L535.8678 216.6667L540.4958 216.6667L545.124 216.6667L549.7521 216.6667L554.3802 216.6667L559.0082 216.6667L563.6364 216.6667L568.2645 216.6667L572.8926 216.6667L577.5207 216.6667L582.1487 216.6667L586.7769 216.6667L591.405 216.6667L596.0331 216.6667L600.6611 216.6667L605.2892 216.6667L609.9174 216.6667L614.5455 216.6667L619.1736 216.6667L623.8016 216.6667L628.4297 216.6667L633.0579 216.6667L637.686 216.6667" fill="none" stroke="#f7f494" stroke-width="2" stroke-linejoin="bevel"></path>
</g>
<path d="M0 -1L1 1L-1 1Z" transform="matrix(5,0,0,5,82.314,221.3667)" fill="#f7f494"></path>
<path d="M0 -1L1 1L-1 1Z" transform="matrix(5,0,0,5,147.1074,433.18)" fill="#f7f494"></path>
<path d="M0 -1L1 1L-1 1Z" transform="matrix(5,0,0,5,211.9008,154.3133)" fill="#f7f494"></path>
<path d="M0 -1L1 1L-1 1Z" transform="matrix(5,0,0,5,276.6942,156.1933)" fill="#f7f494"></path>
<path d="M0 -1L1 1L-1 1Z" transform="matrix(5,0,0,5,341.4876,218.86)" fill="#f7f494"></path>
<path d="M0 -1L1 1L-1 1Z" transform="matrix(5,0,0,5,406.281,226.38)" fill="#f7f494"></path>
<path d="M0 -1L1 1L-1 1Z" transform="matrix(5,0,0,5,471.0744,225.1267)" fill="#f7f494"></path>
<path d="M0 -1L1 1L-1 1Z" transform="matrix(5,0,0,5,535.8678,210.0867)" fill="#f7f494"></path>
<path d="M0 -1L1 1L-1 1Z" transform="matrix(5,0,0,5,600.6611,210.7133)" fill="#f7f494"></path>
<path d="M1 0A1 1 0 1 1 1 -0.0001" transform="matrix(5,0,0,5,82.314,216.6667)" fill="#f7f494"></path>
<path d="M1 0A1 1 0 1 1 1 -0.0001" transform="matrix(5,0,0,5,147.1074,216.6667)" fill="#f7f494"></path>
<path d="M1 0A1 1 0 1 1 1 -0.0001" transform="matrix(5,0,0,5,211.9008,216.6667)" fill="#f7f494"></path>
<path d="M1 0A1 1 0 1 1 1 -0.0001" transform="matrix(5,0,0,5,276.6942,216.6667)" fill="#f7f494"></path>
<path d="M1 0A1 1 0 1 1 1 -0.0001" transform="matrix(5,0,0,5,341.4876,216.6667)" fill="#f7f494"></path>
<path d="M1 0A1 1 0 1 1 1 -0.0001" transform="matrix(5,0,0,5,406.281,216.6667)" fill="#f7f494"></path>
<path d="M1 0A1 1 0 1 1 1 -0.0001" transform="matrix(5,0,0,5,471.0744,216.6667)" fill="#f7f494"></path>
<path d="M1 0A1 1 0 1 1 1 -0.0001" transform="matrix(5,0,0,5,535.8678,216.6667)" fill="#f7f494"></path>
<path d="M1 0A1 1 0 1 1 1 -0.0001" transform="matrix(5,0,0,5,600.6611,216.6667)" fill="#f7f494"></path>
<path d="M0 0l560 0l0 30l-560 0Z" transform="matrix(1,0,0,-1,82.8,592.5)" fill="rgb(47,69,84)" fill-opacity="0"></path>
<g clip-path="url(#zr0-c2)">
<polygon points="560 0 0 0 0 19.1 4.7 19.4 9.3 19.1 14 19.6 18.7 19.1 23.3 19.5 28 19.1 32.7 19.1 37.3 19.1 42 14.2 46.7 12.4 51.3 12.2 56 13.9 60.7 11.8 65.3 8.2 70 5.6 74.7 6.9 79.3 10.1 84 12 88.7 12.1 93.3 13.8 98 15.2 102.7 16.9 107.3 18.2 112 18.1 116.7 20.5 121.3 21 126 21.7 130.7 22.5 135.3 23.3 140 23.5 144.7 23.9 149.3 24.1 154 24.4 158.7 24.2 163.3 23.9 168 24 172.7 23.7 177.3 23.4 182 23.5 186.7 23.1 191.3 22.3 196 22.4 200.7 21.9 205.3 21.9 210 21.1 214.7 21.1 219.3 20.9 224 20.6 228.7 20.3 233.3 20.1 238 20 242.7 19.8 247.3 19.3 252 19.4 256.7 19.3 261.3 19.2 266 19.1 270.7 18.9 275.3 18.5 280 18.5 284.7 18.5 289.3 18.8 294 18.7 298.7 18.8 303.3 18.5 308 18.8 312.7 18.6 317.3 18.8 322 18.9 326.7 18.8 331.3 18.9 336 19 340.7 18.7 345.3 19 350 19 354.7 18.8 359.3 18.9 364 19.1 368.7 18.9 373.3 19.1 378 19.1 382.7 18.7 387.3 18.8 392 18.9 396.7 19.2 401.3 18.9 406 19 410.7 19.5 415.3 19 420 19.2 424.7 19.5 429.3 19.1 434 19.3 438.7 19.5 443.3 19.3 448 19.3 452.7 19.5 457.3 19.7 462 19.7 466.7 19.2 471.3 19.3 476 19.5 480.7 19.3 485.3 19.2 490 19.5 494.7 19.3 499.3 19.4 504 19.3 508.7 19.2 513.3 19.7 518 19.2 522.7 19.6 527.3 19.3 532 19.4 536.7 19.2 541.3 19.3 546 19.2 550.7 19.4 555.3 19.5 560 19.5" transform="matrix(1,0,0,-1,82.8,592.5)" fill="#71708A" fill-opacity="0.2"></polygon>
</g>
<g clip-path="url(#zr0-c3)">
<polygon points="560 0 0 0 0 19.1 4.7 19.4 9.3 19.1 14 19.6 18.7 19.1 23.3 19.5 28 19.1 32.7 19.1 37.3 19.1 42 14.2 46.7 12.4 51.3 12.2 56 13.9 60.7 11.8 65.3 8.2 70 5.6 74.7 6.9 79.3 10.1 84 12 88.7 12.1 93.3 13.8 98 15.2 102.7 16.9 107.3 18.2 112 18.1 116.7 20.5 121.3 21 126 21.7 130.7 22.5 135.3 23.3 140 23.5 144.7 23.9 149.3 24.1 154 24.4 158.7 24.2 163.3 23.9 168 24 172.7 23.7 177.3 23.4 182 23.5 186.7 23.1 191.3 22.3 196 22.4 200.7 21.9 205.3 21.9 210 21.1 214.7 21.1 219.3 20.9 224 20.6 228.7 20.3 233.3 20.1 238 20 242.7 19.8 247.3 19.3 252 19.4 256.7 19.3 261.3 19.2 266 19.1 270.7 18.9 275.3 18.5 280 18.5 284.7 18.5 289.3 18.8 294 18.7 298.7 18.8 303.3 18.5 308 18.8 312.7 18.6 317.3 18.8 322 18.9 326.7 18.8 331.3 18.9 336 19 340.7 18.7 345.3 19 350 19 354.7 18.8 359.3 18.9 364 19.1 368.7 18.9 373.3 19.1 378 19.1 382.7 18.7 387.3 18.8 392 18.9 396.7 19.2 401.3 18.9 406 19 410.7 19.5 415.3 19 420 19.2 424.7 19.5 429.3 19.1 434 19.3 438.7 19.5 443.3 19.3 448 19.3 452.7 19.5 457.3 19.7 462 19.7 466.7 19.2 471.3 19.3 476 19.5 480.7 19.3 485.3 19.2 490 19.5 494.7 19.3 499.3 19.4 504 19.3 508.7 19.2 513.3 19.7 518 19.2 522.7 19.6 527.3 19.3 532 19.4 536.7 19.2 541.3 19.3 546 19.2 550.7 19.4 555.3 19.5 560 19.5" transform="matrix(1,0,0,-1,82.8,592.5)" fill="#87A3CE" fill-opacity="0.2"></polygon>
</g>
<g clip-path="url(#zr0-c4)">
<polygon points="560 0 0 0 0 19.1 4.7 19.4 9.3 19.1 14 19.6 18.7 19.1 23.3 19.5 28 19.1 32.7 19.1 37.3 19.1 42 14.2 46.7 12.4 51.3 12.2 56 13.9 60.7 11.8 65.3 8.2 70 5.6 74.7 6.9 79.3 10.1 84 12 88.7 12.1 93.3 13.8 98 15.2 102.7 16.9 107.3 18.2 112 18.1 116.7 20.5 121.3 21 126 21.7 130.7 22.5 135.3 23.3 140 23.5 144.7 23.9 149.3 24.1 154 24.4 158.7 24.2 163.3 23.9 168 24 172.7 23.7 177.3 23.4 182 23.5 186.7 23.1 191.3 22.3 196 22.4 200.7 21.9 205.3 21.9 210 21.1 214.7 21.1 219.3 20.9 224 20.6 228.7 20.3 233.3 20.1 238 20 242.7 19.8 247.3 19.3 252 19.4 256.7 19.3 261.3 19.2 266 19.1 270.7 18.9 275.3 18.5 280 18.5 284.7 18.5 289.3 18.8 294 18.7 298.7 18.8 303.3 18.5 308 18.8 312.7 18.6 317.3 18.8 322 18.9 326.7 18.8 331.3 18.9 336 19 340.7 18.7 345.3 19 350 19 354.7 18.8 359.3 18.9 364 19.1 368.7 18.9 373.3 19.1 378 19.1 382.7 18.7 387.3 18.8 392 18.9 396.7 19.2 401.3 18.9 406 19 410.7 19.5 415.3 19 420 19.2 424.7 19.5 429.3 19.1 434 19.3 438.7 19.5 443.3 19.3 448 19.3 452.7 19.5 457.3 19.7 462 19.7 466.7 19.2 471.3 19.3 476 19.5 480.7 19.3 485.3 19.2 490 19.5 494.7 19.3 499.3 19.4 504 19.3 508.7 19.2 513.3 19.7 518 19.2 522.7 19.6 527.3 19.3 532 19.4 536.7 19.2 541.3 19.3 546 19.2 550.7 19.4 555.3 19.5 560 19.5" transform="matrix(1,0,0,-1,82.8,592.5)" fill="#71708A" fill-opacity="0.2"></polygon>
</g>
<g clip-path="url(#zr0-c2)">
<polyline points="0 19.1 4.7 19.4 9.3 19.1 14 19.6 18.7 19.1 23.3 19.5 28 19.1 32.7 19.1 37.3 19.1 42 14.2 46.7 12.4 51.3 12.2 56 13.9 60.7 11.8 65.3 8.2 70 5.6 74.7 6.9 79.3 10.1 84 12 88.7 12.1 93.3 13.8 98 15.2 102.7 16.9 107.3 18.2 112 18.1 116.7 20.5 121.3 21 126 21.7 130.7 22.5 135.3 23.3 140 23.5 144.7 23.9 149.3 24.1 154 24.4 158.7 24.2 163.3 23.9 168 24 172.7 23.7 177.3 23.4 182 23.5 186.7 23.1 191.3 22.3 196 22.4 200.7 21.9 205.3 21.9 210 21.1 214.7 21.1 219.3 20.9 224 20.6 228.7 20.3 233.3 20.1 238 20 242.7 19.8 247.3 19.3 252 19.4 256.7 19.3 261.3 19.2 266 19.1 270.7 18.9 275.3 18.5 280 18.5 284.7 18.5 289.3 18.8 294 18.7 298.7 18.8 303.3 18.5 308 18.8 312.7 18.6 317.3 18.8 322 18.9 326.7 18.8 331.3 18.9 336 19 340.7 18.7 345.3 19 350 19 354.7 18.8 359.3 18.9 364 19.1 368.7 18.9 373.3 19.1 378 19.1 382.7 18.7 387.3 18.8 392 18.9 396.7 19.2 401.3 18.9 406 19 410.7 19.5 415.3 19 420 19.2 424.7 19.5 429.3 19.1 434 19.3 438.7 19.5 443.3 19.3 448 19.3 452.7 19.5 457.3 19.7 462 19.7 466.7 19.2 471.3 19.3 476 19.5 480.7 19.3 485.3 19.2 490 19.5 494.7 19.3 499.3 19.4 504 19.3 508.7 19.2 513.3 19.7 518 19.2 522.7 19.6 527.3 19.3 532 19.4 536.7 19.2 541.3 19.3 546 19.2 550.7 19.4 555.3 19.5 560 19.5" transform="matrix(1,0,0,-1,82.8,592.5)" fill="none" stroke="#71708A"></polyline>
</g>
<g clip-path="url(#zr0-c3)">
<polyline points="0 19.1 4.7 19.4 9.3 19.1 14 19.6 18.7 19.1 23.3 19.5 28 19.1 32.7 19.1 37.3 19.1 42 14.2 46.7 12.4 51.3 12.2 56 13.9 60.7 11.8 65.3 8.2 70 5.6 74.7 6.9 79.3 10.1 84 12 88.7 12.1 93.3 13.8 98 15.2 102.7 16.9 107.3 18.2 112 18.1 116.7 20.5 121.3 21 126 21.7 130.7 22.5 135.3 23.3 140 23.5 144.7 23.9 149.3 24.1 154 24.4 158.7 24.2 163.3 23.9 168 24 172.7 23.7 177.3 23.4 182 23.5 186.7 23.1 191.3 22.3 196 22.4 200.7 21.9 205.3 21.9 210 21.1 214.7 21.1 219.3 20.9 224 20.6 228.7 20.3 233.3 20.1 238 20 242.7 19.8 247.3 19.3 252 19.4 256.7 19.3 261.3 19.2 266 19.1 270.7 18.9 275.3 18.5 280 18.5 284.7 18.5 289.3 18.8 294 18.7 298.7 18.8 303.3 18.5 308 18.8 312.7 18.6 317.3 18.8 322 18.9 326.7 18.8 331.3 18.9 336 19 340.7 18.7 345.3 19 350 19 354.7 18.8 359.3 18.9 364 19.1 368.7 18.9 373.3 19.1 378 19.1 382.7 18.7 387.3 18.8 392 18.9 396.7 19.2 401.3 18.9 406 19 410.7 19.5 415.3 19 420 19.2 424.7 19.5 429.3 19.1 434 19.3 438.7 19.5 443.3 19.3 448 19.3 452.7 19.5 457.3 19.7 462 19.7 466.7 19.2 471.3 19.3 476 19.5 480.7 19.3 485.3 19.2 490 19.5 494.7 19.3 499.3 19.4 504 19.3 508.7 19.2 513.3 19.7 518 19.2 522.7 19.6 527.3 19.3 532 19.4 536.7 19.2 541.3 19.3 546 19.2 550.7 19.4 555.3 19.5 560 19.5" transform="matrix(1,0,0,-1,82.8,592.5)" fill="none" stroke="#87A3CE" stroke-width="0.5"></polyline>
</g>
<g clip-path="url(#zr0-c4)">
<polyline points="0 19.1 4.7 19.4 9.3 19.1 14 19.6 18.7 19.1 23.3 19.5 28 19.1 32.7 19.1 37.3 19.1 42 14.2 46.7 12.4 51.3 12.2 56 13.9 60.7 11.8 65.3 8.2 70 5.6 74.7 6.9 79.3 10.1 84 12 88.7 12.1 93.3 13.8 98 15.2 102.7 16.9 107.3 18.2 112 18.1 116.7 20.5 121.3 21 126 21.7 130.7 22.5 135.3 23.3 140 23.5 144.7 23.9 149.3 24.1 154 24.4 158.7 24.2 163.3 23.9 168 24 172.7 23.7 177.3 23.4 182 23.5 186.7 23.1 191.3 22.3 196 22.4 200.7 21.9 205.3 21.9 210 21.1 214.7 21.1 219.3 20.9 224 20.6 228.7 20.3 233.3 20.1 238 20 242.7 19.8 247.3 19.3 252 19.4 256.7 19.3 261.3 19.2 266 19.1 270.7 18.9 275.3 18.5 280 18.5 284.7 18.5 289.3 18.8 294 18.7 298.7 18.8 303.3 18.5 308 18.8 312.7 18.6 317.3 18.8 322 18.9 326.7 18.8 331.3 18.9 336 19 340.7 18.7 345.3 19 350 19 354.7 18.8 359.3 18.9 364 19.1 368.7 18.9 373.3 19.1 378 19.1 382.7 18.7 387.3 18.8 392 18.9 396.7 19.2 401.3 18.9 406 19 410.7 19.5 415.3 19 420 19.2 424.7 19.5 429.3 19.1 434 19.3 438.7 19.5 443.3 19.3 448 19.3 452.7 19.5 457.3 19.7 462 19.7 466.7 19.2 471.3 19.3 476 19.5 480.7 19.3 485.3 19.2 490 19.5 494.7 19.3 499.3 19.4 504 19.3 508.7 19.2 513.3 19.7 518 19.2 522.7 19.6 527.3 19.3 532 19.4 536.7 19.2 541.3 19.3 546 19.2 550.7 19.4 555.3 19.5 560 19.5" transform="matrix(1,0,0,-1,82.8,592.5)" fill="none" stroke="#71708A"></polyline>
</g>
<path d="M-5 -5l691.0547 0l0 22l-691.0547 0Z" transform="translate(59.4727 5)" fill="rgb(0,0,0)" fill-opacity="0" stroke="#ccc" stroke-width="0"></path>
<path d="M0 7L25 7" transform="translate(60.4727 4)" fill="#000" stroke="#ccc" stroke-width="2" stroke-linecap="butt" stroke-miterlimit="10"></path>
<path d="M12.5 1.4L18.1 12.6L6.9 12.6Z" transform="translate(60.4727 4)" fill="#ccc" stroke="#ccc" stroke-width="0" stroke-linecap="butt" stroke-miterlimit="10"></path>
<text dominant-baseline="central" text-anchor="start" style="font-size:12px;font-family:Microsoft YaHei;" x="30" y="7" transform="translate(60.4727 4)" fill="#ccc">Pipe_Pres</text>
<path d="M0 7L25 7" transform="translate(156.1465 4)" fill="#000" stroke="#ccc" stroke-width="2" stroke-linecap="butt" stroke-miterlimit="10"></path>
<path d="M18.1 7A5.6 5.6 0 1 1 18.1 6.9994" transform="translate(156.1465 4)" fill="#ccc" stroke="#ccc" stroke-width="0" stroke-linecap="butt" stroke-miterlimit="10"></path>
<text dominant-baseline="central" text-anchor="start" style="font-size:12px;font-family:Microsoft YaHei;" x="30" y="7" transform="translate(156.1465 4)" fill="#ccc">Ambient_Pres</text>
<path d="M0 7L25 7" transform="translate(276.0313 4)" fill="#000" stroke="#ccc" stroke-width="2" stroke-linecap="butt" stroke-miterlimit="10"></path>
<path d="M12.5 1.4L18.1 12.6L6.9 12.6Z" transform="translate(276.0313 4)" fill="#ccc" stroke="#ccc" stroke-width="0" stroke-linecap="butt" stroke-miterlimit="10"></path>
<text dominant-baseline="central" text-anchor="start" style="font-size:12px;font-family:Microsoft YaHei;" x="30" y="7" transform="translate(276.0313 4)" fill="#ccc">Pipe_Temp</text>
<path d="M0 7L25 7" transform="translate(380.0137 4)" fill="#000" stroke="#ccc" stroke-width="2" stroke-linecap="butt" stroke-miterlimit="10"></path>
<path d="M18.1 7A5.6 5.6 0 1 1 18.1 6.9994" transform="translate(380.0137 4)" fill="#ccc" stroke="#ccc" stroke-width="0" stroke-linecap="butt" stroke-miterlimit="10"></path>
<text dominant-baseline="central" text-anchor="start" style="font-size:12px;font-family:Microsoft YaHei;" x="30" y="7" transform="translate(380.0137 4)" fill="#ccc">Chip_Temp</text>
<path d="M0 7L25 7" transform="translate(485.2617 4)" fill="#000" stroke="#f7f494" stroke-width="2" stroke-linecap="butt" stroke-miterlimit="10"></path>
<path d="M18.1 7A5.6 5.6 0 1 1 18.1 6.9994" transform="translate(485.2617 4)" fill="#f7f494"></path>
<text dominant-baseline="central" text-anchor="start" style="font-size:12px;font-family:Microsoft YaHei;" x="30" y="7" transform="translate(485.2617 4)" fill="#B9B8CE">Set_nPressure</text>
<path d="M0 7L25 7" transform="translate(605.8672 4)" fill="#000" stroke="#f7f494" stroke-width="2" stroke-linecap="butt" stroke-miterlimit="10"></path>
<path d="M12.5 1.4L18.1 12.6L6.9 12.6Z" transform="translate(605.8672 4)" fill="#f7f494"></path>
<text dominant-baseline="central" text-anchor="start" style="font-size:12px;font-family:Microsoft YaHei;" x="30" y="7" transform="translate(605.8672 4)" fill="#B9B8CE">Current_nPressure</text>
<path d="M0 0l560 0l0 30l-560 0Z" transform="matrix(1,0,0,-1,82.8,592.5)" fill="none"></path>
<path d="M0 0l560 0l0 30l-560 0Z" transform="matrix(1,0,0,-1,82.8,592.5)" fill="rgb(135,163,206)" fill-opacity="0.2"></path>
<path d="M3.5 0.5L556.5 0.5A3 3 0 0 1 559.5 3.5L559.5 26.5A3 3 0 0 1 556.5 29.5L3.5 29.5A3 3 0 0 1 0.5 26.5L0.5 3.5A3 3 0 0 1 3.5 0.5" transform="matrix(1,0,0,-1,82.8,592.5)" fill="rgb(0,0,0)" fill-opacity="0" stroke="#71708A"></path>
<path d="M0 29.5L560 29.5L560 34.5A2 2 0 0 1 558 36.5L2 36.5A2 2 0 0 1 0 34.5L0 29.5" transform="matrix(1,0,0,-1,82.8,592.5)" fill="#B0B6C3" fill-opacity="0.3"></path>
<path d="M-2.2408 -1.6796C-1.8674 -1.6796 -1.6817 -1.4939 -1.6817 -1.1204L-1.6817 1.1204C-1.6817 1.4939 -1.8674 1.6796 -2.2408 1.6796C-2.6143 1.6796 -2.8 1.4939 -2.8 1.1204L-2.8 -1.1204C-2.8 -1.4939 -2.6143 -1.6796 -2.2408 -1.6796ZM0 -1.6796C0.3735 -1.6796 0.5592 -1.4939 0.5592 -1.1204L0.5592 1.1204C0.5592 1.4939 0.3735 1.6796 0 1.6796C-0.3735 1.6796 -0.5592 1.4939 -0.5592 1.1204L-0.5592 -1.1204C-0.5592 -1.4939 -0.3735 -1.6796 0 -1.6796ZM2.2408 -1.6796C2.6143 -1.6796 2.8 -1.4939 2.8 -1.1204L2.8 1.1204C2.8 1.4939 2.6143 1.6796 2.2408 1.6796C1.8674 1.6796 1.6817 1.4939 1.6817 1.1204L1.6817 -1.1204C1.6796 -1.4939 1.8674 -1.6796 2.2408 -1.6796Z" transform="matrix(1,0,0,-1,362.8,559.5)" fill="#fff"></path>
<path d="M0 1.628L0 2M0 0L0 0.375M-0.1 0.375L0.1 0.375A0.1 0.1 0 0 1 0.2 0.475L0.2 1.525A0.1 0.1 0 0 1 0.1 1.625L-0.1 1.625A0.1 0.1 0 0 1 -0.2 1.525L-0.2 0.475A0.1 0.1 0 0 1 -0.1 0.375Z" transform="matrix(15,0,0,-15,83.8,592.5)" fill="#353450" stroke="#C5CBE3" stroke-width="0.06666666666666667"></path>
<path d="M0 1.628L0 2M0 0L0 0.375M-0.1 0.375L0.1 0.375A0.1 0.1 0 0 1 0.2 0.475L0.2 1.525A0.1 0.1 0 0 1 0.1 1.625L-0.1 1.625A0.1 0.1 0 0 1 -0.2 1.525L-0.2 0.475A0.1 0.1 0 0 1 -0.1 0.375Z" transform="matrix(15,0,0,-15,641.8,592.5)" fill="#353450" stroke="#C5CBE3" stroke-width="0.06666666666666667"></path>
<defs >
<clipPath id="zr0-c0">
<path d="M79 59l562 0l0 472l-562 0Z" fill="#000"></path>
</clipPath>
<clipPath id="zr0-c1">
<path d="M79 59l562 0l0 472l-562 0Z" fill="#000"></path>
</clipPath>
<clipPath id="zr0-c2">
<path d="M0 0l0 0l0 30l0 0Z" transform="matrix(1,0,0,-1,82.8,592.5)" fill="#000"></path>
</clipPath>
<clipPath id="zr0-c3">
<path d="M0 0l560 0l0 30l-560 0Z" transform="matrix(1,0,0,-1,82.8,592.5)" fill="#000"></path>
</clipPath>
<clipPath id="zr0-c4">
<path d="M560 0l0 0l0 30l0 0Z" transform="matrix(1,0,0,-1,82.8,592.5)" fill="#000"></path>
</clipPath>
</defs>
</svg>