<svg width="800" height="600" xmlns="http://www.w3.org/2000/svg" xmlns:xlink="http://www.w3.org/1999/xlink" version="1.1" baseProfile="full" viewBox="0 0 800 600">
<rect width="800" height="600" x="0" y="0" id="0" fill="rgb(40, 44, 52)" fill-opacity="1"></rect>
<path d="M80 530.5L640 530.5" fill="none" stroke="#484753"></path>
<path d="M80 451.5L640 451.5" fill="none" stroke="#484753"></path>
<path d="M80 373.5L640 373.5" fill="none" stroke="#484753"></path>
<path d="M80 295.5L640 295.5" fill="none" stroke="#484753"></path>
<path d="M80 216.5L640 216.5" fill="none" stroke="#484753"></path>
<path d="M80 138.5L640 138.5" fill="none" stroke="#484753"></path>
<path d="M80 60.5L640 60.5" fill="none" stroke="#484753"></path>
<path d="M80.5 530L80.5 60" fill="none" stroke="#ACDFED" stroke-linecap="round"></path>
<text dominant-baseline="central" text-anchor="middle" style="font-size:12px;font-family:Microsoft YaHei;" y="-6" transform="translate(80 45)" fill="#B9B8CE">压力</text>
<path d="M640.5 530L640.5 60" fill="none" stroke="#FFAB91" stroke-linecap="round"></path>
<text dominant-baseline="central" text-anchor="middle" style="font-size:12px;font-family:Microsoft YaHei;" y="-6" transform="translate(640 45)" fill="#B9B8CE">温度</text>
<path d="M720.5 530L720.5 60" fill="none" stroke="#f7f494" stroke-linecap="round"></path>
<text dominant-baseline="central" text-anchor="middle" style="font-size:12px;font-family:Microsoft YaHei;" y="-6" transform="translate(720 45)" fill="#B9B8CE">负压</text>
<path d="M80 530.5L640 530.5" fill="none" stroke="#B9B8CE" stroke-linecap="round"></path>
<path d="M82.5 530L82.5 535" fill="none" stroke="#B9B8CE"></path>
<path d="M147.5 530L147.5 535" fill="none" stroke="#B9B8CE"></path>
<path d="M212.5 530L212.5 535" fill="none" stroke="#B9B8CE"></path>
<path d="M276.5 530L276.5 535" fill="none" stroke="#B9B8CE"></path>
<path d="M341.5 530L341.5 535" fill="none" stroke="#B9B8CE"></path>
<path d="M406.5 530L406.5 535" fill="none" stroke="#B9B8CE"></path>
<path d="M471.5 530L471.5 535" fill="none" stroke="#B9B8CE"></path>
<path d="M536.5 530L536.5 535" fill="none" stroke="#B9B8CE"></path>
<path d="M600.5 530L600.5 535" fill="none" stroke="#B9B8CE"></path>
<text dominant-baseline="central" text-anchor="start" style="font-size:12px;font-family:Microsoft YaHei;" xml:space="preserve" transform="translate(728 530)" fill="#B9B8CE">0 hPa</text>
<text dominant-baseline="central" text-anchor="start" style="font-size:12px;font-family:Microsoft YaHei;" xml:space="preserve" transform="translate(728 451.6667)" fill="#B9B8CE">20 hPa</text>
<text dominant-baseline="central" text-anchor="start" style="font-size:12px;font-family:Microsoft YaHei;" xml:space="preserve" transform="translate(728 373.3333)" fill="#B9B8CE">40 hPa</text>
<text dominant-baseline="central" text-anchor="start" style="font-size:12px;font-family:Microsoft YaHei;" xml:space="preserve" transform="translate(728 295)" fill="#B9B8CE">60 hPa</text>
<text dominant-baseline="central" text-anchor="start" style="font-size:12px;font-family:Microsoft YaHei;" xml:space="preserve" transform="translate(728 216.6667)" fill="#B9B8CE">80 hPa</text>
<text dominant-baseline="central" text-anchor="start" style="font-size:12px;font-family:Microsoft YaHei;" xml:space="preserve" transform="translate(728 138.3333)" fill="#B9B8CE">100 hPa</text>
<text dominant-baseline="central" text-anchor="start" style="font-size:12px;font-family:Microsoft YaHei;" xml:space="preserve" transform="translate(728 60)" fill="#B9B8CE">120 hPa</text>
<text dominant-baseline="central" text-anchor="middle" style="font-size:12px;font-family:Microsoft YaHei;" y="6" transform="translate(82.314 538)" fill="#B9B8CE">12:53:14</text>
<text dominant-baseline="central" text-anchor="middle" style="font-size:12px;font-family:Microsoft YaHei;" y="6" transform="translate(147.1074 538)" fill="#B9B8CE">12:53:28</text>
<text dominant-baseline="central" text-anchor="middle" style="font-size:12px;font-family:Microsoft YaHei;" y="6" transform="translate(211.9008 538)" fill="#B9B8CE">12:53:42</text>
<text dominant-baseline="central" text-anchor="middle" style="font-size:12px;font-family:Microsoft YaHei;" y="6" transform="translate(276.6942 538)" fill="#B9B8CE">12:53:56</text>
<text dominant-baseline="central" text-anchor="middle" style="font-size:12px;font-family:Microsoft YaHei;" y="6" transform="translate(341.4876 538)" fill="#B9B8CE">12:54:10</text>
<text dominant-baseline="central" text-anchor="middle" style="font-size:12px;font-family:Microsoft YaHei;" y="6" transform="translate(406.281 538)" fill="#B9B8CE">12:54:24</text>
<text dominant-baseline="central" text-anchor="middle" style="font-size:12px;font-family:Microsoft YaHei;" y="6" transform="translate(471.0744 538)" fill="#B9B8CE">12:54:38</text>
<text dominant-baseline="central" text-anchor="middle" style="font-size:12px;font-family:Microsoft YaHei;" y="6" transform="translate(535.8678 538)" fill="#B9B8CE">12:54:52</text>
<text dominant-baseline="central" text-anchor="middle" style="font-size:12px;font-family:Microsoft YaHei;" y="6" transform="translate(600.6612 538)" fill="#B9B8CE">12:55:06</text>
<g clip-path="url(#zr0-c0)">
<path d="M82.3 134.8L86.9 141.5L91.6 131.7L96.2 134.4L100.8 135.2L105.5 143.4L110.1 135.6L114.7 134.4L119.3 144.2L124 136L128.6 143.4L133.2 135.2L137.9 131.7L142.5 131.7L147.1 143.8L151.7 143L156.4 132.1L161 132.5L165.6 143.4L170.2 142.6L174.9 135.6L179.5 142.6L184.1 130.1L188.8 141.9L193.4 137.9L198 136.4L202.6 135.6L207.3 142.6L211.9 136.4L216.5 141.5L221.2 145.4L225.8 134.4L230.4 132.1L235 138.7L239.7 136.8L244.3 132.1L248.9 143.4L253.6 135.6L258.2 135.6L262.8 134.4L267.4 145L272.1 143.4L276.7 134.8L281.3 131.3L286 136L290.6 134.4L295.2 144.2L299.8 140.7L304.5 136.4L309.1 139.1L313.7 143.4L318.3 141.1L323 144.6L327.6 140.3L332.2 149.7L336.9 243.7L341.5 332.6L346.1 289.1L350.7 256.6L355.4 235.9L360 204.5L364.6 190.8L369.3 179.1L373.9 157.5L378.5 142.3L383.1 132.5L387.8 124.2L392.4 122.3L397 107.8L401.7 105.4L406.3 103.5L410.9 98.4L415.5 94.9L420.2 90.6L424.8 92.5L429.4 94.5L434 102.7L438.7 92.1L443.3 92.1L447.9 95.6L452.6 106.6L457.2 103.9L461.8 105.4L466.4 108.6L471.1 118.8L475.7 120.3L480.3 114.1L485 122.3L489.6 126.2L494.2 122.3L498.8 127L503.5 124.6L508.1 128.1L512.7 137.9L517.4 131.3L522 139.1L526.6 139.9L531.2 133.6L535.9 136.4L540.5 137.6L545.1 142.3L549.8 146.9L554.4 139.1L559 137.9L563.6 149.7L568.3 145L572.9 142.6L577.5 140.3L582.1 140.3L586.8 140.7L591.4 142.6L596 141.9L600.7 143L605.3 141.5L609.9 143.4L614.5 138.3L619.2 147.7L623.8 139.5L628.4 145.8L633.1 138.7L637.7 145.8" fill="none" stroke="#f7f494" stroke-width="2" stroke-linejoin="bevel"></path>
</g>
<g clip-path="url(#zr0-c1)">
<path d="M82.314 138.3333L86.9421 138.3333L91.5703 138.3333L96.1983 138.3333L100.8264 138.3333L105.4545 138.3333L110.0826 138.3333L114.7107 138.3333L119.3388 138.3333L123.9669 138.3333L128.595 138.3333L133.2231 138.3333L137.8512 138.3333L142.4793 138.3333L147.1074 138.3333L151.7355 138.3333L156.3636 138.3333L160.9917 138.3333L165.6198 138.3333L170.2479 138.3333L174.876 138.3333L179.5041 138.3333L184.1322 138.3333L188.7603 138.3333L193.3884 138.3333L198.0165 138.3333L202.6446 138.3333L207.2727 138.3333L211.9008 138.3333L216.5289 138.3333L221.157 138.3333L225.7851 138.3333L230.4132 138.3333L235.0413 138.3333L239.6694 138.3333L244.2975 138.3333L248.9256 138.3333L253.5537 138.3333L258.1818 138.3333L262.8099 138.3333L267.438 138.3333L272.0661 138.3333L276.6942 138.3333L281.3223 138.3333L285.9504 138.3333L290.5785 138.3333L295.2066 138.3333L299.8347 138.3333L304.4628 138.3333L309.0909 138.3333L313.719 138.3333L318.3471 138.3333L322.9752 138.3333L327.6033 138.3333L332.2314 138.3333L336.8595 138.3333L341.4876 138.3333L346.1157 138.3333L350.7438 138.3333L355.3719 138.3333L360 138.3333L364.6281 138.3333L369.2562 138.3333L373.8843 138.3333L378.5124 138.3333L383.1405 138.3333L387.7686 138.3333L392.3967 138.3333L397.0248 138.3333L401.6529 138.3333L406.281 138.3333L410.9091 138.3333L415.5372 138.3333L420.1653 138.3333L424.7934 138.3333L429.4215 138.3333L434.0496 138.3333L438.6777 138.3333L443.3058 138.3333L447.9339 138.3333L452.562 138.3333L457.1901 138.3333L461.8182 138.3333L466.4463 138.3333L471.0744 138.3333L475.7025 138.3333L480.3306 138.3333L484.9587 138.3333L489.5868 138.3333L494.2149 138.3333L498.843 138.3333L503.4711 138.3333L508.0992 138.3333L512.7273 138.3333L517.3553 138.3333L521.9835 138.3333L526.6116 138.3333L531.2397 138.3333L535.8678 138.3333L540.4958 138.3333L545.124 138.3333L549.7521 138.3333L554.3802 138.3333L559.0082 138.3333L563.6364 138.3333L568.2645 138.3333L572.8926 138.3333L577.5207 138.3333L582.1487 138.3333L586.7769 138.3333L591.405 138.3333L596.0331 138.3333L600.6611 138.3333L605.2892 138.3333L609.9174 138.3333L614.5455 138.3333L619.1736 138.3333L623.8016 138.3333L628.4297 138.3333L633.0579 138.3333L637.686 138.3333" fill="none" stroke="#f7f494" stroke-width="2" stroke-linejoin="bevel"></path>
</g>
<path d="M0 -1L1 1L-1 1Z" transform="matrix(5,0,0,5,82.314,134.8083)" fill="#f7f494"></path>
<path d="M0 -1L1 1L-1 1Z" transform="matrix(5,0,0,5,147.1074,143.8167)" fill="#f7f494"></path>
<path d="M0 -1L1 1L-1 1Z" transform="matrix(5,0,0,5,211.9008,136.375)" fill="#f7f494"></path>
<path d="M0 -1L1 1L-1 1Z" transform="matrix(5,0,0,5,276.6942,134.8083)" fill="#f7f494"></path>
<path d="M0 -1L1 1L-1 1Z" transform="matrix(5,0,0,5,341.4876,332.6)" fill="#f7f494"></path>
<path d="M0 -1L1 1L-1 1Z" transform="matrix(5,0,0,5,406.281,103.475)" fill="#f7f494"></path>
<path d="M0 -1L1 1L-1 1Z" transform="matrix(5,0,0,5,471.0744,118.75)" fill="#f7f494"></path>
<path d="M0 -1L1 1L-1 1Z" transform="matrix(5,0,0,5,535.8678,136.375)" fill="#f7f494"></path>
<path d="M0 -1L1 1L-1 1Z" transform="matrix(5,0,0,5,600.6611,143.0333)" fill="#f7f494"></path>
<path d="M1 0A1 1 0 1 1 1 -0.0001" transform="matrix(5,0,0,5,82.314,138.3333)" fill="#f7f494"></path>
<path d="M1 0A1 1 0 1 1 1 -0.0001" transform="matrix(5,0,0,5,147.1074,138.3333)" fill="#f7f494"></path>
<path d="M1 0A1 1 0 1 1 1 -0.0001" transform="matrix(5,0,0,5,211.9008,138.3333)" fill="#f7f494"></path>
<path d="M1 0A1 1 0 1 1 1 -0.0001" transform="matrix(5,0,0,5,276.6942,138.3333)" fill="#f7f494"></path>
<path d="M1 0A1 1 0 1 1 1 -0.0001" transform="matrix(5,0,0,5,341.4876,138.3333)" fill="#f7f494"></path>
<path d="M1 0A1 1 0 1 1 1 -0.0001" transform="matrix(5,0,0,5,406.281,138.3333)" fill="#f7f494"></path>
<path d="M1 0A1 1 0 1 1 1 -0.0001" transform="matrix(5,0,0,5,471.0744,138.3333)" fill="#f7f494"></path>
<path d="M1 0A1 1 0 1 1 1 -0.0001" transform="matrix(5,0,0,5,535.8678,138.3333)" fill="#f7f494"></path>
<path d="M1 0A1 1 0 1 1 1 -0.0001" transform="matrix(5,0,0,5,600.6611,138.3333)" fill="#f7f494"></path>
<path d="M0 0l560 0l0 30l-560 0Z" transform="matrix(1,0,0,-1,82.8,592.5)" fill="rgb(47,69,84)" fill-opacity="0"></path>
<g clip-path="url(#zr0-c2)">
<polygon points="560 0 0 0 0 20.9 4.7 20.4 9.3 21.2 14 21 18.7 20.9 23.3 20.3 28 20.9 32.7 21 37.3 20.2 42 20.9 46.7 20.3 51.3 20.9 56 21.2 60.7 21.2 65.3 20.2 70 20.3 74.7 21.2 79.3 21.1 84 20.3 88.7 20.3 93.3 20.9 98 20.3 102.7 21.3 107.3 20.4 112 20.7 116.7 20.8 121.3 20.9 126 20.3 130.7 20.8 135.3 20.4 140 20.1 144.7 21 149.3 21.2 154 20.6 158.7 20.8 163.3 21.2 168 20.3 172.7 20.9 177.3 20.9 182 21 186.7 20.2 191.3 20.3 196 20.9 200.7 21.2 205.3 20.9 210 21 214.7 20.2 219.3 20.5 224 20.8 228.7 20.6 233.3 20.3 238 20.5 242.7 20.2 247.3 20.5 252 19.8 256.7 12.5 261.3 5.6 266 9 270.7 11.5 275.3 13.1 280 15.5 284.7 16.6 289.3 17.5 294 19.2 298.7 20.4 303.3 21.1 308 21.8 312.7 21.9 317.3 23 322 23.2 326.7 23.4 331.3 23.8 336 24 340.7 24.4 345.3 24.2 350 24.1 354.7 23.4 359.3 24.3 364 24.3 368.7 24 373.3 23.1 378 23.3 382.7 23.2 387.3 23 392 22.2 396.7 22.1 401.3 22.6 406 21.9 410.7 21.6 415.3 21.9 420 21.6 424.7 21.7 429.3 21.5 434 20.7 438.7 21.2 443.3 20.6 448 20.6 452.7 21 457.3 20.8 462 20.7 466.7 20.4 471.3 20 476 20.6 480.7 20.7 485.3 19.8 490 20.2 494.7 20.3 499.3 20.5 504 20.5 508.7 20.5 513.3 20.3 518 20.4 522.7 20.3 527.3 20.4 532 20.3 536.7 20.7 541.3 19.9 546 20.6 550.7 20.1 555.3 20.6 560 20.1" transform="matrix(1,0,0,-1,82.8,592.5)" fill="#71708A" fill-opacity="0.2"></polygon>
</g>
<g clip-path="url(#zr0-c3)">
<polygon points="560 0 0 0 0 20.9 4.7 20.4 9.3 21.2 14 21 18.7 20.9 23.3 20.3 28 20.9 32.7 21 37.3 20.2 42 20.9 46.7 20.3 51.3 20.9 56 21.2 60.7 21.2 65.3 20.2 70 20.3 74.7 21.2 79.3 21.1 84 20.3 88.7 20.3 93.3 20.9 98 20.3 102.7 21.3 107.3 20.4 112 20.7 116.7 20.8 121.3 20.9 126 20.3 130.7 20.8 135.3 20.4 140 20.1 144.7 21 149.3 21.2 154 20.6 158.7 20.8 163.3 21.2 168 20.3 172.7 20.9 177.3 20.9 182 21 186.7 20.2 191.3 20.3 196 20.9 200.7 21.2 205.3 20.9 210 21 214.7 20.2 219.3 20.5 224 20.8 228.7 20.6 233.3 20.3 238 20.5 242.7 20.2 247.3 20.5 252 19.8 256.7 12.5 261.3 5.6 266 9 270.7 11.5 275.3 13.1 280 15.5 284.7 16.6 289.3 17.5 294 19.2 298.7 20.4 303.3 21.1 308 21.8 312.7 21.9 317.3 23 322 23.2 326.7 23.4 331.3 23.8 336 24 340.7 24.4 345.3 24.2 350 24.1 354.7 23.4 359.3 24.3 364 24.3 368.7 24 373.3 23.1 378 23.3 382.7 23.2 387.3 23 392 22.2 396.7 22.1 401.3 22.6 406 21.9 410.7 21.6 415.3 21.9 420 21.6 424.7 21.7 429.3 21.5 434 20.7 438.7 21.2 443.3 20.6 448 20.6 452.7 21 457.3 20.8 462 20.7 466.7 20.4 471.3 20 476 20.6 480.7 20.7 485.3 19.8 490 20.2 494.7 20.3 499.3 20.5 504 20.5 508.7 20.5 513.3 20.3 518 20.4 522.7 20.3 527.3 20.4 532 20.3 536.7 20.7 541.3 19.9 546 20.6 550.7 20.1 555.3 20.6 560 20.1" transform="matrix(1,0,0,-1,82.8,592.5)" fill="#87A3CE" fill-opacity="0.2"></polygon>
</g>
<g clip-path="url(#zr0-c4)">
<polygon points="560 0 0 0 0 20.9 4.7 20.4 9.3 21.2 14 21 18.7 20.9 23.3 20.3 28 20.9 32.7 21 37.3 20.2 42 20.9 46.7 20.3 51.3 20.9 56 21.2 60.7 21.2 65.3 20.2 70 20.3 74.7 21.2 79.3 21.1 84 20.3 88.7 20.3 93.3 20.9 98 20.3 102.7 21.3 107.3 20.4 112 20.7 116.7 20.8 121.3 20.9 126 20.3 130.7 20.8 135.3 20.4 140 20.1 144.7 21 149.3 21.2 154 20.6 158.7 20.8 163.3 21.2 168 20.3 172.7 20.9 177.3 20.9 182 21 186.7 20.2 191.3 20.3 196 20.9 200.7 21.2 205.3 20.9 210 21 214.7 20.2 219.3 20.5 224 20.8 228.7 20.6 233.3 20.3 238 20.5 242.7 20.2 247.3 20.5 252 19.8 256.7 12.5 261.3 5.6 266 9 270.7 11.5 275.3 13.1 280 15.5 284.7 16.6 289.3 17.5 294 19.2 298.7 20.4 303.3 21.1 308 21.8 312.7 21.9 317.3 23 322 23.2 326.7 23.4 331.3 23.8 336 24 340.7 24.4 345.3 24.2 350 24.1 354.7 23.4 359.3 24.3 364 24.3 368.7 24 373.3 23.1 378 23.3 382.7 23.2 387.3 23 392 22.2 396.7 22.1 401.3 22.6 406 21.9 410.7 21.6 415.3 21.9 420 21.6 424.7 21.7 429.3 21.5 434 20.7 438.7 21.2 443.3 20.6 448 20.6 452.7 21 457.3 20.8 462 20.7 466.7 20.4 471.3 20 476 20.6 480.7 20.7 485.3 19.8 490 20.2 494.7 20.3 499.3 20.5 504 20.5 508.7 20.5 513.3 20.3 518 20.4 522.7 20.3 527.3 20.4 532 20.3 536.7 20.7 541.3 19.9 546 20.6 550.7 20.1 555.3 20.6 560 20.1" transform="matrix(1,0,0,-1,82.8,592.5)" fill="#71708A" fill-opacity="0.2"></polygon>
</g>
<g clip-path="url(#zr0-c2)">
<polyline points="0 20.9 4.7 20.4 9.3 21.2 14 21 18.7 20.9 23.3 20.3 28 20.9 32.7 21 37.3 20.2 42 20.9 46.7 20.3 51.3 20.9 56 21.2 60.7 21.2 65.3 20.2 70 20.3 74.7 21.2 79.3 21.1 84 20.3 88.7 20.3 93.3 20.9 98 20.3 102.7 21.3 107.3 20.4 112 20.7 116.7 20.8 121.3 20.9 126 20.3 130.7 20.8 135.3 20.4 140 20.1 144.7 21 149.3 21.2 154 20.6 158.7 20.8 163.3 21.2 168 20.3 172.7 20.9 177.3 20.9 182 21 186.7 20.2 191.3 20.3 196 20.9 200.7 21.2 205.3 20.9 210 21 214.7 20.2 219.3 20.5 224 20.8 228.7 20.6 233.3 20.3 238 20.5 242.7 20.2 247.3 20.5 252 19.8 256.7 12.5 261.3 5.6 266 9 270.7 11.5 275.3 13.1 280 15.5 284.7 16.6 289.3 17.5 294 19.2 298.7 20.4 303.3 21.1 308 21.8 312.7 21.9 317.3 23 322 23.2 326.7 23.4 331.3 23.8 336 24 340.7 24.4 345.3 24.2 350 24.1 354.7 23.4 359.3 24.3 364 24.3 368.7 24 373.3 23.1 378 23.3 382.7 23.2 387.3 23 392 22.2 396.7 22.1 401.3 22.6 406 21.9 410.7 21.6 415.3 21.9 420 21.6 424.7 21.7 429.3 21.5 434 20.7 438.7 21.2 443.3 20.6 448 20.6 452.7 21 457.3 20.8 462 20.7 466.7 20.4 471.3 20 476 20.6 480.7 20.7 485.3 19.8 490 20.2 494.7 20.3 499.3 20.5 504 20.5 508.7 20.5 513.3 20.3 518 20.4 522.7 20.3 527.3 20.4 532 20.3 536.7 20.7 541.3 19.9 546 20.6 550.7 20.1 555.3 20.6 560 20.1" transform="matrix(1,0,0,-1,82.8,592.5)" fill="none" stroke="#71708A"></polyline>
</g>
<g clip-path="url(#zr0-c3)">
<polyline points="0 20.9 4.7 20.4 9.3 21.2 14 21 18.7 20.9 23.3 20.3 28 20.9 32.7 21 37.3 20.2 42 20.9 46.7 20.3 51.3 20.9 56 21.2 60.7 21.2 65.3 20.2 70 20.3 74.7 21.2 79.3 21.1 84 20.3 88.7 20.3 93.3 20.9 98 20.3 102.7 21.3 107.3 20.4 112 20.7 116.7 20.8 121.3 20.9 126 20.3 130.7 20.8 135.3 20.4 140 20.1 144.7 21 149.3 21.2 154 20.6 158.7 20.8 163.3 21.2 168 20.3 172.7 20.9 177.3 20.9 182 21 186.7 20.2 191.3 20.3 196 20.9 200.7 21.2 205.3 20.9 210 21 214.7 20.2 219.3 20.5 224 20.8 228.7 20.6 233.3 20.3 238 20.5 242.7 20.2 247.3 20.5 252 19.8 256.7 12.5 261.3 5.6 266 9 270.7 11.5 275.3 13.1 280 15.5 284.7 16.6 289.3 17.5 294 19.2 298.7 20.4 303.3 21.1 308 21.8 312.7 21.9 317.3 23 322 23.2 326.7 23.4 331.3 23.8 336 24 340.7 24.4 345.3 24.2 350 24.1 354.7 23.4 359.3 24.3 364 24.3 368.7 24 373.3 23.1 378 23.3 382.7 23.2 387.3 23 392 22.2 396.7 22.1 401.3 22.6 406 21.9 410.7 21.6 415.3 21.9 420 21.6 424.7 21.7 429.3 21.5 434 20.7 438.7 21.2 443.3 20.6 448 20.6 452.7 21 457.3 20.8 462 20.7 466.7 20.4 471.3 20 476 20.6 480.7 20.7 485.3 19.8 490 20.2 494.7 20.3 499.3 20.5 504 20.5 508.7 20.5 513.3 20.3 518 20.4 522.7 20.3 527.3 20.4 532 20.3 536.7 20.7 541.3 19.9 546 20.6 550.7 20.1 555.3 20.6 560 20.1" transform="matrix(1,0,0,-1,82.8,592.5)" fill="none" stroke="#87A3CE" stroke-width="0.5"></polyline>
</g>
<g clip-path="url(#zr0-c4)">
<polyline points="0 20.9 4.7 20.4 9.3 21.2 14 21 18.7 20.9 23.3 20.3 28 20.9 32.7 21 37.3 20.2 42 20.9 46.7 20.3 51.3 20.9 56 21.2 60.7 21.2 65.3 20.2 70 20.3 74.7 21.2 79.3 21.1 84 20.3 88.7 20.3 93.3 20.9 98 20.3 102.7 21.3 107.3 20.4 112 20.7 116.7 20.8 121.3 20.9 126 20.3 130.7 20.8 135.3 20.4 140 20.1 144.7 21 149.3 21.2 154 20.6 158.7 20.8 163.3 21.2 168 20.3 172.7 20.9 177.3 20.9 182 21 186.7 20.2 191.3 20.3 196 20.9 200.7 21.2 205.3 20.9 210 21 214.7 20.2 219.3 20.5 224 20.8 228.7 20.6 233.3 20.3 238 20.5 242.7 20.2 247.3 20.5 252 19.8 256.7 12.5 261.3 5.6 266 9 270.7 11.5 275.3 13.1 280 15.5 284.7 16.6 289.3 17.5 294 19.2 298.7 20.4 303.3 21.1 308 21.8 312.7 21.9 317.3 23 322 23.2 326.7 23.4 331.3 23.8 336 24 340.7 24.4 345.3 24.2 350 24.1 354.7 23.4 359.3 24.3 364 24.3 368.7 24 373.3 23.1 378 23.3 382.7 23.2 387.3 23 392 22.2 396.7 22.1 401.3 22.6 406 21.9 410.7 21.6 415.3 21.9 420 21.6 424.7 21.7 429.3 21.5 434 20.7 438.7 21.2 443.3 20.6 448 20.6 452.7 21 457.3 20.8 462 20.7 466.7 20.4 471.3 20 476 20.6 480.7 20.7 485.3 19.8 490 20.2 494.7 20.3 499.3 20.5 504 20.5 508.7 20.5 513.3 20.3 518 20.4 522.7 20.3 527.3 20.4 532 20.3 536.7 20.7 541.3 19.9 546 20.6 550.7 20.1 555.3 20.6 560 20.1" transform="matrix(1,0,0,-1,82.8,592.5)" fill="none" stroke="#71708A"></polyline>
</g>
<path d="M-5 -5l691.0547 0l0 22l-691.0547 0Z" transform="translate(59.4727 5)" fill="rgb(0,0,0)" fill-opacity="0" stroke="#ccc" stroke-width="0"></path>
<path d="M0 7L25 7" transform="translate(60.4727 4)" fill="#000" stroke="#ccc" stroke-width="2" stroke-linecap="butt" stroke-miterlimit="10"></path>
<path d="M12.5 1.4L18.1 12.6L6.9 12.6Z" transform="translate(60.4727 4)" fill="#ccc" stroke="#ccc" stroke-width="0" stroke-linecap="butt" stroke-miterlimit="10"></path>
<text dominant-baseline="central" text-anchor="start" style="font-size:12px;font-family:Microsoft YaHei;" x="30" y="7" transform="translate(60.4727 4)" fill="#ccc">Pipe_Pres</text>
<path d="M0 7L25 7" transform="translate(156.1465 4)" fill="#000" stroke="#ccc" stroke-width="2" stroke-linecap="butt" stroke-miterlimit="10"></path>
<path d="M18.1 7A5.6 5.6 0 1 1 18.1 6.9994" transform="translate(156.1465 4)" fill="#ccc" stroke="#ccc" stroke-width="0" stroke-linecap="butt" stroke-miterlimit="10"></path>
<text dominant-baseline="central" text-anchor="start" style="font-size:12px;font-family:Microsoft YaHei;" x="30" y="7" transform="translate(156.1465 4)" fill="#ccc">Ambient_Pres</text>
<path d="M0 7L25 7" transform="translate(276.0313 4)" fill="#000" stroke="#ccc" stroke-width="2" stroke-linecap="butt" stroke-miterlimit="10"></path>
<path d="M12.5 1.4L18.1 12.6L6.9 12.6Z" transform="translate(276.0313 4)" fill="#ccc" stroke="#ccc" stroke-width="0" stroke-linecap="butt" stroke-miterlimit="10"></path>
<text dominant-baseline="central" text-anchor="start" style="font-size:12px;font-family:Microsoft YaHei;" x="30" y="7" transform="translate(276.0313 4)" fill="#ccc">Pipe_Temp</text>
<path d="M0 7L25 7" transform="translate(380.0137 4)" fill="#000" stroke="#ccc" stroke-width="2" stroke-linecap="butt" stroke-miterlimit="10"></path>
<path d="M18.1 7A5.6 5.6 0 1 1 18.1 6.9994" transform="translate(380.0137 4)" fill="#ccc" stroke="#ccc" stroke-width="0" stroke-linecap="butt" stroke-miterlimit="10"></path>
<text dominant-baseline="central" text-anchor="start" style="font-size:12px;font-family:Microsoft YaHei;" x="30" y="7" transform="translate(380.0137 4)" fill="#ccc">Chip_Temp</text>
<path d="M0 7L25 7" transform="translate(485.2617 4)" fill="#000" stroke="#f7f494" stroke-width="2" stroke-linecap="butt" stroke-miterlimit="10"></path>
<path d="M18.1 7A5.6 5.6 0 1 1 18.1 6.9994" transform="translate(485.2617 4)" fill="#f7f494"></path>
<text dominant-baseline="central" text-anchor="start" style="font-size:12px;font-family:Microsoft YaHei;" x="30" y="7" transform="translate(485.2617 4)" fill="#B9B8CE">Set_nPressure</text>
<path d="M0 7L25 7" transform="translate(605.8672 4)" fill="#000" stroke="#f7f494" stroke-width="2" stroke-linecap="butt" stroke-miterlimit="10"></path>
<path d="M12.5 1.4L18.1 12.6L6.9 12.6Z" transform="translate(605.8672 4)" fill="#f7f494"></path>
<text dominant-baseline="central" text-anchor="start" style="font-size:12px;font-family:Microsoft YaHei;" x="30" y="7" transform="translate(605.8672 4)" fill="#B9B8CE">Current_nPressure</text>
<path d="M0 0l560 0l0 30l-560 0Z" transform="matrix(1,0,0,-1,82.8,592.5)" fill="none"></path>
<path d="M0 0l560 0l0 30l-560 0Z" transform="matrix(1,0,0,-1,82.8,592.5)" fill="rgb(135,163,206)" fill-opacity="0.2"></path>
<path d="M3.5 0.5L556.5 0.5A3 3 0 0 1 559.5 3.5L559.5 26.5A3 3 0 0 1 556.5 29.5L3.5 29.5A3 3 0 0 1 0.5 26.5L0.5 3.5A3 3 0 0 1 3.5 0.5" transform="matrix(1,0,0,-1,82.8,592.5)" fill="rgb(0,0,0)" fill-opacity="0" stroke="#71708A"></path>
<path d="M0 29.5L560 29.5L560 34.5A2 2 0 0 1 558 36.5L2 36.5A2 2 0 0 1 0 34.5L0 29.5" transform="matrix(1,0,0,-1,82.8,592.5)" fill="#B0B6C3" fill-opacity="0.3"></path>
<path d="M-2.2408 -1.6796C-1.8674 -1.6796 -1.6817 -1.4939 -1.6817 -1.1204L-1.6817 1.1204C-1.6817 1.4939 -1.8674 1.6796 -2.2408 1.6796C-2.6143 1.6796 -2.8 1.4939 -2.8 1.1204L-2.8 -1.1204C-2.8 -1.4939 -2.6143 -1.6796 -2.2408 -1.6796ZM0 -1.6796C0.3735 -1.6796 0.5592 -1.4939 0.5592 -1.1204L0.5592 1.1204C0.5592 1.4939 0.3735 1.6796 0 1.6796C-0.3735 1.6796 -0.5592 1.4939 -0.5592 1.1204L-0.5592 -1.1204C-0.5592 -1.4939 -0.3735 -1.6796 0 -1.6796ZM2.2408 -1.6796C2.6143 -1.6796 2.8 -1.4939 2.8 -1.1204L2.8 1.1204C2.8 1.4939 2.6143 1.6796 2.2408 1.6796C1.8674 1.6796 1.6817 1.4939 1.6817 1.1204L1.6817 -1.1204C1.6796 -1.4939 1.8674 -1.6796 2.2408 -1.6796Z" transform="matrix(1,0,0,-1,362.8,559.5)" fill="#fff"></path>
<path d="M0 1.628L0 2M0 0L0 0.375M-0.1 0.375L0.1 0.375A0.1 0.1 0 0 1 0.2 0.475L0.2 1.525A0.1 0.1 0 0 1 0.1 1.625L-0.1 1.625A0.1 0.1 0 0 1 -0.2 1.525L-0.2 0.475A0.1 0.1 0 0 1 -0.1 0.375Z" transform="matrix(15,0,0,-15,83.8,592.5)" fill="#353450" stroke="#C5CBE3" stroke-width="0.06666666666666667"></path>
<path d="M0 1.628L0 2M0 0L0 0.375M-0.1 0.375L0.1 0.375A0.1 0.1 0 0 1 0.2 0.475L0.2 1.525A0.1 0.1 0 0 1 0.1 1.625L-0.1 1.625A0.1 0.1 0 0 1 -0.2 1.525L-0.2 0.475A0.1 0.1 0 0 1 -0.1 0.375Z" transform="matrix(15,0,0,-15,641.8,592.5)" fill="#353450" stroke="#C5CBE3" stroke-width="0.06666666666666667"></path>
<defs >
<clipPath id="zr0-c0">
<path d="M79 59l562 0l0 472l-562 0Z" fill="#000"></path>
</clipPath>
<clipPath id="zr0-c1">
<path d="M79 59l562 0l0 472l-562 0Z" fill="#000"></path>
</clipPath>
<clipPath id="zr0-c2">
<path d="M0 0l0 0l0 30l0 0Z" transform="matrix(1,0,0,-1,82.8,592.5)" fill="#000"></path>
</clipPath>
<clipPath id="zr0-c3">
<path d="M0 0l560 0l0 30l-560 0Z" transform="matrix(1,0,0,-1,82.8,592.5)" fill="#000"></path>
</clipPath>
<clipPath id="zr0-c4">
<path d="M560 0l0 0l0 30l0 0Z" transform="matrix(1,0,0,-1,82.8,592.5)" fill="#000"></path>
</clipPath>
</defs>
</svg>