<svg width="800" height="600" xmlns="http://www.w3.org/2000/svg" xmlns:xlink="http://www.w3.org/1999/xlink" version="1.1" baseProfile="full" viewBox="0 0 800 600">
<rect width="800" height="600" x="0" y="0" id="0" fill="rgb(40, 44, 52)" fill-opacity="1"></rect>
<path d="M80 530.5L640 530.5" fill="none" stroke="#484753"></path>
<path d="M80 451.5L640 451.5" fill="none" stroke="#484753"></path>
<path d="M80 373.5L640 373.5" fill="none" stroke="#484753"></path>
<path d="M80 295.5L640 295.5" fill="none" stroke="#484753"></path>
<path d="M80 216.5L640 216.5" fill="none" stroke="#484753"></path>
<path d="M80 138.5L640 138.5" fill="none" stroke="#484753"></path>
<path d="M80 60.5L640 60.5" fill="none" stroke="#484753"></path>
<path d="M80.5 530L80.5 60" fill="none" stroke="#ACDFED" stroke-linecap="round"></path>
<text dominant-baseline="central" text-anchor="middle" style="font-size:12px;font-family:Microsoft YaHei;" y="-6" transform="translate(80 45)" fill="#B9B8CE">压力</text>
<path d="M640.5 530L640.5 60" fill="none" stroke="#FFAB91" stroke-linecap="round"></path>
<text dominant-baseline="central" text-anchor="middle" style="font-size:12px;font-family:Microsoft YaHei;" y="-6" transform="translate(640 45)" fill="#B9B8CE">温度</text>
<path d="M720.5 530L720.5 60" fill="none" stroke="#f7f494" stroke-linecap="round"></path>
<text dominant-baseline="central" text-anchor="middle" style="font-size:12px;font-family:Microsoft YaHei;" y="-6" transform="translate(720 45)" fill="#B9B8CE">负压</text>
<path d="M80 530.5L640 530.5" fill="none" stroke="#B9B8CE" stroke-linecap="round"></path>
<path d="M81.5 530L81.5 535" fill="none" stroke="#B9B8CE"></path>
<path d="M146.5 530L146.5 535" fill="none" stroke="#B9B8CE"></path>
<path d="M211.5 530L211.5 535" fill="none" stroke="#B9B8CE"></path>
<path d="M276.5 530L276.5 535" fill="none" stroke="#B9B8CE"></path>
<path d="M341.5 530L341.5 535" fill="none" stroke="#B9B8CE"></path>
<path d="M406.5 530L406.5 535" fill="none" stroke="#B9B8CE"></path>
<path d="M471.5 530L471.5 535" fill="none" stroke="#B9B8CE"></path>
<path d="M536.5 530L536.5 535" fill="none" stroke="#B9B8CE"></path>
<path d="M601.5 530L601.5 535" fill="none" stroke="#B9B8CE"></path>
<text dominant-baseline="central" text-anchor="start" style="font-size:12px;font-family:Microsoft YaHei;" xml:space="preserve" transform="translate(728 530)" fill="#B9B8CE">0 hPa</text>
<text dominant-baseline="central" text-anchor="start" style="font-size:12px;font-family:Microsoft YaHei;" xml:space="preserve" transform="translate(728 451.6667)" fill="#B9B8CE">20 hPa</text>
<text dominant-baseline="central" text-anchor="start" style="font-size:12px;font-family:Microsoft YaHei;" xml:space="preserve" transform="translate(728 373.3333)" fill="#B9B8CE">40 hPa</text>
<text dominant-baseline="central" text-anchor="start" style="font-size:12px;font-family:Microsoft YaHei;" xml:space="preserve" transform="translate(728 295)" fill="#B9B8CE">60 hPa</text>
<text dominant-baseline="central" text-anchor="start" style="font-size:12px;font-family:Microsoft YaHei;" xml:space="preserve" transform="translate(728 216.6667)" fill="#B9B8CE">80 hPa</text>
<text dominant-baseline="central" text-anchor="start" style="font-size:12px;font-family:Microsoft YaHei;" xml:space="preserve" transform="translate(728 138.3333)" fill="#B9B8CE">100 hPa</text>
<text dominant-baseline="central" text-anchor="start" style="font-size:12px;font-family:Microsoft YaHei;" xml:space="preserve" transform="translate(728 60)" fill="#B9B8CE">120 hPa</text>
<text dominant-baseline="central" text-anchor="middle" style="font-size:12px;font-family:Microsoft YaHei;" y="6" transform="translate(81.547 538)" fill="#B9B8CE">22:42:53</text>
<text dominant-baseline="central" text-anchor="middle" style="font-size:12px;font-family:Microsoft YaHei;" y="6" transform="translate(146.5193 538)" fill="#B9B8CE">22:43:14</text>
<text dominant-baseline="central" text-anchor="middle" style="font-size:12px;font-family:Microsoft YaHei;" y="6" transform="translate(211.4917 538)" fill="#B9B8CE">22:43:35</text>
<text dominant-baseline="central" text-anchor="middle" style="font-size:12px;font-family:Microsoft YaHei;" y="6" transform="translate(276.4641 538)" fill="#B9B8CE">22:43:56</text>
<text dominant-baseline="central" text-anchor="middle" style="font-size:12px;font-family:Microsoft YaHei;" y="6" transform="translate(341.4365 538)" fill="#B9B8CE">22:44:17</text>
<text dominant-baseline="central" text-anchor="middle" style="font-size:12px;font-family:Microsoft YaHei;" y="6" transform="translate(406.4088 538)" fill="#B9B8CE">22:44:38</text>
<text dominant-baseline="central" text-anchor="middle" style="font-size:12px;font-family:Microsoft YaHei;" y="6" transform="translate(471.3812 538)" fill="#B9B8CE">22:44:59</text>
<text dominant-baseline="central" text-anchor="middle" style="font-size:12px;font-family:Microsoft YaHei;" y="6" transform="translate(536.3536 538)" fill="#B9B8CE">22:45:20</text>
<text dominant-baseline="central" text-anchor="middle" style="font-size:12px;font-family:Microsoft YaHei;" y="6" transform="translate(601.326 538)" fill="#B9B8CE">22:45:41</text>
<g clip-path="url(#zr0-c0)">
<path d="M81.5 526.5L84.6 526.5L87.7 526.5L90.8 526.5L93.9 526.5L97 526.5L100.1 526.9L103.2 526.5L106.3 526.5L109.4 526.5L112.5 526.5L115.6 526.5L118.7 526.5L121.8 526.5L124.9 526.5L128 526.5L131 526.5L134.1 526.5L137.2 526.5L140.3 526.5L143.4 526.5L146.5 526.5L149.6 526.5L152.7 485.4L155.8 445.4L158.9 412.1L162 353.4L165.1 348.3L168.2 336.9L171.3 329.9L174.4 327.5L177.5 319.7L180.6 319.7L183.6 316.5L186.7 311.5L189.8 306L192.9 305.2L196 304L199.1 309.9L202.2 304.4L205.3 305.6L208.4 305.6L211.5 307.9L214.6 311.1L217.7 313.8L220.8 311.1L223.9 315L227 310.7L230.1 312.2L233.1 313.4L236.2 320.9L239.3 318.1L242.4 316.5L245.5 319.3L248.6 315.8L251.7 321.2L254.8 316.9L257.9 320.5L261 323.2L264.1 318.5L267.2 324.8L270.3 324L273.4 325.2L276.5 325.5L279.6 325.2L282.7 321.6L285.7 328.3L288.8 325.5L291.9 327.9L295 325.9L298.1 325.5L301.2 325.9L304.3 331L307.4 326.3L310.5 326.7L313.6 326.7L316.7 331.4L319.8 331.8L322.9 329.1L326 328.7L329.1 330.6L332.2 333.4L335.2 333.4L338.3 333.4L341.4 327.9L344.5 328.3L347.6 327.9L350.7 327.9L353.8 328.7L356.9 334.2L360 331.4L363.1 330.3L366.2 330.3L369.3 330.3L372.4 335.3L375.5 333.4L378.6 329.9L381.7 329.9L384.8 327.9L387.8 333.8L390.9 329.5L394 329.9L397.1 331L400.2 334.6L403.3 330.3L406.4 335L409.5 335L412.6 335L415.7 329.5L418.8 333L421.9 334.6L425 329.5L428.1 334.2L431.2 331.4L434.3 332.6L437.3 335.3L440.4 330.6L443.5 335.3L446.6 336.1L449.7 331.8L452.8 336.1L455.9 331.8L459 330.3L462.1 334.2L465.2 335L468.3 331.8L471.4 331L474.5 334.6L477.6 336.1L480.7 331.4L483.8 336.1L486.9 332.6L489.9 331.4L493 336.1L496.1 336.1L499.2 333.4L502.3 329.9L505.4 320.5L508.5 236.6L511.6 231.6L514.7 197.1L517.8 186.9L520.9 162.2L524 161.4L527.1 159.1L530.2 156L533.3 146.9L536.4 150.1L539.4 141.9L542.5 145.4L545.6 137.6L548.7 139.5L551.8 141.1L554.9 139.1L558 142.6L561.1 133.6L564.2 135.6L567.3 130.1L570.4 130.9L573.5 138.3L576.6 134.4L579.7 131.7L582.8 131.3L585.9 134.8L589 136.4L592 129.7L595.1 130.5L598.2 135.6L601.3 136.8L604.4 133.2L607.5 136.8L610.6 128.5L613.7 134.8L616.8 134L619.9 134.4L623 128.5L626.1 129.3L629.2 136L632.3 130.1L635.4 138.3L638.5 132.5" fill="none" stroke="#f7f494" stroke-width="2" stroke-linejoin="bevel"></path>
</g>
<g clip-path="url(#zr0-c1)">
<path d="M81.5 334.2L84.6 334.2L87.7 334.2L90.8 334.2L93.9 334.2L97 334.2L100.1 334.2L103.2 334.2L106.3 334.2L109.4 334.2L112.5 334.2L115.6 334.2L118.7 334.2L121.8 334.2L124.9 334.2L128 334.2L131 334.2L134.1 334.2L137.2 334.2L140.3 334.2L143.4 334.2L146.5 334.2L149.6 334.2L152.7 334.2L155.8 334.2L158.9 334.2L162 334.2L165.1 334.2L168.2 334.2L171.3 334.2L174.4 334.2L177.5 334.2L180.6 334.2L183.6 334.2L186.7 334.2L189.8 334.2L192.9 334.2L196 334.2L199.1 334.2L202.2 334.2L205.3 334.2L208.4 334.2L211.5 334.2L214.6 334.2L217.7 334.2L220.8 334.2L223.9 334.2L227 334.2L230.1 334.2L233.1 334.2L236.2 334.2L239.3 334.2L242.4 334.2L245.5 334.2L248.6 334.2L251.7 334.2L254.8 334.2L257.9 334.2L261 334.2L264.1 334.2L267.2 334.2L270.3 334.2L273.4 334.2L276.5 334.2L279.6 334.2L282.7 334.2L285.7 334.2L288.8 334.2L291.9 334.2L295 334.2L298.1 334.2L301.2 334.2L304.3 334.2L307.4 334.2L310.5 334.2L313.6 334.2L316.7 334.2L319.8 334.2L322.9 334.2L326 334.2L329.1 334.2L332.2 334.2L335.2 334.2L338.3 334.2L341.4 334.2L344.5 334.2L347.6 334.2L350.7 334.2L353.8 334.2L356.9 334.2L360 334.2L363.1 334.2L366.2 334.2L369.3 334.2L372.4 334.2L375.5 334.2L378.6 334.2L381.7 334.2L384.8 334.2L387.8 334.2L390.9 334.2L394 334.2L397.1 334.2L400.2 334.2L403.3 334.2L406.4 334.2L409.5 334.2L412.6 334.2L415.7 334.2L418.8 334.2L421.9 334.2L425 334.2L428.1 334.2L431.2 334.2L434.3 334.2L437.3 334.2L440.4 334.2L443.5 334.2L446.6 334.2L449.7 334.2L452.8 334.2L455.9 334.2L459 334.2L462.1 334.2L465.2 334.2L468.3 334.2L471.4 334.2L474.5 334.2L477.6 334.2L480.7 334.2L483.8 334.2L486.9 334.2L489.9 334.2L493 334.2L496.1 334.2L499.2 334.2L502.3 138.3L505.4 138.3L508.5 138.3L511.6 138.3L514.7 138.3L517.8 138.3L520.9 138.3L524 138.3L527.1 138.3L530.2 138.3L533.3 138.3L536.4 138.3L539.4 138.3L542.5 138.3L545.6 138.3L548.7 138.3L551.8 138.3L554.9 138.3L558 138.3L561.1 138.3L564.2 138.3L567.3 138.3L570.4 138.3L573.5 138.3L576.6 138.3L579.7 138.3L582.8 138.3L585.9 138.3L589 138.3L592 138.3L595.1 138.3L598.2 138.3L601.3 138.3L604.4 138.3L607.5 138.3L610.6 138.3L613.7 138.3L616.8 138.3L619.9 138.3L623 138.3L626.1 138.3L629.2 138.3L632.3 138.3L635.4 138.3L638.5 138.3" fill="none" stroke="#f7f494" stroke-width="2" stroke-linejoin="bevel"></path>
</g>
<path d="M0 -1L1 1L-1 1Z" transform="matrix(5,0,0,5,81.547,526.475)" fill="#f7f494"></path>
<path d="M0 -1L1 1L-1 1Z" transform="matrix(5,0,0,5,146.5193,526.475)" fill="#f7f494"></path>
<path d="M0 -1L1 1L-1 1Z" transform="matrix(5,0,0,5,211.4917,307.925)" fill="#f7f494"></path>
<path d="M0 -1L1 1L-1 1Z" transform="matrix(5,0,0,5,276.4641,325.55)" fill="#f7f494"></path>
<path d="M0 -1L1 1L-1 1Z" transform="matrix(5,0,0,5,341.4365,327.9)" fill="#f7f494"></path>
<path d="M0 -1L1 1L-1 1Z" transform="matrix(5,0,0,5,406.4088,334.95)" fill="#f7f494"></path>
<path d="M0 -1L1 1L-1 1Z" transform="matrix(5,0,0,5,471.3812,331.0333)" fill="#f7f494"></path>
<path d="M0 -1L1 1L-1 1Z" transform="matrix(5,0,0,5,536.3536,150.0833)" fill="#f7f494"></path>
<path d="M0 -1L1 1L-1 1Z" transform="matrix(5,0,0,5,601.326,136.7667)" fill="#f7f494"></path>
<path d="M1 0A1 1 0 1 1 1 -0.0001" transform="matrix(5,0,0,5,81.547,334.1667)" fill="#f7f494"></path>
<path d="M1 0A1 1 0 1 1 1 -0.0001" transform="matrix(5,0,0,5,146.5193,334.1667)" fill="#f7f494"></path>
<path d="M1 0A1 1 0 1 1 1 -0.0001" transform="matrix(5,0,0,5,211.4917,334.1667)" fill="#f7f494"></path>
<path d="M1 0A1 1 0 1 1 1 -0.0001" transform="matrix(5,0,0,5,276.4641,334.1667)" fill="#f7f494"></path>
<path d="M1 0A1 1 0 1 1 1 -0.0001" transform="matrix(5,0,0,5,341.4365,334.1667)" fill="#f7f494"></path>
<path d="M1 0A1 1 0 1 1 1 -0.0001" transform="matrix(5,0,0,5,406.4088,334.1667)" fill="#f7f494"></path>
<path d="M1 0A1 1 0 1 1 1 -0.0001" transform="matrix(5,0,0,5,471.3812,334.1667)" fill="#f7f494"></path>
<path d="M1 0A1 1 0 1 1 1 -0.0001" transform="matrix(5,0,0,5,536.3536,138.3333)" fill="#f7f494"></path>
<path d="M1 0A1 1 0 1 1 1 -0.0001" transform="matrix(5,0,0,5,601.326,138.3333)" fill="#f7f494"></path>
<path d="M0 0l560 0l0 30l-560 0Z" transform="matrix(1,0,0,-1,82.8,592.5)" fill="rgb(47,69,84)" fill-opacity="0"></path>
<g clip-path="url(#zr0-c2)">
<polygon points="560 0 0 0 0 5.6 3.1 5.6 6.2 5.6 9.3 5.6 12.4 5.6 15.6 5.6 18.7 5.6 21.8 5.6 24.9 5.6 28 5.6 31.1 5.6 34.2 5.6 37.3 5.6 40.4 5.6 43.6 5.6 46.7 5.6 49.8 5.6 52.9 5.6 56 5.6 59.1 5.6 62.2 5.6 65.3 5.6 68.4 5.6 71.6 7.6 74.7 9.5 77.8 11 80.9 13.8 84 14 87.1 14.6 90.2 14.9 93.3 15 96.4 15.4 99.6 15.4 102.7 15.5 105.8 15.8 108.9 16 112 16.1 115.1 16.1 118.2 15.8 121.3 16.1 124.4 16 127.6 16 130.7 15.9 133.8 15.8 136.9 15.7 140 15.8 143.1 15.6 146.2 15.8 149.3 15.7 152.4 15.7 155.6 15.3 158.7 15.5 161.8 15.5 164.9 15.4 168 15.6 171.1 15.3 174.2 15.5 177.3 15.3 180.4 15.2 183.6 15.4 186.7 15.1 189.8 15.2 192.9 15.1 196 15.1 199.1 15.1 202.2 15.3 205.3 15 208.4 15.1 211.6 15 214.7 15.1 217.8 15.1 220.9 15.1 224 14.8 227.1 15.1 230.2 15 233.3 15 236.4 14.8 239.6 14.8 242.7 14.9 245.8 15 248.9 14.9 252 14.7 255.1 14.7 258.2 14.7 261.3 15 264.4 15 267.6 15 270.7 15 273.8 15 276.9 14.7 280 14.8 283.1 14.9 286.2 14.9 289.3 14.9 292.4 14.6 295.6 14.7 298.7 14.9 301.8 14.9 304.9 15 308 14.7 311.1 14.9 314.2 14.9 317.3 14.8 320.4 14.7 323.6 14.9 326.7 14.7 329.8 14.7 332.9 14.7 336 14.9 339.1 14.8 342.2 14.7 345.3 14.9 348.4 14.7 351.6 14.8 354.7 14.8 357.8 14.6 360.9 14.9 364 14.6 367.1 14.6 370.2 14.8 373.3 14.6 376.4 14.8 379.6 14.9 382.7 14.7 385.8 14.7 388.9 14.8 392 14.8 395.1 14.7 398.2 14.6 401.3 14.8 404.4 14.6 407.6 14.8 410.7 14.8 413.8 14.6 416.9 14.6 420 14.7 423.1 14.9 426.2 15.3 429.3 19.3 432.4 19.5 435.6 21.1 438.7 21.6 441.8 22.8 444.9 22.8 448 22.9 451.1 23.1 454.2 23.5 457.3 23.4 460.4 23.7 463.6 23.6 466.7 24 469.8 23.9 472.9 23.8 476 23.9 479.1 23.7 482.2 24.1 485.3 24 488.4 24.3 491.6 24.3 494.7 23.9 497.8 24.1 500.9 24.2 504 24.2 507.1 24.1 510.2 24 513.3 24.3 516.4 24.3 519.6 24 522.7 24 525.8 24.2 528.9 24 532 24.4 535.1 24.1 538.2 24.1 541.3 24.1 544.4 24.4 547.6 24.3 550.7 24 553.8 24.3 556.9 23.9 560 24.2" transform="matrix(1,0,0,-1,82.8,592.5)" fill="#71708A" fill-opacity="0.2"></polygon>
</g>
<g clip-path="url(#zr0-c3)">
<polygon points="560 0 0 0 0 5.6 3.1 5.6 6.2 5.6 9.3 5.6 12.4 5.6 15.6 5.6 18.7 5.6 21.8 5.6 24.9 5.6 28 5.6 31.1 5.6 34.2 5.6 37.3 5.6 40.4 5.6 43.6 5.6 46.7 5.6 49.8 5.6 52.9 5.6 56 5.6 59.1 5.6 62.2 5.6 65.3 5.6 68.4 5.6 71.6 7.6 74.7 9.5 77.8 11 80.9 13.8 84 14 87.1 14.6 90.2 14.9 93.3 15 96.4 15.4 99.6 15.4 102.7 15.5 105.8 15.8 108.9 16 112 16.1 115.1 16.1 118.2 15.8 121.3 16.1 124.4 16 127.6 16 130.7 15.9 133.8 15.8 136.9 15.7 140 15.8 143.1 15.6 146.2 15.8 149.3 15.7 152.4 15.7 155.6 15.3 158.7 15.5 161.8 15.5 164.9 15.4 168 15.6 171.1 15.3 174.2 15.5 177.3 15.3 180.4 15.2 183.6 15.4 186.7 15.1 189.8 15.2 192.9 15.1 196 15.1 199.1 15.1 202.2 15.3 205.3 15 208.4 15.1 211.6 15 214.7 15.1 217.8 15.1 220.9 15.1 224 14.8 227.1 15.1 230.2 15 233.3 15 236.4 14.8 239.6 14.8 242.7 14.9 245.8 15 248.9 14.9 252 14.7 255.1 14.7 258.2 14.7 261.3 15 264.4 15 267.6 15 270.7 15 273.8 15 276.9 14.7 280 14.8 283.1 14.9 286.2 14.9 289.3 14.9 292.4 14.6 295.6 14.7 298.7 14.9 301.8 14.9 304.9 15 308 14.7 311.1 14.9 314.2 14.9 317.3 14.8 320.4 14.7 323.6 14.9 326.7 14.7 329.8 14.7 332.9 14.7 336 14.9 339.1 14.8 342.2 14.7 345.3 14.9 348.4 14.7 351.6 14.8 354.7 14.8 357.8 14.6 360.9 14.9 364 14.6 367.1 14.6 370.2 14.8 373.3 14.6 376.4 14.8 379.6 14.9 382.7 14.7 385.8 14.7 388.9 14.8 392 14.8 395.1 14.7 398.2 14.6 401.3 14.8 404.4 14.6 407.6 14.8 410.7 14.8 413.8 14.6 416.9 14.6 420 14.7 423.1 14.9 426.2 15.3 429.3 19.3 432.4 19.5 435.6 21.1 438.7 21.6 441.8 22.8 444.9 22.8 448 22.9 451.1 23.1 454.2 23.5 457.3 23.4 460.4 23.7 463.6 23.6 466.7 24 469.8 23.9 472.9 23.8 476 23.9 479.1 23.7 482.2 24.1 485.3 24 488.4 24.3 491.6 24.3 494.7 23.9 497.8 24.1 500.9 24.2 504 24.2 507.1 24.1 510.2 24 513.3 24.3 516.4 24.3 519.6 24 522.7 24 525.8 24.2 528.9 24 532 24.4 535.1 24.1 538.2 24.1 541.3 24.1 544.4 24.4 547.6 24.3 550.7 24 553.8 24.3 556.9 23.9 560 24.2" transform="matrix(1,0,0,-1,82.8,592.5)" fill="#87A3CE" fill-opacity="0.2"></polygon>
</g>
<g clip-path="url(#zr0-c4)">
<polygon points="560 0 0 0 0 5.6 3.1 5.6 6.2 5.6 9.3 5.6 12.4 5.6 15.6 5.6 18.7 5.6 21.8 5.6 24.9 5.6 28 5.6 31.1 5.6 34.2 5.6 37.3 5.6 40.4 5.6 43.6 5.6 46.7 5.6 49.8 5.6 52.9 5.6 56 5.6 59.1 5.6 62.2 5.6 65.3 5.6 68.4 5.6 71.6 7.6 74.7 9.5 77.8 11 80.9 13.8 84 14 87.1 14.6 90.2 14.9 93.3 15 96.4 15.4 99.6 15.4 102.7 15.5 105.8 15.8 108.9 16 112 16.1 115.1 16.1 118.2 15.8 121.3 16.1 124.4 16 127.6 16 130.7 15.9 133.8 15.8 136.9 15.7 140 15.8 143.1 15.6 146.2 15.8 149.3 15.7 152.4 15.7 155.6 15.3 158.7 15.5 161.8 15.5 164.9 15.4 168 15.6 171.1 15.3 174.2 15.5 177.3 15.3 180.4 15.2 183.6 15.4 186.7 15.1 189.8 15.2 192.9 15.1 196 15.1 199.1 15.1 202.2 15.3 205.3 15 208.4 15.1 211.6 15 214.7 15.1 217.8 15.1 220.9 15.1 224 14.8 227.1 15.1 230.2 15 233.3 15 236.4 14.8 239.6 14.8 242.7 14.9 245.8 15 248.9 14.9 252 14.7 255.1 14.7 258.2 14.7 261.3 15 264.4 15 267.6 15 270.7 15 273.8 15 276.9 14.7 280 14.8 283.1 14.9 286.2 14.9 289.3 14.9 292.4 14.6 295.6 14.7 298.7 14.9 301.8 14.9 304.9 15 308 14.7 311.1 14.9 314.2 14.9 317.3 14.8 320.4 14.7 323.6 14.9 326.7 14.7 329.8 14.7 332.9 14.7 336 14.9 339.1 14.8 342.2 14.7 345.3 14.9 348.4 14.7 351.6 14.8 354.7 14.8 357.8 14.6 360.9 14.9 364 14.6 367.1 14.6 370.2 14.8 373.3 14.6 376.4 14.8 379.6 14.9 382.7 14.7 385.8 14.7 388.9 14.8 392 14.8 395.1 14.7 398.2 14.6 401.3 14.8 404.4 14.6 407.6 14.8 410.7 14.8 413.8 14.6 416.9 14.6 420 14.7 423.1 14.9 426.2 15.3 429.3 19.3 432.4 19.5 435.6 21.1 438.7 21.6 441.8 22.8 444.9 22.8 448 22.9 451.1 23.1 454.2 23.5 457.3 23.4 460.4 23.7 463.6 23.6 466.7 24 469.8 23.9 472.9 23.8 476 23.9 479.1 23.7 482.2 24.1 485.3 24 488.4 24.3 491.6 24.3 494.7 23.9 497.8 24.1 500.9 24.2 504 24.2 507.1 24.1 510.2 24 513.3 24.3 516.4 24.3 519.6 24 522.7 24 525.8 24.2 528.9 24 532 24.4 535.1 24.1 538.2 24.1 541.3 24.1 544.4 24.4 547.6 24.3 550.7 24 553.8 24.3 556.9 23.9 560 24.2" transform="matrix(1,0,0,-1,82.8,592.5)" fill="#71708A" fill-opacity="0.2"></polygon>
</g>
<g clip-path="url(#zr0-c2)">
<polyline points="0 5.6 3.1 5.6 6.2 5.6 9.3 5.6 12.4 5.6 15.6 5.6 18.7 5.6 21.8 5.6 24.9 5.6 28 5.6 31.1 5.6 34.2 5.6 37.3 5.6 40.4 5.6 43.6 5.6 46.7 5.6 49.8 5.6 52.9 5.6 56 5.6 59.1 5.6 62.2 5.6 65.3 5.6 68.4 5.6 71.6 7.6 74.7 9.5 77.8 11 80.9 13.8 84 14 87.1 14.6 90.2 14.9 93.3 15 96.4 15.4 99.6 15.4 102.7 15.5 105.8 15.8 108.9 16 112 16.1 115.1 16.1 118.2 15.8 121.3 16.1 124.4 16 127.6 16 130.7 15.9 133.8 15.8 136.9 15.7 140 15.8 143.1 15.6 146.2 15.8 149.3 15.7 152.4 15.7 155.6 15.3 158.7 15.5 161.8 15.5 164.9 15.4 168 15.6 171.1 15.3 174.2 15.5 177.3 15.3 180.4 15.2 183.6 15.4 186.7 15.1 189.8 15.2 192.9 15.1 196 15.1 199.1 15.1 202.2 15.3 205.3 15 208.4 15.1 211.6 15 214.7 15.1 217.8 15.1 220.9 15.1 224 14.8 227.1 15.1 230.2 15 233.3 15 236.4 14.8 239.6 14.8 242.7 14.9 245.8 15 248.9 14.9 252 14.7 255.1 14.7 258.2 14.7 261.3 15 264.4 15 267.6 15 270.7 15 273.8 15 276.9 14.7 280 14.8 283.1 14.9 286.2 14.9 289.3 14.9 292.4 14.6 295.6 14.7 298.7 14.9 301.8 14.9 304.9 15 308 14.7 311.1 14.9 314.2 14.9 317.3 14.8 320.4 14.7 323.6 14.9 326.7 14.7 329.8 14.7 332.9 14.7 336 14.9 339.1 14.8 342.2 14.7 345.3 14.9 348.4 14.7 351.6 14.8 354.7 14.8 357.8 14.6 360.9 14.9 364 14.6 367.1 14.6 370.2 14.8 373.3 14.6 376.4 14.8 379.6 14.9 382.7 14.7 385.8 14.7 388.9 14.8 392 14.8 395.1 14.7 398.2 14.6 401.3 14.8 404.4 14.6 407.6 14.8 410.7 14.8 413.8 14.6 416.9 14.6 420 14.7 423.1 14.9 426.2 15.3 429.3 19.3 432.4 19.5 435.6 21.1 438.7 21.6 441.8 22.8 444.9 22.8 448 22.9 451.1 23.1 454.2 23.5 457.3 23.4 460.4 23.7 463.6 23.6 466.7 24 469.8 23.9 472.9 23.8 476 23.9 479.1 23.7 482.2 24.1 485.3 24 488.4 24.3 491.6 24.3 494.7 23.9 497.8 24.1 500.9 24.2 504 24.2 507.1 24.1 510.2 24 513.3 24.3 516.4 24.3 519.6 24 522.7 24 525.8 24.2 528.9 24 532 24.4 535.1 24.1 538.2 24.1 541.3 24.1 544.4 24.4 547.6 24.3 550.7 24 553.8 24.3 556.9 23.9 560 24.2" transform="matrix(1,0,0,-1,82.8,592.5)" fill="none" stroke="#71708A"></polyline>
</g>
<g clip-path="url(#zr0-c3)">
<polyline points="0 5.6 3.1 5.6 6.2 5.6 9.3 5.6 12.4 5.6 15.6 5.6 18.7 5.6 21.8 5.6 24.9 5.6 28 5.6 31.1 5.6 34.2 5.6 37.3 5.6 40.4 5.6 43.6 5.6 46.7 5.6 49.8 5.6 52.9 5.6 56 5.6 59.1 5.6 62.2 5.6 65.3 5.6 68.4 5.6 71.6 7.6 74.7 9.5 77.8 11 80.9 13.8 84 14 87.1 14.6 90.2 14.9 93.3 15 96.4 15.4 99.6 15.4 102.7 15.5 105.8 15.8 108.9 16 112 16.1 115.1 16.1 118.2 15.8 121.3 16.1 124.4 16 127.6 16 130.7 15.9 133.8 15.8 136.9 15.7 140 15.8 143.1 15.6 146.2 15.8 149.3 15.7 152.4 15.7 155.6 15.3 158.7 15.5 161.8 15.5 164.9 15.4 168 15.6 171.1 15.3 174.2 15.5 177.3 15.3 180.4 15.2 183.6 15.4 186.7 15.1 189.8 15.2 192.9 15.1 196 15.1 199.1 15.1 202.2 15.3 205.3 15 208.4 15.1 211.6 15 214.7 15.1 217.8 15.1 220.9 15.1 224 14.8 227.1 15.1 230.2 15 233.3 15 236.4 14.8 239.6 14.8 242.7 14.9 245.8 15 248.9 14.9 252 14.7 255.1 14.7 258.2 14.7 261.3 15 264.4 15 267.6 15 270.7 15 273.8 15 276.9 14.7 280 14.8 283.1 14.9 286.2 14.9 289.3 14.9 292.4 14.6 295.6 14.7 298.7 14.9 301.8 14.9 304.9 15 308 14.7 311.1 14.9 314.2 14.9 317.3 14.8 320.4 14.7 323.6 14.9 326.7 14.7 329.8 14.7 332.9 14.7 336 14.9 339.1 14.8 342.2 14.7 345.3 14.9 348.4 14.7 351.6 14.8 354.7 14.8 357.8 14.6 360.9 14.9 364 14.6 367.1 14.6 370.2 14.8 373.3 14.6 376.4 14.8 379.6 14.9 382.7 14.7 385.8 14.7 388.9 14.8 392 14.8 395.1 14.7 398.2 14.6 401.3 14.8 404.4 14.6 407.6 14.8 410.7 14.8 413.8 14.6 416.9 14.6 420 14.7 423.1 14.9 426.2 15.3 429.3 19.3 432.4 19.5 435.6 21.1 438.7 21.6 441.8 22.8 444.9 22.8 448 22.9 451.1 23.1 454.2 23.5 457.3 23.4 460.4 23.7 463.6 23.6 466.7 24 469.8 23.9 472.9 23.8 476 23.9 479.1 23.7 482.2 24.1 485.3 24 488.4 24.3 491.6 24.3 494.7 23.9 497.8 24.1 500.9 24.2 504 24.2 507.1 24.1 510.2 24 513.3 24.3 516.4 24.3 519.6 24 522.7 24 525.8 24.2 528.9 24 532 24.4 535.1 24.1 538.2 24.1 541.3 24.1 544.4 24.4 547.6 24.3 550.7 24 553.8 24.3 556.9 23.9 560 24.2" transform="matrix(1,0,0,-1,82.8,592.5)" fill="none" stroke="#87A3CE" stroke-width="0.5"></polyline>
</g>
<g clip-path="url(#zr0-c4)">
<polyline points="0 5.6 3.1 5.6 6.2 5.6 9.3 5.6 12.4 5.6 15.6 5.6 18.7 5.6 21.8 5.6 24.9 5.6 28 5.6 31.1 5.6 34.2 5.6 37.3 5.6 40.4 5.6 43.6 5.6 46.7 5.6 49.8 5.6 52.9 5.6 56 5.6 59.1 5.6 62.2 5.6 65.3 5.6 68.4 5.6 71.6 7.6 74.7 9.5 77.8 11 80.9 13.8 84 14 87.1 14.6 90.2 14.9 93.3 15 96.4 15.4 99.6 15.4 102.7 15.5 105.8 15.8 108.9 16 112 16.1 115.1 16.1 118.2 15.8 121.3 16.1 124.4 16 127.6 16 130.7 15.9 133.8 15.8 136.9 15.7 140 15.8 143.1 15.6 146.2 15.8 149.3 15.7 152.4 15.7 155.6 15.3 158.7 15.5 161.8 15.5 164.9 15.4 168 15.6 171.1 15.3 174.2 15.5 177.3 15.3 180.4 15.2 183.6 15.4 186.7 15.1 189.8 15.2 192.9 15.1 196 15.1 199.1 15.1 202.2 15.3 205.3 15 208.4 15.1 211.6 15 214.7 15.1 217.8 15.1 220.9 15.1 224 14.8 227.1 15.1 230.2 15 233.3 15 236.4 14.8 239.6 14.8 242.7 14.9 245.8 15 248.9 14.9 252 14.7 255.1 14.7 258.2 14.7 261.3 15 264.4 15 267.6 15 270.7 15 273.8 15 276.9 14.7 280 14.8 283.1 14.9 286.2 14.9 289.3 14.9 292.4 14.6 295.6 14.7 298.7 14.9 301.8 14.9 304.9 15 308 14.7 311.1 14.9 314.2 14.9 317.3 14.8 320.4 14.7 323.6 14.9 326.7 14.7 329.8 14.7 332.9 14.7 336 14.9 339.1 14.8 342.2 14.7 345.3 14.9 348.4 14.7 351.6 14.8 354.7 14.8 357.8 14.6 360.9 14.9 364 14.6 367.1 14.6 370.2 14.8 373.3 14.6 376.4 14.8 379.6 14.9 382.7 14.7 385.8 14.7 388.9 14.8 392 14.8 395.1 14.7 398.2 14.6 401.3 14.8 404.4 14.6 407.6 14.8 410.7 14.8 413.8 14.6 416.9 14.6 420 14.7 423.1 14.9 426.2 15.3 429.3 19.3 432.4 19.5 435.6 21.1 438.7 21.6 441.8 22.8 444.9 22.8 448 22.9 451.1 23.1 454.2 23.5 457.3 23.4 460.4 23.7 463.6 23.6 466.7 24 469.8 23.9 472.9 23.8 476 23.9 479.1 23.7 482.2 24.1 485.3 24 488.4 24.3 491.6 24.3 494.7 23.9 497.8 24.1 500.9 24.2 504 24.2 507.1 24.1 510.2 24 513.3 24.3 516.4 24.3 519.6 24 522.7 24 525.8 24.2 528.9 24 532 24.4 535.1 24.1 538.2 24.1 541.3 24.1 544.4 24.4 547.6 24.3 550.7 24 553.8 24.3 556.9 23.9 560 24.2" transform="matrix(1,0,0,-1,82.8,592.5)" fill="none" stroke="#71708A"></polyline>
</g>
<path d="M-5 -5l691.0547 0l0 22l-691.0547 0Z" transform="translate(59.4727 5)" fill="rgb(0,0,0)" fill-opacity="0" stroke="#ccc" stroke-width="0"></path>
<path d="M0 7L25 7" transform="translate(60.4727 4)" fill="#000" stroke="#ccc" stroke-width="2" stroke-linecap="butt" stroke-miterlimit="10"></path>
<path d="M12.5 1.4L18.1 12.6L6.9 12.6Z" transform="translate(60.4727 4)" fill="#ccc" stroke="#ccc" stroke-width="0" stroke-linecap="butt" stroke-miterlimit="10"></path>
<text dominant-baseline="central" text-anchor="start" style="font-size:12px;font-family:Microsoft YaHei;" x="30" y="7" transform="translate(60.4727 4)" fill="#ccc">Pipe_Pres</text>
<path d="M0 7L25 7" transform="translate(156.1465 4)" fill="#000" stroke="#ccc" stroke-width="2" stroke-linecap="butt" stroke-miterlimit="10"></path>
<path d="M18.1 7A5.6 5.6 0 1 1 18.1 6.9994" transform="translate(156.1465 4)" fill="#ccc" stroke="#ccc" stroke-width="0" stroke-linecap="butt" stroke-miterlimit="10"></path>
<text dominant-baseline="central" text-anchor="start" style="font-size:12px;font-family:Microsoft YaHei;" x="30" y="7" transform="translate(156.1465 4)" fill="#ccc">Ambient_Pres</text>
<path d="M0 7L25 7" transform="translate(276.0313 4)" fill="#000" stroke="#ccc" stroke-width="2" stroke-linecap="butt" stroke-miterlimit="10"></path>
<path d="M12.5 1.4L18.1 12.6L6.9 12.6Z" transform="translate(276.0313 4)" fill="#ccc" stroke="#ccc" stroke-width="0" stroke-linecap="butt" stroke-miterlimit="10"></path>
<text dominant-baseline="central" text-anchor="start" style="font-size:12px;font-family:Microsoft YaHei;" x="30" y="7" transform="translate(276.0313 4)" fill="#ccc">Pipe_Temp</text>
<path d="M0 7L25 7" transform="translate(380.0137 4)" fill="#000" stroke="#ccc" stroke-width="2" stroke-linecap="butt" stroke-miterlimit="10"></path>
<path d="M18.1 7A5.6 5.6 0 1 1 18.1 6.9994" transform="translate(380.0137 4)" fill="#ccc" stroke="#ccc" stroke-width="0" stroke-linecap="butt" stroke-miterlimit="10"></path>
<text dominant-baseline="central" text-anchor="start" style="font-size:12px;font-family:Microsoft YaHei;" x="30" y="7" transform="translate(380.0137 4)" fill="#ccc">Chip_Temp</text>
<path d="M0 7L25 7" transform="translate(485.2617 4)" fill="#000" stroke="#f7f494" stroke-width="2" stroke-linecap="butt" stroke-miterlimit="10"></path>
<path d="M18.1 7A5.6 5.6 0 1 1 18.1 6.9994" transform="translate(485.2617 4)" fill="#f7f494"></path>
<text dominant-baseline="central" text-anchor="start" style="font-size:12px;font-family:Microsoft YaHei;" x="30" y="7" transform="translate(485.2617 4)" fill="#B9B8CE">Set_nPressure</text>
<path d="M0 7L25 7" transform="translate(605.8672 4)" fill="#000" stroke="#f7f494" stroke-width="2" stroke-linecap="butt" stroke-miterlimit="10"></path>
<path d="M12.5 1.4L18.1 12.6L6.9 12.6Z" transform="translate(605.8672 4)" fill="#f7f494"></path>
<text dominant-baseline="central" text-anchor="start" style="font-size:12px;font-family:Microsoft YaHei;" x="30" y="7" transform="translate(605.8672 4)" fill="#B9B8CE">Current_nPressure</text>
<path d="M0 0l560 0l0 30l-560 0Z" transform="matrix(1,0,0,-1,82.8,592.5)" fill="none"></path>
<path d="M0 0l560 0l0 30l-560 0Z" transform="matrix(1,0,0,-1,82.8,592.5)" fill="rgb(135,163,206)" fill-opacity="0.2"></path>
<path d="M3.5 0.5L556.5 0.5A3 3 0 0 1 559.5 3.5L559.5 26.5A3 3 0 0 1 556.5 29.5L3.5 29.5A3 3 0 0 1 0.5 26.5L0.5 3.5A3 3 0 0 1 3.5 0.5" transform="matrix(1,0,0,-1,82.8,592.5)" fill="rgb(0,0,0)" fill-opacity="0" stroke="#71708A"></path>
<path d="M0 29.5L560 29.5L560 34.5A2 2 0 0 1 558 36.5L2 36.5A2 2 0 0 1 0 34.5L0 29.5" transform="matrix(1,0,0,-1,82.8,592.5)" fill="#B0B6C3" fill-opacity="0.3"></path>
<path d="M-2.2408 -1.6796C-1.8674 -1.6796 -1.6817 -1.4939 -1.6817 -1.1204L-1.6817 1.1204C-1.6817 1.4939 -1.8674 1.6796 -2.2408 1.6796C-2.6143 1.6796 -2.8 1.4939 -2.8 1.1204L-2.8 -1.1204C-2.8 -1.4939 -2.6143 -1.6796 -2.2408 -1.6796ZM0 -1.6796C0.3735 -1.6796 0.5592 -1.4939 0.5592 -1.1204L0.5592 1.1204C0.5592 1.4939 0.3735 1.6796 0 1.6796C-0.3735 1.6796 -0.5592 1.4939 -0.5592 1.1204L-0.5592 -1.1204C-0.5592 -1.4939 -0.3735 -1.6796 0 -1.6796ZM2.2408 -1.6796C2.6143 -1.6796 2.8 -1.4939 2.8 -1.1204L2.8 1.1204C2.8 1.4939 2.6143 1.6796 2.2408 1.6796C1.8674 1.6796 1.6817 1.4939 1.6817 1.1204L1.6817 -1.1204C1.6796 -1.4939 1.8674 -1.6796 2.2408 -1.6796Z" transform="matrix(1,0,0,-1,362.8,559.5)" fill="#fff"></path>
<path d="M0 1.628L0 2M0 0L0 0.375M-0.1 0.375L0.1 0.375A0.1 0.1 0 0 1 0.2 0.475L0.2 1.525A0.1 0.1 0 0 1 0.1 1.625L-0.1 1.625A0.1 0.1 0 0 1 -0.2 1.525L-0.2 0.475A0.1 0.1 0 0 1 -0.1 0.375Z" transform="matrix(15,0,0,-15,83.8,592.5)" fill="#353450" stroke="#C5CBE3" stroke-width="0.06666666666666667"></path>
<path d="M0 1.628L0 2M0 0L0 0.375M-0.1 0.375L0.1 0.375A0.1 0.1 0 0 1 0.2 0.475L0.2 1.525A0.1 0.1 0 0 1 0.1 1.625L-0.1 1.625A0.1 0.1 0 0 1 -0.2 1.525L-0.2 0.475A0.1 0.1 0 0 1 -0.1 0.375Z" transform="matrix(15,0,0,-15,641.8,592.5)" fill="#353450" stroke="#C5CBE3" stroke-width="0.06666666666666667"></path>
<defs >
<clipPath id="zr0-c0">
<path d="M79 59l562 0l0 472l-562 0Z" fill="#000"></path>
</clipPath>
<clipPath id="zr0-c1">
<path d="M79 59l562 0l0 472l-562 0Z" fill="#000"></path>
</clipPath>
<clipPath id="zr0-c2">
<path d="M0 0l0 0l0 30l0 0Z" transform="matrix(1,0,0,-1,82.8,592.5)" fill="#000"></path>
</clipPath>
<clipPath id="zr0-c3">
<path d="M0 0l560 0l0 30l-560 0Z" transform="matrix(1,0,0,-1,82.8,592.5)" fill="#000"></path>
</clipPath>
<clipPath id="zr0-c4">
<path d="M560 0l0 0l0 30l0 0Z" transform="matrix(1,0,0,-1,82.8,592.5)" fill="#000"></path>
</clipPath>
</defs>
</svg>