<svg width="800" height="600" xmlns="http://www.w3.org/2000/svg" xmlns:xlink="http://www.w3.org/1999/xlink" version="1.1" baseProfile="full" viewBox="0 0 800 600">
<rect width="800" height="600" x="0" y="0" id="0" fill="rgb(40, 44, 52)" fill-opacity="1"></rect>
<path d="M80 530.5L640 530.5" fill="none" stroke="#484753"></path>
<path d="M80 451.5L640 451.5" fill="none" stroke="#484753"></path>
<path d="M80 373.5L640 373.5" fill="none" stroke="#484753"></path>
<path d="M80 295.5L640 295.5" fill="none" stroke="#484753"></path>
<path d="M80 216.5L640 216.5" fill="none" stroke="#484753"></path>
<path d="M80 138.5L640 138.5" fill="none" stroke="#484753"></path>
<path d="M80 60.5L640 60.5" fill="none" stroke="#484753"></path>
<path d="M80.5 530L80.5 60" fill="none" stroke="#ACDFED" stroke-linecap="round"></path>
<text dominant-baseline="central" text-anchor="middle" style="font-size:12px;font-family:Microsoft YaHei;" y="-6" transform="translate(80 45)" fill="#B9B8CE">压力</text>
<path d="M640.5 530L640.5 60" fill="none" stroke="#FFAB91" stroke-linecap="round"></path>
<text dominant-baseline="central" text-anchor="middle" style="font-size:12px;font-family:Microsoft YaHei;" y="-6" transform="translate(640 45)" fill="#B9B8CE">温度</text>
<path d="M720.5 530L720.5 60" fill="none" stroke="#f7f494" stroke-linecap="round"></path>
<text dominant-baseline="central" text-anchor="middle" style="font-size:12px;font-family:Microsoft YaHei;" y="-6" transform="translate(720 45)" fill="#B9B8CE">负压</text>
<path d="M80 530.5L640 530.5" fill="none" stroke="#B9B8CE" stroke-linecap="round"></path>
<path d="M83.5 530L83.5 535" fill="none" stroke="#B9B8CE"></path>
<path d="M146.5 530L146.5 535" fill="none" stroke="#B9B8CE"></path>
<path d="M209.5 530L209.5 535" fill="none" stroke="#B9B8CE"></path>
<path d="M272.5 530L272.5 535" fill="none" stroke="#B9B8CE"></path>
<path d="M335.5 530L335.5 535" fill="none" stroke="#B9B8CE"></path>
<path d="M398.5 530L398.5 535" fill="none" stroke="#B9B8CE"></path>
<path d="M460.5 530L460.5 535" fill="none" stroke="#B9B8CE"></path>
<path d="M523.5 530L523.5 535" fill="none" stroke="#B9B8CE"></path>
<path d="M586.5 530L586.5 535" fill="none" stroke="#B9B8CE"></path>
<text dominant-baseline="central" text-anchor="end" style="font-size:12px;font-family:Microsoft YaHei;" xml:space="preserve" transform="translate(72 530)" fill="#B9B8CE">0 hPa</text>
<text dominant-baseline="central" text-anchor="end" style="font-size:12px;font-family:Microsoft YaHei;" xml:space="preserve" transform="translate(72 451.6667)" fill="#B9B8CE">200 hPa</text>
<text dominant-baseline="central" text-anchor="end" style="font-size:12px;font-family:Microsoft YaHei;" xml:space="preserve" transform="translate(72 373.3333)" fill="#B9B8CE">400 hPa</text>
<text dominant-baseline="central" text-anchor="end" style="font-size:12px;font-family:Microsoft YaHei;" xml:space="preserve" transform="translate(72 295)" fill="#B9B8CE">600 hPa</text>
<text dominant-baseline="central" text-anchor="end" style="font-size:12px;font-family:Microsoft YaHei;" xml:space="preserve" transform="translate(72 216.6667)" fill="#B9B8CE">800 hPa</text>
<text dominant-baseline="central" text-anchor="end" style="font-size:12px;font-family:Microsoft YaHei;" xml:space="preserve" transform="translate(72 138.3333)" fill="#B9B8CE">1,000 hPa</text>
<text dominant-baseline="central" text-anchor="end" style="font-size:12px;font-family:Microsoft YaHei;" xml:space="preserve" transform="translate(72 60)" fill="#B9B8CE">1,200 hPa</text>
<text dominant-baseline="central" text-anchor="middle" style="font-size:12px;font-family:Microsoft YaHei;" y="6" transform="translate(83.1681 538)" fill="#B9B8CE">12:38:09</text>
<text dominant-baseline="central" text-anchor="middle" style="font-size:12px;font-family:Microsoft YaHei;" y="6" transform="translate(146.5297 538)" fill="#B9B8CE">12:38:18</text>
<text dominant-baseline="central" text-anchor="middle" style="font-size:12px;font-family:Microsoft YaHei;" y="6" transform="translate(209.8913 538)" fill="#B9B8CE">12:38:28</text>
<text dominant-baseline="central" text-anchor="middle" style="font-size:12px;font-family:Microsoft YaHei;" y="6" transform="translate(273.2529 538)" fill="#B9B8CE">12:38:38</text>
<text dominant-baseline="central" text-anchor="middle" style="font-size:12px;font-family:Microsoft YaHei;" y="6" transform="translate(336.6144 538)" fill="#B9B8CE">12:38:48</text>
<text dominant-baseline="central" text-anchor="middle" style="font-size:12px;font-family:Microsoft YaHei;" y="6" transform="translate(399.976 538)" fill="#B9B8CE">12:38:58</text>
<text dominant-baseline="central" text-anchor="middle" style="font-size:12px;font-family:Microsoft YaHei;" y="6" transform="translate(463.3376 538)" fill="#B9B8CE">12:39:08</text>
<text dominant-baseline="central" text-anchor="middle" style="font-size:12px;font-family:Microsoft YaHei;" y="6" transform="translate(526.6992 538)" fill="#B9B8CE">12:39:18</text>
<text dominant-baseline="central" text-anchor="middle" style="font-size:12px;font-family:Microsoft YaHei;" y="6" transform="translate(590.0608 538)" fill="#B9B8CE">12:39:28</text>
<g clip-path="url(#zr0-c0)">
<path d="M83.1 530L89.4 530L95.7 530L102 530L108.3 530L114.6 530L120.9 530L127.2 530L133.5 133.8L139.8 133.8L146.1 133.8L152.4 133.8L158.7 133.8L164.9 133.8L171.2 133.8L177.5 133.8L183.8 133.8L190.1 133.8L196.4 133.8L202.7 133.8L209 133.7L215.3 133.8L221.6 133.4L227.9 132.7L234.2 134.1L240.4 134.3L246.7 134.1L253 134.2L259.3 134.1L265.6 134.1L271.9 133.8L278.2 135.2L284.5 139.7L290.8 144.4L297.1 151.3L303.4 155.3L309.7 155.6L316 159.2L322.2 163.4L328.5 166.8L334.8 166.4L341.1 171.5L347.4 176.5L353.7 179.9L360 183.5L366.3 183.9L372.6 190L378.9 190.2L385.2 192.9L391.5 196.5L397.8 198.5L404 201.7L410.3 201.2L416.6 203.5L422.9 206L429.2 208.1L435.5 211.2L441.8 210.3L448.1 215.6L454.4 214.5L460.7 217.2L467 219.8L473.3 221L479.6 223.4L485.8 223.8L492.1 225.4L498.4 227.4L504.7 229.5L511 228.3L517.3 230.7L523.6 232.3L529.9 233.9L536.2 235.1L542.5 236.1L548.8 237.2L555.1 239.3L561.3 240.7L567.6 240L573.9 244.2L580.2 243.1L586.5 244.9L592.8 247.2L599.1 248.6L605.4 248.7L611.7 250.7L618 252.3L624.3 253.5L630.6 255.3" fill="none" stroke="#ACDFED" stroke-width="2" stroke-linejoin="bevel"></path>
</g>
<g clip-path="url(#zr0-c1)">
<path d="M83.1 530L89.4 530L95.7 530L102 530L108.3 530L114.6 530L120.9 530L127.2 530L133.5 530L139.8 134.1L146.1 134.1L152.4 134.1L158.7 134.1L164.9 134.1L171.2 134.1L177.5 134.1L183.8 134.1L190.1 134.1L196.4 134.1L202.7 134.1L209 134.1L215.3 134.1L221.6 134.1L227.9 134.1L234.2 134.1L240.4 134.1L246.7 134.1L253 134.1L259.3 134.1L265.6 134.1L271.9 134.1L278.2 134.1L284.5 134.1L290.8 134.1L297.1 134.1L303.4 134.1L309.7 134.1L316 134.1L322.2 134.1L328.5 134.1L334.8 134.1L341.1 134.1L347.4 134.1L353.7 134.1L360 134.1L366.3 134.1L372.6 134.1L378.9 134.1L385.2 134.1L391.5 134.1L397.8 134.1L404 134.1L410.3 134.1L416.6 134.1L422.9 134.1L429.2 134.1L435.5 134.1L441.8 134.1L448.1 134.1L454.4 134.1L460.7 134.1L467 134.1L473.3 134.1L479.6 134.1L485.8 134.1L492.1 134.1L498.4 134.1L504.7 134.1L511 134.1L517.3 134.1L523.6 134.1L529.9 134.1L536.2 134.1L542.5 134.1L548.8 134.1L555.1 134.1L561.3 134.1L567.6 134.1L573.9 134.1L580.2 134.1L586.5 134.1L592.8 134.1L599.1 134.1L605.4 134.1L611.7 134.1L618 134.1L624.3 134.1L630.6 134.1L636.9 134.1" fill="none" stroke="#ACDFED" stroke-width="2" stroke-linejoin="bevel"></path>
</g>
<path d="M0 -1L1 1L-1 1Z" transform="matrix(5,0,0,5,83.1461,530)" fill="#ACDFED"></path>
<path d="M0 -1L1 1L-1 1Z" transform="matrix(5,0,0,5,146.0674,133.7508)" fill="#ACDFED"></path>
<path d="M0 -1L1 1L-1 1Z" transform="matrix(5,0,0,5,208.9888,133.7117)" fill="#ACDFED"></path>
<path d="M0 -1L1 1L-1 1Z" transform="matrix(5,0,0,5,271.9101,133.7508)" fill="#ACDFED"></path>
<path d="M0 -1L1 1L-1 1Z" transform="matrix(5,0,0,5,334.8315,166.3767)" fill="#ACDFED"></path>
<path d="M0 -1L1 1L-1 1Z" transform="matrix(5,0,0,5,397.7528,198.4933)" fill="#ACDFED"></path>
<path d="M0 -1L1 1L-1 1Z" transform="matrix(5,0,0,5,460.6742,217.215)" fill="#ACDFED"></path>
<path d="M0 -1L1 1L-1 1Z" transform="matrix(5,0,0,5,523.5955,232.2942)" fill="#ACDFED"></path>
<path d="M0 -1L1 1L-1 1Z" transform="matrix(5,0,0,5,586.5168,244.945)" fill="#ACDFED"></path>
<path d="M1 0A1 1 0 1 1 1 -0.0001" transform="matrix(5,0,0,5,83.1461,530)" fill="#ACDFED"></path>
<path d="M1 0A1 1 0 1 1 1 -0.0001" transform="matrix(5,0,0,5,146.0674,134.0642)" fill="#ACDFED"></path>
<path d="M1 0A1 1 0 1 1 1 -0.0001" transform="matrix(5,0,0,5,208.9888,134.0642)" fill="#ACDFED"></path>
<path d="M1 0A1 1 0 1 1 1 -0.0001" transform="matrix(5,0,0,5,271.9101,134.0642)" fill="#ACDFED"></path>
<path d="M1 0A1 1 0 1 1 1 -0.0001" transform="matrix(5,0,0,5,334.8315,134.1033)" fill="#ACDFED"></path>
<path d="M1 0A1 1 0 1 1 1 -0.0001" transform="matrix(5,0,0,5,397.7528,134.0642)" fill="#ACDFED"></path>
<path d="M1 0A1 1 0 1 1 1 -0.0001" transform="matrix(5,0,0,5,460.6742,134.0642)" fill="#ACDFED"></path>
<path d="M1 0A1 1 0 1 1 1 -0.0001" transform="matrix(5,0,0,5,523.5955,134.0642)" fill="#ACDFED"></path>
<path d="M1 0A1 1 0 1 1 1 -0.0001" transform="matrix(5,0,0,5,586.5168,134.0642)" fill="#ACDFED"></path>
<path d="M0 0l560 0l0 30l-560 0Z" transform="matrix(1,0,0,-1,82.8,592.5)" fill="rgb(47,69,84)" fill-opacity="0"></path>
<g clip-path="url(#zr0-c2)">
<polygon points="560 0 0 0 0 5.6 6.4 5.6 12.9 5.6 19.3 5.6 25.7 5.6 32.2 5.6 38.6 5.6 45.1 5.6 51.5 24.3 57.9 24.3 64.4 24.3 70.8 24.3 77.2 24.3 83.7 24.3 90.1 24.3 96.6 24.3 103 24.3 109.4 24.3 115.9 24.3 122.3 24.3 128.7 24.3 135.2 24.3 141.6 24.3 148 24.4 154.5 24.3 160.9 24.3 167.4 24.3 173.8 24.3 180.2 24.3 186.7 24.3 193.1 24.3 199.5 24.3 206 24 212.4 23.8 218.9 23.5 225.3 23.3 231.7 23.3 238.2 23.1 244.6 22.9 251 22.8 257.5 22.8 263.9 22.5 270.3 22.3 276.8 22.1 283.2 22 289.7 22 296.1 21.7 302.5 21.7 309 21.5 315.4 21.4 321.8 21.3 328.3 21.1 334.7 21.1 341.1 21 347.6 20.9 354 20.8 360.5 20.7 366.9 20.7 373.3 20.5 379.8 20.5 386.2 20.4 392.6 20.3 399.1 20.2 405.5 20.1 412 20.1 418.4 20 424.8 19.9 431.3 19.8 437.7 19.9 444.1 19.8 450.6 19.7 457 19.6 463.4 19.5 469.9 19.5 476.3 19.4 482.8 19.3 489.2 19.3 495.6 19.3 502.1 19.1 508.5 19.2 514.9 19.1 521.4 19 527.8 18.9 534.3 18.9 540.7 18.8 547.1 18.7 553.6 18.7 560 18.6" transform="matrix(1,0,0,-1,82.8,592.5)" fill="#71708A" fill-opacity="0.2"></polygon>
</g>
<g clip-path="url(#zr0-c3)">
<polygon points="560 0 0 0 0 5.6 6.4 5.6 12.9 5.6 19.3 5.6 25.7 5.6 32.2 5.6 38.6 5.6 45.1 5.6 51.5 24.3 57.9 24.3 64.4 24.3 70.8 24.3 77.2 24.3 83.7 24.3 90.1 24.3 96.6 24.3 103 24.3 109.4 24.3 115.9 24.3 122.3 24.3 128.7 24.3 135.2 24.3 141.6 24.3 148 24.4 154.5 24.3 160.9 24.3 167.4 24.3 173.8 24.3 180.2 24.3 186.7 24.3 193.1 24.3 199.5 24.3 206 24 212.4 23.8 218.9 23.5 225.3 23.3 231.7 23.3 238.2 23.1 244.6 22.9 251 22.8 257.5 22.8 263.9 22.5 270.3 22.3 276.8 22.1 283.2 22 289.7 22 296.1 21.7 302.5 21.7 309 21.5 315.4 21.4 321.8 21.3 328.3 21.1 334.7 21.1 341.1 21 347.6 20.9 354 20.8 360.5 20.7 366.9 20.7 373.3 20.5 379.8 20.5 386.2 20.4 392.6 20.3 399.1 20.2 405.5 20.1 412 20.1 418.4 20 424.8 19.9 431.3 19.8 437.7 19.9 444.1 19.8 450.6 19.7 457 19.6 463.4 19.5 469.9 19.5 476.3 19.4 482.8 19.3 489.2 19.3 495.6 19.3 502.1 19.1 508.5 19.2 514.9 19.1 521.4 19 527.8 18.9 534.3 18.9 540.7 18.8 547.1 18.7 553.6 18.7 560 18.6" transform="matrix(1,0,0,-1,82.8,592.5)" fill="#87A3CE" fill-opacity="0.2"></polygon>
</g>
<g clip-path="url(#zr0-c4)">
<polygon points="560 0 0 0 0 5.6 6.4 5.6 12.9 5.6 19.3 5.6 25.7 5.6 32.2 5.6 38.6 5.6 45.1 5.6 51.5 24.3 57.9 24.3 64.4 24.3 70.8 24.3 77.2 24.3 83.7 24.3 90.1 24.3 96.6 24.3 103 24.3 109.4 24.3 115.9 24.3 122.3 24.3 128.7 24.3 135.2 24.3 141.6 24.3 148 24.4 154.5 24.3 160.9 24.3 167.4 24.3 173.8 24.3 180.2 24.3 186.7 24.3 193.1 24.3 199.5 24.3 206 24 212.4 23.8 218.9 23.5 225.3 23.3 231.7 23.3 238.2 23.1 244.6 22.9 251 22.8 257.5 22.8 263.9 22.5 270.3 22.3 276.8 22.1 283.2 22 289.7 22 296.1 21.7 302.5 21.7 309 21.5 315.4 21.4 321.8 21.3 328.3 21.1 334.7 21.1 341.1 21 347.6 20.9 354 20.8 360.5 20.7 366.9 20.7 373.3 20.5 379.8 20.5 386.2 20.4 392.6 20.3 399.1 20.2 405.5 20.1 412 20.1 418.4 20 424.8 19.9 431.3 19.8 437.7 19.9 444.1 19.8 450.6 19.7 457 19.6 463.4 19.5 469.9 19.5 476.3 19.4 482.8 19.3 489.2 19.3 495.6 19.3 502.1 19.1 508.5 19.2 514.9 19.1 521.4 19 527.8 18.9 534.3 18.9 540.7 18.8 547.1 18.7 553.6 18.7 560 18.6" transform="matrix(1,0,0,-1,82.8,592.5)" fill="#71708A" fill-opacity="0.2"></polygon>
</g>
<g clip-path="url(#zr0-c2)">
<polyline points="0 5.6 6.4 5.6 12.9 5.6 19.3 5.6 25.7 5.6 32.2 5.6 38.6 5.6 45.1 5.6 51.5 24.3 57.9 24.3 64.4 24.3 70.8 24.3 77.2 24.3 83.7 24.3 90.1 24.3 96.6 24.3 103 24.3 109.4 24.3 115.9 24.3 122.3 24.3 128.7 24.3 135.2 24.3 141.6 24.3 148 24.4 154.5 24.3 160.9 24.3 167.4 24.3 173.8 24.3 180.2 24.3 186.7 24.3 193.1 24.3 199.5 24.3 206 24 212.4 23.8 218.9 23.5 225.3 23.3 231.7 23.3 238.2 23.1 244.6 22.9 251 22.8 257.5 22.8 263.9 22.5 270.3 22.3 276.8 22.1 283.2 22 289.7 22 296.1 21.7 302.5 21.7 309 21.5 315.4 21.4 321.8 21.3 328.3 21.1 334.7 21.1 341.1 21 347.6 20.9 354 20.8 360.5 20.7 366.9 20.7 373.3 20.5 379.8 20.5 386.2 20.4 392.6 20.3 399.1 20.2 405.5 20.1 412 20.1 418.4 20 424.8 19.9 431.3 19.8 437.7 19.9 444.1 19.8 450.6 19.7 457 19.6 463.4 19.5 469.9 19.5 476.3 19.4 482.8 19.3 489.2 19.3 495.6 19.3 502.1 19.1 508.5 19.2 514.9 19.1 521.4 19 527.8 18.9 534.3 18.9 540.7 18.8 547.1 18.7 553.6 18.7 560 18.6" transform="matrix(1,0,0,-1,82.8,592.5)" fill="none" stroke="#71708A"></polyline>
</g>
<g clip-path="url(#zr0-c3)">
<polyline points="0 5.6 6.4 5.6 12.9 5.6 19.3 5.6 25.7 5.6 32.2 5.6 38.6 5.6 45.1 5.6 51.5 24.3 57.9 24.3 64.4 24.3 70.8 24.3 77.2 24.3 83.7 24.3 90.1 24.3 96.6 24.3 103 24.3 109.4 24.3 115.9 24.3 122.3 24.3 128.7 24.3 135.2 24.3 141.6 24.3 148 24.4 154.5 24.3 160.9 24.3 167.4 24.3 173.8 24.3 180.2 24.3 186.7 24.3 193.1 24.3 199.5 24.3 206 24 212.4 23.8 218.9 23.5 225.3 23.3 231.7 23.3 238.2 23.1 244.6 22.9 251 22.8 257.5 22.8 263.9 22.5 270.3 22.3 276.8 22.1 283.2 22 289.7 22 296.1 21.7 302.5 21.7 309 21.5 315.4 21.4 321.8 21.3 328.3 21.1 334.7 21.1 341.1 21 347.6 20.9 354 20.8 360.5 20.7 366.9 20.7 373.3 20.5 379.8 20.5 386.2 20.4 392.6 20.3 399.1 20.2 405.5 20.1 412 20.1 418.4 20 424.8 19.9 431.3 19.8 437.7 19.9 444.1 19.8 450.6 19.7 457 19.6 463.4 19.5 469.9 19.5 476.3 19.4 482.8 19.3 489.2 19.3 495.6 19.3 502.1 19.1 508.5 19.2 514.9 19.1 521.4 19 527.8 18.9 534.3 18.9 540.7 18.8 547.1 18.7 553.6 18.7 560 18.6" transform="matrix(1,0,0,-1,82.8,592.5)" fill="none" stroke="#87A3CE" stroke-width="0.5"></polyline>
</g>
<g clip-path="url(#zr0-c4)">
<polyline points="0 5.6 6.4 5.6 12.9 5.6 19.3 5.6 25.7 5.6 32.2 5.6 38.6 5.6 45.1 5.6 51.5 24.3 57.9 24.3 64.4 24.3 70.8 24.3 77.2 24.3 83.7 24.3 90.1 24.3 96.6 24.3 103 24.3 109.4 24.3 115.9 24.3 122.3 24.3 128.7 24.3 135.2 24.3 141.6 24.3 148 24.4 154.5 24.3 160.9 24.3 167.4 24.3 173.8 24.3 180.2 24.3 186.7 24.3 193.1 24.3 199.5 24.3 206 24 212.4 23.8 218.9 23.5 225.3 23.3 231.7 23.3 238.2 23.1 244.6 22.9 251 22.8 257.5 22.8 263.9 22.5 270.3 22.3 276.8 22.1 283.2 22 289.7 22 296.1 21.7 302.5 21.7 309 21.5 315.4 21.4 321.8 21.3 328.3 21.1 334.7 21.1 341.1 21 347.6 20.9 354 20.8 360.5 20.7 366.9 20.7 373.3 20.5 379.8 20.5 386.2 20.4 392.6 20.3 399.1 20.2 405.5 20.1 412 20.1 418.4 20 424.8 19.9 431.3 19.8 437.7 19.9 444.1 19.8 450.6 19.7 457 19.6 463.4 19.5 469.9 19.5 476.3 19.4 482.8 19.3 489.2 19.3 495.6 19.3 502.1 19.1 508.5 19.2 514.9 19.1 521.4 19 527.8 18.9 534.3 18.9 540.7 18.8 547.1 18.7 553.6 18.7 560 18.6" transform="matrix(1,0,0,-1,82.8,592.5)" fill="none" stroke="#71708A"></polyline>
</g>
<path d="M-5 -5l691.0547 0l0 22l-691.0547 0Z" transform="translate(59.4727 5)" fill="rgb(0,0,0)" fill-opacity="0" stroke="#ccc" stroke-width="0"></path>
<path d="M0 7L25 7" transform="translate(60.4727 4)" fill="#000" stroke="#ACDFED" stroke-width="2" stroke-linecap="butt" stroke-miterlimit="10"></path>
<path d="M12.5 1.4L18.1 12.6L6.9 12.6Z" transform="translate(60.4727 4)" fill="#ACDFED"></path>
<text dominant-baseline="central" text-anchor="start" style="font-size:12px;font-family:Microsoft YaHei;" x="30" y="7" transform="translate(60.4727 4)" fill="#B9B8CE">Pipe_Pres</text>
<path d="M0 7L25 7" transform="translate(156.1465 4)" fill="#000" stroke="#ACDFED" stroke-width="2" stroke-linecap="butt" stroke-miterlimit="10"></path>
<path d="M18.1 7A5.6 5.6 0 1 1 18.1 6.9994" transform="translate(156.1465 4)" fill="#ACDFED"></path>
<text dominant-baseline="central" text-anchor="start" style="font-size:12px;font-family:Microsoft YaHei;" x="30" y="7" transform="translate(156.1465 4)" fill="#B9B8CE">Ambient_Pres</text>
<path d="M0 7L25 7" transform="translate(276.0313 4)" fill="#000" stroke="#ccc" stroke-width="2" stroke-linecap="butt" stroke-miterlimit="10"></path>
<path d="M12.5 1.4L18.1 12.6L6.9 12.6Z" transform="translate(276.0313 4)" fill="#ccc" stroke="#ccc" stroke-width="0" stroke-linecap="butt" stroke-miterlimit="10"></path>
<text dominant-baseline="central" text-anchor="start" style="font-size:12px;font-family:Microsoft YaHei;" x="30" y="7" transform="translate(276.0313 4)" fill="#ccc">Pipe_Temp</text>
<path d="M0 7L25 7" transform="translate(380.0137 4)" fill="#000" stroke="#ccc" stroke-width="2" stroke-linecap="butt" stroke-miterlimit="10"></path>
<path d="M18.1 7A5.6 5.6 0 1 1 18.1 6.9994" transform="translate(380.0137 4)" fill="#ccc" stroke="#ccc" stroke-width="0" stroke-linecap="butt" stroke-miterlimit="10"></path>
<text dominant-baseline="central" text-anchor="start" style="font-size:12px;font-family:Microsoft YaHei;" x="30" y="7" transform="translate(380.0137 4)" fill="#ccc">Chip_Temp</text>
<path d="M0 7L25 7" transform="translate(485.2617 4)" fill="#000" stroke="#ccc" stroke-width="2" stroke-linecap="butt" stroke-miterlimit="10"></path>
<path d="M18.1 7A5.6 5.6 0 1 1 18.1 6.9994" transform="translate(485.2617 4)" fill="#ccc" stroke="#ccc" stroke-width="0" stroke-linecap="butt" stroke-miterlimit="10"></path>
<text dominant-baseline="central" text-anchor="start" style="font-size:12px;font-family:Microsoft YaHei;" x="30" y="7" transform="translate(485.2617 4)" fill="#ccc">Set_nPressure</text>
<path d="M0 7L25 7" transform="translate(605.8672 4)" fill="#000" stroke="#ccc" stroke-width="2" stroke-linecap="butt" stroke-miterlimit="10"></path>
<path d="M12.5 1.4L18.1 12.6L6.9 12.6Z" transform="translate(605.8672 4)" fill="#ccc" stroke="#ccc" stroke-width="0" stroke-linecap="butt" stroke-miterlimit="10"></path>
<text dominant-baseline="central" text-anchor="start" style="font-size:12px;font-family:Microsoft YaHei;" x="30" y="7" transform="translate(605.8672 4)" fill="#ccc">Current_nPressure</text>
<path d="M0 0l560 0l0 30l-560 0Z" transform="matrix(1,0,0,-1,82.8,592.5)" fill="none"></path>
<path d="M0 0l560 0l0 30l-560 0Z" transform="matrix(1,0,0,-1,82.8,592.5)" fill="rgb(135,163,206)" fill-opacity="0.2"></path>
<path d="M3.5 0.5L556.5 0.5A3 3 0 0 1 559.5 3.5L559.5 26.5A3 3 0 0 1 556.5 29.5L3.5 29.5A3 3 0 0 1 0.5 26.5L0.5 3.5A3 3 0 0 1 3.5 0.5" transform="matrix(1,0,0,-1,82.8,592.5)" fill="rgb(0,0,0)" fill-opacity="0" stroke="#71708A"></path>
<path d="M0 29.5L560 29.5L560 34.5A2 2 0 0 1 558 36.5L2 36.5A2 2 0 0 1 0 34.5L0 29.5" transform="matrix(1,0,0,-1,82.8,592.5)" fill="#B0B6C3" fill-opacity="0.3"></path>
<path d="M-2.2408 -1.6796C-1.8674 -1.6796 -1.6817 -1.4939 -1.6817 -1.1204L-1.6817 1.1204C-1.6817 1.4939 -1.8674 1.6796 -2.2408 1.6796C-2.6143 1.6796 -2.8 1.4939 -2.8 1.1204L-2.8 -1.1204C-2.8 -1.4939 -2.6143 -1.6796 -2.2408 -1.6796ZM0 -1.6796C0.3735 -1.6796 0.5592 -1.4939 0.5592 -1.1204L0.5592 1.1204C0.5592 1.4939 0.3735 1.6796 0 1.6796C-0.3735 1.6796 -0.5592 1.4939 -0.5592 1.1204L-0.5592 -1.1204C-0.5592 -1.4939 -0.3735 -1.6796 0 -1.6796ZM2.2408 -1.6796C2.6143 -1.6796 2.8 -1.4939 2.8 -1.1204L2.8 1.1204C2.8 1.4939 2.6143 1.6796 2.2408 1.6796C1.8674 1.6796 1.6817 1.4939 1.6817 1.1204L1.6817 -1.1204C1.6796 -1.4939 1.8674 -1.6796 2.2408 -1.6796Z" transform="matrix(1,0,0,-1,362.8,559.5)" fill="#fff"></path>
<path d="M0 1.628L0 2M0 0L0 0.375M-0.1 0.375L0.1 0.375A0.1 0.1 0 0 1 0.2 0.475L0.2 1.525A0.1 0.1 0 0 1 0.1 1.625L-0.1 1.625A0.1 0.1 0 0 1 -0.2 1.525L-0.2 0.475A0.1 0.1 0 0 1 -0.1 0.375Z" transform="matrix(15,0,0,-15,83.8,592.5)" fill="#353450" stroke="#C5CBE3" stroke-width="0.06666666666666667"></path>
<path d="M0 1.628L0 2M0 0L0 0.375M-0.1 0.375L0.1 0.375A0.1 0.1 0 0 1 0.2 0.475L0.2 1.525A0.1 0.1 0 0 1 0.1 1.625L-0.1 1.625A0.1 0.1 0 0 1 -0.2 1.525L-0.2 0.475A0.1 0.1 0 0 1 -0.1 0.375Z" transform="matrix(15,0,0,-15,641.8,592.5)" fill="#353450" stroke="#C5CBE3" stroke-width="0.06666666666666667"></path>
<defs >
<clipPath id="zr0-c0">
<path d="M79 59l561.993 0l0 472l-561.993 0Z" fill="#000" class="zr0-cls-0"></path>
</clipPath>
<clipPath id="zr0-c1">
<path d="M79 59l562 0l0 472l-562 0Z" fill="#000" class="zr0-cls-1"></path>
</clipPath>
<clipPath id="zr0-c2">
<path d="M0 0l0 0l0 30l0 0Z" transform="matrix(1,0,0,-1,82.8,592.5)" fill="#000"></path>
</clipPath>
<clipPath id="zr0-c3">
<path d="M0 0l560 0l0 30l-560 0Z" transform="matrix(1,0,0,-1,82.8,592.5)" fill="#000"></path>
</clipPath>
<clipPath id="zr0-c4">
<path d="M560 0l0 0l0 30l0 0Z" transform="matrix(1,0,0,-1,82.8,592.5)" fill="#000"></path>
</clipPath>
</defs>
<style ><![CDATA[
.zr0-cls-0 {
animation:zr0-ani-0 1s linear both;
}
.zr0-cls-1 {
animation:zr0-ani-1 1s linear both;
}
@keyframes zr0-ani-0 {
0% {
d:path("M79 59l562 0l0 472l-562 0Z");
}
100% {
d:path("M79 59l562 0l0 472l-562 0Z");
}
}
@keyframes zr0-ani-1 {
0% {
d:path("M79 59l562 0l0 472l-562 0Z");
}
100% {
d:path("M79 59l562 0l0 472l-562 0Z");
}
}
]]>

</style>
</svg>