<svg width="800" height="600" xmlns="http://www.w3.org/2000/svg" xmlns:xlink="http://www.w3.org/1999/xlink" version="1.1" baseProfile="full" viewBox="0 0 800 600">
<rect width="800" height="600" x="0" y="0" id="0" fill="rgb(40, 44, 52)" fill-opacity="1"></rect>
<path d="M80 530.5L640 530.5" fill="none" stroke="#484753"></path>
<path d="M80 463.5L640 463.5" fill="none" stroke="#484753"></path>
<path d="M80 395.5L640 395.5" fill="none" stroke="#484753"></path>
<path d="M80 328.5L640 328.5" fill="none" stroke="#484753"></path>
<path d="M80 261.5L640 261.5" fill="none" stroke="#484753"></path>
<path d="M80 194.5L640 194.5" fill="none" stroke="#484753"></path>
<path d="M80 127.5L640 127.5" fill="none" stroke="#484753"></path>
<path d="M80 60.5L640 60.5" fill="none" stroke="#484753"></path>
<path d="M80.5 530L80.5 60" fill="none" stroke="#ACDFED" stroke-linecap="round"></path>
<text dominant-baseline="central" text-anchor="middle" style="font-size:12px;font-family:Microsoft YaHei;" y="-6" transform="translate(80 45)" fill="#B9B8CE">压力</text>
<path d="M640.5 530L640.5 60" fill="none" stroke="#FFAB91" stroke-linecap="round"></path>
<text dominant-baseline="central" text-anchor="middle" style="font-size:12px;font-family:Microsoft YaHei;" y="-6" transform="translate(640 45)" fill="#B9B8CE">温度</text>
<path d="M720.5 530L720.5 60" fill="none" stroke="#f7f494" stroke-linecap="round"></path>
<text dominant-baseline="central" text-anchor="middle" style="font-size:12px;font-family:Microsoft YaHei;" y="-6" transform="translate(720 45)" fill="#B9B8CE">负压</text>
<path d="M80 530.5L640 530.5" fill="none" stroke="#B9B8CE" stroke-linecap="round"></path>
<path d="M81.5 530L81.5 535" fill="none" stroke="#B9B8CE"></path>
<path d="M146.5 530L146.5 535" fill="none" stroke="#B9B8CE"></path>
<path d="M211.5 530L211.5 535" fill="none" stroke="#B9B8CE"></path>
<path d="M276.5 530L276.5 535" fill="none" stroke="#B9B8CE"></path>
<path d="M341.5 530L341.5 535" fill="none" stroke="#B9B8CE"></path>
<path d="M406.5 530L406.5 535" fill="none" stroke="#B9B8CE"></path>
<path d="M471.5 530L471.5 535" fill="none" stroke="#B9B8CE"></path>
<path d="M536.5 530L536.5 535" fill="none" stroke="#B9B8CE"></path>
<path d="M601.5 530L601.5 535" fill="none" stroke="#B9B8CE"></path>
<text dominant-baseline="central" text-anchor="start" style="font-size:12px;font-family:Microsoft YaHei;" xml:space="preserve" transform="translate(728 530)" fill="#B9B8CE">0 hPa</text>
<text dominant-baseline="central" text-anchor="start" style="font-size:12px;font-family:Microsoft YaHei;" xml:space="preserve" transform="translate(728 462.8571)" fill="#B9B8CE">30 hPa</text>
<text dominant-baseline="central" text-anchor="start" style="font-size:12px;font-family:Microsoft YaHei;" xml:space="preserve" transform="translate(728 395.7143)" fill="#B9B8CE">60 hPa</text>
<text dominant-baseline="central" text-anchor="start" style="font-size:12px;font-family:Microsoft YaHei;" xml:space="preserve" transform="translate(728 328.5714)" fill="#B9B8CE">90 hPa</text>
<text dominant-baseline="central" text-anchor="start" style="font-size:12px;font-family:Microsoft YaHei;" xml:space="preserve" transform="translate(728 261.4286)" fill="#B9B8CE">120 hPa</text>
<text dominant-baseline="central" text-anchor="start" style="font-size:12px;font-family:Microsoft YaHei;" xml:space="preserve" transform="translate(728 194.2857)" fill="#B9B8CE">150 hPa</text>
<text dominant-baseline="central" text-anchor="start" style="font-size:12px;font-family:Microsoft YaHei;" xml:space="preserve" transform="translate(728 127.1429)" fill="#B9B8CE">180 hPa</text>
<text dominant-baseline="central" text-anchor="start" style="font-size:12px;font-family:Microsoft YaHei;" xml:space="preserve" transform="translate(728 60)" fill="#B9B8CE">210 hPa</text>
<text dominant-baseline="central" text-anchor="middle" style="font-size:12px;font-family:Microsoft YaHei;" y="6" transform="translate(81.547 538)" fill="#B9B8CE">19:12:37</text>
<text dominant-baseline="central" text-anchor="middle" style="font-size:12px;font-family:Microsoft YaHei;" y="6" transform="translate(146.5193 538)" fill="#B9B8CE">19:12:58</text>
<text dominant-baseline="central" text-anchor="middle" style="font-size:12px;font-family:Microsoft YaHei;" y="6" transform="translate(211.4917 538)" fill="#B9B8CE">19:13:19</text>
<text dominant-baseline="central" text-anchor="middle" style="font-size:12px;font-family:Microsoft YaHei;" y="6" transform="translate(276.4641 538)" fill="#B9B8CE">19:13:40</text>
<text dominant-baseline="central" text-anchor="middle" style="font-size:12px;font-family:Microsoft YaHei;" y="6" transform="translate(341.4365 538)" fill="#B9B8CE">19:14:01</text>
<text dominant-baseline="central" text-anchor="middle" style="font-size:12px;font-family:Microsoft YaHei;" y="6" transform="translate(406.4088 538)" fill="#B9B8CE">19:14:22</text>
<text dominant-baseline="central" text-anchor="middle" style="font-size:12px;font-family:Microsoft YaHei;" y="6" transform="translate(471.3812 538)" fill="#B9B8CE">19:14:43</text>
<text dominant-baseline="central" text-anchor="middle" style="font-size:12px;font-family:Microsoft YaHei;" y="6" transform="translate(536.3536 538)" fill="#B9B8CE">19:15:04</text>
<text dominant-baseline="central" text-anchor="middle" style="font-size:12px;font-family:Microsoft YaHei;" y="6" transform="translate(601.326 538)" fill="#B9B8CE">19:15:25</text>
<g clip-path="url(#zr0-c0)">
<path d="M81.547 528.2095L84.6409 528.2095L87.7348 528.2095L90.8287 528.2095L93.9227 528.2095L97.0166 528.2095L100.1105 528.2095L103.2044 528.2095L106.2983 528.2095L109.3923 528.2095L112.4862 528.2095L115.5801 528.2095L118.674 528.2095L121.768 528.2095L124.8619 527.9857L127.9558 527.9857L131.0497 527.9857L134.1436 528.2095L137.2376 527.9857L140.3315 528.2095L143.4254 527.9857L146.5193 527.9857L149.6133 527.9857L152.7072 527.9857L155.8011 528.2095L158.895 528.2095L161.989 527.9857L165.0829 527.9857L168.1768 528.2095L171.2707 527.9857L174.3646 527.9857L177.4586 527.9857L180.5525 509.1857L183.6464 481.881L186.7403 462.8571L189.8343 421.9L192.9282 412.9476L196.0221 387.6571L199.116 367.5143L202.2099 340.6571L205.3039 332.8238L208.3978 322.9762L211.4917 320.7381L214.5856 318.5L217.6796 314.919L220.7735 318.5L223.8674 316.7095L226.9613 320.7381L230.0553 318.9476L233.1492 320.2905L236.2431 320.9619L239.337 323.8714L242.4309 323.6476L245.5249 325.4381L248.6188 324.7667L251.7127 327.0048L254.8066 326.3333L257.9005 328.1238L260.9945 327.6762L264.0884 329.4667L267.1823 328.1238L270.2762 329.019L273.3702 331.9286L276.4641 332.3762L279.558 329.9143L282.6519 333.4952L285.7458 333.7191L288.8398 334.8381L291.9337 333.9429L295.0276 335.7333L298.1216 333.0476L301.2155 335.0619L304.3094 335.2857L307.4033 333.7191L310.4972 336.4048L313.5912 336.1809L316.6851 335.0619L319.779 337.5238L322.8729 336.4048L325.9669 337.0762L329.0608 337.9714L332.1547 336.6286L335.2486 336.6286L338.3425 335.9572L341.4365 338.419L344.5304 339.0905L347.6243 338.8667L350.7182 341.1048L353.8122 340.2095L356.9061 338.419L360 338.1953L363.0939 337.0762L366.1878 340.4333L369.2818 339.3143L372.3757 340.6571L375.4696 340.6571L378.5635 340.2095L381.6575 337.5238L384.7514 337.9714L387.8453 338.8667L390.9392 339.0905L394.0331 339.7619L397.1271 329.6905L400.221 299.2524L403.3149 280.9L406.4088 257.1762L409.5028 255.1619L412.5967 244.4191L415.6906 246.4333L418.7845 245.3143L421.8784 246.6572L424.9724 239.4952L428.0663 240.3905L431.1602 238.3762L434.2542 240.3905L437.3481 239.2714L440.442 239.4952L443.5359 238.3762L446.6298 238.8238L449.7238 240.8381L452.8177 243.0762L455.9116 242.181L459.0055 241.5095L462.0995 238.1524L465.1934 241.2857L468.2873 240.6143L471.3812 242.181L474.4751 237.7048L477.5691 240.1667L480.663 242.8524L483.7569 237.7048L486.8508 238.1524L489.9448 242.181L493.0387 244.6429L496.1326 241.0619L499.2265 243.7476L502.3204 238.3762L505.4144 240.1667L508.5083 241.0619L511.6022 241.0619L514.6961 241.5095L517.79 224.5L520.884 215.7714L523.9779 192.7191L527.0718 180.8571L530.1658 167.6524L533.2596 147.5095L536.3536 133.8571L539.4475 130.7238L542.5414 128.9333L545.6354 127.3667L548.7293 126.4714L551.8232 124.4571L554.9171 128.9333L558.011 128.7095L561.105 130.0524L564.1989 122.4429L567.2928 124.4571L570.3867 129.1572L573.4807 128.7095L576.5746 129.6048L579.6685 127.8143L582.7625 127.1429L585.8563 127.1429L588.9503 131.8428L592.0442 130.9476L595.1381 128.0381L598.2321 132.9619L601.326 127.1429L604.4199 128.9333L607.5138 127.5905L610.6077 132.2905L613.7017 128.9333L616.7956 126.4714L619.8895 128.7095L622.9834 131.619L626.0773 132.7381L629.1713 130.5L632.2652 134.0809L635.3591 131.1714L638.4531 136.319" fill="none" stroke="#f7f494" stroke-width="2" stroke-linejoin="bevel"></path>
</g>
<g clip-path="url(#zr0-c1)">
<path d="M81.547 530L84.6409 530L87.7348 530L90.8287 530L93.9227 530L97.0166 530L100.1105 530L103.2044 530L106.2983 530L109.3923 530L112.4862 530L115.5801 530L118.674 530L121.768 530L124.8619 530L127.9558 530L131.0497 530L134.1436 530L137.2376 530L140.3315 530L143.4254 530L146.5193 530L149.6133 530L152.7072 530L155.8011 530L158.895 530L161.989 530L165.0829 530L168.1768 530L171.2707 342L174.3646 342L177.4586 342L180.5525 342L183.6464 342L186.7403 342L189.8343 342L192.9282 342L196.0221 342L199.116 342L202.2099 342L205.3039 342L208.3978 342L211.4917 342L214.5856 342L217.6796 342L220.7735 342L223.8674 342L226.9613 342L230.0553 342L233.1492 342L236.2431 342L239.337 342L242.4309 342L245.5249 342L248.6188 342L251.7127 342L254.8066 342L257.9005 342L260.9945 342L264.0884 342L267.1823 342L270.2762 342L273.3702 342L276.4641 342L279.558 342L282.6519 342L285.7458 342L288.8398 342L291.9337 342L295.0276 342L298.1216 342L301.2155 342L304.3094 342L307.4033 342L310.4972 342L313.5912 342L316.6851 342L319.779 342L322.8729 342L325.9669 342L329.0608 342L332.1547 342L335.2486 342L338.3425 342L341.4365 342L344.5304 342L347.6243 342L350.7182 342L353.8122 342L356.9061 342L360 342L363.0939 342L366.1878 342L369.2818 342L372.3757 342L375.4696 342L378.5635 342L381.6575 342L384.7514 342L387.8453 342L390.9392 342L394.0331 342L397.1271 243.5238L400.221 243.5238L403.3149 243.5238L406.4088 243.5238L409.5028 243.5238L412.5967 243.5238L415.6906 243.5238L418.7845 243.5238L421.8784 243.5238L424.9724 243.5238L428.0663 243.5238L431.1602 243.5238L434.2542 243.5238L437.3481 243.5238L440.442 243.5238L443.5359 243.5238L446.6298 243.5238L449.7238 243.5238L452.8177 243.5238L455.9116 243.5238L459.0055 243.5238L462.0995 243.5238L465.1934 243.5238L468.2873 243.5238L471.3812 243.5238L474.4751 243.5238L477.5691 243.5238L480.663 243.5238L483.7569 243.5238L486.8508 243.5238L489.9448 243.5238L493.0387 243.5238L496.1326 243.5238L499.2265 243.5238L502.3204 243.5238L505.4144 243.5238L508.5083 243.5238L511.6022 243.5238L514.6961 133.8571L517.79 133.8571L520.884 133.8571L523.9779 133.8571L527.0718 133.8571L530.1658 133.8571L533.2596 133.8571L536.3536 133.8571L539.4475 133.8571L542.5414 133.8571L545.6354 133.8571L548.7293 133.8571L551.8232 133.8571L554.9171 133.8571L558.011 133.8571L561.105 133.8571L564.1989 133.8571L567.2928 133.8571L570.3867 133.8571L573.4807 133.8571L576.5746 133.8571L579.6685 133.8571L582.7625 133.8571L585.8563 133.8571L588.9503 133.8571L592.0442 133.8571L595.1381 133.8571L598.2321 133.8571L601.326 133.8571L604.4199 133.8571L607.5138 133.8571L610.6077 133.8571L613.7017 133.8571L616.7956 133.8571L619.8895 133.8571L622.9834 133.8571L626.0773 133.8571L629.1713 133.8571L632.2652 133.8571L635.3591 133.8571L638.4531 133.8571" fill="none" stroke="#f7f494" stroke-width="2" stroke-linejoin="bevel"></path>
</g>
<path d="M0 -1L1 1L-1 1Z" transform="matrix(5,0,0,5,81.547,528.2095)" fill="#f7f494"></path>
<path d="M0 -1L1 1L-1 1Z" transform="matrix(5,0,0,5,146.5193,527.9857)" fill="#f7f494"></path>
<path d="M0 -1L1 1L-1 1Z" transform="matrix(5,0,0,5,211.4917,320.7381)" fill="#f7f494"></path>
<path d="M0 -1L1 1L-1 1Z" transform="matrix(5,0,0,5,276.4641,332.3762)" fill="#f7f494"></path>
<path d="M0 -1L1 1L-1 1Z" transform="matrix(5,0,0,5,341.4365,338.419)" fill="#f7f494"></path>
<path d="M0 -1L1 1L-1 1Z" transform="matrix(5,0,0,5,406.4088,257.1762)" fill="#f7f494"></path>
<path d="M0 -1L1 1L-1 1Z" transform="matrix(5,0,0,5,471.3812,242.181)" fill="#f7f494"></path>
<path d="M0 -1L1 1L-1 1Z" transform="matrix(5,0,0,5,536.3536,133.8571)" fill="#f7f494"></path>
<path d="M0 -1L1 1L-1 1Z" transform="matrix(5,0,0,5,601.326,127.1429)" fill="#f7f494"></path>
<path d="M1 0A1 1 0 1 1 1 -0.0001" transform="matrix(5,0,0,5,81.547,530)" fill="#f7f494"></path>
<path d="M1 0A1 1 0 1 1 1 -0.0001" transform="matrix(5,0,0,5,146.5193,530)" fill="#f7f494"></path>
<path d="M1 0A1 1 0 1 1 1 -0.0001" transform="matrix(5,0,0,5,211.4917,342)" fill="#f7f494"></path>
<path d="M1 0A1 1 0 1 1 1 -0.0001" transform="matrix(5,0,0,5,276.4641,342)" fill="#f7f494"></path>
<path d="M1 0A1 1 0 1 1 1 -0.0001" transform="matrix(5,0,0,5,341.4365,342)" fill="#f7f494"></path>
<path d="M1 0A1 1 0 1 1 1 -0.0001" transform="matrix(5,0,0,5,406.4088,243.5238)" fill="#f7f494"></path>
<path d="M1 0A1 1 0 1 1 1 -0.0001" transform="matrix(5,0,0,5,471.3812,243.5238)" fill="#f7f494"></path>
<path d="M1 0A1 1 0 1 1 1 -0.0001" transform="matrix(5,0,0,5,536.3536,133.8571)" fill="#f7f494"></path>
<path d="M1 0A1 1 0 1 1 1 -0.0001" transform="matrix(5,0,0,5,601.326,133.8571)" fill="#f7f494"></path>
<path d="M0 0l560 0l0 30l-560 0Z" transform="matrix(1,0,0,-1,82.8,592.5)" fill="rgb(47,69,84)" fill-opacity="0"></path>
<g clip-path="url(#zr0-c2)">
<polygon points="560 0 0 0 0 5.6 3.1 5.6 6.2 5.6 9.3 5.6 12.4 5.6 15.6 5.6 18.7 5.6 21.8 5.6 24.9 5.6 28 5.6 31.1 5.6 34.2 5.6 37.3 5.6 40.4 5.6 43.6 5.6 46.7 5.6 49.8 5.6 52.9 5.6 56 5.6 59.1 5.6 62.2 5.6 65.3 5.6 68.4 5.6 71.6 5.6 74.7 5.6 77.8 5.6 80.9 5.6 84 5.6 87.1 5.6 90.2 5.6 93.3 5.6 96.4 5.6 99.6 6.5 102.7 7.8 105.8 8.6 108.9 10.5 112 11 115.1 12.1 118.2 13.1 121.3 14.3 124.4 14.7 127.6 15.1 130.7 15.2 133.8 15.3 136.9 15.5 140 15.3 143.1 15.4 146.2 15.2 149.3 15.3 152.4 15.2 155.6 15.2 158.7 15.1 161.8 15.1 164.9 15 168 15 171.1 14.9 174.2 15 177.3 14.9 180.4 14.9 183.6 14.8 186.7 14.9 189.8 14.8 192.9 14.7 196 14.7 199.1 14.8 202.2 14.6 205.3 14.6 208.4 14.6 211.6 14.6 214.7 14.5 217.8 14.6 220.9 14.6 224 14.5 227.1 14.6 230.2 14.5 233.3 14.5 236.4 14.6 239.6 14.4 242.7 14.5 245.8 14.5 248.9 14.4 252 14.5 255.1 14.5 258.2 14.5 261.3 14.4 264.4 14.4 267.6 14.4 270.7 14.3 273.8 14.3 276.9 14.4 280 14.4 283.1 14.5 286.2 14.3 289.3 14.4 292.4 14.3 295.6 14.3 298.7 14.3 301.8 14.4 304.9 14.4 308 14.4 311.1 14.4 314.2 14.3 317.3 14.8 320.4 16.2 323.6 17.1 326.7 18.1 329.8 18.2 332.9 18.7 336 18.6 339.1 18.7 342.2 18.6 345.3 19 348.4 18.9 351.6 19 354.7 18.9 357.8 19 360.9 19 364 19 367.1 19 370.2 18.9 373.3 18.8 376.4 18.8 379.6 18.9 382.7 19 385.8 18.9 388.9 18.9 392 18.8 395.1 19 398.2 18.9 401.3 18.8 404.4 19 407.6 19 410.7 18.8 413.8 18.7 416.9 18.9 420 18.8 423.1 19 426.2 18.9 429.3 18.9 432.4 18.9 435.6 18.9 438.7 19.7 441.8 20.1 444.9 21.1 448 21.7 451.1 22.3 454.2 23.2 457.3 23.8 460.4 24 463.6 24.1 466.7 24.1 469.8 24.2 472.9 24.3 476 24.1 479.1 24.1 482.2 24 485.3 24.4 488.4 24.3 491.6 24.1 494.7 24.1 497.8 24 500.9 24.1 504 24.2 507.1 24.2 510.2 23.9 513.3 24 516.4 24.1 519.6 23.9 522.7 24.2 525.8 24.1 528.9 24.1 532 23.9 535.1 24.1 538.2 24.2 541.3 24.1 544.4 24 547.6 23.9 550.7 24 553.8 23.8 556.9 24 560 23.7" transform="matrix(1,0,0,-1,82.8,592.5)" fill="#71708A" fill-opacity="0.2"></polygon>
</g>
<g clip-path="url(#zr0-c3)">
<polygon points="560 0 0 0 0 5.6 3.1 5.6 6.2 5.6 9.3 5.6 12.4 5.6 15.6 5.6 18.7 5.6 21.8 5.6 24.9 5.6 28 5.6 31.1 5.6 34.2 5.6 37.3 5.6 40.4 5.6 43.6 5.6 46.7 5.6 49.8 5.6 52.9 5.6 56 5.6 59.1 5.6 62.2 5.6 65.3 5.6 68.4 5.6 71.6 5.6 74.7 5.6 77.8 5.6 80.9 5.6 84 5.6 87.1 5.6 90.2 5.6 93.3 5.6 96.4 5.6 99.6 6.5 102.7 7.8 105.8 8.6 108.9 10.5 112 11 115.1 12.1 118.2 13.1 121.3 14.3 124.4 14.7 127.6 15.1 130.7 15.2 133.8 15.3 136.9 15.5 140 15.3 143.1 15.4 146.2 15.2 149.3 15.3 152.4 15.2 155.6 15.2 158.7 15.1 161.8 15.1 164.9 15 168 15 171.1 14.9 174.2 15 177.3 14.9 180.4 14.9 183.6 14.8 186.7 14.9 189.8 14.8 192.9 14.7 196 14.7 199.1 14.8 202.2 14.6 205.3 14.6 208.4 14.6 211.6 14.6 214.7 14.5 217.8 14.6 220.9 14.6 224 14.5 227.1 14.6 230.2 14.5 233.3 14.5 236.4 14.6 239.6 14.4 242.7 14.5 245.8 14.5 248.9 14.4 252 14.5 255.1 14.5 258.2 14.5 261.3 14.4 264.4 14.4 267.6 14.4 270.7 14.3 273.8 14.3 276.9 14.4 280 14.4 283.1 14.5 286.2 14.3 289.3 14.4 292.4 14.3 295.6 14.3 298.7 14.3 301.8 14.4 304.9 14.4 308 14.4 311.1 14.4 314.2 14.3 317.3 14.8 320.4 16.2 323.6 17.1 326.7 18.1 329.8 18.2 332.9 18.7 336 18.6 339.1 18.7 342.2 18.6 345.3 19 348.4 18.9 351.6 19 354.7 18.9 357.8 19 360.9 19 364 19 367.1 19 370.2 18.9 373.3 18.8 376.4 18.8 379.6 18.9 382.7 19 385.8 18.9 388.9 18.9 392 18.8 395.1 19 398.2 18.9 401.3 18.8 404.4 19 407.6 19 410.7 18.8 413.8 18.7 416.9 18.9 420 18.8 423.1 19 426.2 18.9 429.3 18.9 432.4 18.9 435.6 18.9 438.7 19.7 441.8 20.1 444.9 21.1 448 21.7 451.1 22.3 454.2 23.2 457.3 23.8 460.4 24 463.6 24.1 466.7 24.1 469.8 24.2 472.9 24.3 476 24.1 479.1 24.1 482.2 24 485.3 24.4 488.4 24.3 491.6 24.1 494.7 24.1 497.8 24 500.9 24.1 504 24.2 507.1 24.2 510.2 23.9 513.3 24 516.4 24.1 519.6 23.9 522.7 24.2 525.8 24.1 528.9 24.1 532 23.9 535.1 24.1 538.2 24.2 541.3 24.1 544.4 24 547.6 23.9 550.7 24 553.8 23.8 556.9 24 560 23.7" transform="matrix(1,0,0,-1,82.8,592.5)" fill="#87A3CE" fill-opacity="0.2"></polygon>
</g>
<g clip-path="url(#zr0-c4)">
<polygon points="560 0 0 0 0 5.6 3.1 5.6 6.2 5.6 9.3 5.6 12.4 5.6 15.6 5.6 18.7 5.6 21.8 5.6 24.9 5.6 28 5.6 31.1 5.6 34.2 5.6 37.3 5.6 40.4 5.6 43.6 5.6 46.7 5.6 49.8 5.6 52.9 5.6 56 5.6 59.1 5.6 62.2 5.6 65.3 5.6 68.4 5.6 71.6 5.6 74.7 5.6 77.8 5.6 80.9 5.6 84 5.6 87.1 5.6 90.2 5.6 93.3 5.6 96.4 5.6 99.6 6.5 102.7 7.8 105.8 8.6 108.9 10.5 112 11 115.1 12.1 118.2 13.1 121.3 14.3 124.4 14.7 127.6 15.1 130.7 15.2 133.8 15.3 136.9 15.5 140 15.3 143.1 15.4 146.2 15.2 149.3 15.3 152.4 15.2 155.6 15.2 158.7 15.1 161.8 15.1 164.9 15 168 15 171.1 14.9 174.2 15 177.3 14.9 180.4 14.9 183.6 14.8 186.7 14.9 189.8 14.8 192.9 14.7 196 14.7 199.1 14.8 202.2 14.6 205.3 14.6 208.4 14.6 211.6 14.6 214.7 14.5 217.8 14.6 220.9 14.6 224 14.5 227.1 14.6 230.2 14.5 233.3 14.5 236.4 14.6 239.6 14.4 242.7 14.5 245.8 14.5 248.9 14.4 252 14.5 255.1 14.5 258.2 14.5 261.3 14.4 264.4 14.4 267.6 14.4 270.7 14.3 273.8 14.3 276.9 14.4 280 14.4 283.1 14.5 286.2 14.3 289.3 14.4 292.4 14.3 295.6 14.3 298.7 14.3 301.8 14.4 304.9 14.4 308 14.4 311.1 14.4 314.2 14.3 317.3 14.8 320.4 16.2 323.6 17.1 326.7 18.1 329.8 18.2 332.9 18.7 336 18.6 339.1 18.7 342.2 18.6 345.3 19 348.4 18.9 351.6 19 354.7 18.9 357.8 19 360.9 19 364 19 367.1 19 370.2 18.9 373.3 18.8 376.4 18.8 379.6 18.9 382.7 19 385.8 18.9 388.9 18.9 392 18.8 395.1 19 398.2 18.9 401.3 18.8 404.4 19 407.6 19 410.7 18.8 413.8 18.7 416.9 18.9 420 18.8 423.1 19 426.2 18.9 429.3 18.9 432.4 18.9 435.6 18.9 438.7 19.7 441.8 20.1 444.9 21.1 448 21.7 451.1 22.3 454.2 23.2 457.3 23.8 460.4 24 463.6 24.1 466.7 24.1 469.8 24.2 472.9 24.3 476 24.1 479.1 24.1 482.2 24 485.3 24.4 488.4 24.3 491.6 24.1 494.7 24.1 497.8 24 500.9 24.1 504 24.2 507.1 24.2 510.2 23.9 513.3 24 516.4 24.1 519.6 23.9 522.7 24.2 525.8 24.1 528.9 24.1 532 23.9 535.1 24.1 538.2 24.2 541.3 24.1 544.4 24 547.6 23.9 550.7 24 553.8 23.8 556.9 24 560 23.7" transform="matrix(1,0,0,-1,82.8,592.5)" fill="#71708A" fill-opacity="0.2"></polygon>
</g>
<g clip-path="url(#zr0-c2)">
<polyline points="0 5.6 3.1 5.6 6.2 5.6 9.3 5.6 12.4 5.6 15.6 5.6 18.7 5.6 21.8 5.6 24.9 5.6 28 5.6 31.1 5.6 34.2 5.6 37.3 5.6 40.4 5.6 43.6 5.6 46.7 5.6 49.8 5.6 52.9 5.6 56 5.6 59.1 5.6 62.2 5.6 65.3 5.6 68.4 5.6 71.6 5.6 74.7 5.6 77.8 5.6 80.9 5.6 84 5.6 87.1 5.6 90.2 5.6 93.3 5.6 96.4 5.6 99.6 6.5 102.7 7.8 105.8 8.6 108.9 10.5 112 11 115.1 12.1 118.2 13.1 121.3 14.3 124.4 14.7 127.6 15.1 130.7 15.2 133.8 15.3 136.9 15.5 140 15.3 143.1 15.4 146.2 15.2 149.3 15.3 152.4 15.2 155.6 15.2 158.7 15.1 161.8 15.1 164.9 15 168 15 171.1 14.9 174.2 15 177.3 14.9 180.4 14.9 183.6 14.8 186.7 14.9 189.8 14.8 192.9 14.7 196 14.7 199.1 14.8 202.2 14.6 205.3 14.6 208.4 14.6 211.6 14.6 214.7 14.5 217.8 14.6 220.9 14.6 224 14.5 227.1 14.6 230.2 14.5 233.3 14.5 236.4 14.6 239.6 14.4 242.7 14.5 245.8 14.5 248.9 14.4 252 14.5 255.1 14.5 258.2 14.5 261.3 14.4 264.4 14.4 267.6 14.4 270.7 14.3 273.8 14.3 276.9 14.4 280 14.4 283.1 14.5 286.2 14.3 289.3 14.4 292.4 14.3 295.6 14.3 298.7 14.3 301.8 14.4 304.9 14.4 308 14.4 311.1 14.4 314.2 14.3 317.3 14.8 320.4 16.2 323.6 17.1 326.7 18.1 329.8 18.2 332.9 18.7 336 18.6 339.1 18.7 342.2 18.6 345.3 19 348.4 18.9 351.6 19 354.7 18.9 357.8 19 360.9 19 364 19 367.1 19 370.2 18.9 373.3 18.8 376.4 18.8 379.6 18.9 382.7 19 385.8 18.9 388.9 18.9 392 18.8 395.1 19 398.2 18.9 401.3 18.8 404.4 19 407.6 19 410.7 18.8 413.8 18.7 416.9 18.9 420 18.8 423.1 19 426.2 18.9 429.3 18.9 432.4 18.9 435.6 18.9 438.7 19.7 441.8 20.1 444.9 21.1 448 21.7 451.1 22.3 454.2 23.2 457.3 23.8 460.4 24 463.6 24.1 466.7 24.1 469.8 24.2 472.9 24.3 476 24.1 479.1 24.1 482.2 24 485.3 24.4 488.4 24.3 491.6 24.1 494.7 24.1 497.8 24 500.9 24.1 504 24.2 507.1 24.2 510.2 23.9 513.3 24 516.4 24.1 519.6 23.9 522.7 24.2 525.8 24.1 528.9 24.1 532 23.9 535.1 24.1 538.2 24.2 541.3 24.1 544.4 24 547.6 23.9 550.7 24 553.8 23.8 556.9 24 560 23.7" transform="matrix(1,0,0,-1,82.8,592.5)" fill="none" stroke="#71708A"></polyline>
</g>
<g clip-path="url(#zr0-c3)">
<polyline points="0 5.6 3.1 5.6 6.2 5.6 9.3 5.6 12.4 5.6 15.6 5.6 18.7 5.6 21.8 5.6 24.9 5.6 28 5.6 31.1 5.6 34.2 5.6 37.3 5.6 40.4 5.6 43.6 5.6 46.7 5.6 49.8 5.6 52.9 5.6 56 5.6 59.1 5.6 62.2 5.6 65.3 5.6 68.4 5.6 71.6 5.6 74.7 5.6 77.8 5.6 80.9 5.6 84 5.6 87.1 5.6 90.2 5.6 93.3 5.6 96.4 5.6 99.6 6.5 102.7 7.8 105.8 8.6 108.9 10.5 112 11 115.1 12.1 118.2 13.1 121.3 14.3 124.4 14.7 127.6 15.1 130.7 15.2 133.8 15.3 136.9 15.5 140 15.3 143.1 15.4 146.2 15.2 149.3 15.3 152.4 15.2 155.6 15.2 158.7 15.1 161.8 15.1 164.9 15 168 15 171.1 14.9 174.2 15 177.3 14.9 180.4 14.9 183.6 14.8 186.7 14.9 189.8 14.8 192.9 14.7 196 14.7 199.1 14.8 202.2 14.6 205.3 14.6 208.4 14.6 211.6 14.6 214.7 14.5 217.8 14.6 220.9 14.6 224 14.5 227.1 14.6 230.2 14.5 233.3 14.5 236.4 14.6 239.6 14.4 242.7 14.5 245.8 14.5 248.9 14.4 252 14.5 255.1 14.5 258.2 14.5 261.3 14.4 264.4 14.4 267.6 14.4 270.7 14.3 273.8 14.3 276.9 14.4 280 14.4 283.1 14.5 286.2 14.3 289.3 14.4 292.4 14.3 295.6 14.3 298.7 14.3 301.8 14.4 304.9 14.4 308 14.4 311.1 14.4 314.2 14.3 317.3 14.8 320.4 16.2 323.6 17.1 326.7 18.1 329.8 18.2 332.9 18.7 336 18.6 339.1 18.7 342.2 18.6 345.3 19 348.4 18.9 351.6 19 354.7 18.9 357.8 19 360.9 19 364 19 367.1 19 370.2 18.9 373.3 18.8 376.4 18.8 379.6 18.9 382.7 19 385.8 18.9 388.9 18.9 392 18.8 395.1 19 398.2 18.9 401.3 18.8 404.4 19 407.6 19 410.7 18.8 413.8 18.7 416.9 18.9 420 18.8 423.1 19 426.2 18.9 429.3 18.9 432.4 18.9 435.6 18.9 438.7 19.7 441.8 20.1 444.9 21.1 448 21.7 451.1 22.3 454.2 23.2 457.3 23.8 460.4 24 463.6 24.1 466.7 24.1 469.8 24.2 472.9 24.3 476 24.1 479.1 24.1 482.2 24 485.3 24.4 488.4 24.3 491.6 24.1 494.7 24.1 497.8 24 500.9 24.1 504 24.2 507.1 24.2 510.2 23.9 513.3 24 516.4 24.1 519.6 23.9 522.7 24.2 525.8 24.1 528.9 24.1 532 23.9 535.1 24.1 538.2 24.2 541.3 24.1 544.4 24 547.6 23.9 550.7 24 553.8 23.8 556.9 24 560 23.7" transform="matrix(1,0,0,-1,82.8,592.5)" fill="none" stroke="#87A3CE" stroke-width="0.5"></polyline>
</g>
<g clip-path="url(#zr0-c4)">
<polyline points="0 5.6 3.1 5.6 6.2 5.6 9.3 5.6 12.4 5.6 15.6 5.6 18.7 5.6 21.8 5.6 24.9 5.6 28 5.6 31.1 5.6 34.2 5.6 37.3 5.6 40.4 5.6 43.6 5.6 46.7 5.6 49.8 5.6 52.9 5.6 56 5.6 59.1 5.6 62.2 5.6 65.3 5.6 68.4 5.6 71.6 5.6 74.7 5.6 77.8 5.6 80.9 5.6 84 5.6 87.1 5.6 90.2 5.6 93.3 5.6 96.4 5.6 99.6 6.5 102.7 7.8 105.8 8.6 108.9 10.5 112 11 115.1 12.1 118.2 13.1 121.3 14.3 124.4 14.7 127.6 15.1 130.7 15.2 133.8 15.3 136.9 15.5 140 15.3 143.1 15.4 146.2 15.2 149.3 15.3 152.4 15.2 155.6 15.2 158.7 15.1 161.8 15.1 164.9 15 168 15 171.1 14.9 174.2 15 177.3 14.9 180.4 14.9 183.6 14.8 186.7 14.9 189.8 14.8 192.9 14.7 196 14.7 199.1 14.8 202.2 14.6 205.3 14.6 208.4 14.6 211.6 14.6 214.7 14.5 217.8 14.6 220.9 14.6 224 14.5 227.1 14.6 230.2 14.5 233.3 14.5 236.4 14.6 239.6 14.4 242.7 14.5 245.8 14.5 248.9 14.4 252 14.5 255.1 14.5 258.2 14.5 261.3 14.4 264.4 14.4 267.6 14.4 270.7 14.3 273.8 14.3 276.9 14.4 280 14.4 283.1 14.5 286.2 14.3 289.3 14.4 292.4 14.3 295.6 14.3 298.7 14.3 301.8 14.4 304.9 14.4 308 14.4 311.1 14.4 314.2 14.3 317.3 14.8 320.4 16.2 323.6 17.1 326.7 18.1 329.8 18.2 332.9 18.7 336 18.6 339.1 18.7 342.2 18.6 345.3 19 348.4 18.9 351.6 19 354.7 18.9 357.8 19 360.9 19 364 19 367.1 19 370.2 18.9 373.3 18.8 376.4 18.8 379.6 18.9 382.7 19 385.8 18.9 388.9 18.9 392 18.8 395.1 19 398.2 18.9 401.3 18.8 404.4 19 407.6 19 410.7 18.8 413.8 18.7 416.9 18.9 420 18.8 423.1 19 426.2 18.9 429.3 18.9 432.4 18.9 435.6 18.9 438.7 19.7 441.8 20.1 444.9 21.1 448 21.7 451.1 22.3 454.2 23.2 457.3 23.8 460.4 24 463.6 24.1 466.7 24.1 469.8 24.2 472.9 24.3 476 24.1 479.1 24.1 482.2 24 485.3 24.4 488.4 24.3 491.6 24.1 494.7 24.1 497.8 24 500.9 24.1 504 24.2 507.1 24.2 510.2 23.9 513.3 24 516.4 24.1 519.6 23.9 522.7 24.2 525.8 24.1 528.9 24.1 532 23.9 535.1 24.1 538.2 24.2 541.3 24.1 544.4 24 547.6 23.9 550.7 24 553.8 23.8 556.9 24 560 23.7" transform="matrix(1,0,0,-1,82.8,592.5)" fill="none" stroke="#71708A"></polyline>
</g>
<path d="M-5 -5l691.0547 0l0 22l-691.0547 0Z" transform="translate(59.4727 5)" fill="rgb(0,0,0)" fill-opacity="0" stroke="#ccc" stroke-width="0"></path>
<path d="M0 7L25 7" transform="translate(60.4727 4)" fill="#000" stroke="#ccc" stroke-width="2" stroke-linecap="butt" stroke-miterlimit="10"></path>
<path d="M12.5 1.4L18.1 12.6L6.9 12.6Z" transform="translate(60.4727 4)" fill="#ccc" stroke="#ccc" stroke-width="0" stroke-linecap="butt" stroke-miterlimit="10"></path>
<text dominant-baseline="central" text-anchor="start" style="font-size:12px;font-family:Microsoft YaHei;" x="30" y="7" transform="translate(60.4727 4)" fill="#ccc">Pipe_Pres</text>
<path d="M0 7L25 7" transform="translate(156.1465 4)" fill="#000" stroke="#ccc" stroke-width="2" stroke-linecap="butt" stroke-miterlimit="10"></path>
<path d="M18.1 7A5.6 5.6 0 1 1 18.1 6.9994" transform="translate(156.1465 4)" fill="#ccc" stroke="#ccc" stroke-width="0" stroke-linecap="butt" stroke-miterlimit="10"></path>
<text dominant-baseline="central" text-anchor="start" style="font-size:12px;font-family:Microsoft YaHei;" x="30" y="7" transform="translate(156.1465 4)" fill="#ccc">Ambient_Pres</text>
<path d="M0 7L25 7" transform="translate(276.0313 4)" fill="#000" stroke="#ccc" stroke-width="2" stroke-linecap="butt" stroke-miterlimit="10"></path>
<path d="M12.5 1.4L18.1 12.6L6.9 12.6Z" transform="translate(276.0313 4)" fill="#ccc" stroke="#ccc" stroke-width="0" stroke-linecap="butt" stroke-miterlimit="10"></path>
<text dominant-baseline="central" text-anchor="start" style="font-size:12px;font-family:Microsoft YaHei;" x="30" y="7" transform="translate(276.0313 4)" fill="#ccc">Pipe_Temp</text>
<path d="M0 7L25 7" transform="translate(380.0137 4)" fill="#000" stroke="#ccc" stroke-width="2" stroke-linecap="butt" stroke-miterlimit="10"></path>
<path d="M18.1 7A5.6 5.6 0 1 1 18.1 6.9994" transform="translate(380.0137 4)" fill="#ccc" stroke="#ccc" stroke-width="0" stroke-linecap="butt" stroke-miterlimit="10"></path>
<text dominant-baseline="central" text-anchor="start" style="font-size:12px;font-family:Microsoft YaHei;" x="30" y="7" transform="translate(380.0137 4)" fill="#ccc">Chip_Temp</text>
<path d="M0 7L25 7" transform="translate(485.2617 4)" fill="#000" stroke="#f7f494" stroke-width="2" stroke-linecap="butt" stroke-miterlimit="10"></path>
<path d="M18.1 7A5.6 5.6 0 1 1 18.1 6.9994" transform="translate(485.2617 4)" fill="#f7f494"></path>
<text dominant-baseline="central" text-anchor="start" style="font-size:12px;font-family:Microsoft YaHei;" x="30" y="7" transform="translate(485.2617 4)" fill="#B9B8CE">Set_nPressure</text>
<path d="M0 7L25 7" transform="translate(605.8672 4)" fill="#000" stroke="#f7f494" stroke-width="2" stroke-linecap="butt" stroke-miterlimit="10"></path>
<path d="M12.5 1.4L18.1 12.6L6.9 12.6Z" transform="translate(605.8672 4)" fill="#f7f494"></path>
<text dominant-baseline="central" text-anchor="start" style="font-size:12px;font-family:Microsoft YaHei;" x="30" y="7" transform="translate(605.8672 4)" fill="#B9B8CE">Current_nPressure</text>
<path d="M0 0l560 0l0 30l-560 0Z" transform="matrix(1,0,0,-1,82.8,592.5)" fill="none"></path>
<path d="M0 0l560 0l0 30l-560 0Z" transform="matrix(1,0,0,-1,82.8,592.5)" fill="rgb(135,163,206)" fill-opacity="0.2"></path>
<path d="M3.5 0.5L556.5 0.5A3 3 0 0 1 559.5 3.5L559.5 26.5A3 3 0 0 1 556.5 29.5L3.5 29.5A3 3 0 0 1 0.5 26.5L0.5 3.5A3 3 0 0 1 3.5 0.5" transform="matrix(1,0,0,-1,82.8,592.5)" fill="rgb(0,0,0)" fill-opacity="0" stroke="#71708A"></path>
<path d="M0 29.5L560 29.5L560 34.5A2 2 0 0 1 558 36.5L2 36.5A2 2 0 0 1 0 34.5L0 29.5" transform="matrix(1,0,0,-1,82.8,592.5)" fill="#B0B6C3" fill-opacity="0.3"></path>
<path d="M-2.2408 -1.6796C-1.8674 -1.6796 -1.6817 -1.4939 -1.6817 -1.1204L-1.6817 1.1204C-1.6817 1.4939 -1.8674 1.6796 -2.2408 1.6796C-2.6143 1.6796 -2.8 1.4939 -2.8 1.1204L-2.8 -1.1204C-2.8 -1.4939 -2.6143 -1.6796 -2.2408 -1.6796ZM0 -1.6796C0.3735 -1.6796 0.5592 -1.4939 0.5592 -1.1204L0.5592 1.1204C0.5592 1.4939 0.3735 1.6796 0 1.6796C-0.3735 1.6796 -0.5592 1.4939 -0.5592 1.1204L-0.5592 -1.1204C-0.5592 -1.4939 -0.3735 -1.6796 0 -1.6796ZM2.2408 -1.6796C2.6143 -1.6796 2.8 -1.4939 2.8 -1.1204L2.8 1.1204C2.8 1.4939 2.6143 1.6796 2.2408 1.6796C1.8674 1.6796 1.6817 1.4939 1.6817 1.1204L1.6817 -1.1204C1.6796 -1.4939 1.8674 -1.6796 2.2408 -1.6796Z" transform="matrix(1,0,0,-1,362.8,559.5)" fill="#fff"></path>
<path d="M0 1.628L0 2M0 0L0 0.375M-0.1 0.375L0.1 0.375A0.1 0.1 0 0 1 0.2 0.475L0.2 1.525A0.1 0.1 0 0 1 0.1 1.625L-0.1 1.625A0.1 0.1 0 0 1 -0.2 1.525L-0.2 0.475A0.1 0.1 0 0 1 -0.1 0.375Z" transform="matrix(15,0,0,-15,83.8,592.5)" fill="#353450" stroke="#C5CBE3" stroke-width="0.06666666666666667"></path>
<path d="M0 1.628L0 2M0 0L0 0.375M-0.1 0.375L0.1 0.375A0.1 0.1 0 0 1 0.2 0.475L0.2 1.525A0.1 0.1 0 0 1 0.1 1.625L-0.1 1.625A0.1 0.1 0 0 1 -0.2 1.525L-0.2 0.475A0.1 0.1 0 0 1 -0.1 0.375Z" transform="matrix(15,0,0,-15,641.8,592.5)" fill="#353450" stroke="#C5CBE3" stroke-width="0.06666666666666667"></path>
<defs >
<clipPath id="zr0-c0">
<path d="M79 59l562 0l0 472l-562 0Z" fill="#000"></path>
</clipPath>
<clipPath id="zr0-c1">
<path d="M79 59l562 0l0 472l-562 0Z" fill="#000"></path>
</clipPath>
<clipPath id="zr0-c2">
<path d="M0 0l0 0l0 30l0 0Z" transform="matrix(1,0,0,-1,82.8,592.5)" fill="#000"></path>
</clipPath>
<clipPath id="zr0-c3">
<path d="M0 0l560 0l0 30l-560 0Z" transform="matrix(1,0,0,-1,82.8,592.5)" fill="#000"></path>
</clipPath>
<clipPath id="zr0-c4">
<path d="M560 0l0 0l0 30l0 0Z" transform="matrix(1,0,0,-1,82.8,592.5)" fill="#000"></path>
</clipPath>
</defs>
</svg>