<svg width="800" height="600" xmlns="http://www.w3.org/2000/svg" xmlns:xlink="http://www.w3.org/1999/xlink" version="1.1" baseProfile="full" viewBox="0 0 800 600">
<rect width="800" height="600" x="0" y="0" id="0" fill="rgb(40, 44, 52)" fill-opacity="1"></rect>
<path d="M80 530.5L640 530.5" fill="none" stroke="#484753"></path>
<path d="M80 436.5L640 436.5" fill="none" stroke="#484753"></path>
<path d="M80 342.5L640 342.5" fill="none" stroke="#484753"></path>
<path d="M80 248.5L640 248.5" fill="none" stroke="#484753"></path>
<path d="M80 154.5L640 154.5" fill="none" stroke="#484753"></path>
<path d="M80 60.5L640 60.5" fill="none" stroke="#484753"></path>
<path d="M80.5 530L80.5 60" fill="none" stroke="#ACDFED" stroke-linecap="round"></path>
<text dominant-baseline="central" text-anchor="middle" style="font-size:12px;font-family:Microsoft YaHei;" y="-6" transform="translate(80 45)" fill="#B9B8CE">压力</text>
<path d="M640.5 530L640.5 60" fill="none" stroke="#FFAB91" stroke-linecap="round"></path>
<text dominant-baseline="central" text-anchor="middle" style="font-size:12px;font-family:Microsoft YaHei;" y="-6" transform="translate(640 45)" fill="#B9B8CE">温度</text>
<path d="M720.5 530L720.5 60" fill="none" stroke="#f7f494" stroke-linecap="round"></path>
<text dominant-baseline="central" text-anchor="middle" style="font-size:12px;font-family:Microsoft YaHei;" y="-6" transform="translate(720 45)" fill="#B9B8CE">负压</text>
<path d="M80 530.5L640 530.5" fill="none" stroke="#B9B8CE" stroke-linecap="round"></path>
<path d="M82.5 530L82.5 535" fill="none" stroke="#B9B8CE"></path>
<path d="M147.5 530L147.5 535" fill="none" stroke="#B9B8CE"></path>
<path d="M212.5 530L212.5 535" fill="none" stroke="#B9B8CE"></path>
<path d="M276.5 530L276.5 535" fill="none" stroke="#B9B8CE"></path>
<path d="M341.5 530L341.5 535" fill="none" stroke="#B9B8CE"></path>
<path d="M406.5 530L406.5 535" fill="none" stroke="#B9B8CE"></path>
<path d="M471.5 530L471.5 535" fill="none" stroke="#B9B8CE"></path>
<path d="M536.5 530L536.5 535" fill="none" stroke="#B9B8CE"></path>
<path d="M600.5 530L600.5 535" fill="none" stroke="#B9B8CE"></path>
<text dominant-baseline="central" text-anchor="start" style="font-size:12px;font-family:Microsoft YaHei;" xml:space="preserve" transform="translate(728 530)" fill="#B9B8CE">0 hPa</text>
<text dominant-baseline="central" text-anchor="start" style="font-size:12px;font-family:Microsoft YaHei;" xml:space="preserve" transform="translate(728 436)" fill="#B9B8CE">30 hPa</text>
<text dominant-baseline="central" text-anchor="start" style="font-size:12px;font-family:Microsoft YaHei;" xml:space="preserve" transform="translate(728 342)" fill="#B9B8CE">60 hPa</text>
<text dominant-baseline="central" text-anchor="start" style="font-size:12px;font-family:Microsoft YaHei;" xml:space="preserve" transform="translate(728 248)" fill="#B9B8CE">90 hPa</text>
<text dominant-baseline="central" text-anchor="start" style="font-size:12px;font-family:Microsoft YaHei;" xml:space="preserve" transform="translate(728 154)" fill="#B9B8CE">120 hPa</text>
<text dominant-baseline="central" text-anchor="start" style="font-size:12px;font-family:Microsoft YaHei;" xml:space="preserve" transform="translate(728 60)" fill="#B9B8CE">150 hPa</text>
<text dominant-baseline="central" text-anchor="middle" style="font-size:12px;font-family:Microsoft YaHei;" y="6" transform="translate(82.314 538)" fill="#B9B8CE">12:47:02</text>
<text dominant-baseline="central" text-anchor="middle" style="font-size:12px;font-family:Microsoft YaHei;" y="6" transform="translate(147.1074 538)" fill="#B9B8CE">12:47:16</text>
<text dominant-baseline="central" text-anchor="middle" style="font-size:12px;font-family:Microsoft YaHei;" y="6" transform="translate(211.9008 538)" fill="#B9B8CE">12:47:30</text>
<text dominant-baseline="central" text-anchor="middle" style="font-size:12px;font-family:Microsoft YaHei;" y="6" transform="translate(276.6942 538)" fill="#B9B8CE">12:47:44</text>
<text dominant-baseline="central" text-anchor="middle" style="font-size:12px;font-family:Microsoft YaHei;" y="6" transform="translate(341.4876 538)" fill="#B9B8CE">12:47:58</text>
<text dominant-baseline="central" text-anchor="middle" style="font-size:12px;font-family:Microsoft YaHei;" y="6" transform="translate(406.281 538)" fill="#B9B8CE">12:48:12</text>
<text dominant-baseline="central" text-anchor="middle" style="font-size:12px;font-family:Microsoft YaHei;" y="6" transform="translate(471.0744 538)" fill="#B9B8CE">12:48:26</text>
<text dominant-baseline="central" text-anchor="middle" style="font-size:12px;font-family:Microsoft YaHei;" y="6" transform="translate(535.8678 538)" fill="#B9B8CE">12:48:40</text>
<text dominant-baseline="central" text-anchor="middle" style="font-size:12px;font-family:Microsoft YaHei;" y="6" transform="translate(600.6612 538)" fill="#B9B8CE">12:48:54</text>
<g clip-path="url(#zr0-c0)">
<path d="M82.3 221.4L86.9 210.7L91.6 221.1L96.2 213.8L100.8 221.7L105.5 220.7L110.1 221.4L114.7 316L119.3 351.4L124 355.8L128.6 322.3L133.2 363L137.9 433.2L142.5 483L147.1 458.9L151.7 396.2L156.4 358.6L161 357.7L165.6 324.5L170.2 296.3L174.9 263.4L179.5 238L184.1 240.5L188.8 193.5L193.4 183.1L198 170.6L202.6 154.3L207.3 139.6L211.9 135.2L216.5 126.7L221.2 123L225.8 118.3L230.4 120.8L235 126.7L239.7 125.5L244.3 131.8L248.9 136.8L253.6 134.6L258.2 142.7L262.8 157.8L267.4 156.2L272.1 166.8L276.7 165.9L281.3 181.3L286 182.2L290.6 185L295.2 191.6L299.8 197.6L304.5 201L309.1 203.5L313.7 207.9L318.3 217.3L323 215.7L327.6 217.9L332.2 218.9L336.9 221.1L341.5 223.9L346.1 232.3L350.7 232L355.4 233.3L360 226.7L364.6 228.9L369.3 227.6L373.9 232.6L378.5 226.4L383.1 231.4L387.8 227.3L392.4 224.5L397 226.4L401.7 225.1L406.3 223.2L410.9 228.9L415.5 223.6L420.2 223.2L424.8 225.8L429.4 224.2L434 220.1L438.7 223.9L443.3 221.7L447.9 221.4L452.6 227.9L457.2 226.1L461.8 225.1L466.4 218.5L471.1 224.5L475.7 223.2L480.3 212.6L485 222.3L489.6 218.2L494.2 213.5L498.8 220.7L503.5 216.7L508.1 212.9L512.7 216L517.4 216L522 212.6L526.6 210.1L531.2 209.5L535.9 219.2L540.5 217L545.1 212.6L549.8 216L554.4 218.2L559 213.8L563.6 217.3L568.3 215.7L572.9 217.9L577.5 219.2L582.1 209.1L586.8 219.8L591.4 210.7L596 217L600.7 215.4L605.3 218.2L609.9 217.3L614.5 219.8L619.2 215.7L623.8 212.6L628.4 213.5L633.1 212L637.7 219.2" fill="none" stroke="#f7f494" stroke-width="2" stroke-linejoin="bevel"></path>
</g>
<g clip-path="url(#zr0-c1)">
<path d="M82.314 216.6667L86.9421 216.6667L91.5703 216.6667L96.1983 216.6667L100.8264 216.6667L105.4545 216.6667L110.0826 216.6667L114.7107 216.6667L119.3388 216.6667L123.9669 216.6667L128.595 216.6667L133.2231 216.6667L137.8512 216.6667L142.4793 216.6667L147.1074 216.6667L151.7355 216.6667L156.3636 216.6667L160.9917 216.6667L165.6198 216.6667L170.2479 216.6667L174.876 216.6667L179.5041 216.6667L184.1322 216.6667L188.7603 216.6667L193.3884 216.6667L198.0165 216.6667L202.6446 216.6667L207.2727 216.6667L211.9008 216.6667L216.5289 216.6667L221.157 216.6667L225.7851 216.6667L230.4132 216.6667L235.0413 216.6667L239.6694 216.6667L244.2975 216.6667L248.9256 216.6667L253.5537 216.6667L258.1818 216.6667L262.8099 216.6667L267.438 216.6667L272.0661 216.6667L276.6942 216.6667L281.3223 216.6667L285.9504 216.6667L290.5785 216.6667L295.2066 216.6667L299.8347 216.6667L304.4628 216.6667L309.0909 216.6667L313.719 216.6667L318.3471 216.6667L322.9752 216.6667L327.6033 216.6667L332.2314 216.6667L336.8595 216.6667L341.4876 216.6667L346.1157 216.6667L350.7438 216.6667L355.3719 216.6667L360 216.6667L364.6281 216.6667L369.2562 216.6667L373.8843 216.6667L378.5124 216.6667L383.1405 216.6667L387.7686 216.6667L392.3967 216.6667L397.0248 216.6667L401.6529 216.6667L406.281 216.6667L410.9091 216.6667L415.5372 216.6667L420.1653 216.6667L424.7934 216.6667L429.4215 216.6667L434.0496 216.6667L438.6777 216.6667L443.3058 216.6667L447.9339 216.6667L452.562 216.6667L457.1901 216.6667L461.8182 216.6667L466.4463 216.6667L471.0744 216.6667L475.7025 216.6667L480.3306 216.6667L484.9587 216.6667L489.5868 216.6667L494.2149 216.6667L498.843 216.6667L503.4711 216.6667L508.0992 216.6667L512.7273 216.6667L517.3553 216.6667L521.9835 216.6667L526.6116 216.6667L531.2397 216.6667L535.8678 216.6667L540.4958 216.6667L545.124 216.6667L549.7521 216.6667L554.3802 216.6667L559.0082 216.6667L563.6364 216.6667L568.2645 216.6667L572.8926 216.6667L577.5207 216.6667L582.1487 216.6667L586.7769 216.6667L591.405 216.6667L596.0331 216.6667L600.6611 216.6667L605.2892 216.6667L609.9174 216.6667L614.5455 216.6667L619.1736 216.6667L623.8016 216.6667L628.4297 216.6667L633.0579 216.6667L637.686 216.6667" fill="none" stroke="#f7f494" stroke-width="2" stroke-linejoin="bevel"></path>
</g>
<path d="M0 -1L1 1L-1 1Z" transform="matrix(5,0,0,5,82.314,221.3667)" fill="#f7f494"></path>
<path d="M0 -1L1 1L-1 1Z" transform="matrix(5,0,0,5,147.1074,458.8733)" fill="#f7f494"></path>
<path d="M0 -1L1 1L-1 1Z" transform="matrix(5,0,0,5,211.9008,135.2)" fill="#f7f494"></path>
<path d="M0 -1L1 1L-1 1Z" transform="matrix(5,0,0,5,276.6942,165.9067)" fill="#f7f494"></path>
<path d="M0 -1L1 1L-1 1Z" transform="matrix(5,0,0,5,341.4876,223.8733)" fill="#f7f494"></path>
<path d="M0 -1L1 1L-1 1Z" transform="matrix(5,0,0,5,406.281,223.2467)" fill="#f7f494"></path>
<path d="M0 -1L1 1L-1 1Z" transform="matrix(5,0,0,5,471.0744,224.5)" fill="#f7f494"></path>
<path d="M0 -1L1 1L-1 1Z" transform="matrix(5,0,0,5,535.8678,219.1733)" fill="#f7f494"></path>
<path d="M0 -1L1 1L-1 1Z" transform="matrix(5,0,0,5,600.6611,215.4133)" fill="#f7f494"></path>
<path d="M1 0A1 1 0 1 1 1 -0.0001" transform="matrix(5,0,0,5,82.314,216.6667)" fill="#f7f494"></path>
<path d="M1 0A1 1 0 1 1 1 -0.0001" transform="matrix(5,0,0,5,147.1074,216.6667)" fill="#f7f494"></path>
<path d="M1 0A1 1 0 1 1 1 -0.0001" transform="matrix(5,0,0,5,211.9008,216.6667)" fill="#f7f494"></path>
<path d="M1 0A1 1 0 1 1 1 -0.0001" transform="matrix(5,0,0,5,276.6942,216.6667)" fill="#f7f494"></path>
<path d="M1 0A1 1 0 1 1 1 -0.0001" transform="matrix(5,0,0,5,341.4876,216.6667)" fill="#f7f494"></path>
<path d="M1 0A1 1 0 1 1 1 -0.0001" transform="matrix(5,0,0,5,406.281,216.6667)" fill="#f7f494"></path>
<path d="M1 0A1 1 0 1 1 1 -0.0001" transform="matrix(5,0,0,5,471.0744,216.6667)" fill="#f7f494"></path>
<path d="M1 0A1 1 0 1 1 1 -0.0001" transform="matrix(5,0,0,5,535.8678,216.6667)" fill="#f7f494"></path>
<path d="M1 0A1 1 0 1 1 1 -0.0001" transform="matrix(5,0,0,5,600.6611,216.6667)" fill="#f7f494"></path>
<path d="M0 0l560 0l0 30l-560 0Z" transform="matrix(1,0,0,-1,82.8,592.5)" fill="rgb(47,69,84)" fill-opacity="0"></path>
<g clip-path="url(#zr0-c2)">
<polygon points="560 0 0 0 0 19.1 4.7 19.6 9.3 19.1 14 19.5 18.7 19.1 23.3 19.1 28 19.1 32.7 14.2 37.3 12.4 42 12.2 46.7 13.9 51.3 11.8 56 8.2 60.7 5.6 65.3 6.9 70 10.1 74.7 12 79.3 12.1 84 13.8 88.7 15.2 93.3 16.9 98 18.2 102.7 18.1 107.3 20.5 112 21 116.7 21.7 121.3 22.5 126 23.3 130.7 23.5 135.3 23.9 140 24.1 144.7 24.4 149.3 24.2 154 23.9 158.7 24 163.3 23.7 168 23.4 172.7 23.5 177.3 23.1 182 22.3 186.7 22.4 191.3 21.9 196 21.9 200.7 21.1 205.3 21.1 210 20.9 214.7 20.6 219.3 20.3 224 20.1 228.7 20 233.3 19.8 238 19.3 242.7 19.4 247.3 19.3 252 19.2 256.7 19.1 261.3 18.9 266 18.5 270.7 18.5 275.3 18.5 280 18.8 284.7 18.7 289.3 18.8 294 18.5 298.7 18.8 303.3 18.6 308 18.8 312.7 18.9 317.3 18.8 322 18.9 326.7 19 331.3 18.7 336 19 340.7 19 345.3 18.8 350 18.9 354.7 19.1 359.3 18.9 364 19.1 368.7 19.1 373.3 18.7 378 18.8 382.7 18.9 387.3 19.2 392 18.9 396.7 19 401.3 19.5 406 19 410.7 19.2 415.3 19.5 420 19.1 424.7 19.3 429.3 19.5 434 19.3 438.7 19.3 443.3 19.5 448 19.7 452.7 19.7 457.3 19.2 462 19.3 466.7 19.5 471.3 19.3 476 19.2 480.7 19.5 485.3 19.3 490 19.4 494.7 19.3 499.3 19.2 504 19.7 508.7 19.2 513.3 19.6 518 19.3 522.7 19.4 527.3 19.2 532 19.3 536.7 19.2 541.3 19.4 546 19.5 550.7 19.5 555.3 19.6 560 19.2" transform="matrix(1,0,0,-1,82.8,592.5)" fill="#71708A" fill-opacity="0.2"></polygon>
</g>
<g clip-path="url(#zr0-c3)">
<polygon points="560 0 0 0 0 19.1 4.7 19.6 9.3 19.1 14 19.5 18.7 19.1 23.3 19.1 28 19.1 32.7 14.2 37.3 12.4 42 12.2 46.7 13.9 51.3 11.8 56 8.2 60.7 5.6 65.3 6.9 70 10.1 74.7 12 79.3 12.1 84 13.8 88.7 15.2 93.3 16.9 98 18.2 102.7 18.1 107.3 20.5 112 21 116.7 21.7 121.3 22.5 126 23.3 130.7 23.5 135.3 23.9 140 24.1 144.7 24.4 149.3 24.2 154 23.9 158.7 24 163.3 23.7 168 23.4 172.7 23.5 177.3 23.1 182 22.3 186.7 22.4 191.3 21.9 196 21.9 200.7 21.1 205.3 21.1 210 20.9 214.7 20.6 219.3 20.3 224 20.1 228.7 20 233.3 19.8 238 19.3 242.7 19.4 247.3 19.3 252 19.2 256.7 19.1 261.3 18.9 266 18.5 270.7 18.5 275.3 18.5 280 18.8 284.7 18.7 289.3 18.8 294 18.5 298.7 18.8 303.3 18.6 308 18.8 312.7 18.9 317.3 18.8 322 18.9 326.7 19 331.3 18.7 336 19 340.7 19 345.3 18.8 350 18.9 354.7 19.1 359.3 18.9 364 19.1 368.7 19.1 373.3 18.7 378 18.8 382.7 18.9 387.3 19.2 392 18.9 396.7 19 401.3 19.5 406 19 410.7 19.2 415.3 19.5 420 19.1 424.7 19.3 429.3 19.5 434 19.3 438.7 19.3 443.3 19.5 448 19.7 452.7 19.7 457.3 19.2 462 19.3 466.7 19.5 471.3 19.3 476 19.2 480.7 19.5 485.3 19.3 490 19.4 494.7 19.3 499.3 19.2 504 19.7 508.7 19.2 513.3 19.6 518 19.3 522.7 19.4 527.3 19.2 532 19.3 536.7 19.2 541.3 19.4 546 19.5 550.7 19.5 555.3 19.6 560 19.2" transform="matrix(1,0,0,-1,82.8,592.5)" fill="#87A3CE" fill-opacity="0.2"></polygon>
</g>
<g clip-path="url(#zr0-c4)">
<polygon points="560 0 0 0 0 19.1 4.7 19.6 9.3 19.1 14 19.5 18.7 19.1 23.3 19.1 28 19.1 32.7 14.2 37.3 12.4 42 12.2 46.7 13.9 51.3 11.8 56 8.2 60.7 5.6 65.3 6.9 70 10.1 74.7 12 79.3 12.1 84 13.8 88.7 15.2 93.3 16.9 98 18.2 102.7 18.1 107.3 20.5 112 21 116.7 21.7 121.3 22.5 126 23.3 130.7 23.5 135.3 23.9 140 24.1 144.7 24.4 149.3 24.2 154 23.9 158.7 24 163.3 23.7 168 23.4 172.7 23.5 177.3 23.1 182 22.3 186.7 22.4 191.3 21.9 196 21.9 200.7 21.1 205.3 21.1 210 20.9 214.7 20.6 219.3 20.3 224 20.1 228.7 20 233.3 19.8 238 19.3 242.7 19.4 247.3 19.3 252 19.2 256.7 19.1 261.3 18.9 266 18.5 270.7 18.5 275.3 18.5 280 18.8 284.7 18.7 289.3 18.8 294 18.5 298.7 18.8 303.3 18.6 308 18.8 312.7 18.9 317.3 18.8 322 18.9 326.7 19 331.3 18.7 336 19 340.7 19 345.3 18.8 350 18.9 354.7 19.1 359.3 18.9 364 19.1 368.7 19.1 373.3 18.7 378 18.8 382.7 18.9 387.3 19.2 392 18.9 396.7 19 401.3 19.5 406 19 410.7 19.2 415.3 19.5 420 19.1 424.7 19.3 429.3 19.5 434 19.3 438.7 19.3 443.3 19.5 448 19.7 452.7 19.7 457.3 19.2 462 19.3 466.7 19.5 471.3 19.3 476 19.2 480.7 19.5 485.3 19.3 490 19.4 494.7 19.3 499.3 19.2 504 19.7 508.7 19.2 513.3 19.6 518 19.3 522.7 19.4 527.3 19.2 532 19.3 536.7 19.2 541.3 19.4 546 19.5 550.7 19.5 555.3 19.6 560 19.2" transform="matrix(1,0,0,-1,82.8,592.5)" fill="#71708A" fill-opacity="0.2"></polygon>
</g>
<g clip-path="url(#zr0-c2)">
<polyline points="0 19.1 4.7 19.6 9.3 19.1 14 19.5 18.7 19.1 23.3 19.1 28 19.1 32.7 14.2 37.3 12.4 42 12.2 46.7 13.9 51.3 11.8 56 8.2 60.7 5.6 65.3 6.9 70 10.1 74.7 12 79.3 12.1 84 13.8 88.7 15.2 93.3 16.9 98 18.2 102.7 18.1 107.3 20.5 112 21 116.7 21.7 121.3 22.5 126 23.3 130.7 23.5 135.3 23.9 140 24.1 144.7 24.4 149.3 24.2 154 23.9 158.7 24 163.3 23.7 168 23.4 172.7 23.5 177.3 23.1 182 22.3 186.7 22.4 191.3 21.9 196 21.9 200.7 21.1 205.3 21.1 210 20.9 214.7 20.6 219.3 20.3 224 20.1 228.7 20 233.3 19.8 238 19.3 242.7 19.4 247.3 19.3 252 19.2 256.7 19.1 261.3 18.9 266 18.5 270.7 18.5 275.3 18.5 280 18.8 284.7 18.7 289.3 18.8 294 18.5 298.7 18.8 303.3 18.6 308 18.8 312.7 18.9 317.3 18.8 322 18.9 326.7 19 331.3 18.7 336 19 340.7 19 345.3 18.8 350 18.9 354.7 19.1 359.3 18.9 364 19.1 368.7 19.1 373.3 18.7 378 18.8 382.7 18.9 387.3 19.2 392 18.9 396.7 19 401.3 19.5 406 19 410.7 19.2 415.3 19.5 420 19.1 424.7 19.3 429.3 19.5 434 19.3 438.7 19.3 443.3 19.5 448 19.7 452.7 19.7 457.3 19.2 462 19.3 466.7 19.5 471.3 19.3 476 19.2 480.7 19.5 485.3 19.3 490 19.4 494.7 19.3 499.3 19.2 504 19.7 508.7 19.2 513.3 19.6 518 19.3 522.7 19.4 527.3 19.2 532 19.3 536.7 19.2 541.3 19.4 546 19.5 550.7 19.5 555.3 19.6 560 19.2" transform="matrix(1,0,0,-1,82.8,592.5)" fill="none" stroke="#71708A"></polyline>
</g>
<g clip-path="url(#zr0-c3)">
<polyline points="0 19.1 4.7 19.6 9.3 19.1 14 19.5 18.7 19.1 23.3 19.1 28 19.1 32.7 14.2 37.3 12.4 42 12.2 46.7 13.9 51.3 11.8 56 8.2 60.7 5.6 65.3 6.9 70 10.1 74.7 12 79.3 12.1 84 13.8 88.7 15.2 93.3 16.9 98 18.2 102.7 18.1 107.3 20.5 112 21 116.7 21.7 121.3 22.5 126 23.3 130.7 23.5 135.3 23.9 140 24.1 144.7 24.4 149.3 24.2 154 23.9 158.7 24 163.3 23.7 168 23.4 172.7 23.5 177.3 23.1 182 22.3 186.7 22.4 191.3 21.9 196 21.9 200.7 21.1 205.3 21.1 210 20.9 214.7 20.6 219.3 20.3 224 20.1 228.7 20 233.3 19.8 238 19.3 242.7 19.4 247.3 19.3 252 19.2 256.7 19.1 261.3 18.9 266 18.5 270.7 18.5 275.3 18.5 280 18.8 284.7 18.7 289.3 18.8 294 18.5 298.7 18.8 303.3 18.6 308 18.8 312.7 18.9 317.3 18.8 322 18.9 326.7 19 331.3 18.7 336 19 340.7 19 345.3 18.8 350 18.9 354.7 19.1 359.3 18.9 364 19.1 368.7 19.1 373.3 18.7 378 18.8 382.7 18.9 387.3 19.2 392 18.9 396.7 19 401.3 19.5 406 19 410.7 19.2 415.3 19.5 420 19.1 424.7 19.3 429.3 19.5 434 19.3 438.7 19.3 443.3 19.5 448 19.7 452.7 19.7 457.3 19.2 462 19.3 466.7 19.5 471.3 19.3 476 19.2 480.7 19.5 485.3 19.3 490 19.4 494.7 19.3 499.3 19.2 504 19.7 508.7 19.2 513.3 19.6 518 19.3 522.7 19.4 527.3 19.2 532 19.3 536.7 19.2 541.3 19.4 546 19.5 550.7 19.5 555.3 19.6 560 19.2" transform="matrix(1,0,0,-1,82.8,592.5)" fill="none" stroke="#87A3CE" stroke-width="0.5"></polyline>
</g>
<g clip-path="url(#zr0-c4)">
<polyline points="0 19.1 4.7 19.6 9.3 19.1 14 19.5 18.7 19.1 23.3 19.1 28 19.1 32.7 14.2 37.3 12.4 42 12.2 46.7 13.9 51.3 11.8 56 8.2 60.7 5.6 65.3 6.9 70 10.1 74.7 12 79.3 12.1 84 13.8 88.7 15.2 93.3 16.9 98 18.2 102.7 18.1 107.3 20.5 112 21 116.7 21.7 121.3 22.5 126 23.3 130.7 23.5 135.3 23.9 140 24.1 144.7 24.4 149.3 24.2 154 23.9 158.7 24 163.3 23.7 168 23.4 172.7 23.5 177.3 23.1 182 22.3 186.7 22.4 191.3 21.9 196 21.9 200.7 21.1 205.3 21.1 210 20.9 214.7 20.6 219.3 20.3 224 20.1 228.7 20 233.3 19.8 238 19.3 242.7 19.4 247.3 19.3 252 19.2 256.7 19.1 261.3 18.9 266 18.5 270.7 18.5 275.3 18.5 280 18.8 284.7 18.7 289.3 18.8 294 18.5 298.7 18.8 303.3 18.6 308 18.8 312.7 18.9 317.3 18.8 322 18.9 326.7 19 331.3 18.7 336 19 340.7 19 345.3 18.8 350 18.9 354.7 19.1 359.3 18.9 364 19.1 368.7 19.1 373.3 18.7 378 18.8 382.7 18.9 387.3 19.2 392 18.9 396.7 19 401.3 19.5 406 19 410.7 19.2 415.3 19.5 420 19.1 424.7 19.3 429.3 19.5 434 19.3 438.7 19.3 443.3 19.5 448 19.7 452.7 19.7 457.3 19.2 462 19.3 466.7 19.5 471.3 19.3 476 19.2 480.7 19.5 485.3 19.3 490 19.4 494.7 19.3 499.3 19.2 504 19.7 508.7 19.2 513.3 19.6 518 19.3 522.7 19.4 527.3 19.2 532 19.3 536.7 19.2 541.3 19.4 546 19.5 550.7 19.5 555.3 19.6 560 19.2" transform="matrix(1,0,0,-1,82.8,592.5)" fill="none" stroke="#71708A"></polyline>
</g>
<path d="M-5 -5l691.0547 0l0 22l-691.0547 0Z" transform="translate(59.4727 5)" fill="rgb(0,0,0)" fill-opacity="0" stroke="#ccc" stroke-width="0"></path>
<path d="M0 7L25 7" transform="translate(60.4727 4)" fill="#000" stroke="#ccc" stroke-width="2" stroke-linecap="butt" stroke-miterlimit="10"></path>
<path d="M12.5 1.4L18.1 12.6L6.9 12.6Z" transform="translate(60.4727 4)" fill="#ccc" stroke="#ccc" stroke-width="0" stroke-linecap="butt" stroke-miterlimit="10"></path>
<text dominant-baseline="central" text-anchor="start" style="font-size:12px;font-family:Microsoft YaHei;" x="30" y="7" transform="translate(60.4727 4)" fill="#ccc">Pipe_Pres</text>
<path d="M0 7L25 7" transform="translate(156.1465 4)" fill="#000" stroke="#ccc" stroke-width="2" stroke-linecap="butt" stroke-miterlimit="10"></path>
<path d="M18.1 7A5.6 5.6 0 1 1 18.1 6.9994" transform="translate(156.1465 4)" fill="#ccc" stroke="#ccc" stroke-width="0" stroke-linecap="butt" stroke-miterlimit="10"></path>
<text dominant-baseline="central" text-anchor="start" style="font-size:12px;font-family:Microsoft YaHei;" x="30" y="7" transform="translate(156.1465 4)" fill="#ccc">Ambient_Pres</text>
<path d="M0 7L25 7" transform="translate(276.0313 4)" fill="#000" stroke="#ccc" stroke-width="2" stroke-linecap="butt" stroke-miterlimit="10"></path>
<path d="M12.5 1.4L18.1 12.6L6.9 12.6Z" transform="translate(276.0313 4)" fill="#ccc" stroke="#ccc" stroke-width="0" stroke-linecap="butt" stroke-miterlimit="10"></path>
<text dominant-baseline="central" text-anchor="start" style="font-size:12px;font-family:Microsoft YaHei;" x="30" y="7" transform="translate(276.0313 4)" fill="#ccc">Pipe_Temp</text>
<path d="M0 7L25 7" transform="translate(380.0137 4)" fill="#000" stroke="#ccc" stroke-width="2" stroke-linecap="butt" stroke-miterlimit="10"></path>
<path d="M18.1 7A5.6 5.6 0 1 1 18.1 6.9994" transform="translate(380.0137 4)" fill="#ccc" stroke="#ccc" stroke-width="0" stroke-linecap="butt" stroke-miterlimit="10"></path>
<text dominant-baseline="central" text-anchor="start" style="font-size:12px;font-family:Microsoft YaHei;" x="30" y="7" transform="translate(380.0137 4)" fill="#ccc">Chip_Temp</text>
<path d="M0 7L25 7" transform="translate(485.2617 4)" fill="#000" stroke="#f7f494" stroke-width="2" stroke-linecap="butt" stroke-miterlimit="10"></path>
<path d="M18.1 7A5.6 5.6 0 1 1 18.1 6.9994" transform="translate(485.2617 4)" fill="#f7f494"></path>
<text dominant-baseline="central" text-anchor="start" style="font-size:12px;font-family:Microsoft YaHei;" x="30" y="7" transform="translate(485.2617 4)" fill="#B9B8CE">Set_nPressure</text>
<path d="M0 7L25 7" transform="translate(605.8672 4)" fill="#000" stroke="#f7f494" stroke-width="2" stroke-linecap="butt" stroke-miterlimit="10"></path>
<path d="M12.5 1.4L18.1 12.6L6.9 12.6Z" transform="translate(605.8672 4)" fill="#f7f494"></path>
<text dominant-baseline="central" text-anchor="start" style="font-size:12px;font-family:Microsoft YaHei;" x="30" y="7" transform="translate(605.8672 4)" fill="#B9B8CE">Current_nPressure</text>
<path d="M0 0l560 0l0 30l-560 0Z" transform="matrix(1,0,0,-1,82.8,592.5)" fill="none"></path>
<path d="M0 0l560 0l0 30l-560 0Z" transform="matrix(1,0,0,-1,82.8,592.5)" fill="rgb(135,163,206)" fill-opacity="0.2"></path>
<path d="M3.5 0.5L556.5 0.5A3 3 0 0 1 559.5 3.5L559.5 26.5A3 3 0 0 1 556.5 29.5L3.5 29.5A3 3 0 0 1 0.5 26.5L0.5 3.5A3 3 0 0 1 3.5 0.5" transform="matrix(1,0,0,-1,82.8,592.5)" fill="rgb(0,0,0)" fill-opacity="0" stroke="#71708A"></path>
<path d="M0 29.5L560 29.5L560 34.5A2 2 0 0 1 558 36.5L2 36.5A2 2 0 0 1 0 34.5L0 29.5" transform="matrix(1,0,0,-1,82.8,592.5)" fill="#B0B6C3" fill-opacity="0.3"></path>
<path d="M-2.2408 -1.6796C-1.8674 -1.6796 -1.6817 -1.4939 -1.6817 -1.1204L-1.6817 1.1204C-1.6817 1.4939 -1.8674 1.6796 -2.2408 1.6796C-2.6143 1.6796 -2.8 1.4939 -2.8 1.1204L-2.8 -1.1204C-2.8 -1.4939 -2.6143 -1.6796 -2.2408 -1.6796ZM0 -1.6796C0.3735 -1.6796 0.5592 -1.4939 0.5592 -1.1204L0.5592 1.1204C0.5592 1.4939 0.3735 1.6796 0 1.6796C-0.3735 1.6796 -0.5592 1.4939 -0.5592 1.1204L-0.5592 -1.1204C-0.5592 -1.4939 -0.3735 -1.6796 0 -1.6796ZM2.2408 -1.6796C2.6143 -1.6796 2.8 -1.4939 2.8 -1.1204L2.8 1.1204C2.8 1.4939 2.6143 1.6796 2.2408 1.6796C1.8674 1.6796 1.6817 1.4939 1.6817 1.1204L1.6817 -1.1204C1.6796 -1.4939 1.8674 -1.6796 2.2408 -1.6796Z" transform="matrix(1,0,0,-1,362.8,559.5)" fill="#fff"></path>
<path d="M0 1.628L0 2M0 0L0 0.375M-0.1 0.375L0.1 0.375A0.1 0.1 0 0 1 0.2 0.475L0.2 1.525A0.1 0.1 0 0 1 0.1 1.625L-0.1 1.625A0.1 0.1 0 0 1 -0.2 1.525L-0.2 0.475A0.1 0.1 0 0 1 -0.1 0.375Z" transform="matrix(15,0,0,-15,83.8,592.5)" fill="#353450" stroke="#C5CBE3" stroke-width="0.06666666666666667"></path>
<path d="M0 1.628L0 2M0 0L0 0.375M-0.1 0.375L0.1 0.375A0.1 0.1 0 0 1 0.2 0.475L0.2 1.525A0.1 0.1 0 0 1 0.1 1.625L-0.1 1.625A0.1 0.1 0 0 1 -0.2 1.525L-0.2 0.475A0.1 0.1 0 0 1 -0.1 0.375Z" transform="matrix(15,0,0,-15,641.8,592.5)" fill="#353450" stroke="#C5CBE3" stroke-width="0.06666666666666667"></path>
<defs >
<clipPath id="zr0-c0">
<path d="M79 59l562 0l0 472l-562 0Z" fill="#000"></path>
</clipPath>
<clipPath id="zr0-c1">
<path d="M79 59l562 0l0 472l-562 0Z" fill="#000"></path>
</clipPath>
<clipPath id="zr0-c2">
<path d="M0 0l0 0l0 30l0 0Z" transform="matrix(1,0,0,-1,82.8,592.5)" fill="#000"></path>
</clipPath>
<clipPath id="zr0-c3">
<path d="M0 0l560 0l0 30l-560 0Z" transform="matrix(1,0,0,-1,82.8,592.5)" fill="#000"></path>
</clipPath>
<clipPath id="zr0-c4">
<path d="M560 0l0 0l0 30l0 0Z" transform="matrix(1,0,0,-1,82.8,592.5)" fill="#000"></path>
</clipPath>
</defs>
</svg>