<svg width="800" height="600" xmlns="http://www.w3.org/2000/svg" xmlns:xlink="http://www.w3.org/1999/xlink" version="1.1" baseProfile="full" viewBox="0 0 800 600">
<rect width="800" height="600" x="0" y="0" id="0" fill="rgb(40, 44, 52)" fill-opacity="1"></rect>
<path d="M80 530.5L640 530.5" fill="none" stroke="#484753"></path>
<path d="M80 451.5L640 451.5" fill="none" stroke="#484753"></path>
<path d="M80 373.5L640 373.5" fill="none" stroke="#484753"></path>
<path d="M80 295.5L640 295.5" fill="none" stroke="#484753"></path>
<path d="M80 216.5L640 216.5" fill="none" stroke="#484753"></path>
<path d="M80 138.5L640 138.5" fill="none" stroke="#484753"></path>
<path d="M80 60.5L640 60.5" fill="none" stroke="#484753"></path>
<path d="M80 530.5L640 530.5" fill="none" stroke="#484753"></path>
<path d="M80 463.5L640 463.5" fill="none" stroke="#484753"></path>
<path d="M80 395.5L640 395.5" fill="none" stroke="#484753"></path>
<path d="M80 328.5L640 328.5" fill="none" stroke="#484753"></path>
<path d="M80 261.5L640 261.5" fill="none" stroke="#484753"></path>
<path d="M80 194.5L640 194.5" fill="none" stroke="#484753"></path>
<path d="M80 127.5L640 127.5" fill="none" stroke="#484753"></path>
<path d="M80 60.5L640 60.5" fill="none" stroke="#484753"></path>
<path d="M80.5 530L80.5 60" fill="none" stroke="#ACDFED" stroke-linecap="round"></path>
<text dominant-baseline="central" text-anchor="middle" style="font-size:12px;font-family:Microsoft YaHei;" y="-6" transform="translate(80 45)" fill="#B9B8CE">压力</text>
<path d="M640.5 530L640.5 60" fill="none" stroke="#FFAB91" stroke-linecap="round"></path>
<text dominant-baseline="central" text-anchor="middle" style="font-size:12px;font-family:Microsoft YaHei;" y="-6" transform="translate(640 45)" fill="#B9B8CE">温度</text>
<path d="M720.5 530L720.5 60" fill="none" stroke="#f7f494" stroke-linecap="round"></path>
<text dominant-baseline="central" text-anchor="middle" style="font-size:12px;font-family:Microsoft YaHei;" y="-6" transform="translate(720 45)" fill="#B9B8CE">负压</text>
<path d="M80 530.5L640 530.5" fill="none" stroke="#B9B8CE" stroke-linecap="round"></path>
<path d="M82.5 530L82.5 535" fill="none" stroke="#B9B8CE"></path>
<path d="M147.5 530L147.5 535" fill="none" stroke="#B9B8CE"></path>
<path d="M212.5 530L212.5 535" fill="none" stroke="#B9B8CE"></path>
<path d="M276.5 530L276.5 535" fill="none" stroke="#B9B8CE"></path>
<path d="M341.5 530L341.5 535" fill="none" stroke="#B9B8CE"></path>
<path d="M406.5 530L406.5 535" fill="none" stroke="#B9B8CE"></path>
<path d="M471.5 530L471.5 535" fill="none" stroke="#B9B8CE"></path>
<path d="M536.5 530L536.5 535" fill="none" stroke="#B9B8CE"></path>
<path d="M600.5 530L600.5 535" fill="none" stroke="#B9B8CE"></path>
<text dominant-baseline="central" text-anchor="end" style="font-size:12px;font-family:Microsoft YaHei;" xml:space="preserve" transform="translate(72 530)" fill="#B9B8CE">0 hPa</text>
<text dominant-baseline="central" text-anchor="end" style="font-size:12px;font-family:Microsoft YaHei;" xml:space="preserve" transform="translate(72 451.6667)" fill="#B9B8CE">200 hPa</text>
<text dominant-baseline="central" text-anchor="end" style="font-size:12px;font-family:Microsoft YaHei;" xml:space="preserve" transform="translate(72 373.3333)" fill="#B9B8CE">400 hPa</text>
<text dominant-baseline="central" text-anchor="end" style="font-size:12px;font-family:Microsoft YaHei;" xml:space="preserve" transform="translate(72 295)" fill="#B9B8CE">600 hPa</text>
<text dominant-baseline="central" text-anchor="end" style="font-size:12px;font-family:Microsoft YaHei;" xml:space="preserve" transform="translate(72 216.6667)" fill="#B9B8CE">800 hPa</text>
<text dominant-baseline="central" text-anchor="end" style="font-size:12px;font-family:Microsoft YaHei;" xml:space="preserve" transform="translate(72 138.3333)" fill="#B9B8CE">1,000 hPa</text>
<text dominant-baseline="central" text-anchor="end" style="font-size:12px;font-family:Microsoft YaHei;" xml:space="preserve" transform="translate(72 60)" fill="#B9B8CE">1,200 hPa</text>
<text dominant-baseline="central" text-anchor="start" style="font-size:12px;font-family:Microsoft YaHei;" xml:space="preserve" transform="translate(728 530)" fill="#B9B8CE">0 hPa</text>
<text dominant-baseline="central" text-anchor="start" style="font-size:12px;font-family:Microsoft YaHei;" xml:space="preserve" transform="translate(728 462.8571)" fill="#B9B8CE">50 hPa</text>
<text dominant-baseline="central" text-anchor="start" style="font-size:12px;font-family:Microsoft YaHei;" xml:space="preserve" transform="translate(728 395.7143)" fill="#B9B8CE">100 hPa</text>
<text dominant-baseline="central" text-anchor="start" style="font-size:12px;font-family:Microsoft YaHei;" xml:space="preserve" transform="translate(728 328.5714)" fill="#B9B8CE">150 hPa</text>
<text dominant-baseline="central" text-anchor="start" style="font-size:12px;font-family:Microsoft YaHei;" xml:space="preserve" transform="translate(728 261.4286)" fill="#B9B8CE">200 hPa</text>
<text dominant-baseline="central" text-anchor="start" style="font-size:12px;font-family:Microsoft YaHei;" xml:space="preserve" transform="translate(728 194.2857)" fill="#B9B8CE">250 hPa</text>
<text dominant-baseline="central" text-anchor="start" style="font-size:12px;font-family:Microsoft YaHei;" xml:space="preserve" transform="translate(728 127.1429)" fill="#B9B8CE">300 hPa</text>
<text dominant-baseline="central" text-anchor="start" style="font-size:12px;font-family:Microsoft YaHei;" xml:space="preserve" transform="translate(728 60)" fill="#B9B8CE">350 hPa</text>
<text dominant-baseline="central" text-anchor="middle" style="font-size:12px;font-family:Microsoft YaHei;" y="6" transform="translate(82.314 538)" fill="#B9B8CE">17:57:34</text>
<text dominant-baseline="central" text-anchor="middle" style="font-size:12px;font-family:Microsoft YaHei;" y="6" transform="translate(147.1074 538)" fill="#B9B8CE">17:57:48</text>
<text dominant-baseline="central" text-anchor="middle" style="font-size:12px;font-family:Microsoft YaHei;" y="6" transform="translate(211.9008 538)" fill="#B9B8CE">17:58:02</text>
<text dominant-baseline="central" text-anchor="middle" style="font-size:12px;font-family:Microsoft YaHei;" y="6" transform="translate(276.6942 538)" fill="#B9B8CE">17:58:16</text>
<text dominant-baseline="central" text-anchor="middle" style="font-size:12px;font-family:Microsoft YaHei;" y="6" transform="translate(341.4876 538)" fill="#B9B8CE">17:58:30</text>
<text dominant-baseline="central" text-anchor="middle" style="font-size:12px;font-family:Microsoft YaHei;" y="6" transform="translate(406.281 538)" fill="#B9B8CE">17:58:44</text>
<text dominant-baseline="central" text-anchor="middle" style="font-size:12px;font-family:Microsoft YaHei;" y="6" transform="translate(471.0744 538)" fill="#B9B8CE">17:58:58</text>
<text dominant-baseline="central" text-anchor="middle" style="font-size:12px;font-family:Microsoft YaHei;" y="6" transform="translate(535.8678 538)" fill="#B9B8CE">17:59:12</text>
<text dominant-baseline="central" text-anchor="middle" style="font-size:12px;font-family:Microsoft YaHei;" y="6" transform="translate(600.6612 538)" fill="#B9B8CE">17:59:26</text>
<g clip-path="url(#zr0-c0)">
<path d="M82.3 263.7L86.9 263.5L91.6 263.8L96.2 263.4L100.8 264.1L105.5 264.1L110.1 265.5L114.7 264.7L119.3 264.7L124 265L128.6 264.5L133.2 265.9L137.9 264L142.5 265.3L147.1 265.8L151.7 265.4L156.4 265.4L161 266.1L165.6 264.9L170.2 266.6L174.9 265L179.5 265.8L184.1 265.8L188.8 265L193.4 266.1L198 266.7L202.6 265.6L207.3 265.9L211.9 267.3L216.5 265.2L221.2 266.6L225.8 266.2L230.4 266.3L235 266.4L239.7 267.7L244.3 267L248.9 267.3L253.6 267L258.2 266.5L262.8 268.1L267.4 266.1L272.1 267.3L276.7 267.8L281.3 265.9L286 262.8L290.6 260L295.2 257.4L299.8 252.3L304.5 250L309.1 247.6L313.7 245.3L318.3 240.9L323 238.8L327.6 236.6L332.2 234.4L336.9 230.3L341.5 228.2L346.1 226.2L350.7 224.2L355.4 220.3L360 218.4L364.6 216.4L369.3 214.6L373.9 210.8L378.5 209L383.1 207.2L387.8 205.5L392.4 202L397 200.3L401.7 198.6L406.3 197L410.9 193.8L415.5 192.1L420.2 190.6L424.8 189.1L429.4 186L434 184.6L438.7 183.1L443.3 181.7L447.9 179L452.6 177.6L457.2 176.3L461.8 175L466.4 172.4L471.1 171.2L475.7 170L480.3 168.8L485 166.5L489.6 165.4L494.2 164.2L498.8 163.1L503.5 161L508.1 160L512.7 159L517.4 158L522 156.1L526.6 155.1L531.2 154.2L535.9 153.4L540.5 151.7L545.1 150.9L549.8 150.1L554.4 149.3L559 147.9L563.6 147.2L568.3 146.5L572.9 145.9L577.5 144.6L582.1 144L586.8 143.4L591.4 142.9L596 141.8L600.7 141.3L605.3 140.8L609.9 140.3L614.5 139.5L619.2 139L623.8 138.6L628.4 138.3L633.1 137.5L637.7 137.2" fill="none" stroke="#ACDFED" stroke-width="2" stroke-linejoin="bevel"></path>
</g>
<g clip-path="url(#zr0-c1)">
<path d="M82.3 133.8L86.9 133.8L91.6 133.8L96.2 133.8L100.8 133.8L105.5 133.8L110.1 133.8L114.7 133.8L119.3 133.8L124 133.8L128.6 133.8L133.2 133.8L137.9 133.8L142.5 133.8L147.1 133.8L151.7 133.8L156.4 133.8L161 133.8L165.6 133.8L170.2 133.8L174.9 133.8L179.5 133.8L184.1 133.8L188.8 133.8L193.4 133.8L198 133.8L202.6 133.8L207.3 133.8L211.9 133.8L216.5 133.8L221.2 133.8L225.8 133.7L230.4 133.7L235 133.7L239.7 133.7L244.3 133.8L248.9 133.8L253.6 133.8L258.2 133.8L262.8 133.8L267.4 133.8L272.1 133.8L276.7 133.8L281.3 133.8L286 133.8L290.6 133.8L295.2 133.8L299.8 133.7L304.5 133.7L309.1 133.7L313.7 133.7L318.3 133.7L323 133.7L327.6 133.7L332.2 133.7L336.9 133.7L341.5 133.7L346.1 133.7L350.7 133.7L355.4 133.7L360 133.7L364.6 133.7L369.3 133.7L373.9 133.7L378.5 133.7L383.1 133.7L387.8 133.7L392.4 133.7L397 133.7L401.7 133.7L406.3 133.7L410.9 133.7L415.5 133.7L420.2 133.7L424.8 133.7L429.4 133.7L434 133.7L438.7 133.7L443.3 133.7L447.9 133.8L452.6 133.8L457.2 133.7L461.8 133.7L466.4 133.7L471.1 133.7L475.7 133.7L480.3 133.7L485 133.7L489.6 133.8L494.2 133.8L498.8 133.8L503.5 133.8L508.1 133.8L512.7 133.8L517.4 133.8L522 133.8L526.6 133.8L531.2 133.8L535.9 133.8L540.5 133.8L545.1 133.8L549.8 133.8L554.4 133.8L559 133.8L563.6 133.8L568.3 133.8L572.9 133.8L577.5 133.8L582.1 133.8L586.8 133.8L591.4 133.8L596 133.8L600.7 133.8L605.3 133.8L609.9 133.8L614.5 133.8L619.2 133.8L623.8 133.8L628.4 133.8L633.1 133.8L637.7 133.7" fill="none" stroke="#ACDFED" stroke-width="2" stroke-linejoin="bevel"></path>
</g>
<g clip-path="url(#zr0-c2)">
<path d="M82.3 84.6L86.9 85.2L91.6 84.3L96.2 79.7L100.8 83L105.5 83.4L110.1 78.4L114.7 85.2L119.3 81.1L124 80.1L128.6 82L133.2 81.4L137.9 83.6L142.5 79.1L147.1 77.3L151.7 81.1L156.4 78.7L161 76.1L165.6 80.4L170.2 78.4L174.9 80.1L179.5 77.2L184.1 77.3L188.8 73.8L193.4 76.2L198 74.1L202.6 77.9L207.3 77.2L211.9 72.2L216.5 79.5L221.2 74.5L225.8 73.6L230.4 75.6L235 75.2L239.7 70.9L244.3 78L248.9 72.2L253.6 73.3L258.2 74.8L262.8 74.2L267.4 76.2L272.1 72.1L276.7 70.5L281.3 73.3L286 87.5L290.6 97.1L295.2 106.2L299.8 114.9L304.5 131.6L309.1 139.5L313.7 147.3L318.3 154.9L323 170L327.6 177.4L332.2 184.6L336.9 191.9L341.5 206L346.1 213L350.7 219.8L355.4 226.6L360 239.9L364.6 246.5L369.3 253L373.9 259.3L378.5 271.9L383.1 277.9L387.8 284L392.4 290L397 301.7L401.7 307.5L406.3 313.1L410.9 318.8L415.5 329.8L420.2 335.2L424.8 340.4L429.4 345.5L434 355.7L438.7 360.7L443.3 365.5L447.9 370.2L452.6 379.6L457.2 384.2L461.8 388.6L466.4 393L471.1 401.5L475.7 405.7L480.3 409.8L485 413.8L489.6 421.8L494.2 425.5L498.8 429.3L503.5 432.9L508.1 440.2L512.7 443.5L517.4 447L522 450.2L526.6 456.7L531.2 459.8L535.9 462.7L540.5 465.7L545.1 471.3L549.8 474L554.4 476.7L559 479.2L563.6 484.1L568.3 486.4L572.9 488.5L577.5 490.8L582.1 494.8L586.8 496.8L591.4 498.7L596 500.6L600.7 504.1L605.3 505.8L609.9 507.4L614.5 508.9L619.2 511.9L623.8 513.2L628.4 514.6L633.1 515.9L637.7 518.3" fill="none" stroke="#f7f494" stroke-width="2" stroke-linejoin="bevel"></path>
</g>
<path d="M0 -1L1 1L-1 1Z" transform="matrix(5,0,0,5,82.314,263.6667)" fill="#ACDFED"></path>
<path d="M0 -1L1 1L-1 1Z" transform="matrix(5,0,0,5,147.1074,265.8208)" fill="#ACDFED"></path>
<path d="M0 -1L1 1L-1 1Z" transform="matrix(5,0,0,5,211.9008,267.27)" fill="#ACDFED"></path>
<path d="M0 -1L1 1L-1 1Z" transform="matrix(5,0,0,5,276.6942,267.7792)" fill="#ACDFED"></path>
<path d="M0 -1L1 1L-1 1Z" transform="matrix(5,0,0,5,341.4876,228.2208)" fill="#ACDFED"></path>
<path d="M0 -1L1 1L-1 1Z" transform="matrix(5,0,0,5,406.281,196.9658)" fill="#ACDFED"></path>
<path d="M0 -1L1 1L-1 1Z" transform="matrix(5,0,0,5,471.0744,171.2333)" fill="#ACDFED"></path>
<path d="M0 -1L1 1L-1 1Z" transform="matrix(5,0,0,5,535.8678,153.3733)" fill="#ACDFED"></path>
<path d="M0 -1L1 1L-1 1Z" transform="matrix(5,0,0,5,600.6611,141.31)" fill="#ACDFED"></path>
<path d="M1 0A1 1 0 1 1 1 -0.0001" transform="matrix(0,0,0,0,82.314,133.7508)" fill="#ACDFED" fill-opacity="0"></path>
<path d="M1 0A1 1 0 1 1 1 -0.0001" transform="matrix(5,0,0,5,82.314,133.7508)" fill="#ACDFED"></path>
<path d="M1 0A1 1 0 1 1 1 -0.0001" transform="matrix(5,0,0,5,147.1074,133.7508)" fill="#ACDFED"></path>
<path d="M1 0A1 1 0 1 1 1 -0.0001" transform="matrix(5,0,0,5,211.9008,133.7508)" fill="#ACDFED"></path>
<path d="M1 0A1 1 0 1 1 1 -0.0001" transform="matrix(5,0,0,5,276.6942,133.7508)" fill="#ACDFED"></path>
<path d="M1 0A1 1 0 1 1 1 -0.0001" transform="matrix(5,0,0,5,341.4876,133.7117)" fill="#ACDFED"></path>
<path d="M1 0A1 1 0 1 1 1 -0.0001" transform="matrix(5,0,0,5,406.281,133.7117)" fill="#ACDFED"></path>
<path d="M1 0A1 1 0 1 1 1 -0.0001" transform="matrix(5,0,0,5,471.0744,133.7117)" fill="#ACDFED"></path>
<path d="M1 0A1 1 0 1 1 1 -0.0001" transform="matrix(5,0,0,5,535.8678,133.7508)" fill="#ACDFED"></path>
<path d="M1 0A1 1 0 1 1 1 -0.0001" transform="matrix(5,0,0,5,600.6611,133.7508)" fill="#ACDFED"></path>
<path d="M0 -1L1 1L-1 1Z" transform="matrix(0,0,0,0,82.314,73.16)" fill="#FFAB91" fill-opacity="0"></path>
<path d="M0 -1L1 1L-1 1Z" transform="matrix(0,0,0,0,82.314,528.7914)" fill="#f7f494" fill-opacity="0"></path>
<path d="M0 -1L1 1L-1 1Z" transform="matrix(5,0,0,5,82.314,84.5743)" fill="#f7f494"></path>
<path d="M0 -1L1 1L-1 1Z" transform="matrix(5,0,0,5,147.1074,77.3229)" fill="#f7f494"></path>
<path d="M0 -1L1 1L-1 1Z" transform="matrix(5,0,0,5,211.9008,72.22)" fill="#f7f494"></path>
<path d="M0 -1L1 1L-1 1Z" transform="matrix(5,0,0,5,276.6942,70.4743)" fill="#f7f494"></path>
<path d="M0 -1L1 1L-1 1Z" transform="matrix(5,0,0,5,341.4876,205.9686)" fill="#f7f494"></path>
<path d="M0 -1L1 1L-1 1Z" transform="matrix(5,0,0,5,406.281,313.1286)" fill="#f7f494"></path>
<path d="M0 -1L1 1L-1 1Z" transform="matrix(5,0,0,5,471.0744,401.4886)" fill="#f7f494"></path>
<path d="M0 -1L1 1L-1 1Z" transform="matrix(5,0,0,5,535.8678,462.7229)" fill="#f7f494"></path>
<path d="M0 -1L1 1L-1 1Z" transform="matrix(5,0,0,5,600.6611,504.0829)" fill="#f7f494"></path>
<path d="M0 0l560 0l0 30l-560 0Z" transform="matrix(1,0,0,-1,82.8,592.5)" fill="rgb(47,69,84)" fill-opacity="0"></path>
<g clip-path="url(#zr0-c3)">
<polygon points="560 0 0 0 0 6.3 4.7 6.3 9.3 6.2 14 6.3 18.7 6.2 23.3 6.2 28 6 32.7 6.1 37.3 6.1 42 6.1 46.7 6.1 51.3 5.9 56 6.2 60.7 6 65.3 5.9 70 6 74.7 6 79.3 5.9 84 6.1 88.7 5.8 93.3 6.1 98 5.9 102.7 6 107.3 6.1 112 5.9 116.7 5.8 121.3 6 126 5.9 130.7 5.7 135.3 6 140 5.8 144.7 5.9 149.3 5.9 154 5.9 158.7 5.7 163.3 5.8 168 5.7 172.7 5.8 177.3 5.8 182 5.6 186.7 5.9 191.3 5.7 196 5.7 200.7 5.9 205.3 6.4 210 6.8 214.7 7.2 219.3 7.9 224 8.2 228.7 8.6 233.3 8.9 238 9.5 242.7 9.8 247.3 10.1 252 10.4 256.7 11 261.3 11.3 266 11.6 270.7 11.9 275.3 12.5 280 12.7 284.7 13 289.3 13.3 294 13.8 298.7 14.1 303.3 14.3 308 14.6 312.7 15.1 317.3 15.3 322 15.6 326.7 15.8 331.3 16.3 336 16.5 340.7 16.7 345.3 16.9 350 17.4 354.7 17.6 359.3 17.8 364 18 368.7 18.4 373.3 18.6 378 18.8 382.7 19 387.3 19.3 392 19.5 396.7 19.7 401.3 19.8 406 20.2 410.7 20.3 415.3 20.5 420 20.7 424.7 21 429.3 21.1 434 21.2 438.7 21.4 443.3 21.7 448 21.8 452.7 21.9 457.3 22.1 462 22.3 466.7 22.4 471.3 22.5 476 22.6 480.7 22.8 485.3 22.9 490 23 494.7 23.1 499.3 23.3 504 23.4 508.7 23.5 513.3 23.6 518 23.7 522.7 23.8 527.3 23.9 532 23.9 536.7 24 541.3 24.1 546 24.2 550.7 24.2 555.3 24.3 560 24.4" transform="matrix(1,0,0,-1,82.8,592.5)" fill="#71708A" fill-opacity="0.2"></polygon>
</g>
<g clip-path="url(#zr0-c4)">
<polygon points="560 0 0 0 0 6.3 4.7 6.3 9.3 6.2 14 6.3 18.7 6.2 23.3 6.2 28 6 32.7 6.1 37.3 6.1 42 6.1 46.7 6.1 51.3 5.9 56 6.2 60.7 6 65.3 5.9 70 6 74.7 6 79.3 5.9 84 6.1 88.7 5.8 93.3 6.1 98 5.9 102.7 6 107.3 6.1 112 5.9 116.7 5.8 121.3 6 126 5.9 130.7 5.7 135.3 6 140 5.8 144.7 5.9 149.3 5.9 154 5.9 158.7 5.7 163.3 5.8 168 5.7 172.7 5.8 177.3 5.8 182 5.6 186.7 5.9 191.3 5.7 196 5.7 200.7 5.9 205.3 6.4 210 6.8 214.7 7.2 219.3 7.9 224 8.2 228.7 8.6 233.3 8.9 238 9.5 242.7 9.8 247.3 10.1 252 10.4 256.7 11 261.3 11.3 266 11.6 270.7 11.9 275.3 12.5 280 12.7 284.7 13 289.3 13.3 294 13.8 298.7 14.1 303.3 14.3 308 14.6 312.7 15.1 317.3 15.3 322 15.6 326.7 15.8 331.3 16.3 336 16.5 340.7 16.7 345.3 16.9 350 17.4 354.7 17.6 359.3 17.8 364 18 368.7 18.4 373.3 18.6 378 18.8 382.7 19 387.3 19.3 392 19.5 396.7 19.7 401.3 19.8 406 20.2 410.7 20.3 415.3 20.5 420 20.7 424.7 21 429.3 21.1 434 21.2 438.7 21.4 443.3 21.7 448 21.8 452.7 21.9 457.3 22.1 462 22.3 466.7 22.4 471.3 22.5 476 22.6 480.7 22.8 485.3 22.9 490 23 494.7 23.1 499.3 23.3 504 23.4 508.7 23.5 513.3 23.6 518 23.7 522.7 23.8 527.3 23.9 532 23.9 536.7 24 541.3 24.1 546 24.2 550.7 24.2 555.3 24.3 560 24.4" transform="matrix(1,0,0,-1,82.8,592.5)" fill="#87A3CE" fill-opacity="0.2"></polygon>
</g>
<g clip-path="url(#zr0-c5)">
<polygon points="560 0 0 0 0 6.3 4.7 6.3 9.3 6.2 14 6.3 18.7 6.2 23.3 6.2 28 6 32.7 6.1 37.3 6.1 42 6.1 46.7 6.1 51.3 5.9 56 6.2 60.7 6 65.3 5.9 70 6 74.7 6 79.3 5.9 84 6.1 88.7 5.8 93.3 6.1 98 5.9 102.7 6 107.3 6.1 112 5.9 116.7 5.8 121.3 6 126 5.9 130.7 5.7 135.3 6 140 5.8 144.7 5.9 149.3 5.9 154 5.9 158.7 5.7 163.3 5.8 168 5.7 172.7 5.8 177.3 5.8 182 5.6 186.7 5.9 191.3 5.7 196 5.7 200.7 5.9 205.3 6.4 210 6.8 214.7 7.2 219.3 7.9 224 8.2 228.7 8.6 233.3 8.9 238 9.5 242.7 9.8 247.3 10.1 252 10.4 256.7 11 261.3 11.3 266 11.6 270.7 11.9 275.3 12.5 280 12.7 284.7 13 289.3 13.3 294 13.8 298.7 14.1 303.3 14.3 308 14.6 312.7 15.1 317.3 15.3 322 15.6 326.7 15.8 331.3 16.3 336 16.5 340.7 16.7 345.3 16.9 350 17.4 354.7 17.6 359.3 17.8 364 18 368.7 18.4 373.3 18.6 378 18.8 382.7 19 387.3 19.3 392 19.5 396.7 19.7 401.3 19.8 406 20.2 410.7 20.3 415.3 20.5 420 20.7 424.7 21 429.3 21.1 434 21.2 438.7 21.4 443.3 21.7 448 21.8 452.7 21.9 457.3 22.1 462 22.3 466.7 22.4 471.3 22.5 476 22.6 480.7 22.8 485.3 22.9 490 23 494.7 23.1 499.3 23.3 504 23.4 508.7 23.5 513.3 23.6 518 23.7 522.7 23.8 527.3 23.9 532 23.9 536.7 24 541.3 24.1 546 24.2 550.7 24.2 555.3 24.3 560 24.4" transform="matrix(1,0,0,-1,82.8,592.5)" fill="#71708A" fill-opacity="0.2"></polygon>
</g>
<g clip-path="url(#zr0-c3)">
<polyline points="0 6.3 4.7 6.3 9.3 6.2 14 6.3 18.7 6.2 23.3 6.2 28 6 32.7 6.1 37.3 6.1 42 6.1 46.7 6.1 51.3 5.9 56 6.2 60.7 6 65.3 5.9 70 6 74.7 6 79.3 5.9 84 6.1 88.7 5.8 93.3 6.1 98 5.9 102.7 6 107.3 6.1 112 5.9 116.7 5.8 121.3 6 126 5.9 130.7 5.7 135.3 6 140 5.8 144.7 5.9 149.3 5.9 154 5.9 158.7 5.7 163.3 5.8 168 5.7 172.7 5.8 177.3 5.8 182 5.6 186.7 5.9 191.3 5.7 196 5.7 200.7 5.9 205.3 6.4 210 6.8 214.7 7.2 219.3 7.9 224 8.2 228.7 8.6 233.3 8.9 238 9.5 242.7 9.8 247.3 10.1 252 10.4 256.7 11 261.3 11.3 266 11.6 270.7 11.9 275.3 12.5 280 12.7 284.7 13 289.3 13.3 294 13.8 298.7 14.1 303.3 14.3 308 14.6 312.7 15.1 317.3 15.3 322 15.6 326.7 15.8 331.3 16.3 336 16.5 340.7 16.7 345.3 16.9 350 17.4 354.7 17.6 359.3 17.8 364 18 368.7 18.4 373.3 18.6 378 18.8 382.7 19 387.3 19.3 392 19.5 396.7 19.7 401.3 19.8 406 20.2 410.7 20.3 415.3 20.5 420 20.7 424.7 21 429.3 21.1 434 21.2 438.7 21.4 443.3 21.7 448 21.8 452.7 21.9 457.3 22.1 462 22.3 466.7 22.4 471.3 22.5 476 22.6 480.7 22.8 485.3 22.9 490 23 494.7 23.1 499.3 23.3 504 23.4 508.7 23.5 513.3 23.6 518 23.7 522.7 23.8 527.3 23.9 532 23.9 536.7 24 541.3 24.1 546 24.2 550.7 24.2 555.3 24.3 560 24.4" transform="matrix(1,0,0,-1,82.8,592.5)" fill="none" stroke="#71708A"></polyline>
</g>
<g clip-path="url(#zr0-c4)">
<polyline points="0 6.3 4.7 6.3 9.3 6.2 14 6.3 18.7 6.2 23.3 6.2 28 6 32.7 6.1 37.3 6.1 42 6.1 46.7 6.1 51.3 5.9 56 6.2 60.7 6 65.3 5.9 70 6 74.7 6 79.3 5.9 84 6.1 88.7 5.8 93.3 6.1 98 5.9 102.7 6 107.3 6.1 112 5.9 116.7 5.8 121.3 6 126 5.9 130.7 5.7 135.3 6 140 5.8 144.7 5.9 149.3 5.9 154 5.9 158.7 5.7 163.3 5.8 168 5.7 172.7 5.8 177.3 5.8 182 5.6 186.7 5.9 191.3 5.7 196 5.7 200.7 5.9 205.3 6.4 210 6.8 214.7 7.2 219.3 7.9 224 8.2 228.7 8.6 233.3 8.9 238 9.5 242.7 9.8 247.3 10.1 252 10.4 256.7 11 261.3 11.3 266 11.6 270.7 11.9 275.3 12.5 280 12.7 284.7 13 289.3 13.3 294 13.8 298.7 14.1 303.3 14.3 308 14.6 312.7 15.1 317.3 15.3 322 15.6 326.7 15.8 331.3 16.3 336 16.5 340.7 16.7 345.3 16.9 350 17.4 354.7 17.6 359.3 17.8 364 18 368.7 18.4 373.3 18.6 378 18.8 382.7 19 387.3 19.3 392 19.5 396.7 19.7 401.3 19.8 406 20.2 410.7 20.3 415.3 20.5 420 20.7 424.7 21 429.3 21.1 434 21.2 438.7 21.4 443.3 21.7 448 21.8 452.7 21.9 457.3 22.1 462 22.3 466.7 22.4 471.3 22.5 476 22.6 480.7 22.8 485.3 22.9 490 23 494.7 23.1 499.3 23.3 504 23.4 508.7 23.5 513.3 23.6 518 23.7 522.7 23.8 527.3 23.9 532 23.9 536.7 24 541.3 24.1 546 24.2 550.7 24.2 555.3 24.3 560 24.4" transform="matrix(1,0,0,-1,82.8,592.5)" fill="none" stroke="#87A3CE" stroke-width="0.5"></polyline>
</g>
<g clip-path="url(#zr0-c5)">
<polyline points="0 6.3 4.7 6.3 9.3 6.2 14 6.3 18.7 6.2 23.3 6.2 28 6 32.7 6.1 37.3 6.1 42 6.1 46.7 6.1 51.3 5.9 56 6.2 60.7 6 65.3 5.9 70 6 74.7 6 79.3 5.9 84 6.1 88.7 5.8 93.3 6.1 98 5.9 102.7 6 107.3 6.1 112 5.9 116.7 5.8 121.3 6 126 5.9 130.7 5.7 135.3 6 140 5.8 144.7 5.9 149.3 5.9 154 5.9 158.7 5.7 163.3 5.8 168 5.7 172.7 5.8 177.3 5.8 182 5.6 186.7 5.9 191.3 5.7 196 5.7 200.7 5.9 205.3 6.4 210 6.8 214.7 7.2 219.3 7.9 224 8.2 228.7 8.6 233.3 8.9 238 9.5 242.7 9.8 247.3 10.1 252 10.4 256.7 11 261.3 11.3 266 11.6 270.7 11.9 275.3 12.5 280 12.7 284.7 13 289.3 13.3 294 13.8 298.7 14.1 303.3 14.3 308 14.6 312.7 15.1 317.3 15.3 322 15.6 326.7 15.8 331.3 16.3 336 16.5 340.7 16.7 345.3 16.9 350 17.4 354.7 17.6 359.3 17.8 364 18 368.7 18.4 373.3 18.6 378 18.8 382.7 19 387.3 19.3 392 19.5 396.7 19.7 401.3 19.8 406 20.2 410.7 20.3 415.3 20.5 420 20.7 424.7 21 429.3 21.1 434 21.2 438.7 21.4 443.3 21.7 448 21.8 452.7 21.9 457.3 22.1 462 22.3 466.7 22.4 471.3 22.5 476 22.6 480.7 22.8 485.3 22.9 490 23 494.7 23.1 499.3 23.3 504 23.4 508.7 23.5 513.3 23.6 518 23.7 522.7 23.8 527.3 23.9 532 23.9 536.7 24 541.3 24.1 546 24.2 550.7 24.2 555.3 24.3 560 24.4" transform="matrix(1,0,0,-1,82.8,592.5)" fill="none" stroke="#71708A"></polyline>
</g>
<path d="M-5 -5l691.0547 0l0 22l-691.0547 0Z" transform="translate(59.4727 5)" fill="rgb(0,0,0)" fill-opacity="0" stroke="#ccc" stroke-width="0"></path>
<path d="M0 7L25 7" transform="translate(60.4727 4)" fill="#000" stroke="#ACDFED" stroke-width="2" stroke-linecap="butt" stroke-miterlimit="10"></path>
<path d="M12.5 1.4L18.1 12.6L6.9 12.6Z" transform="translate(60.4727 4)" fill="#ACDFED"></path>
<text dominant-baseline="central" text-anchor="start" style="font-size:12px;font-family:Microsoft YaHei;" x="30" y="7" transform="translate(60.4727 4)" fill="#B9B8CE">Pipe_Pres</text>
<path d="M0 7L25 7" transform="translate(156.1465 4)" fill="#000" stroke="#ACDFED" stroke-width="2" stroke-linecap="butt" stroke-miterlimit="10"></path>
<path d="M18.1 7A5.6 5.6 0 1 1 18.1 6.9994" transform="translate(156.1465 4)" fill="#ACDFED"></path>
<text dominant-baseline="central" text-anchor="start" style="font-size:12px;font-family:Microsoft YaHei;" x="30" y="7" transform="translate(156.1465 4)" fill="#B9B8CE">Ambient_Pres</text>
<path d="M0 7L25 7" transform="translate(276.0313 4)" fill="#000" stroke="#ccc" stroke-width="2" stroke-linecap="butt" stroke-miterlimit="10"></path>
<path d="M12.5 1.4L18.1 12.6L6.9 12.6Z" transform="translate(276.0313 4)" fill="#ccc" stroke="#ccc" stroke-width="0" stroke-linecap="butt" stroke-miterlimit="10"></path>
<text dominant-baseline="central" text-anchor="start" style="font-size:12px;font-family:Microsoft YaHei;" x="30" y="7" transform="translate(276.0313 4)" fill="#ccc">Pipe_Temp</text>
<path d="M0 7L25 7" transform="translate(380.0137 4)" fill="#000" stroke="#ccc" stroke-width="2" stroke-linecap="butt" stroke-miterlimit="10"></path>
<path d="M18.1 7A5.6 5.6 0 1 1 18.1 6.9994" transform="translate(380.0137 4)" fill="#ccc" stroke="#ccc" stroke-width="0" stroke-linecap="butt" stroke-miterlimit="10"></path>
<text dominant-baseline="central" text-anchor="start" style="font-size:12px;font-family:Microsoft YaHei;" x="30" y="7" transform="translate(380.0137 4)" fill="#ccc">Chip_Temp</text>
<path d="M0 7L25 7" transform="translate(485.2617 4)" fill="#000" stroke="#ccc" stroke-width="2" stroke-linecap="butt" stroke-miterlimit="10"></path>
<path d="M18.1 7A5.6 5.6 0 1 1 18.1 6.9994" transform="translate(485.2617 4)" fill="#ccc" stroke="#ccc" stroke-width="0" stroke-linecap="butt" stroke-miterlimit="10"></path>
<text dominant-baseline="central" text-anchor="start" style="font-size:12px;font-family:Microsoft YaHei;" x="30" y="7" transform="translate(485.2617 4)" fill="#ccc">Set_nPressure</text>
<path d="M0 7L25 7" transform="translate(605.8672 4)" fill="#000" stroke="#f7f494" stroke-width="2" stroke-linecap="butt" stroke-miterlimit="10"></path>
<path d="M12.5 1.4L18.1 12.6L6.9 12.6Z" transform="translate(605.8672 4)" fill="#f7f494"></path>
<text dominant-baseline="central" text-anchor="start" style="font-size:12px;font-family:Microsoft YaHei;" x="30" y="7" transform="translate(605.8672 4)" fill="#B9B8CE">Current_nPressure</text>
<path d="M0 0l560 0l0 30l-560 0Z" transform="matrix(1,0,0,-1,82.8,592.5)" fill="none"></path>
<path d="M0 0l560 0l0 30l-560 0Z" transform="matrix(1,0,0,-1,82.8,592.5)" fill="rgb(135,163,206)" fill-opacity="0.2"></path>
<path d="M3.5 0.5L556.5 0.5A3 3 0 0 1 559.5 3.5L559.5 26.5A3 3 0 0 1 556.5 29.5L3.5 29.5A3 3 0 0 1 0.5 26.5L0.5 3.5A3 3 0 0 1 3.5 0.5" transform="matrix(1,0,0,-1,82.8,592.5)" fill="rgb(0,0,0)" fill-opacity="0" stroke="#71708A"></path>
<path d="M0 29.5L560 29.5L560 34.5A2 2 0 0 1 558 36.5L2 36.5A2 2 0 0 1 0 34.5L0 29.5" transform="matrix(1,0,0,-1,82.8,592.5)" fill="#B0B6C3" fill-opacity="0.3"></path>
<path d="M-2.2408 -1.6796C-1.8674 -1.6796 -1.6817 -1.4939 -1.6817 -1.1204L-1.6817 1.1204C-1.6817 1.4939 -1.8674 1.6796 -2.2408 1.6796C-2.6143 1.6796 -2.8 1.4939 -2.8 1.1204L-2.8 -1.1204C-2.8 -1.4939 -2.6143 -1.6796 -2.2408 -1.6796ZM0 -1.6796C0.3735 -1.6796 0.5592 -1.4939 0.5592 -1.1204L0.5592 1.1204C0.5592 1.4939 0.3735 1.6796 0 1.6796C-0.3735 1.6796 -0.5592 1.4939 -0.5592 1.1204L-0.5592 -1.1204C-0.5592 -1.4939 -0.3735 -1.6796 0 -1.6796ZM2.2408 -1.6796C2.6143 -1.6796 2.8 -1.4939 2.8 -1.1204L2.8 1.1204C2.8 1.4939 2.6143 1.6796 2.2408 1.6796C1.8674 1.6796 1.6817 1.4939 1.6817 1.1204L1.6817 -1.1204C1.6796 -1.4939 1.8674 -1.6796 2.2408 -1.6796Z" transform="matrix(1,0,0,-1,362.8,559.5)" fill="#fff"></path>
<path d="M0 1.628L0 2M0 0L0 0.375M-0.1 0.375L0.1 0.375A0.1 0.1 0 0 1 0.2 0.475L0.2 1.525A0.1 0.1 0 0 1 0.1 1.625L-0.1 1.625A0.1 0.1 0 0 1 -0.2 1.525L-0.2 0.475A0.1 0.1 0 0 1 -0.1 0.375Z" transform="matrix(15,0,0,-15,83.8,592.5)" fill="#353450" stroke="#C5CBE3" stroke-width="0.06666666666666667"></path>
<path d="M0 1.628L0 2M0 0L0 0.375M-0.1 0.375L0.1 0.375A0.1 0.1 0 0 1 0.2 0.475L0.2 1.525A0.1 0.1 0 0 1 0.1 1.625L-0.1 1.625A0.1 0.1 0 0 1 -0.2 1.525L-0.2 0.475A0.1 0.1 0 0 1 -0.1 0.375Z" transform="matrix(15,0,0,-15,641.8,592.5)" fill="#353450" stroke="#C5CBE3" stroke-width="0.06666666666666667"></path>
<defs >
<clipPath id="zr0-c0">
<path d="M79 59l562 0l0 472l-562 0Z" fill="#000"></path>
</clipPath>
<clipPath id="zr0-c1">
<path d="M79 59l562 0l0 472l-562 0Z" fill="#000"></path>
</clipPath>
<clipPath id="zr0-c2">
<path d="M79 59l562 0l0 472l-562 0Z" fill="#000"></path>
</clipPath>
<clipPath id="zr0-c3">
<path d="M0 0l0 0l0 30l0 0Z" transform="matrix(1,0,0,-1,82.8,592.5)" fill="#000"></path>
</clipPath>
<clipPath id="zr0-c4">
<path d="M0 0l560 0l0 30l-560 0Z" transform="matrix(1,0,0,-1,82.8,592.5)" fill="#000"></path>
</clipPath>
<clipPath id="zr0-c5">
<path d="M560 0l0 0l0 30l0 0Z" transform="matrix(1,0,0,-1,82.8,592.5)" fill="#000"></path>
</clipPath>
</defs>
</svg>