<svg width="800" height="600" xmlns="http://www.w3.org/2000/svg" xmlns:xlink="http://www.w3.org/1999/xlink" version="1.1" baseProfile="full" viewBox="0 0 800 600">
<rect width="800" height="600" x="0" y="0" id="0" fill="rgb(40, 44, 52)" fill-opacity="1"></rect>
<path d="M80 530.5L640 530.5" fill="none" stroke="#484753"></path>
<path d="M80 451.5L640 451.5" fill="none" stroke="#484753"></path>
<path d="M80 373.5L640 373.5" fill="none" stroke="#484753"></path>
<path d="M80 295.5L640 295.5" fill="none" stroke="#484753"></path>
<path d="M80 216.5L640 216.5" fill="none" stroke="#484753"></path>
<path d="M80 138.5L640 138.5" fill="none" stroke="#484753"></path>
<path d="M80 60.5L640 60.5" fill="none" stroke="#484753"></path>
<path d="M80.5 530L80.5 60" fill="none" stroke="#ACDFED" stroke-linecap="round"></path>
<text dominant-baseline="central" text-anchor="middle" style="font-size:12px;font-family:Microsoft YaHei;" y="-6" transform="translate(80 45)" fill="#B9B8CE">压力</text>
<path d="M640.5 530L640.5 60" fill="none" stroke="#FFAB91" stroke-linecap="round"></path>
<text dominant-baseline="central" text-anchor="middle" style="font-size:12px;font-family:Microsoft YaHei;" y="-6" transform="translate(640 45)" fill="#B9B8CE">温度</text>
<path d="M720.5 530L720.5 60" fill="none" stroke="#f7f494" stroke-linecap="round"></path>
<text dominant-baseline="central" text-anchor="middle" style="font-size:12px;font-family:Microsoft YaHei;" y="-6" transform="translate(720 45)" fill="#B9B8CE">负压</text>
<path d="M80 530.5L640 530.5" fill="none" stroke="#B9B8CE" stroke-linecap="round"></path>
<path d="M115.5 530L115.5 535" fill="none" stroke="#B9B8CE"></path>
<path d="M182.5 530L182.5 535" fill="none" stroke="#B9B8CE"></path>
<path d="M248.5 530L248.5 535" fill="none" stroke="#B9B8CE"></path>
<path d="M315.5 530L315.5 535" fill="none" stroke="#B9B8CE"></path>
<path d="M381.5 530L381.5 535" fill="none" stroke="#B9B8CE"></path>
<path d="M448.5 530L448.5 535" fill="none" stroke="#B9B8CE"></path>
<path d="M514.5 530L514.5 535" fill="none" stroke="#B9B8CE"></path>
<path d="M580.5 530L580.5 535" fill="none" stroke="#B9B8CE"></path>
<text dominant-baseline="central" text-anchor="start" style="font-size:12px;font-family:Microsoft YaHei;" xml:space="preserve" transform="translate(728 530)" fill="#B9B8CE">0 hPa</text>
<text dominant-baseline="central" text-anchor="start" style="font-size:12px;font-family:Microsoft YaHei;" xml:space="preserve" transform="translate(728 451.6667)" fill="#B9B8CE">30 hPa</text>
<text dominant-baseline="central" text-anchor="start" style="font-size:12px;font-family:Microsoft YaHei;" xml:space="preserve" transform="translate(728 373.3333)" fill="#B9B8CE">60 hPa</text>
<text dominant-baseline="central" text-anchor="start" style="font-size:12px;font-family:Microsoft YaHei;" xml:space="preserve" transform="translate(728 295)" fill="#B9B8CE">90 hPa</text>
<text dominant-baseline="central" text-anchor="start" style="font-size:12px;font-family:Microsoft YaHei;" xml:space="preserve" transform="translate(728 216.6667)" fill="#B9B8CE">120 hPa</text>
<text dominant-baseline="central" text-anchor="start" style="font-size:12px;font-family:Microsoft YaHei;" xml:space="preserve" transform="translate(728 138.3333)" fill="#B9B8CE">150 hPa</text>
<text dominant-baseline="central" text-anchor="start" style="font-size:12px;font-family:Microsoft YaHei;" xml:space="preserve" transform="translate(728 60)" fill="#B9B8CE">180 hPa</text>
<text dominant-baseline="central" text-anchor="middle" style="font-size:12px;font-family:Microsoft YaHei;" y="6" transform="translate(115.5932 538)" fill="#B9B8CE">19:06:12</text>
<text dominant-baseline="central" text-anchor="middle" style="font-size:12px;font-family:Microsoft YaHei;" y="6" transform="translate(182.0339 538)" fill="#B9B8CE">19:06:26</text>
<text dominant-baseline="central" text-anchor="middle" style="font-size:12px;font-family:Microsoft YaHei;" y="6" transform="translate(248.4746 538)" fill="#B9B8CE">19:06:40</text>
<text dominant-baseline="central" text-anchor="middle" style="font-size:12px;font-family:Microsoft YaHei;" y="6" transform="translate(314.9153 538)" fill="#B9B8CE">19:06:54</text>
<text dominant-baseline="central" text-anchor="middle" style="font-size:12px;font-family:Microsoft YaHei;" y="6" transform="translate(381.3559 538)" fill="#B9B8CE">19:07:08</text>
<text dominant-baseline="central" text-anchor="middle" style="font-size:12px;font-family:Microsoft YaHei;" y="6" transform="translate(447.7966 538)" fill="#B9B8CE">19:07:22</text>
<text dominant-baseline="central" text-anchor="middle" style="font-size:12px;font-family:Microsoft YaHei;" y="6" transform="translate(514.2373 538)" fill="#B9B8CE">19:07:36</text>
<text dominant-baseline="central" text-anchor="middle" style="font-size:12px;font-family:Microsoft YaHei;" y="6" transform="translate(580.678 538)" fill="#B9B8CE">19:07:50</text>
<g clip-path="url(#zr0-c0)">
<path d="M82.3729 528.1722L87.1186 527.9111L91.8644 527.9111L96.6102 528.1722L101.3559 504.4111L106.1017 472.0333L110.8475 444.3556L115.5932 401.7944L120.339 377.7722L125.0847 363.9333L129.8305 341.2167L134.5763 309.6222L139.322 287.4278L144.0678 262.1L148.8136 259.4889L153.5593 211.9667L158.3051 215.6222L163.0508 187.9444L167.7966 175.15L172.5424 150.0833L177.2881 129.1944L182.0339 138.3333L186.7797 135.9833L191.5254 134.6778L196.2712 143.0333L201.017 138.3333L205.7627 139.9L210.5085 145.6444L215.2542 152.6944L220 156.35L224.7458 152.4333L229.4915 159.2222L234.2373 158.9611L238.983 162.8778L243.7288 163.6611L248.4746 165.75L253.2203 170.7111L257.9661 168.1L262.7119 171.2333L267.4576 174.8889L272.2034 174.6278L276.9492 175.6722L281.6949 177.5L286.4407 178.2833L291.1864 177.5L295.9322 179.5889L300.678 179.5889L305.4237 181.1555L310.1695 186.3778L314.9153 184.0278L319.661 184.0278L324.4068 183.2444L329.1526 184.55L333.8983 187.9444L338.6441 184.2889L343.3898 185.5945L348.1356 186.6389L352.8813 187.6833L357.6271 185.0722L362.3729 188.4667L367.1187 191.3389L371.8644 189.25L376.6102 189.25L381.3559 190.5556L386.1017 191.3389L390.8474 192.9055L395.5932 189.7722L400.339 193.95L405.0847 193.6889L409.8305 188.2056L414.5763 192.9055L419.322 193.1667L424.0678 188.4667L428.8136 187.9444L433.5593 192.1222L438.3051 191.6L443.0508 194.9944L447.7966 192.3833L452.5424 188.7278L457.2881 193.6889L462.0339 190.8167L466.7797 192.6444L471.5254 196.8222L476.2712 193.95L481.0169 196.5611L485.7627 189.7722L490.5085 191.8611L495.2542 191.8611L500 196.5611L504.7458 199.1722L509.4915 192.3833L514.2373 191.8611L518.983 197.0833L523.7288 198.1278L528.4745 194.7333L533.2203 194.4722L537.9661 192.9055L542.7119 193.6889L547.4576 192.3833L552.2034 194.4722L556.9492 193.95L561.6949 197.0833L566.4407 190.2944L571.1865 196.5611L575.9322 197.0833L580.678 194.2111L585.4237 197.6056L590.1695 196.5611L594.9153 192.1222L599.661 193.1667L604.4068 195.2556L609.1525 194.9944L613.8983 195.2556L618.644 197.3445L623.3898 197.0833L628.1356 197.8667L632.8813 197.8667L637.6271 193.6889" fill="none" stroke="#f7f494" stroke-width="2" stroke-linejoin="bevel"></path>
</g>
<g clip-path="url(#zr0-c1)">
<path d="M82.3729 195.7778L87.1186 195.7778L91.8644 195.7778L96.6102 195.7778L101.3559 195.7778L106.1017 195.7778L110.8475 195.7778L115.5932 195.7778L120.339 195.7778L125.0847 195.7778L129.8305 195.7778L134.5763 195.7778L139.322 195.7778L144.0678 195.7778L148.8136 195.7778L153.5593 195.7778L158.3051 195.7778L163.0508 195.7778L167.7966 195.7778L172.5424 195.7778L177.2881 195.7778L182.0339 195.7778L186.7797 195.7778L191.5254 195.7778L196.2712 195.7778L201.017 195.7778L205.7627 195.7778L210.5085 195.7778L215.2542 195.7778L220 195.7778L224.7458 195.7778L229.4915 195.7778L234.2373 195.7778L238.983 195.7778L243.7288 195.7778L248.4746 195.7778L253.2203 195.7778L257.9661 195.7778L262.7119 195.7778L267.4576 195.7778L272.2034 195.7778L276.9492 195.7778L281.6949 195.7778L286.4407 195.7778L291.1864 195.7778L295.9322 195.7778L300.678 195.7778L305.4237 195.7778L310.1695 195.7778L314.9153 195.7778L319.661 195.7778L324.4068 195.7778L329.1526 195.7778L333.8983 195.7778L338.6441 195.7778L343.3898 195.7778L348.1356 195.7778L352.8813 195.7778L357.6271 195.7778L362.3729 195.7778L367.1187 195.7778L371.8644 195.7778L376.6102 195.7778L381.3559 195.7778L386.1017 195.7778L390.8474 195.7778L395.5932 195.7778L400.339 195.7778L405.0847 195.7778L409.8305 195.7778L414.5763 195.7778L419.322 195.7778L424.0678 195.7778L428.8136 195.7778L433.5593 195.7778L438.3051 195.7778L443.0508 195.7778L447.7966 195.7778L452.5424 195.7778L457.2881 195.7778L462.0339 195.7778L466.7797 195.7778L471.5254 195.7778L476.2712 195.7778L481.0169 195.7778L485.7627 195.7778L490.5085 195.7778L495.2542 195.7778L500 195.7778L504.7458 195.7778L509.4915 195.7778L514.2373 195.7778L518.983 195.7778L523.7288 195.7778L528.4745 195.7778L533.2203 195.7778L537.9661 195.7778L542.7119 195.7778L547.4576 195.7778L552.2034 195.7778L556.9492 195.7778L561.6949 195.7778L566.4407 195.7778L571.1865 195.7778L575.9322 195.7778L580.678 195.7778L585.4237 195.7778L590.1695 195.7778L594.9153 195.7778L599.661 195.7778L604.4068 195.7778L609.1525 195.7778L613.8983 195.7778L618.644 195.7778L623.3898 195.7778L628.1356 195.7778L632.8813 195.7778L637.6271 195.7778" fill="none" stroke="#f7f494" stroke-width="2" stroke-linejoin="bevel"></path>
</g>
<path d="M0 -1L1 1L-1 1Z" transform="matrix(5,0,0,5,115.5932,401.7944)" fill="#f7f494"></path>
<path d="M0 -1L1 1L-1 1Z" transform="matrix(5,0,0,5,182.0339,138.3333)" fill="#f7f494"></path>
<path d="M0 -1L1 1L-1 1Z" transform="matrix(5,0,0,5,248.4746,165.75)" fill="#f7f494"></path>
<path d="M0 -1L1 1L-1 1Z" transform="matrix(5,0,0,5,314.9153,184.0278)" fill="#f7f494"></path>
<path d="M0 -1L1 1L-1 1Z" transform="matrix(5,0,0,5,381.3559,190.5556)" fill="#f7f494"></path>
<path d="M0 -1L1 1L-1 1Z" transform="matrix(5,0,0,5,447.7966,192.3833)" fill="#f7f494"></path>
<path d="M0 -1L1 1L-1 1Z" transform="matrix(5,0,0,5,514.2373,191.8611)" fill="#f7f494"></path>
<path d="M0 -1L1 1L-1 1Z" transform="matrix(5,0,0,5,580.678,194.2111)" fill="#f7f494"></path>
<path d="M1 0A1 1 0 1 1 1 -0.0001" transform="matrix(5,0,0,5,115.5932,195.7778)" fill="#f7f494"></path>
<path d="M1 0A1 1 0 1 1 1 -0.0001" transform="matrix(5,0,0,5,182.0339,195.7778)" fill="#f7f494"></path>
<path d="M1 0A1 1 0 1 1 1 -0.0001" transform="matrix(5,0,0,5,248.4746,195.7778)" fill="#f7f494"></path>
<path d="M1 0A1 1 0 1 1 1 -0.0001" transform="matrix(5,0,0,5,314.9153,195.7778)" fill="#f7f494"></path>
<path d="M1 0A1 1 0 1 1 1 -0.0001" transform="matrix(5,0,0,5,381.3559,195.7778)" fill="#f7f494"></path>
<path d="M1 0A1 1 0 1 1 1 -0.0001" transform="matrix(5,0,0,5,447.7966,195.7778)" fill="#f7f494"></path>
<path d="M1 0A1 1 0 1 1 1 -0.0001" transform="matrix(5,0,0,5,514.2373,195.7778)" fill="#f7f494"></path>
<path d="M1 0A1 1 0 1 1 1 -0.0001" transform="matrix(5,0,0,5,580.678,195.7778)" fill="#f7f494"></path>
<path d="M0 0l560 0l0 30l-560 0Z" transform="matrix(1,0,0,-1,82.8,592.5)" fill="rgb(47,69,84)" fill-opacity="0"></path>
<g clip-path="url(#zr0-c2)">
<polygon points="560 0 0 0 0 16 3.1 16 6.2 16 9.3 15.8 12.4 15.7 15.6 16 18.7 15.8 21.8 15.9 24.9 16 28 15.9 31.1 15.8 34.2 15.9 37.3 16 40.4 15.9 43.6 15.9 46.7 15.9 49.8 15.9 52.9 15.8 56 15.9 59.1 15.9 62.2 15.7 65.3 15.7 68.4 15.8 71.6 15.9 74.7 15.9 77.8 16 80.9 15.8 84 16 87.1 16 90.2 15.9 93.3 15.9 96.4 15.8 99.6 15.8 102.7 15.9 105.8 15.8 108.9 16 112 15.9 115.1 15.9 118.2 15.9 121.3 15.8 124.4 15.9 127.6 15.9 130.7 16 133.8 15.8 136.9 15.8 140 15.9 143.1 15.9 146.2 15.9 149.3 15.9 152.4 16 155.6 15.9 158.7 15.8 161.8 15.9 164.9 15.8 168 16 171.1 15.8 174.2 15.7 177.3 15.9 180.4 15.1 183.6 14.7 186.7 14.4 189.8 5.6 192.9 5.6 196 5.6 199.1 5.6 202.2 5.6 205.3 5.6 208.4 6.7 211.6 8.3 214.7 9.6 217.8 11.6 220.9 12.7 224 13.3 227.1 14.4 230.2 15.9 233.3 16.9 236.4 18.1 239.6 18.3 242.7 20.5 245.8 20.3 248.9 21.6 252 22.2 255.1 23.4 258.2 24.4 261.3 23.9 264.4 24.1 267.6 24.1 270.7 23.7 273.8 23.9 276.9 23.9 280 23.6 283.1 23.3 286.2 23.1 289.3 23.3 292.4 23 295.6 23 298.7 22.8 301.8 22.8 304.9 22.7 308 22.4 311.1 22.5 314.2 22.4 317.3 22.2 320.4 22.2 323.6 22.2 326.7 22.1 329.8 22.1 332.9 22.1 336 22 339.1 22 342.2 21.9 345.3 21.7 348.4 21.8 351.6 21.8 354.7 21.8 357.8 21.8 360.9 21.6 364 21.8 367.1 21.7 370.2 21.7 373.3 21.6 376.4 21.7 379.6 21.6 382.7 21.5 385.8 21.6 388.9 21.6 392 21.5 395.1 21.5 398.2 21.4 401.3 21.5 404.4 21.3 407.6 21.3 410.7 21.6 413.8 21.4 416.9 21.4 420 21.6 423.1 21.6 426.2 21.4 429.3 21.4 432.4 21.3 435.6 21.4 438.7 21.6 441.8 21.3 444.9 21.5 448 21.4 451.1 21.2 454.2 21.3 457.3 21.2 460.4 21.5 463.6 21.4 466.7 21.4 469.8 21.2 472.9 21.1 476 21.4 479.1 21.4 482.2 21.2 485.3 21.1 488.4 21.3 491.6 21.3 494.7 21.4 497.8 21.3 500.9 21.4 504 21.3 507.1 21.3 510.2 21.2 513.3 21.5 516.4 21.2 519.6 21.2 522.7 21.3 525.8 21.2 528.9 21.2 532 21.4 535.1 21.4 538.2 21.3 541.3 21.3 544.4 21.3 547.6 21.2 550.7 21.2 553.8 21.1 556.9 21.1 560 21.3" transform="matrix(1,0,0,-1,82.8,592.5)" fill="#71708A" fill-opacity="0.2"></polygon>
</g>
<g clip-path="url(#zr0-c3)">
<polygon points="560 0 0 0 0 16 3.1 16 6.2 16 9.3 15.8 12.4 15.7 15.6 16 18.7 15.8 21.8 15.9 24.9 16 28 15.9 31.1 15.8 34.2 15.9 37.3 16 40.4 15.9 43.6 15.9 46.7 15.9 49.8 15.9 52.9 15.8 56 15.9 59.1 15.9 62.2 15.7 65.3 15.7 68.4 15.8 71.6 15.9 74.7 15.9 77.8 16 80.9 15.8 84 16 87.1 16 90.2 15.9 93.3 15.9 96.4 15.8 99.6 15.8 102.7 15.9 105.8 15.8 108.9 16 112 15.9 115.1 15.9 118.2 15.9 121.3 15.8 124.4 15.9 127.6 15.9 130.7 16 133.8 15.8 136.9 15.8 140 15.9 143.1 15.9 146.2 15.9 149.3 15.9 152.4 16 155.6 15.9 158.7 15.8 161.8 15.9 164.9 15.8 168 16 171.1 15.8 174.2 15.7 177.3 15.9 180.4 15.1 183.6 14.7 186.7 14.4 189.8 5.6 192.9 5.6 196 5.6 199.1 5.6 202.2 5.6 205.3 5.6 208.4 6.7 211.6 8.3 214.7 9.6 217.8 11.6 220.9 12.7 224 13.3 227.1 14.4 230.2 15.9 233.3 16.9 236.4 18.1 239.6 18.3 242.7 20.5 245.8 20.3 248.9 21.6 252 22.2 255.1 23.4 258.2 24.4 261.3 23.9 264.4 24.1 267.6 24.1 270.7 23.7 273.8 23.9 276.9 23.9 280 23.6 283.1 23.3 286.2 23.1 289.3 23.3 292.4 23 295.6 23 298.7 22.8 301.8 22.8 304.9 22.7 308 22.4 311.1 22.5 314.2 22.4 317.3 22.2 320.4 22.2 323.6 22.2 326.7 22.1 329.8 22.1 332.9 22.1 336 22 339.1 22 342.2 21.9 345.3 21.7 348.4 21.8 351.6 21.8 354.7 21.8 357.8 21.8 360.9 21.6 364 21.8 367.1 21.7 370.2 21.7 373.3 21.6 376.4 21.7 379.6 21.6 382.7 21.5 385.8 21.6 388.9 21.6 392 21.5 395.1 21.5 398.2 21.4 401.3 21.5 404.4 21.3 407.6 21.3 410.7 21.6 413.8 21.4 416.9 21.4 420 21.6 423.1 21.6 426.2 21.4 429.3 21.4 432.4 21.3 435.6 21.4 438.7 21.6 441.8 21.3 444.9 21.5 448 21.4 451.1 21.2 454.2 21.3 457.3 21.2 460.4 21.5 463.6 21.4 466.7 21.4 469.8 21.2 472.9 21.1 476 21.4 479.1 21.4 482.2 21.2 485.3 21.1 488.4 21.3 491.6 21.3 494.7 21.4 497.8 21.3 500.9 21.4 504 21.3 507.1 21.3 510.2 21.2 513.3 21.5 516.4 21.2 519.6 21.2 522.7 21.3 525.8 21.2 528.9 21.2 532 21.4 535.1 21.4 538.2 21.3 541.3 21.3 544.4 21.3 547.6 21.2 550.7 21.2 553.8 21.1 556.9 21.1 560 21.3" transform="matrix(1,0,0,-1,82.8,592.5)" fill="#87A3CE" fill-opacity="0.2"></polygon>
</g>
<g clip-path="url(#zr0-c4)">
<polygon points="560 0 0 0 0 16 3.1 16 6.2 16 9.3 15.8 12.4 15.7 15.6 16 18.7 15.8 21.8 15.9 24.9 16 28 15.9 31.1 15.8 34.2 15.9 37.3 16 40.4 15.9 43.6 15.9 46.7 15.9 49.8 15.9 52.9 15.8 56 15.9 59.1 15.9 62.2 15.7 65.3 15.7 68.4 15.8 71.6 15.9 74.7 15.9 77.8 16 80.9 15.8 84 16 87.1 16 90.2 15.9 93.3 15.9 96.4 15.8 99.6 15.8 102.7 15.9 105.8 15.8 108.9 16 112 15.9 115.1 15.9 118.2 15.9 121.3 15.8 124.4 15.9 127.6 15.9 130.7 16 133.8 15.8 136.9 15.8 140 15.9 143.1 15.9 146.2 15.9 149.3 15.9 152.4 16 155.6 15.9 158.7 15.8 161.8 15.9 164.9 15.8 168 16 171.1 15.8 174.2 15.7 177.3 15.9 180.4 15.1 183.6 14.7 186.7 14.4 189.8 5.6 192.9 5.6 196 5.6 199.1 5.6 202.2 5.6 205.3 5.6 208.4 6.7 211.6 8.3 214.7 9.6 217.8 11.6 220.9 12.7 224 13.3 227.1 14.4 230.2 15.9 233.3 16.9 236.4 18.1 239.6 18.3 242.7 20.5 245.8 20.3 248.9 21.6 252 22.2 255.1 23.4 258.2 24.4 261.3 23.9 264.4 24.1 267.6 24.1 270.7 23.7 273.8 23.9 276.9 23.9 280 23.6 283.1 23.3 286.2 23.1 289.3 23.3 292.4 23 295.6 23 298.7 22.8 301.8 22.8 304.9 22.7 308 22.4 311.1 22.5 314.2 22.4 317.3 22.2 320.4 22.2 323.6 22.2 326.7 22.1 329.8 22.1 332.9 22.1 336 22 339.1 22 342.2 21.9 345.3 21.7 348.4 21.8 351.6 21.8 354.7 21.8 357.8 21.8 360.9 21.6 364 21.8 367.1 21.7 370.2 21.7 373.3 21.6 376.4 21.7 379.6 21.6 382.7 21.5 385.8 21.6 388.9 21.6 392 21.5 395.1 21.5 398.2 21.4 401.3 21.5 404.4 21.3 407.6 21.3 410.7 21.6 413.8 21.4 416.9 21.4 420 21.6 423.1 21.6 426.2 21.4 429.3 21.4 432.4 21.3 435.6 21.4 438.7 21.6 441.8 21.3 444.9 21.5 448 21.4 451.1 21.2 454.2 21.3 457.3 21.2 460.4 21.5 463.6 21.4 466.7 21.4 469.8 21.2 472.9 21.1 476 21.4 479.1 21.4 482.2 21.2 485.3 21.1 488.4 21.3 491.6 21.3 494.7 21.4 497.8 21.3 500.9 21.4 504 21.3 507.1 21.3 510.2 21.2 513.3 21.5 516.4 21.2 519.6 21.2 522.7 21.3 525.8 21.2 528.9 21.2 532 21.4 535.1 21.4 538.2 21.3 541.3 21.3 544.4 21.3 547.6 21.2 550.7 21.2 553.8 21.1 556.9 21.1 560 21.3" transform="matrix(1,0,0,-1,82.8,592.5)" fill="#71708A" fill-opacity="0.2"></polygon>
</g>
<g clip-path="url(#zr0-c2)">
<polyline points="0 16 3.1 16 6.2 16 9.3 15.8 12.4 15.7 15.6 16 18.7 15.8 21.8 15.9 24.9 16 28 15.9 31.1 15.8 34.2 15.9 37.3 16 40.4 15.9 43.6 15.9 46.7 15.9 49.8 15.9 52.9 15.8 56 15.9 59.1 15.9 62.2 15.7 65.3 15.7 68.4 15.8 71.6 15.9 74.7 15.9 77.8 16 80.9 15.8 84 16 87.1 16 90.2 15.9 93.3 15.9 96.4 15.8 99.6 15.8 102.7 15.9 105.8 15.8 108.9 16 112 15.9 115.1 15.9 118.2 15.9 121.3 15.8 124.4 15.9 127.6 15.9 130.7 16 133.8 15.8 136.9 15.8 140 15.9 143.1 15.9 146.2 15.9 149.3 15.9 152.4 16 155.6 15.9 158.7 15.8 161.8 15.9 164.9 15.8 168 16 171.1 15.8 174.2 15.7 177.3 15.9 180.4 15.1 183.6 14.7 186.7 14.4 189.8 5.6 192.9 5.6 196 5.6 199.1 5.6 202.2 5.6 205.3 5.6 208.4 6.7 211.6 8.3 214.7 9.6 217.8 11.6 220.9 12.7 224 13.3 227.1 14.4 230.2 15.9 233.3 16.9 236.4 18.1 239.6 18.3 242.7 20.5 245.8 20.3 248.9 21.6 252 22.2 255.1 23.4 258.2 24.4 261.3 23.9 264.4 24.1 267.6 24.1 270.7 23.7 273.8 23.9 276.9 23.9 280 23.6 283.1 23.3 286.2 23.1 289.3 23.3 292.4 23 295.6 23 298.7 22.8 301.8 22.8 304.9 22.7 308 22.4 311.1 22.5 314.2 22.4 317.3 22.2 320.4 22.2 323.6 22.2 326.7 22.1 329.8 22.1 332.9 22.1 336 22 339.1 22 342.2 21.9 345.3 21.7 348.4 21.8 351.6 21.8 354.7 21.8 357.8 21.8 360.9 21.6 364 21.8 367.1 21.7 370.2 21.7 373.3 21.6 376.4 21.7 379.6 21.6 382.7 21.5 385.8 21.6 388.9 21.6 392 21.5 395.1 21.5 398.2 21.4 401.3 21.5 404.4 21.3 407.6 21.3 410.7 21.6 413.8 21.4 416.9 21.4 420 21.6 423.1 21.6 426.2 21.4 429.3 21.4 432.4 21.3 435.6 21.4 438.7 21.6 441.8 21.3 444.9 21.5 448 21.4 451.1 21.2 454.2 21.3 457.3 21.2 460.4 21.5 463.6 21.4 466.7 21.4 469.8 21.2 472.9 21.1 476 21.4 479.1 21.4 482.2 21.2 485.3 21.1 488.4 21.3 491.6 21.3 494.7 21.4 497.8 21.3 500.9 21.4 504 21.3 507.1 21.3 510.2 21.2 513.3 21.5 516.4 21.2 519.6 21.2 522.7 21.3 525.8 21.2 528.9 21.2 532 21.4 535.1 21.4 538.2 21.3 541.3 21.3 544.4 21.3 547.6 21.2 550.7 21.2 553.8 21.1 556.9 21.1 560 21.3" transform="matrix(1,0,0,-1,82.8,592.5)" fill="none" stroke="#71708A"></polyline>
</g>
<g clip-path="url(#zr0-c3)">
<polyline points="0 16 3.1 16 6.2 16 9.3 15.8 12.4 15.7 15.6 16 18.7 15.8 21.8 15.9 24.9 16 28 15.9 31.1 15.8 34.2 15.9 37.3 16 40.4 15.9 43.6 15.9 46.7 15.9 49.8 15.9 52.9 15.8 56 15.9 59.1 15.9 62.2 15.7 65.3 15.7 68.4 15.8 71.6 15.9 74.7 15.9 77.8 16 80.9 15.8 84 16 87.1 16 90.2 15.9 93.3 15.9 96.4 15.8 99.6 15.8 102.7 15.9 105.8 15.8 108.9 16 112 15.9 115.1 15.9 118.2 15.9 121.3 15.8 124.4 15.9 127.6 15.9 130.7 16 133.8 15.8 136.9 15.8 140 15.9 143.1 15.9 146.2 15.9 149.3 15.9 152.4 16 155.6 15.9 158.7 15.8 161.8 15.9 164.9 15.8 168 16 171.1 15.8 174.2 15.7 177.3 15.9 180.4 15.1 183.6 14.7 186.7 14.4 189.8 5.6 192.9 5.6 196 5.6 199.1 5.6 202.2 5.6 205.3 5.6 208.4 6.7 211.6 8.3 214.7 9.6 217.8 11.6 220.9 12.7 224 13.3 227.1 14.4 230.2 15.9 233.3 16.9 236.4 18.1 239.6 18.3 242.7 20.5 245.8 20.3 248.9 21.6 252 22.2 255.1 23.4 258.2 24.4 261.3 23.9 264.4 24.1 267.6 24.1 270.7 23.7 273.8 23.9 276.9 23.9 280 23.6 283.1 23.3 286.2 23.1 289.3 23.3 292.4 23 295.6 23 298.7 22.8 301.8 22.8 304.9 22.7 308 22.4 311.1 22.5 314.2 22.4 317.3 22.2 320.4 22.2 323.6 22.2 326.7 22.1 329.8 22.1 332.9 22.1 336 22 339.1 22 342.2 21.9 345.3 21.7 348.4 21.8 351.6 21.8 354.7 21.8 357.8 21.8 360.9 21.6 364 21.8 367.1 21.7 370.2 21.7 373.3 21.6 376.4 21.7 379.6 21.6 382.7 21.5 385.8 21.6 388.9 21.6 392 21.5 395.1 21.5 398.2 21.4 401.3 21.5 404.4 21.3 407.6 21.3 410.7 21.6 413.8 21.4 416.9 21.4 420 21.6 423.1 21.6 426.2 21.4 429.3 21.4 432.4 21.3 435.6 21.4 438.7 21.6 441.8 21.3 444.9 21.5 448 21.4 451.1 21.2 454.2 21.3 457.3 21.2 460.4 21.5 463.6 21.4 466.7 21.4 469.8 21.2 472.9 21.1 476 21.4 479.1 21.4 482.2 21.2 485.3 21.1 488.4 21.3 491.6 21.3 494.7 21.4 497.8 21.3 500.9 21.4 504 21.3 507.1 21.3 510.2 21.2 513.3 21.5 516.4 21.2 519.6 21.2 522.7 21.3 525.8 21.2 528.9 21.2 532 21.4 535.1 21.4 538.2 21.3 541.3 21.3 544.4 21.3 547.6 21.2 550.7 21.2 553.8 21.1 556.9 21.1 560 21.3" transform="matrix(1,0,0,-1,82.8,592.5)" fill="none" stroke="#87A3CE" stroke-width="0.5"></polyline>
</g>
<g clip-path="url(#zr0-c4)">
<polyline points="0 16 3.1 16 6.2 16 9.3 15.8 12.4 15.7 15.6 16 18.7 15.8 21.8 15.9 24.9 16 28 15.9 31.1 15.8 34.2 15.9 37.3 16 40.4 15.9 43.6 15.9 46.7 15.9 49.8 15.9 52.9 15.8 56 15.9 59.1 15.9 62.2 15.7 65.3 15.7 68.4 15.8 71.6 15.9 74.7 15.9 77.8 16 80.9 15.8 84 16 87.1 16 90.2 15.9 93.3 15.9 96.4 15.8 99.6 15.8 102.7 15.9 105.8 15.8 108.9 16 112 15.9 115.1 15.9 118.2 15.9 121.3 15.8 124.4 15.9 127.6 15.9 130.7 16 133.8 15.8 136.9 15.8 140 15.9 143.1 15.9 146.2 15.9 149.3 15.9 152.4 16 155.6 15.9 158.7 15.8 161.8 15.9 164.9 15.8 168 16 171.1 15.8 174.2 15.7 177.3 15.9 180.4 15.1 183.6 14.7 186.7 14.4 189.8 5.6 192.9 5.6 196 5.6 199.1 5.6 202.2 5.6 205.3 5.6 208.4 6.7 211.6 8.3 214.7 9.6 217.8 11.6 220.9 12.7 224 13.3 227.1 14.4 230.2 15.9 233.3 16.9 236.4 18.1 239.6 18.3 242.7 20.5 245.8 20.3 248.9 21.6 252 22.2 255.1 23.4 258.2 24.4 261.3 23.9 264.4 24.1 267.6 24.1 270.7 23.7 273.8 23.9 276.9 23.9 280 23.6 283.1 23.3 286.2 23.1 289.3 23.3 292.4 23 295.6 23 298.7 22.8 301.8 22.8 304.9 22.7 308 22.4 311.1 22.5 314.2 22.4 317.3 22.2 320.4 22.2 323.6 22.2 326.7 22.1 329.8 22.1 332.9 22.1 336 22 339.1 22 342.2 21.9 345.3 21.7 348.4 21.8 351.6 21.8 354.7 21.8 357.8 21.8 360.9 21.6 364 21.8 367.1 21.7 370.2 21.7 373.3 21.6 376.4 21.7 379.6 21.6 382.7 21.5 385.8 21.6 388.9 21.6 392 21.5 395.1 21.5 398.2 21.4 401.3 21.5 404.4 21.3 407.6 21.3 410.7 21.6 413.8 21.4 416.9 21.4 420 21.6 423.1 21.6 426.2 21.4 429.3 21.4 432.4 21.3 435.6 21.4 438.7 21.6 441.8 21.3 444.9 21.5 448 21.4 451.1 21.2 454.2 21.3 457.3 21.2 460.4 21.5 463.6 21.4 466.7 21.4 469.8 21.2 472.9 21.1 476 21.4 479.1 21.4 482.2 21.2 485.3 21.1 488.4 21.3 491.6 21.3 494.7 21.4 497.8 21.3 500.9 21.4 504 21.3 507.1 21.3 510.2 21.2 513.3 21.5 516.4 21.2 519.6 21.2 522.7 21.3 525.8 21.2 528.9 21.2 532 21.4 535.1 21.4 538.2 21.3 541.3 21.3 544.4 21.3 547.6 21.2 550.7 21.2 553.8 21.1 556.9 21.1 560 21.3" transform="matrix(1,0,0,-1,82.8,592.5)" fill="none" stroke="#71708A"></polyline>
</g>
<path d="M-5 -5l691.0547 0l0 22l-691.0547 0Z" transform="translate(59.4727 5)" fill="rgb(0,0,0)" fill-opacity="0" stroke="#ccc" stroke-width="0"></path>
<path d="M0 7L25 7" transform="translate(60.4727 4)" fill="#000" stroke="#ccc" stroke-width="2" stroke-linecap="butt" stroke-miterlimit="10"></path>
<path d="M12.5 1.4L18.1 12.6L6.9 12.6Z" transform="translate(60.4727 4)" fill="#ccc" stroke="#ccc" stroke-width="0" stroke-linecap="butt" stroke-miterlimit="10"></path>
<text dominant-baseline="central" text-anchor="start" style="font-size:12px;font-family:Microsoft YaHei;" x="30" y="7" transform="translate(60.4727 4)" fill="#ccc">Pipe_Pres</text>
<path d="M0 7L25 7" transform="translate(156.1465 4)" fill="#000" stroke="#ccc" stroke-width="2" stroke-linecap="butt" stroke-miterlimit="10"></path>
<path d="M18.1 7A5.6 5.6 0 1 1 18.1 6.9994" transform="translate(156.1465 4)" fill="#ccc" stroke="#ccc" stroke-width="0" stroke-linecap="butt" stroke-miterlimit="10"></path>
<text dominant-baseline="central" text-anchor="start" style="font-size:12px;font-family:Microsoft YaHei;" x="30" y="7" transform="translate(156.1465 4)" fill="#ccc">Ambient_Pres</text>
<path d="M0 7L25 7" transform="translate(276.0313 4)" fill="#000" stroke="#ccc" stroke-width="2" stroke-linecap="butt" stroke-miterlimit="10"></path>
<path d="M12.5 1.4L18.1 12.6L6.9 12.6Z" transform="translate(276.0313 4)" fill="#ccc" stroke="#ccc" stroke-width="0" stroke-linecap="butt" stroke-miterlimit="10"></path>
<text dominant-baseline="central" text-anchor="start" style="font-size:12px;font-family:Microsoft YaHei;" x="30" y="7" transform="translate(276.0313 4)" fill="#ccc">Pipe_Temp</text>
<path d="M0 7L25 7" transform="translate(380.0137 4)" fill="#000" stroke="#ccc" stroke-width="2" stroke-linecap="butt" stroke-miterlimit="10"></path>
<path d="M18.1 7A5.6 5.6 0 1 1 18.1 6.9994" transform="translate(380.0137 4)" fill="#ccc" stroke="#ccc" stroke-width="0" stroke-linecap="butt" stroke-miterlimit="10"></path>
<text dominant-baseline="central" text-anchor="start" style="font-size:12px;font-family:Microsoft YaHei;" x="30" y="7" transform="translate(380.0137 4)" fill="#ccc">Chip_Temp</text>
<path d="M0 7L25 7" transform="translate(485.2617 4)" fill="#000" stroke="#f7f494" stroke-width="2" stroke-linecap="butt" stroke-miterlimit="10"></path>
<path d="M18.1 7A5.6 5.6 0 1 1 18.1 6.9994" transform="translate(485.2617 4)" fill="#f7f494"></path>
<text dominant-baseline="central" text-anchor="start" style="font-size:12px;font-family:Microsoft YaHei;" x="30" y="7" transform="translate(485.2617 4)" fill="#B9B8CE">Set_nPressure</text>
<path d="M0 7L25 7" transform="translate(605.8672 4)" fill="#000" stroke="#f7f494" stroke-width="2" stroke-linecap="butt" stroke-miterlimit="10"></path>
<path d="M12.5 1.4L18.1 12.6L6.9 12.6Z" transform="translate(605.8672 4)" fill="#f7f494"></path>
<text dominant-baseline="central" text-anchor="start" style="font-size:12px;font-family:Microsoft YaHei;" x="30" y="7" transform="translate(605.8672 4)" fill="#B9B8CE">Current_nPressure</text>
<path d="M0 0l560 0l0 30l-560 0Z" transform="matrix(1,0,0,-1,82.8,592.5)" fill="none"></path>
<path d="M195 0l365 0l0 30l-365 0Z" transform="matrix(1,0,0,-1,82.8,592.5)" fill="rgb(135,163,206)" fill-opacity="0.2"></path>
<path d="M3.5 0.5L556.5 0.5A3 3 0 0 1 559.5 3.5L559.5 26.5A3 3 0 0 1 556.5 29.5L3.5 29.5A3 3 0 0 1 0.5 26.5L0.5 3.5A3 3 0 0 1 3.5 0.5" transform="matrix(1,0,0,-1,82.8,592.5)" fill="rgb(0,0,0)" fill-opacity="0" stroke="#71708A"></path>
<path d="M195 29.5L560 29.5L560 34.5A2 2 0 0 1 558 36.5L197 36.5A2 2 0 0 1 195 34.5L195 29.5" transform="matrix(1,0,0,-1,82.8,592.5)" fill="#B0B6C3" fill-opacity="0.3"></path>
<path d="M-2.2408 -1.6796C-1.8674 -1.6796 -1.6817 -1.4939 -1.6817 -1.1204L-1.6817 1.1204C-1.6817 1.4939 -1.8674 1.6796 -2.2408 1.6796C-2.6143 1.6796 -2.8 1.4939 -2.8 1.1204L-2.8 -1.1204C-2.8 -1.4939 -2.6143 -1.6796 -2.2408 -1.6796ZM0 -1.6796C0.3735 -1.6796 0.5592 -1.4939 0.5592 -1.1204L0.5592 1.1204C0.5592 1.4939 0.3735 1.6796 0 1.6796C-0.3735 1.6796 -0.5592 1.4939 -0.5592 1.1204L-0.5592 -1.1204C-0.5592 -1.4939 -0.3735 -1.6796 0 -1.6796ZM2.2408 -1.6796C2.6143 -1.6796 2.8 -1.4939 2.8 -1.1204L2.8 1.1204C2.8 1.4939 2.6143 1.6796 2.2408 1.6796C1.8674 1.6796 1.6817 1.4939 1.6817 1.1204L1.6817 -1.1204C1.6796 -1.4939 1.8674 -1.6796 2.2408 -1.6796Z" transform="matrix(1,0,0,-1,460.3,559.5)" fill="#fff"></path>
<path d="M0 1.628L0 2M0 0L0 0.375M-0.1 0.375L0.1 0.375A0.1 0.1 0 0 1 0.2 0.475L0.2 1.525A0.1 0.1 0 0 1 0.1 1.625L-0.1 1.625A0.1 0.1 0 0 1 -0.2 1.525L-0.2 0.475A0.1 0.1 0 0 1 -0.1 0.375Z" transform="matrix(15,0,0,-15,278.8,592.5)" fill="#353450" stroke="#C5CBE3" stroke-width="0.06666666666666667"></path>
<path d="M0 1.628L0 2M0 0L0 0.375M-0.1 0.375L0.1 0.375A0.1 0.1 0 0 1 0.2 0.475L0.2 1.525A0.1 0.1 0 0 1 0.1 1.625L-0.1 1.625A0.1 0.1 0 0 1 -0.2 1.525L-0.2 0.475A0.1 0.1 0 0 1 -0.1 0.375Z" transform="matrix(15,0,0,-15,641.8,592.5)" fill="#353450" stroke="#C5CBE3" stroke-width="0.06666666666666667"></path>
<defs >
<clipPath id="zr0-c0">
<path d="M79 59l562 0l0 472l-562 0Z" fill="#000"></path>
</clipPath>
<clipPath id="zr0-c1">
<path d="M79 59l562 0l0 472l-562 0Z" fill="#000"></path>
</clipPath>
<clipPath id="zr0-c2">
<path d="M0 0l195 0l0 30l-195 0Z" transform="matrix(1,0,0,-1,82.8,592.5)" fill="#000"></path>
</clipPath>
<clipPath id="zr0-c3">
<path d="M195 0l365 0l0 30l-365 0Z" transform="matrix(1,0,0,-1,82.8,592.5)" fill="#000"></path>
</clipPath>
<clipPath id="zr0-c4">
<path d="M560 0l0 0l0 30l0 0Z" transform="matrix(1,0,0,-1,82.8,592.5)" fill="#000"></path>
</clipPath>
</defs>
</svg>