<svg width="800" height="600" xmlns="http://www.w3.org/2000/svg" xmlns:xlink="http://www.w3.org/1999/xlink" version="1.1" baseProfile="full" viewBox="0 0 800 600">
<rect width="800" height="600" x="0" y="0" id="0" fill="rgb(40, 44, 52)" fill-opacity="1"></rect>
<path d="M80 530.5L640 530.5" fill="none" stroke="#484753"></path>
<path d="M80 436.5L640 436.5" fill="none" stroke="#484753"></path>
<path d="M80 342.5L640 342.5" fill="none" stroke="#484753"></path>
<path d="M80 248.5L640 248.5" fill="none" stroke="#484753"></path>
<path d="M80 154.5L640 154.5" fill="none" stroke="#484753"></path>
<path d="M80 60.5L640 60.5" fill="none" stroke="#484753"></path>
<path d="M80.5 530L80.5 60" fill="none" stroke="#ACDFED" stroke-linecap="round"></path>
<text dominant-baseline="central" text-anchor="middle" style="font-size:12px;font-family:Microsoft YaHei;" y="-6" transform="translate(80 45)" fill="#B9B8CE">压力</text>
<path d="M640.5 530L640.5 60" fill="none" stroke="#FFAB91" stroke-linecap="round"></path>
<text dominant-baseline="central" text-anchor="middle" style="font-size:12px;font-family:Microsoft YaHei;" y="-6" transform="translate(640 45)" fill="#B9B8CE">温度</text>
<path d="M720.5 530L720.5 60" fill="none" stroke="#f7f494" stroke-linecap="round"></path>
<text dominant-baseline="central" text-anchor="middle" style="font-size:12px;font-family:Microsoft YaHei;" y="-6" transform="translate(720 45)" fill="#B9B8CE">负压</text>
<path d="M80 530.5L640 530.5" fill="none" stroke="#B9B8CE" stroke-linecap="round"></path>
<path d="M82.5 530L82.5 535" fill="none" stroke="#B9B8CE"></path>
<path d="M147.5 530L147.5 535" fill="none" stroke="#B9B8CE"></path>
<path d="M212.5 530L212.5 535" fill="none" stroke="#B9B8CE"></path>
<path d="M276.5 530L276.5 535" fill="none" stroke="#B9B8CE"></path>
<path d="M341.5 530L341.5 535" fill="none" stroke="#B9B8CE"></path>
<path d="M406.5 530L406.5 535" fill="none" stroke="#B9B8CE"></path>
<path d="M471.5 530L471.5 535" fill="none" stroke="#B9B8CE"></path>
<path d="M536.5 530L536.5 535" fill="none" stroke="#B9B8CE"></path>
<path d="M600.5 530L600.5 535" fill="none" stroke="#B9B8CE"></path>
<text dominant-baseline="central" text-anchor="start" style="font-size:12px;font-family:Microsoft YaHei;" xml:space="preserve" transform="translate(728 530)" fill="#B9B8CE">0 hPa</text>
<text dominant-baseline="central" text-anchor="start" style="font-size:12px;font-family:Microsoft YaHei;" xml:space="preserve" transform="translate(728 436)" fill="#B9B8CE">100 hPa</text>
<text dominant-baseline="central" text-anchor="start" style="font-size:12px;font-family:Microsoft YaHei;" xml:space="preserve" transform="translate(728 342)" fill="#B9B8CE">200 hPa</text>
<text dominant-baseline="central" text-anchor="start" style="font-size:12px;font-family:Microsoft YaHei;" xml:space="preserve" transform="translate(728 248)" fill="#B9B8CE">300 hPa</text>
<text dominant-baseline="central" text-anchor="start" style="font-size:12px;font-family:Microsoft YaHei;" xml:space="preserve" transform="translate(728 154)" fill="#B9B8CE">400 hPa</text>
<text dominant-baseline="central" text-anchor="start" style="font-size:12px;font-family:Microsoft YaHei;" xml:space="preserve" transform="translate(728 60)" fill="#B9B8CE">500 hPa</text>
<text dominant-baseline="central" text-anchor="middle" style="font-size:12px;font-family:Microsoft YaHei;" y="6" transform="translate(82.314 538)" fill="#B9B8CE">12:38:32</text>
<text dominant-baseline="central" text-anchor="middle" style="font-size:12px;font-family:Microsoft YaHei;" y="6" transform="translate(147.1074 538)" fill="#B9B8CE">12:38:46</text>
<text dominant-baseline="central" text-anchor="middle" style="font-size:12px;font-family:Microsoft YaHei;" y="6" transform="translate(211.9008 538)" fill="#B9B8CE">12:39:00</text>
<text dominant-baseline="central" text-anchor="middle" style="font-size:12px;font-family:Microsoft YaHei;" y="6" transform="translate(276.6942 538)" fill="#B9B8CE">12:39:14</text>
<text dominant-baseline="central" text-anchor="middle" style="font-size:12px;font-family:Microsoft YaHei;" y="6" transform="translate(341.4876 538)" fill="#B9B8CE">12:39:28</text>
<text dominant-baseline="central" text-anchor="middle" style="font-size:12px;font-family:Microsoft YaHei;" y="6" transform="translate(406.281 538)" fill="#B9B8CE">12:39:42</text>
<text dominant-baseline="central" text-anchor="middle" style="font-size:12px;font-family:Microsoft YaHei;" y="6" transform="translate(471.0744 538)" fill="#B9B8CE">12:39:56</text>
<text dominant-baseline="central" text-anchor="middle" style="font-size:12px;font-family:Microsoft YaHei;" y="6" transform="translate(535.8678 538)" fill="#B9B8CE">12:40:10</text>
<text dominant-baseline="central" text-anchor="middle" style="font-size:12px;font-family:Microsoft YaHei;" y="6" transform="translate(600.6612 538)" fill="#B9B8CE">12:40:24</text>
<g clip-path="url(#zr0-c0)">
<path d="M82.3 526.7L86.9 529.9L91.6 529.4L96.2 529.9L100.8 529.8L105.5 529.9L110.1 530L114.7 529.2L119.3 527.5L124 516.6L128.6 505.4L133.2 488.8L137.9 479.1L142.5 478.3L147.1 469.7L151.7 459.7L156.4 451.5L161 452.5L165.6 440.3L170.2 428.2L174.9 420.2L179.5 411.6L184.1 410.5L188.8 396L193.4 395.5L198 388.9L202.6 380.4L207.3 375.5L211.9 367.8L216.5 368.9L221.2 363.3L225.8 357.5L230.4 352.3L235 344.9L239.7 347.2L244.3 334.4L248.9 337.1L253.6 330.5L258.2 324.2L262.8 321.5L267.4 315.5L272.1 314.8L276.7 310.9L281.3 306L286 301.1L290.6 303.8L295.2 298.2L299.8 294.3L304.5 290.6L309.1 287.6L313.7 285.2L318.3 282.5L323 277.5L327.6 274.2L332.2 275.9L336.9 265.8L341.5 268.5L346.1 264L350.7 258.5L355.4 255.1L360 255.1L364.6 250.2L369.3 246.2L373.9 243.4L378.5 239.1L383.1 242.3L387.8 237L392.4 235.6L397 230.1L401.7 226.3L406.3 229L410.9 220.6L415.5 222.1L420.2 217.4L424.8 215L429.4 211.8L434 209.7L438.7 209.8L443.3 206.4L447.9 204L452.6 200.9L457.2 198.7L461.8 199.3L466.4 192.6L471.1 195.2L475.7 190.4L480.3 187.4L485 185.7L489.6 182.8L494.2 185L498.8 180.9L503.5 178.7L508.1 178.2L512.7 176.7L517.4 172.2L522 171.2L526.6 169.1L531.2 170.4L535.9 168L540.5 163.5L545.1 166.6L549.8 162.4L554.4 161.2L559 160.4L563.6 158.9L568.3 154.9L572.9 158.5L577.5 152.9L582.1 152.8L586.8 153L591.4 150.6L596 148.9L600.7 148.9L605.3 146.2L609.9 145L614.5 150.5L619.2 154.9L623.8 159.1L628.4 163L633.1 170.6L637.7 174.4" fill="none" stroke="#f7f494" stroke-width="2" stroke-linejoin="bevel"></path>
</g>
<path d="M0 -1L1 1L-1 1Z" transform="matrix(0,0,0,0,82.314,528.308)" fill="#f7f494" fill-opacity="0"></path>
<path d="M0 -1L1 1L-1 1Z" transform="matrix(5,0,0,5,82.314,526.71)" fill="#f7f494"></path>
<path d="M0 -1L1 1L-1 1Z" transform="matrix(5,0,0,5,147.1074,469.746)" fill="#f7f494"></path>
<path d="M0 -1L1 1L-1 1Z" transform="matrix(5,0,0,5,211.9008,367.756)" fill="#f7f494"></path>
<path d="M0 -1L1 1L-1 1Z" transform="matrix(5,0,0,5,276.6942,310.886)" fill="#f7f494"></path>
<path d="M0 -1L1 1L-1 1Z" transform="matrix(5,0,0,5,341.4876,268.492)" fill="#f7f494"></path>
<path d="M0 -1L1 1L-1 1Z" transform="matrix(5,0,0,5,406.281,229.012)" fill="#f7f494"></path>
<path d="M0 -1L1 1L-1 1Z" transform="matrix(5,0,0,5,471.0744,195.172)" fill="#f7f494"></path>
<path d="M0 -1L1 1L-1 1Z" transform="matrix(5,0,0,5,535.8678,168.006)" fill="#f7f494"></path>
<path d="M0 -1L1 1L-1 1Z" transform="matrix(5,0,0,5,600.6611,148.924)" fill="#f7f494"></path>
<path d="M0 0l560 0l0 30l-560 0Z" transform="matrix(1,0,0,-1,82.8,592.5)" fill="rgb(47,69,84)" fill-opacity="0"></path>
<g clip-path="url(#zr0-c1)">
<polygon points="560 0 0 0 0 5.8 4.7 5.6 9.3 5.7 14 5.6 18.7 5.6 23.3 5.6 28 5.6 32.7 5.7 37.3 5.7 42 6.3 46.7 6.8 51.3 7.6 56 8.1 60.7 8.1 65.3 8.6 70 9 74.7 9.4 79.3 9.4 84 10 88.7 10.6 93.3 11 98 11.4 102.7 11.4 107.3 12.2 112 12.2 116.7 12.5 121.3 12.9 126 13.2 130.7 13.5 135.3 13.5 140 13.7 144.7 14 149.3 14.3 154 14.6 158.7 14.5 163.3 15.2 168 15 172.7 15.3 177.3 15.6 182 15.8 186.7 16.1 191.3 16.1 196 16.3 200.7 16.5 205.3 16.8 210 16.6 214.7 16.9 219.3 17.1 224 17.3 228.7 17.4 233.3 17.5 238 17.7 242.7 17.9 247.3 18.1 252 18 256.7 18.5 261.3 18.4 266 18.6 270.7 18.8 275.3 19 280 19 284.7 19.3 289.3 19.4 294 19.6 298.7 19.8 303.3 19.6 308 19.9 312.7 20 317.3 20.2 322 20.4 326.7 20.3 331.3 20.7 336 20.6 340.7 20.8 345.3 21 350 21.1 354.7 21.2 359.3 21.2 364 21.4 368.7 21.5 373.3 21.7 378 21.8 382.7 21.7 387.3 22.1 392 21.9 396.7 22.2 401.3 22.3 406 22.4 410.7 22.5 415.3 22.4 420 22.6 424.7 22.7 429.3 22.8 434 22.8 438.7 23 443.3 23.1 448 23.2 452.7 23.1 457.3 23.3 462 23.5 466.7 23.3 471.3 23.5 476 23.6 480.7 23.6 485.3 23.7 490 23.9 494.7 23.7 499.3 24 504 24 508.7 24 513.3 24.1 518 24.2 522.7 24.2 527.3 24.3 532 24.4 536.7 24.1 541.3 23.9 546 23.7 550.7 23.5 555.3 23.1 560 22.9" transform="matrix(1,0,0,-1,82.8,592.5)" fill="#71708A" fill-opacity="0.2"></polygon>
</g>
<g clip-path="url(#zr0-c2)">
<polygon points="560 0 0 0 0 5.8 4.7 5.6 9.3 5.7 14 5.6 18.7 5.6 23.3 5.6 28 5.6 32.7 5.7 37.3 5.7 42 6.3 46.7 6.8 51.3 7.6 56 8.1 60.7 8.1 65.3 8.6 70 9 74.7 9.4 79.3 9.4 84 10 88.7 10.6 93.3 11 98 11.4 102.7 11.4 107.3 12.2 112 12.2 116.7 12.5 121.3 12.9 126 13.2 130.7 13.5 135.3 13.5 140 13.7 144.7 14 149.3 14.3 154 14.6 158.7 14.5 163.3 15.2 168 15 172.7 15.3 177.3 15.6 182 15.8 186.7 16.1 191.3 16.1 196 16.3 200.7 16.5 205.3 16.8 210 16.6 214.7 16.9 219.3 17.1 224 17.3 228.7 17.4 233.3 17.5 238 17.7 242.7 17.9 247.3 18.1 252 18 256.7 18.5 261.3 18.4 266 18.6 270.7 18.8 275.3 19 280 19 284.7 19.3 289.3 19.4 294 19.6 298.7 19.8 303.3 19.6 308 19.9 312.7 20 317.3 20.2 322 20.4 326.7 20.3 331.3 20.7 336 20.6 340.7 20.8 345.3 21 350 21.1 354.7 21.2 359.3 21.2 364 21.4 368.7 21.5 373.3 21.7 378 21.8 382.7 21.7 387.3 22.1 392 21.9 396.7 22.2 401.3 22.3 406 22.4 410.7 22.5 415.3 22.4 420 22.6 424.7 22.7 429.3 22.8 434 22.8 438.7 23 443.3 23.1 448 23.2 452.7 23.1 457.3 23.3 462 23.5 466.7 23.3 471.3 23.5 476 23.6 480.7 23.6 485.3 23.7 490 23.9 494.7 23.7 499.3 24 504 24 508.7 24 513.3 24.1 518 24.2 522.7 24.2 527.3 24.3 532 24.4 536.7 24.1 541.3 23.9 546 23.7 550.7 23.5 555.3 23.1 560 22.9" transform="matrix(1,0,0,-1,82.8,592.5)" fill="#87A3CE" fill-opacity="0.2"></polygon>
</g>
<g clip-path="url(#zr0-c3)">
<polygon points="560 0 0 0 0 5.8 4.7 5.6 9.3 5.7 14 5.6 18.7 5.6 23.3 5.6 28 5.6 32.7 5.7 37.3 5.7 42 6.3 46.7 6.8 51.3 7.6 56 8.1 60.7 8.1 65.3 8.6 70 9 74.7 9.4 79.3 9.4 84 10 88.7 10.6 93.3 11 98 11.4 102.7 11.4 107.3 12.2 112 12.2 116.7 12.5 121.3 12.9 126 13.2 130.7 13.5 135.3 13.5 140 13.7 144.7 14 149.3 14.3 154 14.6 158.7 14.5 163.3 15.2 168 15 172.7 15.3 177.3 15.6 182 15.8 186.7 16.1 191.3 16.1 196 16.3 200.7 16.5 205.3 16.8 210 16.6 214.7 16.9 219.3 17.1 224 17.3 228.7 17.4 233.3 17.5 238 17.7 242.7 17.9 247.3 18.1 252 18 256.7 18.5 261.3 18.4 266 18.6 270.7 18.8 275.3 19 280 19 284.7 19.3 289.3 19.4 294 19.6 298.7 19.8 303.3 19.6 308 19.9 312.7 20 317.3 20.2 322 20.4 326.7 20.3 331.3 20.7 336 20.6 340.7 20.8 345.3 21 350 21.1 354.7 21.2 359.3 21.2 364 21.4 368.7 21.5 373.3 21.7 378 21.8 382.7 21.7 387.3 22.1 392 21.9 396.7 22.2 401.3 22.3 406 22.4 410.7 22.5 415.3 22.4 420 22.6 424.7 22.7 429.3 22.8 434 22.8 438.7 23 443.3 23.1 448 23.2 452.7 23.1 457.3 23.3 462 23.5 466.7 23.3 471.3 23.5 476 23.6 480.7 23.6 485.3 23.7 490 23.9 494.7 23.7 499.3 24 504 24 508.7 24 513.3 24.1 518 24.2 522.7 24.2 527.3 24.3 532 24.4 536.7 24.1 541.3 23.9 546 23.7 550.7 23.5 555.3 23.1 560 22.9" transform="matrix(1,0,0,-1,82.8,592.5)" fill="#71708A" fill-opacity="0.2"></polygon>
</g>
<g clip-path="url(#zr0-c1)">
<polyline points="0 5.8 4.7 5.6 9.3 5.7 14 5.6 18.7 5.6 23.3 5.6 28 5.6 32.7 5.7 37.3 5.7 42 6.3 46.7 6.8 51.3 7.6 56 8.1 60.7 8.1 65.3 8.6 70 9 74.7 9.4 79.3 9.4 84 10 88.7 10.6 93.3 11 98 11.4 102.7 11.4 107.3 12.2 112 12.2 116.7 12.5 121.3 12.9 126 13.2 130.7 13.5 135.3 13.5 140 13.7 144.7 14 149.3 14.3 154 14.6 158.7 14.5 163.3 15.2 168 15 172.7 15.3 177.3 15.6 182 15.8 186.7 16.1 191.3 16.1 196 16.3 200.7 16.5 205.3 16.8 210 16.6 214.7 16.9 219.3 17.1 224 17.3 228.7 17.4 233.3 17.5 238 17.7 242.7 17.9 247.3 18.1 252 18 256.7 18.5 261.3 18.4 266 18.6 270.7 18.8 275.3 19 280 19 284.7 19.3 289.3 19.4 294 19.6 298.7 19.8 303.3 19.6 308 19.9 312.7 20 317.3 20.2 322 20.4 326.7 20.3 331.3 20.7 336 20.6 340.7 20.8 345.3 21 350 21.1 354.7 21.2 359.3 21.2 364 21.4 368.7 21.5 373.3 21.7 378 21.8 382.7 21.7 387.3 22.1 392 21.9 396.7 22.2 401.3 22.3 406 22.4 410.7 22.5 415.3 22.4 420 22.6 424.7 22.7 429.3 22.8 434 22.8 438.7 23 443.3 23.1 448 23.2 452.7 23.1 457.3 23.3 462 23.5 466.7 23.3 471.3 23.5 476 23.6 480.7 23.6 485.3 23.7 490 23.9 494.7 23.7 499.3 24 504 24 508.7 24 513.3 24.1 518 24.2 522.7 24.2 527.3 24.3 532 24.4 536.7 24.1 541.3 23.9 546 23.7 550.7 23.5 555.3 23.1 560 22.9" transform="matrix(1,0,0,-1,82.8,592.5)" fill="none" stroke="#71708A"></polyline>
</g>
<g clip-path="url(#zr0-c2)">
<polyline points="0 5.8 4.7 5.6 9.3 5.7 14 5.6 18.7 5.6 23.3 5.6 28 5.6 32.7 5.7 37.3 5.7 42 6.3 46.7 6.8 51.3 7.6 56 8.1 60.7 8.1 65.3 8.6 70 9 74.7 9.4 79.3 9.4 84 10 88.7 10.6 93.3 11 98 11.4 102.7 11.4 107.3 12.2 112 12.2 116.7 12.5 121.3 12.9 126 13.2 130.7 13.5 135.3 13.5 140 13.7 144.7 14 149.3 14.3 154 14.6 158.7 14.5 163.3 15.2 168 15 172.7 15.3 177.3 15.6 182 15.8 186.7 16.1 191.3 16.1 196 16.3 200.7 16.5 205.3 16.8 210 16.6 214.7 16.9 219.3 17.1 224 17.3 228.7 17.4 233.3 17.5 238 17.7 242.7 17.9 247.3 18.1 252 18 256.7 18.5 261.3 18.4 266 18.6 270.7 18.8 275.3 19 280 19 284.7 19.3 289.3 19.4 294 19.6 298.7 19.8 303.3 19.6 308 19.9 312.7 20 317.3 20.2 322 20.4 326.7 20.3 331.3 20.7 336 20.6 340.7 20.8 345.3 21 350 21.1 354.7 21.2 359.3 21.2 364 21.4 368.7 21.5 373.3 21.7 378 21.8 382.7 21.7 387.3 22.1 392 21.9 396.7 22.2 401.3 22.3 406 22.4 410.7 22.5 415.3 22.4 420 22.6 424.7 22.7 429.3 22.8 434 22.8 438.7 23 443.3 23.1 448 23.2 452.7 23.1 457.3 23.3 462 23.5 466.7 23.3 471.3 23.5 476 23.6 480.7 23.6 485.3 23.7 490 23.9 494.7 23.7 499.3 24 504 24 508.7 24 513.3 24.1 518 24.2 522.7 24.2 527.3 24.3 532 24.4 536.7 24.1 541.3 23.9 546 23.7 550.7 23.5 555.3 23.1 560 22.9" transform="matrix(1,0,0,-1,82.8,592.5)" fill="none" stroke="#87A3CE" stroke-width="0.5"></polyline>
</g>
<g clip-path="url(#zr0-c3)">
<polyline points="0 5.8 4.7 5.6 9.3 5.7 14 5.6 18.7 5.6 23.3 5.6 28 5.6 32.7 5.7 37.3 5.7 42 6.3 46.7 6.8 51.3 7.6 56 8.1 60.7 8.1 65.3 8.6 70 9 74.7 9.4 79.3 9.4 84 10 88.7 10.6 93.3 11 98 11.4 102.7 11.4 107.3 12.2 112 12.2 116.7 12.5 121.3 12.9 126 13.2 130.7 13.5 135.3 13.5 140 13.7 144.7 14 149.3 14.3 154 14.6 158.7 14.5 163.3 15.2 168 15 172.7 15.3 177.3 15.6 182 15.8 186.7 16.1 191.3 16.1 196 16.3 200.7 16.5 205.3 16.8 210 16.6 214.7 16.9 219.3 17.1 224 17.3 228.7 17.4 233.3 17.5 238 17.7 242.7 17.9 247.3 18.1 252 18 256.7 18.5 261.3 18.4 266 18.6 270.7 18.8 275.3 19 280 19 284.7 19.3 289.3 19.4 294 19.6 298.7 19.8 303.3 19.6 308 19.9 312.7 20 317.3 20.2 322 20.4 326.7 20.3 331.3 20.7 336 20.6 340.7 20.8 345.3 21 350 21.1 354.7 21.2 359.3 21.2 364 21.4 368.7 21.5 373.3 21.7 378 21.8 382.7 21.7 387.3 22.1 392 21.9 396.7 22.2 401.3 22.3 406 22.4 410.7 22.5 415.3 22.4 420 22.6 424.7 22.7 429.3 22.8 434 22.8 438.7 23 443.3 23.1 448 23.2 452.7 23.1 457.3 23.3 462 23.5 466.7 23.3 471.3 23.5 476 23.6 480.7 23.6 485.3 23.7 490 23.9 494.7 23.7 499.3 24 504 24 508.7 24 513.3 24.1 518 24.2 522.7 24.2 527.3 24.3 532 24.4 536.7 24.1 541.3 23.9 546 23.7 550.7 23.5 555.3 23.1 560 22.9" transform="matrix(1,0,0,-1,82.8,592.5)" fill="none" stroke="#71708A"></polyline>
</g>
<path d="M-5 -5l691.0547 0l0 22l-691.0547 0Z" transform="translate(59.4727 5)" fill="rgb(0,0,0)" fill-opacity="0" stroke="#ccc" stroke-width="0"></path>
<path d="M0 7L25 7" transform="translate(60.4727 4)" fill="#000" stroke="#ccc" stroke-width="2" stroke-linecap="butt" stroke-miterlimit="10"></path>
<path d="M12.5 1.4L18.1 12.6L6.9 12.6Z" transform="translate(60.4727 4)" fill="#ccc" stroke="#ccc" stroke-width="0" stroke-linecap="butt" stroke-miterlimit="10"></path>
<text dominant-baseline="central" text-anchor="start" style="font-size:12px;font-family:Microsoft YaHei;" x="30" y="7" transform="translate(60.4727 4)" fill="#ccc">Pipe_Pres</text>
<path d="M0 7L25 7" transform="translate(156.1465 4)" fill="#000" stroke="#ccc" stroke-width="2" stroke-linecap="butt" stroke-miterlimit="10"></path>
<path d="M18.1 7A5.6 5.6 0 1 1 18.1 6.9994" transform="translate(156.1465 4)" fill="#ccc" stroke="#ccc" stroke-width="0" stroke-linecap="butt" stroke-miterlimit="10"></path>
<text dominant-baseline="central" text-anchor="start" style="font-size:12px;font-family:Microsoft YaHei;" x="30" y="7" transform="translate(156.1465 4)" fill="#ccc">Ambient_Pres</text>
<path d="M0 7L25 7" transform="translate(276.0313 4)" fill="#000" stroke="#ccc" stroke-width="2" stroke-linecap="butt" stroke-miterlimit="10"></path>
<path d="M12.5 1.4L18.1 12.6L6.9 12.6Z" transform="translate(276.0313 4)" fill="#ccc" stroke="#ccc" stroke-width="0" stroke-linecap="butt" stroke-miterlimit="10"></path>
<text dominant-baseline="central" text-anchor="start" style="font-size:12px;font-family:Microsoft YaHei;" x="30" y="7" transform="translate(276.0313 4)" fill="#ccc">Pipe_Temp</text>
<path d="M0 7L25 7" transform="translate(380.0137 4)" fill="#000" stroke="#ccc" stroke-width="2" stroke-linecap="butt" stroke-miterlimit="10"></path>
<path d="M18.1 7A5.6 5.6 0 1 1 18.1 6.9994" transform="translate(380.0137 4)" fill="#ccc" stroke="#ccc" stroke-width="0" stroke-linecap="butt" stroke-miterlimit="10"></path>
<text dominant-baseline="central" text-anchor="start" style="font-size:12px;font-family:Microsoft YaHei;" x="30" y="7" transform="translate(380.0137 4)" fill="#ccc">Chip_Temp</text>
<path d="M0 7L25 7" transform="translate(485.2617 4)" fill="#000" stroke="#ccc" stroke-width="2" stroke-linecap="butt" stroke-miterlimit="10"></path>
<path d="M18.1 7A5.6 5.6 0 1 1 18.1 6.9994" transform="translate(485.2617 4)" fill="#ccc" stroke="#ccc" stroke-width="0" stroke-linecap="butt" stroke-miterlimit="10"></path>
<text dominant-baseline="central" text-anchor="start" style="font-size:12px;font-family:Microsoft YaHei;" x="30" y="7" transform="translate(485.2617 4)" fill="#ccc">Set_nPressure</text>
<path d="M0 7L25 7" transform="translate(605.8672 4)" fill="#000" stroke="#f7f494" stroke-width="2" stroke-linecap="butt" stroke-miterlimit="10"></path>
<path d="M12.5 1.4L18.1 12.6L6.9 12.6Z" transform="translate(605.8672 4)" fill="#f7f494"></path>
<text dominant-baseline="central" text-anchor="start" style="font-size:12px;font-family:Microsoft YaHei;" x="30" y="7" transform="translate(605.8672 4)" fill="#B9B8CE">Current_nPressure</text>
<path d="M0 0l560 0l0 30l-560 0Z" transform="matrix(1,0,0,-1,82.8,592.5)" fill="none"></path>
<path d="M0 0l560 0l0 30l-560 0Z" transform="matrix(1,0,0,-1,82.8,592.5)" fill="rgb(135,163,206)" fill-opacity="0.2"></path>
<path d="M3.5 0.5L556.5 0.5A3 3 0 0 1 559.5 3.5L559.5 26.5A3 3 0 0 1 556.5 29.5L3.5 29.5A3 3 0 0 1 0.5 26.5L0.5 3.5A3 3 0 0 1 3.5 0.5" transform="matrix(1,0,0,-1,82.8,592.5)" fill="rgb(0,0,0)" fill-opacity="0" stroke="#71708A"></path>
<path d="M0 29.5L560 29.5L560 34.5A2 2 0 0 1 558 36.5L2 36.5A2 2 0 0 1 0 34.5L0 29.5" transform="matrix(1,0,0,-1,82.8,592.5)" fill="#B0B6C3" fill-opacity="0.3"></path>
<path d="M-2.2408 -1.6796C-1.8674 -1.6796 -1.6817 -1.4939 -1.6817 -1.1204L-1.6817 1.1204C-1.6817 1.4939 -1.8674 1.6796 -2.2408 1.6796C-2.6143 1.6796 -2.8 1.4939 -2.8 1.1204L-2.8 -1.1204C-2.8 -1.4939 -2.6143 -1.6796 -2.2408 -1.6796ZM0 -1.6796C0.3735 -1.6796 0.5592 -1.4939 0.5592 -1.1204L0.5592 1.1204C0.5592 1.4939 0.3735 1.6796 0 1.6796C-0.3735 1.6796 -0.5592 1.4939 -0.5592 1.1204L-0.5592 -1.1204C-0.5592 -1.4939 -0.3735 -1.6796 0 -1.6796ZM2.2408 -1.6796C2.6143 -1.6796 2.8 -1.4939 2.8 -1.1204L2.8 1.1204C2.8 1.4939 2.6143 1.6796 2.2408 1.6796C1.8674 1.6796 1.6817 1.4939 1.6817 1.1204L1.6817 -1.1204C1.6796 -1.4939 1.8674 -1.6796 2.2408 -1.6796Z" transform="matrix(1,0,0,-1,362.8,559.5)" fill="#fff"></path>
<path d="M0 1.628L0 2M0 0L0 0.375M-0.1 0.375L0.1 0.375A0.1 0.1 0 0 1 0.2 0.475L0.2 1.525A0.1 0.1 0 0 1 0.1 1.625L-0.1 1.625A0.1 0.1 0 0 1 -0.2 1.525L-0.2 0.475A0.1 0.1 0 0 1 -0.1 0.375Z" transform="matrix(15,0,0,-15,83.8,592.5)" fill="#353450" stroke="#C5CBE3" stroke-width="0.06666666666666667"></path>
<path d="M0 1.628L0 2M0 0L0 0.375M-0.1 0.375L0.1 0.375A0.1 0.1 0 0 1 0.2 0.475L0.2 1.525A0.1 0.1 0 0 1 0.1 1.625L-0.1 1.625A0.1 0.1 0 0 1 -0.2 1.525L-0.2 0.475A0.1 0.1 0 0 1 -0.1 0.375Z" transform="matrix(15,0,0,-15,641.8,592.5)" fill="#353450" stroke="#C5CBE3" stroke-width="0.06666666666666667"></path>
<defs >
<clipPath id="zr0-c0">
<path d="M79 59l562 0l0 472l-562 0Z" fill="#000"></path>
</clipPath>
<clipPath id="zr0-c1">
<path d="M0 0l0 0l0 30l0 0Z" transform="matrix(1,0,0,-1,82.8,592.5)" fill="#000"></path>
</clipPath>
<clipPath id="zr0-c2">
<path d="M0 0l560 0l0 30l-560 0Z" transform="matrix(1,0,0,-1,82.8,592.5)" fill="#000"></path>
</clipPath>
<clipPath id="zr0-c3">
<path d="M560 0l0 0l0 30l0 0Z" transform="matrix(1,0,0,-1,82.8,592.5)" fill="#000"></path>
</clipPath>
</defs>
</svg>