<svg width="800" height="600" xmlns="http://www.w3.org/2000/svg" xmlns:xlink="http://www.w3.org/1999/xlink" version="1.1" baseProfile="full" viewBox="0 0 800 600">
<rect width="800" height="600" x="0" y="0" id="0" fill="rgb(40, 44, 52)" fill-opacity="1"></rect>
<path d="M80 530.5L640 530.5" fill="none" stroke="#484753"></path>
<path d="M80 436.5L640 436.5" fill="none" stroke="#484753"></path>
<path d="M80 342.5L640 342.5" fill="none" stroke="#484753"></path>
<path d="M80 248.5L640 248.5" fill="none" stroke="#484753"></path>
<path d="M80 154.5L640 154.5" fill="none" stroke="#484753"></path>
<path d="M80 60.5L640 60.5" fill="none" stroke="#484753"></path>
<path d="M80.5 530L80.5 60" fill="none" stroke="#ACDFED" stroke-linecap="round"></path>
<text dominant-baseline="central" text-anchor="middle" style="font-size:12px;font-family:Microsoft YaHei;" y="-6" transform="translate(80 45)" fill="#B9B8CE">压力</text>
<path d="M640.5 530L640.5 60" fill="none" stroke="#FFAB91" stroke-linecap="round"></path>
<text dominant-baseline="central" text-anchor="middle" style="font-size:12px;font-family:Microsoft YaHei;" y="-6" transform="translate(640 45)" fill="#B9B8CE">温度</text>
<path d="M720.5 530L720.5 60" fill="none" stroke="#f7f494" stroke-linecap="round"></path>
<text dominant-baseline="central" text-anchor="middle" style="font-size:12px;font-family:Microsoft YaHei;" y="-6" transform="translate(720 45)" fill="#B9B8CE">负压</text>
<path d="M80 530.5L640 530.5" fill="none" stroke="#B9B8CE" stroke-linecap="round"></path>
<path d="M81.5 530L81.5 535" fill="none" stroke="#B9B8CE"></path>
<path d="M146.5 530L146.5 535" fill="none" stroke="#B9B8CE"></path>
<path d="M211.5 530L211.5 535" fill="none" stroke="#B9B8CE"></path>
<path d="M276.5 530L276.5 535" fill="none" stroke="#B9B8CE"></path>
<path d="M341.5 530L341.5 535" fill="none" stroke="#B9B8CE"></path>
<path d="M406.5 530L406.5 535" fill="none" stroke="#B9B8CE"></path>
<path d="M471.5 530L471.5 535" fill="none" stroke="#B9B8CE"></path>
<path d="M536.5 530L536.5 535" fill="none" stroke="#B9B8CE"></path>
<path d="M601.5 530L601.5 535" fill="none" stroke="#B9B8CE"></path>
<text dominant-baseline="central" text-anchor="start" style="font-size:12px;font-family:Microsoft YaHei;" xml:space="preserve" transform="translate(728 530)" fill="#B9B8CE">0 hPa</text>
<text dominant-baseline="central" text-anchor="start" style="font-size:12px;font-family:Microsoft YaHei;" xml:space="preserve" transform="translate(728 436)" fill="#B9B8CE">50 hPa</text>
<text dominant-baseline="central" text-anchor="start" style="font-size:12px;font-family:Microsoft YaHei;" xml:space="preserve" transform="translate(728 342)" fill="#B9B8CE">100 hPa</text>
<text dominant-baseline="central" text-anchor="start" style="font-size:12px;font-family:Microsoft YaHei;" xml:space="preserve" transform="translate(728 248)" fill="#B9B8CE">150 hPa</text>
<text dominant-baseline="central" text-anchor="start" style="font-size:12px;font-family:Microsoft YaHei;" xml:space="preserve" transform="translate(728 154)" fill="#B9B8CE">200 hPa</text>
<text dominant-baseline="central" text-anchor="start" style="font-size:12px;font-family:Microsoft YaHei;" xml:space="preserve" transform="translate(728 60)" fill="#B9B8CE">250 hPa</text>
<text dominant-baseline="central" text-anchor="middle" style="font-size:12px;font-family:Microsoft YaHei;" y="6" transform="translate(81.547 538)" fill="#B9B8CE">19:08:59</text>
<text dominant-baseline="central" text-anchor="middle" style="font-size:12px;font-family:Microsoft YaHei;" y="6" transform="translate(146.5193 538)" fill="#B9B8CE">19:09:20</text>
<text dominant-baseline="central" text-anchor="middle" style="font-size:12px;font-family:Microsoft YaHei;" y="6" transform="translate(211.4917 538)" fill="#B9B8CE">19:09:41</text>
<text dominant-baseline="central" text-anchor="middle" style="font-size:12px;font-family:Microsoft YaHei;" y="6" transform="translate(276.4641 538)" fill="#B9B8CE">19:10:02</text>
<text dominant-baseline="central" text-anchor="middle" style="font-size:12px;font-family:Microsoft YaHei;" y="6" transform="translate(341.4365 538)" fill="#B9B8CE">19:10:23</text>
<text dominant-baseline="central" text-anchor="middle" style="font-size:12px;font-family:Microsoft YaHei;" y="6" transform="translate(406.4088 538)" fill="#B9B8CE">19:10:44</text>
<text dominant-baseline="central" text-anchor="middle" style="font-size:12px;font-family:Microsoft YaHei;" y="6" transform="translate(471.3812 538)" fill="#B9B8CE">19:11:05</text>
<text dominant-baseline="central" text-anchor="middle" style="font-size:12px;font-family:Microsoft YaHei;" y="6" transform="translate(536.3536 538)" fill="#B9B8CE">19:11:26</text>
<text dominant-baseline="central" text-anchor="middle" style="font-size:12px;font-family:Microsoft YaHei;" y="6" transform="translate(601.326 538)" fill="#B9B8CE">19:11:47</text>
<g clip-path="url(#zr0-c0)">
<path d="M81.5 528.7L84.6 528.7L87.7 528.5L90.8 528.7L93.9 528.7L97 528.7L100.1 528.7L103.2 528.7L106.3 528.5L109.4 528.5L112.5 528.5L115.6 528.5L118.7 528.5L121.8 528.5L124.9 528.5L128 528.5L131 528.5L134.1 528.5L137.2 528.5L140.3 528.5L143.4 528.5L146.5 528.5L149.6 510.6L152.7 487.5L155.8 473L158.9 437.9L162 427.5L165.1 408.6L168.2 392.2L171.3 368.1L174.4 353.3L177.5 347.6L180.6 332.4L183.6 307L186.7 300.8L189.8 287.3L192.9 269.2L196 253.5L199.1 245.2L202.2 229.8L205.3 233.5L208.4 207.6L211.5 194.4L214.6 197.2L217.7 181.3L220.8 164.3L223.9 161.9L227 150.6L230.1 138.6L233.1 131.4L236.2 123.2L239.3 115.1L242.4 111.7L245.5 114.5L248.6 120.5L251.7 123.2L254.8 126L257.9 133.9L261 136L264.1 139.1L267.2 142.2L270.3 148.7L273.4 153.1L276.5 154.2L279.6 155.9L282.7 163L285.7 164.7L288.8 166.4L291.9 169.8L295 171.1L298.1 174.9L301.2 175.4L304.3 174.1L307.4 176.6L310.5 179.9L313.6 182.2L316.7 183L319.8 182.8L322.9 184.3L326 182.6L329.1 185.2L332.2 186.1L335.2 187.5L338.3 186L341.4 184.3L344.5 189.9L347.6 190.1L350.7 189.2L353.8 189.2L356.9 187.1L360 189.3L363.1 193.9L366.2 191L369.3 193.7L372.4 190.7L375.5 189.3L378.6 191.8L381.7 192.2L384.8 191.8L387.8 194.4L390.9 194.2L394 195.5L397.1 190.8L400.2 192.2L403.3 195L406.4 195.7L409.5 195.2L412.6 195.7L415.7 198.2L418.8 196.9L421.9 195.7L425 195.5L428.1 195.4L431.2 197.4L434.3 194.2L437.3 193.5L440.4 195.5L443.5 196.9L446.6 195.4L449.7 194L452.8 197.2L455.9 194.2L459 195.4L462.1 195.9L465.2 196.9L468.3 197.2L471.4 198.6L474.5 195.5L477.6 195.4L480.7 198.4L483.8 195.5L486.9 197.1L489.9 198.9L493 197.4L496.1 197.4L499.2 198.7L502.3 196.5L505.4 198.4L508.5 196.3L511.6 197.2L514.7 196.7L517.8 195.2L520.9 196.1L524 198.9L527.1 195.2L530.2 198.4L533.3 195.2L536.4 195.5L539.4 194.8L542.5 196.9L545.6 201L548.7 196.1L551.8 197.1L554.9 198.4L558 196.7L561.1 198.4L564.2 196.9L567.3 197.1L570.4 195.2L573.5 194.6L576.6 195.9L579.7 198.9L582.8 192.7L585.9 195L589 197.6L592 195.9L595.1 198L598.2 197.1L601.3 196.5L604.4 193.1L607.5 198.7L610.6 195.9L613.7 195.7L616.8 199.3L619.9 194.8L623 194.2L626.1 194.6L629.2 193.3L632.3 198.2L635.4 198L638.5 197.6" fill="none" stroke="#f7f494" stroke-width="2" stroke-linejoin="bevel"></path>
</g>
<g clip-path="url(#zr0-c1)">
<path d="M81.547 197.24L84.6409 197.24L87.7348 197.24L90.8287 197.24L93.9227 197.24L97.0166 197.24L100.1105 197.24L103.2044 197.24L106.2983 197.24L109.3923 197.24L112.4862 197.24L115.5801 197.24L118.674 197.24L121.768 197.24L124.8619 197.24L127.9558 197.24L131.0497 197.24L134.1436 197.24L137.2376 197.24L140.3315 197.24L143.4254 197.24L146.5193 197.24L149.6133 197.24L152.7072 197.24L155.8011 197.24L158.895 197.24L161.989 197.24L165.0829 197.24L168.1768 197.24L171.2707 197.24L174.3646 197.24L177.4586 197.24L180.5525 197.24L183.6464 197.24L186.7403 197.24L189.8343 197.24L192.9282 197.24L196.0221 197.24L199.116 197.24L202.2099 197.24L205.3039 197.24L208.3978 197.24L211.4917 197.24L214.5856 197.24L217.6796 197.24L220.7735 197.24L223.8674 197.24L226.9613 197.24L230.0553 197.24L233.1492 197.24L236.2431 197.24L239.337 197.24L242.4309 197.24L245.5249 197.24L248.6188 197.24L251.7127 197.24L254.8066 197.24L257.9005 197.24L260.9945 197.24L264.0884 197.24L267.1823 197.24L270.2762 197.24L273.3702 197.24L276.4641 197.24L279.558 197.24L282.6519 197.24L285.7458 197.24L288.8398 197.24L291.9337 197.24L295.0276 197.24L298.1216 197.24L301.2155 197.24L304.3094 197.24L307.4033 197.24L310.4972 197.24L313.5912 197.24L316.6851 197.24L319.779 197.24L322.8729 197.24L325.9669 197.24L329.0608 197.24L332.1547 197.24L335.2486 197.24L338.3425 197.24L341.4365 197.24L344.5304 197.24L347.6243 197.24L350.7182 197.24L353.8122 197.24L356.9061 197.24L360 197.24L363.0939 197.24L366.1878 197.24L369.2818 197.24L372.3757 197.24L375.4696 197.24L378.5635 197.24L381.6575 197.24L384.7514 197.24L387.8453 197.24L390.9392 197.24L394.0331 197.24L397.1271 197.24L400.221 197.24L403.3149 197.24L406.4088 197.24L409.5028 197.24L412.5967 197.24L415.6906 197.24L418.7845 197.24L421.8784 197.24L424.9724 197.24L428.0663 197.24L431.1602 197.24L434.2542 197.24L437.3481 197.24L440.442 197.24L443.5359 197.24L446.6298 197.24L449.7238 197.24L452.8177 197.24L455.9116 197.24L459.0055 197.24L462.0995 197.24L465.1934 197.24L468.2873 197.24L471.3812 197.24L474.4751 197.24L477.5691 197.24L480.663 197.24L483.7569 197.24L486.8508 197.24L489.9448 197.24L493.0387 197.24L496.1326 197.24L499.2265 197.24L502.3204 197.24L505.4144 197.24L508.5083 197.24L511.6022 197.24L514.6961 197.24L517.79 197.24L520.884 197.24L523.9779 197.24L527.0718 197.24L530.1658 197.24L533.2596 197.24L536.3536 197.24L539.4475 197.24L542.5414 197.24L545.6354 197.24L548.7293 197.24L551.8232 197.24L554.9171 197.24L558.011 197.24L561.105 197.24L564.1989 197.24L567.2928 197.24L570.3867 197.24L573.4807 197.24L576.5746 197.24L579.6685 197.24L582.7625 197.24L585.8563 197.24L588.9503 197.24L592.0442 197.24L595.1381 197.24L598.2321 197.24L601.326 197.24L604.4199 197.24L607.5138 197.24L610.6077 197.24L613.7017 197.24L616.7956 197.24L619.8895 197.24L622.9834 197.24L626.0773 197.24L629.1713 197.24L632.2652 197.24L635.3591 197.24L638.4531 197.24" fill="none" stroke="#f7f494" stroke-width="2" stroke-linejoin="bevel"></path>
</g>
<path d="M0 -1L1 1L-1 1Z" transform="matrix(5,0,0,5,81.547,528.684)" fill="#f7f494"></path>
<path d="M0 -1L1 1L-1 1Z" transform="matrix(5,0,0,5,146.5193,528.496)" fill="#f7f494"></path>
<path d="M0 -1L1 1L-1 1Z" transform="matrix(5,0,0,5,211.4917,194.42)" fill="#f7f494"></path>
<path d="M0 -1L1 1L-1 1Z" transform="matrix(5,0,0,5,276.4641,154.188)" fill="#f7f494"></path>
<path d="M0 -1L1 1L-1 1Z" transform="matrix(5,0,0,5,341.4365,184.268)" fill="#f7f494"></path>
<path d="M0 -1L1 1L-1 1Z" transform="matrix(5,0,0,5,406.4088,195.736)" fill="#f7f494"></path>
<path d="M0 -1L1 1L-1 1Z" transform="matrix(5,0,0,5,471.3812,198.556)" fill="#f7f494"></path>
<path d="M0 -1L1 1L-1 1Z" transform="matrix(5,0,0,5,536.3536,195.548)" fill="#f7f494"></path>
<path d="M0 -1L1 1L-1 1Z" transform="matrix(5,0,0,5,601.326,196.488)" fill="#f7f494"></path>
<path d="M1 0A1 1 0 1 1 1 -0.0001" transform="matrix(5,0,0,5,81.547,197.24)" fill="#f7f494"></path>
<path d="M1 0A1 1 0 1 1 1 -0.0001" transform="matrix(5,0,0,5,146.5193,197.24)" fill="#f7f494"></path>
<path d="M1 0A1 1 0 1 1 1 -0.0001" transform="matrix(5,0,0,5,211.4917,197.24)" fill="#f7f494"></path>
<path d="M1 0A1 1 0 1 1 1 -0.0001" transform="matrix(5,0,0,5,276.4641,197.24)" fill="#f7f494"></path>
<path d="M1 0A1 1 0 1 1 1 -0.0001" transform="matrix(5,0,0,5,341.4365,197.24)" fill="#f7f494"></path>
<path d="M1 0A1 1 0 1 1 1 -0.0001" transform="matrix(5,0,0,5,406.4088,197.24)" fill="#f7f494"></path>
<path d="M1 0A1 1 0 1 1 1 -0.0001" transform="matrix(5,0,0,5,471.3812,197.24)" fill="#f7f494"></path>
<path d="M1 0A1 1 0 1 1 1 -0.0001" transform="matrix(5,0,0,5,536.3536,197.24)" fill="#f7f494"></path>
<path d="M1 0A1 1 0 1 1 1 -0.0001" transform="matrix(5,0,0,5,601.326,197.24)" fill="#f7f494"></path>
<path d="M0 0l560 0l0 30l-560 0Z" transform="matrix(1,0,0,-1,82.8,592.5)" fill="rgb(47,69,84)" fill-opacity="0"></path>
<g clip-path="url(#zr0-c2)">
<polygon points="560 0 0 0 0 5.6 3.1 5.6 6.2 5.6 9.3 5.6 12.4 5.6 15.6 5.6 18.7 5.6 21.8 5.6 24.9 5.6 28 5.6 31.1 5.6 34.2 5.6 37.3 5.6 40.4 5.6 43.6 5.6 46.7 5.6 49.8 5.6 52.9 5.6 56 5.6 59.1 5.6 62.2 5.6 65.3 5.6 68.4 6.4 71.6 7.5 74.7 8.1 77.8 9.7 80.9 10.2 84 11 87.1 11.8 90.2 12.8 93.3 13.5 96.4 13.8 99.6 14.5 102.7 15.6 105.8 15.9 108.9 16.5 112 17.3 115.1 18 118.2 18.4 121.3 19.1 124.4 18.9 127.6 20.1 130.7 20.7 133.8 20.5 136.9 21.2 140 22 143.1 22.1 146.2 22.6 149.3 23.2 152.4 23.5 155.6 23.9 158.7 24.2 161.8 24.4 164.9 24.2 168 24 171.1 23.9 174.2 23.7 177.3 23.4 180.4 23.3 183.6 23.1 186.7 23 189.8 22.7 192.9 22.5 196 22.5 199.1 22.4 202.2 22.1 205.3 22 208.4 21.9 211.6 21.8 214.7 21.7 217.8 21.5 220.9 21.5 224 21.6 227.1 21.5 230.2 21.3 233.3 21.2 236.4 21.2 239.6 21.2 242.7 21.1 245.8 21.2 248.9 21.1 252 21 255.1 21 258.2 21 261.3 21.1 264.4 20.9 267.6 20.8 270.7 20.9 273.8 20.9 276.9 21 280 20.9 283.1 20.7 286.2 20.8 289.3 20.7 292.4 20.8 295.6 20.9 298.7 20.8 301.8 20.8 304.9 20.8 308 20.7 311.1 20.7 314.2 20.6 317.3 20.8 320.4 20.8 323.6 20.6 326.7 20.6 329.8 20.6 332.9 20.6 336 20.5 339.1 20.5 342.2 20.6 345.3 20.6 348.4 20.6 351.6 20.5 354.7 20.7 357.8 20.7 360.9 20.6 364 20.5 367.1 20.6 370.2 20.7 373.3 20.5 376.4 20.7 379.6 20.6 382.7 20.6 385.8 20.5 388.9 20.5 392 20.5 395.1 20.6 398.2 20.6 401.3 20.5 404.4 20.6 407.6 20.5 410.7 20.5 413.8 20.5 416.9 20.5 420 20.5 423.1 20.6 426.2 20.5 429.3 20.6 432.4 20.5 435.6 20.6 438.7 20.6 441.8 20.6 444.9 20.5 448 20.6 451.1 20.5 454.2 20.6 457.3 20.6 460.4 20.6 463.6 20.5 466.7 20.4 469.8 20.6 472.9 20.5 476 20.5 479.1 20.6 482.2 20.5 485.3 20.5 488.4 20.5 491.6 20.6 494.7 20.6 497.8 20.6 500.9 20.5 504 20.7 507.1 20.6 510.2 20.5 513.3 20.6 516.4 20.5 519.6 20.5 522.7 20.6 525.8 20.7 528.9 20.5 532 20.6 535.1 20.6 538.2 20.4 541.3 20.6 544.4 20.7 547.6 20.6 550.7 20.7 553.8 20.5 556.9 20.5 560 20.5" transform="matrix(1,0,0,-1,82.8,592.5)" fill="#71708A" fill-opacity="0.2"></polygon>
</g>
<g clip-path="url(#zr0-c3)">
<polygon points="560 0 0 0 0 5.6 3.1 5.6 6.2 5.6 9.3 5.6 12.4 5.6 15.6 5.6 18.7 5.6 21.8 5.6 24.9 5.6 28 5.6 31.1 5.6 34.2 5.6 37.3 5.6 40.4 5.6 43.6 5.6 46.7 5.6 49.8 5.6 52.9 5.6 56 5.6 59.1 5.6 62.2 5.6 65.3 5.6 68.4 6.4 71.6 7.5 74.7 8.1 77.8 9.7 80.9 10.2 84 11 87.1 11.8 90.2 12.8 93.3 13.5 96.4 13.8 99.6 14.5 102.7 15.6 105.8 15.9 108.9 16.5 112 17.3 115.1 18 118.2 18.4 121.3 19.1 124.4 18.9 127.6 20.1 130.7 20.7 133.8 20.5 136.9 21.2 140 22 143.1 22.1 146.2 22.6 149.3 23.2 152.4 23.5 155.6 23.9 158.7 24.2 161.8 24.4 164.9 24.2 168 24 171.1 23.9 174.2 23.7 177.3 23.4 180.4 23.3 183.6 23.1 186.7 23 189.8 22.7 192.9 22.5 196 22.5 199.1 22.4 202.2 22.1 205.3 22 208.4 21.9 211.6 21.8 214.7 21.7 217.8 21.5 220.9 21.5 224 21.6 227.1 21.5 230.2 21.3 233.3 21.2 236.4 21.2 239.6 21.2 242.7 21.1 245.8 21.2 248.9 21.1 252 21 255.1 21 258.2 21 261.3 21.1 264.4 20.9 267.6 20.8 270.7 20.9 273.8 20.9 276.9 21 280 20.9 283.1 20.7 286.2 20.8 289.3 20.7 292.4 20.8 295.6 20.9 298.7 20.8 301.8 20.8 304.9 20.8 308 20.7 311.1 20.7 314.2 20.6 317.3 20.8 320.4 20.8 323.6 20.6 326.7 20.6 329.8 20.6 332.9 20.6 336 20.5 339.1 20.5 342.2 20.6 345.3 20.6 348.4 20.6 351.6 20.5 354.7 20.7 357.8 20.7 360.9 20.6 364 20.5 367.1 20.6 370.2 20.7 373.3 20.5 376.4 20.7 379.6 20.6 382.7 20.6 385.8 20.5 388.9 20.5 392 20.5 395.1 20.6 398.2 20.6 401.3 20.5 404.4 20.6 407.6 20.5 410.7 20.5 413.8 20.5 416.9 20.5 420 20.5 423.1 20.6 426.2 20.5 429.3 20.6 432.4 20.5 435.6 20.6 438.7 20.6 441.8 20.6 444.9 20.5 448 20.6 451.1 20.5 454.2 20.6 457.3 20.6 460.4 20.6 463.6 20.5 466.7 20.4 469.8 20.6 472.9 20.5 476 20.5 479.1 20.6 482.2 20.5 485.3 20.5 488.4 20.5 491.6 20.6 494.7 20.6 497.8 20.6 500.9 20.5 504 20.7 507.1 20.6 510.2 20.5 513.3 20.6 516.4 20.5 519.6 20.5 522.7 20.6 525.8 20.7 528.9 20.5 532 20.6 535.1 20.6 538.2 20.4 541.3 20.6 544.4 20.7 547.6 20.6 550.7 20.7 553.8 20.5 556.9 20.5 560 20.5" transform="matrix(1,0,0,-1,82.8,592.5)" fill="#87A3CE" fill-opacity="0.2"></polygon>
</g>
<g clip-path="url(#zr0-c4)">
<polygon points="560 0 0 0 0 5.6 3.1 5.6 6.2 5.6 9.3 5.6 12.4 5.6 15.6 5.6 18.7 5.6 21.8 5.6 24.9 5.6 28 5.6 31.1 5.6 34.2 5.6 37.3 5.6 40.4 5.6 43.6 5.6 46.7 5.6 49.8 5.6 52.9 5.6 56 5.6 59.1 5.6 62.2 5.6 65.3 5.6 68.4 6.4 71.6 7.5 74.7 8.1 77.8 9.7 80.9 10.2 84 11 87.1 11.8 90.2 12.8 93.3 13.5 96.4 13.8 99.6 14.5 102.7 15.6 105.8 15.9 108.9 16.5 112 17.3 115.1 18 118.2 18.4 121.3 19.1 124.4 18.9 127.6 20.1 130.7 20.7 133.8 20.5 136.9 21.2 140 22 143.1 22.1 146.2 22.6 149.3 23.2 152.4 23.5 155.6 23.9 158.7 24.2 161.8 24.4 164.9 24.2 168 24 171.1 23.9 174.2 23.7 177.3 23.4 180.4 23.3 183.6 23.1 186.7 23 189.8 22.7 192.9 22.5 196 22.5 199.1 22.4 202.2 22.1 205.3 22 208.4 21.9 211.6 21.8 214.7 21.7 217.8 21.5 220.9 21.5 224 21.6 227.1 21.5 230.2 21.3 233.3 21.2 236.4 21.2 239.6 21.2 242.7 21.1 245.8 21.2 248.9 21.1 252 21 255.1 21 258.2 21 261.3 21.1 264.4 20.9 267.6 20.8 270.7 20.9 273.8 20.9 276.9 21 280 20.9 283.1 20.7 286.2 20.8 289.3 20.7 292.4 20.8 295.6 20.9 298.7 20.8 301.8 20.8 304.9 20.8 308 20.7 311.1 20.7 314.2 20.6 317.3 20.8 320.4 20.8 323.6 20.6 326.7 20.6 329.8 20.6 332.9 20.6 336 20.5 339.1 20.5 342.2 20.6 345.3 20.6 348.4 20.6 351.6 20.5 354.7 20.7 357.8 20.7 360.9 20.6 364 20.5 367.1 20.6 370.2 20.7 373.3 20.5 376.4 20.7 379.6 20.6 382.7 20.6 385.8 20.5 388.9 20.5 392 20.5 395.1 20.6 398.2 20.6 401.3 20.5 404.4 20.6 407.6 20.5 410.7 20.5 413.8 20.5 416.9 20.5 420 20.5 423.1 20.6 426.2 20.5 429.3 20.6 432.4 20.5 435.6 20.6 438.7 20.6 441.8 20.6 444.9 20.5 448 20.6 451.1 20.5 454.2 20.6 457.3 20.6 460.4 20.6 463.6 20.5 466.7 20.4 469.8 20.6 472.9 20.5 476 20.5 479.1 20.6 482.2 20.5 485.3 20.5 488.4 20.5 491.6 20.6 494.7 20.6 497.8 20.6 500.9 20.5 504 20.7 507.1 20.6 510.2 20.5 513.3 20.6 516.4 20.5 519.6 20.5 522.7 20.6 525.8 20.7 528.9 20.5 532 20.6 535.1 20.6 538.2 20.4 541.3 20.6 544.4 20.7 547.6 20.6 550.7 20.7 553.8 20.5 556.9 20.5 560 20.5" transform="matrix(1,0,0,-1,82.8,592.5)" fill="#71708A" fill-opacity="0.2"></polygon>
</g>
<g clip-path="url(#zr0-c2)">
<polyline points="0 5.6 3.1 5.6 6.2 5.6 9.3 5.6 12.4 5.6 15.6 5.6 18.7 5.6 21.8 5.6 24.9 5.6 28 5.6 31.1 5.6 34.2 5.6 37.3 5.6 40.4 5.6 43.6 5.6 46.7 5.6 49.8 5.6 52.9 5.6 56 5.6 59.1 5.6 62.2 5.6 65.3 5.6 68.4 6.4 71.6 7.5 74.7 8.1 77.8 9.7 80.9 10.2 84 11 87.1 11.8 90.2 12.8 93.3 13.5 96.4 13.8 99.6 14.5 102.7 15.6 105.8 15.9 108.9 16.5 112 17.3 115.1 18 118.2 18.4 121.3 19.1 124.4 18.9 127.6 20.1 130.7 20.7 133.8 20.5 136.9 21.2 140 22 143.1 22.1 146.2 22.6 149.3 23.2 152.4 23.5 155.6 23.9 158.7 24.2 161.8 24.4 164.9 24.2 168 24 171.1 23.9 174.2 23.7 177.3 23.4 180.4 23.3 183.6 23.1 186.7 23 189.8 22.7 192.9 22.5 196 22.5 199.1 22.4 202.2 22.1 205.3 22 208.4 21.9 211.6 21.8 214.7 21.7 217.8 21.5 220.9 21.5 224 21.6 227.1 21.5 230.2 21.3 233.3 21.2 236.4 21.2 239.6 21.2 242.7 21.1 245.8 21.2 248.9 21.1 252 21 255.1 21 258.2 21 261.3 21.1 264.4 20.9 267.6 20.8 270.7 20.9 273.8 20.9 276.9 21 280 20.9 283.1 20.7 286.2 20.8 289.3 20.7 292.4 20.8 295.6 20.9 298.7 20.8 301.8 20.8 304.9 20.8 308 20.7 311.1 20.7 314.2 20.6 317.3 20.8 320.4 20.8 323.6 20.6 326.7 20.6 329.8 20.6 332.9 20.6 336 20.5 339.1 20.5 342.2 20.6 345.3 20.6 348.4 20.6 351.6 20.5 354.7 20.7 357.8 20.7 360.9 20.6 364 20.5 367.1 20.6 370.2 20.7 373.3 20.5 376.4 20.7 379.6 20.6 382.7 20.6 385.8 20.5 388.9 20.5 392 20.5 395.1 20.6 398.2 20.6 401.3 20.5 404.4 20.6 407.6 20.5 410.7 20.5 413.8 20.5 416.9 20.5 420 20.5 423.1 20.6 426.2 20.5 429.3 20.6 432.4 20.5 435.6 20.6 438.7 20.6 441.8 20.6 444.9 20.5 448 20.6 451.1 20.5 454.2 20.6 457.3 20.6 460.4 20.6 463.6 20.5 466.7 20.4 469.8 20.6 472.9 20.5 476 20.5 479.1 20.6 482.2 20.5 485.3 20.5 488.4 20.5 491.6 20.6 494.7 20.6 497.8 20.6 500.9 20.5 504 20.7 507.1 20.6 510.2 20.5 513.3 20.6 516.4 20.5 519.6 20.5 522.7 20.6 525.8 20.7 528.9 20.5 532 20.6 535.1 20.6 538.2 20.4 541.3 20.6 544.4 20.7 547.6 20.6 550.7 20.7 553.8 20.5 556.9 20.5 560 20.5" transform="matrix(1,0,0,-1,82.8,592.5)" fill="none" stroke="#71708A"></polyline>
</g>
<g clip-path="url(#zr0-c3)">
<polyline points="0 5.6 3.1 5.6 6.2 5.6 9.3 5.6 12.4 5.6 15.6 5.6 18.7 5.6 21.8 5.6 24.9 5.6 28 5.6 31.1 5.6 34.2 5.6 37.3 5.6 40.4 5.6 43.6 5.6 46.7 5.6 49.8 5.6 52.9 5.6 56 5.6 59.1 5.6 62.2 5.6 65.3 5.6 68.4 6.4 71.6 7.5 74.7 8.1 77.8 9.7 80.9 10.2 84 11 87.1 11.8 90.2 12.8 93.3 13.5 96.4 13.8 99.6 14.5 102.7 15.6 105.8 15.9 108.9 16.5 112 17.3 115.1 18 118.2 18.4 121.3 19.1 124.4 18.9 127.6 20.1 130.7 20.7 133.8 20.5 136.9 21.2 140 22 143.1 22.1 146.2 22.6 149.3 23.2 152.4 23.5 155.6 23.9 158.7 24.2 161.8 24.4 164.9 24.2 168 24 171.1 23.9 174.2 23.7 177.3 23.4 180.4 23.3 183.6 23.1 186.7 23 189.8 22.7 192.9 22.5 196 22.5 199.1 22.4 202.2 22.1 205.3 22 208.4 21.9 211.6 21.8 214.7 21.7 217.8 21.5 220.9 21.5 224 21.6 227.1 21.5 230.2 21.3 233.3 21.2 236.4 21.2 239.6 21.2 242.7 21.1 245.8 21.2 248.9 21.1 252 21 255.1 21 258.2 21 261.3 21.1 264.4 20.9 267.6 20.8 270.7 20.9 273.8 20.9 276.9 21 280 20.9 283.1 20.7 286.2 20.8 289.3 20.7 292.4 20.8 295.6 20.9 298.7 20.8 301.8 20.8 304.9 20.8 308 20.7 311.1 20.7 314.2 20.6 317.3 20.8 320.4 20.8 323.6 20.6 326.7 20.6 329.8 20.6 332.9 20.6 336 20.5 339.1 20.5 342.2 20.6 345.3 20.6 348.4 20.6 351.6 20.5 354.7 20.7 357.8 20.7 360.9 20.6 364 20.5 367.1 20.6 370.2 20.7 373.3 20.5 376.4 20.7 379.6 20.6 382.7 20.6 385.8 20.5 388.9 20.5 392 20.5 395.1 20.6 398.2 20.6 401.3 20.5 404.4 20.6 407.6 20.5 410.7 20.5 413.8 20.5 416.9 20.5 420 20.5 423.1 20.6 426.2 20.5 429.3 20.6 432.4 20.5 435.6 20.6 438.7 20.6 441.8 20.6 444.9 20.5 448 20.6 451.1 20.5 454.2 20.6 457.3 20.6 460.4 20.6 463.6 20.5 466.7 20.4 469.8 20.6 472.9 20.5 476 20.5 479.1 20.6 482.2 20.5 485.3 20.5 488.4 20.5 491.6 20.6 494.7 20.6 497.8 20.6 500.9 20.5 504 20.7 507.1 20.6 510.2 20.5 513.3 20.6 516.4 20.5 519.6 20.5 522.7 20.6 525.8 20.7 528.9 20.5 532 20.6 535.1 20.6 538.2 20.4 541.3 20.6 544.4 20.7 547.6 20.6 550.7 20.7 553.8 20.5 556.9 20.5 560 20.5" transform="matrix(1,0,0,-1,82.8,592.5)" fill="none" stroke="#87A3CE" stroke-width="0.5"></polyline>
</g>
<g clip-path="url(#zr0-c4)">
<polyline points="0 5.6 3.1 5.6 6.2 5.6 9.3 5.6 12.4 5.6 15.6 5.6 18.7 5.6 21.8 5.6 24.9 5.6 28 5.6 31.1 5.6 34.2 5.6 37.3 5.6 40.4 5.6 43.6 5.6 46.7 5.6 49.8 5.6 52.9 5.6 56 5.6 59.1 5.6 62.2 5.6 65.3 5.6 68.4 6.4 71.6 7.5 74.7 8.1 77.8 9.7 80.9 10.2 84 11 87.1 11.8 90.2 12.8 93.3 13.5 96.4 13.8 99.6 14.5 102.7 15.6 105.8 15.9 108.9 16.5 112 17.3 115.1 18 118.2 18.4 121.3 19.1 124.4 18.9 127.6 20.1 130.7 20.7 133.8 20.5 136.9 21.2 140 22 143.1 22.1 146.2 22.6 149.3 23.2 152.4 23.5 155.6 23.9 158.7 24.2 161.8 24.4 164.9 24.2 168 24 171.1 23.9 174.2 23.7 177.3 23.4 180.4 23.3 183.6 23.1 186.7 23 189.8 22.7 192.9 22.5 196 22.5 199.1 22.4 202.2 22.1 205.3 22 208.4 21.9 211.6 21.8 214.7 21.7 217.8 21.5 220.9 21.5 224 21.6 227.1 21.5 230.2 21.3 233.3 21.2 236.4 21.2 239.6 21.2 242.7 21.1 245.8 21.2 248.9 21.1 252 21 255.1 21 258.2 21 261.3 21.1 264.4 20.9 267.6 20.8 270.7 20.9 273.8 20.9 276.9 21 280 20.9 283.1 20.7 286.2 20.8 289.3 20.7 292.4 20.8 295.6 20.9 298.7 20.8 301.8 20.8 304.9 20.8 308 20.7 311.1 20.7 314.2 20.6 317.3 20.8 320.4 20.8 323.6 20.6 326.7 20.6 329.8 20.6 332.9 20.6 336 20.5 339.1 20.5 342.2 20.6 345.3 20.6 348.4 20.6 351.6 20.5 354.7 20.7 357.8 20.7 360.9 20.6 364 20.5 367.1 20.6 370.2 20.7 373.3 20.5 376.4 20.7 379.6 20.6 382.7 20.6 385.8 20.5 388.9 20.5 392 20.5 395.1 20.6 398.2 20.6 401.3 20.5 404.4 20.6 407.6 20.5 410.7 20.5 413.8 20.5 416.9 20.5 420 20.5 423.1 20.6 426.2 20.5 429.3 20.6 432.4 20.5 435.6 20.6 438.7 20.6 441.8 20.6 444.9 20.5 448 20.6 451.1 20.5 454.2 20.6 457.3 20.6 460.4 20.6 463.6 20.5 466.7 20.4 469.8 20.6 472.9 20.5 476 20.5 479.1 20.6 482.2 20.5 485.3 20.5 488.4 20.5 491.6 20.6 494.7 20.6 497.8 20.6 500.9 20.5 504 20.7 507.1 20.6 510.2 20.5 513.3 20.6 516.4 20.5 519.6 20.5 522.7 20.6 525.8 20.7 528.9 20.5 532 20.6 535.1 20.6 538.2 20.4 541.3 20.6 544.4 20.7 547.6 20.6 550.7 20.7 553.8 20.5 556.9 20.5 560 20.5" transform="matrix(1,0,0,-1,82.8,592.5)" fill="none" stroke="#71708A"></polyline>
</g>
<path d="M-5 -5l691.0547 0l0 22l-691.0547 0Z" transform="translate(59.4727 5)" fill="rgb(0,0,0)" fill-opacity="0" stroke="#ccc" stroke-width="0"></path>
<path d="M0 7L25 7" transform="translate(60.4727 4)" fill="#000" stroke="#ccc" stroke-width="2" stroke-linecap="butt" stroke-miterlimit="10"></path>
<path d="M12.5 1.4L18.1 12.6L6.9 12.6Z" transform="translate(60.4727 4)" fill="#ccc" stroke="#ccc" stroke-width="0" stroke-linecap="butt" stroke-miterlimit="10"></path>
<text dominant-baseline="central" text-anchor="start" style="font-size:12px;font-family:Microsoft YaHei;" x="30" y="7" transform="translate(60.4727 4)" fill="#ccc">Pipe_Pres</text>
<path d="M0 7L25 7" transform="translate(156.1465 4)" fill="#000" stroke="#ccc" stroke-width="2" stroke-linecap="butt" stroke-miterlimit="10"></path>
<path d="M18.1 7A5.6 5.6 0 1 1 18.1 6.9994" transform="translate(156.1465 4)" fill="#ccc" stroke="#ccc" stroke-width="0" stroke-linecap="butt" stroke-miterlimit="10"></path>
<text dominant-baseline="central" text-anchor="start" style="font-size:12px;font-family:Microsoft YaHei;" x="30" y="7" transform="translate(156.1465 4)" fill="#ccc">Ambient_Pres</text>
<path d="M0 7L25 7" transform="translate(276.0313 4)" fill="#000" stroke="#ccc" stroke-width="2" stroke-linecap="butt" stroke-miterlimit="10"></path>
<path d="M12.5 1.4L18.1 12.6L6.9 12.6Z" transform="translate(276.0313 4)" fill="#ccc" stroke="#ccc" stroke-width="0" stroke-linecap="butt" stroke-miterlimit="10"></path>
<text dominant-baseline="central" text-anchor="start" style="font-size:12px;font-family:Microsoft YaHei;" x="30" y="7" transform="translate(276.0313 4)" fill="#ccc">Pipe_Temp</text>
<path d="M0 7L25 7" transform="translate(380.0137 4)" fill="#000" stroke="#ccc" stroke-width="2" stroke-linecap="butt" stroke-miterlimit="10"></path>
<path d="M18.1 7A5.6 5.6 0 1 1 18.1 6.9994" transform="translate(380.0137 4)" fill="#ccc" stroke="#ccc" stroke-width="0" stroke-linecap="butt" stroke-miterlimit="10"></path>
<text dominant-baseline="central" text-anchor="start" style="font-size:12px;font-family:Microsoft YaHei;" x="30" y="7" transform="translate(380.0137 4)" fill="#ccc">Chip_Temp</text>
<path d="M0 7L25 7" transform="translate(485.2617 4)" fill="#000" stroke="#f7f494" stroke-width="2" stroke-linecap="butt" stroke-miterlimit="10"></path>
<path d="M18.1 7A5.6 5.6 0 1 1 18.1 6.9994" transform="translate(485.2617 4)" fill="#f7f494"></path>
<text dominant-baseline="central" text-anchor="start" style="font-size:12px;font-family:Microsoft YaHei;" x="30" y="7" transform="translate(485.2617 4)" fill="#B9B8CE">Set_nPressure</text>
<path d="M0 7L25 7" transform="translate(605.8672 4)" fill="#000" stroke="#f7f494" stroke-width="2" stroke-linecap="butt" stroke-miterlimit="10"></path>
<path d="M12.5 1.4L18.1 12.6L6.9 12.6Z" transform="translate(605.8672 4)" fill="#f7f494"></path>
<text dominant-baseline="central" text-anchor="start" style="font-size:12px;font-family:Microsoft YaHei;" x="30" y="7" transform="translate(605.8672 4)" fill="#B9B8CE">Current_nPressure</text>
<path d="M0 0l560 0l0 30l-560 0Z" transform="matrix(1,0,0,-1,82.8,592.5)" fill="none"></path>
<path d="M0 0l560 0l0 30l-560 0Z" transform="matrix(1,0,0,-1,82.8,592.5)" fill="rgb(135,163,206)" fill-opacity="0.2"></path>
<path d="M3.5 0.5L556.5 0.5A3 3 0 0 1 559.5 3.5L559.5 26.5A3 3 0 0 1 556.5 29.5L3.5 29.5A3 3 0 0 1 0.5 26.5L0.5 3.5A3 3 0 0 1 3.5 0.5" transform="matrix(1,0,0,-1,82.8,592.5)" fill="rgb(0,0,0)" fill-opacity="0" stroke="#71708A"></path>
<path d="M0 29.5L560 29.5L560 34.5A2 2 0 0 1 558 36.5L2 36.5A2 2 0 0 1 0 34.5L0 29.5" transform="matrix(1,0,0,-1,82.8,592.5)" fill="#B0B6C3" fill-opacity="0.3"></path>
<path d="M-2.2408 -1.6796C-1.8674 -1.6796 -1.6817 -1.4939 -1.6817 -1.1204L-1.6817 1.1204C-1.6817 1.4939 -1.8674 1.6796 -2.2408 1.6796C-2.6143 1.6796 -2.8 1.4939 -2.8 1.1204L-2.8 -1.1204C-2.8 -1.4939 -2.6143 -1.6796 -2.2408 -1.6796ZM0 -1.6796C0.3735 -1.6796 0.5592 -1.4939 0.5592 -1.1204L0.5592 1.1204C0.5592 1.4939 0.3735 1.6796 0 1.6796C-0.3735 1.6796 -0.5592 1.4939 -0.5592 1.1204L-0.5592 -1.1204C-0.5592 -1.4939 -0.3735 -1.6796 0 -1.6796ZM2.2408 -1.6796C2.6143 -1.6796 2.8 -1.4939 2.8 -1.1204L2.8 1.1204C2.8 1.4939 2.6143 1.6796 2.2408 1.6796C1.8674 1.6796 1.6817 1.4939 1.6817 1.1204L1.6817 -1.1204C1.6796 -1.4939 1.8674 -1.6796 2.2408 -1.6796Z" transform="matrix(1,0,0,-1,362.8,559.5)" fill="#fff"></path>
<path d="M0 1.628L0 2M0 0L0 0.375M-0.1 0.375L0.1 0.375A0.1 0.1 0 0 1 0.2 0.475L0.2 1.525A0.1 0.1 0 0 1 0.1 1.625L-0.1 1.625A0.1 0.1 0 0 1 -0.2 1.525L-0.2 0.475A0.1 0.1 0 0 1 -0.1 0.375Z" transform="matrix(15,0,0,-15,83.8,592.5)" fill="#353450" stroke="#C5CBE3" stroke-width="0.06666666666666667"></path>
<path d="M0 1.628L0 2M0 0L0 0.375M-0.1 0.375L0.1 0.375A0.1 0.1 0 0 1 0.2 0.475L0.2 1.525A0.1 0.1 0 0 1 0.1 1.625L-0.1 1.625A0.1 0.1 0 0 1 -0.2 1.525L-0.2 0.475A0.1 0.1 0 0 1 -0.1 0.375Z" transform="matrix(15,0,0,-15,641.8,592.5)" fill="#353450" stroke="#C5CBE3" stroke-width="0.06666666666666667"></path>
<defs >
<clipPath id="zr0-c0">
<path d="M79 59l562 0l0 472l-562 0Z" fill="#000"></path>
</clipPath>
<clipPath id="zr0-c1">
<path d="M79 59l562 0l0 472l-562 0Z" fill="#000"></path>
</clipPath>
<clipPath id="zr0-c2">
<path d="M0 0l0 0l0 30l0 0Z" transform="matrix(1,0,0,-1,82.8,592.5)" fill="#000"></path>
</clipPath>
<clipPath id="zr0-c3">
<path d="M0 0l560 0l0 30l-560 0Z" transform="matrix(1,0,0,-1,82.8,592.5)" fill="#000"></path>
</clipPath>
<clipPath id="zr0-c4">
<path d="M560 0l0 0l0 30l0 0Z" transform="matrix(1,0,0,-1,82.8,592.5)" fill="#000"></path>
</clipPath>
</defs>
</svg>