<svg width="800" height="600" xmlns="http://www.w3.org/2000/svg" xmlns:xlink="http://www.w3.org/1999/xlink" version="1.1" baseProfile="full" viewBox="0 0 800 600">
<rect width="800" height="600" x="0" y="0" id="0" fill="rgb(40, 44, 52)" fill-opacity="1"></rect>
<path d="M80 530.5L640 530.5" fill="none" stroke="#484753"></path>
<path d="M80 436.5L640 436.5" fill="none" stroke="#484753"></path>
<path d="M80 342.5L640 342.5" fill="none" stroke="#484753"></path>
<path d="M80 248.5L640 248.5" fill="none" stroke="#484753"></path>
<path d="M80 154.5L640 154.5" fill="none" stroke="#484753"></path>
<path d="M80 60.5L640 60.5" fill="none" stroke="#484753"></path>
<path d="M80.5 530L80.5 60" fill="none" stroke="#ACDFED" stroke-linecap="round"></path>
<text dominant-baseline="central" text-anchor="middle" style="font-size:12px;font-family:Microsoft YaHei;" y="-6" transform="translate(80 45)" fill="#B9B8CE">压力</text>
<path d="M640.5 530L640.5 60" fill="none" stroke="#FFAB91" stroke-linecap="round"></path>
<text dominant-baseline="central" text-anchor="middle" style="font-size:12px;font-family:Microsoft YaHei;" y="-6" transform="translate(640 45)" fill="#B9B8CE">温度</text>
<path d="M720.5 530L720.5 60" fill="none" stroke="#f7f494" stroke-linecap="round"></path>
<text dominant-baseline="central" text-anchor="middle" style="font-size:12px;font-family:Microsoft YaHei;" y="-6" transform="translate(720 45)" fill="#B9B8CE">负压</text>
<path d="M80 530.5L640 530.5" fill="none" stroke="#B9B8CE" stroke-linecap="round"></path>
<path d="M82.5 530L82.5 535" fill="none" stroke="#B9B8CE"></path>
<path d="M147.5 530L147.5 535" fill="none" stroke="#B9B8CE"></path>
<path d="M212.5 530L212.5 535" fill="none" stroke="#B9B8CE"></path>
<path d="M276.5 530L276.5 535" fill="none" stroke="#B9B8CE"></path>
<path d="M341.5 530L341.5 535" fill="none" stroke="#B9B8CE"></path>
<path d="M406.5 530L406.5 535" fill="none" stroke="#B9B8CE"></path>
<path d="M471.5 530L471.5 535" fill="none" stroke="#B9B8CE"></path>
<path d="M536.5 530L536.5 535" fill="none" stroke="#B9B8CE"></path>
<path d="M600.5 530L600.5 535" fill="none" stroke="#B9B8CE"></path>
<text dominant-baseline="central" text-anchor="start" style="font-size:12px;font-family:Microsoft YaHei;" xml:space="preserve" transform="translate(728 530)" fill="#B9B8CE">0 hPa</text>
<text dominant-baseline="central" text-anchor="start" style="font-size:12px;font-family:Microsoft YaHei;" xml:space="preserve" transform="translate(728 436)" fill="#B9B8CE">30 hPa</text>
<text dominant-baseline="central" text-anchor="start" style="font-size:12px;font-family:Microsoft YaHei;" xml:space="preserve" transform="translate(728 342)" fill="#B9B8CE">60 hPa</text>
<text dominant-baseline="central" text-anchor="start" style="font-size:12px;font-family:Microsoft YaHei;" xml:space="preserve" transform="translate(728 248)" fill="#B9B8CE">90 hPa</text>
<text dominant-baseline="central" text-anchor="start" style="font-size:12px;font-family:Microsoft YaHei;" xml:space="preserve" transform="translate(728 154)" fill="#B9B8CE">120 hPa</text>
<text dominant-baseline="central" text-anchor="start" style="font-size:12px;font-family:Microsoft YaHei;" xml:space="preserve" transform="translate(728 60)" fill="#B9B8CE">150 hPa</text>
<text dominant-baseline="central" text-anchor="middle" style="font-size:12px;font-family:Microsoft YaHei;" y="6" transform="translate(82.314 538)" fill="#B9B8CE">12:49:14</text>
<text dominant-baseline="central" text-anchor="middle" style="font-size:12px;font-family:Microsoft YaHei;" y="6" transform="translate(147.1074 538)" fill="#B9B8CE">12:49:28</text>
<text dominant-baseline="central" text-anchor="middle" style="font-size:12px;font-family:Microsoft YaHei;" y="6" transform="translate(211.9008 538)" fill="#B9B8CE">12:49:42</text>
<text dominant-baseline="central" text-anchor="middle" style="font-size:12px;font-family:Microsoft YaHei;" y="6" transform="translate(276.6942 538)" fill="#B9B8CE">12:49:56</text>
<text dominant-baseline="central" text-anchor="middle" style="font-size:12px;font-family:Microsoft YaHei;" y="6" transform="translate(341.4876 538)" fill="#B9B8CE">12:50:10</text>
<text dominant-baseline="central" text-anchor="middle" style="font-size:12px;font-family:Microsoft YaHei;" y="6" transform="translate(406.281 538)" fill="#B9B8CE">12:50:24</text>
<text dominant-baseline="central" text-anchor="middle" style="font-size:12px;font-family:Microsoft YaHei;" y="6" transform="translate(471.0744 538)" fill="#B9B8CE">12:50:38</text>
<text dominant-baseline="central" text-anchor="middle" style="font-size:12px;font-family:Microsoft YaHei;" y="6" transform="translate(535.8678 538)" fill="#B9B8CE">12:50:52</text>
<text dominant-baseline="central" text-anchor="middle" style="font-size:12px;font-family:Microsoft YaHei;" y="6" transform="translate(600.6612 538)" fill="#B9B8CE">12:51:06</text>
<g clip-path="url(#zr0-c0)">
<path d="M82.314 527.18L86.9421 527.18L91.5703 527.18L96.1983 527.18L100.8264 526.24L105.4545 527.18L110.0826 527.18L114.7107 527.18L119.3388 527.18L123.9669 527.18L128.595 527.18L133.2231 527.18L137.8512 527.18L142.4793 526.8666L147.1074 526.8666L151.7355 526.8666L156.3636 527.18L160.9917 527.18L165.6198 527.18L170.2479 527.18L174.876 527.18L179.5041 527.18L184.1322 527.18L188.7603 527.18L193.3884 527.18L198.0165 527.18L202.6446 526.8666L207.2727 525.9267L211.9008 527.4933L216.5289 525.9267L221.157 526.8666L225.7851 527.8066L230.4132 527.4933L235.0413 527.18L239.6694 527.18L244.2975 527.18L248.9256 527.18L253.5537 527.18L258.1818 527.18L262.8099 527.18L267.438 527.18L272.0661 527.18L276.6942 527.18L281.3223 527.18L285.9504 527.18L290.5785 527.18L295.2066 527.18L299.8347 522.7933L304.4628 518.0933L309.0909 501.8L313.719 494.5933L318.3471 486.4467L322.9752 475.7933L327.6033 453.86L332.2314 446.0267L336.8595 427.2267L341.4876 411.2467L346.1157 384.9267L350.7438 370.2L355.3719 354.22L360 338.24L364.6281 304.0867L369.2562 280.2733L373.8843 264.92L378.5124 256.46L383.1405 259.9067L387.7686 302.52L392.3967 321.9467L397.0248 290.6133L401.6529 262.4133L406.281 219.1733L410.9091 223.8733L415.5372 197.8667L420.1653 178.1267L424.7934 172.1733L429.4215 162.7733L434.0496 158.3867L438.6777 144.2867L443.3058 141.1533L447.9339 139.5867L452.562 137.3933L457.1901 132.38L461.8182 132.38L466.4463 132.38L471.0744 135.8267L475.7025 137.3933L480.3306 142.0933L484.9587 150.24L489.5868 148.36L494.2149 157.76L498.843 163.4L503.4711 170.2933L508.0992 175.62L512.7273 185.96L517.3553 191.2867L521.9835 195.9867L526.6116 201L531.2397 212.5933L535.8678 221.3667L540.4958 225.44L545.124 229.8267L549.7521 239.2267L554.3802 243.9267L559.0082 278.08L563.6364 310.04L568.2645 358.92L572.8926 372.7067L577.5207 388.6867L582.1487 396.8333L586.7769 410.9333L591.405 415.9467L596.0331 410.3067L600.6611 415.0067L605.2892 408.1133L609.9174 405.92L614.5455 525.6133L619.1736 504.62L623.8016 421.5867L628.4297 390.5667L633.0579 371.4533L637.686 342" fill="none" stroke="#f7f494" stroke-width="2" stroke-linejoin="bevel"></path>
</g>
<g clip-path="url(#zr0-c1)">
<path d="M82.314 248L86.9421 248L91.5703 248L96.1983 248L100.8264 248L105.4545 248L110.0826 248L114.7107 248L119.3388 248L123.9669 248L128.595 248L133.2231 248L137.8512 248L142.4793 248L147.1074 248L151.7355 248L156.3636 248L160.9917 248L165.6198 248L170.2479 248L174.876 248L179.5041 248L184.1322 248L188.7603 248L193.3884 248L198.0165 248L202.6446 248L207.2727 248L211.9008 248L216.5289 248L221.157 248L225.7851 248L230.4132 248L235.0413 248L239.6694 248L244.2975 248L248.9256 248L253.5537 248L258.1818 248L262.8099 248L267.438 248L272.0661 248L276.6942 248L281.3223 248L285.9504 248L290.5785 248L295.2066 248L299.8347 248L304.4628 248L309.0909 248L313.719 248L318.3471 248L322.9752 248L327.6033 248L332.2314 248L336.8595 248L341.4876 248L346.1157 248L350.7438 248L355.3719 248L360 248L364.6281 248L369.2562 248L373.8843 248L378.5124 248L383.1405 248L387.7686 248L392.3967 248L397.0248 248L401.6529 248L406.281 248L410.9091 248L415.5372 248L420.1653 248L424.7934 248L429.4215 248L434.0496 248L438.6777 248L443.3058 248L447.9339 248L452.562 248L457.1901 248L461.8182 248L466.4463 248L471.0744 248L475.7025 248L480.3306 248L484.9587 248L489.5868 248L494.2149 248L498.843 248L503.4711 248L508.0992 248L512.7273 248L517.3553 248L521.9835 248L526.6116 248L531.2397 248L535.8678 248L540.4958 248L545.124 248L549.7521 248L554.3802 248L559.0082 248L563.6364 248L568.2645 248L572.8926 248L577.5207 248L582.1487 248L586.7769 248L591.405 248L596.0331 248L600.6611 248L605.2892 248L609.9174 248L614.5455 248L619.1736 248L623.8016 248L628.4297 248L633.0579 248L637.686 248" fill="none" stroke="#f7f494" stroke-width="2" stroke-linejoin="bevel"></path>
</g>
<path d="M0 -1L1 1L-1 1Z" transform="matrix(0,0,0,0,82.314,528.308)" fill="#f7f494" fill-opacity="0"></path>
<path d="M0 -1L1 1L-1 1Z" transform="matrix(5,0,0,5,82.314,527.18)" fill="#f7f494"></path>
<path d="M0 -1L1 1L-1 1Z" transform="matrix(5,0,0,5,147.1074,526.8666)" fill="#f7f494"></path>
<path d="M0 -1L1 1L-1 1Z" transform="matrix(5,0,0,5,211.9008,527.4933)" fill="#f7f494"></path>
<path d="M0 -1L1 1L-1 1Z" transform="matrix(5,0,0,5,276.6942,527.18)" fill="#f7f494"></path>
<path d="M0 -1L1 1L-1 1Z" transform="matrix(5,0,0,5,341.4876,411.2467)" fill="#f7f494"></path>
<path d="M0 -1L1 1L-1 1Z" transform="matrix(5,0,0,5,406.281,219.1733)" fill="#f7f494"></path>
<path d="M0 -1L1 1L-1 1Z" transform="matrix(5,0,0,5,471.0744,135.8267)" fill="#f7f494"></path>
<path d="M0 -1L1 1L-1 1Z" transform="matrix(5,0,0,5,535.8678,221.3667)" fill="#f7f494"></path>
<path d="M0 -1L1 1L-1 1Z" transform="matrix(5,0,0,5,600.6611,415.0067)" fill="#f7f494"></path>
<path d="M1 0A1 1 0 1 1 1 -0.0001" transform="matrix(5,0,0,5,82.314,248)" fill="#f7f494"></path>
<path d="M1 0A1 1 0 1 1 1 -0.0001" transform="matrix(5,0,0,5,147.1074,248)" fill="#f7f494"></path>
<path d="M1 0A1 1 0 1 1 1 -0.0001" transform="matrix(5,0,0,5,211.9008,248)" fill="#f7f494"></path>
<path d="M1 0A1 1 0 1 1 1 -0.0001" transform="matrix(5,0,0,5,276.6942,248)" fill="#f7f494"></path>
<path d="M1 0A1 1 0 1 1 1 -0.0001" transform="matrix(5,0,0,5,341.4876,248)" fill="#f7f494"></path>
<path d="M1 0A1 1 0 1 1 1 -0.0001" transform="matrix(5,0,0,5,406.281,248)" fill="#f7f494"></path>
<path d="M1 0A1 1 0 1 1 1 -0.0001" transform="matrix(5,0,0,5,471.0744,248)" fill="#f7f494"></path>
<path d="M1 0A1 1 0 1 1 1 -0.0001" transform="matrix(5,0,0,5,535.8678,248)" fill="#f7f494"></path>
<path d="M1 0A1 1 0 1 1 1 -0.0001" transform="matrix(5,0,0,5,600.6611,248)" fill="#f7f494"></path>
<path d="M0 0l560 0l0 30l-560 0Z" transform="matrix(1,0,0,-1,82.8,592.5)" fill="rgb(47,69,84)" fill-opacity="0"></path>
<g clip-path="url(#zr0-c2)">
<polygon points="560 0 0 0 0 5.7 4.7 5.7 9.3 5.7 14 5.7 18.7 5.7 23.3 5.7 28 5.7 32.7 5.7 37.3 5.7 42 5.7 46.7 5.7 51.3 5.7 56 5.7 60.7 5.7 65.3 5.7 70 5.7 74.7 5.7 79.3 5.7 84 5.7 88.7 5.7 93.3 5.7 98 5.7 102.7 5.7 107.3 5.7 112 5.7 116.7 5.7 121.3 5.7 126 5.7 130.7 5.6 135.3 5.7 140 5.7 144.7 5.6 149.3 5.6 154 5.7 158.7 5.7 163.3 5.7 168 5.7 172.7 5.7 177.3 5.7 182 5.7 186.7 5.7 191.3 5.7 196 5.7 200.7 5.7 205.3 5.7 210 5.7 214.7 5.7 219.3 5.9 224 6.1 228.7 6.9 233.3 7.2 238 7.6 242.7 8.1 247.3 9.1 252 9.5 256.7 10.4 261.3 11.2 266 12.4 270.7 13.1 275.3 13.9 280 14.6 284.7 16.2 289.3 17.4 294 18.1 298.7 18.5 303.3 18.3 308 16.3 312.7 15.4 317.3 16.9 322 18.2 326.7 20.3 331.3 20 336 21.3 340.7 22.2 345.3 22.5 350 22.9 354.7 23.1 359.3 23.8 364 24 368.7 24 373.3 24.1 378 24.4 382.7 24.4 387.3 24.4 392 24.2 396.7 24.1 401.3 23.9 406 23.5 410.7 23.6 415.3 23.2 420 22.9 424.7 22.6 429.3 22.3 434 21.8 438.7 21.6 443.3 21.4 448 21.1 452.7 20.6 457.3 20.2 462 20 466.7 19.8 471.3 19.3 476 19.1 480.7 17.5 485.3 16 490 13.6 494.7 13 499.3 12.2 504 11.8 508.7 11.2 513.3 10.9 518 11.2 522.7 11 527.3 11.3 532 11.4 536.7 5.7 541.3 6.7 546 10.7 550.7 12.1 555.3 13 560 14.4" transform="matrix(1,0,0,-1,82.8,592.5)" fill="#71708A" fill-opacity="0.2"></polygon>
</g>
<g clip-path="url(#zr0-c3)">
<polygon points="560 0 0 0 0 5.7 4.7 5.7 9.3 5.7 14 5.7 18.7 5.7 23.3 5.7 28 5.7 32.7 5.7 37.3 5.7 42 5.7 46.7 5.7 51.3 5.7 56 5.7 60.7 5.7 65.3 5.7 70 5.7 74.7 5.7 79.3 5.7 84 5.7 88.7 5.7 93.3 5.7 98 5.7 102.7 5.7 107.3 5.7 112 5.7 116.7 5.7 121.3 5.7 126 5.7 130.7 5.6 135.3 5.7 140 5.7 144.7 5.6 149.3 5.6 154 5.7 158.7 5.7 163.3 5.7 168 5.7 172.7 5.7 177.3 5.7 182 5.7 186.7 5.7 191.3 5.7 196 5.7 200.7 5.7 205.3 5.7 210 5.7 214.7 5.7 219.3 5.9 224 6.1 228.7 6.9 233.3 7.2 238 7.6 242.7 8.1 247.3 9.1 252 9.5 256.7 10.4 261.3 11.2 266 12.4 270.7 13.1 275.3 13.9 280 14.6 284.7 16.2 289.3 17.4 294 18.1 298.7 18.5 303.3 18.3 308 16.3 312.7 15.4 317.3 16.9 322 18.2 326.7 20.3 331.3 20 336 21.3 340.7 22.2 345.3 22.5 350 22.9 354.7 23.1 359.3 23.8 364 24 368.7 24 373.3 24.1 378 24.4 382.7 24.4 387.3 24.4 392 24.2 396.7 24.1 401.3 23.9 406 23.5 410.7 23.6 415.3 23.2 420 22.9 424.7 22.6 429.3 22.3 434 21.8 438.7 21.6 443.3 21.4 448 21.1 452.7 20.6 457.3 20.2 462 20 466.7 19.8 471.3 19.3 476 19.1 480.7 17.5 485.3 16 490 13.6 494.7 13 499.3 12.2 504 11.8 508.7 11.2 513.3 10.9 518 11.2 522.7 11 527.3 11.3 532 11.4 536.7 5.7 541.3 6.7 546 10.7 550.7 12.1 555.3 13 560 14.4" transform="matrix(1,0,0,-1,82.8,592.5)" fill="#87A3CE" fill-opacity="0.2"></polygon>
</g>
<g clip-path="url(#zr0-c4)">
<polygon points="560 0 0 0 0 5.7 4.7 5.7 9.3 5.7 14 5.7 18.7 5.7 23.3 5.7 28 5.7 32.7 5.7 37.3 5.7 42 5.7 46.7 5.7 51.3 5.7 56 5.7 60.7 5.7 65.3 5.7 70 5.7 74.7 5.7 79.3 5.7 84 5.7 88.7 5.7 93.3 5.7 98 5.7 102.7 5.7 107.3 5.7 112 5.7 116.7 5.7 121.3 5.7 126 5.7 130.7 5.6 135.3 5.7 140 5.7 144.7 5.6 149.3 5.6 154 5.7 158.7 5.7 163.3 5.7 168 5.7 172.7 5.7 177.3 5.7 182 5.7 186.7 5.7 191.3 5.7 196 5.7 200.7 5.7 205.3 5.7 210 5.7 214.7 5.7 219.3 5.9 224 6.1 228.7 6.9 233.3 7.2 238 7.6 242.7 8.1 247.3 9.1 252 9.5 256.7 10.4 261.3 11.2 266 12.4 270.7 13.1 275.3 13.9 280 14.6 284.7 16.2 289.3 17.4 294 18.1 298.7 18.5 303.3 18.3 308 16.3 312.7 15.4 317.3 16.9 322 18.2 326.7 20.3 331.3 20 336 21.3 340.7 22.2 345.3 22.5 350 22.9 354.7 23.1 359.3 23.8 364 24 368.7 24 373.3 24.1 378 24.4 382.7 24.4 387.3 24.4 392 24.2 396.7 24.1 401.3 23.9 406 23.5 410.7 23.6 415.3 23.2 420 22.9 424.7 22.6 429.3 22.3 434 21.8 438.7 21.6 443.3 21.4 448 21.1 452.7 20.6 457.3 20.2 462 20 466.7 19.8 471.3 19.3 476 19.1 480.7 17.5 485.3 16 490 13.6 494.7 13 499.3 12.2 504 11.8 508.7 11.2 513.3 10.9 518 11.2 522.7 11 527.3 11.3 532 11.4 536.7 5.7 541.3 6.7 546 10.7 550.7 12.1 555.3 13 560 14.4" transform="matrix(1,0,0,-1,82.8,592.5)" fill="#71708A" fill-opacity="0.2"></polygon>
</g>
<g clip-path="url(#zr0-c2)">
<polyline points="0 5.7 4.7 5.7 9.3 5.7 14 5.7 18.7 5.7 23.3 5.7 28 5.7 32.7 5.7 37.3 5.7 42 5.7 46.7 5.7 51.3 5.7 56 5.7 60.7 5.7 65.3 5.7 70 5.7 74.7 5.7 79.3 5.7 84 5.7 88.7 5.7 93.3 5.7 98 5.7 102.7 5.7 107.3 5.7 112 5.7 116.7 5.7 121.3 5.7 126 5.7 130.7 5.6 135.3 5.7 140 5.7 144.7 5.6 149.3 5.6 154 5.7 158.7 5.7 163.3 5.7 168 5.7 172.7 5.7 177.3 5.7 182 5.7 186.7 5.7 191.3 5.7 196 5.7 200.7 5.7 205.3 5.7 210 5.7 214.7 5.7 219.3 5.9 224 6.1 228.7 6.9 233.3 7.2 238 7.6 242.7 8.1 247.3 9.1 252 9.5 256.7 10.4 261.3 11.2 266 12.4 270.7 13.1 275.3 13.9 280 14.6 284.7 16.2 289.3 17.4 294 18.1 298.7 18.5 303.3 18.3 308 16.3 312.7 15.4 317.3 16.9 322 18.2 326.7 20.3 331.3 20 336 21.3 340.7 22.2 345.3 22.5 350 22.9 354.7 23.1 359.3 23.8 364 24 368.7 24 373.3 24.1 378 24.4 382.7 24.4 387.3 24.4 392 24.2 396.7 24.1 401.3 23.9 406 23.5 410.7 23.6 415.3 23.2 420 22.9 424.7 22.6 429.3 22.3 434 21.8 438.7 21.6 443.3 21.4 448 21.1 452.7 20.6 457.3 20.2 462 20 466.7 19.8 471.3 19.3 476 19.1 480.7 17.5 485.3 16 490 13.6 494.7 13 499.3 12.2 504 11.8 508.7 11.2 513.3 10.9 518 11.2 522.7 11 527.3 11.3 532 11.4 536.7 5.7 541.3 6.7 546 10.7 550.7 12.1 555.3 13 560 14.4" transform="matrix(1,0,0,-1,82.8,592.5)" fill="none" stroke="#71708A"></polyline>
</g>
<g clip-path="url(#zr0-c3)">
<polyline points="0 5.7 4.7 5.7 9.3 5.7 14 5.7 18.7 5.7 23.3 5.7 28 5.7 32.7 5.7 37.3 5.7 42 5.7 46.7 5.7 51.3 5.7 56 5.7 60.7 5.7 65.3 5.7 70 5.7 74.7 5.7 79.3 5.7 84 5.7 88.7 5.7 93.3 5.7 98 5.7 102.7 5.7 107.3 5.7 112 5.7 116.7 5.7 121.3 5.7 126 5.7 130.7 5.6 135.3 5.7 140 5.7 144.7 5.6 149.3 5.6 154 5.7 158.7 5.7 163.3 5.7 168 5.7 172.7 5.7 177.3 5.7 182 5.7 186.7 5.7 191.3 5.7 196 5.7 200.7 5.7 205.3 5.7 210 5.7 214.7 5.7 219.3 5.9 224 6.1 228.7 6.9 233.3 7.2 238 7.6 242.7 8.1 247.3 9.1 252 9.5 256.7 10.4 261.3 11.2 266 12.4 270.7 13.1 275.3 13.9 280 14.6 284.7 16.2 289.3 17.4 294 18.1 298.7 18.5 303.3 18.3 308 16.3 312.7 15.4 317.3 16.9 322 18.2 326.7 20.3 331.3 20 336 21.3 340.7 22.2 345.3 22.5 350 22.9 354.7 23.1 359.3 23.8 364 24 368.7 24 373.3 24.1 378 24.4 382.7 24.4 387.3 24.4 392 24.2 396.7 24.1 401.3 23.9 406 23.5 410.7 23.6 415.3 23.2 420 22.9 424.7 22.6 429.3 22.3 434 21.8 438.7 21.6 443.3 21.4 448 21.1 452.7 20.6 457.3 20.2 462 20 466.7 19.8 471.3 19.3 476 19.1 480.7 17.5 485.3 16 490 13.6 494.7 13 499.3 12.2 504 11.8 508.7 11.2 513.3 10.9 518 11.2 522.7 11 527.3 11.3 532 11.4 536.7 5.7 541.3 6.7 546 10.7 550.7 12.1 555.3 13 560 14.4" transform="matrix(1,0,0,-1,82.8,592.5)" fill="none" stroke="#87A3CE" stroke-width="0.5"></polyline>
</g>
<g clip-path="url(#zr0-c4)">
<polyline points="0 5.7 4.7 5.7 9.3 5.7 14 5.7 18.7 5.7 23.3 5.7 28 5.7 32.7 5.7 37.3 5.7 42 5.7 46.7 5.7 51.3 5.7 56 5.7 60.7 5.7 65.3 5.7 70 5.7 74.7 5.7 79.3 5.7 84 5.7 88.7 5.7 93.3 5.7 98 5.7 102.7 5.7 107.3 5.7 112 5.7 116.7 5.7 121.3 5.7 126 5.7 130.7 5.6 135.3 5.7 140 5.7 144.7 5.6 149.3 5.6 154 5.7 158.7 5.7 163.3 5.7 168 5.7 172.7 5.7 177.3 5.7 182 5.7 186.7 5.7 191.3 5.7 196 5.7 200.7 5.7 205.3 5.7 210 5.7 214.7 5.7 219.3 5.9 224 6.1 228.7 6.9 233.3 7.2 238 7.6 242.7 8.1 247.3 9.1 252 9.5 256.7 10.4 261.3 11.2 266 12.4 270.7 13.1 275.3 13.9 280 14.6 284.7 16.2 289.3 17.4 294 18.1 298.7 18.5 303.3 18.3 308 16.3 312.7 15.4 317.3 16.9 322 18.2 326.7 20.3 331.3 20 336 21.3 340.7 22.2 345.3 22.5 350 22.9 354.7 23.1 359.3 23.8 364 24 368.7 24 373.3 24.1 378 24.4 382.7 24.4 387.3 24.4 392 24.2 396.7 24.1 401.3 23.9 406 23.5 410.7 23.6 415.3 23.2 420 22.9 424.7 22.6 429.3 22.3 434 21.8 438.7 21.6 443.3 21.4 448 21.1 452.7 20.6 457.3 20.2 462 20 466.7 19.8 471.3 19.3 476 19.1 480.7 17.5 485.3 16 490 13.6 494.7 13 499.3 12.2 504 11.8 508.7 11.2 513.3 10.9 518 11.2 522.7 11 527.3 11.3 532 11.4 536.7 5.7 541.3 6.7 546 10.7 550.7 12.1 555.3 13 560 14.4" transform="matrix(1,0,0,-1,82.8,592.5)" fill="none" stroke="#71708A"></polyline>
</g>
<path d="M-5 -5l691.0547 0l0 22l-691.0547 0Z" transform="translate(59.4727 5)" fill="rgb(0,0,0)" fill-opacity="0" stroke="#ccc" stroke-width="0"></path>
<path d="M0 7L25 7" transform="translate(60.4727 4)" fill="#000" stroke="#ccc" stroke-width="2" stroke-linecap="butt" stroke-miterlimit="10"></path>
<path d="M12.5 1.4L18.1 12.6L6.9 12.6Z" transform="translate(60.4727 4)" fill="#ccc" stroke="#ccc" stroke-width="0" stroke-linecap="butt" stroke-miterlimit="10"></path>
<text dominant-baseline="central" text-anchor="start" style="font-size:12px;font-family:Microsoft YaHei;" x="30" y="7" transform="translate(60.4727 4)" fill="#ccc">Pipe_Pres</text>
<path d="M0 7L25 7" transform="translate(156.1465 4)" fill="#000" stroke="#ccc" stroke-width="2" stroke-linecap="butt" stroke-miterlimit="10"></path>
<path d="M18.1 7A5.6 5.6 0 1 1 18.1 6.9994" transform="translate(156.1465 4)" fill="#ccc" stroke="#ccc" stroke-width="0" stroke-linecap="butt" stroke-miterlimit="10"></path>
<text dominant-baseline="central" text-anchor="start" style="font-size:12px;font-family:Microsoft YaHei;" x="30" y="7" transform="translate(156.1465 4)" fill="#ccc">Ambient_Pres</text>
<path d="M0 7L25 7" transform="translate(276.0313 4)" fill="#000" stroke="#ccc" stroke-width="2" stroke-linecap="butt" stroke-miterlimit="10"></path>
<path d="M12.5 1.4L18.1 12.6L6.9 12.6Z" transform="translate(276.0313 4)" fill="#ccc" stroke="#ccc" stroke-width="0" stroke-linecap="butt" stroke-miterlimit="10"></path>
<text dominant-baseline="central" text-anchor="start" style="font-size:12px;font-family:Microsoft YaHei;" x="30" y="7" transform="translate(276.0313 4)" fill="#ccc">Pipe_Temp</text>
<path d="M0 7L25 7" transform="translate(380.0137 4)" fill="#000" stroke="#ccc" stroke-width="2" stroke-linecap="butt" stroke-miterlimit="10"></path>
<path d="M18.1 7A5.6 5.6 0 1 1 18.1 6.9994" transform="translate(380.0137 4)" fill="#ccc" stroke="#ccc" stroke-width="0" stroke-linecap="butt" stroke-miterlimit="10"></path>
<text dominant-baseline="central" text-anchor="start" style="font-size:12px;font-family:Microsoft YaHei;" x="30" y="7" transform="translate(380.0137 4)" fill="#ccc">Chip_Temp</text>
<path d="M0 7L25 7" transform="translate(485.2617 4)" fill="#000" stroke="#f7f494" stroke-width="2" stroke-linecap="butt" stroke-miterlimit="10"></path>
<path d="M18.1 7A5.6 5.6 0 1 1 18.1 6.9994" transform="translate(485.2617 4)" fill="#f7f494"></path>
<text dominant-baseline="central" text-anchor="start" style="font-size:12px;font-family:Microsoft YaHei;" x="30" y="7" transform="translate(485.2617 4)" fill="#B9B8CE">Set_nPressure</text>
<path d="M0 7L25 7" transform="translate(605.8672 4)" fill="#000" stroke="#f7f494" stroke-width="2" stroke-linecap="butt" stroke-miterlimit="10"></path>
<path d="M12.5 1.4L18.1 12.6L6.9 12.6Z" transform="translate(605.8672 4)" fill="#f7f494"></path>
<text dominant-baseline="central" text-anchor="start" style="font-size:12px;font-family:Microsoft YaHei;" x="30" y="7" transform="translate(605.8672 4)" fill="#B9B8CE">Current_nPressure</text>
<path d="M0 0l560 0l0 30l-560 0Z" transform="matrix(1,0,0,-1,82.8,592.5)" fill="none"></path>
<path d="M0 0l560 0l0 30l-560 0Z" transform="matrix(1,0,0,-1,82.8,592.5)" fill="rgb(135,163,206)" fill-opacity="0.2"></path>
<path d="M3.5 0.5L556.5 0.5A3 3 0 0 1 559.5 3.5L559.5 26.5A3 3 0 0 1 556.5 29.5L3.5 29.5A3 3 0 0 1 0.5 26.5L0.5 3.5A3 3 0 0 1 3.5 0.5" transform="matrix(1,0,0,-1,82.8,592.5)" fill="rgb(0,0,0)" fill-opacity="0" stroke="#71708A"></path>
<path d="M0 29.5L560 29.5L560 34.5A2 2 0 0 1 558 36.5L2 36.5A2 2 0 0 1 0 34.5L0 29.5" transform="matrix(1,0,0,-1,82.8,592.5)" fill="#B0B6C3" fill-opacity="0.3"></path>
<path d="M-2.2408 -1.6796C-1.8674 -1.6796 -1.6817 -1.4939 -1.6817 -1.1204L-1.6817 1.1204C-1.6817 1.4939 -1.8674 1.6796 -2.2408 1.6796C-2.6143 1.6796 -2.8 1.4939 -2.8 1.1204L-2.8 -1.1204C-2.8 -1.4939 -2.6143 -1.6796 -2.2408 -1.6796ZM0 -1.6796C0.3735 -1.6796 0.5592 -1.4939 0.5592 -1.1204L0.5592 1.1204C0.5592 1.4939 0.3735 1.6796 0 1.6796C-0.3735 1.6796 -0.5592 1.4939 -0.5592 1.1204L-0.5592 -1.1204C-0.5592 -1.4939 -0.3735 -1.6796 0 -1.6796ZM2.2408 -1.6796C2.6143 -1.6796 2.8 -1.4939 2.8 -1.1204L2.8 1.1204C2.8 1.4939 2.6143 1.6796 2.2408 1.6796C1.8674 1.6796 1.6817 1.4939 1.6817 1.1204L1.6817 -1.1204C1.6796 -1.4939 1.8674 -1.6796 2.2408 -1.6796Z" transform="matrix(1,0,0,-1,362.8,559.5)" fill="#fff"></path>
<path d="M0 1.628L0 2M0 0L0 0.375M-0.1 0.375L0.1 0.375A0.1 0.1 0 0 1 0.2 0.475L0.2 1.525A0.1 0.1 0 0 1 0.1 1.625L-0.1 1.625A0.1 0.1 0 0 1 -0.2 1.525L-0.2 0.475A0.1 0.1 0 0 1 -0.1 0.375Z" transform="matrix(15,0,0,-15,83.8,592.5)" fill="#353450" stroke="#C5CBE3" stroke-width="0.06666666666666667"></path>
<path d="M0 1.628L0 2M0 0L0 0.375M-0.1 0.375L0.1 0.375A0.1 0.1 0 0 1 0.2 0.475L0.2 1.525A0.1 0.1 0 0 1 0.1 1.625L-0.1 1.625A0.1 0.1 0 0 1 -0.2 1.525L-0.2 0.475A0.1 0.1 0 0 1 -0.1 0.375Z" transform="matrix(15,0,0,-15,641.8,592.5)" fill="#353450" stroke="#C5CBE3" stroke-width="0.06666666666666667"></path>
<defs >
<clipPath id="zr0-c0">
<path d="M79 59l562 0l0 472l-562 0Z" fill="#000"></path>
</clipPath>
<clipPath id="zr0-c1">
<path d="M79 59l562 0l0 472l-562 0Z" fill="#000"></path>
</clipPath>
<clipPath id="zr0-c2">
<path d="M0 0l0 0l0 30l0 0Z" transform="matrix(1,0,0,-1,82.8,592.5)" fill="#000"></path>
</clipPath>
<clipPath id="zr0-c3">
<path d="M0 0l560 0l0 30l-560 0Z" transform="matrix(1,0,0,-1,82.8,592.5)" fill="#000"></path>
</clipPath>
<clipPath id="zr0-c4">
<path d="M560 0l0 0l0 30l0 0Z" transform="matrix(1,0,0,-1,82.8,592.5)" fill="#000"></path>
</clipPath>
</defs>
</svg>