<svg width="800" height="600" xmlns="http://www.w3.org/2000/svg" xmlns:xlink="http://www.w3.org/1999/xlink" version="1.1" baseProfile="full" viewBox="0 0 800 600">
<rect width="800" height="600" x="0" y="0" id="0" fill="rgb(40, 44, 52)" fill-opacity="1"></rect>
<path d="M80 530.5L640 530.5" fill="none" stroke="#484753"></path>
<path d="M80 451.5L640 451.5" fill="none" stroke="#484753"></path>
<path d="M80 373.5L640 373.5" fill="none" stroke="#484753"></path>
<path d="M80 295.5L640 295.5" fill="none" stroke="#484753"></path>
<path d="M80 216.5L640 216.5" fill="none" stroke="#484753"></path>
<path d="M80 138.5L640 138.5" fill="none" stroke="#484753"></path>
<path d="M80 60.5L640 60.5" fill="none" stroke="#484753"></path>
<path d="M80 530.5L640 530.5" fill="none" stroke="#484753"></path>
<path d="M80 436.5L640 436.5" fill="none" stroke="#484753"></path>
<path d="M80 342.5L640 342.5" fill="none" stroke="#484753"></path>
<path d="M80 248.5L640 248.5" fill="none" stroke="#484753"></path>
<path d="M80 154.5L640 154.5" fill="none" stroke="#484753"></path>
<path d="M80 60.5L640 60.5" fill="none" stroke="#484753"></path>
<path d="M80 530.5L640 530.5" fill="none" stroke="#484753"></path>
<path d="M80 463.5L640 463.5" fill="none" stroke="#484753"></path>
<path d="M80 395.5L640 395.5" fill="none" stroke="#484753"></path>
<path d="M80 328.5L640 328.5" fill="none" stroke="#484753"></path>
<path d="M80 261.5L640 261.5" fill="none" stroke="#484753"></path>
<path d="M80 194.5L640 194.5" fill="none" stroke="#484753"></path>
<path d="M80 127.5L640 127.5" fill="none" stroke="#484753"></path>
<path d="M80 60.5L640 60.5" fill="none" stroke="#484753"></path>
<path d="M80.5 530L80.5 60" fill="none" stroke="#ACDFED" stroke-linecap="round"></path>
<text dominant-baseline="central" text-anchor="middle" style="font-size:12px;font-family:Microsoft YaHei;" y="-6" transform="translate(80 45)" fill="#B9B8CE">压力</text>
<path d="M640.5 530L640.5 60" fill="none" stroke="#FFAB91" stroke-linecap="round"></path>
<text dominant-baseline="central" text-anchor="middle" style="font-size:12px;font-family:Microsoft YaHei;" y="-6" transform="translate(640 45)" fill="#B9B8CE">温度</text>
<path d="M720.5 530L720.5 60" fill="none" stroke="#f7f494" stroke-linecap="round"></path>
<text dominant-baseline="central" text-anchor="middle" style="font-size:12px;font-family:Microsoft YaHei;" y="-6" transform="translate(720 45)" fill="#B9B8CE">负压</text>
<path d="M80 530.5L640 530.5" fill="none" stroke="#B9B8CE" stroke-linecap="round"></path>
<path d="M82.5 530L82.5 535" fill="none" stroke="#B9B8CE"></path>
<path d="M147.5 530L147.5 535" fill="none" stroke="#B9B8CE"></path>
<path d="M212.5 530L212.5 535" fill="none" stroke="#B9B8CE"></path>
<path d="M276.5 530L276.5 535" fill="none" stroke="#B9B8CE"></path>
<path d="M341.5 530L341.5 535" fill="none" stroke="#B9B8CE"></path>
<path d="M406.5 530L406.5 535" fill="none" stroke="#B9B8CE"></path>
<path d="M471.5 530L471.5 535" fill="none" stroke="#B9B8CE"></path>
<path d="M536.5 530L536.5 535" fill="none" stroke="#B9B8CE"></path>
<path d="M600.5 530L600.5 535" fill="none" stroke="#B9B8CE"></path>
<text dominant-baseline="central" text-anchor="end" style="font-size:12px;font-family:Microsoft YaHei;" xml:space="preserve" transform="translate(72 530)" fill="#B9B8CE">0 hPa</text>
<text dominant-baseline="central" text-anchor="end" style="font-size:12px;font-family:Microsoft YaHei;" xml:space="preserve" transform="translate(72 451.6667)" fill="#B9B8CE">200 hPa</text>
<text dominant-baseline="central" text-anchor="end" style="font-size:12px;font-family:Microsoft YaHei;" xml:space="preserve" transform="translate(72 373.3333)" fill="#B9B8CE">400 hPa</text>
<text dominant-baseline="central" text-anchor="end" style="font-size:12px;font-family:Microsoft YaHei;" xml:space="preserve" transform="translate(72 295)" fill="#B9B8CE">600 hPa</text>
<text dominant-baseline="central" text-anchor="end" style="font-size:12px;font-family:Microsoft YaHei;" xml:space="preserve" transform="translate(72 216.6667)" fill="#B9B8CE">800 hPa</text>
<text dominant-baseline="central" text-anchor="end" style="font-size:12px;font-family:Microsoft YaHei;" xml:space="preserve" transform="translate(72 138.3333)" fill="#B9B8CE">1,000 hPa</text>
<text dominant-baseline="central" text-anchor="end" style="font-size:12px;font-family:Microsoft YaHei;" xml:space="preserve" transform="translate(72 60)" fill="#B9B8CE">1,200 hPa</text>
<text dominant-baseline="central" text-anchor="start" style="font-size:12px;font-family:Microsoft YaHei;" xml:space="preserve" transform="translate(648 530)" fill="#B9B8CE">0 °C</text>
<text dominant-baseline="central" text-anchor="start" style="font-size:12px;font-family:Microsoft YaHei;" xml:space="preserve" transform="translate(648 436)" fill="#B9B8CE">5 °C</text>
<text dominant-baseline="central" text-anchor="start" style="font-size:12px;font-family:Microsoft YaHei;" xml:space="preserve" transform="translate(648 342)" fill="#B9B8CE">10 °C</text>
<text dominant-baseline="central" text-anchor="start" style="font-size:12px;font-family:Microsoft YaHei;" xml:space="preserve" transform="translate(648 248)" fill="#B9B8CE">15 °C</text>
<text dominant-baseline="central" text-anchor="start" style="font-size:12px;font-family:Microsoft YaHei;" xml:space="preserve" transform="translate(648 154)" fill="#B9B8CE">20 °C</text>
<text dominant-baseline="central" text-anchor="start" style="font-size:12px;font-family:Microsoft YaHei;" xml:space="preserve" transform="translate(648 60)" fill="#B9B8CE">25 °C</text>
<text dominant-baseline="central" text-anchor="start" style="font-size:12px;font-family:Microsoft YaHei;" xml:space="preserve" transform="translate(728 530)" fill="#B9B8CE">0 hPa</text>
<text dominant-baseline="central" text-anchor="start" style="font-size:12px;font-family:Microsoft YaHei;" xml:space="preserve" transform="translate(728 462.8571)" fill="#B9B8CE">50 hPa</text>
<text dominant-baseline="central" text-anchor="start" style="font-size:12px;font-family:Microsoft YaHei;" xml:space="preserve" transform="translate(728 395.7143)" fill="#B9B8CE">100 hPa</text>
<text dominant-baseline="central" text-anchor="start" style="font-size:12px;font-family:Microsoft YaHei;" xml:space="preserve" transform="translate(728 328.5714)" fill="#B9B8CE">150 hPa</text>
<text dominant-baseline="central" text-anchor="start" style="font-size:12px;font-family:Microsoft YaHei;" xml:space="preserve" transform="translate(728 261.4286)" fill="#B9B8CE">200 hPa</text>
<text dominant-baseline="central" text-anchor="start" style="font-size:12px;font-family:Microsoft YaHei;" xml:space="preserve" transform="translate(728 194.2857)" fill="#B9B8CE">250 hPa</text>
<text dominant-baseline="central" text-anchor="start" style="font-size:12px;font-family:Microsoft YaHei;" xml:space="preserve" transform="translate(728 127.1429)" fill="#B9B8CE">300 hPa</text>
<text dominant-baseline="central" text-anchor="start" style="font-size:12px;font-family:Microsoft YaHei;" xml:space="preserve" transform="translate(728 60)" fill="#B9B8CE">350 hPa</text>
<text dominant-baseline="central" text-anchor="middle" style="font-size:12px;font-family:Microsoft YaHei;" y="6" transform="translate(82.314 538)" fill="#B9B8CE">17:57:01</text>
<text dominant-baseline="central" text-anchor="middle" style="font-size:12px;font-family:Microsoft YaHei;" y="6" transform="translate(147.1074 538)" fill="#B9B8CE">17:57:15</text>
<text dominant-baseline="central" text-anchor="middle" style="font-size:12px;font-family:Microsoft YaHei;" y="6" transform="translate(211.9008 538)" fill="#B9B8CE">17:57:29</text>
<text dominant-baseline="central" text-anchor="middle" style="font-size:12px;font-family:Microsoft YaHei;" y="6" transform="translate(276.6942 538)" fill="#B9B8CE">17:57:43</text>
<text dominant-baseline="central" text-anchor="middle" style="font-size:12px;font-family:Microsoft YaHei;" y="6" transform="translate(341.4876 538)" fill="#B9B8CE">17:57:57</text>
<text dominant-baseline="central" text-anchor="middle" style="font-size:12px;font-family:Microsoft YaHei;" y="6" transform="translate(406.281 538)" fill="#B9B8CE">17:58:11</text>
<text dominant-baseline="central" text-anchor="middle" style="font-size:12px;font-family:Microsoft YaHei;" y="6" transform="translate(471.0744 538)" fill="#B9B8CE">17:58:25</text>
<text dominant-baseline="central" text-anchor="middle" style="font-size:12px;font-family:Microsoft YaHei;" y="6" transform="translate(535.8678 538)" fill="#B9B8CE">17:58:39</text>
<text dominant-baseline="central" text-anchor="middle" style="font-size:12px;font-family:Microsoft YaHei;" y="6" transform="translate(600.6612 538)" fill="#B9B8CE">17:58:53</text>
<g clip-path="url(#zr0-c0)">
<path d="M82.3 258.5L86.9 259.7L91.6 258.3L96.2 259L100.8 260.5L105.5 258.5L110.1 260.1L114.7 260L119.3 259.2L124 260.8L128.6 260.8L133.2 261.7L137.9 261.3L142.5 262.2L147.1 260.6L151.7 261.9L156.4 262.6L161 261.4L165.6 261.9L170.2 263.2L174.9 262.7L179.5 263L184.1 262.1L188.8 262.8L193.4 263.5L198 262.3L202.6 262.9L207.3 264.2L211.9 263.6L216.5 263.5L221.2 264.5L225.8 262.6L230.4 264.5L235 263.7L239.7 263.5L244.3 263.8L248.9 263.4L253.6 264.1L258.2 264.1L262.8 265.5L267.4 264.7L272.1 264.7L276.7 265L281.3 264.5L286 265.9L290.6 264L295.2 265.3L299.8 265.8L304.5 265.4L309.1 265.4L313.7 266.1L318.3 264.9L323 266.6L327.6 265L332.2 265.8L336.9 265.8L341.5 265L346.1 266.1L350.7 266.7L355.4 265.6L360 265.9L364.6 267.3L369.3 265.2L373.9 266.6L378.5 266.2L383.1 266.3L387.8 266.4L392.4 267.7L397 267L401.7 267.3L406.3 267L410.9 266.5L415.5 268.1L420.2 266.1L424.8 267.3L429.4 267.8L434 265.9L438.7 262.8L443.3 260L447.9 257.4L452.6 252.3L457.2 250L461.8 247.6L466.4 245.3L471.1 240.9L475.7 238.8L480.3 236.6L485 234.4L489.6 230.3L494.2 228.2L498.8 226.2L503.5 224.2L508.1 220.3L512.7 218.4L517.4 216.4L522 214.6L526.6 210.8L531.2 209L535.9 207.2L540.5 205.5L545.1 202L549.8 200.3L554.4 198.6L559 197L563.6 193.8L568.3 192.1L572.9 190.6L577.5 189.1L582.1 186L586.8 184.6L591.4 183.1L596 181.7L600.7 179L605.3 177.6L609.9 176.3L614.5 175L619.2 172.4L623.8 171.2L628.4 170L633.1 168.8L637.7 166.5" fill="none" stroke="#ACDFED" stroke-width="2" stroke-linejoin="bevel"></path>
</g>
<g clip-path="url(#zr0-c1)">
<path d="M82.3 133.8L86.9 133.8L91.6 133.8L96.2 133.8L100.8 133.8L105.5 133.8L110.1 133.8L114.7 133.8L119.3 133.8L124 133.8L128.6 133.8L133.2 133.8L137.9 133.8L142.5 133.8L147.1 133.8L151.7 133.8L156.4 133.8L161 133.8L165.6 133.8L170.2 133.8L174.9 133.8L179.5 133.8L184.1 133.8L188.8 133.8L193.4 133.7L198 133.7L202.6 133.7L207.3 133.7L211.9 133.8L216.5 133.8L221.2 133.8L225.8 133.8L230.4 133.8L235 133.8L239.7 133.8L244.3 133.8L248.9 133.8L253.6 133.8L258.2 133.8L262.8 133.8L267.4 133.8L272.1 133.8L276.7 133.8L281.3 133.8L286 133.8L290.6 133.8L295.2 133.8L299.8 133.8L304.5 133.8L309.1 133.8L313.7 133.8L318.3 133.8L323 133.8L327.6 133.8L332.2 133.8L336.9 133.8L341.5 133.8L346.1 133.8L350.7 133.8L355.4 133.8L360 133.8L364.6 133.8L369.3 133.8L373.9 133.8L378.5 133.7L383.1 133.7L387.8 133.7L392.4 133.7L397 133.8L401.7 133.8L406.3 133.8L410.9 133.8L415.5 133.8L420.2 133.8L424.8 133.8L429.4 133.8L434 133.8L438.7 133.8L443.3 133.8L447.9 133.8L452.6 133.7L457.2 133.7L461.8 133.7L466.4 133.7L471.1 133.7L475.7 133.7L480.3 133.7L485 133.7L489.6 133.7L494.2 133.7L498.8 133.7L503.5 133.7L508.1 133.7L512.7 133.7L517.4 133.7L522 133.7L526.6 133.7L531.2 133.7L535.9 133.7L540.5 133.7L545.1 133.7L549.8 133.7L554.4 133.7L559 133.7L563.6 133.7L568.3 133.7L572.9 133.7L577.5 133.7L582.1 133.7L586.8 133.7L591.4 133.7L596 133.7L600.7 133.8L605.3 133.8L609.9 133.7L614.5 133.7L619.2 133.7L623.8 133.7L628.4 133.7L633.1 133.7L637.7 133.7" fill="none" stroke="#ACDFED" stroke-width="2" stroke-linejoin="bevel"></path>
</g>
<g clip-path="url(#zr0-c2)">
<path d="M82.3 71.3L86.9 71.3L91.6 71.3L96.2 71.3L100.8 73.2L105.5 73.2L110.1 71.3L114.7 71.3L119.3 71.3L124 71.3L128.6 71.3L133.2 73.2L137.9 71.3L142.5 73.2L147.1 71.3L151.7 71.3L156.4 71.3L161 71.3L165.6 71.3L170.2 73.2L174.9 71.3L179.5 71.3L184.1 71.3L188.8 71.3L193.4 71.3L198 71.3L202.6 71.3L207.3 71.3L211.9 71.3L216.5 71.3L221.2 71.3L225.8 71.3L230.4 71.3L235 71.3L239.7 71.3L244.3 71.3L248.9 71.3L253.6 71.3L258.2 71.3L262.8 71.3L267.4 71.3L272.1 71.3L276.7 71.3L281.3 71.3L286 71.3L290.6 71.3L295.2 71.3L299.8 71.3L304.5 71.3L309.1 71.3L313.7 71.3L318.3 71.3L323 71.3L327.6 71.3L332.2 71.3L336.9 71.3L341.5 71.3L346.1 71.3L350.7 71.3L355.4 71.3L360 71.3L364.6 71.3L369.3 71.3L373.9 71.3L378.5 71.3L383.1 71.3L387.8 71.3L392.4 71.3L397 71.3L401.7 71.3L406.3 71.3L410.9 71.3L415.5 71.3L420.2 71.3L424.8 71.3L429.4 71.3L434 71.3L438.7 71.3L443.3 71.3L447.9 71.3L452.6 71.3L457.2 71.3L461.8 71.3L466.4 71.3L471.1 71.3L475.7 71.3L480.3 71.3L485 71.3L489.6 71.3L494.2 71.3L498.8 71.3L503.5 71.3L508.1 71.3L512.7 71.3L517.4 71.3L522 71.3L526.6 71.3L531.2 71.3L535.9 71.3L540.5 71.3L545.1 71.3L549.8 71.3L554.4 71.3L559 71.3L563.6 71.3L568.3 71.3L572.9 71.3L577.5 71.3L582.1 71.3L586.8 71.3L591.4 71.3L596 71.3L600.7 71.3L605.3 71.3L609.9 71.3L614.5 71.3L619.2 71.3L623.8 71.3L628.4 71.3L633.1 71.3L637.7 71.3" fill="none" stroke="#FFAB91" stroke-width="2" stroke-linejoin="bevel"></path>
</g>
<g clip-path="url(#zr0-c3)">
<path d="M82.3 104.4L86.9 98.1L91.6 103L96.2 100.7L100.8 100.4L105.5 102.3L110.1 96.8L114.7 97.2L119.3 93L124 94.2L128.6 94.5L133.2 91.2L137.9 97.2L142.5 89.7L147.1 95.2L151.7 90.6L156.4 90.6L161 92.5L165.6 90.8L170.2 86.1L174.9 93.2L179.5 86.7L184.1 90.1L188.8 87.7L193.4 87.3L198 89.1L202.6 87.3L207.3 82.7L211.9 89.8L216.5 85.2L221.2 81.9L225.8 88.1L230.4 83.8L235 84.6L239.7 85.2L244.3 84.3L248.9 79.7L253.6 83L258.2 83.4L262.8 78.4L267.4 85.2L272.1 81.1L276.7 80.1L281.3 82L286 81.4L290.6 83.6L295.2 79.1L299.8 77.3L304.5 81.1L309.1 78.7L313.7 76.1L318.3 80.4L323 78.4L327.6 80.1L332.2 77.2L336.9 77.3L341.5 73.8L346.1 76.2L350.7 74.1L355.4 77.9L360 77.2L364.6 72.2L369.3 79.5L373.9 74.5L378.5 73.6L383.1 75.6L387.8 75.2L392.4 70.9L397 78L401.7 72.2L406.3 73.3L410.9 74.8L415.5 74.2L420.2 76.2L424.8 72.1L429.4 70.5L434 73.3L438.7 87.5L443.3 97.1L447.9 106.2L452.6 114.9L457.2 131.6L461.8 139.5L466.4 147.3L471.1 154.9L475.7 170L480.3 177.4L485 184.6L489.6 191.9L494.2 206L498.8 213L503.5 219.8L508.1 226.6L512.7 239.9L517.4 246.5L522 253L526.6 259.3L531.2 271.9L535.9 277.9L540.5 284L545.1 290L549.8 301.7L554.4 307.5L559 313.1L563.6 318.8L568.3 329.8L572.9 335.2L577.5 340.4L582.1 345.5L586.8 355.7L591.4 360.7L596 365.5L600.7 370.2L605.3 379.6L609.9 384.2L614.5 388.6L619.2 393L623.8 401.5L628.4 405.7L633.1 409.8L637.7 413.8" fill="none" stroke="#f7f494" stroke-width="2" stroke-linejoin="bevel"></path>
</g>
<path d="M0 -1L1 1L-1 1Z" transform="matrix(5,0,0,5,82.314,258.4575)" fill="#ACDFED"></path>
<path d="M0 -1L1 1L-1 1Z" transform="matrix(5,0,0,5,147.1074,260.5725)" fill="#ACDFED"></path>
<path d="M0 -1L1 1L-1 1Z" transform="matrix(5,0,0,5,211.9008,263.6275)" fill="#ACDFED"></path>
<path d="M0 -1L1 1L-1 1Z" transform="matrix(5,0,0,5,276.6942,264.9592)" fill="#ACDFED"></path>
<path d="M0 -1L1 1L-1 1Z" transform="matrix(5,0,0,5,341.4876,264.9983)" fill="#ACDFED"></path>
<path d="M0 -1L1 1L-1 1Z" transform="matrix(5,0,0,5,406.281,266.9567)" fill="#ACDFED"></path>
<path d="M0 -1L1 1L-1 1Z" transform="matrix(5,0,0,5,471.0744,240.9108)" fill="#ACDFED"></path>
<path d="M0 -1L1 1L-1 1Z" transform="matrix(5,0,0,5,535.8678,207.2275)" fill="#ACDFED"></path>
<path d="M0 -1L1 1L-1 1Z" transform="matrix(5,0,0,5,600.6611,178.9883)" fill="#ACDFED"></path>
<path d="M1 0A1 1 0 1 1 1 -0.0001" transform="matrix(0,0,0,0,82.314,133.7508)" fill="#ACDFED" fill-opacity="0"></path>
<path d="M1 0A1 1 0 1 1 1 -0.0001" transform="matrix(5,0,0,5,82.314,133.7508)" fill="#ACDFED"></path>
<path d="M1 0A1 1 0 1 1 1 -0.0001" transform="matrix(5,0,0,5,147.1074,133.7508)" fill="#ACDFED"></path>
<path d="M1 0A1 1 0 1 1 1 -0.0001" transform="matrix(5,0,0,5,211.9008,133.7508)" fill="#ACDFED"></path>
<path d="M1 0A1 1 0 1 1 1 -0.0001" transform="matrix(5,0,0,5,276.6942,133.7508)" fill="#ACDFED"></path>
<path d="M1 0A1 1 0 1 1 1 -0.0001" transform="matrix(5,0,0,5,341.4876,133.7508)" fill="#ACDFED"></path>
<path d="M1 0A1 1 0 1 1 1 -0.0001" transform="matrix(5,0,0,5,406.281,133.7508)" fill="#ACDFED"></path>
<path d="M1 0A1 1 0 1 1 1 -0.0001" transform="matrix(5,0,0,5,471.0744,133.7117)" fill="#ACDFED"></path>
<path d="M1 0A1 1 0 1 1 1 -0.0001" transform="matrix(5,0,0,5,535.8678,133.7117)" fill="#ACDFED"></path>
<path d="M1 0A1 1 0 1 1 1 -0.0001" transform="matrix(5,0,0,5,600.6611,133.7508)" fill="#ACDFED"></path>
<path d="M0 -1L1 1L-1 1Z" transform="matrix(0,0,0,0,82.314,73.16)" fill="#FFAB91" fill-opacity="0"></path>
<path d="M0 -1L1 1L-1 1Z" transform="matrix(5,0,0,5,82.314,71.28)" fill="#FFAB91"></path>
<path d="M0 -1L1 1L-1 1Z" transform="matrix(5,0,0,5,147.1074,71.28)" fill="#FFAB91"></path>
<path d="M0 -1L1 1L-1 1Z" transform="matrix(5,0,0,5,211.9008,71.28)" fill="#FFAB91"></path>
<path d="M0 -1L1 1L-1 1Z" transform="matrix(5,0,0,5,276.6942,71.28)" fill="#FFAB91"></path>
<path d="M0 -1L1 1L-1 1Z" transform="matrix(5,0,0,5,341.4876,71.28)" fill="#FFAB91"></path>
<path d="M0 -1L1 1L-1 1Z" transform="matrix(5,0,0,5,406.281,71.28)" fill="#FFAB91"></path>
<path d="M0 -1L1 1L-1 1Z" transform="matrix(5,0,0,5,471.0744,71.28)" fill="#FFAB91"></path>
<path d="M0 -1L1 1L-1 1Z" transform="matrix(5,0,0,5,535.8678,71.28)" fill="#FFAB91"></path>
<path d="M0 -1L1 1L-1 1Z" transform="matrix(5,0,0,5,600.6611,71.28)" fill="#FFAB91"></path>
<path d="M0 -1L1 1L-1 1Z" transform="matrix(0,0,0,0,82.314,528.7914)" fill="#f7f494" fill-opacity="0"></path>
<path d="M0 -1L1 1L-1 1Z" transform="matrix(5,0,0,5,82.314,104.4486)" fill="#f7f494"></path>
<path d="M0 -1L1 1L-1 1Z" transform="matrix(5,0,0,5,147.1074,95.1829)" fill="#f7f494"></path>
<path d="M0 -1L1 1L-1 1Z" transform="matrix(5,0,0,5,211.9008,89.8114)" fill="#f7f494"></path>
<path d="M0 -1L1 1L-1 1Z" transform="matrix(5,0,0,5,276.6942,80.1429)" fill="#f7f494"></path>
<path d="M0 -1L1 1L-1 1Z" transform="matrix(5,0,0,5,341.4876,73.8314)" fill="#f7f494"></path>
<path d="M0 -1L1 1L-1 1Z" transform="matrix(5,0,0,5,406.281,73.2943)" fill="#f7f494"></path>
<path d="M0 -1L1 1L-1 1Z" transform="matrix(5,0,0,5,471.0744,154.94)" fill="#f7f494"></path>
<path d="M0 -1L1 1L-1 1Z" transform="matrix(5,0,0,5,535.8678,277.9457)" fill="#f7f494"></path>
<path d="M0 -1L1 1L-1 1Z" transform="matrix(5,0,0,5,600.6611,370.2)" fill="#f7f494"></path>
<path d="M0 0l560 0l0 30l-560 0Z" transform="matrix(1,0,0,-1,82.8,592.5)" fill="rgb(47,69,84)" fill-opacity="0"></path>
<g clip-path="url(#zr0-c4)">
<polygon points="560 0 0 0 0 7.4 4.7 7.2 9.3 7.4 14 7.3 18.7 7 23.3 7.4 28 7.1 32.7 7.1 37.3 7.3 42 7 46.7 7 51.3 6.8 56 6.9 60.7 6.7 65.3 7 70 6.8 74.7 6.6 79.3 6.9 84 6.8 88.7 6.5 93.3 6.6 98 6.6 102.7 6.7 107.3 6.6 112 6.5 116.7 6.7 121.3 6.6 126 6.3 130.7 6.4 135.3 6.5 140 6.3 144.7 6.6 149.3 6.3 154 6.4 158.7 6.5 163.3 6.4 168 6.5 172.7 6.3 177.3 6.4 182 6.1 186.7 6.2 191.3 6.2 196 6.2 200.7 6.3 205.3 6 210 6.4 214.7 6.1 219.3 6 224 6.1 228.7 6.1 233.3 6 238 6.2 242.7 5.9 247.3 6.2 252 6 256.7 6 261.3 6.2 266 6 270.7 5.9 275.3 6.1 280 6 284.7 5.8 289.3 6.2 294 5.9 298.7 6 303.3 6 308 5.9 312.7 5.7 317.3 5.8 322 5.8 326.7 5.8 331.3 5.9 336 5.6 340.7 6 345.3 5.8 350 5.7 354.7 6 359.3 6.6 364 7.1 368.7 7.6 373.3 8.5 378 9 382.7 9.4 387.3 9.8 392 10.6 396.7 11 401.3 11.4 406 11.8 410.7 12.6 415.3 13 420 13.4 424.7 13.7 429.3 14.4 434 14.8 438.7 15.2 443.3 15.5 448 16.2 452.7 16.5 457.3 16.9 462 17.2 466.7 17.8 471.3 18.1 476 18.4 480.7 18.7 485.3 19.3 490 19.6 494.7 19.9 499.3 20.2 504 20.8 508.7 21 513.3 21.3 518 21.6 522.7 22.1 527.3 22.3 532 22.6 536.7 22.8 541.3 23.3 546 23.5 550.7 23.7 555.3 23.9 560 24.4" transform="matrix(1,0,0,-1,82.8,592.5)" fill="#71708A" fill-opacity="0.2"></polygon>
</g>
<g clip-path="url(#zr0-c5)">
<polygon points="560 0 0 0 0 7.4 4.7 7.2 9.3 7.4 14 7.3 18.7 7 23.3 7.4 28 7.1 32.7 7.1 37.3 7.3 42 7 46.7 7 51.3 6.8 56 6.9 60.7 6.7 65.3 7 70 6.8 74.7 6.6 79.3 6.9 84 6.8 88.7 6.5 93.3 6.6 98 6.6 102.7 6.7 107.3 6.6 112 6.5 116.7 6.7 121.3 6.6 126 6.3 130.7 6.4 135.3 6.5 140 6.3 144.7 6.6 149.3 6.3 154 6.4 158.7 6.5 163.3 6.4 168 6.5 172.7 6.3 177.3 6.4 182 6.1 186.7 6.2 191.3 6.2 196 6.2 200.7 6.3 205.3 6 210 6.4 214.7 6.1 219.3 6 224 6.1 228.7 6.1 233.3 6 238 6.2 242.7 5.9 247.3 6.2 252 6 256.7 6 261.3 6.2 266 6 270.7 5.9 275.3 6.1 280 6 284.7 5.8 289.3 6.2 294 5.9 298.7 6 303.3 6 308 5.9 312.7 5.7 317.3 5.8 322 5.8 326.7 5.8 331.3 5.9 336 5.6 340.7 6 345.3 5.8 350 5.7 354.7 6 359.3 6.6 364 7.1 368.7 7.6 373.3 8.5 378 9 382.7 9.4 387.3 9.8 392 10.6 396.7 11 401.3 11.4 406 11.8 410.7 12.6 415.3 13 420 13.4 424.7 13.7 429.3 14.4 434 14.8 438.7 15.2 443.3 15.5 448 16.2 452.7 16.5 457.3 16.9 462 17.2 466.7 17.8 471.3 18.1 476 18.4 480.7 18.7 485.3 19.3 490 19.6 494.7 19.9 499.3 20.2 504 20.8 508.7 21 513.3 21.3 518 21.6 522.7 22.1 527.3 22.3 532 22.6 536.7 22.8 541.3 23.3 546 23.5 550.7 23.7 555.3 23.9 560 24.4" transform="matrix(1,0,0,-1,82.8,592.5)" fill="#87A3CE" fill-opacity="0.2"></polygon>
</g>
<g clip-path="url(#zr0-c6)">
<polygon points="560 0 0 0 0 7.4 4.7 7.2 9.3 7.4 14 7.3 18.7 7 23.3 7.4 28 7.1 32.7 7.1 37.3 7.3 42 7 46.7 7 51.3 6.8 56 6.9 60.7 6.7 65.3 7 70 6.8 74.7 6.6 79.3 6.9 84 6.8 88.7 6.5 93.3 6.6 98 6.6 102.7 6.7 107.3 6.6 112 6.5 116.7 6.7 121.3 6.6 126 6.3 130.7 6.4 135.3 6.5 140 6.3 144.7 6.6 149.3 6.3 154 6.4 158.7 6.5 163.3 6.4 168 6.5 172.7 6.3 177.3 6.4 182 6.1 186.7 6.2 191.3 6.2 196 6.2 200.7 6.3 205.3 6 210 6.4 214.7 6.1 219.3 6 224 6.1 228.7 6.1 233.3 6 238 6.2 242.7 5.9 247.3 6.2 252 6 256.7 6 261.3 6.2 266 6 270.7 5.9 275.3 6.1 280 6 284.7 5.8 289.3 6.2 294 5.9 298.7 6 303.3 6 308 5.9 312.7 5.7 317.3 5.8 322 5.8 326.7 5.8 331.3 5.9 336 5.6 340.7 6 345.3 5.8 350 5.7 354.7 6 359.3 6.6 364 7.1 368.7 7.6 373.3 8.5 378 9 382.7 9.4 387.3 9.8 392 10.6 396.7 11 401.3 11.4 406 11.8 410.7 12.6 415.3 13 420 13.4 424.7 13.7 429.3 14.4 434 14.8 438.7 15.2 443.3 15.5 448 16.2 452.7 16.5 457.3 16.9 462 17.2 466.7 17.8 471.3 18.1 476 18.4 480.7 18.7 485.3 19.3 490 19.6 494.7 19.9 499.3 20.2 504 20.8 508.7 21 513.3 21.3 518 21.6 522.7 22.1 527.3 22.3 532 22.6 536.7 22.8 541.3 23.3 546 23.5 550.7 23.7 555.3 23.9 560 24.4" transform="matrix(1,0,0,-1,82.8,592.5)" fill="#71708A" fill-opacity="0.2"></polygon>
</g>
<g clip-path="url(#zr0-c4)">
<polyline points="0 7.4 4.7 7.2 9.3 7.4 14 7.3 18.7 7 23.3 7.4 28 7.1 32.7 7.1 37.3 7.3 42 7 46.7 7 51.3 6.8 56 6.9 60.7 6.7 65.3 7 70 6.8 74.7 6.6 79.3 6.9 84 6.8 88.7 6.5 93.3 6.6 98 6.6 102.7 6.7 107.3 6.6 112 6.5 116.7 6.7 121.3 6.6 126 6.3 130.7 6.4 135.3 6.5 140 6.3 144.7 6.6 149.3 6.3 154 6.4 158.7 6.5 163.3 6.4 168 6.5 172.7 6.3 177.3 6.4 182 6.1 186.7 6.2 191.3 6.2 196 6.2 200.7 6.3 205.3 6 210 6.4 214.7 6.1 219.3 6 224 6.1 228.7 6.1 233.3 6 238 6.2 242.7 5.9 247.3 6.2 252 6 256.7 6 261.3 6.2 266 6 270.7 5.9 275.3 6.1 280 6 284.7 5.8 289.3 6.2 294 5.9 298.7 6 303.3 6 308 5.9 312.7 5.7 317.3 5.8 322 5.8 326.7 5.8 331.3 5.9 336 5.6 340.7 6 345.3 5.8 350 5.7 354.7 6 359.3 6.6 364 7.1 368.7 7.6 373.3 8.5 378 9 382.7 9.4 387.3 9.8 392 10.6 396.7 11 401.3 11.4 406 11.8 410.7 12.6 415.3 13 420 13.4 424.7 13.7 429.3 14.4 434 14.8 438.7 15.2 443.3 15.5 448 16.2 452.7 16.5 457.3 16.9 462 17.2 466.7 17.8 471.3 18.1 476 18.4 480.7 18.7 485.3 19.3 490 19.6 494.7 19.9 499.3 20.2 504 20.8 508.7 21 513.3 21.3 518 21.6 522.7 22.1 527.3 22.3 532 22.6 536.7 22.8 541.3 23.3 546 23.5 550.7 23.7 555.3 23.9 560 24.4" transform="matrix(1,0,0,-1,82.8,592.5)" fill="none" stroke="#71708A"></polyline>
</g>
<g clip-path="url(#zr0-c5)">
<polyline points="0 7.4 4.7 7.2 9.3 7.4 14 7.3 18.7 7 23.3 7.4 28 7.1 32.7 7.1 37.3 7.3 42 7 46.7 7 51.3 6.8 56 6.9 60.7 6.7 65.3 7 70 6.8 74.7 6.6 79.3 6.9 84 6.8 88.7 6.5 93.3 6.6 98 6.6 102.7 6.7 107.3 6.6 112 6.5 116.7 6.7 121.3 6.6 126 6.3 130.7 6.4 135.3 6.5 140 6.3 144.7 6.6 149.3 6.3 154 6.4 158.7 6.5 163.3 6.4 168 6.5 172.7 6.3 177.3 6.4 182 6.1 186.7 6.2 191.3 6.2 196 6.2 200.7 6.3 205.3 6 210 6.4 214.7 6.1 219.3 6 224 6.1 228.7 6.1 233.3 6 238 6.2 242.7 5.9 247.3 6.2 252 6 256.7 6 261.3 6.2 266 6 270.7 5.9 275.3 6.1 280 6 284.7 5.8 289.3 6.2 294 5.9 298.7 6 303.3 6 308 5.9 312.7 5.7 317.3 5.8 322 5.8 326.7 5.8 331.3 5.9 336 5.6 340.7 6 345.3 5.8 350 5.7 354.7 6 359.3 6.6 364 7.1 368.7 7.6 373.3 8.5 378 9 382.7 9.4 387.3 9.8 392 10.6 396.7 11 401.3 11.4 406 11.8 410.7 12.6 415.3 13 420 13.4 424.7 13.7 429.3 14.4 434 14.8 438.7 15.2 443.3 15.5 448 16.2 452.7 16.5 457.3 16.9 462 17.2 466.7 17.8 471.3 18.1 476 18.4 480.7 18.7 485.3 19.3 490 19.6 494.7 19.9 499.3 20.2 504 20.8 508.7 21 513.3 21.3 518 21.6 522.7 22.1 527.3 22.3 532 22.6 536.7 22.8 541.3 23.3 546 23.5 550.7 23.7 555.3 23.9 560 24.4" transform="matrix(1,0,0,-1,82.8,592.5)" fill="none" stroke="#87A3CE" stroke-width="0.5"></polyline>
</g>
<g clip-path="url(#zr0-c6)">
<polyline points="0 7.4 4.7 7.2 9.3 7.4 14 7.3 18.7 7 23.3 7.4 28 7.1 32.7 7.1 37.3 7.3 42 7 46.7 7 51.3 6.8 56 6.9 60.7 6.7 65.3 7 70 6.8 74.7 6.6 79.3 6.9 84 6.8 88.7 6.5 93.3 6.6 98 6.6 102.7 6.7 107.3 6.6 112 6.5 116.7 6.7 121.3 6.6 126 6.3 130.7 6.4 135.3 6.5 140 6.3 144.7 6.6 149.3 6.3 154 6.4 158.7 6.5 163.3 6.4 168 6.5 172.7 6.3 177.3 6.4 182 6.1 186.7 6.2 191.3 6.2 196 6.2 200.7 6.3 205.3 6 210 6.4 214.7 6.1 219.3 6 224 6.1 228.7 6.1 233.3 6 238 6.2 242.7 5.9 247.3 6.2 252 6 256.7 6 261.3 6.2 266 6 270.7 5.9 275.3 6.1 280 6 284.7 5.8 289.3 6.2 294 5.9 298.7 6 303.3 6 308 5.9 312.7 5.7 317.3 5.8 322 5.8 326.7 5.8 331.3 5.9 336 5.6 340.7 6 345.3 5.8 350 5.7 354.7 6 359.3 6.6 364 7.1 368.7 7.6 373.3 8.5 378 9 382.7 9.4 387.3 9.8 392 10.6 396.7 11 401.3 11.4 406 11.8 410.7 12.6 415.3 13 420 13.4 424.7 13.7 429.3 14.4 434 14.8 438.7 15.2 443.3 15.5 448 16.2 452.7 16.5 457.3 16.9 462 17.2 466.7 17.8 471.3 18.1 476 18.4 480.7 18.7 485.3 19.3 490 19.6 494.7 19.9 499.3 20.2 504 20.8 508.7 21 513.3 21.3 518 21.6 522.7 22.1 527.3 22.3 532 22.6 536.7 22.8 541.3 23.3 546 23.5 550.7 23.7 555.3 23.9 560 24.4" transform="matrix(1,0,0,-1,82.8,592.5)" fill="none" stroke="#71708A"></polyline>
</g>
<path d="M-5 -5l691.0547 0l0 22l-691.0547 0Z" transform="translate(59.4727 5)" fill="rgb(0,0,0)" fill-opacity="0" stroke="#ccc" stroke-width="0"></path>
<path d="M0 7L25 7" transform="translate(60.4727 4)" fill="#000" stroke="#ACDFED" stroke-width="2" stroke-linecap="butt" stroke-miterlimit="10"></path>
<path d="M12.5 1.4L18.1 12.6L6.9 12.6Z" transform="translate(60.4727 4)" fill="#ACDFED"></path>
<text dominant-baseline="central" text-anchor="start" style="font-size:12px;font-family:Microsoft YaHei;" x="30" y="7" transform="translate(60.4727 4)" fill="#B9B8CE">Pipe_Pres</text>
<path d="M0 7L25 7" transform="translate(156.1465 4)" fill="#000" stroke="#ACDFED" stroke-width="2" stroke-linecap="butt" stroke-miterlimit="10"></path>
<path d="M18.1 7A5.6 5.6 0 1 1 18.1 6.9994" transform="translate(156.1465 4)" fill="#ACDFED"></path>
<text dominant-baseline="central" text-anchor="start" style="font-size:12px;font-family:Microsoft YaHei;" x="30" y="7" transform="translate(156.1465 4)" fill="#B9B8CE">Ambient_Pres</text>
<path d="M0 7L25 7" transform="translate(276.0313 4)" fill="#000" stroke="#FFAB91" stroke-width="2" stroke-linecap="butt" stroke-miterlimit="10"></path>
<path d="M12.5 1.4L18.1 12.6L6.9 12.6Z" transform="translate(276.0313 4)" fill="#FFAB91"></path>
<text dominant-baseline="central" text-anchor="start" style="font-size:12px;font-family:Microsoft YaHei;" x="30" y="7" transform="translate(276.0313 4)" fill="#B9B8CE">Pipe_Temp</text>
<path d="M0 7L25 7" transform="translate(380.0137 4)" fill="#000" stroke="#ccc" stroke-width="2" stroke-linecap="butt" stroke-miterlimit="10"></path>
<path d="M18.1 7A5.6 5.6 0 1 1 18.1 6.9994" transform="translate(380.0137 4)" fill="#ccc" stroke="#ccc" stroke-width="0" stroke-linecap="butt" stroke-miterlimit="10"></path>
<text dominant-baseline="central" text-anchor="start" style="font-size:12px;font-family:Microsoft YaHei;" x="30" y="7" transform="translate(380.0137 4)" fill="#ccc">Chip_Temp</text>
<path d="M0 7L25 7" transform="translate(485.2617 4)" fill="#000" stroke="#ccc" stroke-width="2" stroke-linecap="butt" stroke-miterlimit="10"></path>
<path d="M18.1 7A5.6 5.6 0 1 1 18.1 6.9994" transform="translate(485.2617 4)" fill="#ccc" stroke="#ccc" stroke-width="0" stroke-linecap="butt" stroke-miterlimit="10"></path>
<text dominant-baseline="central" text-anchor="start" style="font-size:12px;font-family:Microsoft YaHei;" x="30" y="7" transform="translate(485.2617 4)" fill="#ccc">Set_nPressure</text>
<path d="M0 7L25 7" transform="translate(605.8672 4)" fill="#000" stroke="#f7f494" stroke-width="2" stroke-linecap="butt" stroke-miterlimit="10"></path>
<path d="M12.5 1.4L18.1 12.6L6.9 12.6Z" transform="translate(605.8672 4)" fill="#f7f494"></path>
<text dominant-baseline="central" text-anchor="start" style="font-size:12px;font-family:Microsoft YaHei;" x="30" y="7" transform="translate(605.8672 4)" fill="#B9B8CE">Current_nPressure</text>
<path d="M0 0l560 0l0 30l-560 0Z" transform="matrix(1,0,0,-1,82.8,592.5)" fill="none"></path>
<path d="M0 0l560 0l0 30l-560 0Z" transform="matrix(1,0,0,-1,82.8,592.5)" fill="rgb(135,163,206)" fill-opacity="0.2"></path>
<path d="M3.5 0.5L556.5 0.5A3 3 0 0 1 559.5 3.5L559.5 26.5A3 3 0 0 1 556.5 29.5L3.5 29.5A3 3 0 0 1 0.5 26.5L0.5 3.5A3 3 0 0 1 3.5 0.5" transform="matrix(1,0,0,-1,82.8,592.5)" fill="rgb(0,0,0)" fill-opacity="0" stroke="#71708A"></path>
<path d="M0 29.5L560 29.5L560 34.5A2 2 0 0 1 558 36.5L2 36.5A2 2 0 0 1 0 34.5L0 29.5" transform="matrix(1,0,0,-1,82.8,592.5)" fill="#B0B6C3" fill-opacity="0.3"></path>
<path d="M-2.2408 -1.6796C-1.8674 -1.6796 -1.6817 -1.4939 -1.6817 -1.1204L-1.6817 1.1204C-1.6817 1.4939 -1.8674 1.6796 -2.2408 1.6796C-2.6143 1.6796 -2.8 1.4939 -2.8 1.1204L-2.8 -1.1204C-2.8 -1.4939 -2.6143 -1.6796 -2.2408 -1.6796ZM0 -1.6796C0.3735 -1.6796 0.5592 -1.4939 0.5592 -1.1204L0.5592 1.1204C0.5592 1.4939 0.3735 1.6796 0 1.6796C-0.3735 1.6796 -0.5592 1.4939 -0.5592 1.1204L-0.5592 -1.1204C-0.5592 -1.4939 -0.3735 -1.6796 0 -1.6796ZM2.2408 -1.6796C2.6143 -1.6796 2.8 -1.4939 2.8 -1.1204L2.8 1.1204C2.8 1.4939 2.6143 1.6796 2.2408 1.6796C1.8674 1.6796 1.6817 1.4939 1.6817 1.1204L1.6817 -1.1204C1.6796 -1.4939 1.8674 -1.6796 2.2408 -1.6796Z" transform="matrix(1,0,0,-1,362.8,559.5)" fill="#fff"></path>
<path d="M0 1.628L0 2M0 0L0 0.375M-0.1 0.375L0.1 0.375A0.1 0.1 0 0 1 0.2 0.475L0.2 1.525A0.1 0.1 0 0 1 0.1 1.625L-0.1 1.625A0.1 0.1 0 0 1 -0.2 1.525L-0.2 0.475A0.1 0.1 0 0 1 -0.1 0.375Z" transform="matrix(15,0,0,-15,83.8,592.5)" fill="#353450" stroke="#C5CBE3" stroke-width="0.06666666666666667"></path>
<path d="M0 1.628L0 2M0 0L0 0.375M-0.1 0.375L0.1 0.375A0.1 0.1 0 0 1 0.2 0.475L0.2 1.525A0.1 0.1 0 0 1 0.1 1.625L-0.1 1.625A0.1 0.1 0 0 1 -0.2 1.525L-0.2 0.475A0.1 0.1 0 0 1 -0.1 0.375Z" transform="matrix(15,0,0,-15,641.8,592.5)" fill="#353450" stroke="#C5CBE3" stroke-width="0.06666666666666667"></path>
<defs >
<clipPath id="zr0-c0">
<path d="M79 59l562 0l0 472l-562 0Z" fill="#000"></path>
</clipPath>
<clipPath id="zr0-c1">
<path d="M79 59l562 0l0 472l-562 0Z" fill="#000"></path>
</clipPath>
<clipPath id="zr0-c2">
<path d="M79 59l561.9888 0l0 472l-561.9888 0Z" fill="#000" class="zr0-cls-0"></path>
</clipPath>
<clipPath id="zr0-c3">
<path d="M79 59l562 0l0 472l-562 0Z" fill="#000"></path>
</clipPath>
<clipPath id="zr0-c4">
<path d="M0 0l0 0l0 30l0 0Z" transform="matrix(1,0,0,-1,82.8,592.5)" fill="#000"></path>
</clipPath>
<clipPath id="zr0-c5">
<path d="M0 0l560 0l0 30l-560 0Z" transform="matrix(1,0,0,-1,82.8,592.5)" fill="#000"></path>
</clipPath>
<clipPath id="zr0-c6">
<path d="M560 0l0 0l0 30l0 0Z" transform="matrix(1,0,0,-1,82.8,592.5)" fill="#000"></path>
</clipPath>
</defs>
<style ><![CDATA[
.zr0-cls-0 {
animation:zr0-ani-0 1s linear both;
}
@keyframes zr0-ani-0 {
0% {
d:path("M79 59l562 0l0 472l-562 0Z");
}
100% {
d:path("M79 59l562 0l0 472l-562 0Z");
}
}
]]>

</style>
</svg>